# file written by OpenSceneGraph

mtllib g10.mtl


o _Geometry_0

v -2052.655029296875 79351.65625 6750
v -2286 79255 6750
v -2519.344970703125 79351.65625 6750
v -2616 79585 6750
v -2519.344970703125 79818.34375 6750
v -2286 79915 6750
v -2052.655029296875 79818.34375 6750
v -1956 79585 6750
v -1956 79585 23764.5
v -2052.655029296875 79818.34375 23764.5
v -2286 79915 23764.5
v -2519.344970703125 79818.34375 23764.5
v -2616 79585 23764.5
v -2519.344970703125 79351.65625 23764.5
v -2286 79255 23764.5
v -2052.655029296875 79351.65625 23764.5
v -2052.655029296875 79774.625 6473.94091796875
v -2286 79866.546875 6444.0732421875
v -1956 79552.6953125 6546.048828125
v -2052.655029296875 79330.7734375 6618.15576171875
v -2286 79238.8515625 6648.02392578125
v -2519.344970703125 79330.7734375 6618.15576171875
v -2616 79552.6953125 6546.048828125
v -2519.344970703125 79774.625 6473.94091796875
v -2052.655029296875 79647.734375 6224.90478515625
v -2286 79725.9296875 6168.0927734375
v -1956 79458.953125 6362.06201171875
v -2052.655029296875 79270.171875 6499.21923828125
v -2286 79191.9765625 6556.03076171875
v -2519.344970703125 79270.171875 6499.21923828125
v -2616 79458.953125 6362.06201171875
v -2519.344970703125 79647.734375 6224.90478515625
v -2052.655029296875 79450.09375 6027.26904296875
v -2286 79506.90625 5949.0732421875
v -1956 79312.9375 6216.048828125
v -2052.655029296875 79175.78125 6404.8291015625
v -2286 79118.96875 6483.02392578125
v -2519.344970703125 79175.78125 6404.8291015625
v -2616 79312.9375 6216.048828125
v -2519.344970703125 79450.09375 6027.26904296875
v -2052.655029296875 79201.0625 5900.3779296875
v -2286 79230.9296875 5808.4541015625
v -1956 79128.953125 6122.30322265625
v -2052.655029296875 79056.84375 6344.22705078125
v -2286 79026.9765625 6436.15087890625
v -2519.344970703125 79056.84375 6344.22705078125
v -2616 79128.953125 6122.30322265625
v -2519.344970703125 79201.0625 5900.3779296875
v -2052.655029296875 78925 5856.65478515625
v -2286 78925 5760
v -1956 78925 6090
v -2052.655029296875 78925 6323.34521484375
v -2286 78925 6420
v -2519.344970703125 78925 6323.34521484375
v -2616 78925 6090
v -2519.344970703125 78925 5856.65478515625
v -2052.655029296875 78226 6323.34521484375
v -2286 78226 6420
v -2519.344970703125 78226 6323.34521484375
v -2616 78226 6090
v -2519.344970703125 78226 5856.65478515625
v -2286 78226 5760
v -2052.655029296875 78226 5856.65478515625
v -1956 78226 6090
v -2052.655029296875 79351.65625 6750
v -2052.655029296875 79351.65625 6750
v -2286 79255 6750
v -2286 79255 6750
v -2519.344970703125 79351.65625 6750
v -2519.344970703125 79351.65625 6750
v -2616 79585 6750
v -2616 79585 6750
v -2519.344970703125 79818.34375 6750
v -2519.344970703125 79818.34375 6750
v -2286 79915 6750
v -2286 79915 6750
v -2052.655029296875 79818.34375 6750
v -2052.655029296875 79818.34375 6750
v -1956 79585 6750
v -1956 79585 6750
v -1956 79585 23764.5
v -2052.655029296875 79818.34375 23764.5
v -2286 79915 23764.5
v -2519.344970703125 79818.34375 23764.5
v -2616 79585 23764.5
v -2519.344970703125 79351.65625 23764.5
v -2286 79255 23764.5
v -2052.655029296875 79351.65625 23764.5
v -2052.655029296875 78925 5856.65478515625
v -2052.655029296875 78925 5856.65478515625
v -2286 78925 5760
v -2286 78925 5760
v -1956 78925 6090
v -1956 78925 6090
v -2052.655029296875 78925 6323.34521484375
v -2052.655029296875 78925 6323.34521484375
v -2286 78925 6420
v -2286 78925 6420
v -2519.344970703125 78925 6323.34521484375
v -2519.344970703125 78925 6323.34521484375
v -2616 78925 6090
v -2616 78925 6090
v -2519.344970703125 78925 5856.65478515625
v -2519.344970703125 78925 5856.65478515625
v -2052.655029296875 78226 6323.34521484375
v -2286 78226 6420
v -2519.344970703125 78226 6323.34521484375
v -2616 78226 6090
v -2519.344970703125 78226 5856.65478515625
v -2286 78226 5760
v -2052.655029296875 78226 5856.65478515625
v -1956 78226 6090
# 112 elements written

vn 0.70662993192672729 -0.7047494649887085 0.063264168798923492
vn 0.00073187460657209158 -0.99691218137741089 0.078520976006984711
vn -0.70662808418273926 -0.70595467090606689 0.048007883131504059
vn -0.99994033575057983 -0.00012839392002206296 -0.010922110639512539
vn -0.70662969350814819 0.7047497034072876 -0.063263259828090668
vn -0.00073123379843309522 0.99691182374954224 -0.078525833785533905
vn 0.70662927627563477 0.70595383644104004 -0.048002410680055618
vn 0.99994039535522461 0.00012643539230339229 0.010923990979790688
vn 0.99060213565826416 -0.13677485287189484 0
vn 0.79717487096786499 0.6037483811378479 0
vn 0.13677585124969482 0.99060201644897461 0
vn -0.60375046730041504 0.79717332124710083 0
vn -0.99060213565826416 0.13677485287189484 0
vn -0.79717487096786499 -0.6037483811378479 0
vn -0.13677585124969482 -0.99060201644897461 0
vn 0.60375046730041504 -0.79717332124710083 0
vn 0.70830625295639038 0.67592692375183105 -0.20353123545646667
vn -1.0052060588350287e-06 0.95105814933776855 -0.30901193618774414
vn 0.99976098537445068 0.0067532844841480255 0.020795503631234169
vn 0.70830214023590088 -0.66647285223007202 0.23264117538928986
vn 1.3855573115506559e-06 -0.95105713605880737 0.30901512503623962
vn -0.70830345153808594 -0.67592924833297729 0.2035333514213562
vn -0.99976098537445068 -0.0067602097988128662 -0.020791551098227501
vn -0.70830518007278442 0.66647309064865112 -0.23263134062290192
vn 0.70830470323562622 0.57994681596755981 -0.40245017409324646
vn 1.5757316305098357e-06 0.80901503562927246 -0.587787926197052
vn 0.99976092576980591 0.012849563732743263 0.017688391730189323
vn 0.708304762840271 -0.56196391582489014 0.42720124125480652
vn -1.4996587651694426e-06 -0.80901151895523071 0.58779269456863403
vn -0.70830428600311279 -0.57994598150253296 0.40245214104652405
vn -0.99976098537445068 -0.01285156887024641 -0.017688075080513954
vn -0.70830678939819336 0.56196063756942749 -0.42720219492912292
vn 0.70830518007278442 0.42719888687133789 -0.56196516752243042
vn -2.4994326963678759e-07 0.58778417110443115 -0.80901771783828735
vn 0.99976098537445068 0.017686877399682999 0.012850130908191204
vn 0.708304762840271 -0.4024481475353241 0.57994812726974487
vn 4.8901931393174891e-08 -0.58778500556945801 0.80901718139648438
vn -0.70830464363098145 -0.42719978094100952 0.5619652271270752
vn -0.99976098537445068 -0.017686864361166954 -0.012850242666900158
vn -0.70830488204956055 0.40244776010513306 -0.57994818687438965
vn 0.70830577611923218 0.23263752460479736 -0.66647034883499146
vn -3.2601340649307531e-07 0.30901968479156494 -0.95105570554733276
vn 0.99976098537445068 0.020793721079826355 0.0067569487728178501
vn 0.70830488204956055 -0.20353633165359497 0.67592686414718628
vn -2.282093305439048e-07 -0.30901721119880676 0.95105642080307007
vn -0.708304762840271 -0.23263642191886902 0.66647177934646606
vn -0.99976098537445068 -0.020793668925762177 -0.0067555634304881096
vn -0.70830541849136353 0.20353834331035614 -0.67592567205429077
vn 0.7066301703453064 0.063266701996326447 -0.70474898815155029
vn 0.00072930403985083103 0.07852858304977417 -0.99691164493560791
vn 0.99994033575057983 0.010923254303634167 0.00012686032277997583
vn 0.70662713050842285 -0.048005703836679459 0.70595580339431763
vn -0.00072940619429573417 -0.07852732390165329 0.99691170454025269
vn -0.7066301703453064 -0.063266351819038391 0.70474898815155029
vn -0.99994033575057983 -0.010923444293439388 -0.000126494443975389
vn -0.70662730932235718 0.048005212098360062 -0.70595556497573853
vn 0.79717487096786499 0 0.60374850034713745
vn 0.13677382469177246 0 0.99060231447219849
vn -0.60374808311462402 0 0.79717516899108887
vn -0.99060231447219849 0 0.13677401840686798
vn -0.79717487096786499 0 -0.60374850034713745
vn -0.13677382469177246 0 -0.99060231447219849
vn 0.60374808311462402 0 -0.79717516899108887
vn 0.99060231447219849 0 -0.13677401840686798
vn 0 0 -1
vn 0 0 1
vn 0 0 -1
vn 0 0 1
vn 0 0 -1
vn 0 0 1
vn 0 0 -1
vn 0 0 1
vn 0 0 -1
vn 0 0 1
vn 0 0 -1
vn 0 0 1
vn 0 0 -1
vn 0 0 1
vn 0 0 -1
vn 0 0 1
vn 0 0 1
vn 0 0 1
vn 0 0 1
vn 0 0 1
vn 0 0 1
vn 0 0 1
vn 0 0 1
vn 0 0 1
vn 0 -1 0
vn 0 1 0
vn 0 -1 0
vn 0 1 0
vn 0 -1 0
vn 0 1 0
vn 0 -1 0
vn 0 1 0
vn 0 -1 0
vn 0 1 0
vn 0 -1 0
vn 0 1 0
vn 0 -1 0
vn 0 1 0
vn 0 -1 0
vn 0 1 0
vn 0 -1 0
vn 0 -1 0
vn 0 -1 0
vn 0 -1 0
vn 0 -1 0
vn 0 -1 0
vn 0 -1 0
vn 0 -1 0
# 112 elements written
f 65//65 67//67 69//69 
f 65//65 69//69 71//71 
f 65//65 71//71 73//73 
f 65//65 73//73 75//75 
f 65//65 75//75 77//77 
f 65//65 77//77 79//79 
f 81//81 82//82 83//83 
f 81//81 83//83 84//84 
f 81//81 84//84 85//85 
f 81//81 85//85 86//86 
f 81//81 86//86 87//87 
f 81//81 87//87 88//88 
f 8//8 7//7 10//10 
f 8//8 10//10 9//9 
f 7//7 6//6 11//11 
f 7//7 11//11 10//10 
f 6//6 5//5 12//12 
f 6//6 12//12 11//11 
f 5//5 4//4 13//13 
f 5//5 13//13 12//12 
f 4//4 3//3 14//14 
f 4//4 14//14 13//13 
f 3//3 2//2 15//15 
f 3//3 15//15 14//14 
f 2//2 1//1 16//16 
f 2//2 16//16 15//15 
f 1//1 8//8 9//9 
f 1//1 9//9 16//16 
f 74//74 72//72 70//70 
f 74//74 70//70 68//68 
f 74//74 68//68 66//66 
f 74//74 66//66 80//80 
f 74//74 80//80 78//78 
f 74//74 78//78 76//76 
f 6//6 7//7 17//17 
f 6//6 17//17 18//18 
f 7//7 8//8 19//19 
f 7//7 19//19 17//17 
f 8//8 1//1 20//20 
f 8//8 20//20 19//19 
f 1//1 2//2 21//21 
f 1//1 21//21 20//20 
f 2//2 3//3 22//22 
f 2//2 22//22 21//21 
f 3//3 4//4 23//23 
f 3//3 23//23 22//22 
f 4//4 5//5 24//24 
f 4//4 24//24 23//23 
f 5//5 6//6 18//18 
f 5//5 18//18 24//24 
f 18//18 17//17 25//25 
f 18//18 25//25 26//26 
f 17//17 19//19 27//27 
f 17//17 27//27 25//25 
f 19//19 20//20 28//28 
f 19//19 28//28 27//27 
f 20//20 21//21 29//29 
f 20//20 29//29 28//28 
f 21//21 22//22 30//30 
f 21//21 30//30 29//29 
f 22//22 23//23 31//31 
f 22//22 31//31 30//30 
f 23//23 24//24 32//32 
f 23//23 32//32 31//31 
f 24//24 18//18 26//26 
f 24//24 26//26 32//32 
f 26//26 25//25 33//33 
f 26//26 33//33 34//34 
f 25//25 27//27 35//35 
f 25//25 35//35 33//33 
f 27//27 28//28 36//36 
f 27//27 36//36 35//35 
f 28//28 29//29 37//37 
f 28//28 37//37 36//36 
f 29//29 30//30 38//38 
f 29//29 38//38 37//37 
f 30//30 31//31 39//39 
f 30//30 39//39 38//38 
f 31//31 32//32 40//40 
f 31//31 40//40 39//39 
f 32//32 26//26 34//34 
f 32//32 34//34 40//40 
f 34//34 33//33 41//41 
f 34//34 41//41 42//42 
f 33//33 35//35 43//43 
f 33//33 43//43 41//41 
f 35//35 36//36 44//44 
f 35//35 44//44 43//43 
f 36//36 37//37 45//45 
f 36//36 45//45 44//44 
f 37//37 38//38 46//46 
f 37//37 46//46 45//45 
f 38//38 39//39 47//47 
f 38//38 47//47 46//46 
f 39//39 40//40 48//48 
f 39//39 48//48 47//47 
f 40//40 34//34 42//42 
f 40//40 42//42 48//48 
f 42//42 41//41 49//49 
f 42//42 49//49 50//50 
f 41//41 43//43 51//51 
f 41//41 51//51 49//49 
f 43//43 44//44 52//52 
f 43//43 52//52 51//51 
f 44//44 45//45 53//53 
f 44//44 53//53 52//52 
f 45//45 46//46 54//54 
f 45//45 54//54 53//53 
f 46//46 47//47 55//55 
f 46//46 55//55 54//54 
f 47//47 48//48 56//56 
f 47//47 56//56 55//55 
f 48//48 42//42 50//50 
f 48//48 50//50 56//56 
f 91//91 89//89 93//93 
f 91//91 93//93 95//95 
f 91//91 95//95 97//97 
f 91//91 97//97 99//99 
f 91//91 99//99 101//101 
f 91//91 101//101 103//103 
f 105//105 106//106 107//107 
f 105//105 107//107 108//108 
f 105//105 108//108 109//109 
f 105//105 109//109 110//110 
f 105//105 110//110 111//111 
f 105//105 111//111 112//112 
f 94//94 90//90 92//92 
f 94//94 92//92 104//104 
f 94//94 104//104 102//102 
f 94//94 102//102 100//100 
f 94//94 100//100 98//98 
f 94//94 98//98 96//96 
f 64//64 63//63 49//49 
f 64//64 49//49 51//51 
f 63//63 62//62 50//50 
f 63//63 50//50 49//49 
f 62//62 61//61 56//56 
f 62//62 56//56 50//50 
f 61//61 60//60 55//55 
f 61//61 55//55 56//56 
f 60//60 59//59 54//54 
f 60//60 54//54 55//55 
f 59//59 58//58 53//53 
f 59//59 53//53 54//54 
f 58//58 57//57 52//52 
f 58//58 52//52 53//53 
f 57//57 64//64 51//51 
f 57//57 51//51 52//52 
