# file written by OpenSceneGraph

mtllib g3.mtl


o _Geometry_0

v 51 78424.15625 18798.154296875
v 51 78327.5 19031.5
v 51 78424.15625 19264.845703125
v 51 78657.5 19361.5
v 51 78890.84375 19264.845703125
v 51 78987.5 19031.5
v 51 78890.84375 18798.154296875
v 51 78657.5 18701.5
v 9966.2998046875 78657.5 18701.5
v 9966.2998046875 78890.84375 18798.154296875
v 9966.2998046875 78987.5 19031.5
v 9966.2998046875 78890.84375 19264.845703125
v 9966.2998046875 78657.5 19361.5
v 9966.2998046875 78424.15625 19264.845703125
v 9966.2998046875 78327.5 19031.5
v 9966.2998046875 78424.15625 18798.154296875
v -9966.2001953125 78424.15625 18798.154296875
v -9966.2001953125 78327.5 19031.5
v -9966.2001953125 78424.15625 19264.845703125
v -9966.2001953125 78657.5 19361.5
v -9966.2001953125 78890.84375 19264.845703125
v -9966.2001953125 78987.5 19031.5
v -9966.2001953125 78890.84375 18798.154296875
v -9966.2001953125 78657.5 18701.5
v -50.900001525878906 78657.5 18701.5
v -50.900001525878906 78890.84375 18798.154296875
v -50.900001525878906 78987.5 19031.5
v -50.900001525878906 78890.84375 19264.845703125
v -50.900001525878906 78657.5 19361.5
v -50.900001525878906 78424.15625 19264.845703125
v -50.900001525878906 78327.5 19031.5
v -50.900001525878906 78424.15625 18798.154296875
v 3479.800048828125 78356.9765625 18730.98046875
v 3479.800048828125 78232.5 19031.5
v 3479.800048828125 78356.9765625 19332.01953125
v 3479.800048828125 78657.5 19456.5
v 3479.800048828125 78958.0234375 19332.01953125
v 3479.800048828125 79082.5 19031.5
v 3479.800048828125 78958.0234375 18730.98046875
v 3479.800048828125 78657.5 18606.5
v 6273.7998046875 78657.5 18606.5
v 6273.7998046875 78958.0234375 18730.98046875
v 6273.7998046875 79082.5 19031.5
v 6273.7998046875 78958.0234375 19332.01953125
v 6273.7998046875 78657.5 19456.5
v 6273.7998046875 78356.9765625 19332.01953125
v 6273.7998046875 78232.5 19031.5
v 6273.7998046875 78356.9765625 18730.98046875
v 5177.31982421875 78657.5 19332.01953125
v 4876.7998046875 78657.5 19456.5
v 4576.27978515625 78657.5 19332.01953125
v 4451.7998046875 78657.5 19031.5
v 4576.27978515625 78657.5 18730.98046875
v 4876.7998046875 78657.5 18606.5
v 5177.31982421875 78657.5 18730.98046875
v 5301.7998046875 78657.5 19031.5
v 5301.7998046875 79330.5 19031.5
v 5177.31982421875 79330.5 18730.98046875
v 4876.7998046875 79330.5 18606.5
v 4576.27978515625 79330.5 18730.98046875
v 4451.7998046875 79330.5 19031.5
v 4576.27978515625 79330.5 19332.01953125
v 4876.7998046875 79330.5 19456.5
v 5177.31982421875 79330.5 19332.01953125
v -6273.7998046875 78356.9765625 18730.98046875
v -6273.7998046875 78232.5 19031.5
v -6273.7998046875 78356.9765625 19332.01953125
v -6273.7998046875 78657.5 19456.5
v -6273.7998046875 78958.0234375 19332.01953125
v -6273.7998046875 79082.5 19031.5
v -6273.7998046875 78958.0234375 18730.98046875
v -6273.7998046875 78657.5 18606.5
v -3479.800048828125 78657.5 18606.5
v -3479.800048828125 78958.0234375 18730.98046875
v -3479.800048828125 79082.5 19031.5
v -3479.800048828125 78958.0234375 19332.01953125
v -3479.800048828125 78657.5 19456.5
v -3479.800048828125 78356.9765625 19332.01953125
v -3479.800048828125 78232.5 19031.5
v -3479.800048828125 78356.9765625 18730.98046875
v -4576.27978515625 78657.5 19332.01953125
v -4876.7998046875 78657.5 19456.5
v -5177.31982421875 78657.5 19332.01953125
v -5301.7998046875 78657.5 19031.5
v -5177.31982421875 78657.5 18730.98046875
v -4876.7998046875 78657.5 18606.5
v -4576.27978515625 78657.5 18730.98046875
v -4451.7998046875 78657.5 19031.5
v -4451.7998046875 79330.5 19031.5
v -4576.27978515625 79330.5 18730.98046875
v -4876.7998046875 79330.5 18606.5
v -5177.31982421875 79330.5 18730.98046875
v -5301.7998046875 79330.5 19031.5
v -5177.31982421875 79330.5 19332.01953125
v -4876.7998046875 79330.5 19456.5
v -4576.27978515625 79330.5 19332.01953125
v 51 78424.15625 18798.154296875
v 51 78327.5 19031.5
v 51 78424.15625 19264.845703125
v 51 78657.5 19361.5
v 51 78890.84375 19264.845703125
v 51 78987.5 19031.5
v 51 78890.84375 18798.154296875
v 51 78657.5 18701.5
v 9966.2998046875 78657.5 18701.5
v 9966.2998046875 78890.84375 18798.154296875
v 9966.2998046875 78987.5 19031.5
v 9966.2998046875 78890.84375 19264.845703125
v 9966.2998046875 78657.5 19361.5
v 9966.2998046875 78424.15625 19264.845703125
v 9966.2998046875 78327.5 19031.5
v 9966.2998046875 78424.15625 18798.154296875
v -9966.2001953125 78424.15625 18798.154296875
v -9966.2001953125 78327.5 19031.5
v -9966.2001953125 78424.15625 19264.845703125
v -9966.2001953125 78657.5 19361.5
v -9966.2001953125 78890.84375 19264.845703125
v -9966.2001953125 78987.5 19031.5
v -9966.2001953125 78890.84375 18798.154296875
v -9966.2001953125 78657.5 18701.5
v -50.900001525878906 78657.5 18701.5
v -50.900001525878906 78890.84375 18798.154296875
v -50.900001525878906 78987.5 19031.5
v -50.900001525878906 78890.84375 19264.845703125
v -50.900001525878906 78657.5 19361.5
v -50.900001525878906 78424.15625 19264.845703125
v -50.900001525878906 78327.5 19031.5
v -50.900001525878906 78424.15625 18798.154296875
v 3479.800048828125 78356.9765625 18730.98046875
v 3479.800048828125 78232.5 19031.5
v 3479.800048828125 78356.9765625 19332.01953125
v 3479.800048828125 78657.5 19456.5
v 3479.800048828125 78958.0234375 19332.01953125
v 3479.800048828125 79082.5 19031.5
v 3479.800048828125 78958.0234375 18730.98046875
v 3479.800048828125 78657.5 18606.5
v 6273.7998046875 78657.5 18606.5
v 6273.7998046875 78958.0234375 18730.98046875
v 6273.7998046875 79082.5 19031.5
v 6273.7998046875 78958.0234375 19332.01953125
v 6273.7998046875 78657.5 19456.5
v 6273.7998046875 78356.9765625 19332.01953125
v 6273.7998046875 78232.5 19031.5
v 6273.7998046875 78356.9765625 18730.98046875
v 5177.31982421875 78657.5 19332.01953125
v 4876.7998046875 78657.5 19456.5
v 4576.27978515625 78657.5 19332.01953125
v 4451.7998046875 78657.5 19031.5
v 4576.27978515625 78657.5 18730.98046875
v 4876.7998046875 78657.5 18606.5
v 5177.31982421875 78657.5 18730.98046875
v 5301.7998046875 78657.5 19031.5
v 5301.7998046875 79330.5 19031.5
v 5177.31982421875 79330.5 18730.98046875
v 4876.7998046875 79330.5 18606.5
v 4576.27978515625 79330.5 18730.98046875
v 4451.7998046875 79330.5 19031.5
v 4576.27978515625 79330.5 19332.01953125
v 4876.7998046875 79330.5 19456.5
v 5177.31982421875 79330.5 19332.01953125
v -6273.7998046875 78356.9765625 18730.98046875
v -6273.7998046875 78232.5 19031.5
v -6273.7998046875 78356.9765625 19332.01953125
v -6273.7998046875 78657.5 19456.5
v -6273.7998046875 78958.0234375 19332.01953125
v -6273.7998046875 79082.5 19031.5
v -6273.7998046875 78958.0234375 18730.98046875
v -6273.7998046875 78657.5 18606.5
v -3479.800048828125 78657.5 18606.5
v -3479.800048828125 78958.0234375 18730.98046875
v -3479.800048828125 79082.5 19031.5
v -3479.800048828125 78958.0234375 19332.01953125
v -3479.800048828125 78657.5 19456.5
v -3479.800048828125 78356.9765625 19332.01953125
v -3479.800048828125 78232.5 19031.5
v -3479.800048828125 78356.9765625 18730.98046875
v -4576.27978515625 78657.5 19332.01953125
v -4876.7998046875 78657.5 19456.5
v -5177.31982421875 78657.5 19332.01953125
v -5301.7998046875 78657.5 19031.5
v -5177.31982421875 78657.5 18730.98046875
v -4876.7998046875 78657.5 18606.5
v -4576.27978515625 78657.5 18730.98046875
v -4451.7998046875 78657.5 19031.5
v -4451.7998046875 79330.5 19031.5
v -4576.27978515625 79330.5 18730.98046875
v -4876.7998046875 79330.5 18606.5
v -5177.31982421875 79330.5 18730.98046875
v -5301.7998046875 79330.5 19031.5
v -5177.31982421875 79330.5 19332.01953125
v -4876.7998046875 79330.5 19456.5
v -4576.27978515625 79330.5 19332.01953125
# 192 elements written

vn 0 -0.60374718904495239 -0.7971758246421814
vn 0 -0.99060207605361938 -0.1367754340171814
vn 0 -0.79717326164245605 0.60375052690505981
vn 0 -0.13677385449409485 0.99060231447219849
vn 0 0.60374718904495239 0.7971758246421814
vn 0 0.99060207605361938 0.1367754340171814
vn 0 0.79717326164245605 -0.60375052690505981
vn 0 0.13677385449409485 -0.99060231447219849
vn 0 -0.13677385449409485 -0.99060231447219849
vn 0 0.60374718904495239 -0.7971758246421814
vn 0 0.99060207605361938 -0.1367754340171814
vn 0 0.79717326164245605 0.60375052690505981
vn 0 0.13677385449409485 0.99060231447219849
vn 0 -0.60374718904495239 0.7971758246421814
vn 0 -0.99060207605361938 0.1367754340171814
vn 0 -0.79717326164245605 -0.60375052690505981
vn 0 -0.60374718904495239 -0.7971758246421814
vn 0 -0.99060207605361938 -0.1367754340171814
vn 0 -0.79717326164245605 0.60375052690505981
vn 0 -0.13677385449409485 0.99060231447219849
vn 0 0.60374718904495239 0.7971758246421814
vn 0 0.99060207605361938 0.1367754340171814
vn 0 0.79717326164245605 -0.60375052690505981
vn 0 0.13677385449409485 -0.99060231447219849
vn 0 -0.13677385449409485 -0.99060231447219849
vn 0 0.60374718904495239 -0.7971758246421814
vn 0 0.99060207605361938 -0.1367754340171814
vn 0 0.79717326164245605 0.60375052690505981
vn 0 0.13677385449409485 0.99060231447219849
vn 0 -0.60374718904495239 0.7971758246421814
vn 0 -0.99060207605361938 0.1367754340171814
vn 0 -0.79717326164245605 -0.60375052690505981
vn 0 -0.60374927520751953 -0.79717421531677246
vn 0 -0.99060273170471191 -0.13677074015140533
vn 0 -0.79717820882797241 0.60374414920806885
vn 0 -0.13677319884300232 0.99060243368148804
vn 0 0.60374927520751953 0.79717421531677246
vn 0 0.99060273170471191 0.13677074015140533
vn 0 0.79717820882797241 -0.60374414920806885
vn 0 0.13677319884300232 -0.99060243368148804
vn 0 -0.13677319884300232 -0.99060243368148804
vn 0 0.60374927520751953 -0.79717421531677246
vn 0 0.99060273170471191 -0.13677074015140533
vn 0 0.79717820882797241 0.60374414920806885
vn 0 0.13677319884300232 0.99060243368148804
vn 0 -0.60374927520751953 0.79717421531677246
vn 0 -0.99060273170471191 0.13677074015140533
vn 0 -0.79717820882797241 -0.60374414920806885
vn 0.79717487096786499 0 0.60374850034713745
vn 0.13677473366260529 0 0.99060219526290894
vn -0.60374909639358521 0 0.79717439413070679
vn -0.99060219526290894 0 0.13677439093589783
vn -0.79717487096786499 0 -0.60374850034713745
vn -0.13677473366260529 0 -0.99060219526290894
vn 0.60374909639358521 0 -0.79717439413070679
vn 0.99060219526290894 0 -0.13677439093589783
vn 0.99060219526290894 0 0.13677439093589783
vn 0.79717487096786499 0 -0.60374850034713745
vn 0.13677473366260529 0 -0.99060219526290894
vn -0.60374909639358521 0 -0.79717439413070679
vn -0.99060219526290894 0 -0.13677439093589783
vn -0.79717487096786499 0 0.60374850034713745
vn -0.13677473366260529 0 0.99060219526290894
vn 0.60374909639358521 0 0.79717439413070679
vn 0 -0.60374927520751953 -0.79717421531677246
vn 0 -0.99060273170471191 -0.13677074015140533
vn 0 -0.79717820882797241 0.60374414920806885
vn 0 -0.13677319884300232 0.99060243368148804
vn 0 0.60374927520751953 0.79717421531677246
vn 0 0.99060273170471191 0.13677074015140533
vn 0 0.79717820882797241 -0.60374414920806885
vn 0 0.13677319884300232 -0.99060243368148804
vn 0 -0.13677319884300232 -0.99060243368148804
vn 0 0.60374927520751953 -0.79717421531677246
vn 0 0.99060273170471191 -0.13677074015140533
vn 0 0.79717820882797241 0.60374414920806885
vn 0 0.13677319884300232 0.99060243368148804
vn 0 -0.60374927520751953 0.79717421531677246
vn 0 -0.99060273170471191 0.13677074015140533
vn 0 -0.79717820882797241 -0.60374414920806885
vn 0.79717487096786499 0 0.60374850034713745
vn 0.13677473366260529 0 0.99060219526290894
vn -0.60374909639358521 0 0.79717439413070679
vn -0.99060219526290894 0 0.13677439093589783
vn -0.79717487096786499 0 -0.60374850034713745
vn -0.13677473366260529 0 -0.99060219526290894
vn 0.60374909639358521 0 -0.79717439413070679
vn 0.99060219526290894 0 -0.13677439093589783
vn 0.99060219526290894 0 0.13677439093589783
vn 0.79717487096786499 0 -0.60374850034713745
vn 0.13677473366260529 0 -0.99060219526290894
vn -0.60374909639358521 0 -0.79717439413070679
vn -0.99060219526290894 0 -0.13677439093589783
vn -0.79717487096786499 0 0.60374850034713745
vn -0.13677473366260529 0 0.99060219526290894
vn 0.60374909639358521 0 0.79717439413070679
vn -1 0 0
vn -1 0 0
vn -1 0 0
vn -1 0 0
vn -1 0 0
vn -1 0 0
vn -1 0 0
vn -1 0 0
vn 1 0 0
vn 1 0 0
vn 1 0 0
vn 1 0 0
vn 1 0 0
vn 1 0 0
vn 1 0 0
vn 1 0 0
vn -1 0 0
vn -1 0 0
vn -1 0 0
vn -1 0 0
vn -1 0 0
vn -1 0 0
vn -1 0 0
vn -1 0 0
vn 1 0 0
vn 1 0 0
vn 1 0 0
vn 1 0 0
vn 1 0 0
vn 1 0 0
vn 1 0 0
vn 1 0 0
vn -1 0 0
vn -1 0 0
vn -1 0 0
vn -1 0 0
vn -1 0 0
vn -1 0 0
vn -1 0 0
vn -1 0 0
vn 1 0 0
vn 1 0 0
vn 1 0 0
vn 1 0 0
vn 1 0 0
vn 1 0 0
vn 1 0 0
vn 1 0 0
vn 0 -1 0
vn 0 -1 0
vn 0 -1 0
vn 0 -1 0
vn 0 -1 0
vn 0 -1 0
vn 0 -1 0
vn 0 -1 0
vn 0 1 0
vn 0 1 0
vn 0 1 0
vn 0 1 0
vn 0 1 0
vn 0 1 0
vn 0 1 0
vn 0 1 0
vn -1 0 0
vn -1 0 0
vn -1 0 0
vn -1 0 0
vn -1 0 0
vn -1 0 0
vn -1 0 0
vn -1 0 0
vn 1 0 0
vn 1 0 0
vn 1 0 0
vn 1 0 0
vn 1 0 0
vn 1 0 0
vn 1 0 0
vn 1 0 0
vn 0 -1 0
vn 0 -1 0
vn 0 -1 0
vn 0 -1 0
vn 0 -1 0
vn 0 -1 0
vn 0 -1 0
vn 0 -1 0
vn 0 1 0
vn 0 1 0
vn 0 1 0
vn 0 1 0
vn 0 1 0
vn 0 1 0
vn 0 1 0
vn 0 1 0
# 192 elements written
f 97//97 98//98 99//99 
f 97//97 99//99 100//100 
f 97//97 100//100 101//101 
f 97//97 101//101 102//102 
f 97//97 102//102 103//103 
f 97//97 103//103 104//104 
f 105//105 106//106 107//107 
f 105//105 107//107 108//108 
f 105//105 108//108 109//109 
f 105//105 109//109 110//110 
f 105//105 110//110 111//111 
f 105//105 111//111 112//112 
f 8//8 7//7 10//10 
f 8//8 10//10 9//9 
f 7//7 6//6 11//11 
f 7//7 11//11 10//10 
f 6//6 5//5 12//12 
f 6//6 12//12 11//11 
f 5//5 4//4 13//13 
f 5//5 13//13 12//12 
f 4//4 3//3 14//14 
f 4//4 14//14 13//13 
f 3//3 2//2 15//15 
f 3//3 15//15 14//14 
f 2//2 1//1 16//16 
f 2//2 16//16 15//15 
f 1//1 8//8 9//9 
f 1//1 9//9 16//16 
f 113//113 114//114 115//115 
f 113//113 115//115 116//116 
f 113//113 116//116 117//117 
f 113//113 117//117 118//118 
f 113//113 118//118 119//119 
f 113//113 119//119 120//120 
f 121//121 122//122 123//123 
f 121//121 123//123 124//124 
f 121//121 124//124 125//125 
f 121//121 125//125 126//126 
f 121//121 126//126 127//127 
f 121//121 127//127 128//128 
f 24//24 23//23 26//26 
f 24//24 26//26 25//25 
f 23//23 22//22 27//27 
f 23//23 27//27 26//26 
f 22//22 21//21 28//28 
f 22//22 28//28 27//27 
f 21//21 20//20 29//29 
f 21//21 29//29 28//28 
f 20//20 19//19 30//30 
f 20//20 30//30 29//29 
f 19//19 18//18 31//31 
f 19//19 31//31 30//30 
f 18//18 17//17 32//32 
f 18//18 32//32 31//31 
f 17//17 24//24 25//25 
f 17//17 25//25 32//32 
f 129//129 130//130 131//131 
f 129//129 131//131 132//132 
f 129//129 132//132 133//133 
f 129//129 133//133 134//134 
f 129//129 134//134 135//135 
f 129//129 135//135 136//136 
f 137//137 138//138 139//139 
f 137//137 139//139 140//140 
f 137//137 140//140 141//141 
f 137//137 141//141 142//142 
f 137//137 142//142 143//143 
f 137//137 143//143 144//144 
f 40//40 39//39 42//42 
f 40//40 42//42 41//41 
f 39//39 38//38 43//43 
f 39//39 43//43 42//42 
f 38//38 37//37 44//44 
f 38//38 44//44 43//43 
f 37//37 36//36 45//45 
f 37//37 45//45 44//44 
f 36//36 35//35 46//46 
f 36//36 46//46 45//45 
f 35//35 34//34 47//47 
f 35//35 47//47 46//46 
f 34//34 33//33 48//48 
f 34//34 48//48 47//47 
f 33//33 40//40 41//41 
f 33//33 41//41 48//48 
f 145//145 146//146 147//147 
f 145//145 147//147 148//148 
f 145//145 148//148 149//149 
f 145//145 149//149 150//150 
f 145//145 150//150 151//151 
f 145//145 151//151 152//152 
f 153//153 154//154 155//155 
f 153//153 155//155 156//156 
f 153//153 156//156 157//157 
f 153//153 157//157 158//158 
f 153//153 158//158 159//159 
f 153//153 159//159 160//160 
f 56//56 55//55 58//58 
f 56//56 58//58 57//57 
f 55//55 54//54 59//59 
f 55//55 59//59 58//58 
f 54//54 53//53 60//60 
f 54//54 60//60 59//59 
f 53//53 52//52 61//61 
f 53//53 61//61 60//60 
f 52//52 51//51 62//62 
f 52//52 62//62 61//61 
f 51//51 50//50 63//63 
f 51//51 63//63 62//62 
f 50//50 49//49 64//64 
f 50//50 64//64 63//63 
f 49//49 56//56 57//57 
f 49//49 57//57 64//64 
f 161//161 162//162 163//163 
f 161//161 163//163 164//164 
f 161//161 164//164 165//165 
f 161//161 165//165 166//166 
f 161//161 166//166 167//167 
f 161//161 167//167 168//168 
f 169//169 170//170 171//171 
f 169//169 171//171 172//172 
f 169//169 172//172 173//173 
f 169//169 173//173 174//174 
f 169//169 174//174 175//175 
f 169//169 175//175 176//176 
f 72//72 71//71 74//74 
f 72//72 74//74 73//73 
f 71//71 70//70 75//75 
f 71//71 75//75 74//74 
f 70//70 69//69 76//76 
f 70//70 76//76 75//75 
f 69//69 68//68 77//77 
f 69//69 77//77 76//76 
f 68//68 67//67 78//78 
f 68//68 78//78 77//77 
f 67//67 66//66 79//79 
f 67//67 79//79 78//78 
f 66//66 65//65 80//80 
f 66//66 80//80 79//79 
f 65//65 72//72 73//73 
f 65//65 73//73 80//80 
f 177//177 178//178 179//179 
f 177//177 179//179 180//180 
f 177//177 180//180 181//181 
f 177//177 181//181 182//182 
f 177//177 182//182 183//183 
f 177//177 183//183 184//184 
f 185//185 186//186 187//187 
f 185//185 187//187 188//188 
f 185//185 188//188 189//189 
f 185//185 189//189 190//190 
f 185//185 190//190 191//191 
f 185//185 191//191 192//192 
f 88//88 87//87 90//90 
f 88//88 90//90 89//89 
f 87//87 86//86 91//91 
f 87//87 91//91 90//90 
f 86//86 85//85 92//92 
f 86//86 92//92 91//91 
f 85//85 84//84 93//93 
f 85//85 93//93 92//92 
f 84//84 83//83 94//94 
f 84//84 94//94 93//93 
f 83//83 82//82 95//95 
f 83//83 95//95 94//94 
f 82//82 81//81 96//96 
f 82//82 96//96 95//95 
f 81//81 88//88 89//89 
f 81//81 89//89 96//96 
