# file written by OpenSceneGraph

mtllib g8.mtl


o _Geometry_0

v 6553.1201171875 76459.8984375 10579.16796875
v 6373.80322265625 76579.7265625 10668.5
v 6194.48583984375 76699.546875 10579.16796875
v 6120.2099609375 76749.1796875 10363.5
v 6194.48583984375 76699.546875 10147.83203125
v 6373.80322265625 76579.7265625 10058.5
v 6553.1201171875 76459.8984375 10147.83203125
v 6627.39599609375 76410.265625 10363.5
v 8127.22900390625 78654.7578125 10363.5
v 8052.9541015625 78704.390625 10147.83203125
v 7873.63720703125 78824.21875 10058.5
v 7694.31982421875 78944.0390625 10147.83203125
v 7620.044921875 78993.671875 10363.5
v 7694.31982421875 78944.0390625 10579.16796875
v 7873.63720703125 78824.21875 10668.5
v 8052.9541015625 78704.390625 10579.16796875
v 8322.5107421875 79884.140625 11268.5
v 8128.4111328125 79754.453125 11268.5
v 8082.86181640625 79525.5078125 11268.5
v 8212.5458984375 79331.40625 11268.5
v 8441.4951171875 79285.8515625 11268.5
v 8635.595703125 79415.5390625 11268.5
v 8681.14453125 79644.4921875 11268.5
v 8551.4609375 79838.5859375 11268.5
v 8650.3984375 79598.4765625 10919.103515625
v 8518.2861328125 79788.9453125 10891.4990234375
v 8610.7138671875 79378.3046875 10985.7490234375
v 8422.478515625 79257.3984375 11052.39453125
v 8195.9580078125 79306.578125 11080
v 8063.84521484375 79497.046875 11052.39453125
v 8103.52880859375 79717.21875 10985.7490234375
v 8291.7646484375 79838.125 10919.103515625
v 8561.169921875 79464.9453125 10603.91015625
v 8422.0068359375 79644.859375 10551.40234375
v 8538.5048828125 79270.2421875 10730.6767578125
v 8367.2890625 79174.8046875 10857.4423828125
v 8147.81787109375 79234.5390625 10909.951171875
v 8008.65576171875 79414.453125 10857.4423828125
v 8031.31982421875 79609.15625 10730.6767578125
v 8202.5361328125 79704.59375 10603.91015625
v 8422.1923828125 79256.96875 10353.771484375
v 8272.048828125 79420.453125 10281.4990234375
v 8426.037109375 79101.9375 10528.2490234375
v 8281.330078125 79046.171875 10702.728515625
v 8072.8388671875 79122.3359375 10775
v 7922.69580078125 79285.8203125 10702.728515625
v 7918.85205078125 79440.8515625 10528.2490234375
v 8063.55908203125 79496.6171875 10353.771484375
v 8247.0703125 78994.8984375 10193.1708984375
v 8083.0908203125 79137.6796875 10108.2109375
v 8284.318359375 78889.8515625 10398.283203125
v 8173.01513671875 78884.078125 10603.396484375
v 7978.36083984375 78980.9453125 10688.35546875
v 7814.380859375 79123.7265625 10603.396484375
v 7777.1337890625 79228.7734375 10398.283203125
v 7888.43701171875 79234.546875 10193.1708984375
v 8052.94677734375 78704.3984375 10137.83203125
v 7873.6298828125 78824.21875 10048.5
v 8127.22216796875 78654.765625 10353.5
v 8052.94677734375 78704.3984375 10569.16796875
v 7873.6298828125 78824.21875 10658.5
v 7694.31298828125 78944.046875 10569.16796875
v 7620.0380859375 78993.6796875 10353.5
v 7694.31298828125 78944.046875 10137.83203125
v -6194.48583984375 76699.546875 10579.16796875
v -6373.80322265625 76579.7265625 10668.5
v -6553.1201171875 76459.8984375 10579.16796875
v -6627.39599609375 76410.265625 10363.5
v -6553.1201171875 76459.8984375 10147.83203125
v -6373.80322265625 76579.7265625 10058.5
v -6194.48583984375 76699.546875 10147.83203125
v -6120.2099609375 76749.1796875 10363.5
v -7620.044921875 78993.671875 10363.5
v -7694.31982421875 78944.0390625 10147.83203125
v -7873.63720703125 78824.21875 10058.5
v -8052.9541015625 78704.390625 10147.83203125
v -8127.22900390625 78654.7578125 10363.5
v -8052.9541015625 78704.390625 10579.16796875
v -7873.63720703125 78824.21875 10668.5
v -7694.31982421875 78944.0390625 10579.16796875
v 6553.1201171875 76459.8984375 10579.16796875
v 6373.80322265625 76579.7265625 10668.5
v 6194.48583984375 76699.546875 10579.16796875
v 6120.2099609375 76749.1796875 10363.5
v 6194.48583984375 76699.546875 10147.83203125
v 6373.80322265625 76579.7265625 10058.5
v 6553.1201171875 76459.8984375 10147.83203125
v 6627.39599609375 76410.265625 10363.5
v 8127.22900390625 78654.7578125 10363.5
v 8052.9541015625 78704.390625 10147.83203125
v 7873.63720703125 78824.21875 10058.5
v 7694.31982421875 78944.0390625 10147.83203125
v 7620.044921875 78993.671875 10363.5
v 7694.31982421875 78944.0390625 10579.16796875
v 7873.63720703125 78824.21875 10668.5
v 8052.9541015625 78704.390625 10579.16796875
v 8322.5107421875 79884.140625 11268.5
v 8128.4111328125 79754.453125 11268.5
v 8082.86181640625 79525.5078125 11268.5
v 8212.5458984375 79331.40625 11268.5
v 8441.4951171875 79285.8515625 11268.5
v 8635.595703125 79415.5390625 11268.5
v 8681.14453125 79644.4921875 11268.5
v 8551.4609375 79838.5859375 11268.5
v 8052.94677734375 78704.3984375 10137.83203125
v 7873.6298828125 78824.21875 10048.5
v 8127.22216796875 78654.765625 10353.5
v 8052.94677734375 78704.3984375 10569.16796875
v 7873.6298828125 78824.21875 10658.5
v 7694.31298828125 78944.046875 10569.16796875
v 7620.0380859375 78993.6796875 10353.5
v 7694.31298828125 78944.046875 10137.83203125
v -6194.48583984375 76699.546875 10579.16796875
v -6373.80322265625 76579.7265625 10668.5
v -6553.1201171875 76459.8984375 10579.16796875
v -6627.39599609375 76410.265625 10363.5
v -6553.1201171875 76459.8984375 10147.83203125
v -6373.80322265625 76579.7265625 10058.5
v -6194.48583984375 76699.546875 10147.83203125
v -6120.2099609375 76749.1796875 10363.5
v -7620.044921875 78993.671875 10363.5
v -7694.31982421875 78944.0390625 10147.83203125
v -7873.63720703125 78824.21875 10058.5
v -8052.9541015625 78704.390625 10147.83203125
v -8127.22900390625 78654.7578125 10363.5
v -8052.9541015625 78704.390625 10579.16796875
v -7873.63720703125 78824.21875 10668.5
v -7694.31982421875 78944.0390625 10579.16796875
# 128 elements written

vn 0.6628115177154541 -0.44290950894355774 0.6037483811378479
vn 0.11371733993291855 -0.075989186763763428 0.99060285091400146
vn -0.5019872784614563 0.33544224500656128 0.79717457294464111
vn -0.82363671064376831 0.55037790536880493 0.13677264750003815
vn -0.66281229257583618 0.44291031360626221 -0.60374689102172852
vn -0.11372268199920654 0.075992755591869354 -0.99060201644897461
vn 0.5019843578338623 -0.33544030785560608 -0.79717719554901123
vn 0.82363688945770264 -0.55037754774093628 -0.13677269220352173
vn 0.82363682985305786 -0.55037742853164673 0.13677345216274261
vn 0.66281133890151978 -0.44290941953659058 -0.60374855995178223
vn 0.11371733993291855 -0.075989186763763428 -0.99060285091400146
vn -0.50198787450790405 0.33544272184371948 -0.79717397689819336
vn -0.82363659143447876 0.55037784576416016 -0.13677363097667694
vn -0.66281229257583618 0.44291028380393982 0.60374689102172852
vn -0.11372266709804535 0.075992733240127563 0.99060189723968506
vn 0.50198501348495483 -0.33544078469276428 0.7971765398979187
vn -0.060186237096786499 0.9903145432472229 -0.12511873245239258
vn -0.74747103452682495 0.66394126415252686 -0.021658595651388168
vn -0.99383085966110229 -0.057238563895225525 0.094994574785232544
vn -0.65608006715774536 -0.73859953880310059 0.15501502156257629
vn 0.060184154659509659 -0.99031579494476318 0.1251099556684494
vn 0.74747270345687866 -0.66393977403640747 0.021648334339261055
vn 0.99383038282394409 0.05724509060382843 -0.094995483756065369
vn 0.65607690811157227 0.73860710859298706 -0.15499250590801239
vn 0.9644654393196106 0.16846388578414917 -0.20353443920612335
vn 0.52840602397918701 0.79075586795806885 -0.30901819467544556
vn 0.83500546216964722 -0.54984849691390991 0.020796485245227814
vn 0.21863783895969391 -0.94767159223556519 0.23262841999530792
vn -0.52840697765350342 -0.79075479507446289 0.30901947617530823
vn -0.96446472406387329 -0.16846238076686859 0.20353946089744568
vn -0.83500486612319946 0.54984945058822632 -0.020794594660401344
vn -0.21863758563995361 0.94766891002655029 -0.23263987898826599
vn 0.91113877296447754 0.088661864399909973 -0.40244895219802856
vn 0.4494858980178833 0.67265814542770386 -0.5877869725227356
vn 0.83838963508605957 -0.54478424787521362 0.017686998471617699
vn 0.27669411897659302 -0.86077958345413208 0.42719891667366028
vn -0.44948709011077881 -0.67265945672988892 0.58778446912765503
vn -0.91113924980163574 -0.088660821318626404 0.40244817733764648
vn -0.83839124441146851 0.54478180408477783 -0.017687931656837463
vn -0.27669423818588257 0.86077946424484253 -0.4271990954875946
vn 0.82627344131469727 -0.038337085396051407 -0.56196302175521851
vn 0.32657280564308167 0.4887174665927887 -0.80901503562927246
vn 0.84107881784439087 -0.54075980186462402 0.012854078784584999
vn 0.36532294750213623 -0.72815114259719849 0.5799439549446106
vn -0.32657194137573242 -0.48871719837188721 0.80901557207107544
vn -0.82627314329147339 0.038342084735631943 0.56196320056915283
vn -0.84107518196105957 0.54076558351516724 -0.012853145599365234
vn -0.36532318592071533 0.72815072536468506 -0.57994437217712402
vn 0.71817082166671753 -0.20011155307292938 -0.66647285223007202
vn 0.17168493568897247 0.25693434476852417 -0.9510568380355835
vn 0.84280240535736084 -0.5381806492805481 0.0067584649659693241
vn 0.47583499550819397 -0.56276297569274902 0.67592817544937134
vn -0.17168445885181427 -0.25693371891975403 0.9510570764541626
vn -0.71817243099212646 0.20010864734649658 0.66647195816040039
vn -0.84280210733413696 0.5381811261177063 -0.0067599276080727577
vn -0.47583216428756714 0.56276553869247437 -0.67592793703079224
vn -0.55558228492736816 -0.83146154880523682 -7.8060456871753559e-06
vn -0.55559766292572021 -0.83145129680633545 -1.3213084457674995e-06
vn -0.55558693408966064 -0.8314584493637085 -2.2863450794829987e-06
vn -0.55558818578720093 -0.83145755529403687 1.6166776504178415e-06
vn -0.55559748411178589 -0.831451416015625 0
vn -0.55560761690139771 -0.83144462108612061 1.186254053209268e-06
vn -0.55560868978500366 -0.83144402503967285 -1.6775803715063375e-06
vn -0.55561202764511108 -0.83144170045852661 -5.7276683946838602e-06
vn 0.66281229257583618 0.44291031360626221 0.60374689102172852
vn 0.11372268199920654 0.075992755591869354 0.99060201644897461
vn -0.5019843578338623 -0.33544030785560608 0.79717719554901123
vn -0.82363688945770264 -0.55037754774093628 0.13677269220352173
vn -0.6628115177154541 -0.44290950894355774 -0.6037483811378479
vn -0.11371733993291855 -0.075989186763763428 -0.99060285091400146
vn 0.5019872784614563 0.33544224500656128 -0.79717457294464111
vn 0.82363671064376831 0.55037790536880493 -0.13677263259887695
vn 0.82363659143447876 0.55037784576416016 0.13677361607551575
vn 0.66281229257583618 0.44291028380393982 -0.60374689102172852
vn 0.11372266709804535 0.075992733240127563 -0.99060189723968506
vn -0.50198501348495483 -0.33544078469276428 -0.7971765398979187
vn -0.82363682985305786 -0.5503774881362915 -0.13677345216274261
vn -0.66281133890151978 -0.44290941953659058 0.60374855995178223
vn -0.11371733993291855 -0.075989186763763428 0.99060285091400146
vn 0.50198787450790405 0.33544272184371948 0.79717397689819336
vn -0.55559730529785156 -0.83145159482955933 4.5052051973470952e-06
vn -0.55559694766998291 -0.83145177364349365 3.791488052229397e-05
vn -0.55559694766998291 -0.83145177364349365 1.933536259457469e-05
vn -0.55559670925140381 -0.8314518928527832 1.1069099059568543e-07
vn -0.55559217929840088 -0.83145499229431152 -5.819747457280755e-06
vn -0.55559885501861572 -0.83145046234130859 -5.5525165407743771e-06
vn -0.55560266971588135 -0.83144789934158325 0
vn -0.55559545755386353 -0.83145278692245483 0
vn 0.55560028553009033 0.83144950866699219 -7.5791227406498546e-14
vn 0.55561196804046631 0.83144170045852661 -5.7276679399365094e-06
vn 0.55560135841369629 0.83144879341125488 7.0462019721162505e-06
vn 0.55559438467025757 0.83145344257354736 9.256803423340898e-06
vn 0.55559802055358887 0.83145105838775635 0
vn 0.55559438467025757 0.83145344257354736 -9.256803423340898e-06
vn 0.55560135841369629 0.83144879341125488 -7.0462019721162505e-06
vn 0.55561196804046631 0.83144170045852661 5.7276679399365094e-06
vn 0 0 1
vn 0 0 1
vn 0 0 1
vn 0 0 1
vn 0 0 1
vn 0 0 1
vn 0 0 1
vn 0 0 1
vn 0.56859743595123291 -0.22947467863559723 -0.78996092081069946
vn -0.026227880269289017 0.2039482444524765 -0.97863030433654785
vn 0.83547002077102661 -0.53225064277648926 -0.1367446631193161
vn 0.60781824588775635 -0.52042299509048462 0.59976392984390259
vn 0.026229685172438622 -0.20395149290561676 0.97862952947616577
vn -0.56859725713729858 0.22947180271148682 0.78996193408966064
vn -0.83547705411911011 0.53224045038223267 0.13674117624759674
vn -0.60781979560852051 0.52041810750961304 -0.59976667165756226
vn 0.55559593439102173 -0.83145242929458618 4.4194871406944003e-06
vn 0.55559694766998291 -0.83145177364349365 3.7813504604855552e-05
vn 0.55559694766998291 -0.83145177364349365 1.8528829969000071e-05
vn 0.55559670925140381 -0.8314518928527832 -1.1069099059568543e-07
vn 0.55560135841369629 -0.83144879341125488 -5.2703680921695195e-06
vn 0.5555950403213501 -0.83145302534103394 -5.5375990086758975e-06
vn 0.55558967590332031 -0.83145666122436523 0
vn 0.55559545755386353 -0.83145278692245483 0
vn -0.55559408664703369 0.83145368099212646 0
vn -0.55558043718338013 0.8314628005027771 -9.9602793852682225e-06
vn -0.5555921196937561 0.83145499229431152 4.0479885683453176e-06
vn -0.55560088157653809 0.83144909143447876 9.6813610070967115e-06
vn -0.55559802055358887 0.83145105838775635 0
vn -0.55560088157653809 0.83144909143447876 -9.6813610070967115e-06
vn -0.5555921196937561 0.83145499229431152 -4.0479885683453176e-06
vn -0.55558043718338013 0.8314628005027771 9.9602793852682225e-06
# 128 elements written
f 81//81 82//82 83//83 
f 81//81 83//83 84//84 
f 81//81 84//84 85//85 
f 81//81 85//85 86//86 
f 81//81 86//86 87//87 
f 81//81 87//87 88//88 
f 89//89 90//90 91//91 
f 89//89 91//91 92//92 
f 89//89 92//92 93//93 
f 89//89 93//93 94//94 
f 89//89 94//94 95//95 
f 89//89 95//95 96//96 
f 8//8 7//7 10//10 
f 8//8 10//10 9//9 
f 7//7 6//6 11//11 
f 7//7 11//11 10//10 
f 6//6 5//5 12//12 
f 6//6 12//12 11//11 
f 5//5 4//4 13//13 
f 5//5 13//13 12//12 
f 4//4 3//3 14//14 
f 4//4 14//14 13//13 
f 3//3 2//2 15//15 
f 3//3 15//15 14//14 
f 2//2 1//1 16//16 
f 2//2 16//16 15//15 
f 1//1 8//8 9//9 
f 1//1 9//9 16//16 
f 97//97 98//98 99//99 
f 97//97 99//99 100//100 
f 97//97 100//100 101//101 
f 97//97 101//101 102//102 
f 97//97 102//102 103//103 
f 97//97 103//103 104//104 
f 24//24 23//23 25//25 
f 24//24 25//25 26//26 
f 23//23 22//22 27//27 
f 23//23 27//27 25//25 
f 22//22 21//21 28//28 
f 22//22 28//28 27//27 
f 21//21 20//20 29//29 
f 21//21 29//29 28//28 
f 20//20 19//19 30//30 
f 20//20 30//30 29//29 
f 19//19 18//18 31//31 
f 19//19 31//31 30//30 
f 18//18 17//17 32//32 
f 18//18 32//32 31//31 
f 17//17 24//24 26//26 
f 17//17 26//26 32//32 
f 26//26 25//25 33//33 
f 26//26 33//33 34//34 
f 25//25 27//27 35//35 
f 25//25 35//35 33//33 
f 27//27 28//28 36//36 
f 27//27 36//36 35//35 
f 28//28 29//29 37//37 
f 28//28 37//37 36//36 
f 29//29 30//30 38//38 
f 29//29 38//38 37//37 
f 30//30 31//31 39//39 
f 30//30 39//39 38//38 
f 31//31 32//32 40//40 
f 31//31 40//40 39//39 
f 32//32 26//26 34//34 
f 32//32 34//34 40//40 
f 34//34 33//33 41//41 
f 34//34 41//41 42//42 
f 33//33 35//35 43//43 
f 33//33 43//43 41//41 
f 35//35 36//36 44//44 
f 35//35 44//44 43//43 
f 36//36 37//37 45//45 
f 36//36 45//45 44//44 
f 37//37 38//38 46//46 
f 37//37 46//46 45//45 
f 38//38 39//39 47//47 
f 38//38 47//47 46//46 
f 39//39 40//40 48//48 
f 39//39 48//48 47//47 
f 40//40 34//34 42//42 
f 40//40 42//42 48//48 
f 42//42 41//41 49//49 
f 42//42 49//49 50//50 
f 41//41 43//43 51//51 
f 41//41 51//51 49//49 
f 43//43 44//44 52//52 
f 43//43 52//52 51//51 
f 44//44 45//45 53//53 
f 44//44 53//53 52//52 
f 45//45 46//46 54//54 
f 45//45 54//54 53//53 
f 46//46 47//47 55//55 
f 46//46 55//55 54//54 
f 47//47 48//48 56//56 
f 47//47 56//56 55//55 
f 48//48 42//42 50//50 
f 48//48 50//50 56//56 
f 50//50 49//49 105//105 
f 50//50 105//105 106//106 
f 49//49 51//51 107//107 
f 49//49 107//107 105//105 
f 51//51 52//52 108//108 
f 51//51 108//108 107//107 
f 52//52 53//53 109//109 
f 52//52 109//109 108//108 
f 53//53 54//54 110//110 
f 53//53 110//110 109//109 
f 54//54 55//55 111//111 
f 54//54 111//111 110//110 
f 55//55 56//56 112//112 
f 55//55 112//112 111//111 
f 56//56 50//50 106//106 
f 56//56 106//106 112//112 
f 58//58 57//57 59//59 
f 58//58 59//59 60//60 
f 58//58 60//60 61//61 
f 58//58 61//61 62//62 
f 58//58 62//62 63//63 
f 58//58 63//63 64//64 
f 113//113 114//114 115//115 
f 113//113 115//115 116//116 
f 113//113 116//116 117//117 
f 113//113 117//117 118//118 
f 113//113 118//118 119//119 
f 113//113 119//119 120//120 
f 121//121 122//122 123//123 
f 121//121 123//123 124//124 
f 121//121 124//124 125//125 
f 121//121 125//125 126//126 
f 121//121 126//126 127//127 
f 121//121 127//127 128//128 
f 72//72 71//71 74//74 
f 72//72 74//74 73//73 
f 71//71 70//70 75//75 
f 71//71 75//75 74//74 
f 70//70 69//69 76//76 
f 70//70 76//76 75//75 
f 69//69 68//68 77//77 
f 69//69 77//77 76//76 
f 68//68 67//67 78//78 
f 68//68 78//78 77//77 
f 67//67 66//66 79//79 
f 67//67 79//79 78//78 
f 66//66 65//65 80//80 
f 66//66 80//80 79//79 
f 65//65 72//72 73//73 
f 65//65 73//73 80//80 
