# file written by OpenSceneGraph

mtllib g9.mtl


o _Geometry_0

v 4228.08203125 83048.8984375 10459.0810546875
v 4215 83048.8984375 10464.5
v 4201.91796875 83048.8984375 10459.0810546875
v 4196.5 83048.8984375 10446
v 4201.91796875 83048.8984375 10432.9189453125
v 4215 83048.8984375 10427.5
v 4228.08203125 83048.8984375 10432.9189453125
v 4233.5 83048.8984375 10446
v 4226.505859375 83058.84375 10432.9189453125
v 4231.66015625 83060.515625 10446
v 4214.06494140625 83054.8046875 10427.5
v 4201.6240234375 83050.7578125 10432.9189453125
v 4196.47119140625 83049.0859375 10446
v 4201.6240234375 83050.7578125 10459.0810546875
v 4214.06494140625 83054.8046875 10464.5
v 4226.505859375 83058.84375 10459.0810546875
v 4221.93603515625 83067.8125 10432.9189453125
v 4226.31884765625 83071 10446
v 4211.35205078125 83060.125 10427.5
v 4200.76904296875 83052.4375 10432.9189453125
v 4196.384765625 83049.25 10446
v 4200.76904296875 83052.4375 10459.0810546875
v 4211.35205078125 83060.125 10464.5
v 4221.93603515625 83067.8125 10459.0810546875
v 4214.81591796875 83074.9375 10432.9189453125
v 4218 83079.3203125 10446
v 4207.1259765625 83064.3515625 10427.5
v 4199.43798828125 83053.765625 10432.9189453125
v 4196.251953125 83049.3828125 10446
v 4199.43798828125 83053.765625 10459.0810546875
v 4207.1259765625 83064.3515625 10464.5
v 4214.81591796875 83074.9375 10459.0810546875
v 4205.84521484375 83079.5078125 10432.9189453125
v 4207.51904296875 83084.65625 10446
v 4201.8017578125 83067.0625 10427.5
v 4197.759765625 83054.625 10432.9189453125
v 4196.0849609375 83049.46875 10446
v 4197.759765625 83054.625 10459.0810546875
v 4201.8017578125 83067.0625 10464.5
v 4205.84521484375 83079.5078125 10459.0810546875
v 4195.89990234375 83081.078125 10432.9189453125
v 4195.89990234375 83086.5 10446
v 4195.89990234375 83068 10427.5
v 4195.89990234375 83054.921875 10432.9189453125
v 4195.89990234375 83049.5 10446
v 4195.89990234375 83054.921875 10459.0810546875
v 4195.89990234375 83068 10464.5
v 4195.89990234375 83081.078125 10459.0810546875
v 4224.43994140625 82212 10455.439453125
v 4215 82212 10459.349609375
v 4205.56005859375 82212 10455.439453125
v 4201.64990234375 82212 10446
v 4205.56005859375 82212 10436.560546875
v 4215 82212 10432.650390625
v 4224.43994140625 82212 10436.560546875
v 4228.35009765625 82212 10446
v 4228.35009765625 83048.8984375 10446
v 4224.43994140625 83048.8984375 10436.560546875
v 4215 83048.8984375 10432.650390625
v 4205.56005859375 83048.8984375 10436.560546875
v 4201.64990234375 83048.8984375 10446
v 4205.56005859375 83048.8984375 10455.439453125
v 4215 83048.8984375 10459.349609375
v 4224.43994140625 83048.8984375 10455.439453125
v 4195.89990234375 83077.4375 10436.560546875
v 4195.89990234375 83081.3515625 10446
v 4195.89990234375 83077.4375 10455.439453125
v 4195.89990234375 83068 10459.349609375
v 4195.89990234375 83058.5625 10455.439453125
v 4195.89990234375 83054.6484375 10446
v 4195.89990234375 83058.5625 10436.560546875
v 4195.89990234375 83068 10432.650390625
v 3612.10009765625 83068 10432.650390625
v 3612.10009765625 83058.5625 10436.560546875
v 3612.10009765625 83054.6484375 10446
v 3612.10009765625 83058.5625 10455.439453125
v 3612.10009765625 83068 10459.349609375
v 3612.10009765625 83077.4375 10455.439453125
v 3612.10009765625 83081.3515625 10446
v 3612.10009765625 83077.4375 10436.560546875
v 3573.89990234375 83058.5625 10436.560546875
v 3573.89990234375 83054.6484375 10446
v 3573.89990234375 83058.5625 10455.439453125
v 3573.89990234375 83068 10459.349609375
v 3573.89990234375 83077.4375 10455.439453125
v 3573.89990234375 83081.3515625 10446
v 3573.89990234375 83077.4375 10436.560546875
v 3573.89990234375 83068 10432.650390625
v 3606.08203125 83054.921875 10446
v 3593 83049.5 10446
v 3579.91796875 83054.921875 10446
v 3574.5 83068 10446
v 3579.91796875 83081.078125 10446
v 3593 83086.5 10446
v 3606.08203125 83081.078125 10446
v 3611.5 83068 10446
v 3611.5 83068 10465.099609375
v 3606.08203125 83081.078125 10465.099609375
v 3593 83086.5 10465.099609375
v 3579.91796875 83081.078125 10465.099609375
v 3574.5 83068 10465.099609375
v 3579.91796875 83054.921875 10465.099609375
v 3593 83049.5 10465.099609375
v 3606.08203125 83054.921875 10465.099609375
v 3602.43994140625 83058.5625 10465.099609375
v 3593 83054.6484375 10465.099609375
v 3583.56005859375 83058.5625 10465.099609375
v 3579.64990234375 83068 10465.099609375
v 3583.56005859375 83077.4375 10465.099609375
v 3593 83081.3515625 10465.099609375
v 3602.43994140625 83077.4375 10465.099609375
v 3606.35009765625 83068 10465.099609375
v 3606.35009765625 83068 10701
v 3602.43994140625 83077.4375 10701
v 3593 83081.3515625 10701
v 3583.56005859375 83077.4375 10701
v 3579.64990234375 83068 10701
v 3583.56005859375 83058.5625 10701
v 3593 83054.6484375 10701
v 3602.43994140625 83058.5625 10701
v 4228.08203125 83048.8984375 10459.0810546875
v 4215 83048.8984375 10464.5
v 4201.91796875 83048.8984375 10459.0810546875
v 4196.5 83048.8984375 10446
v 4201.91796875 83048.8984375 10432.9189453125
v 4215 83048.8984375 10427.5
v 4228.08203125 83048.8984375 10432.9189453125
v 4233.5 83048.8984375 10446
v 4195.89990234375 83081.078125 10432.9189453125
v 4195.89990234375 83086.5 10446
v 4195.89990234375 83068 10427.5
v 4195.89990234375 83054.921875 10432.9189453125
v 4195.89990234375 83049.5 10446
v 4195.89990234375 83054.921875 10459.0810546875
v 4195.89990234375 83068 10464.5
v 4195.89990234375 83081.078125 10459.0810546875
v 4224.43994140625 82212 10455.439453125
v 4215 82212 10459.349609375
v 4205.56005859375 82212 10455.439453125
v 4201.64990234375 82212 10446
v 4205.56005859375 82212 10436.560546875
v 4215 82212 10432.650390625
v 4224.43994140625 82212 10436.560546875
v 4228.35009765625 82212 10446
v 4228.35009765625 83048.8984375 10446
v 4224.43994140625 83048.8984375 10436.560546875
v 4215 83048.8984375 10432.650390625
v 4205.56005859375 83048.8984375 10436.560546875
v 4201.64990234375 83048.8984375 10446
v 4205.56005859375 83048.8984375 10455.439453125
v 4215 83048.8984375 10459.349609375
v 4224.43994140625 83048.8984375 10455.439453125
v 4195.89990234375 83077.4375 10436.560546875
v 4195.89990234375 83081.3515625 10446
v 4195.89990234375 83077.4375 10455.439453125
v 4195.89990234375 83068 10459.349609375
v 4195.89990234375 83058.5625 10455.439453125
v 4195.89990234375 83054.6484375 10446
v 4195.89990234375 83058.5625 10436.560546875
v 4195.89990234375 83068 10432.650390625
v 3612.10009765625 83068 10432.650390625
v 3612.10009765625 83068 10432.650390625
v 3612.10009765625 83058.5625 10436.560546875
v 3612.10009765625 83058.5625 10436.560546875
v 3612.10009765625 83054.6484375 10446
v 3612.10009765625 83054.6484375 10446
v 3612.10009765625 83058.5625 10455.439453125
v 3612.10009765625 83058.5625 10455.439453125
v 3612.10009765625 83068 10459.349609375
v 3612.10009765625 83068 10459.349609375
v 3612.10009765625 83077.4375 10455.439453125
v 3612.10009765625 83077.4375 10455.439453125
v 3612.10009765625 83081.3515625 10446
v 3612.10009765625 83081.3515625 10446
v 3612.10009765625 83077.4375 10436.560546875
v 3612.10009765625 83077.4375 10436.560546875
v 3573.89990234375 83058.5625 10436.560546875
v 3573.89990234375 83054.6484375 10446
v 3573.89990234375 83058.5625 10455.439453125
v 3573.89990234375 83068 10459.349609375
v 3573.89990234375 83077.4375 10455.439453125
v 3573.89990234375 83081.3515625 10446
v 3573.89990234375 83077.4375 10436.560546875
v 3573.89990234375 83068 10432.650390625
v 3606.08203125 83054.921875 10446
v 3593 83049.5 10446
v 3579.91796875 83054.921875 10446
v 3574.5 83068 10446
v 3579.91796875 83081.078125 10446
v 3593 83086.5 10446
v 3606.08203125 83081.078125 10446
v 3611.5 83068 10446
v 3611.5 83068 10465.099609375
v 3606.08203125 83081.078125 10465.099609375
v 3593 83086.5 10465.099609375
v 3579.91796875 83081.078125 10465.099609375
v 3574.5 83068 10465.099609375
v 3579.91796875 83054.921875 10465.099609375
v 3593 83049.5 10465.099609375
v 3606.08203125 83054.921875 10465.099609375
v 3602.43994140625 83058.5625 10465.099609375
v 3593 83054.6484375 10465.099609375
v 3583.56005859375 83058.5625 10465.099609375
v 3579.64990234375 83068 10465.099609375
v 3583.56005859375 83077.4375 10465.099609375
v 3593 83081.3515625 10465.099609375
v 3602.43994140625 83077.4375 10465.099609375
v 3606.35009765625 83068 10465.099609375
v 3606.35009765625 83068 10701
v 3602.43994140625 83077.4375 10701
v 3593 83081.3515625 10701
v 3583.56005859375 83077.4375 10701
v 3579.64990234375 83068 10701
v 3583.56005859375 83058.5625 10701
v 3593 83054.6484375 10701
v 3602.43994140625 83058.5625 10701
# 216 elements written

vn 0.78995120525360107 0.12515814602375031 0.60026037693023682
vn 0.13676123321056366 0.021674467250704765 0.99036693572998047
vn -0.59979957342147827 -0.094852335751056671 0.79450839757919312
vn -0.97914212942123413 -0.15189123153686523 0.13494324684143066
vn -0.7901839017868042 -0.12346750497817993 -0.6003042459487915
vn -0.13675078749656677 -0.021618779748678207 -0.99036955833435059
vn 0.59977972507476807 0.095032624900341034 -0.7945019006729126
vn 0.97862476110458374 0.15502364933490753 -0.1351340115070343
vn 0.67593014240264893 0.20358513295650482 -0.70828765630722046
vn 0.95105820894241333 0.3090115487575531 -8.253583473560866e-06
vn 0.0067631928250193596 -0.020752368494868279 -0.99976181983947754
vn -0.66571557521820068 -0.23459576070308685 -0.70836973190307617
vn -0.95016384124755859 -0.31175079941749573 0.00020057376241311431
vn -0.67619514465332031 -0.20266371965408325 0.70829898118972778
vn -0.0067439419217407703 0.02082049660384655 0.99976044893264771
vn 0.66647768020629883 0.23264665901660919 0.70829582214355469
vn 0.57999837398529053 0.40236738324165344 -0.70830953121185303
vn 0.80907922983169556 0.58769971132278442 9.7423899205750786e-06
vn 0.012908749282360077 -0.017745453864336014 -0.99975919723510742
vn -0.56180942058563232 -0.42731821537017822 -0.70835673809051514
vn -0.80627459287643433 -0.5915413498878479 0.00026830151909962296
vn -0.57857996225357056 -0.40445300936698914 0.7082817554473877
vn -0.012864821590483189 0.017682762816548347 0.99976086616516113
vn 0.56202250719070435 0.42714947462081909 0.7082895040512085
vn 0.42724016308784485 0.5619044303894043 -0.70832854509353638
vn 0.58775681257247925 0.80903762578964233 5.7003362599061802e-05
vn 0.017580496147274971 -0.012802037410438061 -0.99976342916488647
vn -0.40321975946426392 -0.57947659492492676 -0.70825189352035522
vn -0.58899730443954468 -0.80813497304916382 -6.1122707847971469e-05
vn -0.42737922072410583 -0.56189173460006714 0.70825469493865967
vn -0.017649848014116287 0.012773185037076473 0.99976259469985962
vn 0.40248104929924011 0.57996606826782227 0.70827144384384155
vn 0.23251582682132721 0.66658085584640503 -0.70824170112609863
vn 0.30892366170883179 0.95108681917190552 -4.5208355004433542e-05
vn 0.020681172609329224 -0.0068289865739643574 -0.99976283311843872
vn -0.20586863160133362 -0.67519664764404297 -0.70832735300064087
vn -0.31404468417167664 -0.94940817356109619 -0.00019699078984558582
vn -0.23400576412677765 -0.66596180200576782 0.70833337306976318
vn -0.020977793261408806 0.006773088127374649 0.99975699186325073
vn 0.20345002412796021 0.67596471309661865 0.70829349756240845
vn -1 0 0
vn -1 0 0
vn -1 0 0
vn -1 0 0
vn -1 0 0
vn -1 0 0
vn -1 0 0
vn -1 0 0
vn 0.79716753959655762 0 0.60375827550888062
vn 0.13677379488945007 0 0.99060231447219849
vn -0.60374367237091064 0 0.79717850685119629
vn -0.99060136079788208 0 0.13678073883056641
vn -0.79716753959655762 0 -0.60375827550888062
vn -0.13677379488945007 0 -0.99060231447219849
vn 0.60374367237091064 0 -0.79717850685119629
vn 0.99060136079788208 0 -0.13678073883056641
vn 0.99060136079788208 0 0.13678073883056641
vn 0.79716742038726807 0 -0.60375827550888062
vn 0.13677379488945007 0 -0.99060231447219849
vn -0.60374367237091064 0 -0.79717850685119629
vn -0.99060136079788208 0 -0.13678073883056641
vn -0.79716742038726807 0 0.60375827550888062
vn -0.13677379488945007 0 0.99060231447219849
vn 0.60374367237091064 0 0.79717850685119629
vn 0 0.60370731353759766 -0.79720610380172729
vn 0 0.99058282375335693 -0.13691481947898865
vn 0 0.79703706502914429 0.60393047332763672
vn 0 0.13680851459503174 0.99059754610061646
vn 0 -0.60370731353759766 0.79720610380172729
vn 0 -0.99058282375335693 0.13691481947898865
vn 0 -0.79703706502914429 -0.60393047332763672
vn 0 -0.13680851459503174 -0.99059754610061646
vn 0 0 -1
vn 0 -0.7070077657699585 -0.70720577239990234
vn 0 -1 -5.3771289643123055e-09
vn 0 -0.70700782537460327 0.70720577239990234
vn 0 0 1
vn 0 0.7070077657699585 0.70720577239990234
vn 0 1 5.3771289643123055e-09
vn 0 0.70700782537460327 -0.70720577239990234
vn 0 -0.60370725393295288 -0.79720610380172729
vn 0 -0.99058282375335693 -0.13691481947898865
vn 0 -0.79703700542449951 0.60393053293228149
vn 0 -0.13680851459503174 0.99059754610061646
vn 0 0.60370725393295288 0.79720610380172729
vn 0 0.99058282375335693 0.13691481947898865
vn 0 0.79703700542449951 -0.60393053293228149
vn 0 0.13680851459503174 -0.99059754610061646
vn 0.79719042778015137 -0.60372793674468994 0
vn 0.13685092329978943 -0.99059164524078369 0
vn -0.60384690761566162 -0.7971002459526062 0
vn -0.99059951305389404 -0.13679425418376923 0
vn -0.79719042778015137 0.60372793674468994 0
vn -0.13685092329978943 0.99059164524078369 0
vn 0.60384690761566162 0.7971002459526062 0
vn 0.99059951305389404 0.13679425418376923 0
vn 0.99059951305389404 -0.13679425418376923 0
vn 0.79719042778015137 0.60372793674468994 0
vn 0.13685092329978943 0.99059164524078369 0
vn -0.60384684801101685 0.7971002459526062 0
vn -0.99059951305389404 0.13679425418376923 0
vn -0.79719042778015137 -0.60372793674468994 0
vn -0.13685092329978943 -0.99059164524078369 0
vn 0.60384684801101685 -0.7971002459526062 0
vn 0.79720264673233032 -0.60371172428131104 0
vn 0.13690787553787231 -0.99058383703231812 0
vn -0.60392040014266968 -0.79704463481903076 0
vn -0.99059754610061646 -0.13680851459503174 0
vn -0.79720264673233032 0.60371172428131104 0
vn -0.13690787553787231 0.99058383703231812 0
vn 0.60392040014266968 0.79704463481903076 0
vn 0.99059754610061646 0.13680851459503174 0
vn 0.99059754610061646 -0.13680851459503174 0
vn 0.79720264673233032 0.60371172428131104 0
vn 0.13690787553787231 0.99058383703231812 0
vn -0.6039203405380249 0.79704463481903076 0
vn -0.99059754610061646 0.13680851459503174 0
vn -0.79720264673233032 -0.60371172428131104 0
vn -0.13690787553787231 -0.99058383703231812 0
vn 0.6039203405380249 -0.79704463481903076 0
vn 0 -1 0
vn 0 -1 0
vn 0 -1 0
vn 0 -1 0
vn 0 -1 0
vn 0 -1 0
vn 0 -1 0
vn 0 -1 0
vn 0.12499770522117615 0.7900230884552002 -0.60019922256469727
vn 0.15503513813018799 0.97863566875457764 0.13504202663898468
vn 0.021584281697869301 0.13670098781585693 -0.99037718772888184
vn -0.095616817474365234 -0.5996822714805603 -0.79450529813766479
vn -0.1620396226644516 -0.97743076086044312 -0.13554377853870392
vn -0.12901824712753296 -0.7893831729888916 0.60019040107727051
vn -0.021831652149558067 -0.13677093386650085 0.99036210775375366
vn 0.094827547669410706 0.59974974393844604 0.79454892873764038
vn 0 -1 0
vn 0 -1 0
vn 0 -1 0
vn 0 -1 0
vn 0 -1 0
vn 0 -1 0
vn 0 -1 0
vn 0 -1 0
vn 0 1 0
vn 0 1 0
vn 0 1 0
vn 0 1 0
vn 0 1 0
vn 0 1 0
vn 0 1 0
vn 0 1 0
vn 1 0 0
vn 1 0 0
vn 1 0 0
vn 1 0 0
vn 1 0 0
vn 1 0 0
vn 1 0 0
vn 1 0 0
vn -1 0 0
vn 1 0 0
vn -1 0 0
vn 1 0 0
vn -1 0 0
vn 1 0 0
vn -1 0 0
vn 1 0 0
vn -1 0 0
vn 1 0 0
vn -1 0 0
vn 1 0 0
vn -1 0 0
vn 1 0 0
vn -1 0 0
vn 1 0 0
vn -1 0 0
vn -1 0 0
vn -1 0 0
vn -1 0 0
vn -1 0 0
vn -1 0 0
vn -1 0 0
vn -1 0 0
vn 0 0 -1
vn 0 0 -1
vn 0 0 -1
vn 0 0 -1
vn 0 0 -1
vn 0 0 -1
vn 0 0 -1
vn 0 0 -1
vn 0 0 1
vn 0 0 1
vn 0 0 1
vn 0 0 1
vn 0 0 1
vn 0 0 1
vn 0 0 1
vn 0 0 1
vn 0 0 -1
vn 0 0 -1
vn 0 0 -1
vn 0 0 -1
vn 0 0 -1
vn 0 0 -1
vn 0 0 -1
vn 0 0 -1
vn 0 0 1
vn 0 0 1
vn 0 0 1
vn 0 0 1
vn 0 0 1
vn 0 0 1
vn 0 0 1
vn 0 0 1
# 216 elements written
f 121//121 122//122 123//123 
f 121//121 123//123 124//124 
f 121//121 124//124 125//125 
f 121//121 125//125 126//126 
f 121//121 126//126 127//127 
f 121//121 127//127 128//128 
f 8//8 7//7 9//9 
f 8//8 9//9 10//10 
f 7//7 6//6 11//11 
f 7//7 11//11 9//9 
f 6//6 5//5 12//12 
f 6//6 12//12 11//11 
f 5//5 4//4 13//13 
f 5//5 13//13 12//12 
f 4//4 3//3 14//14 
f 4//4 14//14 13//13 
f 3//3 2//2 15//15 
f 3//3 15//15 14//14 
f 2//2 1//1 16//16 
f 2//2 16//16 15//15 
f 1//1 8//8 10//10 
f 1//1 10//10 16//16 
f 10//10 9//9 17//17 
f 10//10 17//17 18//18 
f 9//9 11//11 19//19 
f 9//9 19//19 17//17 
f 11//11 12//12 20//20 
f 11//11 20//20 19//19 
f 12//12 13//13 21//21 
f 12//12 21//21 20//20 
f 13//13 14//14 22//22 
f 13//13 22//22 21//21 
f 14//14 15//15 23//23 
f 14//14 23//23 22//22 
f 15//15 16//16 24//24 
f 15//15 24//24 23//23 
f 16//16 10//10 18//18 
f 16//16 18//18 24//24 
f 18//18 17//17 25//25 
f 18//18 25//25 26//26 
f 17//17 19//19 27//27 
f 17//17 27//27 25//25 
f 19//19 20//20 28//28 
f 19//19 28//28 27//27 
f 20//20 21//21 29//29 
f 20//20 29//29 28//28 
f 21//21 22//22 30//30 
f 21//21 30//30 29//29 
f 22//22 23//23 31//31 
f 22//22 31//31 30//30 
f 23//23 24//24 32//32 
f 23//23 32//32 31//31 
f 24//24 18//18 26//26 
f 24//24 26//26 32//32 
f 26//26 25//25 33//33 
f 26//26 33//33 34//34 
f 25//25 27//27 35//35 
f 25//25 35//35 33//33 
f 27//27 28//28 36//36 
f 27//27 36//36 35//35 
f 28//28 29//29 37//37 
f 28//28 37//37 36//36 
f 29//29 30//30 38//38 
f 29//29 38//38 37//37 
f 30//30 31//31 39//39 
f 30//30 39//39 38//38 
f 31//31 32//32 40//40 
f 31//31 40//40 39//39 
f 32//32 26//26 34//34 
f 32//32 34//34 40//40 
f 34//34 33//33 129//129 
f 34//34 129//129 130//130 
f 33//33 35//35 131//131 
f 33//33 131//131 129//129 
f 35//35 36//36 132//132 
f 35//35 132//132 131//131 
f 36//36 37//37 133//133 
f 36//36 133//133 132//132 
f 37//37 38//38 134//134 
f 37//37 134//134 133//133 
f 38//38 39//39 135//135 
f 38//38 135//135 134//134 
f 39//39 40//40 136//136 
f 39//39 136//136 135//135 
f 40//40 34//34 130//130 
f 40//40 130//130 136//136 
f 42//42 41//41 43//43 
f 42//42 43//43 44//44 
f 42//42 44//44 45//45 
f 42//42 45//45 46//46 
f 42//42 46//46 47//47 
f 42//42 47//47 48//48 
f 137//137 138//138 139//139 
f 137//137 139//139 140//140 
f 137//137 140//140 141//141 
f 137//137 141//141 142//142 
f 137//137 142//142 143//143 
f 137//137 143//143 144//144 
f 145//145 146//146 147//147 
f 145//145 147//147 148//148 
f 145//145 148//148 149//149 
f 145//145 149//149 150//150 
f 145//145 150//150 151//151 
f 145//145 151//151 152//152 
f 56//56 55//55 58//58 
f 56//56 58//58 57//57 
f 55//55 54//54 59//59 
f 55//55 59//59 58//58 
f 54//54 53//53 60//60 
f 54//54 60//60 59//59 
f 53//53 52//52 61//61 
f 53//53 61//61 60//60 
f 52//52 51//51 62//62 
f 52//52 62//62 61//61 
f 51//51 50//50 63//63 
f 51//51 63//63 62//62 
f 50//50 49//49 64//64 
f 50//50 64//64 63//63 
f 49//49 56//56 57//57 
f 49//49 57//57 64//64 
f 153//153 154//154 155//155 
f 153//153 155//155 156//156 
f 153//153 156//156 157//157 
f 153//153 157//157 158//158 
f 153//153 158//158 159//159 
f 153//153 159//159 160//160 
f 161//161 163//163 165//165 
f 161//161 165//165 167//167 
f 161//161 167//167 169//169 
f 161//161 169//169 171//171 
f 161//161 171//171 173//173 
f 161//161 173//173 175//175 
f 72//72 71//71 74//74 
f 72//72 74//74 73//73 
f 71//71 70//70 75//75 
f 71//71 75//75 74//74 
f 70//70 69//69 76//76 
f 70//70 76//76 75//75 
f 69//69 68//68 77//77 
f 69//69 77//77 76//76 
f 68//68 67//67 78//78 
f 68//68 78//78 77//77 
f 67//67 66//66 79//79 
f 67//67 79//79 78//78 
f 66//66 65//65 80//80 
f 66//66 80//80 79//79 
f 65//65 72//72 73//73 
f 65//65 73//73 80//80 
f 177//177 178//178 179//179 
f 177//177 179//179 180//180 
f 177//177 180//180 181//181 
f 177//177 181//181 182//182 
f 177//177 182//182 183//183 
f 177//177 183//183 184//184 
f 162//162 176//176 174//174 
f 162//162 174//174 172//172 
f 162//162 172//172 170//170 
f 162//162 170//170 168//168 
f 162//162 168//168 166//166 
f 162//162 166//166 164//164 
f 88//88 87//87 80//80 
f 88//88 80//80 73//73 
f 87//87 86//86 79//79 
f 87//87 79//79 80//80 
f 86//86 85//85 78//78 
f 86//86 78//78 79//79 
f 85//85 84//84 77//77 
f 85//85 77//77 78//78 
f 84//84 83//83 76//76 
f 84//84 76//76 77//77 
f 83//83 82//82 75//75 
f 83//83 75//75 76//76 
f 82//82 81//81 74//74 
f 82//82 74//74 75//75 
f 81//81 88//88 73//73 
f 81//81 73//73 74//74 
f 185//185 186//186 187//187 
f 185//185 187//187 188//188 
f 185//185 188//188 189//189 
f 185//185 189//189 190//190 
f 185//185 190//190 191//191 
f 185//185 191//191 192//192 
f 193//193 194//194 195//195 
f 193//193 195//195 196//196 
f 193//193 196//196 197//197 
f 193//193 197//197 198//198 
f 193//193 198//198 199//199 
f 193//193 199//199 200//200 
f 96//96 95//95 98//98 
f 96//96 98//98 97//97 
f 95//95 94//94 99//99 
f 95//95 99//99 98//98 
f 94//94 93//93 100//100 
f 94//94 100//100 99//99 
f 93//93 92//92 101//101 
f 93//93 101//101 100//100 
f 92//92 91//91 102//102 
f 92//92 102//102 101//101 
f 91//91 90//90 103//103 
f 91//91 103//103 102//102 
f 90//90 89//89 104//104 
f 90//90 104//104 103//103 
f 89//89 96//96 97//97 
f 89//89 97//97 104//104 
f 201//201 202//202 203//203 
f 201//201 203//203 204//204 
f 201//201 204//204 205//205 
f 201//201 205//205 206//206 
f 201//201 206//206 207//207 
f 201//201 207//207 208//208 
f 209//209 210//210 211//211 
f 209//209 211//211 212//212 
f 209//209 212//212 213//213 
f 209//209 213//213 214//214 
f 209//209 214//214 215//215 
f 209//209 215//215 216//216 
f 112//112 111//111 114//114 
f 112//112 114//114 113//113 
f 111//111 110//110 115//115 
f 111//111 115//115 114//114 
f 110//110 109//109 116//116 
f 110//110 116//116 115//115 
f 109//109 108//108 117//117 
f 109//109 117//117 116//116 
f 108//108 107//107 118//118 
f 108//108 118//118 117//117 
f 107//107 106//106 119//119 
f 107//107 119//119 118//118 
f 106//106 105//105 120//120 
f 106//106 120//120 119//119 
f 105//105 112//112 113//113 
f 105//105 113//113 120//120 
