# file written by OpenSceneGraph

mtllib g1.mtl


o _Geometry_0

v -134860 9900 15200
v -110690 9900 15200
v -110690 9900 11800
v -134860 9900 11800
v -134860 9700 11800
v -134860 9700 15200
v -110690 9700 11800
v -110690 9700 15200
v -97085 9900 18750
v -72915 9900 18750
v -72915 9900 15350
v -97085 9900 15350
v -97085 9700 15350
v -97085 9700 18750
v -72915 9700 15350
v -72915 9700 18750
v -134860 9900 15200
v -134860 9900 15200
v -110690 9900 15200
v -110690 9900 15200
v -110690 9900 11800
v -110690 9900 11800
v -134860 9900 11800
v -134860 9900 11800
v -134860 9700 11800
v -134860 9700 11800
v -134860 9700 15200
v -134860 9700 15200
v -110690 9700 11800
v -110690 9700 11800
v -110690 9700 15200
v -110690 9700 15200
v -97085 9900 18750
v -97085 9900 18750
v -72915 9900 18750
v -72915 9900 18750
v -72915 9900 15350
v -72915 9900 15350
v -97085 9900 15350
v -97085 9900 15350
v -97085 9700 15350
v -97085 9700 15350
v -97085 9700 18750
v -97085 9700 18750
v -72915 9700 15350
v -72915 9700 15350
v -72915 9700 18750
v -72915 9700 18750
# 48 elements written

vn -1 0 0
vn 1 0 0
vn 0 0 -1
vn 0 0 -1
vn 0 -1 0
vn 0 -1 0
vn 0 -1 0
vn 0 -1 0
vn -1 0 0
vn 1 0 0
vn 0 0 -1
vn 0 0 -1
vn 0 -1 0
vn 0 -1 0
vn 0 -1 0
vn 0 -1 0
vn 0 1 0
vn 0 0 1
vn 0 1 0
vn 0 0 1
vn 0 1 0
vn 1 0 0
vn 0 1 0
vn -1 0 0
vn -1 0 0
vn 0 0 -1
vn -1 0 0
vn 0 0 1
vn 0 0 -1
vn 1 0 0
vn 1 0 0
vn 0 0 1
vn 0 1 0
vn 0 0 1
vn 0 1 0
vn 0 0 1
vn 0 1 0
vn 1 0 0
vn 0 1 0
vn -1 0 0
vn -1 0 0
vn 0 0 -1
vn -1 0 0
vn 0 0 1
vn 0 0 -1
vn 1 0 0
vn 1 0 0
vn 0 0 1
# 48 elements written
f 17//17 19//19 21//21 
f 17//17 21//21 23//23 
f 1//1 24//24 25//25 
f 1//1 25//25 27//27 
f 4//4 3//3 29//29 
f 4//4 29//29 26//26 
f 22//22 2//2 31//31 
f 22//22 31//31 30//30 
f 20//20 18//18 28//28 
f 20//20 28//28 32//32 
f 6//6 5//5 7//7 
f 6//6 7//7 8//8 
f 33//33 35//35 37//37 
f 33//33 37//37 39//39 
f 9//9 40//40 41//41 
f 9//9 41//41 43//43 
f 12//12 11//11 45//45 
f 12//12 45//45 42//42 
f 38//38 10//10 47//47 
f 38//38 47//47 46//46 
f 36//36 34//34 44//44 
f 36//36 44//44 48//48 
f 14//14 13//13 15//15 
f 14//14 15//15 16//16 
