# file written by OpenSceneGraph

mtllib g15.mtl


o _Geometry_0

v -94275 84150 1660
v -93525 84150 1660
v -93525 84270 1660
v -94275 84270 1660
v -93525 84150 860
v -93525 84270 860
v -94275 84150 860
v -94275 84270 860
v -93955.6875 84150 1660
v -93624.3125 84150 860
v -93790 84150 1260
v -93955.6875 84150 860
v -93822.21875 84150 1182.218017578125
v -94275 84150 994.66998291015625
v -93900 84150 1150
v -94275 84150 1305.3299560546875
v -93977.78125 84150 1182.218017578125
v -94175.6875 84150 1660
v -94010 84150 1260
v -93900 84150 1525.56298828125
v -93977.78125 84150 1337.781982421875
v -93845 84150 1392.781982421875
v -93900 84150 1370
v -93822.21875 84150 1337.781982421875
v -93624.3125 84270 860
v -93955.6875 84270 1660
v -93822.21875 84270 1337.781982421875
v -94275 84270 1525.3299560546875
v -93900 84270 1370
v -94275 84270 1214.6700439453125
v -93977.78125 84270 1337.781982421875
v -94175.6875 84270 860
v -94010 84270 1260
v -93844.3125 84270 860
v -93977.78125 84270 1182.218017578125
v -93712.21875 84270 1072.218017578125
v -93900 84270 1150
v -93767.21875 84270 1205
v -93822.21875 84270 1182.218017578125
v -93790 84270 1260
v -94105.3203125 84270 1641.2239990234375
v -93480.4296875 84270 1153.0040283203125
v -93480.4296875 84570 1153.0040283203125
v -94105.3203125 84570 1641.2239990234375
v -93694.6796875 84270 878.7760009765625
v -93694.6796875 84570 878.7760009765625
v -94319.5703125 84270 1366.9959716796875
v -94319.5703125 84570 1366.9959716796875
v -93879.984375 84270 1465.1719970703125
v -93657.046875 84270 926.94598388671875
v -93795 84270 1260
v -93889.7734375 84270 1031.199951171875
v -93825.75 84270 1185.7540283203125
v -93996.8671875 84270 1114.875
v -93900 84270 1155
v -94215.4921875 84270 1285.6820068359375
v -93974.25 84270 1185.7540283203125
v -94142.953125 84270 1593.053955078125
v -94005 84270 1260
v -93910.2265625 84270 1488.800048828125
v -93974.25 84270 1334.2459716796875
v -93847.5 84270 1386.7459716796875
v -93900 84270 1365
v -93825.75 84270 1334.2459716796875
v -93657.046875 84570 926.94598388671875
v -93879.984375 84570 1465.1719970703125
v -93825.75 84570 1334.2459716796875
v -94218.1640625 84570 1496.7889404296875
v -93900 84570 1365
v -94172.53125 84570 1252.114990234375
v -93974.25 84570 1334.2459716796875
v -94048.4296875 84570 1155.156005859375
v -94005 84570 1260
v -93920.015625 84570 1054.8280029296875
v -93974.25 84570 1185.7540283203125
v -93720.75 84570 1080.7540283203125
v -93900 84570 1155
v -93773.25 84570 1207.5
v -93825.75 84570 1185.7540283203125
v -93795 84570 1260
v -94275 84150 1660
v -94275 84150 1660
v -93525 84150 1660
v -93525 84150 1660
v -93525 84270 1660
v -93525 84270 1660
v -94275 84270 1660
v -94275 84270 1660
v -93525 84150 860
v -93525 84150 860
v -93525 84270 860
v -93525 84270 860
v -94275 84150 860
v -94275 84150 860
v -94275 84270 860
v -94275 84270 860
v -93955.6875 84150 1660
v -93624.3125 84150 860
v -93790 84150 1260
v -93955.6875 84150 860
v -93822.21875 84150 1182.218017578125
v -94275 84150 994.66998291015625
v -93900 84150 1150
v -94275 84150 1305.3299560546875
v -93977.78125 84150 1182.218017578125
v -94175.6875 84150 1660
v -94010 84150 1260
v -93900 84150 1525.56298828125
v -93977.78125 84150 1337.781982421875
v -93845 84150 1392.781982421875
v -93900 84150 1370
v -93822.21875 84150 1337.781982421875
v -93624.3125 84270 860
v -93955.6875 84270 1660
v -93822.21875 84270 1337.781982421875
v -94275 84270 1525.3299560546875
v -93900 84270 1370
v -94275 84270 1214.6700439453125
v -93977.78125 84270 1337.781982421875
v -94175.6875 84270 860
v -94010 84270 1260
v -93844.3125 84270 860
v -93977.78125 84270 1182.218017578125
v -93712.21875 84270 1072.218017578125
v -93900 84270 1150
v -93767.21875 84270 1205
v -93822.21875 84270 1182.218017578125
v -93790 84270 1260
v -94105.3203125 84270 1641.2239990234375
v -94105.3203125 84270 1641.2239990234375
v -93480.4296875 84270 1153.0040283203125
v -93480.4296875 84270 1153.0040283203125
v -93480.4296875 84570 1153.0040283203125
v -93480.4296875 84570 1153.0040283203125
v -94105.3203125 84570 1641.2239990234375
v -94105.3203125 84570 1641.2239990234375
v -93694.6796875 84270 878.7760009765625
v -93694.6796875 84270 878.7760009765625
v -93694.6796875 84570 878.7760009765625
v -93694.6796875 84570 878.7760009765625
v -94319.5703125 84270 1366.9959716796875
v -94319.5703125 84270 1366.9959716796875
v -94319.5703125 84570 1366.9959716796875
v -94319.5703125 84570 1366.9959716796875
v -93879.984375 84270 1465.1719970703125
v -93657.046875 84270 926.94598388671875
v -93795 84270 1260
v -93889.7734375 84270 1031.199951171875
v -93825.75 84270 1185.7540283203125
v -93996.8671875 84270 1114.875
v -93900 84270 1155
v -94215.4921875 84270 1285.6820068359375
v -93974.25 84270 1185.7540283203125
v -94142.953125 84270 1593.053955078125
v -94005 84270 1260
v -93910.2265625 84270 1488.800048828125
v -93974.25 84270 1334.2459716796875
v -93847.5 84270 1386.7459716796875
v -93900 84270 1365
v -93825.75 84270 1334.2459716796875
v -93657.046875 84570 926.94598388671875
v -93879.984375 84570 1465.1719970703125
v -93825.75 84570 1334.2459716796875
v -94218.1640625 84570 1496.7889404296875
v -93900 84570 1365
v -94172.53125 84570 1252.114990234375
v -93974.25 84570 1334.2459716796875
v -94048.4296875 84570 1155.156005859375
v -94005 84570 1260
v -93920.015625 84570 1054.8280029296875
v -93974.25 84570 1185.7540283203125
v -93720.75 84570 1080.7540283203125
v -93900 84570 1155
v -93773.25 84570 1207.5
v -93825.75 84570 1185.7540283203125
v -93795 84570 1260
# 176 elements written

vn 0 -1 0
vn 0 -1 0
vn 0 1 0
vn 0 1 0
vn 0 0 -1
vn 0 0 -1
vn 0 -1 0
vn 0 1 0
vn 0 -1 0
vn 0 -1 0
vn -0.99060207605361938 0 0.13677529990673065
vn 0 -1 0
vn 0 -1 0
vn 0 -1 0
vn 0 -1 0
vn 0 -1 0
vn 0 -1 0
vn 0 -1 0
vn 0 -1 0
vn 0 -1 0
vn 0 -1 0
vn 0 -1 0
vn 0 -1 0
vn 0 -1 0
vn 0 1 0
vn 0 1 0
vn -0.60374677181243896 0 -0.79717612266540527
vn 0 1 0
vn 0 1 0
vn 0 1 0
vn 0 1 0
vn 0 1 0
vn 0 1 0
vn 0 1 0
vn 0 1 0
vn 0 1 0
vn 0 1 0
vn 0 1 0
vn 0 1 0
vn 0 1 0
vn 0 -1 0
vn 0 -1 0
vn 0 1 0
vn 0 1 0
vn 0 -1 0
vn 0 1 0
vn 0 -1 0
vn 0 1 0
vn 0 -1 0
vn 0 -1 0
vn -0.99060457944869995 0 0.13675756752490997
vn 0 -1 0
vn 0 -1 0
vn 0 -1 0
vn 0 -1 0
vn 0 -1 0
vn 0 -1 0
vn 0 -1 0
vn 0 -1 0
vn 0 -1 0
vn 0 -1 0
vn 0 -1 0
vn 0 -1 0
vn 0 -1 0
vn 0 1 0
vn 0 1 0
vn -0.60375010967254639 0 -0.79717367887496948
vn 0 1 0
vn 0 1 0
vn 0 1 0
vn 0 1 0
vn 0 1 0
vn 0 1 0
vn 0 1 0
vn 0 1 0
vn 0 1 0
vn 0 1 0
vn 0 1 0
vn 0 1 0
vn 0 1 0
vn 0 0 1
vn -1 0 0
vn 0 0 1
vn 1 0 0
vn 0 0 1
vn 1 0 0
vn 0 0 1
vn -1 0 0
vn 1 0 0
vn 0 -1 0
vn 1 0 0
vn 0 1 0
vn -1 0 0
vn 0 0 -1
vn -1 0 0
vn 0 0 -1
vn 0 -1 0
vn 0 -1 0
vn 0 -1 0
vn 0 -1 0
vn -0.60374677181243896 0 0.79717612266540527
vn 0 -1 0
vn 0.13677351176738739 0 0.99060231447219849
vn 0 -1 0
vn 0.79717332124710083 0 0.60375052690505981
vn 0 -1 0
vn 0.99060207605361938 0 -0.13677529990673065
vn 0 -1 0
vn 0.60374677181243896 0 -0.79717612266540527
vn 0 -1 0
vn -0.13677351176738739 0 -0.99060231447219849
vn -0.79717332124710083 0 -0.60375052690505981
vn 0 1 0
vn 0 1 0
vn 0 1 0
vn 0 1 0
vn 0.13677351176738739 0 -0.99060231447219849
vn 0 1 0
vn 0.79717332124710083 0 -0.60375052690505981
vn 0 1 0
vn 0.99060207605361938 0 0.13677529990673065
vn 0 1 0
vn 0.60374677181243896 0 0.79717612266540527
vn 0 1 0
vn -0.13677351176738739 0 0.99060231447219849
vn 0 1 0
vn -0.79717332124710083 0 0.60375052690505981
vn -0.99060207605361938 0 -0.13677529990673065
vn 0.61566293239593506 0 0.78800958395004272
vn -0.78801131248474121 0 0.61566072702407837
vn 0.61566293239593506 0 0.78800958395004272
vn 0.78801131248474121 0 -0.61566072702407837
vn 0.61566293239593506 0 0.78800958395004272
vn 0.78801131248474121 0 -0.61566072702407837
vn 0.61566293239593506 0 0.78800958395004272
vn -0.78801131248474121 0 0.61566072702407837
vn 0.78801131248474121 0 -0.61566072702407837
vn -0.61566293239593506 0 -0.78800958395004272
vn 0.78801131248474121 0 -0.61566072702407837
vn -0.61566293239593506 0 -0.78800958395004272
vn -0.78801131248474121 0 0.61566072702407837
vn -0.61566293239593506 0 -0.78800958395004272
vn -0.78801131248474121 0 0.61566072702407837
vn -0.61566293239593506 0 -0.78800958395004272
vn 0 -1 0
vn 0 -1 0
vn 0 -1 0
vn 0 -1 0
vn -0.60375010967254639 0 0.79717367887496948
vn 0 -1 0
vn 0.13676784932613373 0 0.99060308933258057
vn 0 -1 0
vn 0.79719001054763794 0 0.60372847318649292
vn 0 -1 0
vn 0.99060457944869995 0 -0.13675756752490997
vn 0 -1 0
vn 0.60375010967254639 0 -0.79717367887496948
vn 0 -1 0
vn -0.13676784932613373 0 -0.99060308933258057
vn -0.79719001054763794 0 -0.60372847318649292
vn 0 1 0
vn 0 1 0
vn 0 1 0
vn 0 1 0
vn 0.13676784932613373 0 -0.99060308933258057
vn 0 1 0
vn 0.79719001054763794 0 -0.60372847318649292
vn 0 1 0
vn 0.99060457944869995 0 0.13675756752490997
vn 0 1 0
vn 0.60375010967254639 0 0.79717367887496948
vn 0 1 0
vn -0.13676784932613373 0 0.99060308933258057
vn 0 1 0
vn -0.79719001054763794 0 0.60372847318649292
vn -0.99060457944869995 0 -0.13675756752490997
# 176 elements written
f 81//81 83//83 85//85 
f 81//81 85//85 87//87 
f 84//84 89//89 91//91 
f 84//84 91//91 86//86 
f 5//5 94//94 96//96 
f 5//5 96//96 6//6 
f 93//93 82//82 88//88 
f 93//93 88//88 95//95 
f 97//97 98//98 90//90 
f 97//97 90//90 2//2 
f 10//10 99//99 12//12 
f 100//100 13//13 102//102 
f 100//100 102//102 7//7 
f 14//14 15//15 16//16 
f 104//104 17//17 106//106 
f 104//104 106//106 1//1 
f 18//18 19//19 108//108 
f 18//18 108//108 9//9 
f 20//20 21//21 110//110 
f 22//22 23//23 24//24 
f 3//3 92//92 113//113 
f 3//3 113//113 114//114 
f 4//4 26//26 115//115 
f 4//4 115//115 116//116 
f 28//28 29//29 30//30 
f 118//118 31//31 120//120 
f 118//118 120//120 8//8 
f 32//32 33//33 34//34 
f 122//122 35//35 124//124 
f 122//122 124//124 25//25 
f 36//36 37//37 126//126 
f 38//38 39//39 40//40 
f 127//127 101//101 11//11 
f 127//127 11//11 128//128 
f 125//125 103//103 101//101 
f 125//125 101//101 127//127 
f 123//123 105//105 103//103 
f 123//123 103//103 125//125 
f 121//121 107//107 105//105 
f 121//121 105//105 123//123 
f 119//119 109//109 107//107 
f 119//119 107//107 121//121 
f 117//117 111//111 109//109 
f 117//117 109//109 119//119 
f 27//27 112//112 111//111 
f 27//27 111//111 117//117 
f 128//128 11//11 112//112 
f 128//128 112//112 27//27 
f 129//129 131//131 133//133 
f 129//129 133//133 135//135 
f 132//132 137//137 139//139 
f 132//132 139//139 134//134 
f 138//138 142//142 144//144 
f 138//138 144//144 140//140 
f 141//141 130//130 136//136 
f 141//141 136//136 143//143 
f 145//145 146//146 42//42 
f 50//50 147//147 148//148 
f 50//50 148//148 45//45 
f 52//52 53//53 150//150 
f 54//54 55//55 56//56 
f 152//152 57//57 58//58 
f 152//152 58//58 47//47 
f 154//154 59//59 156//156 
f 154//154 156//156 41//41 
f 60//60 61//61 158//158 
f 60//60 158//158 49//49 
f 62//62 63//63 64//64 
f 43//43 161//161 162//162 
f 44//44 66//66 163//163 
f 44//44 163//163 164//164 
f 68//68 69//69 166//166 
f 68//68 166//166 48//48 
f 70//70 71//71 168//168 
f 72//72 73//73 74//74 
f 170//170 75//75 172//172 
f 170//170 172//172 65//65 
f 170//170 65//65 46//46 
f 76//76 77//77 174//174 
f 78//78 79//79 80//80 
f 175//175 149//149 51//51 
f 175//175 51//51 176//176 
f 173//173 151//151 149//149 
f 173//173 149//149 175//175 
f 171//171 153//153 151//151 
f 171//171 151//151 173//173 
f 169//169 155//155 153//153 
f 169//169 153//153 171//171 
f 167//167 157//157 155//155 
f 167//167 155//155 169//169 
f 165//165 159//159 157//157 
f 165//165 157//157 167//167 
f 67//67 160//160 159//159 
f 67//67 159//159 165//165 
f 176//176 51//51 160//160 
f 176//176 160//160 67//67 
