# file written by OpenSceneGraph

mtllib g0.mtl


o _Geometry_0

v -13750 9000 19800
v -12250 9000 19800
v -12250 9000 21300
v -13750 9000 21300
v -13750 78495 21300
v -13750 78495 19800
v -12250 78495 21300
v -12250 78495 19800
v -13750 9000 9250
v -12250 9000 9250
v -12250 9000 10750
v -13750 9000 10750
v -13750 78520 10750
v -13750 78520 9250
v -12250 78520 10750
v -12250 78520 9250
v 12250 9000 9250
v 13750 9000 9250
v 13750 9000 10750
v 12250 9000 10750
v 12250 78520 10750
v 12250 78520 9250
v 13750 78520 10750
v 13750 78520 9250
v 12250 9000 19800
v 13750 9000 19800
v 13750 9000 21300
v 12250 9000 21300
v 12250 78495 21300
v 12250 78495 19800
v 13750 78495 21300
v 13750 78495 19800
v -1000 9000 33950
v 1000 9000 33950
v 1000 9000 34450
v -1000 9000 34450
v -1000 25950 34450
v -1000 25950 33950
v 1000 25950 34450
v 1000 25950 33950
v -1000 9000 36150
v 1000 9000 36150
v 1000 9000 36650
v -1000 9000 36650
v -1000 25950 36650
v -1000 25950 36150
v 1000 25950 36650
v 1000 25950 36150
v 500 9000 34450
v 500 9000 36150
v 500 25950 36150
v 500 25950 34450
v -500 9000 34450
v -500 9000 36150
v -500 25950 36150
v -500 25950 34450
v 16000 9000 33950
v 18000 9000 33950
v 18000 9000 34450
v 16000 9000 34450
v 16000 25950 34450
v 16000 25950 33950
v 18000 25950 34450
v 18000 25950 33950
v 16000 9000 36150
v 18000 9000 36150
v 18000 9000 36650
v 16000 9000 36650
v 16000 25950 36650
v 16000 25950 36150
v 18000 25950 36650
v 18000 25950 36150
v 16500 9000 34450
v 16500 9000 36150
v 16500 25950 36150
v 16500 25950 34450
v 17500 9000 34450
v 17500 9000 36150
v 17500 25950 36150
v 17500 25950 34450
v -18000 9000 33950
v -16000 9000 33950
v -16000 9000 34450
v -18000 9000 34450
v -18000 25950 34450
v -18000 25950 33950
v -16000 25950 34450
v -16000 25950 33950
v -18000 9000 36150
v -16000 9000 36150
v -16000 9000 36650
v -18000 9000 36650
v -18000 25950 36650
v -18000 25950 36150
v -16000 25950 36650
v -16000 25950 36150
v -16500 9000 34450
v -16500 9000 36150
v -16500 25950 36150
v -16500 25950 34450
v -17500 9000 34450
v -17500 9000 36150
v -17500 25950 36150
v -17500 25950 34450
v -13750 9000 19800
v -13750 9000 19800
v -12250 9000 19800
v -12250 9000 19800
v -12250 9000 21300
v -12250 9000 21300
v -13750 9000 21300
v -13750 9000 21300
v -13750 78495 21300
v -13750 78495 21300
v -13750 78495 19800
v -13750 78495 19800
v -12250 78495 21300
v -12250 78495 21300
v -12250 78495 19800
v -12250 78495 19800
v -13750 9000 9250
v -13750 9000 9250
v -12250 9000 9250
v -12250 9000 9250
v -12250 9000 10750
v -12250 9000 10750
v -13750 9000 10750
v -13750 9000 10750
v -13750 78520 10750
v -13750 78520 10750
v -13750 78520 9250
v -13750 78520 9250
v -12250 78520 10750
v -12250 78520 10750
v -12250 78520 9250
v -12250 78520 9250
v 12250 9000 9250
v 12250 9000 9250
v 13750 9000 9250
v 13750 9000 9250
v 13750 9000 10750
v 13750 9000 10750
v 12250 9000 10750
v 12250 9000 10750
v 12250 78520 10750
v 12250 78520 10750
v 12250 78520 9250
v 12250 78520 9250
v 13750 78520 10750
v 13750 78520 10750
v 13750 78520 9250
v 13750 78520 9250
v 12250 9000 19800
v 12250 9000 19800
v 13750 9000 19800
v 13750 9000 19800
v 13750 9000 21300
v 13750 9000 21300
v 12250 9000 21300
v 12250 9000 21300
v 12250 78495 21300
v 12250 78495 21300
v 12250 78495 19800
v 12250 78495 19800
v 13750 78495 21300
v 13750 78495 21300
v 13750 78495 19800
v 13750 78495 19800
v -1000 9000 33950
v -1000 9000 33950
v 1000 9000 33950
v 1000 9000 33950
v 1000 9000 34450
v 1000 9000 34450
v 1000 9000 34450
v 1000 9000 34450
v -1000 9000 34450
v -1000 9000 34450
v -1000 9000 34450
v -1000 9000 34450
v -1000 25950 34450
v -1000 25950 34450
v -1000 25950 34450
v -1000 25950 34450
v -1000 25950 33950
v -1000 25950 33950
v 1000 25950 34450
v 1000 25950 34450
v 1000 25950 34450
v 1000 25950 34450
v 1000 25950 33950
v 1000 25950 33950
v -1000 9000 36150
v -1000 9000 36150
v -1000 9000 36150
v -1000 9000 36150
v 1000 9000 36150
v 1000 9000 36150
v 1000 9000 36150
v 1000 9000 36150
v 1000 9000 36650
v 1000 9000 36650
v -1000 9000 36650
v -1000 9000 36650
v -1000 25950 36650
v -1000 25950 36650
v -1000 25950 36150
v -1000 25950 36150
v -1000 25950 36150
v -1000 25950 36150
v 1000 25950 36650
v 1000 25950 36650
v 1000 25950 36150
v 1000 25950 36150
v 1000 25950 36150
v 1000 25950 36150
v 500 9000 34450
v 500 9000 34450
v 500 9000 36150
v 500 9000 36150
v 500 25950 36150
v 500 25950 36150
v 500 25950 34450
v 500 25950 34450
v -500 9000 34450
v -500 9000 34450
v -500 9000 36150
v -500 9000 36150
v -500 25950 36150
v -500 25950 36150
v -500 25950 34450
v -500 25950 34450
v 16000 9000 33950
v 16000 9000 33950
v 18000 9000 33950
v 18000 9000 33950
v 18000 9000 34450
v 18000 9000 34450
v 18000 9000 34450
v 18000 9000 34450
v 16000 9000 34450
v 16000 9000 34450
v 16000 9000 34450
v 16000 9000 34450
v 16000 25950 34450
v 16000 25950 34450
v 16000 25950 34450
v 16000 25950 34450
v 16000 25950 33950
v 16000 25950 33950
v 18000 25950 34450
v 18000 25950 34450
v 18000 25950 34450
v 18000 25950 34450
v 18000 25950 33950
v 18000 25950 33950
v 16000 9000 36150
v 16000 9000 36150
v 16000 9000 36150
v 16000 9000 36150
v 18000 9000 36150
v 18000 9000 36150
v 18000 9000 36150
v 18000 9000 36150
v 18000 9000 36650
v 18000 9000 36650
v 16000 9000 36650
v 16000 9000 36650
v 16000 25950 36650
v 16000 25950 36650
v 16000 25950 36150
v 16000 25950 36150
v 16000 25950 36150
v 16000 25950 36150
v 18000 25950 36650
v 18000 25950 36650
v 18000 25950 36150
v 18000 25950 36150
v 18000 25950 36150
v 18000 25950 36150
v 16500 9000 34450
v 16500 9000 34450
v 16500 9000 36150
v 16500 9000 36150
v 16500 25950 36150
v 16500 25950 36150
v 16500 25950 34450
v 16500 25950 34450
v 17500 9000 34450
v 17500 9000 34450
v 17500 9000 36150
v 17500 9000 36150
v 17500 25950 36150
v 17500 25950 36150
v 17500 25950 34450
v 17500 25950 34450
v -18000 9000 33950
v -18000 9000 33950
v -16000 9000 33950
v -16000 9000 33950
v -16000 9000 34450
v -16000 9000 34450
v -16000 9000 34450
v -16000 9000 34450
v -18000 9000 34450
v -18000 9000 34450
v -18000 9000 34450
v -18000 9000 34450
v -18000 25950 34450
v -18000 25950 34450
v -18000 25950 34450
v -18000 25950 34450
v -18000 25950 33950
v -18000 25950 33950
v -16000 25950 34450
v -16000 25950 34450
v -16000 25950 34450
v -16000 25950 34450
v -16000 25950 33950
v -16000 25950 33950
v -18000 9000 36150
v -18000 9000 36150
v -18000 9000 36150
v -18000 9000 36150
v -16000 9000 36150
v -16000 9000 36150
v -16000 9000 36150
v -16000 9000 36150
v -16000 9000 36650
v -16000 9000 36650
v -18000 9000 36650
v -18000 9000 36650
v -18000 25950 36650
v -18000 25950 36650
v -18000 25950 36150
v -18000 25950 36150
v -18000 25950 36150
v -18000 25950 36150
v -16000 25950 36650
v -16000 25950 36650
v -16000 25950 36150
v -16000 25950 36150
v -16000 25950 36150
v -16000 25950 36150
v -16500 9000 34450
v -16500 9000 34450
v -16500 9000 36150
v -16500 9000 36150
v -16500 25950 36150
v -16500 25950 36150
v -16500 25950 34450
v -16500 25950 34450
v -17500 9000 34450
v -17500 9000 34450
v -17500 9000 36150
v -17500 9000 36150
v -17500 25950 36150
v -17500 25950 36150
v -17500 25950 34450
v -17500 25950 34450
# 360 elements written

vn -1 0 0
vn 1 0 0
vn 0 0 1
vn 0 0 1
vn 0 1 0
vn 0 1 0
vn 0 1 0
vn 0 1 0
vn -1 0 0
vn 1 0 0
vn 0 0 1
vn 0 0 1
vn 0 1 0
vn 0 1 0
vn 0 1 0
vn 0 1 0
vn -1 0 0
vn 1 0 0
vn 0 0 1
vn 0 0 1
vn 0 1 0
vn 0 1 0
vn 0 1 0
vn 0 1 0
vn -1 0 0
vn 1 0 0
vn 0 0 1
vn 0 0 1
vn 0 1 0
vn 0 1 0
vn 0 1 0
vn 0 1 0
vn -1 0 0
vn 1 0 0
vn 0 -1 0
vn 0 -1 0
vn 0 1 0
vn 0 1 0
vn 0 1 0
vn 0 1 0
vn 0 0 1
vn 0 0 1
vn 0 0 1
vn 0 0 1
vn 0 1 0
vn 0 1 0
vn 0 1 0
vn 0 1 0
vn -1 0 0
vn -1 0 0
vn -1 0 0
vn -1 0 0
vn 1 0 0
vn 1 0 0
vn 1 0 0
vn 1 0 0
vn -1 0 0
vn 1 0 0
vn 0 -1 0
vn 0 -1 0
vn 0 1 0
vn 0 1 0
vn 0 1 0
vn 0 1 0
vn 0 0 1
vn 0 0 1
vn 0 0 1
vn 0 0 1
vn 0 1 0
vn 0 1 0
vn 0 1 0
vn 0 1 0
vn 1 0 0
vn 1 0 0
vn 1 0 0
vn 1 0 0
vn -1 0 0
vn -1 0 0
vn -1 0 0
vn -1 0 0
vn -1 0 0
vn 1 0 0
vn 0 -1 0
vn 0 -1 0
vn 0 1 0
vn 0 1 0
vn 0 1 0
vn 0 1 0
vn 0 0 1
vn 0 0 1
vn 0 0 1
vn 0 0 1
vn 0 1 0
vn 0 1 0
vn 0 1 0
vn 0 1 0
vn -1 0 0
vn -1 0 0
vn -1 0 0
vn -1 0 0
vn 1 0 0
vn 1 0 0
vn 1 0 0
vn 1 0 0
vn 0 -1 0
vn 0 0 -1
vn 0 -1 0
vn 0 0 -1
vn 0 -1 0
vn 1 0 0
vn 0 -1 0
vn -1 0 0
vn -1 0 0
vn 0 0 1
vn -1 0 0
vn 0 0 -1
vn 0 0 1
vn 1 0 0
vn 1 0 0
vn 0 0 -1
vn 0 -1 0
vn 0 0 -1
vn 0 -1 0
vn 0 0 -1
vn 0 -1 0
vn 1 0 0
vn 0 -1 0
vn -1 0 0
vn -1 0 0
vn 0 0 1
vn -1 0 0
vn 0 0 -1
vn 0 0 1
vn 1 0 0
vn 1 0 0
vn 0 0 -1
vn 0 -1 0
vn 0 0 -1
vn 0 -1 0
vn 0 0 -1
vn 0 -1 0
vn 1 0 0
vn 0 -1 0
vn -1 0 0
vn -1 0 0
vn 0 0 1
vn -1 0 0
vn 0 0 -1
vn 0 0 1
vn 1 0 0
vn 1 0 0
vn 0 0 -1
vn 0 -1 0
vn 0 0 -1
vn 0 -1 0
vn 0 0 -1
vn 0 -1 0
vn 1 0 0
vn 0 -1 0
vn -1 0 0
vn -1 0 0
vn 0 0 1
vn -1 0 0
vn 0 0 -1
vn 0 0 1
vn 1 0 0
vn 1 0 0
vn 0 0 -1
vn 0 -1 0
vn 0 0 -1
vn 0 -1 0
vn 0 0 -1
vn 0 -1 0
vn 1 0 0
vn 0 0 1
vn 0 0 -1
vn 0 -1 0
vn -1 0 0
vn 0 0 1
vn 0 0 -1
vn 0 0 1
vn 0 0 -1
vn -1 0 0
vn 0 1 0
vn -1 0 0
vn 0 0 -1
vn 0 0 1
vn 0 0 -1
vn 0 1 0
vn 1 0 0
vn 1 0 0
vn 0 0 -1
vn 0 -1 0
vn -1 0 0
vn 0 -1 0
vn 0 0 -1
vn 0 -1 0
vn 1 0 0
vn 0 -1 0
vn 0 0 -1
vn 0 -1 0
vn 1 0 0
vn 0 -1 0
vn -1 0 0
vn -1 0 0
vn 0 0 1
vn -1 0 0
vn 0 1 0
vn 0 0 -1
vn 0 0 1
vn 0 0 1
vn 1 0 0
vn 1 0 0
vn 0 1 0
vn 0 0 -1
vn 0 0 1
vn 0 -1 0
vn 0 0 -1
vn 0 -1 0
vn 0 0 1
vn 0 0 1
vn 0 1 0
vn 0 0 -1
vn 0 1 0
vn 0 -1 0
vn 0 0 -1
vn 0 -1 0
vn 0 0 1
vn 0 0 1
vn 0 1 0
vn 0 0 -1
vn 0 1 0
vn 0 -1 0
vn 0 0 -1
vn 0 -1 0
vn 0 0 -1
vn 0 -1 0
vn 1 0 0
vn 0 0 1
vn 0 0 -1
vn 0 -1 0
vn -1 0 0
vn 0 0 1
vn 0 0 -1
vn 0 0 1
vn 0 0 -1
vn -1 0 0
vn 0 1 0
vn -1 0 0
vn 0 0 -1
vn 0 0 1
vn 0 0 -1
vn 0 1 0
vn 1 0 0
vn 1 0 0
vn 0 0 -1
vn 0 -1 0
vn -1 0 0
vn 0 -1 0
vn 0 0 -1
vn 0 -1 0
vn 1 0 0
vn 0 -1 0
vn 0 0 -1
vn 0 -1 0
vn 1 0 0
vn 0 -1 0
vn -1 0 0
vn -1 0 0
vn 0 0 1
vn -1 0 0
vn 0 1 0
vn 0 0 -1
vn 0 0 1
vn 0 0 1
vn 1 0 0
vn 1 0 0
vn 0 1 0
vn 0 0 -1
vn 0 0 1
vn 0 -1 0
vn 0 0 -1
vn 0 -1 0
vn 0 0 1
vn 0 0 1
vn 0 1 0
vn 0 0 -1
vn 0 1 0
vn 0 -1 0
vn 0 0 -1
vn 0 -1 0
vn 0 0 1
vn 0 0 1
vn 0 1 0
vn 0 0 -1
vn 0 1 0
vn 0 -1 0
vn 0 0 -1
vn 0 -1 0
vn 0 0 -1
vn 0 -1 0
vn 1 0 0
vn 0 0 1
vn 0 0 -1
vn 0 -1 0
vn -1 0 0
vn 0 0 1
vn 0 0 -1
vn 0 0 1
vn 0 0 -1
vn -1 0 0
vn 0 1 0
vn -1 0 0
vn 0 0 -1
vn 0 0 1
vn 0 0 -1
vn 0 1 0
vn 1 0 0
vn 1 0 0
vn 0 0 -1
vn 0 -1 0
vn -1 0 0
vn 0 -1 0
vn 0 0 -1
vn 0 -1 0
vn 1 0 0
vn 0 -1 0
vn 0 0 -1
vn 0 -1 0
vn 1 0 0
vn 0 -1 0
vn -1 0 0
vn -1 0 0
vn 0 0 1
vn -1 0 0
vn 0 1 0
vn 0 0 -1
vn 0 0 1
vn 0 0 1
vn 1 0 0
vn 1 0 0
vn 0 1 0
vn 0 0 -1
vn 0 0 1
vn 0 -1 0
vn 0 0 -1
vn 0 -1 0
vn 0 0 1
vn 0 0 1
vn 0 1 0
vn 0 0 -1
vn 0 1 0
vn 0 -1 0
vn 0 0 -1
vn 0 -1 0
vn 0 0 1
vn 0 0 1
vn 0 1 0
vn 0 0 -1
vn 0 1 0
# 360 elements written
f 105//105 107//107 109//109 
f 105//105 109//109 111//111 
f 1//1 112//112 113//113 
f 1//1 113//113 115//115 
f 4//4 3//3 117//117 
f 4//4 117//117 114//114 
f 110//110 2//2 119//119 
f 110//110 119//119 118//118 
f 108//108 106//106 116//116 
f 108//108 116//116 120//120 
f 6//6 5//5 7//7 
f 6//6 7//7 8//8 
f 121//121 123//123 125//125 
f 121//121 125//125 127//127 
f 9//9 128//128 129//129 
f 9//9 129//129 131//131 
f 12//12 11//11 133//133 
f 12//12 133//133 130//130 
f 126//126 10//10 135//135 
f 126//126 135//135 134//134 
f 124//124 122//122 132//132 
f 124//124 132//132 136//136 
f 14//14 13//13 15//15 
f 14//14 15//15 16//16 
f 137//137 139//139 141//141 
f 137//137 141//141 143//143 
f 17//17 144//144 145//145 
f 17//17 145//145 147//147 
f 20//20 19//19 149//149 
f 20//20 149//149 146//146 
f 142//142 18//18 151//151 
f 142//142 151//151 150//150 
f 140//140 138//138 148//148 
f 140//140 148//148 152//152 
f 22//22 21//21 23//23 
f 22//22 23//23 24//24 
f 153//153 155//155 157//157 
f 153//153 157//157 159//159 
f 25//25 160//160 161//161 
f 25//25 161//161 163//163 
f 28//28 27//27 165//165 
f 28//28 165//165 162//162 
f 158//158 26//26 167//167 
f 158//158 167//167 166//166 
f 156//156 154//154 164//164 
f 156//156 164//164 168//168 
f 30//30 29//29 31//31 
f 30//30 31//31 32//32 
f 169//169 171//171 173//173 
f 169//169 173//173 177//177 
f 33//33 178//178 183//183 
f 33//33 183//183 185//185 
f 179//179 175//175 187//187 
f 179//179 187//187 181//181 
f 174//174 34//34 191//191 
f 174//174 191//191 190//190 
f 172//172 170//170 186//186 
f 172//172 186//186 192//192 
f 38//38 184//184 189//189 
f 38//38 189//189 40//40 
f 195//195 199//199 201//201 
f 195//195 201//201 203//203 
f 194//194 204//204 205//205 
f 194//194 205//205 207//207 
f 44//44 43//43 211//211 
f 44//44 211//211 206//206 
f 202//202 198//198 213//213 
f 202//202 213//213 212//212 
f 200//200 196//196 209//209 
f 200//200 209//209 215//215 
f 46//46 45//45 47//47 
f 46//46 47//47 48//48 
f 217//217 35//35 197//197 
f 217//217 197//197 219//219 
f 49//49 50//50 51//51 
f 49//49 51//51 52//52 
f 220//220 42//42 216//216 
f 220//220 216//216 221//221 
f 198//198 174//174 190//190 
f 198//198 190//190 213//213 
f 176//176 218//218 223//223 
f 176//176 223//223 188//188 
f 224//224 222//222 214//214 
f 224//224 214//214 39//39 
f 36//36 225//225 227//227 
f 36//36 227//227 193//193 
f 178//178 194//194 207//207 
f 178//178 207//207 183//183 
f 41//41 228//228 229//229 
f 41//41 229//229 210//210 
f 54//54 53//53 56//56 
f 54//54 56//56 55//55 
f 226//226 180//180 182//182 
f 226//226 182//182 231//231 
f 37//37 208//208 230//230 
f 37//37 230//230 232//232 
f 233//233 235//235 237//237 
f 233//233 237//237 241//241 
f 57//57 242//242 247//247 
f 57//57 247//247 249//249 
f 243//243 239//239 251//251 
f 243//243 251//251 245//245 
f 238//238 58//58 255//255 
f 238//238 255//255 254//254 
f 236//236 234//234 250//250 
f 236//236 250//250 256//256 
f 62//62 248//248 253//253 
f 62//62 253//253 64//64 
f 259//259 263//263 265//265 
f 259//259 265//265 267//267 
f 258//258 268//268 269//269 
f 258//258 269//269 271//271 
f 68//68 67//67 275//275 
f 68//68 275//275 270//270 
f 266//266 262//262 277//277 
f 266//266 277//277 276//276 
f 264//264 260//260 273//273 
f 264//264 273//273 279//279 
f 70//70 69//69 71//71 
f 70//70 71//71 72//72 
f 60//60 281//281 283//283 
f 60//60 283//283 257//257 
f 242//242 258//258 271//271 
f 242//242 271//271 247//247 
f 65//65 284//284 285//285 
f 65//65 285//285 274//274 
f 74//74 73//73 76//76 
f 74//74 76//76 75//75 
f 282//282 244//244 246//246 
f 282//282 246//246 287//287 
f 61//61 272//272 286//286 
f 61//61 286//286 288//288 
f 289//289 59//59 261//261 
f 289//289 261//261 291//291 
f 77//77 78//78 79//79 
f 77//77 79//79 80//80 
f 292//292 66//66 280//280 
f 292//292 280//280 293//293 
f 262//262 238//238 254//254 
f 262//262 254//254 277//277 
f 240//240 290//290 295//295 
f 240//240 295//295 252//252 
f 296//296 294//294 278//278 
f 296//296 278//278 63//63 
f 297//297 299//299 301//301 
f 297//297 301//301 305//305 
f 81//81 306//306 311//311 
f 81//81 311//311 313//313 
f 307//307 303//303 315//315 
f 307//307 315//315 309//309 
f 302//302 82//82 319//319 
f 302//302 319//319 318//318 
f 300//300 298//298 314//314 
f 300//300 314//314 320//320 
f 86//86 312//312 317//317 
f 86//86 317//317 88//88 
f 323//323 327//327 329//329 
f 323//323 329//329 331//331 
f 322//322 332//332 333//333 
f 322//322 333//333 335//335 
f 92//92 91//91 339//339 
f 92//92 339//339 334//334 
f 330//330 326//326 341//341 
f 330//330 341//341 340//340 
f 328//328 324//324 337//337 
f 328//328 337//337 343//343 
f 94//94 93//93 95//95 
f 94//94 95//95 96//96 
f 345//345 83//83 325//325 
f 345//345 325//325 347//347 
f 97//97 98//98 99//99 
f 97//97 99//99 100//100 
f 348//348 90//90 344//344 
f 348//348 344//344 349//349 
f 326//326 302//302 318//318 
f 326//326 318//318 341//341 
f 304//304 346//346 351//351 
f 304//304 351//351 316//316 
f 352//352 350//350 342//342 
f 352//352 342//342 87//87 
f 84//84 353//353 355//355 
f 84//84 355//355 321//321 
f 306//306 322//322 335//335 
f 306//306 335//335 311//311 
f 89//89 356//356 357//357 
f 89//89 357//357 338//338 
f 102//102 101//101 104//104 
f 102//102 104//104 103//103 
f 354//354 308//308 310//310 
f 354//354 310//310 359//359 
f 85//85 336//336 358//358 
f 85//85 358//358 360//360 
