# file written by OpenSceneGraph

mtllib g17.mtl


o _Geometry_0

v 14939.4111328125 27505.412109375 21352.400390625
v 14899 27522.150390625 21352.400390625
v 14858.5888671875 27505.412109375 21352.400390625
v 14841.849609375 27465 21352.400390625
v 14858.5888671875 27424.587890625 21352.400390625
v 14899 27407.849609375 21352.400390625
v 14939.4111328125 27424.587890625 21352.400390625
v 14956.150390625 27465 21352.400390625
v 14929.974609375 27424.587890625 21292.818359375
v 14945.8935546875 27465 21287.64453125
v 14891.541015625 27407.849609375 21305.306640625
v 14853.107421875 27424.587890625 21317.79296875
v 14837.1884765625 27465 21322.966796875
v 14853.107421875 27505.412109375 21317.79296875
v 14891.541015625 27522.150390625 21305.306640625
v 14929.974609375 27505.412109375 21292.818359375
v 14902.587890625 27424.587890625 21239.068359375
v 14916.1298828125 27465 21229.23046875
v 14869.89453125 27407.849609375 21262.822265625
v 14837.201171875 27424.587890625 21286.57421875
v 14823.6591796875 27465 21296.4140625
v 14837.201171875 27505.412109375 21286.57421875
v 14869.89453125 27522.150390625 21262.822265625
v 14902.587890625 27505.412109375 21239.068359375
v 14859.931640625 27424.587890625 21196.412109375
v 14869.771484375 27465 21182.87109375
v 14836.1787109375 27407.849609375 21229.10546875
v 14812.42578125 27424.587890625 21261.798828125
v 14802.5869140625 27465 21275.341796875
v 14812.42578125 27505.412109375 21261.798828125
v 14836.1787109375 27522.150390625 21229.10546875
v 14859.931640625 27505.412109375 21196.412109375
v 14806.181640625 27424.587890625 21169.025390625
v 14811.353515625 27465 21153.10546875
v 14793.6943359375 27407.849609375 21207.458984375
v 14781.2060546875 27424.587890625 21245.892578125
v 14776.0341796875 27465 21261.8125
v 14781.2060546875 27505.412109375 21245.892578125
v 14793.6943359375 27522.150390625 21207.458984375
v 14806.181640625 27505.412109375 21169.025390625
v 14746.599609375 27424.587890625 21159.587890625
v 14746.599609375 27465 21142.849609375
v 14746.599609375 27407.849609375 21200
v 14746.599609375 27424.587890625 21240.412109375
v 14746.599609375 27465 21257.150390625
v 14746.599609375 27505.412109375 21240.412109375
v 14746.599609375 27522.150390625 21200
v 14746.599609375 27505.412109375 21159.587890625
v 14068.400390625 27424.587890625 21159.587890625
v 14068.400390625 27465 21142.849609375
v 14068.400390625 27505.412109375 21159.587890625
v 14068.400390625 27522.150390625 21200
v 14068.400390625 27505.412109375 21240.412109375
v 14068.400390625 27465 21257.150390625
v 14068.400390625 27424.587890625 21240.412109375
v 14068.400390625 27407.849609375 21200
v 14008.818359375 27434.025390625 21240.412109375
v 14003.646484375 27418.10546875 21200
v 14021.3056640625 27472.458984375 21257.150390625
v 14033.7939453125 27510.892578125 21240.412109375
v 14038.9658203125 27526.8125 21200
v 14033.7939453125 27510.892578125 21159.587890625
v 14021.3056640625 27472.458984375 21142.849609375
v 14008.818359375 27434.025390625 21159.587890625
v 13955.068359375 27461.412109375 21240.412109375
v 13945.228515625 27447.87109375 21200
v 13978.8212890625 27494.10546875 21257.150390625
v 14002.57421875 27526.798828125 21240.412109375
v 14012.4130859375 27540.341796875 21200
v 14002.57421875 27526.798828125 21159.587890625
v 13978.8212890625 27494.10546875 21142.849609375
v 13955.068359375 27461.412109375 21159.587890625
v 13912.412109375 27504.068359375 21240.412109375
v 13898.8701171875 27494.23046875 21200
v 13945.10546875 27527.822265625 21257.150390625
v 13977.798828125 27551.57421875 21240.412109375
v 13991.3408203125 27561.4140625 21200
v 13977.798828125 27551.57421875 21159.587890625
v 13945.10546875 27527.822265625 21142.849609375
v 13912.412109375 27504.068359375 21159.587890625
v 13885.025390625 27557.818359375 21240.412109375
v 13869.1064453125 27552.64453125 21200
v 13923.458984375 27570.306640625 21257.150390625
v 13961.892578125 27582.79296875 21240.412109375
v 13977.8115234375 27587.966796875 21200
v 13961.892578125 27582.79296875 21159.587890625
v 13923.458984375 27570.306640625 21142.849609375
v 13885.025390625 27557.818359375 21159.587890625
v 13875.5888671875 27617.400390625 21240.412109375
v 13858.849609375 27617.400390625 21200
v 13916 27617.400390625 21257.150390625
v 13956.4111328125 27617.400390625 21240.412109375
v 13973.150390625 27617.400390625 21200
v 13956.4111328125 27617.400390625 21159.587890625
v 13916 27617.400390625 21142.849609375
v 13875.5888671875 27617.400390625 21159.587890625
v 14939.4111328125 27505.412109375 21419.900390625
v 14899 27522.150390625 21419.900390625
v 14858.5888671875 27505.412109375 21419.900390625
v 14841.849609375 27465 21419.900390625
v 14858.5888671875 27424.587890625 21419.900390625
v 14899 27407.849609375 21419.900390625
v 14939.4111328125 27424.587890625 21419.900390625
v 14956.150390625 27465 21419.900390625
v 13973.150390625 42300 21200
v 13956.4111328125 42300 21159.587890625
v 13916 42300 21142.849609375
v 13875.5888671875 42300 21159.587890625
v 13858.849609375 42300 21200
v 13875.5888671875 42300 21240.412109375
v 13916 42300 21257.150390625
v 13956.4111328125 42300 21240.412109375
v 14939.4111328125 27505.412109375 21352.400390625
v 14939.4111328125 27505.412109375 21352.400390625
v 14899 27522.150390625 21352.400390625
v 14899 27522.150390625 21352.400390625
v 14858.5888671875 27505.412109375 21352.400390625
v 14858.5888671875 27505.412109375 21352.400390625
v 14841.849609375 27465 21352.400390625
v 14841.849609375 27465 21352.400390625
v 14858.5888671875 27424.587890625 21352.400390625
v 14858.5888671875 27424.587890625 21352.400390625
v 14899 27407.849609375 21352.400390625
v 14899 27407.849609375 21352.400390625
v 14939.4111328125 27424.587890625 21352.400390625
v 14939.4111328125 27424.587890625 21352.400390625
v 14956.150390625 27465 21352.400390625
v 14956.150390625 27465 21352.400390625
v 14746.599609375 27424.587890625 21159.587890625
v 14746.599609375 27424.587890625 21159.587890625
v 14746.599609375 27465 21142.849609375
v 14746.599609375 27465 21142.849609375
v 14746.599609375 27407.849609375 21200
v 14746.599609375 27407.849609375 21200
v 14746.599609375 27424.587890625 21240.412109375
v 14746.599609375 27424.587890625 21240.412109375
v 14746.599609375 27465 21257.150390625
v 14746.599609375 27465 21257.150390625
v 14746.599609375 27505.412109375 21240.412109375
v 14746.599609375 27505.412109375 21240.412109375
v 14746.599609375 27522.150390625 21200
v 14746.599609375 27522.150390625 21200
v 14746.599609375 27505.412109375 21159.587890625
v 14746.599609375 27505.412109375 21159.587890625
v 14068.400390625 27424.587890625 21159.587890625
v 14068.400390625 27424.587890625 21159.587890625
v 14068.400390625 27465 21142.849609375
v 14068.400390625 27465 21142.849609375
v 14068.400390625 27505.412109375 21159.587890625
v 14068.400390625 27505.412109375 21159.587890625
v 14068.400390625 27522.150390625 21200
v 14068.400390625 27522.150390625 21200
v 14068.400390625 27505.412109375 21240.412109375
v 14068.400390625 27505.412109375 21240.412109375
v 14068.400390625 27465 21257.150390625
v 14068.400390625 27465 21257.150390625
v 14068.400390625 27424.587890625 21240.412109375
v 14068.400390625 27424.587890625 21240.412109375
v 14068.400390625 27407.849609375 21200
v 14068.400390625 27407.849609375 21200
v 13875.5888671875 27617.400390625 21240.412109375
v 13875.5888671875 27617.400390625 21240.412109375
v 13858.849609375 27617.400390625 21200
v 13858.849609375 27617.400390625 21200
v 13916 27617.400390625 21257.150390625
v 13916 27617.400390625 21257.150390625
v 13956.4111328125 27617.400390625 21240.412109375
v 13956.4111328125 27617.400390625 21240.412109375
v 13973.150390625 27617.400390625 21200
v 13973.150390625 27617.400390625 21200
v 13956.4111328125 27617.400390625 21159.587890625
v 13956.4111328125 27617.400390625 21159.587890625
v 13916 27617.400390625 21142.849609375
v 13916 27617.400390625 21142.849609375
v 13875.5888671875 27617.400390625 21159.587890625
v 13875.5888671875 27617.400390625 21159.587890625
v 14939.4111328125 27505.412109375 21419.900390625
v 14899 27522.150390625 21419.900390625
v 14858.5888671875 27505.412109375 21419.900390625
v 14841.849609375 27465 21419.900390625
v 14858.5888671875 27424.587890625 21419.900390625
v 14899 27407.849609375 21419.900390625
v 14939.4111328125 27424.587890625 21419.900390625
v 14956.150390625 27465 21419.900390625
v 13973.150390625 42300 21200
v 13956.4111328125 42300 21159.587890625
v 13916 42300 21142.849609375
v 13875.5888671875 42300 21159.587890625
v 13858.849609375 42300 21200
v 13875.5888671875 42300 21240.412109375
v 13916 42300 21257.150390625
v 13956.4111328125 42300 21240.412109375
# 192 elements written

vn 0.7047463059425354 0.70663267374038696 -0.063267670571804047
vn -0.00012716633500531316 0.99994033575057983 -0.010922626592218876
vn -0.70595097541809082 0.70663189888000488 0.048006530851125717
vn -0.99691200256347656 -0.0007325031328946352 0.078522756695747375
vn -0.70474648475646973 -0.70663285255432129 0.063265018165111542
vn 0.00012674665777012706 -0.99994033575057983 0.010923433117568493
vn 0.70595091581344604 -0.70663207769393921 -0.048004049807786942
vn 0.99691140651702881 0.00073183025233447552 -0.078531235456466675
vn 0.67592436075210571 -0.70830810070037842 -0.20353372395038605
vn 0.95105588436126709 2.7819655770144891e-06 -0.30901885032653809
vn 0.0067533631809055805 -0.99976104497909546 0.020792914554476738
vn -0.66647136211395264 -0.70830625295639038 0.23263339698314667
vn -0.95105934143066406 -2.499428148894367e-07 0.30900833010673523
vn -0.67592781782150269 0.7083057165145874 0.20353032648563385
vn -0.0067577697336673737 0.99976098537445068 -0.020790837705135345
vn 0.66647189855575562 0.70830553770065308 -0.23263376951217651
vn 0.57994925975799561 -0.7083050012588501 -0.40244609117507935
vn 0.80901879072189331 6.52021654445889e-08 -0.58778274059295654
vn 0.012846823781728745 -0.99976104497909546 0.017689986154437065
vn -0.5619623064994812 -0.70830994844436646 0.427194744348526
vn -0.80901837348937988 2.6352768145443406e-06 0.5877833366394043
vn -0.57994788885116577 0.70830839872360229 0.40244209766387939
vn -0.012853621505200863 0.99976098537445068 -0.017685791477560997
vn 0.56196540594100952 0.70830559730529785 -0.42719784379005432
vn 0.42720144987106323 -0.70830416679382324 -0.56196451187133789
vn 0.58778822422027588 -2.0864738417003537e-06 -0.80901485681533813
vn 0.017688043415546417 -0.99976098537445068 0.012851417064666748
vn -0.40244045853614807 -0.70831012725830078 0.57994687557220459
vn -0.58778178691864014 -2.825455794663867e-06 0.80901950597763062
vn -0.42719054222106934 0.70831340551376343 0.56196117401123047
vn -0.01768798939883709 0.99976098537445068 -0.012849712744355202
vn 0.40244677662849426 0.70830625295639038 -0.57994729280471802
vn 0.23263689875602722 -0.70830726623535156 -0.66646897792816162
vn 0.30901816487312317 4.0208121276918973e-07 -0.95105618238449097
vn 0.020793924108147621 -0.99976092576980591 0.0067537371069192886
vn -0.20352603495121002 -0.70830655097961426 0.67592823505401611
vn -0.30901125073432922 -5.5585105656064115e-06 0.95105838775634766
vn -0.23262375593185425 0.70831137895584106 0.6664692759513855
vn -0.020789897069334984 0.99976110458374023 -0.0067542698234319687
vn 0.20353652536869049 0.70830601453781128 -0.67592573165893555
vn 0.063269838690757751 -0.70663261413574219 -0.70474618673324585
vn 0.078530371189117432 -0.00072638381971046329 -0.99691146612167358
vn 0.010923769325017929 -0.99994027614593506 0.0001254817470908165
vn -0.048001077026128769 -0.70662665367126465 0.70595657825469971
vn -0.078527778387069702 0.00072598503902554512 0.99691164493560791
vn -0.063264176249504089 0.70663237571716309 0.70474696159362793
vn -0.010921703651547432 0.99994039535522461 -0.00012565392535179853
vn 0.048007853329181671 0.70662683248519897 -0.70595592260360718
vn -0.063269838690757751 -0.70474618673324585 -0.70663261413574219
vn -0.010923770256340504 0.00012548177619464695 -0.99994033575057983
vn 0.048001077026128769 0.70595657825469971 -0.70662665367126465
vn 0.078527778387069702 0.99691170454025269 0.00072599586565047503
vn 0.063264176249504089 0.70474696159362793 0.70663243532180786
vn 0.010921704582870007 -0.00012565930956043303 0.99994039535522461
vn -0.048007853329181671 -0.70595592260360718 0.70662683248519897
vn -0.078530356287956238 -0.99691146612167358 -0.00072639458812773228
vn -0.20353648066520691 -0.67592573165893555 0.7083059549331665
vn -0.30901810526847839 -0.95105618238449097 3.9121417216847476e-07
vn 0.020789893344044685 -0.0067542591132223606 0.99976110458374023
vn 0.23262375593185425 0.66646921634674072 0.70831137895584106
vn 0.30901125073432922 0.95105838775634766 -5.5693772083031945e-06
vn 0.20352602005004883 0.67592823505401611 -0.70830655097961426
vn -0.020793933421373367 0.0067537161521613598 -0.99976098537445068
vn -0.23263688385486603 -0.66646897792816162 -0.70830732583999634
vn -0.40244677662849426 -0.57994717359542847 0.70830625295639038
vn -0.5877881646156311 -0.80901485681533813 -2.0919073904224206e-06
vn 0.017687983810901642 -0.012849702499806881 0.99976098537445068
vn 0.42719054222106934 0.56196117401123047 0.70831340551376343
vn 0.58778178691864014 0.80901944637298584 -2.8145882424723823e-06
vn 0.40244045853614807 0.57994693517684937 -0.70831012725830078
vn -0.017688043415546417 0.012851410545408726 -0.99976098537445068
vn -0.42720150947570801 -0.56196457147598267 -0.70830416679382324
vn -0.56196540594100952 -0.42719784379005432 0.7083057165145874
vn -0.80901879072189331 -0.58778280019760132 6.5202172550016257e-08
vn 0.012853608466684818 -0.017685791477560997 0.99976092576980591
vn 0.579947829246521 0.40244203805923462 0.70830839872360229
vn 0.80901837348937988 0.5877833366394043 2.6570107820589328e-06
vn 0.5619623064994812 0.42719471454620361 -0.70831000804901123
vn -0.012846817262470722 0.017689978703856468 -0.99976098537445068
vn -0.57994925975799561 -0.40244609117507935 -0.7083050012588501
vn -0.66647189855575562 -0.23263376951217651 0.70830559730529785
vn -0.95105588436126709 -0.30901885032653809 2.7710984795703553e-06
vn 0.0067577585577964783 -0.020790841430425644 0.99976098537445068
vn 0.67592781782150269 0.20353034138679504 0.70830565690994263
vn 0.95105934143066406 0.30900833010673523 -2.3364219714494538e-07
vn 0.66647142171859741 0.23263339698314667 -0.70830619335174561
vn -0.0067533524706959724 0.020792920142412186 -0.99976092576980591
vn -0.67592430114746094 -0.20353369414806366 -0.70830804109573364
vn -0.70474636554718018 -0.063267678022384644 0.70663261413574219
vn -0.99691140651702881 -0.078531235456466675 0.00073183025233447552
vn 0.00012716096534859389 -0.0109226293861866 0.99994033575057983
vn 0.7059510350227356 0.048006542026996613 0.70663183927536011
vn 0.99691200256347656 0.078522756695747375 -0.00073249236447736621
vn 0.70474648475646973 0.063265003263950348 -0.70663273334503174
vn -0.0001267305196961388 0.010923432186245918 -0.99994033575057983
vn -0.70595097541809082 -0.048004049807786942 -0.70663201808929443
vn 0.79717284440994263 0.60375112295150757 0
vn 0.13676916062831879 0.99060297012329102 0
vn -0.60374146699905396 0.79718017578125 0
vn -0.99060231447219849 0.13677375018596649 0
vn -0.79717284440994263 -0.60375112295150757 0
vn -0.13676916062831879 -0.99060297012329102 0
vn 0.60374146699905396 -0.79718017578125 0
vn 0.99060231447219849 -0.13677375018596649 0
vn 0.99060231447219849 0 0.1367737352848053
vn 0.7971729040145874 0 -0.60375112295150757
vn 0.13676916062831879 0 -0.99060297012329102
vn -0.60374146699905396 0 -0.79718017578125
vn -0.99060231447219849 0 -0.1367737352848053
vn -0.7971729040145874 0 0.60375112295150757
vn -0.13676916062831879 0 0.99060297012329102
vn 0.60374146699905396 0 0.79718017578125
vn 0 0 1
vn 0 0 -1
vn 0 0 1
vn 0 0 -1
vn 0 0 1
vn 0 0 -1
vn 0 0 1
vn 0 0 -1
vn 0 0 1
vn 0 0 -1
vn 0 0 1
vn 0 0 -1
vn 0 0 1
vn 0 0 -1
vn 0 0 1
vn 0 0 -1
vn -1 0 0
vn 1 0 0
vn -1 0 0
vn 1 0 0
vn -1 0 0
vn 1 0 0
vn -1 0 0
vn 1 0 0
vn -1 0 0
vn 1 0 0
vn -1 0 0
vn 1 0 0
vn -1 0 0
vn 1 0 0
vn -1 0 0
vn 1 0 0
vn 1 0 0
vn -1 0 0
vn 1 0 0
vn -1 0 0
vn 1 0 0
vn -1 0 0
vn 1 0 0
vn -1 0 0
vn 1 0 0
vn -1 0 0
vn 1 0 0
vn -1 0 0
vn 1 0 0
vn -1 0 0
vn 1 0 0
vn -1 0 0
vn 0 1 0
vn 0 -1 0
vn 0 1 0
vn 0 -1 0
vn 0 1 0
vn 0 -1 0
vn 0 1 0
vn 0 -1 0
vn 0 1 0
vn 0 -1 0
vn 0 1 0
vn 0 -1 0
vn 0 1 0
vn 0 -1 0
vn 0 1 0
vn 0 -1 0
vn 0 0 1
vn 0 0 1
vn 0 0 1
vn 0 0 1
vn 0 0 1
vn 0 0 1
vn 0 0 1
vn 0 0 1
vn 0 1 0
vn 0 1 0
vn 0 1 0
vn 0 1 0
vn 0 1 0
vn 0 1 0
vn 0 1 0
vn 0 1 0
# 192 elements written
f 113//113 115//115 117//117 
f 113//113 117//117 119//119 
f 113//113 119//119 121//121 
f 113//113 121//121 123//123 
f 113//113 123//123 125//125 
f 113//113 125//125 127//127 
f 8//8 7//7 9//9 
f 8//8 9//9 10//10 
f 7//7 6//6 11//11 
f 7//7 11//11 9//9 
f 6//6 5//5 12//12 
f 6//6 12//12 11//11 
f 5//5 4//4 13//13 
f 5//5 13//13 12//12 
f 4//4 3//3 14//14 
f 4//4 14//14 13//13 
f 3//3 2//2 15//15 
f 3//3 15//15 14//14 
f 2//2 1//1 16//16 
f 2//2 16//16 15//15 
f 1//1 8//8 10//10 
f 1//1 10//10 16//16 
f 10//10 9//9 17//17 
f 10//10 17//17 18//18 
f 9//9 11//11 19//19 
f 9//9 19//19 17//17 
f 11//11 12//12 20//20 
f 11//11 20//20 19//19 
f 12//12 13//13 21//21 
f 12//12 21//21 20//20 
f 13//13 14//14 22//22 
f 13//13 22//22 21//21 
f 14//14 15//15 23//23 
f 14//14 23//23 22//22 
f 15//15 16//16 24//24 
f 15//15 24//24 23//23 
f 16//16 10//10 18//18 
f 16//16 18//18 24//24 
f 18//18 17//17 25//25 
f 18//18 25//25 26//26 
f 17//17 19//19 27//27 
f 17//17 27//27 25//25 
f 19//19 20//20 28//28 
f 19//19 28//28 27//27 
f 20//20 21//21 29//29 
f 20//20 29//29 28//28 
f 21//21 22//22 30//30 
f 21//21 30//30 29//29 
f 22//22 23//23 31//31 
f 22//22 31//31 30//30 
f 23//23 24//24 32//32 
f 23//23 32//32 31//31 
f 24//24 18//18 26//26 
f 24//24 26//26 32//32 
f 26//26 25//25 33//33 
f 26//26 33//33 34//34 
f 25//25 27//27 35//35 
f 25//25 35//35 33//33 
f 27//27 28//28 36//36 
f 27//27 36//36 35//35 
f 28//28 29//29 37//37 
f 28//28 37//37 36//36 
f 29//29 30//30 38//38 
f 29//29 38//38 37//37 
f 30//30 31//31 39//39 
f 30//30 39//39 38//38 
f 31//31 32//32 40//40 
f 31//31 40//40 39//39 
f 32//32 26//26 34//34 
f 32//32 34//34 40//40 
f 34//34 33//33 41//41 
f 34//34 41//41 42//42 
f 33//33 35//35 43//43 
f 33//33 43//43 41//41 
f 35//35 36//36 44//44 
f 35//35 44//44 43//43 
f 36//36 37//37 45//45 
f 36//36 45//45 44//44 
f 37//37 38//38 46//46 
f 37//37 46//46 45//45 
f 38//38 39//39 47//47 
f 38//38 47//47 46//46 
f 39//39 40//40 48//48 
f 39//39 48//48 47//47 
f 40//40 34//34 42//42 
f 40//40 42//42 48//48 
f 131//131 129//129 133//133 
f 131//131 133//133 135//135 
f 131//131 135//135 137//137 
f 131//131 137//137 139//139 
f 131//131 139//139 141//141 
f 131//131 141//141 143//143 
f 145//145 147//147 149//149 
f 145//145 149//149 151//151 
f 145//145 151//151 153//153 
f 145//145 153//153 155//155 
f 145//145 155//155 157//157 
f 145//145 157//157 159//159 
f 56//56 55//55 57//57 
f 56//56 57//57 58//58 
f 55//55 54//54 59//59 
f 55//55 59//59 57//57 
f 54//54 53//53 60//60 
f 54//54 60//60 59//59 
f 53//53 52//52 61//61 
f 53//53 61//61 60//60 
f 52//52 51//51 62//62 
f 52//52 62//62 61//61 
f 51//51 50//50 63//63 
f 51//51 63//63 62//62 
f 50//50 49//49 64//64 
f 50//50 64//64 63//63 
f 49//49 56//56 58//58 
f 49//49 58//58 64//64 
f 58//58 57//57 65//65 
f 58//58 65//65 66//66 
f 57//57 59//59 67//67 
f 57//57 67//67 65//65 
f 59//59 60//60 68//68 
f 59//59 68//68 67//67 
f 60//60 61//61 69//69 
f 60//60 69//69 68//68 
f 61//61 62//62 70//70 
f 61//61 70//70 69//69 
f 62//62 63//63 71//71 
f 62//62 71//71 70//70 
f 63//63 64//64 72//72 
f 63//63 72//72 71//71 
f 64//64 58//58 66//66 
f 64//64 66//66 72//72 
f 66//66 65//65 73//73 
f 66//66 73//73 74//74 
f 65//65 67//67 75//75 
f 65//65 75//75 73//73 
f 67//67 68//68 76//76 
f 67//67 76//76 75//75 
f 68//68 69//69 77//77 
f 68//68 77//77 76//76 
f 69//69 70//70 78//78 
f 69//69 78//78 77//77 
f 70//70 71//71 79//79 
f 70//70 79//79 78//78 
f 71//71 72//72 80//80 
f 71//71 80//80 79//79 
f 72//72 66//66 74//74 
f 72//72 74//74 80//80 
f 74//74 73//73 81//81 
f 74//74 81//81 82//82 
f 73//73 75//75 83//83 
f 73//73 83//83 81//81 
f 75//75 76//76 84//84 
f 75//75 84//84 83//83 
f 76//76 77//77 85//85 
f 76//76 85//85 84//84 
f 77//77 78//78 86//86 
f 77//77 86//86 85//85 
f 78//78 79//79 87//87 
f 78//78 87//87 86//86 
f 79//79 80//80 88//88 
f 79//79 88//88 87//87 
f 80//80 74//74 82//82 
f 80//80 82//82 88//88 
f 82//82 81//81 89//89 
f 82//82 89//89 90//90 
f 81//81 83//83 91//91 
f 81//81 91//91 89//89 
f 83//83 84//84 92//92 
f 83//83 92//92 91//91 
f 84//84 85//85 93//93 
f 84//84 93//93 92//92 
f 85//85 86//86 94//94 
f 85//85 94//94 93//93 
f 86//86 87//87 95//95 
f 86//86 95//95 94//94 
f 87//87 88//88 96//96 
f 87//87 96//96 95//95 
f 88//88 82//82 90//90 
f 88//88 90//90 96//96 
f 163//163 161//161 165//165 
f 163//163 165//165 167//167 
f 163//163 167//167 169//169 
f 163//163 169//169 171//171 
f 163//163 171//171 173//173 
f 163//163 173//173 175//175 
f 177//177 178//178 179//179 
f 177//177 179//179 180//180 
f 177//177 180//180 181//181 
f 177//177 181//181 182//182 
f 177//177 182//182 183//183 
f 177//177 183//183 184//184 
f 128//128 126//126 124//124 
f 128//128 124//124 122//122 
f 128//128 122//122 120//120 
f 128//128 120//120 118//118 
f 128//128 118//118 116//116 
f 128//128 116//116 114//114 
f 104//104 103//103 7//7 
f 104//104 7//7 8//8 
f 103//103 102//102 6//6 
f 103//103 6//6 7//7 
f 102//102 101//101 5//5 
f 102//102 5//5 6//6 
f 101//101 100//100 4//4 
f 101//101 4//4 5//5 
f 100//100 99//99 3//3 
f 100//100 3//3 4//4 
f 99//99 98//98 2//2 
f 99//99 2//2 3//3 
f 98//98 97//97 1//1 
f 98//98 1//1 2//2 
f 97//97 104//104 8//8 
f 97//97 8//8 1//1 
f 144//144 142//142 140//140 
f 144//144 140//140 138//138 
f 144//144 138//138 136//136 
f 144//144 136//136 134//134 
f 144//144 134//134 130//130 
f 144//144 130//130 132//132 
f 148//148 146//146 160//160 
f 148//148 160//160 158//158 
f 148//148 158//158 156//156 
f 148//148 156//156 154//154 
f 148//148 154//154 152//152 
f 148//148 152//152 150//150 
f 42//42 41//41 49//49 
f 42//42 49//49 50//50 
f 41//41 43//43 56//56 
f 41//41 56//56 49//49 
f 43//43 44//44 55//55 
f 43//43 55//55 56//56 
f 44//44 45//45 54//54 
f 44//44 54//54 55//55 
f 45//45 46//46 53//53 
f 45//45 53//53 54//54 
f 46//46 47//47 52//52 
f 46//46 52//52 53//53 
f 47//47 48//48 51//51 
f 47//47 51//51 52//52 
f 48//48 42//42 50//50 
f 48//48 50//50 51//51 
f 168//168 166//166 162//162 
f 168//168 162//162 164//164 
f 168//168 164//164 176//176 
f 168//168 176//176 174//174 
f 168//168 174//174 172//172 
f 168//168 172//172 170//170 
f 185//185 186//186 187//187 
f 185//185 187//187 188//188 
f 185//185 188//188 189//189 
f 185//185 189//189 190//190 
f 185//185 190//190 191//191 
f 185//185 191//191 192//192 
f 93//93 94//94 106//106 
f 93//93 106//106 105//105 
f 94//94 95//95 107//107 
f 94//94 107//107 106//106 
f 95//95 96//96 108//108 
f 95//95 108//108 107//107 
f 96//96 90//90 109//109 
f 96//96 109//109 108//108 
f 90//90 89//89 110//110 
f 90//90 110//110 109//109 
f 89//89 91//91 111//111 
f 89//89 111//111 110//110 
f 91//91 92//92 112//112 
f 91//91 112//112 111//111 
f 92//92 93//93 105//105 
f 92//92 105//105 112//112 
