# file written by OpenSceneGraph

mtllib g20.mtl


o _Geometry_0

v -14940.4111328125 27505.412109375 9197.599609375
v -14900 27522.150390625 9197.599609375
v -14859.5888671875 27505.412109375 9197.599609375
v -14842.849609375 27465 9197.599609375
v -14859.5888671875 27424.587890625 9197.599609375
v -14900 27407.849609375 9197.599609375
v -14940.4111328125 27424.587890625 9197.599609375
v -14957.150390625 27465 9197.599609375
v -14930.974609375 27424.587890625 9257.181640625
v -14946.8935546875 27465 9262.353515625
v -14892.541015625 27407.849609375 9244.6943359375
v -14854.107421875 27424.587890625 9232.2060546875
v -14838.1884765625 27465 9227.0341796875
v -14854.107421875 27505.412109375 9232.2060546875
v -14892.541015625 27522.150390625 9244.6943359375
v -14930.974609375 27505.412109375 9257.181640625
v -14903.587890625 27424.587890625 9310.931640625
v -14917.1298828125 27465 9320.771484375
v -14870.89453125 27407.849609375 9287.1787109375
v -14838.201171875 27424.587890625 9263.42578125
v -14824.6591796875 27465 9253.5869140625
v -14838.201171875 27505.412109375 9263.42578125
v -14870.89453125 27522.150390625 9287.1787109375
v -14903.587890625 27505.412109375 9310.931640625
v -14860.931640625 27424.587890625 9353.587890625
v -14870.771484375 27465 9367.1298828125
v -14837.1787109375 27407.849609375 9320.89453125
v -14813.42578125 27424.587890625 9288.201171875
v -14803.5869140625 27465 9274.6591796875
v -14813.42578125 27505.412109375 9288.201171875
v -14837.1787109375 27522.150390625 9320.89453125
v -14860.931640625 27505.412109375 9353.587890625
v -14807.181640625 27424.587890625 9380.974609375
v -14812.353515625 27465 9396.8935546875
v -14794.6943359375 27407.849609375 9342.541015625
v -14782.2060546875 27424.587890625 9304.107421875
v -14777.0341796875 27465 9288.1884765625
v -14782.2060546875 27505.412109375 9304.107421875
v -14794.6943359375 27522.150390625 9342.541015625
v -14807.181640625 27505.412109375 9380.974609375
v -14747.599609375 27424.587890625 9390.4111328125
v -14747.599609375 27465 9407.150390625
v -14747.599609375 27407.849609375 9350
v -14747.599609375 27424.587890625 9309.5888671875
v -14747.599609375 27465 9292.849609375
v -14747.599609375 27505.412109375 9309.5888671875
v -14747.599609375 27522.150390625 9350
v -14747.599609375 27505.412109375 9390.4111328125
v -14069.400390625 27424.587890625 9390.4111328125
v -14069.400390625 27465 9407.150390625
v -14069.400390625 27505.412109375 9390.4111328125
v -14069.400390625 27522.150390625 9350
v -14069.400390625 27505.412109375 9309.5888671875
v -14069.400390625 27465 9292.849609375
v -14069.400390625 27424.587890625 9309.5888671875
v -14069.400390625 27407.849609375 9350
v -14009.818359375 27434.025390625 9309.5888671875
v -14004.646484375 27418.10546875 9350
v -14022.3056640625 27472.458984375 9292.849609375
v -14034.7939453125 27510.892578125 9309.5888671875
v -14039.9658203125 27526.8125 9350
v -14034.7939453125 27510.892578125 9390.4111328125
v -14022.3056640625 27472.458984375 9407.150390625
v -14009.818359375 27434.025390625 9390.4111328125
v -13956.068359375 27461.412109375 9309.5888671875
v -13946.228515625 27447.87109375 9350
v -13979.8212890625 27494.10546875 9292.849609375
v -14003.57421875 27526.798828125 9309.5888671875
v -14013.4130859375 27540.341796875 9350
v -14003.57421875 27526.798828125 9390.4111328125
v -13979.8212890625 27494.10546875 9407.150390625
v -13956.068359375 27461.412109375 9390.4111328125
v -13913.412109375 27504.068359375 9309.5888671875
v -13899.8701171875 27494.23046875 9350
v -13946.10546875 27527.822265625 9292.849609375
v -13978.798828125 27551.57421875 9309.5888671875
v -13992.3408203125 27561.4140625 9350
v -13978.798828125 27551.57421875 9390.4111328125
v -13946.10546875 27527.822265625 9407.150390625
v -13913.412109375 27504.068359375 9390.4111328125
v -13886.025390625 27557.818359375 9309.5888671875
v -13870.1064453125 27552.64453125 9350
v -13924.458984375 27570.306640625 9292.849609375
v -13962.892578125 27582.79296875 9309.5888671875
v -13978.8115234375 27587.966796875 9350
v -13962.892578125 27582.79296875 9390.4111328125
v -13924.458984375 27570.306640625 9407.150390625
v -13886.025390625 27557.818359375 9390.4111328125
v -13876.5888671875 27617.400390625 9309.5888671875
v -13859.849609375 27617.400390625 9350
v -13917 27617.400390625 9292.849609375
v -13957.4111328125 27617.400390625 9309.5888671875
v -13974.150390625 27617.400390625 9350
v -13957.4111328125 27617.400390625 9390.4111328125
v -13917 27617.400390625 9407.150390625
v -13876.5888671875 27617.400390625 9390.4111328125
v -14859.5888671875 27424.587890625 9130.099609375
v -14900 27407.849609375 9130.099609375
v -14940.4111328125 27424.587890625 9130.099609375
v -14957.150390625 27465 9130.099609375
v -14940.4111328125 27505.412109375 9130.099609375
v -14900 27522.150390625 9130.099609375
v -14859.5888671875 27505.412109375 9130.099609375
v -14842.849609375 27465 9130.099609375
v -13859.849609375 42225 9350
v -13876.5888671875 42225 9309.5888671875
v -13917 42225 9292.849609375
v -13957.4111328125 42225 9309.5888671875
v -13974.150390625 42225 9350
v -13957.4111328125 42225 9390.4111328125
v -13917 42225 9407.150390625
v -13876.5888671875 42225 9390.4111328125
v -14940.4111328125 27505.412109375 9197.599609375
v -14940.4111328125 27505.412109375 9197.599609375
v -14900 27522.150390625 9197.599609375
v -14900 27522.150390625 9197.599609375
v -14859.5888671875 27505.412109375 9197.599609375
v -14859.5888671875 27505.412109375 9197.599609375
v -14842.849609375 27465 9197.599609375
v -14842.849609375 27465 9197.599609375
v -14859.5888671875 27424.587890625 9197.599609375
v -14859.5888671875 27424.587890625 9197.599609375
v -14900 27407.849609375 9197.599609375
v -14900 27407.849609375 9197.599609375
v -14940.4111328125 27424.587890625 9197.599609375
v -14940.4111328125 27424.587890625 9197.599609375
v -14957.150390625 27465 9197.599609375
v -14957.150390625 27465 9197.599609375
v -14747.599609375 27424.587890625 9390.4111328125
v -14747.599609375 27424.587890625 9390.4111328125
v -14747.599609375 27465 9407.150390625
v -14747.599609375 27465 9407.150390625
v -14747.599609375 27407.849609375 9350
v -14747.599609375 27407.849609375 9350
v -14747.599609375 27424.587890625 9309.5888671875
v -14747.599609375 27424.587890625 9309.5888671875
v -14747.599609375 27465 9292.849609375
v -14747.599609375 27465 9292.849609375
v -14747.599609375 27505.412109375 9309.5888671875
v -14747.599609375 27505.412109375 9309.5888671875
v -14747.599609375 27522.150390625 9350
v -14747.599609375 27522.150390625 9350
v -14747.599609375 27505.412109375 9390.4111328125
v -14747.599609375 27505.412109375 9390.4111328125
v -14069.400390625 27424.587890625 9390.4111328125
v -14069.400390625 27424.587890625 9390.4111328125
v -14069.400390625 27465 9407.150390625
v -14069.400390625 27465 9407.150390625
v -14069.400390625 27505.412109375 9390.4111328125
v -14069.400390625 27505.412109375 9390.4111328125
v -14069.400390625 27522.150390625 9350
v -14069.400390625 27522.150390625 9350
v -14069.400390625 27505.412109375 9309.5888671875
v -14069.400390625 27505.412109375 9309.5888671875
v -14069.400390625 27465 9292.849609375
v -14069.400390625 27465 9292.849609375
v -14069.400390625 27424.587890625 9309.5888671875
v -14069.400390625 27424.587890625 9309.5888671875
v -14069.400390625 27407.849609375 9350
v -14069.400390625 27407.849609375 9350
v -13876.5888671875 27617.400390625 9309.5888671875
v -13876.5888671875 27617.400390625 9309.5888671875
v -13859.849609375 27617.400390625 9350
v -13859.849609375 27617.400390625 9350
v -13917 27617.400390625 9292.849609375
v -13917 27617.400390625 9292.849609375
v -13957.4111328125 27617.400390625 9309.5888671875
v -13957.4111328125 27617.400390625 9309.5888671875
v -13974.150390625 27617.400390625 9350
v -13974.150390625 27617.400390625 9350
v -13957.4111328125 27617.400390625 9390.4111328125
v -13957.4111328125 27617.400390625 9390.4111328125
v -13917 27617.400390625 9407.150390625
v -13917 27617.400390625 9407.150390625
v -13876.5888671875 27617.400390625 9390.4111328125
v -13876.5888671875 27617.400390625 9390.4111328125
v -14859.5888671875 27424.587890625 9130.099609375
v -14900 27407.849609375 9130.099609375
v -14940.4111328125 27424.587890625 9130.099609375
v -14957.150390625 27465 9130.099609375
v -14940.4111328125 27505.412109375 9130.099609375
v -14900 27522.150390625 9130.099609375
v -14859.5888671875 27505.412109375 9130.099609375
v -14842.849609375 27465 9130.099609375
v -13859.849609375 42225 9350
v -13876.5888671875 42225 9309.5888671875
v -13917 42225 9292.849609375
v -13957.4111328125 42225 9309.5888671875
v -13974.150390625 42225 9350
v -13957.4111328125 42225 9390.4111328125
v -13917 42225 9407.150390625
v -13876.5888671875 42225 9390.4111328125
# 192 elements written

vn -0.70474708080291748 0.70663195848464966 0.063268549740314484
vn 0.00012688116112258285 0.99994033575057983 0.010922672227025032
vn 0.70595055818557739 0.70663219690322876 -0.048007264733314514
vn 0.99691218137741089 -0.00073372601764276624 -0.07852182537317276
vn 0.70474720001220703 -0.70663207769393921 -0.063265286386013031
vn -0.00012713944306597114 -0.99994033575057983 -0.010923676192760468
vn -0.70595109462738037 -0.70663189888000488 0.048003852367401123
vn -0.99691128730773926 0.00073282141238451004 0.078532807528972626
vn -0.67592793703079224 -0.70830398797988892 0.2035360187292099
vn -0.95105814933776855 3.2601029431589268e-08 0.3090117871761322
vn -0.0067560076713562012 -0.99976098537445068 -0.020790761336684227
vn 0.66647505760192871 -0.70830303430557251 -0.23263244330883026
vn 0.95106017589569092 -1.8582625216367887e-06 -0.30900570750236511
vn 0.67593026161193848 0.70830410718917847 -0.2035280168056488
vn 0.006754580419510603 0.99976098537445068 0.020791858434677124
vn -0.66647493839263916 0.70830404758453369 0.23262977600097656
vn -0.57994943857192993 -0.70830738544464111 0.40244165062904358
vn -0.80902242660522461 -5.2705522648466285e-06 0.58777785301208496
vn -0.012850233353674412 -0.99976092576980591 -0.017687445506453514
vn 0.56196564435958862 -0.70830780267715454 -0.42719399929046631
vn 0.80901956558227539 3.4394251997582614e-06 -0.58778166770935059
vn 0.57995212078094482 0.708304762840271 -0.40244236588478088
vn 0.012850495986640453 0.99976092576980591 0.017688969150185585
vn -0.56195986270904541 0.70831137895584106 0.42719551920890808
vn -0.42719554901123047 -0.70831143856048584 0.56195986270904541
vn -0.58777785301208496 5.2705527195939794e-06 0.80902236700057983
vn -0.017688963562250137 -0.99976098537445068 -0.012850516475737095
vn 0.40244242548942566 -0.70830482244491577 -0.57995212078094482
vn 0.58778166770935059 -3.4557256185507867e-06 -0.80901956558227539
vn 0.42719396948814392 0.70830780267715454 -0.56196564435958862
vn 0.017687439918518066 0.99976092576980591 0.012850233353674412
vn -0.40244165062904358 0.70830732583999634 0.57994949817657471
vn -0.23262977600097656 -0.70830404758453369 0.66647487878799438
vn -0.3090117871761322 -2.7167528671157015e-08 0.95105820894241333
vn -0.020791850984096527 -0.99976098537445068 -0.0067546027712523937
vn 0.2035280168056488 -0.70830410718917847 -0.6759302020072937
vn 0.3090057373046875 1.8636960703588556e-06 -0.95106017589569092
vn 0.23263241350650787 0.70830297470092773 -0.66647505760192871
vn 0.020790765061974525 0.99976098537445068 0.0067560076713562012
vn -0.2035360187292099 0.70830398797988892 0.67592793703079224
vn -0.063268557190895081 -0.70663189888000488 0.70474708080291748
vn -0.07853282243013382 -0.00073283218080177903 0.99691128730773926
vn -0.010922675020992756 -0.99994033575057983 -0.00012688116112258285
vn 0.048007272183895111 -0.70663225650787354 -0.70595061779022217
vn 0.078521817922592163 0.00073373125633224845 -0.99691206216812134
vn 0.063265278935432434 0.70663207769393921 -0.70474720001220703
vn 0.010923677124083042 0.99994033575057983 0.00012711792078334838
vn -0.048003848642110825 0.70663189888000488 0.70595109462738037
vn 0.063269816339015961 -0.70475053787231445 0.70662826299667358
vn 0.010924405418336391 0.00012549897655844688 0.99994027614593506
vn -0.04800177738070488 0.70596081018447876 0.70662236213684082
vn -0.078527785837650299 0.99691164493560791 -0.0007260091369971633
vn -0.063264161348342896 0.70475125312805176 -0.70662808418273926
vn -0.010922337882220745 -0.00012568729289341718 -0.99994033575057983
vn 0.048008564859628677 -0.70596021413803101 -0.70662248134613037
vn 0.078530378639698029 -0.99691146612167358 0.00072640256257727742
vn 0.20353852212429047 -0.67592960596084595 -0.70830166339874268
vn 0.30901816487312317 -0.95105618238449097 -3.8034843896639359e-07
vn -0.020791100338101387 -0.0067546512000262737 -0.99976104497909546
vn -0.23262444138526917 0.66647356748580933 -0.70830708742141724
vn -0.30901125073432922 0.95105838775634766 5.5748296290403232e-06
vn -0.20352807641029358 0.67593216896057129 0.70830225944519043
vn 0.02079513855278492 0.0067541138269007206 0.99976098537445068
vn 0.23263753950595856 -0.66647344827651978 0.70830285549163818
vn 0.40244993567466736 -0.57995039224624634 -0.70830196142196655
vn 0.5877881646156311 -0.80901491641998291 2.0919146663800348e-06
vn -0.017689025029540062 -0.012850470840930939 -0.99976098537445068
vn -0.4271925687789917 0.56196516752243042 -0.70830899477005005
vn -0.58778178691864014 0.80901950597763062 2.7982973733742256e-06
vn -0.40244361758232117 0.57995003461837769 0.70830577611923218
vn 0.01768907718360424 0.012852169573307037 0.99976092576980591
vn 0.4272034764289856 -0.56196856498718262 0.70829981565475464
vn 0.56196939945220947 -0.4271998405456543 -0.70830124616622925
vn 0.80901879072189331 -0.58778274059295654 -7.0635927329476544e-08
vn -0.012854368425905704 -0.017686821520328522 -0.99976098537445068
vn -0.57995098829269409 0.40244525671005249 -0.70830410718917847
vn -0.80901843309402466 0.5877833366394043 -2.6352854547440074e-06
vn -0.56196630001068115 0.42719677090644836 0.70830565690994263
vn 0.01284758560359478 0.017691023647785187 0.99976092576980591
vn 0.5799524188041687 -0.40244925022125244 0.70830070972442627
vn 0.66647624969482422 -0.23263441026210785 -0.70830118656158447
vn 0.95105594396591187 -0.30901885032653809 -2.7819751267088577e-06
vn -0.0067581837065517902 -0.020792044699192047 -0.99976104497909546
vn -0.67593181133270264 0.20353236794471741 -0.7083013653755188
vn -0.95105940103530884 0.30900833010673523 2.2820945844159723e-07
vn -0.66647571325302124 0.23263408243656158 0.708301842212677
vn 0.0067537506110966206 0.020794128999114037 0.99976098537445068
vn 0.67592829465866089 -0.2035357654094696 0.70830374956130981
vn 0.70475071668624878 -0.06326766312122345 -0.70662832260131836
vn 0.99691140651702881 -0.078531242907047272 -0.00073185440851375461
vn -0.00012719433289021254 -0.010923266410827637 -0.99994033575057983
vn -0.70595520734786987 0.04800724983215332 -0.70662754774093628
vn -0.99691206216812134 0.078522779047489166 0.00073250039713457227
vn -0.70475083589553833 0.063264995813369751 0.70662844181060791
vn 0.00012674236495513469 0.010924066416919231 0.99994039535522461
vn 0.70595520734786987 -0.048004750162363052 0.70662772655487061
vn 0.79717284440994263 -0.60375112295150757 0
vn 0.13676916062831879 -0.99060297012329102 0
vn -0.60374146699905396 -0.79718017578125 0
vn -0.99060231447219849 -0.13677375018596649 0
vn -0.79717284440994263 0.60375112295150757 0
vn -0.13676916062831879 0.99060297012329102 0
vn 0.60374146699905396 0.79718017578125 0
vn 0.99060231447219849 0.13677375018596649 0
vn 0.99060189723968506 0 0.13677699863910675
vn 0.7971731424331665 0 -0.60375076532363892
vn 0.13677699863910675 0 -0.99060189723968506
vn -0.60375076532363892 0 -0.7971731424331665
vn -0.99060189723968506 0 -0.13677699863910675
vn -0.7971731424331665 0 0.60375076532363892
vn -0.13677699863910675 0 0.99060189723968506
vn 0.60375076532363892 0 0.7971731424331665
vn 0 0 -1
vn 0 0 1
vn 0 0 -1
vn 0 0 1
vn 0 0 -1
vn 0 0 1
vn 0 0 -1
vn 0 0 1
vn 0 0 -1
vn 0 0 1
vn 0 0 -1
vn 0 0 1
vn 0 0 -1
vn 0 0 1
vn 0 0 -1
vn 0 0 1
vn 1 0 0
vn -1 0 0
vn 1 0 0
vn -1 0 0
vn 1 0 0
vn -1 0 0
vn 1 0 0
vn -1 0 0
vn 1 0 0
vn -1 0 0
vn 1 0 0
vn -1 0 0
vn 1 0 0
vn -1 0 0
vn 1 0 0
vn -1 0 0
vn -1 0 0
vn 1 0 0
vn -1 0 0
vn 1 0 0
vn -1 0 0
vn 1 0 0
vn -1 0 0
vn 1 0 0
vn -1 0 0
vn 1 0 0
vn -1 0 0
vn 1 0 0
vn -1 0 0
vn 1 0 0
vn -1 0 0
vn 1 0 0
vn 0 1 0
vn 0 -1 0
vn 0 1 0
vn 0 -1 0
vn 0 1 0
vn 0 -1 0
vn 0 1 0
vn 0 -1 0
vn 0 1 0
vn 0 -1 0
vn 0 1 0
vn 0 -1 0
vn 0 1 0
vn 0 -1 0
vn 0 1 0
vn 0 -1 0
vn 0 0 -1
vn 0 0 -1
vn 0 0 -1
vn 0 0 -1
vn 0 0 -1
vn 0 0 -1
vn 0 0 -1
vn 0 0 -1
vn 0 1 0
vn 0 1 0
vn 0 1 0
vn 0 1 0
vn 0 1 0
vn 0 1 0
vn 0 1 0
vn 0 1 0
# 192 elements written
f 113//113 115//115 117//117 
f 113//113 117//117 119//119 
f 113//113 119//119 121//121 
f 113//113 121//121 123//123 
f 113//113 123//123 125//125 
f 113//113 125//125 127//127 
f 8//8 7//7 9//9 
f 8//8 9//9 10//10 
f 7//7 6//6 11//11 
f 7//7 11//11 9//9 
f 6//6 5//5 12//12 
f 6//6 12//12 11//11 
f 5//5 4//4 13//13 
f 5//5 13//13 12//12 
f 4//4 3//3 14//14 
f 4//4 14//14 13//13 
f 3//3 2//2 15//15 
f 3//3 15//15 14//14 
f 2//2 1//1 16//16 
f 2//2 16//16 15//15 
f 1//1 8//8 10//10 
f 1//1 10//10 16//16 
f 10//10 9//9 17//17 
f 10//10 17//17 18//18 
f 9//9 11//11 19//19 
f 9//9 19//19 17//17 
f 11//11 12//12 20//20 
f 11//11 20//20 19//19 
f 12//12 13//13 21//21 
f 12//12 21//21 20//20 
f 13//13 14//14 22//22 
f 13//13 22//22 21//21 
f 14//14 15//15 23//23 
f 14//14 23//23 22//22 
f 15//15 16//16 24//24 
f 15//15 24//24 23//23 
f 16//16 10//10 18//18 
f 16//16 18//18 24//24 
f 18//18 17//17 25//25 
f 18//18 25//25 26//26 
f 17//17 19//19 27//27 
f 17//17 27//27 25//25 
f 19//19 20//20 28//28 
f 19//19 28//28 27//27 
f 20//20 21//21 29//29 
f 20//20 29//29 28//28 
f 21//21 22//22 30//30 
f 21//21 30//30 29//29 
f 22//22 23//23 31//31 
f 22//22 31//31 30//30 
f 23//23 24//24 32//32 
f 23//23 32//32 31//31 
f 24//24 18//18 26//26 
f 24//24 26//26 32//32 
f 26//26 25//25 33//33 
f 26//26 33//33 34//34 
f 25//25 27//27 35//35 
f 25//25 35//35 33//33 
f 27//27 28//28 36//36 
f 27//27 36//36 35//35 
f 28//28 29//29 37//37 
f 28//28 37//37 36//36 
f 29//29 30//30 38//38 
f 29//29 38//38 37//37 
f 30//30 31//31 39//39 
f 30//30 39//39 38//38 
f 31//31 32//32 40//40 
f 31//31 40//40 39//39 
f 32//32 26//26 34//34 
f 32//32 34//34 40//40 
f 34//34 33//33 41//41 
f 34//34 41//41 42//42 
f 33//33 35//35 43//43 
f 33//33 43//43 41//41 
f 35//35 36//36 44//44 
f 35//35 44//44 43//43 
f 36//36 37//37 45//45 
f 36//36 45//45 44//44 
f 37//37 38//38 46//46 
f 37//37 46//46 45//45 
f 38//38 39//39 47//47 
f 38//38 47//47 46//46 
f 39//39 40//40 48//48 
f 39//39 48//48 47//47 
f 40//40 34//34 42//42 
f 40//40 42//42 48//48 
f 131//131 129//129 133//133 
f 131//131 133//133 135//135 
f 131//131 135//135 137//137 
f 131//131 137//137 139//139 
f 131//131 139//139 141//141 
f 131//131 141//141 143//143 
f 145//145 147//147 149//149 
f 145//145 149//149 151//151 
f 145//145 151//151 153//153 
f 145//145 153//153 155//155 
f 145//145 155//155 157//157 
f 145//145 157//157 159//159 
f 56//56 55//55 57//57 
f 56//56 57//57 58//58 
f 55//55 54//54 59//59 
f 55//55 59//59 57//57 
f 54//54 53//53 60//60 
f 54//54 60//60 59//59 
f 53//53 52//52 61//61 
f 53//53 61//61 60//60 
f 52//52 51//51 62//62 
f 52//52 62//62 61//61 
f 51//51 50//50 63//63 
f 51//51 63//63 62//62 
f 50//50 49//49 64//64 
f 50//50 64//64 63//63 
f 49//49 56//56 58//58 
f 49//49 58//58 64//64 
f 58//58 57//57 65//65 
f 58//58 65//65 66//66 
f 57//57 59//59 67//67 
f 57//57 67//67 65//65 
f 59//59 60//60 68//68 
f 59//59 68//68 67//67 
f 60//60 61//61 69//69 
f 60//60 69//69 68//68 
f 61//61 62//62 70//70 
f 61//61 70//70 69//69 
f 62//62 63//63 71//71 
f 62//62 71//71 70//70 
f 63//63 64//64 72//72 
f 63//63 72//72 71//71 
f 64//64 58//58 66//66 
f 64//64 66//66 72//72 
f 66//66 65//65 73//73 
f 66//66 73//73 74//74 
f 65//65 67//67 75//75 
f 65//65 75//75 73//73 
f 67//67 68//68 76//76 
f 67//67 76//76 75//75 
f 68//68 69//69 77//77 
f 68//68 77//77 76//76 
f 69//69 70//70 78//78 
f 69//69 78//78 77//77 
f 70//70 71//71 79//79 
f 70//70 79//79 78//78 
f 71//71 72//72 80//80 
f 71//71 80//80 79//79 
f 72//72 66//66 74//74 
f 72//72 74//74 80//80 
f 74//74 73//73 81//81 
f 74//74 81//81 82//82 
f 73//73 75//75 83//83 
f 73//73 83//83 81//81 
f 75//75 76//76 84//84 
f 75//75 84//84 83//83 
f 76//76 77//77 85//85 
f 76//76 85//85 84//84 
f 77//77 78//78 86//86 
f 77//77 86//86 85//85 
f 78//78 79//79 87//87 
f 78//78 87//87 86//86 
f 79//79 80//80 88//88 
f 79//79 88//88 87//87 
f 80//80 74//74 82//82 
f 80//80 82//82 88//88 
f 82//82 81//81 89//89 
f 82//82 89//89 90//90 
f 81//81 83//83 91//91 
f 81//81 91//91 89//89 
f 83//83 84//84 92//92 
f 83//83 92//92 91//91 
f 84//84 85//85 93//93 
f 84//84 93//93 92//92 
f 85//85 86//86 94//94 
f 85//85 94//94 93//93 
f 86//86 87//87 95//95 
f 86//86 95//95 94//94 
f 87//87 88//88 96//96 
f 87//87 96//96 95//95 
f 88//88 82//82 90//90 
f 88//88 90//90 96//96 
f 163//163 161//161 165//165 
f 163//163 165//165 167//167 
f 163//163 167//167 169//169 
f 163//163 169//169 171//171 
f 163//163 171//171 173//173 
f 163//163 173//173 175//175 
f 177//177 178//178 179//179 
f 177//177 179//179 180//180 
f 177//177 180//180 181//181 
f 177//177 181//181 182//182 
f 177//177 182//182 183//183 
f 177//177 183//183 184//184 
f 120//120 118//118 116//116 
f 120//120 116//116 114//114 
f 120//120 114//114 128//128 
f 120//120 128//128 126//126 
f 120//120 126//126 124//124 
f 120//120 124//124 122//122 
f 104//104 103//103 3//3 
f 104//104 3//3 4//4 
f 103//103 102//102 2//2 
f 103//103 2//2 3//3 
f 102//102 101//101 1//1 
f 102//102 1//1 2//2 
f 101//101 100//100 8//8 
f 101//101 8//8 1//1 
f 100//100 99//99 7//7 
f 100//100 7//7 8//8 
f 99//99 98//98 6//6 
f 99//99 6//6 7//7 
f 98//98 97//97 5//5 
f 98//98 5//5 6//6 
f 97//97 104//104 4//4 
f 97//97 4//4 5//5 
f 136//136 134//134 130//130 
f 136//136 130//130 132//132 
f 136//136 132//132 144//144 
f 136//136 144//144 142//142 
f 136//136 142//142 140//140 
f 136//136 140//140 138//138 
f 156//156 154//154 152//152 
f 156//156 152//152 150//150 
f 156//156 150//150 148//148 
f 156//156 148//148 146//146 
f 156//156 146//146 160//160 
f 156//156 160//160 158//158 
f 45//45 46//46 53//53 
f 45//45 53//53 54//54 
f 46//46 47//47 52//52 
f 46//46 52//52 53//53 
f 47//47 48//48 51//51 
f 47//47 51//51 52//52 
f 48//48 42//42 50//50 
f 48//48 50//50 51//51 
f 42//42 41//41 49//49 
f 42//42 49//49 50//50 
f 41//41 43//43 56//56 
f 41//41 56//56 49//49 
f 43//43 44//44 55//55 
f 43//43 55//55 56//56 
f 44//44 45//45 54//54 
f 44//44 54//54 55//55 
f 176//176 174//174 172//172 
f 176//176 172//172 170//170 
f 176//176 170//170 168//168 
f 176//176 168//168 166//166 
f 176//176 166//166 162//162 
f 176//176 162//162 164//164 
f 185//185 186//186 187//187 
f 185//185 187//187 188//188 
f 185//185 188//188 189//189 
f 185//185 189//189 190//190 
f 185//185 190//190 191//191 
f 185//185 191//191 192//192 
f 90//90 89//89 106//106 
f 90//90 106//106 105//105 
f 89//89 91//91 107//107 
f 89//89 107//107 106//106 
f 91//91 92//92 108//108 
f 91//91 108//108 107//107 
f 92//92 93//93 109//109 
f 92//92 109//109 108//108 
f 93//93 94//94 110//110 
f 93//93 110//110 109//109 
f 94//94 95//95 111//111 
f 94//94 111//111 110//110 
f 95//95 96//96 112//112 
f 95//95 112//112 111//111 
f 96//96 90//90 105//105 
f 96//96 105//105 112//112 
