# file written by OpenSceneGraph

mtllib g39.mtl


o _Geometry_0

v -21521.744140625 10228.255859375 10773.2001953125
v -21530.75 10250 10773.2001953125
v -21521.744140625 10271.744140625 10773.2001953125
v -21500 10280.75 10773.2001953125
v -21478.255859375 10271.744140625 10773.2001953125
v -21469.25 10250 10773.2001953125
v -21478.255859375 10228.255859375 10773.2001953125
v -21500 10219.25 10773.2001953125
v -21478.255859375 10230.876953125 10789.74609375
v -21500 10222.310546875 10792.529296875
v -21469.25 10251.5556640625 10783.0263671875
v -21478.255859375 10272.236328125 10776.3076171875
v -21500 10280.80078125 10773.5244140625
v -21521.744140625 10272.236328125 10776.3076171875
v -21530.75 10251.5556640625 10783.0263671875
v -21521.744140625 10230.876953125 10789.74609375
v -21478.255859375 10238.482421875 10804.671875
v -21500 10231.1962890625 10809.9658203125
v -21469.25 10256.0732421875 10791.8916015625
v -21478.255859375 10273.6640625 10779.111328125
v -21500 10280.951171875 10773.8173828125
v -21521.744140625 10273.6640625 10779.111328125
v -21530.75 10256.0732421875 10791.8916015625
v -21521.744140625 10238.482421875 10804.671875
v -21478.255859375 10250.328125 10816.517578125
v -21500 10245.0341796875 10823.8037109375
v -21469.25 10263.1083984375 10798.9267578125
v -21478.255859375 10275.888671875 10781.3359375
v -21500 10281.1826171875 10774.0498046875
v -21521.744140625 10275.888671875 10781.3359375
v -21530.75 10263.1083984375 10798.9267578125
v -21521.744140625 10250.328125 10816.517578125
v -21478.255859375 10265.25390625 10824.123046875
v -21500 10262.470703125 10832.6884765625
v -21469.25 10271.97265625 10803.443359375
v -21478.255859375 10278.6923828125 10782.7646484375
v -21500 10281.4755859375 10774.1982421875
v -21521.744140625 10278.6923828125 10782.7646484375
v -21530.75 10271.97265625 10803.443359375
v -21521.744140625 10265.25390625 10824.123046875
v -21478.255859375 10281.7998046875 10826.7431640625
v -21500 10281.7998046875 10835.75
v -21469.25 10281.7998046875 10805
v -21478.255859375 10281.7998046875 10783.2568359375
v -21500 10281.7998046875 10774.25
v -21521.744140625 10281.7998046875 10783.2568359375
v -21530.75 10281.7998046875 10805
v -21521.744140625 10281.7998046875 10826.7431640625
v -21482.923828125 10232.9228515625 10505
v -21500 10225.849609375 10505
v -21517.076171875 10232.9228515625 10505
v -21524.150390625 10250 10505
v -21517.076171875 10267.0771484375 10505
v -21500 10274.150390625 10505
v -21482.923828125 10267.0771484375 10505
v -21475.849609375 10250 10505
v -21475.849609375 10250 10773.2001953125
v -21482.923828125 10267.0771484375 10773.2001953125
v -21500 10274.150390625 10773.2001953125
v -21517.076171875 10267.0771484375 10773.2001953125
v -21524.150390625 10250 10773.2001953125
v -21517.076171875 10232.9228515625 10773.2001953125
v -21500 10225.849609375 10773.2001953125
v -21482.923828125 10232.9228515625 10773.2001953125
v -21482.923828125 10281.7998046875 10822.076171875
v -21500 10281.7998046875 10829.150390625
v -21517.076171875 10281.7998046875 10822.076171875
v -21524.150390625 10281.7998046875 10805
v -21517.076171875 10281.7998046875 10787.923828125
v -21500 10281.7998046875 10780.849609375
v -21482.923828125 10281.7998046875 10787.923828125
v -21475.849609375 10281.7998046875 10805
v -21475.849609375 10550 10805
v -21482.923828125 10550 10787.923828125
v -21500 10550 10780.849609375
v -21517.076171875 10550 10787.923828125
v -21524.150390625 10550 10805
v -21517.076171875 10550 10822.076171875
v -21500 10550 10829.150390625
v -21482.923828125 10550 10822.076171875
v -21521.744140625 10228.255859375 10773.2001953125
v -21530.75 10250 10773.2001953125
v -21521.744140625 10271.744140625 10773.2001953125
v -21500 10280.75 10773.2001953125
v -21478.255859375 10271.744140625 10773.2001953125
v -21469.25 10250 10773.2001953125
v -21478.255859375 10228.255859375 10773.2001953125
v -21500 10219.25 10773.2001953125
v -21478.255859375 10281.7998046875 10826.7431640625
v -21500 10281.7998046875 10835.75
v -21469.25 10281.7998046875 10805
v -21478.255859375 10281.7998046875 10783.2568359375
v -21500 10281.7998046875 10774.25
v -21521.744140625 10281.7998046875 10783.2568359375
v -21530.75 10281.7998046875 10805
v -21521.744140625 10281.7998046875 10826.7431640625
v -21482.923828125 10232.9228515625 10505
v -21500 10225.849609375 10505
v -21517.076171875 10232.9228515625 10505
v -21524.150390625 10250 10505
v -21517.076171875 10267.0771484375 10505
v -21500 10274.150390625 10505
v -21482.923828125 10267.0771484375 10505
v -21475.849609375 10250 10505
v -21475.849609375 10250 10773.2001953125
v -21482.923828125 10267.0771484375 10773.2001953125
v -21500 10274.150390625 10773.2001953125
v -21517.076171875 10267.0771484375 10773.2001953125
v -21524.150390625 10250 10773.2001953125
v -21517.076171875 10232.9228515625 10773.2001953125
v -21500 10225.849609375 10773.2001953125
v -21482.923828125 10232.9228515625 10773.2001953125
v -21482.923828125 10281.7998046875 10822.076171875
v -21500 10281.7998046875 10829.150390625
v -21517.076171875 10281.7998046875 10822.076171875
v -21524.150390625 10281.7998046875 10805
v -21517.076171875 10281.7998046875 10787.923828125
v -21500 10281.7998046875 10780.849609375
v -21482.923828125 10281.7998046875 10787.923828125
v -21475.849609375 10281.7998046875 10805
v -21475.849609375 10550 10805
v -21482.923828125 10550 10787.923828125
v -21500 10550 10780.849609375
v -21517.076171875 10550 10787.923828125
v -21524.150390625 10550 10805
v -21517.076171875 10550 10822.076171875
v -21500 10550 10829.150390625
v -21482.923828125 10550 10822.076171875
# 128 elements written

vn -0.60025709867477417 -0.7899596095085144 0.12512071430683136
vn -0.9903709888458252 -0.13673406839370728 0.021659506484866142
vn -0.79452729225158691 0.59975826740264893 -0.094955079257488251
vn -0.13507448136806488 0.97874146699905396 -0.15433786809444427
vn 0.60026258230209351 0.79001200199127197 -0.12476357072591782
vn 0.99037182331085205 0.1367303729057312 -0.021646130830049515
vn 0.79452502727508545 -0.5997544527053833 0.094997875392436981
vn 0.13511872291564941 -0.97863161563873291 0.15499380230903625
vn 0.70831018686294556 -0.67592161893844604 0.20353551208972931
vn 1.1736462965927785e-06 -0.95105433464050293 0.30902376770973206
vn 0.99976128339767456 -0.0067518739961087704 -0.020778926089406013
vn 0.7083200216293335 0.66636478900909424 -0.2328963577747345
vn -2.9530305255320854e-05 0.95096093416213989 -0.30931097269058228
vn -0.70830720663070679 0.67598807811737061 -0.20332483947277069
vn -0.99976086616516113 0.0067522604949772358 0.020797643810510635
vn -0.70831197500228882 -0.66646218299865723 0.23264189064502716
vn 0.70830816030502319 -0.57994174957275391 0.40245130658149719
vn -1.9723652258107904e-06 -0.80900901556015015 0.58779627084732056
vn 0.99976080656051636 -0.012854766100645065 -0.017692156136035919
vn 0.70831632614135742 0.56206870079040527 -0.42704421281814575
vn -2.1307103452272713e-05 0.80883103609085083 -0.58804112672805786
vn -0.7083093523979187 0.57976007461547852 -0.40271079540252686
vn -0.99976080656051636 0.012855077162384987 0.017698049545288086
vn -0.70830744504928589 -0.56195998191833496 0.42720198631286621
vn 0.70830678939819336 -0.42719864845275879 0.56196337938308716
vn -2.1734037147780327e-07 -0.58778738975524902 0.80901545286178589
vn 0.99976122379302979 -0.017678836360573769 -0.012841951102018356
vn 0.7083207368850708 0.40213474631309509 -0.58014601469039917
vn -2.6221328880637884e-05 0.58746129274368286 -0.80925226211547852
vn -0.70831161737442017 0.42734149098396301 -0.56184881925582886
vn -0.99976116418838501 0.017678253352642059 0.012845783494412899
vn -0.70830589532852173 -0.4024493396282196 0.57994604110717773
vn 0.7083088755607605 -0.23263417184352875 0.66646826267242432
vn 3.2709838251321344e-06 -0.309019535779953 0.95105570554733276
vn 0.99976092576980591 -0.020793180912733078 -0.0067613637074828148
vn 0.70831620693206787 0.20376290380954742 -0.67584675550460815
vn -2.3381893697660416e-05 0.30872276425361633 -0.95115208625793457
vn -0.70830732583999634 0.23230597376823425 -0.66658443212509155
vn -0.99976068735122681 0.020804909989237785 0.0067561287432909012
vn -0.70831137895584106 -0.20352935791015625 0.6759222149848938
vn 0 1 0
vn 0 1 0
vn 0 1 0
vn 0 1 0
vn 0 1 0
vn 0 1 0
vn 0 1 0
vn 0 1 0
vn 0.79715925455093384 -0.60376912355422974 0
vn 0.13677015900611877 -0.99060285091400146 0
vn -0.60373461246490479 -0.79718536138534546 0
vn -0.9906005859375 -0.13678660988807678 0
vn -0.79715925455093384 0.60376912355422974 0
vn -0.13677015900611877 0.99060285091400146 0
vn 0.60373461246490479 0.79718536138534546 0
vn 0.9906005859375 0.13678660988807678 0
vn 0.9906005859375 -0.13678660988807678 0
vn 0.79715919494628906 0.60376912355422974 0
vn 0.13677015900611877 0.99060285091400146 0
vn -0.60373461246490479 0.79718536138534546 0
vn -0.9906005859375 0.13678660988807678 0
vn -0.79715919494628906 -0.60376912355422974 0
vn -0.13677015900611877 -0.99060285091400146 0
vn 0.60373461246490479 -0.79718536138534546 0
vn 0.79716318845748901 0 0.60376393795013428
vn 0.13679330050945282 0 0.99059957265853882
vn -0.60376393795013428 0 0.79716318845748901
vn -0.99059957265853882 0 0.13679330050945282
vn -0.79716318845748901 0 -0.60376393795013428
vn -0.13679330050945282 0 -0.99059957265853882
vn 0.60376393795013428 0 -0.79716318845748901
vn 0.99059957265853882 0 -0.13679330050945282
vn 0.99059957265853882 0 0.13679330050945282
vn 0.79716318845748901 0 -0.60376393795013428
vn 0.13679330050945282 0 -0.99059957265853882
vn -0.60376393795013428 0 -0.79716318845748901
vn -0.99059957265853882 0 -0.13679330050945282
vn -0.79716318845748901 0 0.60376393795013428
vn -0.13679330050945282 0 0.99059957265853882
vn 0.60376393795013428 0 0.79716318845748901
vn 0 0 -1
vn 0 0 -1
vn 0 0 -1
vn 0 0 -1
vn 0 0 -1
vn 0 0 -1
vn 0 0 -1
vn 0 0 -1
vn 0.60025697946548462 -0.12510490417480469 0.7899622917175293
vn -0.13511501252651215 -0.15499316155910492 0.97863227128982544
vn 0.99037164449691772 -0.021651694551110268 0.13673025369644165
vn 0.79452604055404663 0.094983220100402832 -0.59975552558898926
vn 0.13517570495605469 0.15582697093486786 -0.97849148511886597
vn -0.60024935007095337 0.1255260705947876 -0.7899012565612793
vn -0.99037092924118042 0.021653417497873306 -0.13673563301563263
vn -0.79452931880950928 -0.094979584217071533 0.59975159168243408
vn 0 0 -1
vn 0 0 -1
vn 0 0 -1
vn 0 0 -1
vn 0 0 -1
vn 0 0 -1
vn 0 0 -1
vn 0 0 -1
vn 0 0 1
vn 0 0 1
vn 0 0 1
vn 0 0 1
vn 0 0 1
vn 0 0 1
vn 0 0 1
vn 0 0 1
vn 0 -1 0
vn 0 -1 0
vn 0 -1 0
vn 0 -1 0
vn 0 -1 0
vn 0 -1 0
vn 0 -1 0
vn 0 -1 0
vn 0 1 0
vn 0 1 0
vn 0 1 0
vn 0 1 0
vn 0 1 0
vn 0 1 0
vn 0 1 0
vn 0 1 0
# 128 elements written
f 81//81 82//82 83//83 
f 81//81 83//83 84//84 
f 81//81 84//84 85//85 
f 81//81 85//85 86//86 
f 81//81 86//86 87//87 
f 81//81 87//87 88//88 
f 8//8 7//7 9//9 
f 8//8 9//9 10//10 
f 7//7 6//6 11//11 
f 7//7 11//11 9//9 
f 6//6 5//5 12//12 
f 6//6 12//12 11//11 
f 5//5 4//4 13//13 
f 5//5 13//13 12//12 
f 4//4 3//3 14//14 
f 4//4 14//14 13//13 
f 3//3 2//2 15//15 
f 3//3 15//15 14//14 
f 2//2 1//1 16//16 
f 2//2 16//16 15//15 
f 1//1 8//8 10//10 
f 1//1 10//10 16//16 
f 10//10 9//9 17//17 
f 10//10 17//17 18//18 
f 9//9 11//11 19//19 
f 9//9 19//19 17//17 
f 11//11 12//12 20//20 
f 11//11 20//20 19//19 
f 12//12 13//13 21//21 
f 12//12 21//21 20//20 
f 13//13 14//14 22//22 
f 13//13 22//22 21//21 
f 14//14 15//15 23//23 
f 14//14 23//23 22//22 
f 15//15 16//16 24//24 
f 15//15 24//24 23//23 
f 16//16 10//10 18//18 
f 16//16 18//18 24//24 
f 18//18 17//17 25//25 
f 18//18 25//25 26//26 
f 17//17 19//19 27//27 
f 17//17 27//27 25//25 
f 19//19 20//20 28//28 
f 19//19 28//28 27//27 
f 20//20 21//21 29//29 
f 20//20 29//29 28//28 
f 21//21 22//22 30//30 
f 21//21 30//30 29//29 
f 22//22 23//23 31//31 
f 22//22 31//31 30//30 
f 23//23 24//24 32//32 
f 23//23 32//32 31//31 
f 24//24 18//18 26//26 
f 24//24 26//26 32//32 
f 26//26 25//25 33//33 
f 26//26 33//33 34//34 
f 25//25 27//27 35//35 
f 25//25 35//35 33//33 
f 27//27 28//28 36//36 
f 27//27 36//36 35//35 
f 28//28 29//29 37//37 
f 28//28 37//37 36//36 
f 29//29 30//30 38//38 
f 29//29 38//38 37//37 
f 30//30 31//31 39//39 
f 30//30 39//39 38//38 
f 31//31 32//32 40//40 
f 31//31 40//40 39//39 
f 32//32 26//26 34//34 
f 32//32 34//34 40//40 
f 34//34 33//33 89//89 
f 34//34 89//89 90//90 
f 33//33 35//35 91//91 
f 33//33 91//91 89//89 
f 35//35 36//36 92//92 
f 35//35 92//92 91//91 
f 36//36 37//37 93//93 
f 36//36 93//93 92//92 
f 37//37 38//38 94//94 
f 37//37 94//94 93//93 
f 38//38 39//39 95//95 
f 38//38 95//95 94//94 
f 39//39 40//40 96//96 
f 39//39 96//96 95//95 
f 40//40 34//34 90//90 
f 40//40 90//90 96//96 
f 42//42 41//41 43//43 
f 42//42 43//43 44//44 
f 42//42 44//44 45//45 
f 42//42 45//45 46//46 
f 42//42 46//46 47//47 
f 42//42 47//47 48//48 
f 97//97 98//98 99//99 
f 97//97 99//99 100//100 
f 97//97 100//100 101//101 
f 97//97 101//101 102//102 
f 97//97 102//102 103//103 
f 97//97 103//103 104//104 
f 105//105 106//106 107//107 
f 105//105 107//107 108//108 
f 105//105 108//108 109//109 
f 105//105 109//109 110//110 
f 105//105 110//110 111//111 
f 105//105 111//111 112//112 
f 56//56 55//55 58//58 
f 56//56 58//58 57//57 
f 55//55 54//54 59//59 
f 55//55 59//59 58//58 
f 54//54 53//53 60//60 
f 54//54 60//60 59//59 
f 53//53 52//52 61//61 
f 53//53 61//61 60//60 
f 52//52 51//51 62//62 
f 52//52 62//62 61//61 
f 51//51 50//50 63//63 
f 51//51 63//63 62//62 
f 50//50 49//49 64//64 
f 50//50 64//64 63//63 
f 49//49 56//56 57//57 
f 49//49 57//57 64//64 
f 113//113 114//114 115//115 
f 113//113 115//115 116//116 
f 113//113 116//116 117//117 
f 113//113 117//117 118//118 
f 113//113 118//118 119//119 
f 113//113 119//119 120//120 
f 121//121 122//122 123//123 
f 121//121 123//123 124//124 
f 121//121 124//124 125//125 
f 121//121 125//125 126//126 
f 121//121 126//126 127//127 
f 121//121 127//127 128//128 
f 72//72 71//71 74//74 
f 72//72 74//74 73//73 
f 71//71 70//70 75//75 
f 71//71 75//75 74//74 
f 70//70 69//69 76//76 
f 70//70 76//76 75//75 
f 69//69 68//68 77//77 
f 69//69 77//77 76//76 
f 68//68 67//67 78//78 
f 68//68 78//78 77//77 
f 67//67 66//66 79//79 
f 67//67 79//79 78//78 
f 66//66 65//65 80//80 
f 66//66 80//80 79//79 
f 65//65 72//72 73//73 
f 65//65 73//73 80//80 
