# file written by OpenSceneGraph

mtllib g55.mtl


o _Geometry_0

v 1359.5030517578125 10401 609.50299072265625
v 1384.1500244140625 10401 550
v 1359.5030517578125 10401 490.49700927734375
v 1300 10401 465.85000610351562
v 1240.4969482421875 10401 490.49700927734375
v 1215.8499755859375 10401 550
v 1240.4969482421875 10401 609.50299072265625
v 1300 10401 634.1500244140625
v 1300 10261.2998046875 607.1500244140625
v 1259.5889892578125 10261.2998046875 590.4110107421875
v 1242.8499755859375 10261.2998046875 550
v 1259.5889892578125 10261.2998046875 509.5889892578125
v 1300 10261.2998046875 492.85000610351562
v 1340.4110107421875 10261.2998046875 509.5889892578125
v 1357.1500244140625 10261.2998046875 550
v 1340.4110107421875 10261.2998046875 590.4110107421875
v 1359.5030517578125 14942.099609375 490.49700927734375
v 1300 14942.099609375 465.85000610351562
v 1240.4969482421875 14942.099609375 490.49700927734375
v 1215.8499755859375 14942.099609375 550
v 1240.4969482421875 14942.099609375 609.50299072265625
v 1300 14942.099609375 634.1500244140625
v 1359.5030517578125 14942.099609375 609.50299072265625
v 1384.1500244140625 14942.099609375 550
v 1359.5030517578125 10401 609.50299072265625
v 1359.5030517578125 10401 609.50299072265625
v 1384.1500244140625 10401 550
v 1384.1500244140625 10401 550
v 1359.5030517578125 10401 490.49700927734375
v 1359.5030517578125 10401 490.49700927734375
v 1300 10401 465.85000610351562
v 1300 10401 465.85000610351562
v 1240.4969482421875 10401 490.49700927734375
v 1240.4969482421875 10401 490.49700927734375
v 1215.8499755859375 10401 550
v 1215.8499755859375 10401 550
v 1240.4969482421875 10401 609.50299072265625
v 1240.4969482421875 10401 609.50299072265625
v 1300 10401 634.1500244140625
v 1300 10401 634.1500244140625
v 1300 10261.2998046875 607.1500244140625
v 1259.5889892578125 10261.2998046875 590.4110107421875
v 1242.8499755859375 10261.2998046875 550
v 1259.5889892578125 10261.2998046875 509.5889892578125
v 1300 10261.2998046875 492.85000610351562
v 1340.4110107421875 10261.2998046875 509.5889892578125
v 1357.1500244140625 10261.2998046875 550
v 1340.4110107421875 10261.2998046875 590.4110107421875
v 1359.5030517578125 14942.099609375 490.49700927734375
v 1300 14942.099609375 465.85000610351562
v 1240.4969482421875 14942.099609375 490.49700927734375
v 1215.8499755859375 14942.099609375 550
v 1240.4969482421875 14942.099609375 609.50299072265625
v 1300 14942.099609375 634.1500244140625
v 1359.5030517578125 14942.099609375 609.50299072265625
v 1384.1500244140625 14942.099609375 550
# 56 elements written

vn 0.70464169979095459 -0.095440156757831573 0.70311534404754639
vn 0.99543458223342896 -0.09543994814157486 -0.001077681896276772
vn 0.70311552286148071 -0.095440171658992767 -0.70464158058166504
vn -0.0010778006399050355 -0.095439918339252472 -0.99543458223342896
vn -0.70464152097702026 -0.095440171658992767 -0.70311558246612549
vn -0.99543458223342896 -0.09543994814157486 0.0010776872513815761
vn -0.70311564207077026 -0.095440179109573364 0.70464146137237549
vn 0.0010777737479656935 -0.095439925789833069 0.99543458223342896
vn 0.13433423638343811 -0.18804037570953369 0.97293120622634888
vn -0.59297829866409302 -0.18804037570953369 0.78295433521270752
vn -0.97293120622634888 -0.18804045021533966 0.13433404266834259
vn -0.78295433521270752 -0.1880403608083725 -0.59297841787338257
vn -0.13433404266834259 -0.1880403608083725 -0.97293126583099365
vn 0.59297806024551392 -0.18804040551185608 -0.78295457363128662
vn 0.97293120622634888 -0.18804045021533966 -0.13433404266834259
vn 0.78295445442199707 -0.1880403459072113 0.59297817945480347
vn 0.79717510938644409 0 -0.6037481427192688
vn 0.13677382469177246 0 -0.99060231447219849
vn -0.60374820232391357 0 -0.79717504978179932
vn -0.99060231447219849 0 -0.13677377998828888
vn -0.79717522859573364 0 0.60374808311462402
vn -0.1367739737033844 0 0.99060231447219849
vn 0.6037483811378479 0 0.79717487096786499
vn 0.99060231447219849 0 0.13677377998828888
vn 0 1 0
vn 0 -1 0
vn 0 1 0
vn 0 -1 0
vn 0 1 0
vn 0 -1 0
vn 0 1 0
vn 0 -1 0
vn 0 1 0
vn 0 -1 0
vn 0 1 0
vn 0 -1 0
vn 0 1 0
vn 0 -1 0
vn 0 1 0
vn 0 -1 0
vn 0 -1 0
vn 0 -1 0
vn 0 -1 0
vn 0 -1 0
vn 0 -1 0
vn 0 -1 0
vn 0 -1 0
vn 0 -1 0
vn 0 1 0
vn 0 1 0
vn 0 1 0
vn 0 1 0
vn 0 1 0
vn 0 1 0
vn 0 1 0
vn 0 1 0
# 56 elements written
f 25//25 27//27 29//29 
f 25//25 29//29 31//31 
f 25//25 31//31 33//33 
f 25//25 33//33 35//35 
f 25//25 35//35 37//37 
f 25//25 37//37 39//39 
f 41//41 42//42 43//43 
f 41//41 43//43 44//44 
f 41//41 44//44 45//45 
f 41//41 45//45 46//46 
f 41//41 46//46 47//47 
f 41//41 47//47 48//48 
f 8//8 7//7 10//10 
f 8//8 10//10 9//9 
f 7//7 6//6 11//11 
f 7//7 11//11 10//10 
f 6//6 5//5 12//12 
f 6//6 12//12 11//11 
f 5//5 4//4 13//13 
f 5//5 13//13 12//12 
f 4//4 3//3 14//14 
f 4//4 14//14 13//13 
f 3//3 2//2 15//15 
f 3//3 15//15 14//14 
f 2//2 1//1 16//16 
f 2//2 16//16 15//15 
f 1//1 8//8 9//9 
f 1//1 9//9 16//16 
f 49//49 50//50 51//51 
f 49//49 51//51 52//52 
f 49//49 52//52 53//53 
f 49//49 53//53 54//54 
f 49//49 54//54 55//55 
f 49//49 55//55 56//56 
f 28//28 26//26 40//40 
f 28//28 40//40 38//38 
f 28//28 38//38 36//36 
f 28//28 36//36 34//34 
f 28//28 34//34 32//32 
f 28//28 32//32 30//30 
f 24//24 23//23 1//1 
f 24//24 1//1 2//2 
f 23//23 22//22 8//8 
f 23//23 8//8 1//1 
f 22//22 21//21 7//7 
f 22//22 7//7 8//8 
f 21//21 20//20 6//6 
f 21//21 6//6 7//7 
f 20//20 19//19 5//5 
f 20//20 5//5 6//6 
f 19//19 18//18 4//4 
f 19//19 4//4 5//5 
f 18//18 17//17 3//3 
f 18//18 3//3 4//4 
f 17//17 24//24 2//2 
f 17//17 2//2 3//3 
