# file written by OpenSceneGraph

mtllib g56.mtl


o _Geometry_0

v -6640.4970703125 10401 609.50299072265625
v -6615.85009765625 10401 550
v -6640.4970703125 10401 490.49700927734375
v -6700 10401 465.85000610351562
v -6759.5029296875 10401 490.49700927734375
v -6784.14990234375 10401 550
v -6759.5029296875 10401 609.50299072265625
v -6700 10401 634.1500244140625
v -6700 10261.2998046875 607.1500244140625
v -6740.4111328125 10261.2998046875 590.4110107421875
v -6757.14990234375 10261.2998046875 550
v -6740.4111328125 10261.2998046875 509.5889892578125
v -6700 10261.2998046875 492.85000610351562
v -6659.5888671875 10261.2998046875 509.5889892578125
v -6642.85009765625 10261.2998046875 550
v -6659.5888671875 10261.2998046875 590.4110107421875
v -6640.4970703125 14942.099609375 490.49700927734375
v -6700 14942.099609375 465.85000610351562
v -6759.5029296875 14942.099609375 490.49700927734375
v -6784.14990234375 14942.099609375 550
v -6759.5029296875 14942.099609375 609.50299072265625
v -6700 14942.099609375 634.1500244140625
v -6640.4970703125 14942.099609375 609.50299072265625
v -6615.85009765625 14942.099609375 550
v -6640.4970703125 10401 609.50299072265625
v -6640.4970703125 10401 609.50299072265625
v -6615.85009765625 10401 550
v -6615.85009765625 10401 550
v -6640.4970703125 10401 490.49700927734375
v -6640.4970703125 10401 490.49700927734375
v -6700 10401 465.85000610351562
v -6700 10401 465.85000610351562
v -6759.5029296875 10401 490.49700927734375
v -6759.5029296875 10401 490.49700927734375
v -6784.14990234375 10401 550
v -6784.14990234375 10401 550
v -6759.5029296875 10401 609.50299072265625
v -6759.5029296875 10401 609.50299072265625
v -6700 10401 634.1500244140625
v -6700 10401 634.1500244140625
v -6700 10261.2998046875 607.1500244140625
v -6740.4111328125 10261.2998046875 590.4110107421875
v -6757.14990234375 10261.2998046875 550
v -6740.4111328125 10261.2998046875 509.5889892578125
v -6700 10261.2998046875 492.85000610351562
v -6659.5888671875 10261.2998046875 509.5889892578125
v -6642.85009765625 10261.2998046875 550
v -6659.5888671875 10261.2998046875 590.4110107421875
v -6640.4970703125 14942.099609375 490.49700927734375
v -6700 14942.099609375 465.85000610351562
v -6759.5029296875 14942.099609375 490.49700927734375
v -6784.14990234375 14942.099609375 550
v -6759.5029296875 14942.099609375 609.50299072265625
v -6700 14942.099609375 634.1500244140625
v -6640.4970703125 14942.099609375 609.50299072265625
v -6615.85009765625 14942.099609375 550
# 56 elements written

vn 0.70464181900024414 -0.095439732074737549 0.70311534404754639
vn 0.99543458223342896 -0.095439702272415161 -0.0010785121703520417
vn 0.70311641693115234 -0.095439739525318146 -0.70464074611663818
vn -0.0010780920274555683 -0.095439821481704712 -0.99543464183807373
vn -0.70464164018630981 -0.095439739525318146 -0.70311552286148071
vn -0.99543458223342896 -0.095439702272415161 0.0010785121703520417
vn -0.70311653614044189 -0.095439724624156952 0.70464056730270386
vn 0.0010780813172459602 -0.095439821481704712 0.99543458223342896
vn 0.13433445990085602 -0.18804007768630981 0.97293126583099365
vn -0.59297960996627808 -0.18803967535495758 0.78295350074768066
vn -0.9729313850402832 -0.18803964555263519 0.13433390855789185
vn -0.78295528888702393 -0.18803980946540833 -0.59297728538513184
vn -0.13433423638343811 -0.18804003298282623 -0.97293126583099365
vn 0.59297937154769897 -0.18803970515727997 -0.78295373916625977
vn 0.9729313850402832 -0.18803964555263519 -0.13433390855789185
vn 0.78295540809631348 -0.18803977966308594 0.59297716617584229
vn 0.79717528820037842 0 -0.60374796390533447
vn 0.13677409291267395 0 -0.99060219526290894
vn -0.603748619556427 0 -0.79717481136322021
vn -0.99060231447219849 0 -0.13677377998828888
vn -0.79717534780502319 0 0.60374784469604492
vn -0.13677425682544708 0 0.99060219526290894
vn 0.6037488579750061 0 0.79717457294464111
vn 0.99060231447219849 0 0.13677377998828888
vn 0 1 0
vn 0 -1 0
vn 0 1 0
vn 0 -1 0
vn 0 1 0
vn 0 -1 0
vn 0 1 0
vn 0 -1 0
vn 0 1 0
vn 0 -1 0
vn 0 1 0
vn 0 -1 0
vn 0 1 0
vn 0 -1 0
vn 0 1 0
vn 0 -1 0
vn 0 -1 0
vn 0 -1 0
vn 0 -1 0
vn 0 -1 0
vn 0 -1 0
vn 0 -1 0
vn 0 -1 0
vn 0 -1 0
vn 0 1 0
vn 0 1 0
vn 0 1 0
vn 0 1 0
vn 0 1 0
vn 0 1 0
vn 0 1 0
vn 0 1 0
# 56 elements written
f 25//25 27//27 29//29 
f 25//25 29//29 31//31 
f 25//25 31//31 33//33 
f 25//25 33//33 35//35 
f 25//25 35//35 37//37 
f 25//25 37//37 39//39 
f 41//41 42//42 43//43 
f 41//41 43//43 44//44 
f 41//41 44//44 45//45 
f 41//41 45//45 46//46 
f 41//41 46//46 47//47 
f 41//41 47//47 48//48 
f 8//8 7//7 10//10 
f 8//8 10//10 9//9 
f 7//7 6//6 11//11 
f 7//7 11//11 10//10 
f 6//6 5//5 12//12 
f 6//6 12//12 11//11 
f 5//5 4//4 13//13 
f 5//5 13//13 12//12 
f 4//4 3//3 14//14 
f 4//4 14//14 13//13 
f 3//3 2//2 15//15 
f 3//3 15//15 14//14 
f 2//2 1//1 16//16 
f 2//2 16//16 15//15 
f 1//1 8//8 9//9 
f 1//1 9//9 16//16 
f 49//49 50//50 51//51 
f 49//49 51//51 52//52 
f 49//49 52//52 53//53 
f 49//49 53//53 54//54 
f 49//49 54//54 55//55 
f 49//49 55//55 56//56 
f 28//28 26//26 40//40 
f 28//28 40//40 38//38 
f 28//28 38//38 36//36 
f 28//28 36//36 34//34 
f 28//28 34//34 32//32 
f 28//28 32//32 30//30 
f 24//24 23//23 1//1 
f 24//24 1//1 2//2 
f 23//23 22//22 8//8 
f 23//23 8//8 1//1 
f 22//22 21//21 7//7 
f 22//22 7//7 8//8 
f 21//21 20//20 6//6 
f 21//21 6//6 7//7 
f 20//20 19//19 5//5 
f 20//20 5//5 6//6 
f 19//19 18//18 4//4 
f 19//19 4//4 5//5 
f 18//18 17//17 3//3 
f 18//18 3//3 4//4 
f 17//17 24//24 2//2 
f 17//17 2//2 3//3 
