# file written by OpenSceneGraph

mtllib g75.mtl


o _Geometry_0

v -6550.81005859375 26139.5 624.19097900390625
v -6525 26139.5 613.5
v -6499.18994140625 26139.5 624.19097900390625
v -6488.5 26139.5 650
v -6499.18994140625 26139.5 675.80902099609375
v -6525 26139.5 686.5
v -6550.81005859375 26139.5 675.80902099609375
v -6561.5 26139.5 650
v -6544.77392578125 26177.60546875 675.80902099609375
v -6554.94091796875 26180.908203125 650
v -6520.22802734375 26169.62890625 686.5
v -6495.68212890625 26161.654296875 675.80902099609375
v -6485.51513671875 26158.349609375 650
v -6495.68212890625 26161.654296875 624.19097900390625
v -6520.22802734375 26169.62890625 613.5
v -6544.77392578125 26177.60546875 624.19097900390625
v -6527.2587890625 26211.978515625 675.80902099609375
v -6535.908203125 26218.263671875 650
v -6506.37890625 26196.80859375 686.5
v -6485.4990234375 26181.638671875 675.80902099609375
v -6476.85009765625 26175.35546875 650
v -6485.4990234375 26181.638671875 624.19097900390625
v -6506.37890625 26196.80859375 613.5
v -6527.2587890625 26211.978515625 624.19097900390625
v -6499.97900390625 26239.259765625 675.80902099609375
v -6506.26318359375 26247.908203125 650
v -6484.80908203125 26218.37890625 686.5
v -6469.63916015625 26197.498046875 675.80902099609375
v -6463.35498046875 26188.849609375 650
v -6469.63916015625 26197.498046875 624.19097900390625
v -6484.80908203125 26218.37890625 613.5
v -6499.97900390625 26239.259765625 624.19097900390625
v -6465.60400390625 26256.7734375 675.80902099609375
v -6468.908203125 26266.94140625 650
v -6457.62890625 26232.228515625 686.5
v -6449.65380859375 26207.681640625 675.80902099609375
v -6446.35009765625 26197.513671875 650
v -6449.65380859375 26207.681640625 624.19097900390625
v -6457.62890625 26232.228515625 613.5
v -6465.60400390625 26256.7734375 624.19097900390625
v -6427.5 26262.80859375 675.80902099609375
v -6427.5 26273.5 650
v -6427.5 26237 686.5
v -6427.5 26211.19140625 675.80902099609375
v -6427.5 26200.5 650
v -6427.5 26211.19140625 624.19097900390625
v -6427.5 26237 613.5
v -6427.5 26262.80859375 624.19097900390625
v -5075 26262.80859375 675.80902099609375
v -5075 26273.5 650
v -5075 26262.80859375 624.19097900390625
v -5075 26237 613.5
v -5075 26211.19140625 624.19097900390625
v -5075 26200.5 650
v -5075 26211.19140625 675.80902099609375
v -5075 26237 686.5
v -5075 26237 666.70001220703125
v -5075 26225.19140625 661.80902099609375
v -5075 26220.30078125 650
v -5075 26225.19140625 638.19097900390625
v -5075 26237 633.29998779296875
v -5075 26248.80859375 638.19097900390625
v -5075 26253.69921875 650
v -5075 26248.80859375 661.80902099609375
v -6499.18994140625 25520 675.80902099609375
v -6525 25520 686.5
v -6550.81005859375 25520 675.80902099609375
v -6561.5 25520 650
v -6550.81005859375 25520 624.19097900390625
v -6525 25520 613.5
v -6499.18994140625 25520 624.19097900390625
v -6488.5 25520 650
v -6550.81005859375 26139.5 624.19097900390625
v -6550.81005859375 26139.5 624.19097900390625
v -6525 26139.5 613.5
v -6525 26139.5 613.5
v -6499.18994140625 26139.5 624.19097900390625
v -6499.18994140625 26139.5 624.19097900390625
v -6488.5 26139.5 650
v -6488.5 26139.5 650
v -6499.18994140625 26139.5 675.80902099609375
v -6499.18994140625 26139.5 675.80902099609375
v -6525 26139.5 686.5
v -6525 26139.5 686.5
v -6550.81005859375 26139.5 675.80902099609375
v -6550.81005859375 26139.5 675.80902099609375
v -6561.5 26139.5 650
v -6561.5 26139.5 650
v -6427.5 26262.80859375 675.80902099609375
v -6427.5 26262.80859375 675.80902099609375
v -6427.5 26273.5 650
v -6427.5 26273.5 650
v -6427.5 26237 686.5
v -6427.5 26237 686.5
v -6427.5 26211.19140625 675.80902099609375
v -6427.5 26211.19140625 675.80902099609375
v -6427.5 26200.5 650
v -6427.5 26200.5 650
v -6427.5 26211.19140625 624.19097900390625
v -6427.5 26211.19140625 624.19097900390625
v -6427.5 26237 613.5
v -6427.5 26237 613.5
v -6427.5 26262.80859375 624.19097900390625
v -6427.5 26262.80859375 624.19097900390625
v -5075 26262.80859375 675.80902099609375
v -5075 26262.80859375 675.80902099609375
v -5075 26273.5 650
v -5075 26273.5 650
v -5075 26262.80859375 624.19097900390625
v -5075 26262.80859375 624.19097900390625
v -5075 26237 613.5
v -5075 26237 613.5
v -5075 26211.19140625 624.19097900390625
v -5075 26211.19140625 624.19097900390625
v -5075 26200.5 650
v -5075 26200.5 650
v -5075 26211.19140625 675.80902099609375
v -5075 26211.19140625 675.80902099609375
v -5075 26237 686.5
v -5075 26237 686.5
v -6499.18994140625 25520 675.80902099609375
v -6525 25520 686.5
v -6550.81005859375 25520 675.80902099609375
v -6561.5 25520 650
v -6550.81005859375 25520 624.19097900390625
v -6525 25520 613.5
v -6499.18994140625 25520 624.19097900390625
v -6488.5 25520 650
# 128 elements written

vn -0.70475411415100098 0.063275702297687531 -0.70662426948547363
vn 0.00012481043813750148 0.010925367474555969 -0.99994033575057983
vn 0.70596557855606079 -0.047995567321777344 -0.70661795139312744
vn 0.99691301584243774 -0.078510768711566925 0.00072661013109609485
vn 0.70475560426712036 -0.063251405954360962 0.70662492513656616
vn -0.00012399791739881039 -0.010920638218522072 0.99994033575057983
vn -0.70596331357955933 0.048011563718318939 0.70661920309066772
vn -0.99691087007522583 0.078538186848163605 -0.00072806584648787975
vn -0.67593187093734741 0.20355427265167236 0.70829498767852783
vn -0.95105439424514771 0.30902355909347534 9.323940503236372e-06
vn -0.0067514521069824696 -0.020795604214072227 0.99976098537445068
vn 0.66647607088088989 -0.23263105750083923 0.70830255746841431
vn 0.9510607123374939 -0.30900415778160095 -2.1571286197286099e-06
vn 0.67593544721603394 -0.20352870225906372 -0.70829892158508301
vn 0.0067580617032945156 0.020798515528440475 -0.99976086616516113
vn -0.66647082567214966 0.23264296352863312 -0.70830351114273071
vn -0.57994836568832397 0.40244370698928833 0.70830708742141724
vn -0.80901908874511719 0.58778238296508789 3.6513906707114074e-06
vn -0.01285063661634922 -0.017687628045678139 0.99976098537445068
vn 0.56196141242980957 -0.42721670866012573 0.70829743146896362
vn 0.80900496244430542 -0.58780169486999512 6.84628560065903e-07
vn 0.57994717359542847 -0.4024587869644165 -0.70829957723617554
vn 0.012850894592702389 0.017684653401374817 -0.99976104497909546
vn -0.56195938587188721 0.42719882726669312 -0.70830988883972168
vn -0.42719760537147522 0.56196415424346924 0.70830678939819336
vn -0.58778184652328491 0.80901950597763062 -2.8200338419992477e-06
vn -0.017689546570181847 -0.012850179336965084 0.99976092576980591
vn 0.40244904160499573 -0.57994908094406128 0.70830351114273071
vn 0.58777201175689697 -0.80902665853500366 -6.4876612668740563e-06
vn 0.42719990015029907 -0.56196963787078857 -0.70830094814300537
vn 0.017688320949673653 0.012854051776230335 -0.99976092576980591
vn -0.40244778990745544 0.57994693517684937 -0.7083059549331665
vn -0.23262788355350494 0.66647803783416748 0.70830178260803223
vn -0.3090134859085083 0.95105767250061035 5.3520998335443437e-06
vn -0.020790843293070793 -0.0067492946982383728 0.99976110458374023
vn 0.20355692505836487 -0.67591267824172974 0.70831257104873657
vn 0.30903473496437073 -0.95105075836181641 -5.8085011005459819e-06
vn 0.2326444685459137 -0.66646713018417358 -0.70830655097961426
vn 0.020791832357645035 0.0067673944868147373 -0.99976092576980591
vn -0.20353236794471741 0.67592549324035645 -0.70830732583999634
vn -0.063268020749092102 0.70474600791931152 0.70663297176361084
vn -0.078531242907047272 0.99691134691238403 0.00072958820965141058
vn -0.010924592614173889 -0.00012507512292359024 0.99994033575057983
vn 0.048014473170042038 -0.70594918727874756 0.70663315057754517
vn 0.078549675643444061 -0.99690991640090942 -0.00072971836198121309
vn 0.063283331692218781 -0.70474463701248169 -0.70663303136825562
vn 0.010926675051450729 0.00012956799764651805 -0.99994033575057983
vn -0.048005759716033936 0.70595347881317139 -0.70662945508956909
vn 1 0 0
vn 1 0 0
vn 1 0 0
vn 1 0 0
vn 1 0 0
vn 1 0 0
vn 1 0 0
vn 1 0 0
vn 1 0 0
vn 1 0 0
vn 1 0 0
vn 1 0 0
vn 1 0 0
vn 1 0 0
vn 1 0 0
vn 1 0 0
vn 0.79718273878097534 0 0.60373800992965698
vn 0.13677492737770081 0 0.99060213565826416
vn -0.60375404357910156 0 0.79717063903808594
vn -0.99060320854187012 0 0.13676729798316956
vn -0.79718273878097534 0 -0.60373800992965698
vn -0.13677492737770081 0 -0.99060213565826416
vn 0.60375404357910156 0 -0.79717063903808594
vn 0.99060320854187012 0 -0.13676729798316956
vn 0 -1 0
vn 0 1 0
vn 0 -1 0
vn 0 1 0
vn 0 -1 0
vn 0 1 0
vn 0 -1 0
vn 0 1 0
vn 0 -1 0
vn 0 1 0
vn 0 -1 0
vn 0 1 0
vn 0 -1 0
vn 0 1 0
vn 0 -1 0
vn 0 1 0
vn 1 0 0
vn -1 0 0
vn 1 0 0
vn -1 0 0
vn 1 0 0
vn -1 0 0
vn 1 0 0
vn -1 0 0
vn 1 0 0
vn -1 0 0
vn 1 0 0
vn -1 0 0
vn 1 0 0
vn -1 0 0
vn 1 0 0
vn -1 0 0
vn -1 0 0
vn 0 0.79716628789901733 0.60375982522964478
vn -1 0 0
vn 0 0.99060070514678955 -0.13678568601608276
vn -1 0 0
vn 0 0.60375314950942993 -0.79717129468917847
vn -1 0 0
vn 0 -0.13678254187107086 -0.99060112237930298
vn -1 0 0
vn 0 -0.79716628789901733 -0.60375982522964478
vn -1 0 0
vn 0 -0.99060070514678955 0.13678568601608276
vn -1 0 0
vn 0 -0.60375314950942993 0.79717129468917847
vn -1 0 0
vn 0 0.13678254187107086 0.99060112237930298
vn 0 -1 0
vn 0 -1 0
vn 0 -1 0
vn 0 -1 0
vn 0 -1 0
vn 0 -1 0
vn 0 -1 0
vn 0 -1 0
# 128 elements written
f 73//73 75//75 77//77 
f 73//73 77//77 79//79 
f 73//73 79//79 81//81 
f 73//73 81//81 83//83 
f 73//73 83//83 85//85 
f 73//73 85//85 87//87 
f 8//8 7//7 9//9 
f 8//8 9//9 10//10 
f 7//7 6//6 11//11 
f 7//7 11//11 9//9 
f 6//6 5//5 12//12 
f 6//6 12//12 11//11 
f 5//5 4//4 13//13 
f 5//5 13//13 12//12 
f 4//4 3//3 14//14 
f 4//4 14//14 13//13 
f 3//3 2//2 15//15 
f 3//3 15//15 14//14 
f 2//2 1//1 16//16 
f 2//2 16//16 15//15 
f 1//1 8//8 10//10 
f 1//1 10//10 16//16 
f 10//10 9//9 17//17 
f 10//10 17//17 18//18 
f 9//9 11//11 19//19 
f 9//9 19//19 17//17 
f 11//11 12//12 20//20 
f 11//11 20//20 19//19 
f 12//12 13//13 21//21 
f 12//12 21//21 20//20 
f 13//13 14//14 22//22 
f 13//13 22//22 21//21 
f 14//14 15//15 23//23 
f 14//14 23//23 22//22 
f 15//15 16//16 24//24 
f 15//15 24//24 23//23 
f 16//16 10//10 18//18 
f 16//16 18//18 24//24 
f 18//18 17//17 25//25 
f 18//18 25//25 26//26 
f 17//17 19//19 27//27 
f 17//17 27//27 25//25 
f 19//19 20//20 28//28 
f 19//19 28//28 27//27 
f 20//20 21//21 29//29 
f 20//20 29//29 28//28 
f 21//21 22//22 30//30 
f 21//21 30//30 29//29 
f 22//22 23//23 31//31 
f 22//22 31//31 30//30 
f 23//23 24//24 32//32 
f 23//23 32//32 31//31 
f 24//24 18//18 26//26 
f 24//24 26//26 32//32 
f 26//26 25//25 33//33 
f 26//26 33//33 34//34 
f 25//25 27//27 35//35 
f 25//25 35//35 33//33 
f 27//27 28//28 36//36 
f 27//27 36//36 35//35 
f 28//28 29//29 37//37 
f 28//28 37//37 36//36 
f 29//29 30//30 38//38 
f 29//29 38//38 37//37 
f 30//30 31//31 39//39 
f 30//30 39//39 38//38 
f 31//31 32//32 40//40 
f 31//31 40//40 39//39 
f 32//32 26//26 34//34 
f 32//32 34//34 40//40 
f 34//34 33//33 41//41 
f 34//34 41//41 42//42 
f 33//33 35//35 43//43 
f 33//33 43//43 41//41 
f 35//35 36//36 44//44 
f 35//35 44//44 43//43 
f 36//36 37//37 45//45 
f 36//36 45//45 44//44 
f 37//37 38//38 46//46 
f 37//37 46//46 45//45 
f 38//38 39//39 47//47 
f 38//38 47//47 46//46 
f 39//39 40//40 48//48 
f 39//39 48//48 47//47 
f 40//40 34//34 42//42 
f 40//40 42//42 48//48 
f 91//91 89//89 93//93 
f 91//91 93//93 95//95 
f 91//91 95//95 97//97 
f 91//91 97//97 99//99 
f 91//91 99//99 101//101 
f 91//91 101//101 103//103 
f 105//105 107//107 109//109 
f 105//105 109//109 111//111 
f 105//105 111//111 113//113 
f 105//105 113//113 115//115 
f 105//105 115//115 117//117 
f 105//105 117//117 119//119 
f 57//57 58//58 59//59 
f 57//57 59//59 60//60 
f 57//57 60//60 61//61 
f 57//57 61//61 62//62 
f 57//57 62//62 63//63 
f 57//57 63//63 64//64 
f 56//56 55//55 58//58 
f 56//56 58//58 57//57 
f 55//55 54//54 59//59 
f 55//55 59//59 58//58 
f 54//54 53//53 60//60 
f 54//54 60//60 59//59 
f 53//53 52//52 61//61 
f 53//53 61//61 60//60 
f 52//52 51//51 62//62 
f 52//52 62//62 61//61 
f 51//51 50//50 63//63 
f 51//51 63//63 62//62 
f 50//50 49//49 64//64 
f 50//50 64//64 63//63 
f 49//49 56//56 57//57 
f 49//49 57//57 64//64 
f 121//121 122//122 123//123 
f 121//121 123//123 124//124 
f 121//121 124//124 125//125 
f 121//121 125//125 126//126 
f 121//121 126//126 127//127 
f 121//121 127//127 128//128 
f 80//80 78//78 76//76 
f 80//80 76//76 74//74 
f 80//80 74//74 88//88 
f 80//80 88//88 86//86 
f 80//80 86//86 84//84 
f 80//80 84//84 82//82 
f 72//72 71//71 3//3 
f 72//72 3//3 4//4 
f 71//71 70//70 2//2 
f 71//71 2//2 3//3 
f 70//70 69//69 1//1 
f 70//70 1//1 2//2 
f 69//69 68//68 8//8 
f 69//69 8//8 1//1 
f 68//68 67//67 7//7 
f 68//68 7//7 8//8 
f 67//67 66//66 6//6 
f 67//67 6//6 7//7 
f 66//66 65//65 5//5 
f 66//66 5//5 6//6 
f 65//65 72//72 4//4 
f 65//65 4//4 5//5 
f 100//100 98//98 96//96 
f 100//100 96//96 94//94 
f 100//100 94//94 90//90 
f 100//100 90//90 92//92 
f 100//100 92//92 104//104 
f 100//100 104//104 102//102 
f 52//52 51//51 50//50 
f 52//52 50//50 49//49 
f 52//52 49//49 56//56 
f 52//52 56//56 55//55 
f 52//52 55//55 54//54 
f 52//52 54//54 53//53 
f 47//47 48//48 110//110 
f 47//47 110//110 112//112 
f 48//48 42//42 108//108 
f 48//48 108//108 110//110 
f 42//42 41//41 106//106 
f 42//42 106//106 108//108 
f 41//41 43//43 120//120 
f 41//41 120//120 106//106 
f 43//43 44//44 118//118 
f 43//43 118//118 120//120 
f 44//44 45//45 116//116 
f 44//44 116//116 118//118 
f 45//45 46//46 114//114 
f 45//45 114//114 116//116 
f 46//46 47//47 112//112 
f 46//46 112//112 114//114 
