# file written by OpenSceneGraph

mtllib g79.mtl


o _Geometry_0

v 13175.8095703125 26139.5 26509.19140625
v 13186.5 26139.5 26535
v 13175.8095703125 26139.5 26560.80859375
v 13150 26139.5 26571.5
v 13124.1904296875 26139.5 26560.80859375
v 13113.5 26139.5 26535
v 13124.1904296875 26139.5 26509.19140625
v 13150 26139.5 26498.5
v 13124.1904296875 26177.60546875 26515.2265625
v 13150 26180.908203125 26505.05859375
v 13113.5 26169.62890625 26539.771484375
v 13124.1904296875 26161.654296875 26564.318359375
v 13150 26158.349609375 26574.486328125
v 13175.8095703125 26161.654296875 26564.318359375
v 13186.5 26169.62890625 26539.771484375
v 13175.8095703125 26177.60546875 26515.2265625
v 13124.1904296875 26211.978515625 26532.740234375
v 13150 26218.263671875 26524.091796875
v 13113.5 26196.80859375 26553.62109375
v 13124.1904296875 26181.638671875 26574.501953125
v 13150 26175.35546875 26583.150390625
v 13175.8095703125 26181.638671875 26574.501953125
v 13186.5 26196.80859375 26553.62109375
v 13175.8095703125 26211.978515625 26532.740234375
v 13124.1904296875 26239.259765625 26560.021484375
v 13150 26247.908203125 26553.736328125
v 13113.5 26218.37890625 26575.19140625
v 13124.1904296875 26197.498046875 26590.361328125
v 13150 26188.849609375 26596.64453125
v 13175.8095703125 26197.498046875 26590.361328125
v 13186.5 26218.37890625 26575.19140625
v 13175.8095703125 26239.259765625 26560.021484375
v 13124.1904296875 26256.7734375 26594.39453125
v 13150 26266.94140625 26591.091796875
v 13113.5 26232.228515625 26602.37109375
v 13124.1904296875 26207.681640625 26610.345703125
v 13150 26197.513671875 26613.650390625
v 13175.8095703125 26207.681640625 26610.345703125
v 13186.5 26232.228515625 26602.37109375
v 13175.8095703125 26256.7734375 26594.39453125
v 13124.1904296875 26262.80859375 26632.5
v 13150 26273.5 26632.5
v 13113.5 26237 26632.5
v 13124.1904296875 26211.19140625 26632.5
v 13150 26200.5 26632.5
v 13175.8095703125 26211.19140625 26632.5
v 13186.5 26237 26632.5
v 13175.8095703125 26262.80859375 26632.5
v 13124.1904296875 26262.80859375 26837.5
v 13150 26273.5 26837.5
v 13175.8095703125 26262.80859375 26837.5
v 13186.5 26237 26837.5
v 13175.8095703125 26211.19140625 26837.5
v 13150 26200.5 26837.5
v 13124.1904296875 26211.19140625 26837.5
v 13113.5 26237 26837.5
v 13130.2255859375 26211.19140625 26875.60546875
v 13120.05859375 26237 26878.908203125
v 13154.7724609375 26200.5 26867.62890625
v 13179.318359375 26211.19140625 26859.654296875
v 13189.4853515625 26237 26856.349609375
v 13179.318359375 26262.80859375 26859.654296875
v 13154.7724609375 26273.5 26867.62890625
v 13130.2255859375 26262.80859375 26875.60546875
v 13147.740234375 26211.19140625 26909.978515625
v 13139.091796875 26237 26916.263671875
v 13168.62109375 26200.5 26894.80859375
v 13189.5009765625 26211.19140625 26879.638671875
v 13198.150390625 26237 26873.35546875
v 13189.5009765625 26262.80859375 26879.638671875
v 13168.62109375 26273.5 26894.80859375
v 13147.740234375 26262.80859375 26909.978515625
v 13175.021484375 26211.19140625 26937.259765625
v 13168.736328125 26237 26945.908203125
v 13190.19140625 26200.5 26916.37890625
v 13205.361328125 26211.19140625 26895.498046875
v 13211.646484375 26237 26886.849609375
v 13205.361328125 26262.80859375 26895.498046875
v 13190.19140625 26273.5 26916.37890625
v 13175.021484375 26262.80859375 26937.259765625
v 13209.396484375 26211.19140625 26954.7734375
v 13206.091796875 26237 26964.94140625
v 13217.37109375 26200.5 26930.228515625
v 13225.3466796875 26211.19140625 26905.681640625
v 13228.650390625 26237 26895.513671875
v 13225.3466796875 26262.80859375 26905.681640625
v 13217.37109375 26273.5 26930.228515625
v 13209.396484375 26262.80859375 26954.7734375
v 13247.5 26211.19140625 26960.80859375
v 13247.5 26237 26971.5
v 13247.5 26200.5 26935
v 13247.5 26211.19140625 26909.19140625
v 13247.5 26237 26898.5
v 13247.5 26262.80859375 26909.19140625
v 13247.5 26273.5 26935
v 13247.5 26262.80859375 26960.80859375
v 16090 26262.80859375 26960.80859375
v 16090 26273.5 26935
v 16090 26262.80859375 26909.19140625
v 16090 26237 26898.5
v 16090 26211.19140625 26909.19140625
v 16090 26200.5 26935
v 16090 26211.19140625 26960.80859375
v 16090 26237 26971.5
v 16140 26237 26951.69921875
v 16140 26225.19140625 26946.80859375
v 16140 26220.30078125 26935
v 16140 26225.19140625 26923.19140625
v 16140 26237 26918.30078125
v 16140 26248.80859375 26923.19140625
v 16140 26253.69921875 26935
v 16140 26248.80859375 26946.80859375
v 13175.8095703125 25520 26560.80859375
v 13150 25520 26571.5
v 13124.1904296875 25520 26560.80859375
v 13113.5 25520 26535
v 13124.1904296875 25520 26509.19140625
v 13150 25520 26498.5
v 13175.8095703125 25520 26509.19140625
v 13186.5 25520 26535
v 13175.8095703125 26139.5 26509.19140625
v 13175.8095703125 26139.5 26509.19140625
v 13186.5 26139.5 26535
v 13186.5 26139.5 26535
v 13175.8095703125 26139.5 26560.80859375
v 13175.8095703125 26139.5 26560.80859375
v 13150 26139.5 26571.5
v 13150 26139.5 26571.5
v 13124.1904296875 26139.5 26560.80859375
v 13124.1904296875 26139.5 26560.80859375
v 13113.5 26139.5 26535
v 13113.5 26139.5 26535
v 13124.1904296875 26139.5 26509.19140625
v 13124.1904296875 26139.5 26509.19140625
v 13150 26139.5 26498.5
v 13150 26139.5 26498.5
v 13124.1904296875 26262.80859375 26632.5
v 13124.1904296875 26262.80859375 26632.5
v 13150 26273.5 26632.5
v 13150 26273.5 26632.5
v 13113.5 26237 26632.5
v 13113.5 26237 26632.5
v 13124.1904296875 26211.19140625 26632.5
v 13124.1904296875 26211.19140625 26632.5
v 13150 26200.5 26632.5
v 13150 26200.5 26632.5
v 13175.8095703125 26211.19140625 26632.5
v 13175.8095703125 26211.19140625 26632.5
v 13186.5 26237 26632.5
v 13186.5 26237 26632.5
v 13175.8095703125 26262.80859375 26632.5
v 13175.8095703125 26262.80859375 26632.5
v 13124.1904296875 26262.80859375 26837.5
v 13124.1904296875 26262.80859375 26837.5
v 13150 26273.5 26837.5
v 13150 26273.5 26837.5
v 13175.8095703125 26262.80859375 26837.5
v 13175.8095703125 26262.80859375 26837.5
v 13186.5 26237 26837.5
v 13186.5 26237 26837.5
v 13175.8095703125 26211.19140625 26837.5
v 13175.8095703125 26211.19140625 26837.5
v 13150 26200.5 26837.5
v 13150 26200.5 26837.5
v 13124.1904296875 26211.19140625 26837.5
v 13124.1904296875 26211.19140625 26837.5
v 13113.5 26237 26837.5
v 13113.5 26237 26837.5
v 13247.5 26211.19140625 26960.80859375
v 13247.5 26211.19140625 26960.80859375
v 13247.5 26237 26971.5
v 13247.5 26237 26971.5
v 13247.5 26200.5 26935
v 13247.5 26200.5 26935
v 13247.5 26211.19140625 26909.19140625
v 13247.5 26211.19140625 26909.19140625
v 13247.5 26237 26898.5
v 13247.5 26237 26898.5
v 13247.5 26262.80859375 26909.19140625
v 13247.5 26262.80859375 26909.19140625
v 13247.5 26273.5 26935
v 13247.5 26273.5 26935
v 13247.5 26262.80859375 26960.80859375
v 13247.5 26262.80859375 26960.80859375
v 16090 26262.80859375 26960.80859375
v 16090 26262.80859375 26960.80859375
v 16090 26273.5 26935
v 16090 26273.5 26935
v 16090 26262.80859375 26909.19140625
v 16090 26262.80859375 26909.19140625
v 16090 26237 26898.5
v 16090 26237 26898.5
v 16090 26211.19140625 26909.19140625
v 16090 26211.19140625 26909.19140625
v 16090 26200.5 26935
v 16090 26200.5 26935
v 16090 26211.19140625 26960.80859375
v 16090 26211.19140625 26960.80859375
v 16090 26237 26971.5
v 16090 26237 26971.5
v 13175.8095703125 25520 26560.80859375
v 13150 25520 26571.5
v 13124.1904296875 25520 26560.80859375
v 13113.5 25520 26535
v 13124.1904296875 25520 26509.19140625
v 13150 25520 26498.5
v 13175.8095703125 25520 26509.19140625
v 13186.5 25520 26535
# 208 elements written

vn 0.70663583278656006 0.063266769051551819 -0.70474326610565186
vn 0.99994033575057983 0.010923527181148529 0.00012557994341477752
vn 0.70663666725158691 -0.048013079911470413 0.70594573020935059
vn -0.00072875729529187083 -0.07855040580034256 0.99690985679626465
vn -0.70663738250732422 -0.06328313797712326 0.70474028587341309
vn -0.99994033575057983 -0.010925900191068649 -0.00012938406143803149
vn -0.70663350820541382 0.048003673553466797 -0.70594948530197144
vn 0.0007307816413231194 0.078530296683311462 -0.99691140651702881
vn -0.70830971002578735 0.20353525876998901 -0.67592209577560425
vn 3.1188708362606121e-06 0.30901467800140381 -0.95105725526809692
vn -0.99976092576980591 -0.020793458446860313 -0.0067652235738933086
vn -0.70831066370010376 -0.23264384269714355 0.66646289825439453
vn -8.7860844359965995e-06 -0.30903112888336182 0.95105189085006714
vn 0.70831859111785889 -0.20355917513370514 0.67590552568435669
vn 0.99976104497909546 0.020790401846170425 0.0067522162571549416
vn 0.7083057165145874 0.23263008892536163 -0.66647297143936157
vn -0.70831185579299927 0.40244123339653015 -0.57994425296783447
vn -2.7656940346787451e-06 0.58778190612792969 -0.80901932716369629
vn -0.99976092576980591 -0.017686575651168823 -0.012852862477302551
vn -0.70829868316650391 -0.42721372842788696 0.5619620680809021
vn -1.0986587767547462e-05 -0.5877806544303894 0.80902034044265747
vn 0.70830583572387695 -0.40244996547698975 0.57994550466537476
vn 0.99976104497909546 0.017684696242213249 0.012849162332713604
vn 0.70831263065338135 0.42719575762748718 -0.56195831298828125
vn -0.70831257104873657 0.56195831298828125 -0.42719575762748718
vn 2.7656940346787451e-06 0.80901932716369629 -0.58778190612792969
vn -0.99976104497909546 -0.012849141843616962 -0.017684699967503548
vn -0.70830583572387695 -0.57994550466537476 0.40244996547698975
vn 1.0986587767547462e-05 -0.80902034044265747 0.5877806544303894
vn 0.70829868316650391 -0.5619620680809021 0.42721372842788696
vn 0.99976092576980591 0.012852846644818783 0.017686586827039719
vn 0.70831191539764404 0.57994425296783447 -0.40244126319885254
vn -0.7083057165145874 0.66647297143936157 -0.23263010382652283
vn -3.1297381610784214e-06 0.95105725526809692 -0.3090147078037262
vn -0.99976110458374023 -0.0067522116005420685 -0.020790413022041321
vn -0.70831865072250366 -0.67590552568435669 0.20355917513370514
vn 8.791517757344991e-06 -0.95105189085006714 0.3090311586856842
vn 0.70831072330474854 -0.66646283864974976 0.23264384269714355
vn 0.99976092576980591 0.0067652175202965736 0.020793456584215164
vn 0.70830971002578735 0.67592209577560425 -0.20353527367115021
vn -0.70663589239120483 0.70474326610565186 -0.063266769051551819
vn -0.0007307816413231194 0.99691140651702881 -0.078530289232730865
vn -0.99994033575057983 -0.00012557994341477752 -0.010923528112471104
vn -0.70663666725158691 -0.70594573020935059 0.048013072460889816
vn 0.00072875729529187083 -0.99690985679626465 0.07855040580034256
vn 0.70663738250732422 -0.70474028587341309 0.06328313797712326
vn 0.99994033575057983 0.000129378677229397 0.010925906710326672
vn 0.70663350820541382 0.70594954490661621 -0.048003681004047394
vn -0.70475655794143677 0.70662254095077515 0.063267670571804047
vn 0.00012840582348871976 0.99994027614593506 0.010923656634986401
vn 0.70596331357955933 0.70661956071853638 -0.048007044941186905
vn 0.99691170454025269 -0.00072925683343783021 -0.078526429831981659
vn 0.70475554466247559 -0.70662373304367065 -0.063265502452850342
vn -0.00012547873484436423 -0.99994033575057983 -0.010924088768661022
vn -0.70596116781234741 -0.70662158727645874 0.048006787896156311
vn -0.99691146612167358 0.00073075981345027685 0.078530289232730865
vn -0.67593163251876831 -0.70829856395721436 0.20354253053665161
vn -0.95105624198913574 -2.0864822545263451e-06 0.30901786684989929
vn -0.0067489044740796089 -0.99976092576980591 -0.020797979086637497
vn 0.6664772629737854 -0.70829927921295166 -0.23263747990131378
vn 0.95105689764022827 2.1462651602632832e-06 -0.30901595950126648
vn 0.67593491077423096 0.70829659700393677 -0.20353856682777405
vn 0.0067641865462064743 0.99976086616516113 0.020793339237570763
vn -0.66647636890411377 0.70829975605010986 0.23263849318027496
vn -0.57994937896728516 -0.7083013653755188 0.4024524986743927
vn -0.8090173602104187 -7.4222971306880936e-06 0.58778476715087891
vn -0.012847399339079857 -0.99976092576980591 -0.017692761495709419
vn 0.56195640563964844 -0.70830100774765015 -0.42721724510192871
vn 0.80899840593338013 3.9230703805515077e-06 -0.58781081438064575
vn 0.57994639873504639 0.70830023288726807 -0.40245863795280457
vn 0.012856180779635906 0.99976092576980591 0.017685858532786369
vn -0.56196016073226929 0.70830810070037842 0.42720058560371399
vn -0.42719492316246033 -0.70830482244491577 0.56196868419647217
vn -0.58777910470962524 -1.9724066078197211e-06 0.8090214729309082
vn -0.017687918618321419 -0.99976098537445068 -0.012850177474319935
vn 0.40244829654693604 -0.70830446481704712 -0.57994836568832397
vn 0.58776623010635376 4.6565769480366725e-06 -0.80903089046478271
vn 0.42719048261642456 0.70830380916595459 -0.56197339296340942
vn 0.017688041552901268 0.99976092576980591 0.012854339554905891
vn -0.40243977308273315 0.7083088755607605 0.5799490213394165
vn -0.2326270192861557 -0.70830106735229492 0.66647893190383911
vn -0.30901187658309937 -2.9721941245952621e-06 0.95105814933776855
vn -0.020791901275515556 -0.99976110458374023 -0.0067483377642929554
vn 0.20356003940105438 -0.70830994844436646 -0.67591434717178345
vn 0.30904373526573181 2.8309093522693729e-06 -0.95104783773422241
vn 0.23264841735363007 0.70830577611923218 -0.66646647453308105
vn 0.020791955292224884 0.99976092576980591 0.0067690289579331875
vn -0.20353451371192932 0.7083050012588501 0.67592722177505493
vn -0.063268445432186127 -0.7066304087638855 0.70474863052368164
vn -0.078531563282012939 -0.00072916975477710366 0.99691140651702881
vn -0.01092519611120224 -0.99994027614593506 -0.00012492517998907715
vn 0.04801572859287262 -0.70663022994995117 -0.705951988697052
vn 0.07855156809091568 0.00072967167943716049 -0.99690979719161987
vn 0.063284784555435181 0.70663005113601685 -0.70474743843078613
vn 0.010927320457994938 0.99994033575057983 0.0001297893759328872
vn -0.048006732016801834 0.70662635564804077 0.70595645904541016
vn 0.1883431077003479 0.69744575023651123 0.69144511222839355
vn 0.18835406005382538 0.98209196329116821 -0.0042709470726549625
vn 0.18834309279918671 0.69144505262374878 -0.69744575023651123
vn 0.18835403025150299 -0.0042709461413323879 -0.98209190368652344
vn 0.1883431077003479 -0.69744575023651123 -0.69144511222839355
vn 0.18835406005382538 -0.98209196329116821 0.0042709470726549625
vn 0.18834309279918671 -0.69144505262374878 0.69744575023651123
vn 0.18835403025150299 0.0042709517292678356 0.98209190368652344
vn 0.93671882152557373 0.047886576503515244 0.34679204225540161
vn 0.6115105152130127 -0.47771555185317993 0.63074767589569092
vn 0.75556939840316772 -0.64891135692596436 0.08960454910993576
vn 0.75557297468185425 -0.52219599485397339 -0.39550068974494934
vn 0.75556933879852295 -0.089604541659355164 -0.64891135692596436
vn 0.75557297468185425 0.39550068974494934 -0.52219599485397339
vn 0.75556939840316772 0.64891135692596436 -0.08960454910993576
vn 0.6115105152130127 0.63074773550033569 0.47771561145782471
vn 0.79717749357223511 0 0.60374504327774048
vn 0.13678282499313354 0 0.99060100317001343
vn -0.60376006364822388 0 0.79716604948043823
vn -0.99060207605361938 0 0.1367756575345993
vn -0.79717749357223511 0 -0.60374504327774048
vn -0.13678282499313354 0 -0.99060100317001343
vn 0.60376006364822388 0 -0.79716604948043823
vn 0.99060207605361938 0 -0.1367756575345993
vn 0 -1 0
vn 0 1 0
vn 0 -1 0
vn 0 1 0
vn 0 -1 0
vn 0 1 0
vn 0 -1 0
vn 0 1 0
vn 0 -1 0
vn 0 1 0
vn 0 -1 0
vn 0 1 0
vn 0 -1 0
vn 0 1 0
vn 0 -1 0
vn 0 1 0
vn 0 0 1
vn 0 0 -1
vn 0 0 1
vn 0 0 -1
vn 0 0 1
vn 0 0 -1
vn 0 0 1
vn 0 0 -1
vn 0 0 1
vn 0 0 -1
vn 0 0 1
vn 0 0 -1
vn 0 0 1
vn 0 0 -1
vn 0 0 1
vn 0 0 -1
vn 0 0 -1
vn 0 0 1
vn 0 0 -1
vn 0 0 1
vn 0 0 -1
vn 0 0 1
vn 0 0 -1
vn 0 0 1
vn 0 0 -1
vn 0 0 1
vn 0 0 -1
vn 0 0 1
vn 0 0 -1
vn 0 0 1
vn 0 0 -1
vn 0 0 1
vn 1 0 0
vn -1 0 0
vn 1 0 0
vn -1 0 0
vn 1 0 0
vn -1 0 0
vn 1 0 0
vn -1 0 0
vn 1 0 0
vn -1 0 0
vn 1 0 0
vn -1 0 0
vn 1 0 0
vn -1 0 0
vn 1 0 0
vn -1 0 0
vn -1 0 0
vn 1 0 0
vn -1 0 0
vn 1 0 0
vn -1 0 0
vn 1 0 0
vn -1 0 0
vn 1 0 0
vn -1 0 0
vn 1 0 0
vn -1 0 0
vn 1 0 0
vn -1 0 0
vn 1 0 0
vn -1 0 0
vn 1 0 0
vn 0 -1 0
vn 0 -1 0
vn 0 -1 0
vn 0 -1 0
vn 0 -1 0
vn 0 -1 0
vn 0 -1 0
vn 0 -1 0
# 208 elements written
f 121//121 123//123 125//125 
f 121//121 125//125 127//127 
f 121//121 127//127 129//129 
f 121//121 129//129 131//131 
f 121//121 131//131 133//133 
f 121//121 133//133 135//135 
f 8//8 7//7 9//9 
f 8//8 9//9 10//10 
f 7//7 6//6 11//11 
f 7//7 11//11 9//9 
f 6//6 5//5 12//12 
f 6//6 12//12 11//11 
f 5//5 4//4 13//13 
f 5//5 13//13 12//12 
f 4//4 3//3 14//14 
f 4//4 14//14 13//13 
f 3//3 2//2 15//15 
f 3//3 15//15 14//14 
f 2//2 1//1 16//16 
f 2//2 16//16 15//15 
f 1//1 8//8 10//10 
f 1//1 10//10 16//16 
f 10//10 9//9 17//17 
f 10//10 17//17 18//18 
f 9//9 11//11 19//19 
f 9//9 19//19 17//17 
f 11//11 12//12 20//20 
f 11//11 20//20 19//19 
f 12//12 13//13 21//21 
f 12//12 21//21 20//20 
f 13//13 14//14 22//22 
f 13//13 22//22 21//21 
f 14//14 15//15 23//23 
f 14//14 23//23 22//22 
f 15//15 16//16 24//24 
f 15//15 24//24 23//23 
f 16//16 10//10 18//18 
f 16//16 18//18 24//24 
f 18//18 17//17 25//25 
f 18//18 25//25 26//26 
f 17//17 19//19 27//27 
f 17//17 27//27 25//25 
f 19//19 20//20 28//28 
f 19//19 28//28 27//27 
f 20//20 21//21 29//29 
f 20//20 29//29 28//28 
f 21//21 22//22 30//30 
f 21//21 30//30 29//29 
f 22//22 23//23 31//31 
f 22//22 31//31 30//30 
f 23//23 24//24 32//32 
f 23//23 32//32 31//31 
f 24//24 18//18 26//26 
f 24//24 26//26 32//32 
f 26//26 25//25 33//33 
f 26//26 33//33 34//34 
f 25//25 27//27 35//35 
f 25//25 35//35 33//33 
f 27//27 28//28 36//36 
f 27//27 36//36 35//35 
f 28//28 29//29 37//37 
f 28//28 37//37 36//36 
f 29//29 30//30 38//38 
f 29//29 38//38 37//37 
f 30//30 31//31 39//39 
f 30//30 39//39 38//38 
f 31//31 32//32 40//40 
f 31//31 40//40 39//39 
f 32//32 26//26 34//34 
f 32//32 34//34 40//40 
f 34//34 33//33 41//41 
f 34//34 41//41 42//42 
f 33//33 35//35 43//43 
f 33//33 43//43 41//41 
f 35//35 36//36 44//44 
f 35//35 44//44 43//43 
f 36//36 37//37 45//45 
f 36//36 45//45 44//44 
f 37//37 38//38 46//46 
f 37//37 46//46 45//45 
f 38//38 39//39 47//47 
f 38//38 47//47 46//46 
f 39//39 40//40 48//48 
f 39//39 48//48 47//47 
f 40//40 34//34 42//42 
f 40//40 42//42 48//48 
f 139//139 137//137 141//141 
f 139//139 141//141 143//143 
f 139//139 143//143 145//145 
f 139//139 145//145 147//147 
f 139//139 147//147 149//149 
f 139//139 149//149 151//151 
f 153//153 155//155 157//157 
f 153//153 157//157 159//159 
f 153//153 159//159 161//161 
f 153//153 161//161 163//163 
f 153//153 163//163 165//165 
f 153//153 165//165 167//167 
f 56//56 55//55 57//57 
f 56//56 57//57 58//58 
f 55//55 54//54 59//59 
f 55//55 59//59 57//57 
f 54//54 53//53 60//60 
f 54//54 60//60 59//59 
f 53//53 52//52 61//61 
f 53//53 61//61 60//60 
f 52//52 51//51 62//62 
f 52//52 62//62 61//61 
f 51//51 50//50 63//63 
f 51//51 63//63 62//62 
f 50//50 49//49 64//64 
f 50//50 64//64 63//63 
f 49//49 56//56 58//58 
f 49//49 58//58 64//64 
f 58//58 57//57 65//65 
f 58//58 65//65 66//66 
f 57//57 59//59 67//67 
f 57//57 67//67 65//65 
f 59//59 60//60 68//68 
f 59//59 68//68 67//67 
f 60//60 61//61 69//69 
f 60//60 69//69 68//68 
f 61//61 62//62 70//70 
f 61//61 70//70 69//69 
f 62//62 63//63 71//71 
f 62//62 71//71 70//70 
f 63//63 64//64 72//72 
f 63//63 72//72 71//71 
f 64//64 58//58 66//66 
f 64//64 66//66 72//72 
f 66//66 65//65 73//73 
f 66//66 73//73 74//74 
f 65//65 67//67 75//75 
f 65//65 75//75 73//73 
f 67//67 68//68 76//76 
f 67//67 76//76 75//75 
f 68//68 69//69 77//77 
f 68//68 77//77 76//76 
f 69//69 70//70 78//78 
f 69//69 78//78 77//77 
f 70//70 71//71 79//79 
f 70//70 79//79 78//78 
f 71//71 72//72 80//80 
f 71//71 80//80 79//79 
f 72//72 66//66 74//74 
f 72//72 74//74 80//80 
f 74//74 73//73 81//81 
f 74//74 81//81 82//82 
f 73//73 75//75 83//83 
f 73//73 83//83 81//81 
f 75//75 76//76 84//84 
f 75//75 84//84 83//83 
f 76//76 77//77 85//85 
f 76//76 85//85 84//84 
f 77//77 78//78 86//86 
f 77//77 86//86 85//85 
f 78//78 79//79 87//87 
f 78//78 87//87 86//86 
f 79//79 80//80 88//88 
f 79//79 88//88 87//87 
f 80//80 74//74 82//82 
f 80//80 82//82 88//88 
f 82//82 81//81 89//89 
f 82//82 89//89 90//90 
f 81//81 83//83 91//91 
f 81//81 91//91 89//89 
f 83//83 84//84 92//92 
f 83//83 92//92 91//91 
f 84//84 85//85 93//93 
f 84//84 93//93 92//92 
f 85//85 86//86 94//94 
f 85//85 94//94 93//93 
f 86//86 87//87 95//95 
f 86//86 95//95 94//94 
f 87//87 88//88 96//96 
f 87//87 96//96 95//95 
f 88//88 82//82 90//90 
f 88//88 90//90 96//96 
f 171//171 169//169 173//173 
f 171//171 173//173 175//175 
f 171//171 175//175 177//177 
f 171//171 177//177 179//179 
f 171//171 179//179 181//181 
f 171//171 181//181 183//183 
f 185//185 187//187 189//189 
f 185//185 189//189 191//191 
f 185//185 191//191 193//193 
f 185//185 193//193 195//195 
f 185//185 195//195 197//197 
f 185//185 197//197 199//199 
f 105//105 106//106 107//107 
f 105//105 107//107 108//108 
f 105//105 108//108 109//109 
f 105//105 109//109 110//110 
f 105//105 110//110 111//111 
f 105//105 111//111 112//112 
f 104//104 103//103 106//106 
f 104//104 106//106 105//105 
f 103//103 102//102 107//107 
f 103//103 107//107 106//106 
f 102//102 101//101 108//108 
f 102//102 108//108 107//107 
f 101//101 100//100 109//109 
f 101//101 109//109 108//108 
f 100//100 99//99 110//110 
f 100//100 110//110 109//109 
f 99//99 98//98 111//111 
f 99//99 111//111 110//110 
f 98//98 97//97 112//112 
f 98//98 112//112 111//111 
f 97//97 104//104 105//105 
f 97//97 105//105 112//112 
f 201//201 202//202 203//203 
f 201//201 203//203 204//204 
f 201//201 204//204 205//205 
f 201//201 205//205 206//206 
f 201//201 206//206 207//207 
f 201//201 207//207 208//208 
f 124//124 122//122 136//136 
f 124//124 136//136 134//134 
f 124//124 134//134 132//132 
f 124//124 132//132 130//130 
f 124//124 130//130 128//128 
f 124//124 128//128 126//126 
f 120//120 119//119 1//1 
f 120//120 1//1 2//2 
f 119//119 118//118 8//8 
f 119//119 8//8 1//1 
f 118//118 117//117 7//7 
f 118//118 7//7 8//8 
f 117//117 116//116 6//6 
f 117//117 6//6 7//7 
f 116//116 115//115 5//5 
f 116//116 5//5 6//6 
f 115//115 114//114 4//4 
f 115//115 4//4 5//5 
f 114//114 113//113 3//3 
f 114//114 3//3 4//4 
f 113//113 120//120 2//2 
f 113//113 2//2 3//3 
f 148//148 146//146 144//144 
f 148//148 144//144 142//142 
f 148//148 142//142 138//138 
f 148//148 138//138 140//140 
f 148//148 140//140 152//152 
f 148//148 152//152 150//150 
f 160//160 158//158 156//156 
f 160//160 156//156 154//154 
f 160//160 154//154 168//168 
f 160//160 168//168 166//166 
f 160//160 166//166 164//164 
f 160//160 164//164 162//162 
f 47//47 48//48 51//51 
f 47//47 51//51 52//52 
f 48//48 42//42 50//50 
f 48//48 50//50 51//51 
f 42//42 41//41 49//49 
f 42//42 49//49 50//50 
f 41//41 43//43 56//56 
f 41//41 56//56 49//49 
f 43//43 44//44 55//55 
f 43//43 55//55 56//56 
f 44//44 45//45 54//54 
f 44//44 54//54 55//55 
f 45//45 46//46 53//53 
f 45//45 53//53 54//54 
f 46//46 47//47 52//52 
f 46//46 52//52 53//53 
f 176//176 174//174 170//170 
f 176//176 170//170 172//172 
f 176//176 172//172 184//184 
f 176//176 184//184 182//182 
f 176//176 182//182 180//180 
f 176//176 180//180 178//178 
f 192//192 190//190 188//188 
f 192//192 188//188 186//186 
f 192//192 186//186 200//200 
f 192//192 200//200 198//198 
f 192//192 198//198 196//196 
f 192//192 196//196 194//194 
f 93//93 94//94 99//99 
f 93//93 99//99 100//100 
f 94//94 95//95 98//98 
f 94//94 98//98 99//99 
f 95//95 96//96 97//97 
f 95//95 97//97 98//98 
f 96//96 90//90 104//104 
f 96//96 104//104 97//97 
f 90//90 89//89 103//103 
f 90//90 103//103 104//104 
f 89//89 91//91 102//102 
f 89//89 102//102 103//103 
f 91//91 92//92 101//101 
f 91//91 101//101 102//102 
f 92//92 93//93 100//100 
f 92//92 100//100 101//101 
