# file written by OpenSceneGraph

mtllib g82.mtl


o _Geometry_0

v -19367.80078125 31584.302734375 29229.302734375
v -19367.80078125 31600 29222.80078125
v -19367.80078125 31615.697265625 29229.302734375
v -19367.80078125 31622.19921875 29245
v -19367.80078125 31615.697265625 29260.697265625
v -19367.80078125 31600 29267.19921875
v -19367.80078125 31584.302734375 29260.697265625
v -19367.80078125 31577.80078125 29245
v -19379.51171875 31586.15625 29260.697265625
v -19381.51953125 31579.97265625 29245
v -19374.66015625 31601.0859375 29267.19921875
v -19369.80859375 31616.015625 29260.697265625
v -19369.80859375 31616.015625 29229.302734375
v -19374.66015625 31601.0859375 29222.80078125
v -19379.51171875 31586.15625 29229.302734375
v -19390.076171875 31591.541015625 29260.697265625
v -19393.8984375 31586.279296875 29245
v -19380.849609375 31604.240234375 29267.19921875
v -19371.62109375 31616.939453125 29260.697265625
v -19371.62109375 31616.939453125 29229.302734375
v -19380.849609375 31604.240234375 29222.80078125
v -19390.076171875 31591.541015625 29229.302734375
v -19398.458984375 31599.923828125 29260.697265625
v -19403.720703125 31596.1015625 29245
v -19385.759765625 31609.150390625 29267.19921875
v -19373.060546875 31618.37890625 29260.697265625
v -19373.060546875 31618.37890625 29229.302734375
v -19385.759765625 31609.150390625 29222.80078125
v -19398.458984375 31599.923828125 29229.302734375
v -19403.84375 31610.48828125 29260.697265625
v -19410.02734375 31608.48046875 29245
v -19388.9140625 31615.33984375 29267.19921875
v -19373.984375 31620.19140625 29260.697265625
v -19373.984375 31620.19140625 29229.302734375
v -19388.9140625 31615.33984375 29222.80078125
v -19403.84375 31610.48828125 29229.302734375
v -19405.697265625 31622.19921875 29260.697265625
v -19412.19921875 31622.19921875 29245
v -19390 31622.19921875 29267.19921875
v -19374.302734375 31622.19921875 29260.697265625
v -19374.302734375 31622.19921875 29229.302734375
v -19390 31622.19921875 29222.80078125
v -19405.697265625 31622.19921875 29229.302734375
v -19090 31611.80859375 29233.19140625
v -19090 31616.69921875 29245
v -19090 31611.80859375 29256.80859375
v -19090 31600 29261.69921875
v -19090 31588.19140625 29256.80859375
v -19090 31583.30078125 29245
v -19090 31588.19140625 29233.19140625
v -19090 31600 29228.30078125
v -19367.80078125 31600 29228.30078125
v -19367.80078125 31588.19140625 29233.19140625
v -19367.80078125 31583.30078125 29245
v -19367.80078125 31588.19140625 29256.80859375
v -19367.80078125 31600 29261.69921875
v -19367.80078125 31611.80859375 29256.80859375
v -19367.80078125 31616.69921875 29245
v -19367.80078125 31611.80859375 29233.19140625
v -19378.19140625 31622.19921875 29256.80859375
v -19390 31622.19921875 29261.69921875
v -19401.80859375 31622.19921875 29256.80859375
v -19406.69921875 31622.19921875 29245
v -19401.80859375 31622.19921875 29233.19140625
v -19390 31622.19921875 29228.30078125
v -19378.19140625 31622.19921875 29233.19140625
v -19373.30078125 31622.19921875 29245
v -19373.30078125 34315 29245
v -19378.19140625 34315 29233.19140625
v -19390 34315 29228.30078125
v -19401.80859375 34315 29233.19140625
v -19406.69921875 34315 29245
v -19401.80859375 34315 29256.80859375
v -19390 34315 29261.69921875
v -19378.19140625 34315 29256.80859375
v -19367.80078125 31584.302734375 29229.302734375
v -19367.80078125 31600 29222.80078125
v -19367.80078125 31615.697265625 29229.302734375
v -19367.80078125 31622.19921875 29245
v -19367.80078125 31622.19921875 29245
v -19367.80078125 31622.19921875 29245
v -19367.80078125 31615.697265625 29260.697265625
v -19367.80078125 31600 29267.19921875
v -19367.80078125 31584.302734375 29260.697265625
v -19367.80078125 31577.80078125 29245
v -19405.697265625 31622.19921875 29260.697265625
v -19412.19921875 31622.19921875 29245
v -19390 31622.19921875 29267.19921875
v -19374.302734375 31622.19921875 29260.697265625
v -19374.302734375 31622.19921875 29229.302734375
v -19390 31622.19921875 29222.80078125
v -19405.697265625 31622.19921875 29229.302734375
v -19090 31611.80859375 29233.19140625
v -19090 31616.69921875 29245
v -19090 31611.80859375 29256.80859375
v -19090 31600 29261.69921875
v -19090 31588.19140625 29256.80859375
v -19090 31583.30078125 29245
v -19090 31588.19140625 29233.19140625
v -19090 31600 29228.30078125
v -19367.80078125 31600 29228.30078125
v -19367.80078125 31588.19140625 29233.19140625
v -19367.80078125 31583.30078125 29245
v -19367.80078125 31588.19140625 29256.80859375
v -19367.80078125 31600 29261.69921875
v -19367.80078125 31611.80859375 29256.80859375
v -19367.80078125 31616.69921875 29245
v -19367.80078125 31611.80859375 29233.19140625
v -19378.19140625 31622.19921875 29256.80859375
v -19390 31622.19921875 29261.69921875
v -19401.80859375 31622.19921875 29256.80859375
v -19406.69921875 31622.19921875 29245
v -19401.80859375 31622.19921875 29233.19140625
v -19390 31622.19921875 29228.30078125
v -19378.19140625 31622.19921875 29233.19140625
v -19373.30078125 31622.19921875 29245
v -19373.30078125 34315 29245
v -19378.19140625 34315 29233.19140625
v -19390 34315 29228.30078125
v -19401.80859375 34315 29233.19140625
v -19406.69921875 34315 29245
v -19401.80859375 34315 29256.80859375
v -19390 34315 29261.69921875
v -19378.19140625 34315 29256.80859375
# 124 elements written

vn -0.12504501640796661 -0.78997611999511719 -0.60025113821029663
vn -0.021641576662659645 -0.13673651218414307 -0.9903709888458252
vn 0.095062084496021271 0.59974473714828491 -0.79452461004257202
vn 0 1 0
vn 0.11122073978185654 0.70144087076187134 0.70399612188339233
vn 0.021680910140275955 0.13673579692840576 0.99037027359008789
vn -0.094932019710540771 -0.5997658371925354 0.79452425241470337
vn -0.15491969883441925 -0.97864425182342529 0.13511240482330322
vn -0.20353740453720093 -0.67592316865921021 0.70830810070037842
vn -0.30898547172546387 -0.95106673240661621 1.2225533282617107e-05
vn 0.020807435736060143 -0.0067639467306435108 0.99976056814193726
vn 0.18689934909343719 0.61740779876708984 0.7641180157661438
vn 0.21186158061027527 0.60928696393966675 -0.76412308216094971
vn -0.02079043909907341 0.0067553846165537834 -0.99976104497909546
vn -0.23262633383274078 -0.66646122932434082 -0.70831799507141113
vn -0.40246185660362244 -0.57992368936538696 0.70831698179244995
vn -0.58779114484786987 -0.80901271104812622 1.8018077753367834e-05
vn 0.017671441659331322 -0.012852874584496021 0.99976128339767456
vn 0.36851575970649719 0.52946019172668457 0.76411259174346924
vn 0.38973420858383179 0.51403927803039551 -0.76411449909210205
vn -0.017686137929558754 0.012835865840315819 -0.99976122379302979
vn -0.42721456289291382 -0.56191790103912354 -0.70833319425582886
vn -0.56191796064376831 -0.42721456289291382 0.70833325386047363
vn -0.80901271104812622 -0.58779114484786987 -1.8012644432019442e-05
vn 0.012835822999477386 -0.017686137929558754 0.99976122379302979
vn 0.51403921842575073 0.38973420858383179 0.76411449909210205
vn 0.52946013212203979 0.3685157299041748 -0.76411253213882446
vn -0.012852868996560574 0.017671424895524979 -0.99976128339767456
vn -0.57992368936538696 -0.40246188640594482 -0.70831692218780518
vn -0.66646122932434082 -0.23262634873390198 0.70831805467605591
vn -0.95106673240661621 -0.30898547172546387 -1.2214666639920324e-05
vn 0.0067553897388279438 -0.020790427923202515 0.99976104497909546
vn 0.60928690433502197 0.21186161041259766 0.76412314176559448
vn 0.61740785837173462 0.18689934909343719 -0.7641180157661438
vn -0.0067639355547726154 0.020807469263672829 -0.99976062774658203
vn -0.67592322826385498 -0.20353738963603973 -0.70830804109573364
vn 0 1 0
vn 0 1 0
vn 0 1 0
vn 0 1 0
vn 0 1 0
vn 0 1 0
vn 0 1 0
vn 0 0.6037335991859436 -0.79718613624572754
vn 0 0.99060481786727905 -0.13675567507743835
vn 0 0.79718613624572754 0.6037335991859436
vn 0 0.13675567507743835 0.99060481786727905
vn 0 -0.6037335991859436 0.79718613624572754
vn 0 -0.99060481786727905 0.13675567507743835
vn 0 -0.79718613624572754 -0.6037335991859436
vn 0 -0.13675567507743835 -0.99060481786727905
vn 0 0.13675567507743835 -0.99060481786727905
vn 0 -0.6037335991859436 -0.79718613624572754
vn 0 -0.99060481786727905 -0.13675567507743835
vn 0 -0.79718613624572754 0.6037335991859436
vn 0 -0.13675567507743835 0.99060481786727905
vn 0 0.6037335991859436 0.79718613624572754
vn 0 0.99060481786727905 0.13675567507743835
vn 0 0.79718613624572754 -0.6037335991859436
vn 0.79718619585037231 0 0.6037335991859436
vn 0.13675567507743835 0 0.99060481786727905
vn -0.6037335991859436 0 0.79718619585037231
vn -0.99060481786727905 0 0.13675567507743835
vn -0.79718619585037231 0 -0.6037335991859436
vn -0.13675567507743835 0 -0.99060481786727905
vn 0.6037335991859436 0 -0.79718619585037231
vn 0.99060481786727905 0 -0.13675567507743835
vn 0.99060481786727905 0 0.13675567507743835
vn 0.79718619585037231 0 -0.6037335991859436
vn 0.13675567507743835 0 -0.99060481786727905
vn -0.6037335991859436 0 -0.79718619585037231
vn -0.99060481786727905 0 -0.13675567507743835
vn -0.79718619585037231 0 0.6037335991859436
vn -0.13675567507743835 0 0.99060481786727905
vn 0.6037335991859436 0 0.79718619585037231
vn 1 0 0
vn 1 0 0
vn 1 0 0
vn 1 0 0
vn 0.64423084259033203 0.64423084259033203 -0.41222953796386719
vn 0.64423084259033203 0.64423084259033203 0.4122295081615448
vn 1 0 0
vn 1 0 0
vn 1 0 0
vn 1 0 0
vn -0.78997617959976196 -0.12504503130912781 0.60025113821029663
vn -0.97864425182342529 -0.15491969883441925 -0.13511240482330322
vn -0.13673652708530426 -0.021641584113240242 0.9903709888458252
vn 0.59974473714828491 0.095062166452407837 0.7945246696472168
vn 0.70144087076187134 0.11122062057256699 -0.70399612188339233
vn 0.13673581182956696 0.021680871024727821 -0.99037027359008789
vn -0.5997658371925354 -0.094932004809379578 -0.79452425241470337
vn 1 0 0
vn 1 0 0
vn 1 0 0
vn 1 0 0
vn 1 0 0
vn 1 0 0
vn 1 0 0
vn 1 0 0
vn -1 0 0
vn -1 0 0
vn -1 0 0
vn -1 0 0
vn -1 0 0
vn -1 0 0
vn -1 0 0
vn -1 0 0
vn 0 -1 0
vn 0 -1 0
vn 0 -1 0
vn 0 -1 0
vn 0 -1 0
vn 0 -1 0
vn 0 -1 0
vn 0 -1 0
vn 0 1 0
vn 0 1 0
vn 0 1 0
vn 0 1 0
vn 0 1 0
vn 0 1 0
vn 0 1 0
vn 0 1 0
# 124 elements written
f 76//76 77//77 78//78 
f 76//76 78//78 79//79 
f 76//76 79//79 82//82 
f 76//76 82//82 83//83 
f 76//76 83//83 84//84 
f 76//76 84//84 85//85 
f 8//8 7//7 9//9 
f 8//8 9//9 10//10 
f 7//7 6//6 11//11 
f 7//7 11//11 9//9 
f 6//6 5//5 12//12 
f 6//6 12//12 11//11 
f 5//5 81//81 12//12 
f 80//80 3//3 13//13 
f 3//3 2//2 14//14 
f 3//3 14//14 13//13 
f 2//2 1//1 15//15 
f 2//2 15//15 14//14 
f 1//1 8//8 10//10 
f 1//1 10//10 15//15 
f 10//10 9//9 16//16 
f 10//10 16//16 17//17 
f 9//9 11//11 18//18 
f 9//9 18//18 16//16 
f 11//11 12//12 19//19 
f 11//11 19//19 18//18 
f 12//12 81//81 19//19 
f 80//80 13//13 20//20 
f 13//13 14//14 21//21 
f 13//13 21//21 20//20 
f 14//14 15//15 22//22 
f 14//14 22//22 21//21 
f 15//15 10//10 17//17 
f 15//15 17//17 22//22 
f 17//17 16//16 23//23 
f 17//17 23//23 24//24 
f 16//16 18//18 25//25 
f 16//16 25//25 23//23 
f 18//18 19//19 26//26 
f 18//18 26//26 25//25 
f 19//19 81//81 26//26 
f 80//80 20//20 27//27 
f 20//20 21//21 28//28 
f 20//20 28//28 27//27 
f 21//21 22//22 29//29 
f 21//21 29//29 28//28 
f 22//22 17//17 24//24 
f 22//22 24//24 29//29 
f 24//24 23//23 30//30 
f 24//24 30//30 31//31 
f 23//23 25//25 32//32 
f 23//23 32//32 30//30 
f 25//25 26//26 33//33 
f 25//25 33//33 32//32 
f 26//26 81//81 33//33 
f 80//80 27//27 34//34 
f 27//27 28//28 35//35 
f 27//27 35//35 34//34 
f 28//28 29//29 36//36 
f 28//28 36//36 35//35 
f 29//29 24//24 31//31 
f 29//29 31//31 36//36 
f 31//31 30//30 86//86 
f 31//31 86//86 87//87 
f 30//30 32//32 88//88 
f 30//30 88//88 86//86 
f 32//32 33//33 89//89 
f 32//32 89//89 88//88 
f 33//33 81//81 89//89 
f 80//80 34//34 90//90 
f 34//34 35//35 91//91 
f 34//34 91//91 90//90 
f 35//35 36//36 92//92 
f 35//35 92//92 91//91 
f 36//36 31//31 87//87 
f 36//36 87//87 92//92 
f 38//38 37//37 39//39 
f 38//38 39//39 40//40 
f 38//38 40//40 4//4 
f 38//38 4//4 41//41 
f 38//38 41//41 42//42 
f 38//38 42//42 43//43 
f 93//93 94//94 95//95 
f 93//93 95//95 96//96 
f 93//93 96//96 97//97 
f 93//93 97//97 98//98 
f 93//93 98//98 99//99 
f 93//93 99//99 100//100 
f 101//101 102//102 103//103 
f 101//101 103//103 104//104 
f 101//101 104//104 105//105 
f 101//101 105//105 106//106 
f 101//101 106//106 107//107 
f 101//101 107//107 108//108 
f 51//51 50//50 53//53 
f 51//51 53//53 52//52 
f 50//50 49//49 54//54 
f 50//50 54//54 53//53 
f 49//49 48//48 55//55 
f 49//49 55//55 54//54 
f 48//48 47//47 56//56 
f 48//48 56//56 55//55 
f 47//47 46//46 57//57 
f 47//47 57//57 56//56 
f 46//46 45//45 58//58 
f 46//46 58//58 57//57 
f 45//45 44//44 59//59 
f 45//45 59//59 58//58 
f 44//44 51//51 52//52 
f 44//44 52//52 59//59 
f 109//109 110//110 111//111 
f 109//109 111//111 112//112 
f 109//109 112//112 113//113 
f 109//109 113//113 114//114 
f 109//109 114//114 115//115 
f 109//109 115//115 116//116 
f 117//117 118//118 119//119 
f 117//117 119//119 120//120 
f 117//117 120//120 121//121 
f 117//117 121//121 122//122 
f 117//117 122//122 123//123 
f 117//117 123//123 124//124 
f 67//67 66//66 69//69 
f 67//67 69//69 68//68 
f 66//66 65//65 70//70 
f 66//66 70//70 69//69 
f 65//65 64//64 71//71 
f 65//65 71//71 70//70 
f 64//64 63//63 72//72 
f 64//64 72//72 71//71 
f 63//63 62//62 73//73 
f 63//63 73//73 72//72 
f 62//62 61//61 74//74 
f 62//62 74//74 73//73 
f 61//61 60//60 75//75 
f 61//61 75//75 74//74 
f 60//60 67//67 68//68 
f 60//60 68//68 75//75 
