# file written by OpenSceneGraph

mtllib g84.mtl


o _Geometry_0

v -16367.7998046875 26221.302734375 26919.302734375
v -16367.7998046875 26237 26912.80078125
v -16367.7998046875 26252.697265625 26919.302734375
v -16367.7998046875 26259.19921875 26935
v -16367.7998046875 26252.697265625 26950.697265625
v -16367.7998046875 26237 26957.19921875
v -16367.7998046875 26221.302734375 26950.697265625
v -16367.7998046875 26214.80078125 26935
v -16379.5107421875 26223.15625 26950.697265625
v -16381.521484375 26216.97265625 26935
v -16374.66015625 26238.0859375 26957.19921875
v -16369.8095703125 26253.015625 26950.697265625
v -16369.8095703125 26253.015625 26919.302734375
v -16374.66015625 26238.0859375 26912.80078125
v -16379.5107421875 26223.15625 26919.302734375
v -16390.076171875 26228.541015625 26950.697265625
v -16393.8984375 26223.279296875 26935
v -16380.8486328125 26241.240234375 26957.19921875
v -16371.6220703125 26253.939453125 26950.697265625
v -16371.6220703125 26253.939453125 26919.302734375
v -16380.8486328125 26241.240234375 26912.80078125
v -16390.076171875 26228.541015625 26919.302734375
v -16398.458984375 26236.923828125 26950.697265625
v -16403.720703125 26233.1015625 26935
v -16385.759765625 26246.150390625 26957.19921875
v -16373.060546875 26255.37890625 26950.697265625
v -16373.060546875 26255.37890625 26919.302734375
v -16385.759765625 26246.150390625 26912.80078125
v -16398.458984375 26236.923828125 26919.302734375
v -16403.84375 26247.48828125 26950.697265625
v -16410.02734375 26245.48046875 26935
v -16388.9140625 26252.33984375 26957.19921875
v -16373.984375 26257.19140625 26950.697265625
v -16373.984375 26257.19140625 26919.302734375
v -16388.9140625 26252.33984375 26912.80078125
v -16403.84375 26247.48828125 26919.302734375
v -16405.697265625 26259.19921875 26950.697265625
v -16412.19921875 26259.19921875 26935
v -16390 26259.19921875 26957.19921875
v -16374.3017578125 26259.19921875 26950.697265625
v -16374.3017578125 26259.19921875 26919.302734375
v -16390 26259.19921875 26912.80078125
v -16405.697265625 26259.19921875 26919.302734375
v -16090 26248.80859375 26923.19140625
v -16090 26253.69921875 26935
v -16090 26248.80859375 26946.80859375
v -16090 26237 26951.69921875
v -16090 26225.19140625 26946.80859375
v -16090 26220.30078125 26935
v -16090 26225.19140625 26923.19140625
v -16090 26237 26918.30078125
v -16367.7998046875 26237 26918.30078125
v -16367.7998046875 26225.19140625 26923.19140625
v -16367.7998046875 26220.30078125 26935
v -16367.7998046875 26225.19140625 26946.80859375
v -16367.7998046875 26237 26951.69921875
v -16367.7998046875 26248.80859375 26946.80859375
v -16367.7998046875 26253.69921875 26935
v -16367.7998046875 26248.80859375 26923.19140625
v -16378.19140625 26259.19921875 26946.80859375
v -16390 26259.19921875 26951.69921875
v -16401.80859375 26259.19921875 26946.80859375
v -16406.69921875 26259.19921875 26935
v -16401.80859375 26259.19921875 26923.19140625
v -16390 26259.19921875 26918.30078125
v -16378.19140625 26259.19921875 26923.19140625
v -16373.2998046875 26259.19921875 26935
v -16373.2998046875 28100 26935
v -16378.19140625 28100 26923.19140625
v -16390 28100 26918.30078125
v -16401.80859375 28100 26923.19140625
v -16406.69921875 28100 26935
v -16401.80859375 28100 26946.80859375
v -16390 28100 26951.69921875
v -16378.19140625 28100 26946.80859375
v -16367.7998046875 26221.302734375 26919.302734375
v -16367.7998046875 26237 26912.80078125
v -16367.7998046875 26252.697265625 26919.302734375
v -16367.7998046875 26259.19921875 26935
v -16367.7998046875 26259.19921875 26935
v -16367.7998046875 26259.19921875 26935
v -16367.7998046875 26252.697265625 26950.697265625
v -16367.7998046875 26237 26957.19921875
v -16367.7998046875 26221.302734375 26950.697265625
v -16367.7998046875 26214.80078125 26935
v -16405.697265625 26259.19921875 26950.697265625
v -16412.19921875 26259.19921875 26935
v -16390 26259.19921875 26957.19921875
v -16374.3017578125 26259.19921875 26950.697265625
v -16374.3017578125 26259.19921875 26919.302734375
v -16390 26259.19921875 26912.80078125
v -16405.697265625 26259.19921875 26919.302734375
v -16090 26248.80859375 26923.19140625
v -16090 26253.69921875 26935
v -16090 26248.80859375 26946.80859375
v -16090 26237 26951.69921875
v -16090 26225.19140625 26946.80859375
v -16090 26220.30078125 26935
v -16090 26225.19140625 26923.19140625
v -16090 26237 26918.30078125
v -16367.7998046875 26237 26918.30078125
v -16367.7998046875 26225.19140625 26923.19140625
v -16367.7998046875 26220.30078125 26935
v -16367.7998046875 26225.19140625 26946.80859375
v -16367.7998046875 26237 26951.69921875
v -16367.7998046875 26248.80859375 26946.80859375
v -16367.7998046875 26253.69921875 26935
v -16367.7998046875 26248.80859375 26923.19140625
v -16378.19140625 26259.19921875 26946.80859375
v -16390 26259.19921875 26951.69921875
v -16401.80859375 26259.19921875 26946.80859375
v -16406.69921875 26259.19921875 26935
v -16401.80859375 26259.19921875 26923.19140625
v -16390 26259.19921875 26918.30078125
v -16378.19140625 26259.19921875 26923.19140625
v -16373.2998046875 26259.19921875 26935
v -16373.2998046875 28100 26935
v -16378.19140625 28100 26923.19140625
v -16390 28100 26918.30078125
v -16401.80859375 28100 26923.19140625
v -16406.69921875 28100 26935
v -16401.80859375 28100 26946.80859375
v -16390 28100 26951.69921875
v -16378.19140625 28100 26946.80859375
# 124 elements written

vn -0.12503336369991302 -0.78997230529785156 -0.60025858879089355
vn -0.021641891449689865 -0.13673849403858185 -0.99037075042724609
vn 0.094989605247974396 0.59975713491439819 -0.79452395439147949
vn 0 1 0
vn 0.11111437529325485 0.70145171880722046 0.70400214195251465
vn 0.02166021429002285 0.13673815131187439 0.99037039279937744
vn -0.094929128885269165 -0.59976696968078613 0.79452377557754517
vn -0.15489800274372101 -0.97864663600921631 0.13511978089809418
vn -0.2035243958234787 -0.67591619491577148 0.70831847190856934
vn -0.30898836255073547 -0.95106583833694458 1.3138605027052108e-05
vn 0.020808566361665726 -0.0067616002634167671 0.99976056814193726
vn 0.18685376644134521 0.61741024255752563 0.76412713527679443
vn 0.21182498335838318 0.60929346084594727 -0.76412808895111084
vn -0.020796880125999451 0.0067597609013319016 -0.99976080656051636
vn -0.23262317478656769 -0.66645216941833496 -0.70832759141921997
vn -0.40245109796524048 -0.57991659641265869 0.70832890272140503
vn -0.58780401945114136 -0.80900341272354126 7.3028818405873608e-06
vn 0.017700629308819771 -0.012860032729804516 0.99976068735122681
vn 0.36859151721000671 0.52939200401306152 0.76412338018417358
vn 0.38979250192642212 0.51397228240966797 -0.76412975788116455
vn -0.017678242176771164 0.012847317382693291 -0.99976122379302979
vn -0.4272092878818512 -0.56191855669021606 -0.70833593606948853
vn -0.56191796064376831 -0.42721456289291382 0.70833325386047363
vn -0.80901271104812622 -0.58779114484786987 -1.8012644432019442e-05
vn 0.012839006260037422 -0.017682908102869987 0.99976122379302979
vn 0.5140916109085083 0.38966619968414307 0.7641139030456543
vn 0.52950823307037354 0.36843219399452209 -0.76411962509155273
vn -0.01283593475818634 0.017654841765761375 -0.99976170063018799
vn -0.57991844415664673 -0.40246623754501343 -0.70831876993179321
vn -0.66646122932434082 -0.23262634873390198 0.70831805467605591
vn -0.95106673240661621 -0.30898547172546387 -1.2214666639920324e-05
vn 0.0067613269202411175 -0.020823076367378235 0.99976038932800293
vn 0.60931158065795898 0.21172827482223511 0.76414042711257935
vn 0.61741822957992554 0.18676373362541199 -0.76414269208908081
vn -0.0067639355547726154 0.020807469263672829 -0.99976062774658203
vn -0.67592322826385498 -0.20353738963603973 -0.70830804109573364
vn 0 1 0
vn 0 1 0
vn 0 1 0
vn 0 1 0
vn 0 1 0
vn 0 1 0
vn 0 1 0
vn 0 0.6037335991859436 -0.79718613624572754
vn 0 0.99060481786727905 -0.13675567507743835
vn 0 0.79718613624572754 0.6037335991859436
vn 0 0.13675567507743835 0.99060481786727905
vn 0 -0.6037335991859436 0.79718613624572754
vn 0 -0.99060481786727905 0.13675567507743835
vn 0 -0.79718613624572754 -0.6037335991859436
vn 0 -0.13675567507743835 -0.99060481786727905
vn 0 0.13675567507743835 -0.99060481786727905
vn 0 -0.6037335991859436 -0.79718613624572754
vn 0 -0.99060481786727905 -0.13675567507743835
vn 0 -0.79718613624572754 0.6037335991859436
vn 0 -0.13675567507743835 0.99060481786727905
vn 0 0.6037335991859436 0.79718613624572754
vn 0 0.99060481786727905 0.13675567507743835
vn 0 0.79718613624572754 -0.6037335991859436
vn 0.79715663194656372 0 0.60377246141433716
vn 0.13675567507743835 0 0.99060481786727905
vn -0.6037335991859436 0 0.79718619585037231
vn -0.99060481786727905 0 0.13675567507743835
vn -0.79718619585037231 0 -0.6037335991859436
vn -0.13675567507743835 0 -0.99060481786727905
vn 0.60371625423431396 0 -0.79719924926757812
vn 0.99060112237930298 0 -0.13678246736526489
vn 0.99060112237930298 0 0.13678246736526489
vn 0.79715663194656372 0 -0.60377246141433716
vn 0.13675567507743835 0 -0.99060481786727905
vn -0.6037335991859436 0 -0.79718619585037231
vn -0.99060481786727905 0 -0.13675567507743835
vn -0.79718619585037231 0 0.6037335991859436
vn -0.13675567507743835 0 0.99060481786727905
vn 0.60371625423431396 0 0.79719924926757812
vn 1 0 0
vn 1 0 0
vn 1 0 0
vn 1 0 0
vn 0.64429539442062378 0.64412510395050049 -0.41229408979415894
vn 0.64429539442062378 0.64412504434585571 0.41229408979415894
vn 1 0 0
vn 1 0 0
vn 1 0 0
vn 1 0 0
vn -0.78997617959976196 -0.12504503130912781 0.60025113821029663
vn -0.97864425182342529 -0.15491969883441925 -0.13511240482330322
vn -0.1367432028055191 -0.021642642095685005 0.99037003517150879
vn 0.59977442026138306 0.09484148770570755 0.79452860355377197
vn 0.70146745443344116 0.1108836904168129 -0.70402288436889648
vn 0.13672946393489838 0.021613363176584244 -0.99037253856658936
vn -0.5997658371925354 -0.094932004809379578 -0.79452425241470337
vn 1 0 0
vn 1 0 0
vn 1 0 0
vn 1 0 0
vn 1 0 0
vn 1 0 0
vn 1 0 0
vn 1 0 0
vn -1 0 0
vn -1 0 0
vn -1 0 0
vn -1 0 0
vn -1 0 0
vn -1 0 0
vn -1 0 0
vn -1 0 0
vn 0 -1 0
vn 0 -1 0
vn 0 -1 0
vn 0 -1 0
vn 0 -1 0
vn 0 -1 0
vn 0 -1 0
vn 0 -1 0
vn 0 1 0
vn 0 1 0
vn 0 1 0
vn 0 1 0
vn 0 1 0
vn 0 1 0
vn 0 1 0
vn 0 1 0
# 124 elements written
f 76//76 77//77 78//78 
f 76//76 78//78 79//79 
f 76//76 79//79 82//82 
f 76//76 82//82 83//83 
f 76//76 83//83 84//84 
f 76//76 84//84 85//85 
f 8//8 7//7 9//9 
f 8//8 9//9 10//10 
f 7//7 6//6 11//11 
f 7//7 11//11 9//9 
f 6//6 5//5 12//12 
f 6//6 12//12 11//11 
f 5//5 81//81 12//12 
f 80//80 3//3 13//13 
f 3//3 2//2 14//14 
f 3//3 14//14 13//13 
f 2//2 1//1 15//15 
f 2//2 15//15 14//14 
f 1//1 8//8 10//10 
f 1//1 10//10 15//15 
f 10//10 9//9 16//16 
f 10//10 16//16 17//17 
f 9//9 11//11 18//18 
f 9//9 18//18 16//16 
f 11//11 12//12 19//19 
f 11//11 19//19 18//18 
f 12//12 81//81 19//19 
f 80//80 13//13 20//20 
f 13//13 14//14 21//21 
f 13//13 21//21 20//20 
f 14//14 15//15 22//22 
f 14//14 22//22 21//21 
f 15//15 10//10 17//17 
f 15//15 17//17 22//22 
f 17//17 16//16 23//23 
f 17//17 23//23 24//24 
f 16//16 18//18 25//25 
f 16//16 25//25 23//23 
f 18//18 19//19 26//26 
f 18//18 26//26 25//25 
f 19//19 81//81 26//26 
f 80//80 20//20 27//27 
f 20//20 21//21 28//28 
f 20//20 28//28 27//27 
f 21//21 22//22 29//29 
f 21//21 29//29 28//28 
f 22//22 17//17 24//24 
f 22//22 24//24 29//29 
f 24//24 23//23 30//30 
f 24//24 30//30 31//31 
f 23//23 25//25 32//32 
f 23//23 32//32 30//30 
f 25//25 26//26 33//33 
f 25//25 33//33 32//32 
f 26//26 81//81 33//33 
f 80//80 27//27 34//34 
f 27//27 28//28 35//35 
f 27//27 35//35 34//34 
f 28//28 29//29 36//36 
f 28//28 36//36 35//35 
f 29//29 24//24 31//31 
f 29//29 31//31 36//36 
f 31//31 30//30 86//86 
f 31//31 86//86 87//87 
f 30//30 32//32 88//88 
f 30//30 88//88 86//86 
f 32//32 33//33 89//89 
f 32//32 89//89 88//88 
f 33//33 81//81 89//89 
f 80//80 34//34 90//90 
f 34//34 35//35 91//91 
f 34//34 91//91 90//90 
f 35//35 36//36 92//92 
f 35//35 92//92 91//91 
f 36//36 31//31 87//87 
f 36//36 87//87 92//92 
f 38//38 37//37 39//39 
f 38//38 39//39 40//40 
f 38//38 40//40 4//4 
f 38//38 4//4 41//41 
f 38//38 41//41 42//42 
f 38//38 42//42 43//43 
f 93//93 94//94 95//95 
f 93//93 95//95 96//96 
f 93//93 96//96 97//97 
f 93//93 97//97 98//98 
f 93//93 98//98 99//99 
f 93//93 99//99 100//100 
f 101//101 102//102 103//103 
f 101//101 103//103 104//104 
f 101//101 104//104 105//105 
f 101//101 105//105 106//106 
f 101//101 106//106 107//107 
f 101//101 107//107 108//108 
f 51//51 50//50 53//53 
f 51//51 53//53 52//52 
f 50//50 49//49 54//54 
f 50//50 54//54 53//53 
f 49//49 48//48 55//55 
f 49//49 55//55 54//54 
f 48//48 47//47 56//56 
f 48//48 56//56 55//55 
f 47//47 46//46 57//57 
f 47//47 57//57 56//56 
f 46//46 45//45 58//58 
f 46//46 58//58 57//57 
f 45//45 44//44 59//59 
f 45//45 59//59 58//58 
f 44//44 51//51 52//52 
f 44//44 52//52 59//59 
f 109//109 110//110 111//111 
f 109//109 111//111 112//112 
f 109//109 112//112 113//113 
f 109//109 113//113 114//114 
f 109//109 114//114 115//115 
f 109//109 115//115 116//116 
f 117//117 118//118 119//119 
f 117//117 119//119 120//120 
f 117//117 120//120 121//121 
f 117//117 121//121 122//122 
f 117//117 122//122 123//123 
f 117//117 123//123 124//124 
f 67//67 66//66 69//69 
f 67//67 69//69 68//68 
f 66//66 65//65 70//70 
f 66//66 70//70 69//69 
f 65//65 64//64 71//71 
f 65//65 71//71 70//70 
f 64//64 63//63 72//72 
f 64//64 72//72 71//71 
f 63//63 62//62 73//73 
f 63//63 73//73 72//72 
f 62//62 61//61 74//74 
f 62//62 74//74 73//73 
f 61//61 60//60 75//75 
f 61//61 75//75 74//74 
f 60//60 67//67 68//68 
f 60//60 68//68 75//75 
