# file written by OpenSceneGraph

mtllib g18.mtl


o _Geometry_0

v -17343.900390625 15043.08203125 92921.078125
v -17343.900390625 15030 92926.5
v -17343.900390625 15016.91796875 92921.078125
v -17343.900390625 15011.5 92908
v -17343.900390625 15016.91796875 92894.921875
v -17343.900390625 15030 92889.5
v -17343.900390625 15043.08203125 92894.921875
v -17343.900390625 15048.5 92908
v -17353.84375 15041.505859375 92894.921875
v -17355.51953125 15046.66015625 92908
v -17349.802734375 15029.064453125 92889.5
v -17345.759765625 15016.6240234375 92894.921875
v -17344.0859375 15011.470703125 92908
v -17345.759765625 15016.6240234375 92921.078125
v -17349.802734375 15029.064453125 92926.5
v -17353.84375 15041.505859375 92921.078125
v -17362.81640625 15036.935546875 92894.921875
v -17366 15041.318359375 92908
v -17355.126953125 15026.3515625 92889.5
v -17347.4375 15015.76953125 92894.921875
v -17344.251953125 15011.384765625 92908
v -17347.4375 15015.76953125 92921.078125
v -17355.126953125 15026.3515625 92926.5
v -17362.81640625 15036.935546875 92921.078125
v -17369.935546875 15029.81640625 92894.921875
v -17374.318359375 15033 92908
v -17359.3515625 15022.1259765625 92889.5
v -17348.76953125 15014.4375 92894.921875
v -17344.384765625 15011.251953125 92908
v -17348.76953125 15014.4375 92921.078125
v -17359.3515625 15022.1259765625 92926.5
v -17369.935546875 15029.81640625 92921.078125
v -17374.505859375 15020.845703125 92894.921875
v -17379.66015625 15022.51953125 92908
v -17362.064453125 15016.8017578125 92889.5
v -17349.623046875 15012.759765625 92894.921875
v -17344.470703125 15011.0849609375 92908
v -17349.623046875 15012.759765625 92921.078125
v -17362.064453125 15016.8017578125 92926.5
v -17374.505859375 15020.845703125 92921.078125
v -17376.08203125 15010.900390625 92894.921875
v -17381.5 15010.900390625 92908
v -17363 15010.900390625 92889.5
v -17349.91796875 15010.900390625 92894.921875
v -17344.5 15010.900390625 92908
v -17349.91796875 15010.900390625 92921.078125
v -17363 15010.900390625 92926.5
v -17376.08203125 15010.900390625 92921.078125
v -17376.08203125 14899.099609375 92894.921875
v -17381.5 14899.099609375 92908
v -17376.08203125 14899.099609375 92921.078125
v -17363 14899.099609375 92926.5
v -17349.91796875 14899.099609375 92921.078125
v -17344.5 14899.099609375 92908
v -17349.91796875 14899.099609375 92894.921875
v -17363 14899.099609375 92889.5
v -17349.91796875 14889.154296875 92896.4921875
v -17363 14887.48046875 92891.34375
v -17344.5 14893.1982421875 92908.9375
v -17349.91796875 14897.240234375 92921.375
v -17363 14898.9150390625 92926.53125
v -17376.08203125 14897.240234375 92921.375
v -17381.5 14893.1982421875 92908.9375
v -17376.08203125 14889.154296875 92896.4921875
v -17349.91796875 14880.18359375 92901.0625
v -17363 14877 92896.6796875
v -17344.5 14887.8740234375 92911.6484375
v -17349.91796875 14895.5625 92922.234375
v -17363 14898.748046875 92926.6171875
v -17376.08203125 14895.5625 92922.234375
v -17381.5 14887.8740234375 92911.6484375
v -17376.08203125 14880.18359375 92901.0625
v -17349.91796875 14873.064453125 92908.1875
v -17363 14868.681640625 92905
v -17344.5 14883.6484375 92915.875
v -17349.91796875 14894.23046875 92923.5625
v -17363 14898.615234375 92926.75
v -17376.08203125 14894.23046875 92923.5625
v -17381.5 14883.6484375 92915.875
v -17376.08203125 14873.064453125 92908.1875
v -17349.91796875 14868.494140625 92917.15625
v -17363 14863.33984375 92915.484375
v -17344.5 14880.935546875 92921.1953125
v -17349.91796875 14893.3759765625 92925.2421875
v -17363 14898.529296875 92926.9140625
v -17376.08203125 14893.3759765625 92925.2421875
v -17381.5 14880.935546875 92921.1953125
v -17376.08203125 14868.494140625 92917.15625
v -17349.91796875 14866.91796875 92927.1015625
v -17363 14861.5 92927.1015625
v -17344.5 14880 92927.1015625
v -17349.91796875 14893.08203125 92927.1015625
v -17363 14898.5 92927.1015625
v -17376.08203125 14893.08203125 92927.1015625
v -17381.5 14880 92927.1015625
v -17376.08203125 14866.91796875 92927.1015625
v -5397.89990234375 15039.439453125 92898.5625
v -5397.89990234375 15043.349609375 92908
v -5397.89990234375 15039.439453125 92917.4375
v -5397.89990234375 15030 92921.3515625
v -5397.89990234375 15020.560546875 92917.4375
v -5397.89990234375 15016.650390625 92908
v -5397.89990234375 15020.560546875 92898.5625
v -5397.89990234375 15030 92894.6484375
v -17343.900390625 15030 92894.6484375
v -17343.900390625 15020.560546875 92898.5625
v -17343.900390625 15016.650390625 92908
v -17343.900390625 15020.560546875 92917.4375
v -17343.900390625 15030 92921.3515625
v -17343.900390625 15039.439453125 92917.4375
v -17343.900390625 15043.349609375 92908
v -17343.900390625 15039.439453125 92898.5625
v -17353.560546875 15010.900390625 92898.5625
v -17363 15010.900390625 92894.6484375
v -17372.439453125 15010.900390625 92898.5625
v -17376.349609375 15010.900390625 92908
v -17372.439453125 15010.900390625 92917.4375
v -17363 15010.900390625 92921.3515625
v -17353.560546875 15010.900390625 92917.4375
v -17349.650390625 15010.900390625 92908
v -17349.650390625 14899.099609375 92908
v -17353.560546875 14899.099609375 92917.4375
v -17363 14899.099609375 92921.3515625
v -17372.439453125 14899.099609375 92917.4375
v -17376.349609375 14899.099609375 92908
v -17372.439453125 14899.099609375 92898.5625
v -17363 14899.099609375 92894.6484375
v -17353.560546875 14899.099609375 92898.5625
v -17343.900390625 15043.08203125 92921.078125
v -17343.900390625 15030 92926.5
v -17343.900390625 15016.91796875 92921.078125
v -17343.900390625 15011.5 92908
v -17343.900390625 15016.91796875 92894.921875
v -17343.900390625 15030 92889.5
v -17343.900390625 15043.08203125 92894.921875
v -17343.900390625 15048.5 92908
v -17376.08203125 15010.900390625 92894.921875
v -17381.5 15010.900390625 92908
v -17363 15010.900390625 92889.5
v -17349.91796875 15010.900390625 92894.921875
v -17344.5 15010.900390625 92908
v -17349.91796875 15010.900390625 92921.078125
v -17363 15010.900390625 92926.5
v -17376.08203125 15010.900390625 92921.078125
v -17376.08203125 14899.099609375 92894.921875
v -17381.5 14899.099609375 92908
v -17376.08203125 14899.099609375 92921.078125
v -17363 14899.099609375 92926.5
v -17349.91796875 14899.099609375 92921.078125
v -17344.5 14899.099609375 92908
v -17349.91796875 14899.099609375 92894.921875
v -17363 14899.099609375 92889.5
v -17349.91796875 14866.91796875 92927.1015625
v -17363 14861.5 92927.1015625
v -17344.5 14880 92927.1015625
v -17349.91796875 14893.08203125 92927.1015625
v -17363 14898.5 92927.1015625
v -17376.08203125 14893.08203125 92927.1015625
v -17381.5 14880 92927.1015625
v -17376.08203125 14866.91796875 92927.1015625
v -5397.89990234375 15039.439453125 92898.5625
v -5397.89990234375 15043.349609375 92908
v -5397.89990234375 15039.439453125 92917.4375
v -5397.89990234375 15030 92921.3515625
v -5397.89990234375 15020.560546875 92917.4375
v -5397.89990234375 15016.650390625 92908
v -5397.89990234375 15020.560546875 92898.5625
v -5397.89990234375 15030 92894.6484375
v -17343.900390625 15030 92894.6484375
v -17343.900390625 15020.560546875 92898.5625
v -17343.900390625 15016.650390625 92908
v -17343.900390625 15020.560546875 92917.4375
v -17343.900390625 15030 92921.3515625
v -17343.900390625 15039.439453125 92917.4375
v -17343.900390625 15043.349609375 92908
v -17343.900390625 15039.439453125 92898.5625
v -17353.560546875 15010.900390625 92898.5625
v -17363 15010.900390625 92894.6484375
v -17372.439453125 15010.900390625 92898.5625
v -17376.349609375 15010.900390625 92908
v -17372.439453125 15010.900390625 92917.4375
v -17363 15010.900390625 92921.3515625
v -17353.560546875 15010.900390625 92917.4375
v -17349.650390625 15010.900390625 92908
v -17349.650390625 14899.099609375 92908
v -17353.560546875 14899.099609375 92917.4375
v -17363 14899.099609375 92921.3515625
v -17372.439453125 14899.099609375 92917.4375
v -17376.349609375 14899.099609375 92908
v -17372.439453125 14899.099609375 92898.5625
v -17363 14899.099609375 92894.6484375
v -17353.560546875 14899.099609375 92898.5625
# 192 elements written

vn -0.12516289949417114 0.78994488716125488 0.60026776790618896
vn -0.021689152345061302 0.13682712614536285 0.99035745859146118
vn 0.094880938529968262 -0.59988915920257568 0.79443734884262085
vn 0.15291948616504669 -0.9789692759513855 0.13503628969192505
vn 0.12398537248373032 -0.79012006521224976 -0.60028153657913208
vn 0.021630475297570229 -0.1368253082036972 -0.99035900831222534
vn -0.095074065029621124 0.59986007213592529 -0.79443615674972534
vn -0.1550157219171524 0.97862029075622559 -0.1351759135723114
vn -0.20353901386260986 0.67596423625946045 -0.70826852321624756
vn -0.30902758240699768 0.95105308294296265 7.6617097874986939e-06
vn 0.020799523219466209 0.0067627094686031342 -0.99976080656051636
vn 0.23395621776580811 -0.66600733995437622 -0.70830696821212769
vn 0.31078532338142395 -0.95048010349273682 0.00012408194015733898
vn 0.20301826298236847 -0.6761239767074585 0.70826536417007446
vn -0.020814176648855209 -0.0067591243423521519 0.99976050853729248
vn -0.23264893889427185 0.66651344299316406 0.70826143026351929
vn -0.40248203277587891 0.57997727394104004 -0.70826166868209839
vn -0.58780592679977417 0.80900198221206665 2.6526977308094501e-05
vn 0.017693009227514267 0.012845317833125591 -0.99976092576980591
vn 0.42715227603912354 -0.5620352029800415 -0.70827782154083252
vn 0.59009850025177002 -0.80733120441436768 0.0001915630855364725
vn 0.40365862846374512 -0.57921898365020752 0.70821261405944824
vn -0.017688298597931862 -0.012871313840150833 0.99976074695587158
vn -0.42722070217132568 0.56203675270080566 0.70823532342910767
vn -0.56204026937484741 0.42721053957939148 -0.70823848247528076
vn -0.80901086330413818 0.58779376745223999 -2.1228965124464594e-05
vn 0.012906329706311226 0.017723113298416138 -0.99975961446762085
vn 0.57964831590652466 -0.40294334292411804 -0.70826864242553711
vn 0.80826371908187866 -0.5888206958770752 -9.638495248509571e-05
vn 0.56202578544616699 -0.42712584137916565 0.70830118656158447
vn -0.012852172367274761 -0.017739159986376762 0.99976009130477905
vn -0.57999593019485474 0.40246698260307312 0.70825493335723877
vn -0.66649931669235229 0.2326795756816864 -0.70826470851898193
vn -0.95104575157165527 0.30905002355575562 -5.7978741097031161e-06
vn 0.0067639974877238274 0.020786542445421219 -0.99976104497909546
vn 0.67604678869247437 -0.20343402028083801 -0.70821988582611084
vn 0.95067721605300903 -0.31018191576004028 -0.00010188565647695214
vn 0.66633260250091553 -0.23315735161304474 0.70826441049575806
vn -0.0067309876903891563 -0.020754054188728333 0.99976193904876709
vn -0.67595499753952026 0.20356033742427826 0.70827120542526245
vn 0 -1 0
vn 0 -1 0
vn 0 -1 0
vn 0 -1 0
vn 0 -1 0
vn 0 -1 0
vn 0 -1 0
vn 0 -1 0
vn -0.60020065307617188 -0.12499756366014481 -0.79002207517623901
vn -0.99038064479827881 -0.021580467000603676 -0.13667680323123932
vn -0.79452729225158691 0.095612265169620514 0.59965366125106812
vn -0.13553395867347717 0.16203987598419189 0.97743219137191772
vn 0.60019177198410034 0.1290181577205658 0.78938215970993042
vn 0.99036550521850586 0.02182779461145401 0.13674676418304443
vn 0.79457104206085205 -0.094823025166988373 -0.59972113370895386
vn 0.13503216207027435 -0.15503537654876709 -0.97863703966140747
vn 0.70830696821212769 -0.20344372093677521 -0.67595255374908447
vn -4.5213302655611187e-05 -0.3089236319065094 -0.95108681917190552
vn 0.99975675344467163 0.020988812670111656 -0.0067791775800287724
vn 0.7083471417427063 0.23405668139457703 0.66592931747436523
vn -0.00018983507470693439 0.31408253312110901 0.94939571619033813
vn -0.70834720134735107 0.20591285824775696 0.67516237497329712
vn -0.9997628927230835 -0.020677443593740463 0.0068277902901172638
vn -0.7082551121711731 -0.23251380026340485 -0.66656738519668579
vn 0.70828485488891602 -0.40247121453285217 -0.57995641231536865
vn 5.7013625337276608e-05 -0.58775681257247925 -0.80903768539428711
vn 0.99976325035095215 0.017622882500290871 -0.0127592533826828
vn 0.7082521915435791 0.42735749483108521 0.56191140413284302
vn -6.2321079894900322e-05 0.58897995948791504 0.80814772844314575
vn -0.70824867486953735 0.4031950831413269 0.57949763536453247
vn -0.99976390600204468 -0.017566785216331482 0.012786177918314934
vn -0.70834201574325562 -0.4272339940071106 -0.56189215183258057
vn 0.70830297470092773 -0.56201028823852539 -0.42714327573776245
vn 9.7531510618864559e-06 -0.80907917022705078 -0.58769965171813965
vn 0.99976092576980591 0.012862503528594971 -0.017679566517472267
vn 0.70830506086349487 0.57851338386535645 0.40450739860534668
vn 0.00025719549739733338 0.80623793601989746 0.59159135818481445
vn -0.70837074518203735 0.56174391508102417 0.42738118767738342
vn -0.99975872039794922 -0.012924347072839737 0.017760548740625381
vn -0.70832300186157227 -0.57998877763748169 -0.40235757827758789
vn 0.70830929279327393 -0.66646403074264526 -0.23264463245868683
vn -8.2317619671812281e-06 -0.95105832815170288 -0.30901157855987549
vn 0.99976062774658203 0.0067427163012325764 -0.020816758275032043
vn 0.7083125114440918 0.67618310451507568 0.2026570588350296
vn 0.00020054988272022456 0.9501640796661377 0.31175017356872559
vn -0.70838314294815063 0.66570192575454712 0.23459382355213165
vn -0.99976181983947754 -0.0067619550973176956 0.020748661831021309
vn -0.7083011269569397 -0.67591798305511475 -0.20357879996299744
vn 0 0 1
vn 0 0 1
vn 0 0 1
vn 0 0 1
vn 0 0 1
vn 0 0 1
vn 0 0 1
vn 0 0 1
vn 0 0.6039203405380249 -0.79704463481903076
vn 0 0.99059754610061646 -0.13680851459503174
vn 0 0.7972027063369751 0.60371178388595581
vn 0 0.13690787553787231 0.99058377742767334
vn 0 -0.6039203405380249 0.79704463481903076
vn 0 -0.99059754610061646 0.13680851459503174
vn 0 -0.7972027063369751 -0.60371178388595581
vn 0 -0.13690787553787231 -0.99058377742767334
vn 0 0.13690787553787231 -0.99058377742767334
vn 0 -0.6039203405380249 -0.79704463481903076
vn 0 -0.99059754610061646 -0.13680851459503174
vn 0 -0.7972027063369751 0.60371184349060059
vn 0 -0.13690787553787231 0.99058377742767334
vn 0 0.6039203405380249 0.79704463481903076
vn 0 0.99059754610061646 0.13680851459503174
vn 0 0.7972027063369751 -0.60371184349060059
vn 0.79720610380172729 0 -0.60370725393295288
vn 0.13691481947898865 0 -0.99058282375335693
vn -0.60393047332763672 0 -0.79703694581985474
vn -0.99059754610061646 0 -0.13680851459503174
vn -0.79720610380172729 0 0.60370725393295288
vn -0.13691481947898865 0 0.99058282375335693
vn 0.60393047332763672 0 0.79703694581985474
vn 0.99059754610061646 0 0.13680851459503174
vn 0.99059754610061646 0 -0.13680851459503174
vn 0.79720610380172729 0 0.60370731353759766
vn 0.13691481947898865 0 0.99058282375335693
vn -0.60393047332763672 0 0.79703694581985474
vn -0.99059754610061646 0 0.13680851459503174
vn -0.79720610380172729 0 -0.60370731353759766
vn -0.13691481947898865 0 -0.99058282375335693
vn 0.60393047332763672 0 -0.79703694581985474
vn 1 0 0
vn 1 0 0
vn 1 0 0
vn 1 0 0
vn 1 0 0
vn 1 0 0
vn 1 0 0
vn 1 0 0
vn -0.78995120525360107 0.12514945864677429 -0.60026216506958008
vn -0.9786226749420166 0.15500593185424805 0.13516966998577118
vn -0.13681574165821075 0.021683093160390854 -0.99035912752151489
vn 0.59985053539276123 -0.095111951231956482 -0.79443883895874023
vn 0.97862744331359863 -0.15501277148723602 -0.13512694835662842
vn 0.7899700403213501 -0.1251818984746933 0.6002306342124939
vn 0.13681769371032715 -0.021695423871278763 0.99035865068435669
vn -0.59985524415969849 0.095071978867053986 0.79444003105163574
vn 0 1 0
vn 0 1 0
vn 0 1 0
vn 0 1 0
vn 0 1 0
vn 0 1 0
vn 0 1 0
vn 0 1 0
vn 0.60026174783706665 -0.78995013236999512 -0.12515799701213837
vn -0.13512411713600159 -0.9786260724067688 -0.15502384305000305
vn 0.99037027359008789 -0.13673704862594604 -0.021670609712600708
vn 0.79453045129776001 0.59977096319198608 0.094847880303859711
vn 0.13493333756923676 0.97914379835128784 0.1518898606300354
vn -0.60030567646026611 0.79018300771713257 0.12346634268760681
vn -0.99037295579910278 0.13672661781311035 0.021614892408251762
vn -0.79452395439147949 -0.5997510552406311 -0.095028072595596313
vn 1 0 0
vn 1 0 0
vn 1 0 0
vn 1 0 0
vn 1 0 0
vn 1 0 0
vn 1 0 0
vn 1 0 0
vn -1 0 0
vn -1 0 0
vn -1 0 0
vn -1 0 0
vn -1 0 0
vn -1 0 0
vn -1 0 0
vn -1 0 0
vn 0 1 0
vn 0 1 0
vn 0 1 0
vn 0 1 0
vn 0 1 0
vn 0 1 0
vn 0 1 0
vn 0 1 0
vn 0 -1 0
vn 0 -1 0
vn 0 -1 0
vn 0 -1 0
vn 0 -1 0
vn 0 -1 0
vn 0 -1 0
vn 0 -1 0
# 192 elements written
f 129//129 130//130 131//131 
f 129//129 131//131 132//132 
f 129//129 132//132 133//133 
f 129//129 133//133 134//134 
f 129//129 134//134 135//135 
f 129//129 135//135 136//136 
f 8//8 7//7 9//9 
f 8//8 9//9 10//10 
f 7//7 6//6 11//11 
f 7//7 11//11 9//9 
f 6//6 5//5 12//12 
f 6//6 12//12 11//11 
f 5//5 4//4 13//13 
f 5//5 13//13 12//12 
f 4//4 3//3 14//14 
f 4//4 14//14 13//13 
f 3//3 2//2 15//15 
f 3//3 15//15 14//14 
f 2//2 1//1 16//16 
f 2//2 16//16 15//15 
f 1//1 8//8 10//10 
f 1//1 10//10 16//16 
f 10//10 9//9 17//17 
f 10//10 17//17 18//18 
f 9//9 11//11 19//19 
f 9//9 19//19 17//17 
f 11//11 12//12 20//20 
f 11//11 20//20 19//19 
f 12//12 13//13 21//21 
f 12//12 21//21 20//20 
f 13//13 14//14 22//22 
f 13//13 22//22 21//21 
f 14//14 15//15 23//23 
f 14//14 23//23 22//22 
f 15//15 16//16 24//24 
f 15//15 24//24 23//23 
f 16//16 10//10 18//18 
f 16//16 18//18 24//24 
f 18//18 17//17 25//25 
f 18//18 25//25 26//26 
f 17//17 19//19 27//27 
f 17//17 27//27 25//25 
f 19//19 20//20 28//28 
f 19//19 28//28 27//27 
f 20//20 21//21 29//29 
f 20//20 29//29 28//28 
f 21//21 22//22 30//30 
f 21//21 30//30 29//29 
f 22//22 23//23 31//31 
f 22//22 31//31 30//30 
f 23//23 24//24 32//32 
f 23//23 32//32 31//31 
f 24//24 18//18 26//26 
f 24//24 26//26 32//32 
f 26//26 25//25 33//33 
f 26//26 33//33 34//34 
f 25//25 27//27 35//35 
f 25//25 35//35 33//33 
f 27//27 28//28 36//36 
f 27//27 36//36 35//35 
f 28//28 29//29 37//37 
f 28//28 37//37 36//36 
f 29//29 30//30 38//38 
f 29//29 38//38 37//37 
f 30//30 31//31 39//39 
f 30//30 39//39 38//38 
f 31//31 32//32 40//40 
f 31//31 40//40 39//39 
f 32//32 26//26 34//34 
f 32//32 34//34 40//40 
f 34//34 33//33 137//137 
f 34//34 137//137 138//138 
f 33//33 35//35 139//139 
f 33//33 139//139 137//137 
f 35//35 36//36 140//140 
f 35//35 140//140 139//139 
f 36//36 37//37 141//141 
f 36//36 141//141 140//140 
f 37//37 38//38 142//142 
f 37//37 142//142 141//141 
f 38//38 39//39 143//143 
f 38//38 143//143 142//142 
f 39//39 40//40 144//144 
f 39//39 144//144 143//143 
f 40//40 34//34 138//138 
f 40//40 138//138 144//144 
f 42//42 41//41 43//43 
f 42//42 43//43 44//44 
f 42//42 44//44 45//45 
f 42//42 45//45 46//46 
f 42//42 46//46 47//47 
f 42//42 47//47 48//48 
f 145//145 146//146 147//147 
f 145//145 147//147 148//148 
f 145//145 148//148 149//149 
f 145//145 149//149 150//150 
f 145//145 150//150 151//151 
f 145//145 151//151 152//152 
f 56//56 55//55 57//57 
f 56//56 57//57 58//58 
f 55//55 54//54 59//59 
f 55//55 59//59 57//57 
f 54//54 53//53 60//60 
f 54//54 60//60 59//59 
f 53//53 52//52 61//61 
f 53//53 61//61 60//60 
f 52//52 51//51 62//62 
f 52//52 62//62 61//61 
f 51//51 50//50 63//63 
f 51//51 63//63 62//62 
f 50//50 49//49 64//64 
f 50//50 64//64 63//63 
f 49//49 56//56 58//58 
f 49//49 58//58 64//64 
f 58//58 57//57 65//65 
f 58//58 65//65 66//66 
f 57//57 59//59 67//67 
f 57//57 67//67 65//65 
f 59//59 60//60 68//68 
f 59//59 68//68 67//67 
f 60//60 61//61 69//69 
f 60//60 69//69 68//68 
f 61//61 62//62 70//70 
f 61//61 70//70 69//69 
f 62//62 63//63 71//71 
f 62//62 71//71 70//70 
f 63//63 64//64 72//72 
f 63//63 72//72 71//71 
f 64//64 58//58 66//66 
f 64//64 66//66 72//72 
f 66//66 65//65 73//73 
f 66//66 73//73 74//74 
f 65//65 67//67 75//75 
f 65//65 75//75 73//73 
f 67//67 68//68 76//76 
f 67//67 76//76 75//75 
f 68//68 69//69 77//77 
f 68//68 77//77 76//76 
f 69//69 70//70 78//78 
f 69//69 78//78 77//77 
f 70//70 71//71 79//79 
f 70//70 79//79 78//78 
f 71//71 72//72 80//80 
f 71//71 80//80 79//79 
f 72//72 66//66 74//74 
f 72//72 74//74 80//80 
f 74//74 73//73 81//81 
f 74//74 81//81 82//82 
f 73//73 75//75 83//83 
f 73//73 83//83 81//81 
f 75//75 76//76 84//84 
f 75//75 84//84 83//83 
f 76//76 77//77 85//85 
f 76//76 85//85 84//84 
f 77//77 78//78 86//86 
f 77//77 86//86 85//85 
f 78//78 79//79 87//87 
f 78//78 87//87 86//86 
f 79//79 80//80 88//88 
f 79//79 88//88 87//87 
f 80//80 74//74 82//82 
f 80//80 82//82 88//88 
f 82//82 81//81 153//153 
f 82//82 153//153 154//154 
f 81//81 83//83 155//155 
f 81//81 155//155 153//153 
f 83//83 84//84 156//156 
f 83//83 156//156 155//155 
f 84//84 85//85 157//157 
f 84//84 157//157 156//156 
f 85//85 86//86 158//158 
f 85//85 158//158 157//157 
f 86//86 87//87 159//159 
f 86//86 159//159 158//158 
f 87//87 88//88 160//160 
f 87//87 160//160 159//159 
f 88//88 82//82 154//154 
f 88//88 154//154 160//160 
f 90//90 89//89 91//91 
f 90//90 91//91 92//92 
f 90//90 92//92 93//93 
f 90//90 93//93 94//94 
f 90//90 94//94 95//95 
f 90//90 95//95 96//96 
f 161//161 162//162 163//163 
f 161//161 163//163 164//164 
f 161//161 164//164 165//165 
f 161//161 165//165 166//166 
f 161//161 166//166 167//167 
f 161//161 167//167 168//168 
f 169//169 170//170 171//171 
f 169//169 171//171 172//172 
f 169//169 172//172 173//173 
f 169//169 173//173 174//174 
f 169//169 174//174 175//175 
f 169//169 175//175 176//176 
f 104//104 103//103 106//106 
f 104//104 106//106 105//105 
f 103//103 102//102 107//107 
f 103//103 107//107 106//106 
f 102//102 101//101 108//108 
f 102//102 108//108 107//107 
f 101//101 100//100 109//109 
f 101//101 109//109 108//108 
f 100//100 99//99 110//110 
f 100//100 110//110 109//109 
f 99//99 98//98 111//111 
f 99//99 111//111 110//110 
f 98//98 97//97 112//112 
f 98//98 112//112 111//111 
f 97//97 104//104 105//105 
f 97//97 105//105 112//112 
f 177//177 178//178 179//179 
f 177//177 179//179 180//180 
f 177//177 180//180 181//181 
f 177//177 181//181 182//182 
f 177//177 182//182 183//183 
f 177//177 183//183 184//184 
f 185//185 186//186 187//187 
f 185//185 187//187 188//188 
f 185//185 188//188 189//189 
f 185//185 189//189 190//190 
f 185//185 190//190 191//191 
f 185//185 191//191 192//192 
f 120//120 119//119 122//122 
f 120//120 122//122 121//121 
f 119//119 118//118 123//123 
f 119//119 123//123 122//122 
f 118//118 117//117 124//124 
f 118//118 124//124 123//123 
f 117//117 116//116 125//125 
f 117//117 125//125 124//124 
f 116//116 115//115 126//126 
f 116//116 126//126 125//125 
f 115//115 114//114 127//127 
f 115//115 127//127 126//126 
f 114//114 113//113 128//128 
f 114//114 128//128 127//127 
f 113//113 120//120 121//121 
f 113//113 121//121 128//128 
