# file written by OpenSceneGraph

mtllib g6.mtl


o _Geometry_0

v 1065.697998046875 25626.697265625 34527.80078125
v 1072.199951171875 25611 34527.80078125
v 1065.697998046875 25595.302734375 34527.80078125
v 1050 25588.80078125 34527.80078125
v 1034.302001953125 25595.302734375 34527.80078125
v 1027.800048828125 25611 34527.80078125
v 1034.302001953125 25626.697265625 34527.80078125
v 1050 25633.19921875 34527.80078125
v 1034.302001953125 25624.84375 34539.51171875
v 1050 25631.02734375 34541.51953125
v 1027.800048828125 25609.9140625 34534.66015625
v 1034.302001953125 25594.984375 34529.80859375
v 1065.697998046875 25594.984375 34529.80859375
v 1072.199951171875 25609.9140625 34534.66015625
v 1065.697998046875 25624.84375 34539.51171875
v 1034.302001953125 25619.458984375 34550.07421875
v 1050 25624.720703125 34553.8984375
v 1027.800048828125 25606.759765625 34540.84765625
v 1034.302001953125 25594.060546875 34531.62109375
v 1065.697998046875 25594.060546875 34531.62109375
v 1072.199951171875 25606.759765625 34540.84765625
v 1065.697998046875 25619.458984375 34550.07421875
v 1034.302001953125 25611.076171875 34558.4609375
v 1050 25614.8984375 34563.71875
v 1027.800048828125 25601.849609375 34545.76171875
v 1034.302001953125 25592.62109375 34533.05859375
v 1065.697998046875 25592.62109375 34533.05859375
v 1072.199951171875 25601.849609375 34545.76171875
v 1065.697998046875 25611.076171875 34558.4609375
v 1034.302001953125 25600.51171875 34563.84375
v 1050 25602.51953125 34570.02734375
v 1027.800048828125 25595.66015625 34548.9140625
v 1034.302001953125 25590.80859375 34533.984375
v 1065.697998046875 25590.80859375 34533.984375
v 1072.199951171875 25595.66015625 34548.9140625
v 1065.697998046875 25600.51171875 34563.84375
v 1034.302001953125 25588.80078125 34565.69921875
v 1050 25588.80078125 34572.19921875
v 1027.800048828125 25588.80078125 34550
v 1034.302001953125 25588.80078125 34534.30078125
v 1065.697998046875 25588.80078125 34534.30078125
v 1072.199951171875 25588.80078125 34550
v 1065.697998046875 25588.80078125 34565.69921875
v 1034.302001953125 24503.19921875 34565.69921875
v 1050 24503.19921875 34572.19921875
v 1065.697998046875 24503.19921875 34565.69921875
v 1072.199951171875 24503.19921875 34550
v 1065.697998046875 24503.19921875 34534.30078125
v 1050 24503.19921875 34527.80078125
v 1034.302001953125 24503.19921875 34534.30078125
v 1027.800048828125 24503.19921875 34550
v 1036.156982421875 24491.48828125 34534.30078125
v 1029.9730224609375 24489.478515625 34550
v 1051.0870361328125 24496.33984375 34527.80078125
v 1066.0159912109375 24501.19140625 34534.30078125
v 1066.0159912109375 24501.19140625 34565.69921875
v 1051.0870361328125 24496.33984375 34572.19921875
v 1036.156982421875 24491.48828125 34565.69921875
v 1041.5400390625 24480.923828125 34534.30078125
v 1036.280029296875 24477.1015625 34550
v 1054.239990234375 24490.15234375 34527.80078125
v 1066.93994140625 24499.37890625 34534.30078125
v 1066.93994140625 24499.37890625 34565.69921875
v 1054.239990234375 24490.15234375 34572.19921875
v 1041.5400390625 24480.923828125 34565.69921875
v 1049.9239501953125 24472.5390625 34534.30078125
v 1046.10205078125 24467.279296875 34550
v 1059.1510009765625 24485.240234375 34527.80078125
v 1068.3780517578125 24497.939453125 34534.30078125
v 1068.3780517578125 24497.939453125 34565.69921875
v 1059.1510009765625 24485.240234375 34572.19921875
v 1049.9239501953125 24472.5390625 34565.69921875
v 1060.489013671875 24467.15625 34534.30078125
v 1058.47998046875 24460.97265625 34550
v 1065.3399658203125 24482.0859375 34527.80078125
v 1070.1910400390625 24497.015625 34534.30078125
v 1070.1910400390625 24497.015625 34565.69921875
v 1065.3399658203125 24482.0859375 34572.19921875
v 1060.489013671875 24467.15625 34565.69921875
v 1072.199951171875 24465.30078125 34534.30078125
v 1072.199951171875 24458.80078125 34550
v 1072.199951171875 24481 34527.80078125
v 1072.199951171875 24496.69921875 34534.30078125
v 1072.199951171875 24496.69921875 34565.69921875
v 1072.199951171875 24481 34572.19921875
v 1072.199951171875 24465.30078125 34565.69921875
v 1061.8089599609375 25599.19140625 33919
v 1050 25594.30078125 33919
v 1038.1910400390625 25599.19140625 33919
v 1033.300048828125 25611 33919
v 1038.1910400390625 25622.80859375 33919
v 1050 25627.69921875 33919
v 1061.8089599609375 25622.80859375 33919
v 1066.699951171875 25611 33919
v 1066.699951171875 25611 34527.80078125
v 1061.8089599609375 25622.80859375 34527.80078125
v 1050 25627.69921875 34527.80078125
v 1038.1910400390625 25622.80859375 34527.80078125
v 1033.300048828125 25611 34527.80078125
v 1038.1910400390625 25599.19140625 34527.80078125
v 1050 25594.30078125 34527.80078125
v 1061.8089599609375 25599.19140625 34527.80078125
v 1061.8089599609375 25588.80078125 34538.19140625
v 1050 25588.80078125 34533.30078125
v 1038.1910400390625 25588.80078125 34538.19140625
v 1033.300048828125 25588.80078125 34550
v 1038.1910400390625 25588.80078125 34561.80859375
v 1050 25588.80078125 34566.69921875
v 1061.8089599609375 25588.80078125 34561.80859375
v 1066.699951171875 25588.80078125 34550
v 1066.699951171875 24503.19921875 34550
v 1061.8089599609375 24503.19921875 34561.80859375
v 1050 24503.19921875 34566.69921875
v 1038.1910400390625 24503.19921875 34561.80859375
v 1033.300048828125 24503.19921875 34550
v 1038.1910400390625 24503.19921875 34538.19140625
v 1050 24503.19921875 34533.30078125
v 1061.8089599609375 24503.19921875 34538.19140625
v 1072.199951171875 24469.19140625 34538.19140625
v 1072.199951171875 24464.30078125 34550
v 1072.199951171875 24469.19140625 34561.80859375
v 1072.199951171875 24481 34566.69921875
v 1072.199951171875 24492.80859375 34561.80859375
v 1072.199951171875 24497.69921875 34550
v 1072.199951171875 24492.80859375 34538.19140625
v 1072.199951171875 24481 34533.30078125
v 1700 24481 34533.30078125
v 1700 24492.80859375 34538.19140625
v 1700 24497.69921875 34550
v 1700 24492.80859375 34561.80859375
v 1700 24481 34566.69921875
v 1700 24469.19140625 34561.80859375
v 1700 24464.30078125 34550
v 1700 24469.19140625 34538.19140625
v 1065.697998046875 25626.697265625 34527.80078125
v 1072.199951171875 25611 34527.80078125
v 1065.697998046875 25595.302734375 34527.80078125
v 1050 25588.80078125 34527.80078125
v 1050 25588.80078125 34527.80078125
v 1050 25588.80078125 34527.80078125
v 1034.302001953125 25595.302734375 34527.80078125
v 1027.800048828125 25611 34527.80078125
v 1034.302001953125 25626.697265625 34527.80078125
v 1050 25633.19921875 34527.80078125
v 1034.302001953125 25588.80078125 34565.69921875
v 1050 25588.80078125 34572.19921875
v 1027.800048828125 25588.80078125 34550
v 1034.302001953125 25588.80078125 34534.30078125
v 1065.697998046875 25588.80078125 34534.30078125
v 1072.199951171875 25588.80078125 34550
v 1065.697998046875 25588.80078125 34565.69921875
v 1034.302001953125 24503.19921875 34565.69921875
v 1050 24503.19921875 34572.19921875
v 1065.697998046875 24503.19921875 34565.69921875
v 1072.199951171875 24503.19921875 34550
v 1072.199951171875 24503.19921875 34550
v 1072.199951171875 24503.19921875 34550
v 1065.697998046875 24503.19921875 34534.30078125
v 1050 24503.19921875 34527.80078125
v 1034.302001953125 24503.19921875 34534.30078125
v 1027.800048828125 24503.19921875 34550
v 1072.199951171875 24465.30078125 34534.30078125
v 1072.199951171875 24458.80078125 34550
v 1072.199951171875 24481 34527.80078125
v 1072.199951171875 24496.69921875 34534.30078125
v 1072.199951171875 24496.69921875 34565.69921875
v 1072.199951171875 24481 34572.19921875
v 1072.199951171875 24465.30078125 34565.69921875
v 1061.8089599609375 25599.19140625 33919
v 1050 25594.30078125 33919
v 1038.1910400390625 25599.19140625 33919
v 1033.300048828125 25611 33919
v 1038.1910400390625 25622.80859375 33919
v 1050 25627.69921875 33919
v 1061.8089599609375 25622.80859375 33919
v 1066.699951171875 25611 33919
v 1066.699951171875 25611 34527.80078125
v 1061.8089599609375 25622.80859375 34527.80078125
v 1050 25627.69921875 34527.80078125
v 1038.1910400390625 25622.80859375 34527.80078125
v 1033.300048828125 25611 34527.80078125
v 1038.1910400390625 25599.19140625 34527.80078125
v 1050 25594.30078125 34527.80078125
v 1061.8089599609375 25599.19140625 34527.80078125
v 1061.8089599609375 25588.80078125 34538.19140625
v 1050 25588.80078125 34533.30078125
v 1038.1910400390625 25588.80078125 34538.19140625
v 1033.300048828125 25588.80078125 34550
v 1038.1910400390625 25588.80078125 34561.80859375
v 1050 25588.80078125 34566.69921875
v 1061.8089599609375 25588.80078125 34561.80859375
v 1066.699951171875 25588.80078125 34550
v 1066.699951171875 24503.19921875 34550
v 1061.8089599609375 24503.19921875 34561.80859375
v 1050 24503.19921875 34566.69921875
v 1038.1910400390625 24503.19921875 34561.80859375
v 1033.300048828125 24503.19921875 34550
v 1038.1910400390625 24503.19921875 34538.19140625
v 1050 24503.19921875 34533.30078125
v 1061.8089599609375 24503.19921875 34538.19140625
v 1072.199951171875 24469.19140625 34538.19140625
v 1072.199951171875 24464.30078125 34550
v 1072.199951171875 24469.19140625 34561.80859375
v 1072.199951171875 24481 34566.69921875
v 1072.199951171875 24492.80859375 34561.80859375
v 1072.199951171875 24497.69921875 34550
v 1072.199951171875 24492.80859375 34538.19140625
v 1072.199951171875 24481 34533.30078125
v 1700 24481 34533.30078125
v 1700 24492.80859375 34538.19140625
v 1700 24497.69921875 34550
v 1700 24492.80859375 34561.80859375
v 1700 24481 34566.69921875
v 1700 24469.19140625 34561.80859375
v 1700 24464.30078125 34550
v 1700 24469.19140625 34538.19140625
# 216 elements written

vn 0.60024207830429077 0.78998285531997681 0.12504607439041138
vn 0.9903709888458252 0.13673651218414307 0.021641576662659645
vn 0.79452162981033325 -0.59974873065948486 -0.095062762498855591
vn 0 -1 0
vn -0.70399034023284912 -0.70144659280776978 -0.11122164130210876
vn -0.99037027359008789 -0.13673578202724457 -0.021680908277630806
vn -0.79452115297317505 0.59976983070373535 0.094932638108730316
vn -0.13510620594024658 0.97864508628845215 0.1549198180437088
vn -0.70830386877059937 0.67591971158981323 0.2035638839006424
vn -1.9669490939122625e-05 0.95106309652328491 0.30899685621261597
vn -0.99976056814193726 0.006763057317584753 -0.020807923749089241
vn -0.7641139030456543 -0.61741232872009277 -0.186900794506073
vn 0.76411604881286621 -0.60929101705551147 -0.21187499165534973
vn 0.99976086616516113 -0.00675926823168993 0.020794332027435303
vn 0.70831912755966187 0.66645443439483643 0.23264235258102417
vn -0.70831978321075439 0.57995867729187012 0.40240657329559326
vn 4.0806853576214053e-06 0.80900812149047852 0.58779752254486084
vn -0.99976027011871338 0.012876452878117561 -0.017707191407680511
vn -0.76410901546478271 -0.52934741973876953 -0.36868518590927124
vn 0.76412606239318848 -0.51393437385559082 -0.38984972238540649
vn 0.99976152181625366 -0.012829544022679329 0.017672043293714523
vn 0.70831942558288574 0.56193530559539795 0.42721438407897949
vn -0.70830249786376953 0.42722132802009583 0.56195145845413208
vn 3.0410736144403927e-05 0.58780843019485474 0.80900013446807861
vn -0.99976217746734619 0.017659816890954971 -0.01279311440885067
vn -0.76408106088638306 -0.38982665538787842 -0.514018714427948
vn 0.76408213376998901 -0.36855858564376831 -0.52947431802749634
vn 0.99976211786270142 -0.017628775909543037 0.01284635066986084
vn 0.70827770233154297 0.40254074335098267 0.57991695404052734
vn -0.70828992128372192 0.23266145586967468 0.66647881269454956
vn 1.3040214241755166e-07 0.30902856588363647 0.95105272531509399
vn -0.99975979328155518 0.020848052576184273 -0.0067596682347357273
vn -0.7641569972038269 -0.21179957687854767 -0.60926598310470581
vn 0.76414752006530762 -0.18686668574810028 -0.61738103628158569
vn 0.99975961446762085 -0.020850455388426781 0.0067809419706463814
vn 0.70828437805175781 0.20353038609027863 0.67595028877258301
vn 0 -1 0
vn 0 -1 0
vn 0 -1 0
vn 0 -1 0
vn 0 -1 0
vn 0 -1 0
vn 0 -1 0
vn -0.78995126485824585 -0.12511417269706726 0.60026949644088745
vn -0.13668881356716156 -0.021651137620210648 0.99037742614746094
vn 0.59972196817398071 0.094921477138996124 0.79455870389938354
vn 1 0 0
vn 0.70143669843673706 0.11098413169384003 -0.70403772592544556
vn 0.13669769465923309 0.021628858521580696 -0.99037671089172363
vn -0.59970241785049438 -0.094998687505722046 -0.79456418752670288
vn -0.97863352298736572 -0.15498897433280945 -0.1351105123758316
vn -0.67589324712753296 -0.20351226627826691 -0.70834392309188843
vn -0.95105201005935669 -0.30903080105781555 2.417916448393953e-06
vn -0.0067504164762794971 0.020800298079848289 -0.99976086616516113
vn 0.61737179756164551 0.18682236969470978 -0.76416587829589844
vn 0.60926878452301025 0.21176077425479889 0.76416546106338501
vn 0.0067652519792318344 -0.020792042836546898 0.99976098537445068
vn -0.6664312481880188 -0.23264157772064209 0.70834124088287354
vn -0.57992053031921387 -0.40243211388587952 -0.70833641290664673
vn -0.80901622772216797 -0.58778625726699829 3.4339141166128684e-06
vn -0.01283567026257515 0.017680216580629349 -0.99976128339767456
vn 0.52943724393844604 0.36846485733985901 -0.76415300369262695
vn 0.51401519775390625 0.389687180519104 0.76415455341339111
vn 0.012844866141676903 -0.017666555941104889 0.99976146221160889
vn -0.56194800138473511 -0.42717379331588745 0.70833402872085571
vn -0.42718473076820374 -0.56193274259567261 -0.7083393931388855
vn -0.58779412508010864 -0.80901056528091431 -9.1772153609781526e-06
vn -0.017673525959253311 0.012853266671299934 -0.99976122379302979
vn 0.38970163464546204 0.51398879289627075 -0.76416498422622681
vn 0.36848142743110657 0.52941262722015381 0.76416212320327759
vn 0.017694311216473579 -0.012846888042986393 0.99976086616516113
vn -0.40241158008575439 -0.5799216628074646 0.7083471417427063
vn -0.2326335608959198 -0.66642910242080688 -0.70834594964981079
vn -0.30901232361793518 -0.95105808973312378 4.3631080188788474e-06
vn -0.020807784050703049 0.0067679029889404774 -0.99976056814193726
vn 0.21165695786476135 0.60930287837982178 -0.76416707038879395
vn 0.18671330809593201 0.61739575862884521 0.76417315006256104
vn 0.0207871925085783 -0.0067445798777043819 0.99976116418838501
vn -0.2035239040851593 -0.67589116096496582 0.70834255218505859
vn 1 0 0
vn 1 0 0
vn 1 0 0
vn 1 0 0
vn 1 0 0
vn 1 0 0
vn 1 0 0
vn 0.79717308282852173 -0.60375088453292847 0
vn 0.13675150275230408 -0.99060535430908203 0
vn -0.60372108221054077 -0.7971956729888916 0
vn -0.99060338735580444 -0.13676571846008301 0
vn -0.79717308282852173 0.60375088453292847 0
vn -0.13675150275230408 0.99060535430908203 0
vn 0.60372108221054077 0.7971956729888916 0
vn 0.99060338735580444 0.13676571846008301 0
vn 0.99060338735580444 -0.13676571846008301 0
vn 0.79717308282852173 0.60375088453292847 0
vn 0.13675150275230408 0.99060535430908203 0
vn -0.60372108221054077 0.7971956729888916 0
vn -0.99060338735580444 0.13676571846008301 0
vn -0.79717308282852173 -0.60375088453292847 0
vn -0.13675150275230408 -0.99060535430908203 0
vn 0.60372108221054077 -0.7971956729888916 0
vn 0.79717308282852173 0 -0.60375088453292847
vn 0.13675151765346527 0 -0.99060541391372681
vn -0.60372108221054077 0 -0.7971956729888916
vn -0.99060338735580444 0 -0.1367657333612442
vn -0.79717308282852173 0 0.60375088453292847
vn -0.13675151765346527 0 0.99060541391372681
vn 0.60372108221054077 0 0.7971956729888916
vn 0.99060338735580444 0 0.1367657333612442
vn 0.99060338735580444 0 -0.1367657333612442
vn 0.79717308282852173 0 0.60375088453292847
vn 0.13675151765346527 0 0.99060541391372681
vn -0.60372108221054077 0 0.7971956729888916
vn -0.99060338735580444 0 0.1367657333612442
vn -0.79717308282852173 0 -0.60375088453292847
vn -0.13675151765346527 0 -0.99060541391372681
vn 0.60372108221054077 0 -0.7971956729888916
vn 0 -0.60371631383895874 -0.79719924926757812
vn 0 -0.99060112237930298 -0.13678248226642609
vn 0 -0.79715663194656372 0.60377246141433716
vn 0 -0.13675567507743835 0.99060481786727905
vn 0 0.60371631383895874 0.79719924926757812
vn 0 0.99060112237930298 0.13678248226642609
vn 0 0.79715663194656372 -0.60377246141433716
vn 0 0.13675567507743835 -0.99060481786727905
vn 0 -0.13675567507743835 -0.99060481786727905
vn 0 0.60371631383895874 -0.79719924926757812
vn 0 0.99060112237930298 -0.13678248226642609
vn 0 0.79715663194656372 0.60377246141433716
vn 0 0.13675567507743835 0.99060481786727905
vn 0 -0.60371631383895874 0.79719924926757812
vn 0 -0.99060112237930298 0.13678248226642609
vn 0 -0.79715663194656372 -0.60377246141433716
vn 0 0 -1
vn 0 0 -1
vn 0 0 -1
vn 0 0 -1
vn 0.41220882534980774 -0.64414459466934204 -0.64433032274246216
vn -0.41220888495445251 -0.64414459466934204 -0.64433044195175171
vn 0 0 -1
vn 0 0 -1
vn 0 0 -1
vn 0 0 -1
vn -0.60022425651550293 0.12512356042861938 0.78998416662216187
vn 0.13509930670261383 0.15497303009033203 0.97863757610321045
vn -0.99037081003189087 0.021664058789610863 0.13673444092273712
vn -0.79450976848602295 -0.094625495374202728 -0.59983348846435547
vn 0.70400643348693848 -0.11055330187082291 -0.70153611898422241
vn 0.99037307500839233 -0.021547980606555939 -0.13673654198646545
vn 0.79451102018356323 0.095010079443454742 0.59977096319198608
vn 0 1 0
vn 0 1 0
vn 0 1 0
vn 0 1 0
vn 0.64418381452560425 0.64424324035644531 0.41228374838829041
vn 0.64418375492095947 0.64424324035644531 -0.41228371858596802
vn 0 1 0
vn 0 1 0
vn 0 1 0
vn 0 1 0
vn -0.12513568997383118 -0.78994309902191162 -0.60027575492858887
vn -0.15500897169113159 -0.97862952947616577 0.13511636853218079
vn -0.02165721170604229 -0.13669121265411377 -0.99037694931030273
vn 0.094813346862792969 0.59973883628845215 -0.79455876350402832
vn 0.11082047969102859 0.70145142078399658 0.70404887199401855
vn 0.021596843376755714 0.13669969141483307 0.99037712812423706
vn -0.095016315579414368 -0.59969985485076904 0.79456406831741333
vn 0 0 -1
vn 0 0 -1
vn 0 0 -1
vn 0 0 -1
vn 0 0 -1
vn 0 0 -1
vn 0 0 -1
vn 0 0 -1
vn 0 0 1
vn 0 0 1
vn 0 0 1
vn 0 0 1
vn 0 0 1
vn 0 0 1
vn 0 0 1
vn 0 0 1
vn 0 1 0
vn 0 1 0
vn 0 1 0
vn 0 1 0
vn 0 1 0
vn 0 1 0
vn 0 1 0
vn 0 1 0
vn 0 -1 0
vn 0 -1 0
vn 0 -1 0
vn 0 -1 0
vn 0 -1 0
vn 0 -1 0
vn 0 -1 0
vn 0 -1 0
vn -1 0 0
vn -1 0 0
vn -1 0 0
vn -1 0 0
vn -1 0 0
vn -1 0 0
vn -1 0 0
vn -1 0 0
vn 1 0 0
vn 1 0 0
vn 1 0 0
vn 1 0 0
vn 1 0 0
vn 1 0 0
vn 1 0 0
vn 1 0 0
# 216 elements written
f 135//135 136//136 137//137 
f 135//135 137//137 138//138 
f 135//135 138//138 141//141 
f 135//135 141//141 142//142 
f 135//135 142//142 143//143 
f 135//135 143//143 144//144 
f 8//8 7//7 9//9 
f 8//8 9//9 10//10 
f 7//7 6//6 11//11 
f 7//7 11//11 9//9 
f 6//6 5//5 12//12 
f 6//6 12//12 11//11 
f 5//5 140//140 12//12 
f 139//139 3//3 13//13 
f 3//3 2//2 14//14 
f 3//3 14//14 13//13 
f 2//2 1//1 15//15 
f 2//2 15//15 14//14 
f 1//1 8//8 10//10 
f 1//1 10//10 15//15 
f 10//10 9//9 16//16 
f 10//10 16//16 17//17 
f 9//9 11//11 18//18 
f 9//9 18//18 16//16 
f 11//11 12//12 19//19 
f 11//11 19//19 18//18 
f 12//12 140//140 19//19 
f 139//139 13//13 20//20 
f 13//13 14//14 21//21 
f 13//13 21//21 20//20 
f 14//14 15//15 22//22 
f 14//14 22//22 21//21 
f 15//15 10//10 17//17 
f 15//15 17//17 22//22 
f 17//17 16//16 23//23 
f 17//17 23//23 24//24 
f 16//16 18//18 25//25 
f 16//16 25//25 23//23 
f 18//18 19//19 26//26 
f 18//18 26//26 25//25 
f 19//19 140//140 26//26 
f 139//139 20//20 27//27 
f 20//20 21//21 28//28 
f 20//20 28//28 27//27 
f 21//21 22//22 29//29 
f 21//21 29//29 28//28 
f 22//22 17//17 24//24 
f 22//22 24//24 29//29 
f 24//24 23//23 30//30 
f 24//24 30//30 31//31 
f 23//23 25//25 32//32 
f 23//23 32//32 30//30 
f 25//25 26//26 33//33 
f 25//25 33//33 32//32 
f 26//26 140//140 33//33 
f 139//139 27//27 34//34 
f 27//27 28//28 35//35 
f 27//27 35//35 34//34 
f 28//28 29//29 36//36 
f 28//28 36//36 35//35 
f 29//29 24//24 31//31 
f 29//29 31//31 36//36 
f 31//31 30//30 145//145 
f 31//31 145//145 146//146 
f 30//30 32//32 147//147 
f 30//30 147//147 145//145 
f 32//32 33//33 148//148 
f 32//32 148//148 147//147 
f 33//33 140//140 148//148 
f 139//139 34//34 149//149 
f 34//34 35//35 150//150 
f 34//34 150//150 149//149 
f 35//35 36//36 151//151 
f 35//35 151//151 150//150 
f 36//36 31//31 146//146 
f 36//36 146//146 151//151 
f 38//38 37//37 39//39 
f 38//38 39//39 40//40 
f 38//38 40//40 4//4 
f 38//38 4//4 41//41 
f 38//38 41//41 42//42 
f 38//38 42//42 43//43 
f 152//152 153//153 154//154 
f 152//152 154//154 155//155 
f 152//152 155//155 158//158 
f 152//152 158//158 159//159 
f 152//152 159//159 160//160 
f 152//152 160//160 161//161 
f 51//51 50//50 52//52 
f 51//51 52//52 53//53 
f 50//50 49//49 54//54 
f 50//50 54//54 52//52 
f 49//49 48//48 55//55 
f 49//49 55//55 54//54 
f 48//48 157//157 55//55 
f 156//156 46//46 56//56 
f 46//46 45//45 57//57 
f 46//46 57//57 56//56 
f 45//45 44//44 58//58 
f 45//45 58//58 57//57 
f 44//44 51//51 53//53 
f 44//44 53//53 58//58 
f 53//53 52//52 59//59 
f 53//53 59//59 60//60 
f 52//52 54//54 61//61 
f 52//52 61//61 59//59 
f 54//54 55//55 62//62 
f 54//54 62//62 61//61 
f 55//55 157//157 62//62 
f 156//156 56//56 63//63 
f 56//56 57//57 64//64 
f 56//56 64//64 63//63 
f 57//57 58//58 65//65 
f 57//57 65//65 64//64 
f 58//58 53//53 60//60 
f 58//58 60//60 65//65 
f 60//60 59//59 66//66 
f 60//60 66//66 67//67 
f 59//59 61//61 68//68 
f 59//59 68//68 66//66 
f 61//61 62//62 69//69 
f 61//61 69//69 68//68 
f 62//62 157//157 69//69 
f 156//156 63//63 70//70 
f 63//63 64//64 71//71 
f 63//63 71//71 70//70 
f 64//64 65//65 72//72 
f 64//64 72//72 71//71 
f 65//65 60//60 67//67 
f 65//65 67//67 72//72 
f 67//67 66//66 73//73 
f 67//67 73//73 74//74 
f 66//66 68//68 75//75 
f 66//66 75//75 73//73 
f 68//68 69//69 76//76 
f 68//68 76//76 75//75 
f 69//69 157//157 76//76 
f 156//156 70//70 77//77 
f 70//70 71//71 78//78 
f 70//70 78//78 77//77 
f 71//71 72//72 79//79 
f 71//71 79//79 78//78 
f 72//72 67//67 74//74 
f 72//72 74//74 79//79 
f 74//74 73//73 162//162 
f 74//74 162//162 163//163 
f 73//73 75//75 164//164 
f 73//73 164//164 162//162 
f 75//75 76//76 165//165 
f 75//75 165//165 164//164 
f 76//76 157//157 165//165 
f 156//156 77//77 166//166 
f 77//77 78//78 167//167 
f 77//77 167//167 166//166 
f 78//78 79//79 168//168 
f 78//78 168//168 167//167 
f 79//79 74//74 163//163 
f 79//79 163//163 168//168 
f 81//81 80//80 82//82 
f 81//81 82//82 83//83 
f 81//81 83//83 47//47 
f 81//81 47//47 84//84 
f 81//81 84//84 85//85 
f 81//81 85//85 86//86 
f 169//169 170//170 171//171 
f 169//169 171//171 172//172 
f 169//169 172//172 173//173 
f 169//169 173//173 174//174 
f 169//169 174//174 175//175 
f 169//169 175//175 176//176 
f 177//177 178//178 179//179 
f 177//177 179//179 180//180 
f 177//177 180//180 181//181 
f 177//177 181//181 182//182 
f 177//177 182//182 183//183 
f 177//177 183//183 184//184 
f 94//94 93//93 96//96 
f 94//94 96//96 95//95 
f 93//93 92//92 97//97 
f 93//93 97//97 96//96 
f 92//92 91//91 98//98 
f 92//92 98//98 97//97 
f 91//91 90//90 99//99 
f 91//91 99//99 98//98 
f 90//90 89//89 100//100 
f 90//90 100//100 99//99 
f 89//89 88//88 101//101 
f 89//89 101//101 100//100 
f 88//88 87//87 102//102 
f 88//88 102//102 101//101 
f 87//87 94//94 95//95 
f 87//87 95//95 102//102 
f 185//185 186//186 187//187 
f 185//185 187//187 188//188 
f 185//185 188//188 189//189 
f 185//185 189//189 190//190 
f 185//185 190//190 191//191 
f 185//185 191//191 192//192 
f 193//193 194//194 195//195 
f 193//193 195//195 196//196 
f 193//193 196//196 197//197 
f 193//193 197//197 198//198 
f 193//193 198//198 199//199 
f 193//193 199//199 200//200 
f 110//110 109//109 112//112 
f 110//110 112//112 111//111 
f 109//109 108//108 113//113 
f 109//109 113//113 112//112 
f 108//108 107//107 114//114 
f 108//108 114//114 113//113 
f 107//107 106//106 115//115 
f 107//107 115//115 114//114 
f 106//106 105//105 116//116 
f 106//106 116//116 115//115 
f 105//105 104//104 117//117 
f 105//105 117//117 116//116 
f 104//104 103//103 118//118 
f 104//104 118//118 117//117 
f 103//103 110//110 111//111 
f 103//103 111//111 118//118 
f 201//201 202//202 203//203 
f 201//201 203//203 204//204 
f 201//201 204//204 205//205 
f 201//201 205//205 206//206 
f 201//201 206//206 207//207 
f 201//201 207//207 208//208 
f 209//209 210//210 211//211 
f 209//209 211//211 212//212 
f 209//209 212//212 213//213 
f 209//209 213//213 214//214 
f 209//209 214//214 215//215 
f 209//209 215//215 216//216 
f 126//126 125//125 128//128 
f 126//126 128//128 127//127 
f 125//125 124//124 129//129 
f 125//125 129//129 128//128 
f 124//124 123//123 130//130 
f 124//124 130//130 129//129 
f 123//123 122//122 131//131 
f 123//123 131//131 130//130 
f 122//122 121//121 132//132 
f 122//122 132//132 131//131 
f 121//121 120//120 133//133 
f 121//121 133//133 132//132 
f 120//120 119//119 134//134 
f 120//120 134//134 133//133 
f 119//119 126//126 127//127 
f 119//119 127//127 134//134 
