# file written by OpenSceneGraph

mtllib g34.mtl


o _Geometry_0

v 1925.4000244140625 18365.5078125 34740.5078125
v 1925.4000244140625 18340.859375 34800.01171875
v 1925.4000244140625 18365.5078125 34859.51171875
v 1925.4000244140625 18425.009765625 34884.16015625
v 1925.4000244140625 18484.51171875 34859.51171875
v 1925.4000244140625 18509.16015625 34800.01171875
v 1925.4000244140625 18484.51171875 34740.5078125
v 1925.4000244140625 18425.009765625 34715.859375
v 9300 18425.009765625 34715.859375
v 9300 18484.51171875 34740.5078125
v 9300 18509.16015625 34800.01171875
v 9300 18484.51171875 34859.51171875
v 9300 18425.009765625 34884.16015625
v 9300 18365.5078125 34859.51171875
v 9300 18340.859375 34800.01171875
v 9300 18365.5078125 34740.5078125
v 1925.4000244140625 18365.5078125 34740.5078125
v 1925.4000244140625 18340.859375 34800.01171875
v 1925.4000244140625 18365.5078125 34859.51171875
v 1925.4000244140625 18425.009765625 34884.16015625
v 1925.4000244140625 18484.51171875 34859.51171875
v 1925.4000244140625 18509.16015625 34800.01171875
v 1925.4000244140625 18484.51171875 34740.5078125
v 1925.4000244140625 18425.009765625 34715.859375
v 9300 18425.009765625 34715.859375
v 9300 18484.51171875 34740.5078125
v 9300 18509.16015625 34800.01171875
v 9300 18484.51171875 34859.51171875
v 9300 18425.009765625 34884.16015625
v 9300 18365.5078125 34859.51171875
v 9300 18340.859375 34800.01171875
v 9300 18365.5078125 34740.5078125
# 32 elements written

vn 0 -0.60376298427581787 -0.79716390371322632
vn 0 -0.99060392379760742 -0.13676199316978455
vn 0 -0.79717457294464111 0.60374879837036133
vn 0 -0.13678190112113953 0.99060124158859253
vn 0 0.60375386476516724 0.79717087745666504
vn 0 0.99060004949569702 0.13679026067256927
vn 0 0.79717844724655151 -0.6037437915802002
vn 0 0.13678190112113953 -0.99060124158859253
vn 0 -0.13678190112113953 -0.99060124158859253
vn 0 0.60375958681106567 -0.79716652631759644
vn 0 0.99060320854187012 -0.13676731288433075
vn 0 0.79716873168945312 0.6037566065788269
vn 0 0.13678190112113953 0.99060124158859253
vn 0 -0.60375732183456421 0.79716813564300537
vn 0 -0.99060076475143433 0.13678494095802307
vn 0 -0.7971842885017395 -0.60373610258102417
vn -1 0 0
vn -1 0 0
vn -1 0 0
vn -1 0 0
vn -1 0 0
vn -1 0 0
vn -1 0 0
vn -1 0 0
vn 1 0 0
vn 1 0 0
vn 1 0 0
vn 1 0 0
vn 1 0 0
vn 1 0 0
vn 1 0 0
vn 1 0 0
# 32 elements written
f 17//17 18//18 19//19 
f 17//17 19//19 20//20 
f 17//17 20//20 21//21 
f 17//17 21//21 22//22 
f 17//17 22//22 23//23 
f 17//17 23//23 24//24 
f 25//25 26//26 27//27 
f 25//25 27//27 28//28 
f 25//25 28//28 29//29 
f 25//25 29//29 30//30 
f 25//25 30//30 31//31 
f 25//25 31//31 32//32 
f 8//8 7//7 10//10 
f 8//8 10//10 9//9 
f 7//7 6//6 11//11 
f 7//7 11//11 10//10 
f 6//6 5//5 12//12 
f 6//6 12//12 11//11 
f 5//5 4//4 13//13 
f 5//5 13//13 12//12 
f 4//4 3//3 14//14 
f 4//4 14//14 13//13 
f 3//3 2//2 15//15 
f 3//3 15//15 14//14 
f 2//2 1//1 16//16 
f 2//2 16//16 15//15 
f 1//1 8//8 9//9 
f 1//1 9//9 16//16 
