# file written by OpenSceneGraph

mtllib g46.mtl


o _Geometry_0

v -10065.4111328125 30934.587890625 -2987.5
v -10082.150390625 30975 -2987.5
v -10065.4111328125 31015.412109375 -2987.5
v -10025 31032.150390625 -2987.5
v -9984.5888671875 31015.412109375 -2987.5
v -9967.849609375 30975 -2987.5
v -9984.5888671875 30934.587890625 -2987.5
v -10025 30917.849609375 -2987.5
v -10025 30930.55078125 -2885.89990234375
v -9993.5693359375 30943.568359375 -2885.89990234375
v -9980.5498046875 30975 -2885.89990234375
v -9993.5693359375 31006.431640625 -2885.89990234375
v -10025 31019.44921875 -2885.89990234375
v -10056.4306640625 31006.431640625 -2885.89990234375
v -10069.4501953125 30975 -2885.89990234375
v -10056.4306640625 30943.568359375 -2885.89990234375
v -10065.4111328125 31015.412109375 -2541.5
v -10082.150390625 30975 -2541.5
v -10065.4111328125 30934.587890625 -2541.5
v -10025 30917.849609375 -2541.5
v -9984.5888671875 30934.587890625 -2541.5
v -9967.849609375 30975 -2541.5
v -9984.5888671875 31015.412109375 -2541.5
v -10025 31032.150390625 -2541.5
v -10025 31019.44921875 -2643.10009765625
v -9993.5693359375 31006.431640625 -2643.10009765625
v -9980.5498046875 30975 -2643.10009765625
v -9993.5693359375 30943.568359375 -2643.10009765625
v -10025 30930.55078125 -2643.10009765625
v -10056.4306640625 30943.568359375 -2643.10009765625
v -10069.4501953125 30975 -2643.10009765625
v -10056.4306640625 31006.431640625 -2643.10009765625
v -9980.5498046875 30975 -2644.10009765625
v -9993.5693359375 30943.568359375 -2644.10009765625
v -10025 30930.55078125 -2644.10009765625
v -10056.4306640625 30943.568359375 -2644.10009765625
v -10069.4501953125 30975 -2644.10009765625
v -10056.4306640625 31006.431640625 -2644.10009765625
v -10025 31019.44921875 -2644.10009765625
v -9993.5693359375 31006.431640625 -2644.10009765625
v -9957.6484375 30907.6484375 -2885.5
v -10025 30879.75 -2885.5
v -10092.3515625 30907.6484375 -2885.5
v -10120.25 30975 -2885.5
v -10092.3515625 31042.3515625 -2885.5
v -10025 31070.25 -2885.5
v -9957.6484375 31042.3515625 -2885.5
v -9929.75 30975 -2885.5
v -10025 30975 -2765.300048828125
v -9957.6484375 31042.3515625 -2644.10009765625
v -10025 31070.25 -2644.10009765625
v -10092.3515625 31042.3515625 -2644.10009765625
v -10120.25 30975 -2644.10009765625
v -10092.3515625 30907.6484375 -2644.10009765625
v -10025 30879.75 -2644.10009765625
v -9957.6484375 30907.6484375 -2644.10009765625
v -9929.75 30975 -2644.10009765625
v -10025 30975 -2764.300048828125
v -10024.5 30975 -2764.300048828125
v -10025.5 30975 -2764.300048828125
v -10025.5 30975 -2765.300048828125
v -10024.5 30975 -2765.300048828125
v -10024.5 31389.80078125 -2765.300048828125
v -10024.5 31389.80078125 -2764.300048828125
v -10025.5 31389.80078125 -2765.300048828125
v -10025.5 31389.80078125 -2764.300048828125
v -9935.197265625 31389.80078125 -2854.60302734375
v -9898 31389.80078125 -2764.800048828125
v -9935.197265625 31389.80078125 -2674.998046875
v -10025 31389.80078125 -2637.800048828125
v -10114.802734375 31389.80078125 -2674.998046875
v -10152 31389.80078125 -2764.800048828125
v -10114.802734375 31389.80078125 -2854.60302734375
v -10025 31389.80078125 -2891.800048828125
v -10025 31390.80078125 -2891.800048828125
v -10114.802734375 31390.80078125 -2854.60302734375
v -10152 31390.80078125 -2764.800048828125
v -10114.802734375 31390.80078125 -2674.998046875
v -10025 31390.80078125 -2637.800048828125
v -9935.197265625 31390.80078125 -2674.998046875
v -9898 31390.80078125 -2764.800048828125
v -9935.197265625 31390.80078125 -2854.60302734375
v -10065.4111328125 30934.587890625 -2987.5
v -10082.150390625 30975 -2987.5
v -10065.4111328125 31015.412109375 -2987.5
v -10025 31032.150390625 -2987.5
v -9984.5888671875 31015.412109375 -2987.5
v -9967.849609375 30975 -2987.5
v -9984.5888671875 30934.587890625 -2987.5
v -10025 30917.849609375 -2987.5
v -10025 30930.55078125 -2885.89990234375
v -9993.5693359375 30943.568359375 -2885.89990234375
v -9980.5498046875 30975 -2885.89990234375
v -9993.5693359375 31006.431640625 -2885.89990234375
v -10025 31019.44921875 -2885.89990234375
v -10056.4306640625 31006.431640625 -2885.89990234375
v -10069.4501953125 30975 -2885.89990234375
v -10056.4306640625 30943.568359375 -2885.89990234375
v -10065.4111328125 31015.412109375 -2541.5
v -10082.150390625 30975 -2541.5
v -10065.4111328125 30934.587890625 -2541.5
v -10025 30917.849609375 -2541.5
v -9984.5888671875 30934.587890625 -2541.5
v -9967.849609375 30975 -2541.5
v -9984.5888671875 31015.412109375 -2541.5
v -10025 31032.150390625 -2541.5
v -10025 31019.44921875 -2643.10009765625
v -10025 31019.44921875 -2643.10009765625
v -9993.5693359375 31006.431640625 -2643.10009765625
v -9993.5693359375 31006.431640625 -2643.10009765625
v -9980.5498046875 30975 -2643.10009765625
v -9980.5498046875 30975 -2643.10009765625
v -9993.5693359375 30943.568359375 -2643.10009765625
v -9993.5693359375 30943.568359375 -2643.10009765625
v -10025 30930.55078125 -2643.10009765625
v -10025 30930.55078125 -2643.10009765625
v -10056.4306640625 30943.568359375 -2643.10009765625
v -10056.4306640625 30943.568359375 -2643.10009765625
v -10069.4501953125 30975 -2643.10009765625
v -10069.4501953125 30975 -2643.10009765625
v -10056.4306640625 31006.431640625 -2643.10009765625
v -10056.4306640625 31006.431640625 -2643.10009765625
v -9980.5498046875 30975 -2644.10009765625
v -9993.5693359375 30943.568359375 -2644.10009765625
v -10025 30930.55078125 -2644.10009765625
v -10056.4306640625 30943.568359375 -2644.10009765625
v -10069.4501953125 30975 -2644.10009765625
v -10056.4306640625 31006.431640625 -2644.10009765625
v -10025 31019.44921875 -2644.10009765625
v -9993.5693359375 31006.431640625 -2644.10009765625
v -9957.6484375 30907.6484375 -2885.5
v -10025 30879.75 -2885.5
v -10092.3515625 30907.6484375 -2885.5
v -10120.25 30975 -2885.5
v -10092.3515625 31042.3515625 -2885.5
v -10025 31070.25 -2885.5
v -9957.6484375 31042.3515625 -2885.5
v -9929.75 30975 -2885.5
v -9957.6484375 31042.3515625 -2644.10009765625
v -10025 31070.25 -2644.10009765625
v -10092.3515625 31042.3515625 -2644.10009765625
v -10120.25 30975 -2644.10009765625
v -10092.3515625 30907.6484375 -2644.10009765625
v -10025 30879.75 -2644.10009765625
v -9957.6484375 30907.6484375 -2644.10009765625
v -9929.75 30975 -2644.10009765625
v -10024.5 30975 -2764.300048828125
v -10024.5 30975 -2764.300048828125
v -10025.5 30975 -2764.300048828125
v -10025.5 30975 -2764.300048828125
v -10025.5 30975 -2765.300048828125
v -10025.5 30975 -2765.300048828125
v -10024.5 30975 -2765.300048828125
v -10024.5 30975 -2765.300048828125
v -10024.5 31389.80078125 -2765.300048828125
v -10024.5 31389.80078125 -2765.300048828125
v -10024.5 31389.80078125 -2764.300048828125
v -10024.5 31389.80078125 -2764.300048828125
v -10025.5 31389.80078125 -2765.300048828125
v -10025.5 31389.80078125 -2765.300048828125
v -10025.5 31389.80078125 -2764.300048828125
v -10025.5 31389.80078125 -2764.300048828125
v -9935.197265625 31389.80078125 -2854.60302734375
v -9898 31389.80078125 -2764.800048828125
v -9935.197265625 31389.80078125 -2674.998046875
v -10025 31389.80078125 -2637.800048828125
v -10114.802734375 31389.80078125 -2674.998046875
v -10152 31389.80078125 -2764.800048828125
v -10114.802734375 31389.80078125 -2854.60302734375
v -10025 31389.80078125 -2891.800048828125
v -10025 31390.80078125 -2891.800048828125
v -10114.802734375 31390.80078125 -2854.60302734375
v -10152 31390.80078125 -2764.800048828125
v -10114.802734375 31390.80078125 -2674.998046875
v -10025 31390.80078125 -2637.800048828125
v -9935.197265625 31390.80078125 -2674.998046875
v -9898 31390.80078125 -2764.800048828125
v -9935.197265625 31390.80078125 -2854.60302734375
# 178 elements written

vn -0.59915775060653687 -0.79114311933517456 0.12289240211248398
vn -0.98309385776519775 -0.1357380598783493 0.12288886308670044
vn -0.79113000631332397 0.59917569160461426 0.12288925796747208
vn -0.1357232928276062 0.98309516906738281 0.12289489805698395
vn 0.59915775060653687 0.79114311933517456 0.12289240211248398
vn 0.98309385776519775 0.1357380598783493 0.12288886308670044
vn 0.79113000631332397 -0.59917569160461426 0.12288925796747208
vn 0.13572332262992859 -0.98309516906738281 0.12289490550756454
vn -0.13573157787322998 -0.98309415578842163 0.12289385497570038
vn 0.59915703535079956 -0.79114347696304321 0.12289328128099442
vn 0.9830939769744873 -0.13573719561100006 0.12288897484540939
vn 0.79112499952316284 0.59918230772018433 0.12288931012153625
vn 0.13573156297206879 0.98309409618377686 0.12289385497570038
vn -0.59915703535079956 0.79114347696304321 0.12289328128099442
vn -0.9830939769744873 0.13573719561100006 0.12288897484540939
vn -0.79112499952316284 -0.59918230772018433 0.12288931012153625
vn -0.59915775060653687 0.79114311933517456 -0.12289240211248398
vn -0.98309385776519775 0.1357380598783493 -0.12288886308670044
vn -0.79113000631332397 -0.59917569160461426 -0.12288925796747208
vn -0.1357232928276062 -0.98309516906738281 -0.12289489805698395
vn 0.59915775060653687 -0.79114311933517456 -0.12289240211248398
vn 0.98309385776519775 -0.1357380598783493 -0.12288886308670044
vn 0.79113000631332397 0.59917569160461426 -0.12288925796747208
vn 0.13572332262992859 0.98309516906738281 -0.12289490550756454
vn 0.00045189907541498542 0.99806505441665649 -0.062175899744033813
vn 0.70604974031448364 0.70542746782302856 -0.062175877392292023
vn 0.99806523323059082 -0.00045692350249737501 -0.062173604965209961
vn 0.70540142059326172 -0.70607602596282959 -0.062173821032047272
vn -0.00045188830699771643 -0.99806505441665649 -0.06217590719461441
vn -0.70604974031448364 -0.70542746782302856 -0.062175877392292023
vn -0.99806523323059082 0.00045692350249737501 -0.062173604965209961
vn -0.70540142059326172 0.70607602596282959 -0.062173821032047272
vn 0.99060213565826416 0.13677485287189484 0
vn 0.79716664552688599 -0.60375940799713135 0
vn 0.13675890862941742 -0.99060440063476562 0
vn -0.60372591018676758 -0.7971920371055603 0
vn -0.99060213565826416 -0.13677485287189484 0
vn -0.79716664552688599 0.60375940799713135 0
vn -0.13675890862941742 0.99060440063476562 0
vn 0.60372591018676758 0.7971920371055603 0
vn 0.55419939756393433 -0.55419939756393433 0.62106847763061523
vn 0 -0.78375476598739624 0.6210705041885376
vn -0.55419939756393433 -0.55419939756393433 0.62106847763061523
vn -0.78375476598739624 0 0.6210705041885376
vn -0.55419939756393433 0.55419939756393433 0.62106847763061523
vn 0 0.78375476598739624 0.6210705041885376
vn 0.55419939756393433 0.55419939756393433 0.62106847763061523
vn 0.78375476598739624 0 0.6210705041885376
vn -1.2612703770287226e-08 -1.2612703770287226e-08 1
vn 0.55419939756393433 0.55419939756393433 -0.62106847763061523
vn 0 0.78375476598739624 -0.6210705041885376
vn -0.55419939756393433 0.55419939756393433 -0.62106847763061523
vn -0.78375476598739624 0 -0.6210705041885376
vn -0.55419939756393433 -0.55419939756393433 -0.62106847763061523
vn 0 -0.78375476598739624 -0.6210705041885376
vn 0.55419939756393433 -0.55419939756393433 -0.62106847763061523
vn 0.78375476598739624 0 -0.6210705041885376
vn -1.2612703770287226e-08 1.2612703770287226e-08 -1
vn 1 0 0
vn -1 0 0
vn 0 0 -1
vn 0 0 -1
vn 0 1 0
vn 0 1 0
vn 0 1 0
vn 0 1 0
vn 0.60374635457992554 0 -0.79717648029327393
vn 0.99060267210006714 0 -0.13677121698856354
vn 0.7971758246421814 0 0.60374724864959717
vn 0.13677540421485901 0 0.99060207605361938
vn -0.60375046730041504 0 0.79717332124710083
vn -0.99060213565826416 0 0.13677503168582916
vn -0.79717570543289185 0 -0.60374736785888672
vn -0.13677187263965607 0 -0.99060255289077759
vn 0.13677187263965607 0 -0.99060255289077759
vn -0.60374629497528076 0 -0.79717648029327393
vn -0.99060267210006714 0 -0.13677121698856354
vn -0.7971758246421814 0 0.60374724864959717
vn -0.13677540421485901 0 0.99060207605361938
vn 0.60375046730041504 0 0.79717332124710083
vn 0.99060213565826416 0 0.13677503168582916
vn 0.79717570543289185 0 -0.60374736785888672
vn 0 0 -1
vn 0 0 -1
vn 0 0 -1
vn 0 0 -1
vn 0 0 -1
vn 0 0 -1
vn 0 0 -1
vn 0 0 -1
vn 0 0 1
vn 0 0 1
vn 0 0 1
vn 0 0 1
vn 0 0 1
vn 0 0 1
vn 0 0 1
vn 0 0 1
vn 0 0 1
vn 0 0 1
vn 0 0 1
vn 0 0 1
vn 0 0 1
vn 0 0 1
vn 0 0 1
vn 0 0 1
vn 0 0 -1
vn 0 0 1
vn 0 0 -1
vn 0 0 1
vn 0 0 -1
vn 0 0 1
vn 0 0 -1
vn 0 0 1
vn 0 0 -1
vn 0 0 1
vn 0 0 -1
vn 0 0 1
vn 0 0 -1
vn 0 0 1
vn 0 0 -1
vn 0 0 1
vn 0 0 -1
vn 0 0 -1
vn 0 0 -1
vn 0 0 -1
vn 0 0 -1
vn 0 0 -1
vn 0 0 -1
vn 0 0 -1
vn 0 0 -1
vn 0 0 -1
vn 0 0 -1
vn 0 0 -1
vn 0 0 -1
vn 0 0 -1
vn 0 0 -1
vn 0 0 -1
vn 0 0 1
vn 0 0 1
vn 0 0 1
vn 0 0 1
vn 0 0 1
vn 0 0 1
vn 0 0 1
vn 0 0 1
vn 0 -1 0
vn 0 0 1
vn 0 -1 0
vn 0 0 1
vn 0 -1 0
vn -1 0 0
vn 0 -1 0
vn 1 0 0
vn 1 0 0
vn 0 0 -1
vn 1 0 0
vn 0 0 1
vn 0 0 -1
vn -1 0 0
vn -1 0 0
vn 0 0 1
vn 0 -1 0
vn 0 -1 0
vn 0 -1 0
vn 0 -1 0
vn 0 -1 0
vn 0 -1 0
vn 0 -1 0
vn 0 -1 0
vn 0 1 0
vn 0 1 0
vn 0 1 0
vn 0 1 0
vn 0 1 0
vn 0 1 0
vn 0 1 0
vn 0 1 0
# 178 elements written
f 83//83 84//84 85//85 
f 83//83 85//85 86//86 
f 83//83 86//86 87//87 
f 83//83 87//87 88//88 
f 83//83 88//88 89//89 
f 83//83 89//89 90//90 
f 91//91 92//92 93//93 
f 91//91 93//93 94//94 
f 91//91 94//94 95//95 
f 91//91 95//95 96//96 
f 91//91 96//96 97//97 
f 91//91 97//97 98//98 
f 8//8 7//7 10//10 
f 8//8 10//10 9//9 
f 7//7 6//6 11//11 
f 7//7 11//11 10//10 
f 6//6 5//5 12//12 
f 6//6 12//12 11//11 
f 5//5 4//4 13//13 
f 5//5 13//13 12//12 
f 4//4 3//3 14//14 
f 4//4 14//14 13//13 
f 3//3 2//2 15//15 
f 3//3 15//15 14//14 
f 2//2 1//1 16//16 
f 2//2 16//16 15//15 
f 1//1 8//8 9//9 
f 1//1 9//9 16//16 
f 99//99 100//100 101//101 
f 99//99 101//101 102//102 
f 99//99 102//102 103//103 
f 99//99 103//103 104//104 
f 99//99 104//104 105//105 
f 99//99 105//105 106//106 
f 107//107 109//109 111//111 
f 107//107 111//111 113//113 
f 107//107 113//113 115//115 
f 107//107 115//115 117//117 
f 107//107 117//117 119//119 
f 107//107 119//119 121//121 
f 24//24 23//23 26//26 
f 24//24 26//26 25//25 
f 23//23 22//22 27//27 
f 23//23 27//27 26//26 
f 22//22 21//21 28//28 
f 22//22 28//28 27//27 
f 21//21 20//20 29//29 
f 21//21 29//29 28//28 
f 20//20 19//19 30//30 
f 20//20 30//30 29//29 
f 19//19 18//18 31//31 
f 19//19 31//31 30//30 
f 18//18 17//17 32//32 
f 18//18 32//32 31//31 
f 17//17 24//24 25//25 
f 17//17 25//25 32//32 
f 110//110 108//108 122//122 
f 110//110 122//122 120//120 
f 110//110 120//120 118//118 
f 110//110 118//118 116//116 
f 110//110 116//116 114//114 
f 110//110 114//114 112//112 
f 123//123 124//124 125//125 
f 123//123 125//125 126//126 
f 123//123 126//126 127//127 
f 123//123 127//127 128//128 
f 123//123 128//128 129//129 
f 123//123 129//129 130//130 
f 27//27 28//28 34//34 
f 27//27 34//34 33//33 
f 28//28 29//29 35//35 
f 28//28 35//35 34//34 
f 29//29 30//30 36//36 
f 29//29 36//36 35//35 
f 30//30 31//31 37//37 
f 30//30 37//37 36//36 
f 31//31 32//32 38//38 
f 31//31 38//38 37//37 
f 32//32 25//25 39//39 
f 32//32 39//39 38//38 
f 25//25 26//26 40//40 
f 25//25 40//40 39//39 
f 26//26 27//27 33//33 
f 26//26 33//33 40//40 
f 131//131 132//132 133//133 
f 131//131 133//133 134//134 
f 131//131 134//134 135//135 
f 131//131 135//135 136//136 
f 131//131 136//136 137//137 
f 131//131 137//137 138//138 
f 48//48 47//47 49//49 
f 47//47 46//46 49//49 
f 46//46 45//45 49//49 
f 45//45 44//44 49//49 
f 44//44 43//43 49//49 
f 43//43 42//42 49//49 
f 42//42 41//41 49//49 
f 41//41 48//48 49//49 
f 139//139 140//140 141//141 
f 139//139 141//141 142//142 
f 139//139 142//142 143//143 
f 139//139 143//143 144//144 
f 139//139 144//144 145//145 
f 139//139 145//145 146//146 
f 57//57 56//56 58//58 
f 56//56 55//55 58//58 
f 55//55 54//54 58//58 
f 54//54 53//53 58//58 
f 53//53 52//52 58//58 
f 52//52 51//51 58//58 
f 51//51 50//50 58//58 
f 50//50 57//57 58//58 
f 147//147 149//149 151//151 
f 147//147 151//151 153//153 
f 59//59 154//154 155//155 
f 59//59 155//155 157//157 
f 62//62 61//61 159//159 
f 62//62 159//159 156//156 
f 152//152 60//60 161//161 
f 152//152 161//161 160//160 
f 150//150 148//148 158//158 
f 150//150 158//158 162//162 
f 64//64 63//63 65//65 
f 64//64 65//65 66//66 
f 163//163 164//164 165//165 
f 163//163 165//165 166//166 
f 163//163 166//166 167//167 
f 163//163 167//167 168//168 
f 163//163 168//168 169//169 
f 163//163 169//169 170//170 
f 171//171 172//172 173//173 
f 171//171 173//173 174//174 
f 171//171 174//174 175//175 
f 171//171 175//175 176//176 
f 171//171 176//176 177//177 
f 171//171 177//177 178//178 
f 74//74 73//73 76//76 
f 74//74 76//76 75//75 
f 73//73 72//72 77//77 
f 73//73 77//77 76//76 
f 72//72 71//71 78//78 
f 72//72 78//78 77//77 
f 71//71 70//70 79//79 
f 71//71 79//79 78//78 
f 70//70 69//69 80//80 
f 70//70 80//80 79//79 
f 69//69 68//68 81//81 
f 69//69 81//81 80//80 
f 68//68 67//67 82//82 
f 68//68 82//82 81//81 
f 67//67 74//74 75//75 
f 67//67 75//75 82//82 
