# file written by OpenSceneGraph

mtllib g50.mtl


o _Geometry_0

v 2794.5 27188.19140625 -11311.80859375
v 2794.5 27183.30078125 -11300
v 2794.5 27188.19140625 -11288.19140625
v 2794.5 27200 -11283.2998046875
v 2794.5 27211.80859375 -11288.19140625
v 2794.5 27216.69921875 -11300
v 2794.5 27211.80859375 -11311.80859375
v 2794.5 27200 -11316.7001953125
v 3000 27200 -11316.7001953125
v 3000 27211.80859375 -11311.80859375
v 3000 27216.69921875 -11300
v 3000 27211.80859375 -11288.19140625
v 3000 27200 -11283.2998046875
v 3000 27188.19140625 -11288.19140625
v 3000 27183.30078125 -11300
v 3000 27188.19140625 -11311.80859375
v 2794.5 27188.19140625 -11311.80859375
v 2794.5 27183.30078125 -11300
v 2794.5 27188.19140625 -11288.19140625
v 2794.5 27200 -11283.2998046875
v 2794.5 27211.80859375 -11288.19140625
v 2794.5 27216.69921875 -11300
v 2794.5 27211.80859375 -11311.80859375
v 2794.5 27200 -11316.7001953125
v 3000 27200 -11316.7001953125
v 3000 27211.80859375 -11311.80859375
v 3000 27216.69921875 -11300
v 3000 27211.80859375 -11288.19140625
v 3000 27200 -11283.2998046875
v 3000 27188.19140625 -11288.19140625
v 3000 27183.30078125 -11300
v 3000 27188.19140625 -11311.80859375
# 32 elements written

vn 0 -0.60377252101898193 -0.79715663194656372
vn 0 -0.99060481786727905 -0.13675567507743835
vn 0 -0.79719924926757812 0.60371625423431396
vn 0 -0.13678248226642609 0.99060112237930298
vn 0 0.60377252101898193 0.79715663194656372
vn 0 0.99060481786727905 0.13675567507743835
vn 0 0.79719924926757812 -0.60371625423431396
vn 0 0.13678248226642609 -0.99060112237930298
vn 0 -0.13678248226642609 -0.99060112237930298
vn 0 0.60377246141433716 -0.79715663194656372
vn 0 0.99060481786727905 -0.13675567507743835
vn 0 0.79719924926757812 0.60371625423431396
vn 0 0.13678248226642609 0.99060112237930298
vn 0 -0.60377246141433716 0.79715663194656372
vn 0 -0.99060481786727905 0.13675567507743835
vn 0 -0.79719924926757812 -0.60371625423431396
vn -1 0 0
vn -1 0 0
vn -1 0 0
vn -1 0 0
vn -1 0 0
vn -1 0 0
vn -1 0 0
vn -1 0 0
vn 1 0 0
vn 1 0 0
vn 1 0 0
vn 1 0 0
vn 1 0 0
vn 1 0 0
vn 1 0 0
vn 1 0 0
# 32 elements written
f 17//17 18//18 19//19 
f 17//17 19//19 20//20 
f 17//17 20//20 21//21 
f 17//17 21//21 22//22 
f 17//17 22//22 23//23 
f 17//17 23//23 24//24 
f 25//25 26//26 27//27 
f 25//25 27//27 28//28 
f 25//25 28//28 29//29 
f 25//25 29//29 30//30 
f 25//25 30//30 31//31 
f 25//25 31//31 32//32 
f 8//8 7//7 10//10 
f 8//8 10//10 9//9 
f 7//7 6//6 11//11 
f 7//7 11//11 10//10 
f 6//6 5//5 12//12 
f 6//6 12//12 11//11 
f 5//5 4//4 13//13 
f 5//5 13//13 12//12 
f 4//4 3//3 14//14 
f 4//4 14//14 13//13 
f 3//3 2//2 15//15 
f 3//3 15//15 14//14 
f 2//2 1//1 16//16 
f 2//2 16//16 15//15 
f 1//1 8//8 9//9 
f 1//1 9//9 16//16 
