# file written by OpenSceneGraph

mtllib g70.mtl


o _Geometry_0

v 17839.439453125 18201.439453125 20968.19921875
v 17830 18205.349609375 20968.19921875
v 17820.560546875 18201.439453125 20968.19921875
v 17816.650390625 18192 20968.19921875
v 17820.560546875 18182.560546875 20968.19921875
v 17830 18178.650390625 20968.19921875
v 17839.439453125 18182.560546875 20968.19921875
v 17843.349609375 18192 20968.19921875
v 17843.349609375 18192 20569.099609375
v 17839.439453125 18182.560546875 20569.099609375
v 17830 18178.650390625 20569.099609375
v 17820.560546875 18182.560546875 20569.099609375
v 17816.650390625 18192 20569.099609375
v 17820.560546875 18201.439453125 20569.099609375
v 17830 18205.349609375 20569.099609375
v 17839.439453125 18201.439453125 20569.099609375
v 17844.744140625 18206.7421875 21031.80078125
v 17830 18212.849609375 21031.80078125
v 17815.255859375 18206.7421875 21031.80078125
v 17809.150390625 18192 21031.80078125
v 17815.255859375 18177.2578125 21031.80078125
v 17830 18171.150390625 21031.80078125
v 17844.744140625 18177.2578125 21031.80078125
v 17850.849609375 18192 21031.80078125
v 17830 18192 21000.5
v 17844.744140625 18177.2578125 20968.19921875
v 17830 18171.150390625 20968.19921875
v 17815.255859375 18177.2578125 20968.19921875
v 17809.150390625 18192 20968.19921875
v 17815.255859375 18206.7421875 20968.19921875
v 17830 18212.849609375 20968.19921875
v 17844.744140625 18206.7421875 20968.19921875
v 17850.849609375 18192 20968.19921875
v 17830 18192 20999.5
v 17829.5 18192 20999.5
v 17830.5 18192 20999.5
v 17830.5 18192 21000.5
v 17829.5 18192 21000.5
v 17829.5 18359.30078125 21000.5
v 17829.5 18359.30078125 20999.5
v 17830.5 18359.30078125 21000.5
v 17830.5 18359.30078125 20999.5
v 17794.078125 18359.30078125 21035.921875
v 17779.19921875 18359.30078125 21000
v 17794.078125 18359.30078125 20964.078125
v 17830 18359.30078125 20949.19921875
v 17865.921875 18359.30078125 20964.078125
v 17880.80078125 18359.30078125 21000
v 17865.921875 18359.30078125 21035.921875
v 17830 18359.30078125 21050.80078125
v 17830 18360.30078125 21050.80078125
v 17865.921875 18360.30078125 21035.921875
v 17880.80078125 18360.30078125 21000
v 17865.921875 18360.30078125 20964.078125
v 17830 18360.30078125 20949.19921875
v 17794.078125 18360.30078125 20964.078125
v 17779.19921875 18360.30078125 21000
v 17794.078125 18360.30078125 21035.921875
v 17839.439453125 18201.439453125 20968.19921875
v 17830 18205.349609375 20968.19921875
v 17820.560546875 18201.439453125 20968.19921875
v 17816.650390625 18192 20968.19921875
v 17820.560546875 18182.560546875 20968.19921875
v 17830 18178.650390625 20968.19921875
v 17839.439453125 18182.560546875 20968.19921875
v 17843.349609375 18192 20968.19921875
v 17843.349609375 18192 20569.099609375
v 17839.439453125 18182.560546875 20569.099609375
v 17830 18178.650390625 20569.099609375
v 17820.560546875 18182.560546875 20569.099609375
v 17816.650390625 18192 20569.099609375
v 17820.560546875 18201.439453125 20569.099609375
v 17830 18205.349609375 20569.099609375
v 17839.439453125 18201.439453125 20569.099609375
v 17844.744140625 18206.7421875 21031.80078125
v 17830 18212.849609375 21031.80078125
v 17815.255859375 18206.7421875 21031.80078125
v 17809.150390625 18192 21031.80078125
v 17815.255859375 18177.2578125 21031.80078125
v 17830 18171.150390625 21031.80078125
v 17844.744140625 18177.2578125 21031.80078125
v 17850.849609375 18192 21031.80078125
v 17844.744140625 18177.2578125 20968.19921875
v 17830 18171.150390625 20968.19921875
v 17815.255859375 18177.2578125 20968.19921875
v 17809.150390625 18192 20968.19921875
v 17815.255859375 18206.7421875 20968.19921875
v 17830 18212.849609375 20968.19921875
v 17844.744140625 18206.7421875 20968.19921875
v 17850.849609375 18192 20968.19921875
v 17829.5 18192 20999.5
v 17829.5 18192 20999.5
v 17830.5 18192 20999.5
v 17830.5 18192 20999.5
v 17830.5 18192 21000.5
v 17830.5 18192 21000.5
v 17829.5 18192 21000.5
v 17829.5 18192 21000.5
v 17829.5 18359.30078125 21000.5
v 17829.5 18359.30078125 21000.5
v 17829.5 18359.30078125 20999.5
v 17829.5 18359.30078125 20999.5
v 17830.5 18359.30078125 21000.5
v 17830.5 18359.30078125 21000.5
v 17830.5 18359.30078125 20999.5
v 17830.5 18359.30078125 20999.5
v 17794.078125 18359.30078125 21035.921875
v 17779.19921875 18359.30078125 21000
v 17794.078125 18359.30078125 20964.078125
v 17830 18359.30078125 20949.19921875
v 17865.921875 18359.30078125 20964.078125
v 17880.80078125 18359.30078125 21000
v 17865.921875 18359.30078125 21035.921875
v 17830 18359.30078125 21050.80078125
v 17830 18360.30078125 21050.80078125
v 17865.921875 18360.30078125 21035.921875
v 17880.80078125 18360.30078125 21000
v 17865.921875 18360.30078125 20964.078125
v 17830 18360.30078125 20949.19921875
v 17794.078125 18360.30078125 20964.078125
v 17779.19921875 18360.30078125 21000
v 17794.078125 18360.30078125 21035.921875
# 122 elements written

vn 0.79717087745666504 0.60375380516052246 0
vn 0.13678073883056641 0.99060136079788208 0
vn -0.60375380516052246 0.79717087745666504 0
vn -0.99060136079788208 0.13678073883056641 0
vn -0.79717087745666504 -0.60375380516052246 0
vn -0.13678073883056641 -0.99060136079788208 0
vn 0.60375380516052246 -0.79717087745666504 0
vn 0.99060136079788208 -0.13678073883056641 0
vn 0.99060136079788208 0.13678073883056641 0
vn 0.79717087745666504 -0.60375374555587769 0
vn 0.13678073883056641 -0.99060136079788208 0
vn -0.60375374555587769 -0.79717087745666504 0
vn -0.99060136079788208 -0.13678073883056641 0
vn -0.79717087745666504 0.60375374555587769 0
vn -0.13678073883056641 0.99060136079788208 0
vn 0.60375374555587769 0.79717087745666504 0
vn 0.5885009765625 0.58848237991333008 -0.55439609289169312
vn 0 0.83226591348648071 -0.55437654256820679
vn -0.5885009765625 0.58848237991333008 -0.55439609289169312
vn -0.83226603269577026 0 -0.55437660217285156
vn -0.5885009765625 -0.58848237991333008 -0.55439609289169312
vn 0 -0.83226591348648071 -0.55437654256820679
vn 0.5885009765625 -0.58848237991333008 -0.55439609289169312
vn 0.83226603269577026 0 -0.55437660217285156
vn 1.421548656566074e-08 2.843097313132148e-08 -1
vn 0.5885009765625 -0.58848237991333008 0.55439609289169312
vn 0 -0.83226591348648071 0.55437654256820679
vn -0.5885009765625 -0.58848237991333008 0.55439609289169312
vn -0.83226603269577026 0 0.55437660217285156
vn -0.5885009765625 0.58848237991333008 0.55439609289169312
vn 0 0.83226591348648071 0.55437654256820679
vn 0.5885009765625 0.58848237991333008 0.55439609289169312
vn 0.83226603269577026 0 0.55437660217285156
vn 1.421548656566074e-08 -2.843097313132148e-08 1
vn -1 0 0
vn 1 0 0
vn 0 0 1
vn 0 0 1
vn 0 1 0
vn 0 1 0
vn 0 1 0
vn 0 1 0
vn -0.60374504327774048 0 0.79717749357223511
vn -0.99060285091400146 0 0.1367698460817337
vn -0.79717749357223511 0 -0.60374504327774048
vn -0.1367698460817337 0 -0.99060285091400146
vn 0.60374504327774048 0 -0.79717749357223511
vn 0.99060285091400146 0 -0.1367698460817337
vn 0.79717749357223511 0 0.60374504327774048
vn 0.1367698460817337 0 0.99060285091400146
vn -0.1367698460817337 0 0.99060285091400146
vn 0.60374504327774048 0 0.79717749357223511
vn 0.99060285091400146 0 0.1367698460817337
vn 0.79717749357223511 0 -0.60374504327774048
vn 0.1367698460817337 0 -0.99060285091400146
vn -0.60374504327774048 0 -0.79717749357223511
vn -0.99060285091400146 0 -0.1367698460817337
vn -0.79717749357223511 0 0.60374504327774048
vn 0 0 1
vn 0 0 1
vn 0 0 1
vn 0 0 1
vn 0 0 1
vn 0 0 1
vn 0 0 1
vn 0 0 1
vn 0 0 -1
vn 0 0 -1
vn 0 0 -1
vn 0 0 -1
vn 0 0 -1
vn 0 0 -1
vn 0 0 -1
vn 0 0 -1
vn 0 0 1
vn 0 0 1
vn 0 0 1
vn 0 0 1
vn 0 0 1
vn 0 0 1
vn 0 0 1
vn 0 0 1
vn 0 0 -1
vn 0 0 -1
vn 0 0 -1
vn 0 0 -1
vn 0 0 -1
vn 0 0 -1
vn 0 0 -1
vn 0 0 -1
vn 0 -1 0
vn 0 0 -1
vn 0 -1 0
vn 0 0 -1
vn 0 -1 0
vn 1 0 0
vn 0 -1 0
vn -1 0 0
vn -1 0 0
vn 0 0 1
vn -1 0 0
vn 0 0 -1
vn 0 0 1
vn 1 0 0
vn 1 0 0
vn 0 0 -1
vn 0 -1 0
vn 0 -1 0
vn 0 -1 0
vn 0 -1 0
vn 0 -1 0
vn 0 -1 0
vn 0 -1 0
vn 0 -1 0
vn 0 1 0
vn 0 1 0
vn 0 1 0
vn 0 1 0
vn 0 1 0
vn 0 1 0
vn 0 1 0
vn 0 1 0
# 122 elements written
f 59//59 60//60 61//61 
f 59//59 61//61 62//62 
f 59//59 62//62 63//63 
f 59//59 63//63 64//64 
f 59//59 64//64 65//65 
f 59//59 65//65 66//66 
f 67//67 68//68 69//69 
f 67//67 69//69 70//70 
f 67//67 70//70 71//71 
f 67//67 71//71 72//72 
f 67//67 72//72 73//73 
f 67//67 73//73 74//74 
f 8//8 7//7 10//10 
f 8//8 10//10 9//9 
f 7//7 6//6 11//11 
f 7//7 11//11 10//10 
f 6//6 5//5 12//12 
f 6//6 12//12 11//11 
f 5//5 4//4 13//13 
f 5//5 13//13 12//12 
f 4//4 3//3 14//14 
f 4//4 14//14 13//13 
f 3//3 2//2 15//15 
f 3//3 15//15 14//14 
f 2//2 1//1 16//16 
f 2//2 16//16 15//15 
f 1//1 8//8 9//9 
f 1//1 9//9 16//16 
f 75//75 76//76 77//77 
f 75//75 77//77 78//78 
f 75//75 78//78 79//79 
f 75//75 79//79 80//80 
f 75//75 80//80 81//81 
f 75//75 81//81 82//82 
f 24//24 23//23 25//25 
f 23//23 22//22 25//25 
f 22//22 21//21 25//25 
f 21//21 20//20 25//25 
f 20//20 19//19 25//25 
f 19//19 18//18 25//25 
f 18//18 17//17 25//25 
f 17//17 24//24 25//25 
f 83//83 84//84 85//85 
f 83//83 85//85 86//86 
f 83//83 86//86 87//87 
f 83//83 87//87 88//88 
f 83//83 88//88 89//89 
f 83//83 89//89 90//90 
f 33//33 32//32 34//34 
f 32//32 31//31 34//34 
f 31//31 30//30 34//34 
f 30//30 29//29 34//34 
f 29//29 28//28 34//34 
f 28//28 27//27 34//34 
f 27//27 26//26 34//34 
f 26//26 33//33 34//34 
f 91//91 93//93 95//95 
f 91//91 95//95 97//97 
f 35//35 98//98 99//99 
f 35//35 99//99 101//101 
f 38//38 37//37 103//103 
f 38//38 103//103 100//100 
f 96//96 36//36 105//105 
f 96//96 105//105 104//104 
f 94//94 92//92 102//102 
f 94//94 102//102 106//106 
f 40//40 39//39 41//41 
f 40//40 41//41 42//42 
f 107//107 108//108 109//109 
f 107//107 109//109 110//110 
f 107//107 110//110 111//111 
f 107//107 111//111 112//112 
f 107//107 112//112 113//113 
f 107//107 113//113 114//114 
f 115//115 116//116 117//117 
f 115//115 117//117 118//118 
f 115//115 118//118 119//119 
f 115//115 119//119 120//120 
f 115//115 120//120 121//121 
f 115//115 121//121 122//122 
f 50//50 49//49 52//52 
f 50//50 52//52 51//51 
f 49//49 48//48 53//53 
f 49//49 53//53 52//52 
f 48//48 47//47 54//54 
f 48//48 54//54 53//53 
f 47//47 46//46 55//55 
f 47//47 55//55 54//54 
f 46//46 45//45 56//56 
f 46//46 56//56 55//55 
f 45//45 44//44 57//57 
f 45//45 57//57 56//56 
f 44//44 43//43 58//58 
f 44//44 58//58 57//57 
f 43//43 50//50 51//51 
f 43//43 51//51 58//58 
