# file written by OpenSceneGraph

mtllib g73.mtl


o _Geometry_0

v 17803.447265625 18094.900390625 25398.552734375
v 17792.44921875 18094.900390625 25372
v 17803.447265625 18094.900390625 25345.447265625
v 17830 18094.900390625 25334.44921875
v 17856.552734375 18094.900390625 25345.447265625
v 17867.55078125 18094.900390625 25372
v 17856.552734375 18094.900390625 25398.552734375
v 17830 18094.900390625 25409.55078125
v 17856.552734375 18114.87890625 25395.38671875
v 17830 18118.27734375 25405.84765625
v 17867.55078125 18106.673828125 25370.134765625
v 17856.552734375 18098.46875 25344.8828125
v 17830 18095.0703125 25334.423828125
v 17803.447265625 18098.46875 25344.8828125
v 17792.44921875 18106.673828125 25370.134765625
v 17803.447265625 18114.87890625 25395.38671875
v 17856.552734375 18132.90234375 25386.205078125
v 17830 18139.3671875 25395.1015625
v 17867.55078125 18117.294921875 25364.72265625
v 17856.552734375 18101.6875 25343.2421875
v 17830 18095.22265625 25334.345703125
v 17803.447265625 18101.6875 25343.2421875
v 17792.44921875 18117.294921875 25364.72265625
v 17803.447265625 18132.90234375 25386.205078125
v 17856.552734375 18147.203125 25371.90234375
v 17830 18156.1015625 25378.365234375
v 17867.55078125 18125.72265625 25356.294921875
v 17856.552734375 18104.2421875 25340.6875
v 17830 18095.34375 25334.22265625
v 17803.447265625 18104.2421875 25340.6875
v 17792.44921875 18125.72265625 25356.294921875
v 17803.447265625 18147.203125 25371.90234375
v 17856.552734375 18156.38671875 25353.87890625
v 17830 18166.84765625 25357.27734375
v 17867.55078125 18131.134765625 25345.673828125
v 17856.552734375 18105.8828125 25337.46875
v 17830 18095.421875 25334.0703125
v 17803.447265625 18105.8828125 25337.46875
v 17792.44921875 18131.134765625 25345.673828125
v 17803.447265625 18156.38671875 25353.87890625
v 17856.552734375 18159.55078125 25333.900390625
v 17830 18170.55078125 25333.900390625
v 17867.55078125 18133 25333.900390625
v 17856.552734375 18106.44921875 25333.900390625
v 17830 18095.44921875 25333.900390625
v 17803.447265625 18106.44921875 25333.900390625
v 17792.44921875 18133 25333.900390625
v 17803.447265625 18159.55078125 25333.900390625
v 17851.318359375 17209 25393.318359375
v 17830 17209 25402.150390625
v 17808.681640625 17209 25393.318359375
v 17799.849609375 17209 25372
v 17808.681640625 17209 25350.681640625
v 17830 17209 25341.849609375
v 17851.318359375 17209 25350.681640625
v 17860.150390625 17209 25372
v 17860.150390625 17277.5 25372
v 17851.318359375 17277.5 25350.681640625
v 17830 17277.5 25341.849609375
v 17808.681640625 17277.5 25350.681640625
v 17799.849609375 17277.5 25372
v 17808.681640625 17277.5 25393.318359375
v 17830 17277.5 25402.150390625
v 17851.318359375 17277.5 25393.318359375
v 17851.318359375 17442.5 25393.318359375
v 17830 17442.5 25402.150390625
v 17808.681640625 17442.5 25393.318359375
v 17799.849609375 17442.5 25372
v 17808.681640625 17442.5 25350.681640625
v 17830 17442.5 25341.849609375
v 17851.318359375 17442.5 25350.681640625
v 17860.150390625 17442.5 25372
v 17860.150390625 18094.900390625 25372
v 17851.318359375 18094.900390625 25350.681640625
v 17830 18094.900390625 25341.849609375
v 17808.681640625 18094.900390625 25350.681640625
v 17799.849609375 18094.900390625 25372
v 17808.681640625 18094.900390625 25393.318359375
v 17830 18094.900390625 25402.150390625
v 17851.318359375 18094.900390625 25393.318359375
v 17856.623046875 17277.5 25398.623046875
v 17830 17277.5 25409.650390625
v 17803.376953125 17277.5 25398.623046875
v 17792.349609375 17277.5 25372
v 17803.376953125 17277.5 25345.376953125
v 17830 17277.5 25334.349609375
v 17856.623046875 17277.5 25345.376953125
v 17867.650390625 17277.5 25372
v 17830 17359.5 25372
v 17856.623046875 17442.5 25345.376953125
v 17830 17442.5 25334.349609375
v 17803.376953125 17442.5 25345.376953125
v 17792.349609375 17442.5 25372
v 17803.376953125 17442.5 25398.623046875
v 17830 17442.5 25409.650390625
v 17856.623046875 17442.5 25398.623046875
v 17867.650390625 17442.5 25372
v 17830 17360.5 25372
v 17830.5 17360.5 25372
v 17829.5 17360.5 25372
v 17829.5 17359.5 25372
v 17830.5 17359.5 25372
v 17830.5 17359.5 25096.80078125
v 17830.5 17360.5 25096.80078125
v 17829.5 17359.5 25096.80078125
v 17829.5 17360.5 25096.80078125
v 17892.861328125 17297.138671875 25096.80078125
v 17918.900390625 17360 25096.80078125
v 17892.861328125 17422.861328125 25096.80078125
v 17830 17448.900390625 25096.80078125
v 17767.138671875 17422.861328125 25096.80078125
v 17741.099609375 17360 25096.80078125
v 17767.138671875 17297.138671875 25096.80078125
v 17830 17271.099609375 25096.80078125
v 17830 17271.099609375 25095.80078125
v 17767.138671875 17297.138671875 25095.80078125
v 17741.099609375 17360 25095.80078125
v 17767.138671875 17422.861328125 25095.80078125
v 17830 17448.900390625 25095.80078125
v 17892.861328125 17422.861328125 25095.80078125
v 17918.900390625 17360 25095.80078125
v 17892.861328125 17297.138671875 25095.80078125
v 17851.318359375 18154.3203125 25333.900390625
v 17830 18163.150390625 25333.900390625
v 17808.681640625 18154.3203125 25333.900390625
v 17799.849609375 18133 25333.900390625
v 17808.681640625 18111.6796875 25333.900390625
v 17830 18102.849609375 25333.900390625
v 17851.318359375 18111.6796875 25333.900390625
v 17860.150390625 18133 25333.900390625
v 17860.150390625 18133 23410.099609375
v 17851.318359375 18111.6796875 23410.099609375
v 17830 18102.849609375 23410.099609375
v 17808.681640625 18111.6796875 23410.099609375
v 17799.849609375 18133 23410.099609375
v 17808.681640625 18154.3203125 23410.099609375
v 17830 18163.150390625 23410.099609375
v 17851.318359375 18154.3203125 23410.099609375
v 17803.447265625 18094.900390625 25398.552734375
v 17792.44921875 18094.900390625 25372
v 17803.447265625 18094.900390625 25345.447265625
v 17830 18094.900390625 25334.44921875
v 17856.552734375 18094.900390625 25345.447265625
v 17867.55078125 18094.900390625 25372
v 17856.552734375 18094.900390625 25398.552734375
v 17830 18094.900390625 25409.55078125
v 17856.552734375 18159.55078125 25333.900390625
v 17830 18170.55078125 25333.900390625
v 17867.55078125 18133 25333.900390625
v 17856.552734375 18106.44921875 25333.900390625
v 17830 18095.44921875 25333.900390625
v 17803.447265625 18106.44921875 25333.900390625
v 17792.44921875 18133 25333.900390625
v 17803.447265625 18159.55078125 25333.900390625
v 17851.318359375 17209 25393.318359375
v 17830 17209 25402.150390625
v 17808.681640625 17209 25393.318359375
v 17799.849609375 17209 25372
v 17808.681640625 17209 25350.681640625
v 17830 17209 25341.849609375
v 17851.318359375 17209 25350.681640625
v 17860.150390625 17209 25372
v 17860.150390625 17277.5 25372
v 17851.318359375 17277.5 25350.681640625
v 17830 17277.5 25341.849609375
v 17808.681640625 17277.5 25350.681640625
v 17799.849609375 17277.5 25372
v 17808.681640625 17277.5 25393.318359375
v 17830 17277.5 25402.150390625
v 17851.318359375 17277.5 25393.318359375
v 17851.318359375 17442.5 25393.318359375
v 17830 17442.5 25402.150390625
v 17808.681640625 17442.5 25393.318359375
v 17799.849609375 17442.5 25372
v 17808.681640625 17442.5 25350.681640625
v 17830 17442.5 25341.849609375
v 17851.318359375 17442.5 25350.681640625
v 17860.150390625 17442.5 25372
v 17860.150390625 18094.900390625 25372
v 17851.318359375 18094.900390625 25350.681640625
v 17830 18094.900390625 25341.849609375
v 17808.681640625 18094.900390625 25350.681640625
v 17799.849609375 18094.900390625 25372
v 17808.681640625 18094.900390625 25393.318359375
v 17830 18094.900390625 25402.150390625
v 17851.318359375 18094.900390625 25393.318359375
v 17856.623046875 17277.5 25398.623046875
v 17830 17277.5 25409.650390625
v 17803.376953125 17277.5 25398.623046875
v 17792.349609375 17277.5 25372
v 17803.376953125 17277.5 25345.376953125
v 17830 17277.5 25334.349609375
v 17856.623046875 17277.5 25345.376953125
v 17867.650390625 17277.5 25372
v 17856.623046875 17442.5 25345.376953125
v 17830 17442.5 25334.349609375
v 17803.376953125 17442.5 25345.376953125
v 17792.349609375 17442.5 25372
v 17803.376953125 17442.5 25398.623046875
v 17830 17442.5 25409.650390625
v 17856.623046875 17442.5 25398.623046875
v 17867.650390625 17442.5 25372
v 17830.5 17360.5 25372
v 17830.5 17360.5 25372
v 17829.5 17360.5 25372
v 17829.5 17360.5 25372
v 17829.5 17359.5 25372
v 17829.5 17359.5 25372
v 17830.5 17359.5 25372
v 17830.5 17359.5 25372
v 17830.5 17359.5 25096.80078125
v 17830.5 17359.5 25096.80078125
v 17830.5 17360.5 25096.80078125
v 17830.5 17360.5 25096.80078125
v 17829.5 17359.5 25096.80078125
v 17829.5 17359.5 25096.80078125
v 17829.5 17360.5 25096.80078125
v 17829.5 17360.5 25096.80078125
v 17892.861328125 17297.138671875 25096.80078125
v 17918.900390625 17360 25096.80078125
v 17892.861328125 17422.861328125 25096.80078125
v 17830 17448.900390625 25096.80078125
v 17767.138671875 17422.861328125 25096.80078125
v 17741.099609375 17360 25096.80078125
v 17767.138671875 17297.138671875 25096.80078125
v 17830 17271.099609375 25096.80078125
v 17830 17271.099609375 25095.80078125
v 17767.138671875 17297.138671875 25095.80078125
v 17741.099609375 17360 25095.80078125
v 17767.138671875 17422.861328125 25095.80078125
v 17830 17448.900390625 25095.80078125
v 17892.861328125 17422.861328125 25095.80078125
v 17918.900390625 17360 25095.80078125
v 17892.861328125 17297.138671875 25095.80078125
v 17851.318359375 18154.3203125 25333.900390625
v 17830 18163.150390625 25333.900390625
v 17808.681640625 18154.3203125 25333.900390625
v 17799.849609375 18133 25333.900390625
v 17808.681640625 18111.6796875 25333.900390625
v 17830 18102.849609375 25333.900390625
v 17851.318359375 18111.6796875 25333.900390625
v 17860.150390625 18133 25333.900390625
v 17860.150390625 18133 23410.099609375
v 17851.318359375 18111.6796875 23410.099609375
v 17830 18102.849609375 23410.099609375
v 17808.681640625 18111.6796875 23410.099609375
v 17799.849609375 18133 23410.099609375
v 17808.681640625 18154.3203125 23410.099609375
v 17830 18163.150390625 23410.099609375
v 17851.318359375 18154.3203125 23410.099609375
# 250 elements written

vn -0.60026216506958008 0.12516383826732635 0.78994894027709961
vn -0.99036997556686401 0.021669298410415649 0.1367398202419281
vn -0.79451805353164673 -0.094908028841018677 -0.5997779369354248
vn -0.13479560613632202 -0.14922796189785004 -0.9795718789100647
vn 0.60037899017333984 -0.12215036898851395 -0.79033172130584717
vn 0.99037075042724609 -0.021629933267831802 -0.1367405503988266
vn 0.79451847076416016 0.095038093626499176 0.59975683689117432
vn 0.135126993060112 0.15504303574562073 0.97862273454666138
vn 0.70830768346786499 0.20354777574539185 0.67592042684555054
vn -3.8415173548855819e-06 0.30903893709182739 0.95104938745498657
vn 0.99976110458374023 -0.020789194852113724 0.0067530772648751736
vn 0.70829743146896362 -0.23260624706745148 -0.66649007797241211
vn 0.0001666097086854279 -0.30622038245201111 -0.95196062326431274
vn -0.70834016799926758 -0.20208965241909027 -0.67632395029067993
vn -0.99976080656051636 0.020801139995455742 -0.0067604407668113708
vn -0.70830416679382324 0.23264983296394348 0.66646772623062134
vn 0.70830410718917847 0.40243807435035706 0.57995593547821045
vn -7.215677214844618e-06 0.58778584003448486 0.80901652574539185
vn 0.99976056814193726 -0.017704308032989502 0.012857001274824142
vn 0.7083362340927124 -0.42828583717346191 -0.56109791994094849
vn -0.00015322492981795222 -0.58997517824172974 -0.80742132663726807
vn -0.70829647779464722 -0.40249279141426086 -0.57992726564407349
vn -0.99976098537445068 0.017682140693068504 -0.012856006622314453
vn -0.70829814672470093 0.42719602584838867 0.56197625398635864
vn 0.7082982063293457 0.561970055103302 0.42720413208007812
vn 3.4176707686128793e-06 0.80901354551315308 0.58778989315032959
vn 0.99976122379302979 -0.012843902222812176 0.017678976058959961
vn 0.70828527212142944 -0.5797191858291626 -0.40281206369400024
vn -0.0001040426068357192 -0.81007617712020874 -0.58632463216781616
vn -0.70825827121734619 -0.56281757354736328 -0.42615321278572083
vn -0.99976128339767456 0.012842981144785881 -0.017675325274467468
vn -0.70830100774765015 0.57994705438613892 0.40245625376701355
vn 0.708304762840271 0.66647064685821533 0.23263949155807495
vn -1.08670779042086e-08 0.95105719566345215 0.30901497602462769
vn 0.99976104497909546 -0.0067587490193545818 0.020787758752703667
vn 0.70829296112060547 -0.67580562829971313 -0.20398013293743134
vn 9.3305432528723031e-05 -0.95052027702331543 -0.31066244840621948
vn -0.70831495523452759 -0.66630095243453979 -0.2330944836139679
vn -0.99976074695587158 0.0067575355060398579 -0.020803932100534439
vn -0.70830470323562622 0.67592883110046387 0.20353038609027863
vn 0 0 -1
vn 0 0 -1
vn 0 0 -1
vn 0 0 -1
vn 0 0 -1
vn 0 0 -1
vn 0 0 -1
vn 0 0 -1
vn 0.79715967178344727 0 0.60376858711242676
vn 0.13679914176464081 0 0.99059879779815674
vn -0.60376858711242676 0 0.79715967178344727
vn -0.99059879779815674 0 0.13679914176464081
vn -0.79715967178344727 0 -0.60376858711242676
vn -0.13679914176464081 0 -0.99059879779815674
vn 0.60376858711242676 0 -0.79715967178344727
vn 0.99059879779815674 0 -0.13679914176464081
vn 0.99059879779815674 0 0.13679914176464081
vn 0.79715967178344727 0 -0.60376858711242676
vn 0.13679914176464081 0 -0.99059879779815674
vn -0.60376858711242676 0 -0.79715967178344727
vn -0.99059879779815674 0 -0.13679914176464081
vn -0.79715967178344727 0 0.60376858711242676
vn -0.13679914176464081 0 0.99059879779815674
vn 0.60376858711242676 0 0.79715967178344727
vn 0.79715967178344727 0 0.60376858711242676
vn 0.13679914176464081 0 0.99059879779815674
vn -0.60376858711242676 0 0.79715967178344727
vn -0.99059879779815674 0 0.13679914176464081
vn -0.79715967178344727 0 -0.60376858711242676
vn -0.13679914176464081 0 -0.99059879779815674
vn 0.60376858711242676 0 -0.79715967178344727
vn 0.99059879779815674 0 -0.13679914176464081
vn 0.99059879779815674 0 0.13679914176464081
vn 0.79715967178344727 0 -0.60376858711242676
vn 0.13679914176464081 0 -0.99059879779815674
vn -0.60376858711242676 0 -0.79715967178344727
vn -0.99059879779815674 0 -0.13679914176464081
vn -0.79715967178344727 0 0.60376858711242676
vn -0.13679914176464081 0 0.99059879779815674
vn 0.60376858711242676 0 0.79715967178344727
vn 0.64260584115982056 0.41727137565612793 0.64260584115982056
vn 0 0.41726875305175781 0.90878307819366455
vn -0.64260584115982056 0.41727137565612793 0.64260584115982056
vn -0.90878313779830933 0.4172687828540802 0
vn -0.64260584115982056 0.41727137565612793 -0.64260584115982056
vn 0 0.41726875305175781 -0.90878307819366455
vn 0.64260584115982056 0.41727137565612793 -0.64260584115982056
vn 0.90878313779830933 0.4172687828540802 0
vn -1.9078701285479838e-08 1 1.9078701285479838e-08
vn 0.64260584115982056 -0.41727137565612793 -0.64260584115982056
vn 0 -0.41726875305175781 -0.90878307819366455
vn -0.64260584115982056 -0.41727137565612793 -0.64260584115982056
vn -0.90878313779830933 -0.4172687828540802 0
vn -0.64260584115982056 -0.41727137565612793 0.64260584115982056
vn 0 -0.41726875305175781 0.90878307819366455
vn 0.64260584115982056 -0.41727137565612793 0.64260584115982056
vn 0.90878313779830933 -0.4172687828540802 0
vn -1.9078701285479838e-08 -1 -1.9078701285479838e-08
vn 1 0 0
vn -1 0 0
vn 0 -1 0
vn 0 -1 0
vn 0 0 -1
vn 0 0 -1
vn 0 0 -1
vn 0 0 -1
vn 0.60375237464904785 -0.79717189073562622 0
vn 0.99060153961181641 -0.13677904009819031 0
vn 0.79717189073562622 0.60375237464904785 0
vn 0.13677904009819031 0.99060153961181641 0
vn -0.60375237464904785 0.79717189073562622 0
vn -0.99060153961181641 0.13677904009819031 0
vn -0.79717189073562622 -0.60375237464904785 0
vn -0.13677904009819031 -0.99060153961181641 0
vn 0.13677904009819031 -0.99060153961181641 0
vn -0.60375237464904785 -0.79717189073562622 0
vn -0.99060153961181641 -0.13677904009819031 0
vn -0.79717189073562622 0.60375237464904785 0
vn -0.13677904009819031 0.99060153961181641 0
vn 0.60375237464904785 0.79717189073562622 0
vn 0.99060153961181641 0.13677904009819031 0
vn 0.79717189073562622 -0.60375237464904785 0
vn 0.79715913534164429 0.60376924276351929 0
vn 0.13678428530693054 0.99060088396072388 0
vn -0.60375106334686279 0.79717302322387695 0
vn -0.99059969186782837 0.13679300248622894 0
vn -0.79715913534164429 -0.60376924276351929 0
vn -0.13678428530693054 -0.99060088396072388 0
vn 0.60375106334686279 -0.79717302322387695 0
vn 0.99059969186782837 -0.13679300248622894 0
vn 0.99059969186782837 0.13679300248622894 0
vn 0.79715913534164429 -0.60376924276351929 0
vn 0.13678428530693054 -0.99060088396072388 0
vn -0.60375106334686279 -0.79717302322387695 0
vn -0.99059969186782837 -0.13679300248622894 0
vn -0.79715913534164429 0.60376924276351929 0
vn -0.13678428530693054 0.99060088396072388 0
vn 0.60375106334686279 0.79717302322387695 0
vn 0 -1 0
vn 0 -1 0
vn 0 -1 0
vn 0 -1 0
vn 0 -1 0
vn 0 -1 0
vn 0 -1 0
vn 0 -1 0
vn 0.60025078058242798 0.78996652364730835 0.12510767579078674
vn -0.13511668145656586 0.97863322496414185 0.15498553216457367
vn 0.99037081003189087 0.13673613965511322 0.021655358374118805
vn 0.79451572895050049 -0.59976136684417725 -0.09503212571144104
vn 0.1352047324180603 -0.97835874557495117 -0.15663306415081024
vn -0.6002126932144165 -0.78985953330993652 -0.12596285343170166
vn -0.99036991596221924 -0.13674037158489227 -0.021667378023266792
vn -0.79451829195022583 0.59976398944854736 0.094993948936462402
vn 0 -1 0
vn 0 -1 0
vn 0 -1 0
vn 0 -1 0
vn 0 -1 0
vn 0 -1 0
vn 0 -1 0
vn 0 -1 0
vn 0 1 0
vn 0 1 0
vn 0 1 0
vn 0 1 0
vn 0 1 0
vn 0 1 0
vn 0 1 0
vn 0 1 0
vn 0 -1 0
vn 0 -1 0
vn 0 -1 0
vn 0 -1 0
vn 0 -1 0
vn 0 -1 0
vn 0 -1 0
vn 0 -1 0
vn 0 1 0
vn 0 1 0
vn 0 1 0
vn 0 1 0
vn 0 1 0
vn 0 1 0
vn 0 1 0
vn 0 1 0
vn 0 -1 0
vn 0 -1 0
vn 0 -1 0
vn 0 -1 0
vn 0 -1 0
vn 0 -1 0
vn 0 -1 0
vn 0 -1 0
vn 0 1 0
vn 0 1 0
vn 0 1 0
vn 0 1 0
vn 0 1 0
vn 0 1 0
vn 0 1 0
vn 0 1 0
vn 0 0 1
vn 0 1 0
vn 0 0 1
vn 0 1 0
vn 0 0 1
vn -1 0 0
vn 0 0 1
vn 1 0 0
vn 1 0 0
vn 0 -1 0
vn 1 0 0
vn 0 1 0
vn 0 -1 0
vn -1 0 0
vn -1 0 0
vn 0 1 0
vn 0 0 1
vn 0 0 1
vn 0 0 1
vn 0 0 1
vn 0 0 1
vn 0 0 1
vn 0 0 1
vn 0 0 1
vn 0 0 -1
vn 0 0 -1
vn 0 0 -1
vn 0 0 -1
vn 0 0 -1
vn 0 0 -1
vn 0 0 -1
vn 0 0 -1
vn 0 0 1
vn 0 0 1
vn 0 0 1
vn 0 0 1
vn 0 0 1
vn 0 0 1
vn 0 0 1
vn 0 0 1
vn 0 0 -1
vn 0 0 -1
vn 0 0 -1
vn 0 0 -1
vn 0 0 -1
vn 0 0 -1
vn 0 0 -1
vn 0 0 -1
# 250 elements written
f 139//139 140//140 141//141 
f 139//139 141//141 142//142 
f 139//139 142//142 143//143 
f 139//139 143//143 144//144 
f 139//139 144//144 145//145 
f 139//139 145//145 146//146 
f 8//8 7//7 9//9 
f 8//8 9//9 10//10 
f 7//7 6//6 11//11 
f 7//7 11//11 9//9 
f 6//6 5//5 12//12 
f 6//6 12//12 11//11 
f 5//5 4//4 13//13 
f 5//5 13//13 12//12 
f 4//4 3//3 14//14 
f 4//4 14//14 13//13 
f 3//3 2//2 15//15 
f 3//3 15//15 14//14 
f 2//2 1//1 16//16 
f 2//2 16//16 15//15 
f 1//1 8//8 10//10 
f 1//1 10//10 16//16 
f 10//10 9//9 17//17 
f 10//10 17//17 18//18 
f 9//9 11//11 19//19 
f 9//9 19//19 17//17 
f 11//11 12//12 20//20 
f 11//11 20//20 19//19 
f 12//12 13//13 21//21 
f 12//12 21//21 20//20 
f 13//13 14//14 22//22 
f 13//13 22//22 21//21 
f 14//14 15//15 23//23 
f 14//14 23//23 22//22 
f 15//15 16//16 24//24 
f 15//15 24//24 23//23 
f 16//16 10//10 18//18 
f 16//16 18//18 24//24 
f 18//18 17//17 25//25 
f 18//18 25//25 26//26 
f 17//17 19//19 27//27 
f 17//17 27//27 25//25 
f 19//19 20//20 28//28 
f 19//19 28//28 27//27 
f 20//20 21//21 29//29 
f 20//20 29//29 28//28 
f 21//21 22//22 30//30 
f 21//21 30//30 29//29 
f 22//22 23//23 31//31 
f 22//22 31//31 30//30 
f 23//23 24//24 32//32 
f 23//23 32//32 31//31 
f 24//24 18//18 26//26 
f 24//24 26//26 32//32 
f 26//26 25//25 33//33 
f 26//26 33//33 34//34 
f 25//25 27//27 35//35 
f 25//25 35//35 33//33 
f 27//27 28//28 36//36 
f 27//27 36//36 35//35 
f 28//28 29//29 37//37 
f 28//28 37//37 36//36 
f 29//29 30//30 38//38 
f 29//29 38//38 37//37 
f 30//30 31//31 39//39 
f 30//30 39//39 38//38 
f 31//31 32//32 40//40 
f 31//31 40//40 39//39 
f 32//32 26//26 34//34 
f 32//32 34//34 40//40 
f 34//34 33//33 147//147 
f 34//34 147//147 148//148 
f 33//33 35//35 149//149 
f 33//33 149//149 147//147 
f 35//35 36//36 150//150 
f 35//35 150//150 149//149 
f 36//36 37//37 151//151 
f 36//36 151//151 150//150 
f 37//37 38//38 152//152 
f 37//37 152//152 151//151 
f 38//38 39//39 153//153 
f 38//38 153//153 152//152 
f 39//39 40//40 154//154 
f 39//39 154//154 153//153 
f 40//40 34//34 148//148 
f 40//40 148//148 154//154 
f 42//42 41//41 43//43 
f 42//42 43//43 44//44 
f 42//42 44//44 45//45 
f 42//42 45//45 46//46 
f 42//42 46//46 47//47 
f 42//42 47//47 48//48 
f 155//155 156//156 157//157 
f 155//155 157//157 158//158 
f 155//155 158//158 159//159 
f 155//155 159//159 160//160 
f 155//155 160//160 161//161 
f 155//155 161//161 162//162 
f 163//163 164//164 165//165 
f 163//163 165//165 166//166 
f 163//163 166//166 167//167 
f 163//163 167//167 168//168 
f 163//163 168//168 169//169 
f 163//163 169//169 170//170 
f 56//56 55//55 58//58 
f 56//56 58//58 57//57 
f 55//55 54//54 59//59 
f 55//55 59//59 58//58 
f 54//54 53//53 60//60 
f 54//54 60//60 59//59 
f 53//53 52//52 61//61 
f 53//53 61//61 60//60 
f 52//52 51//51 62//62 
f 52//52 62//62 61//61 
f 51//51 50//50 63//63 
f 51//51 63//63 62//62 
f 50//50 49//49 64//64 
f 50//50 64//64 63//63 
f 49//49 56//56 57//57 
f 49//49 57//57 64//64 
f 171//171 172//172 173//173 
f 171//171 173//173 174//174 
f 171//171 174//174 175//175 
f 171//171 175//175 176//176 
f 171//171 176//176 177//177 
f 171//171 177//177 178//178 
f 179//179 180//180 181//181 
f 179//179 181//181 182//182 
f 179//179 182//182 183//183 
f 179//179 183//183 184//184 
f 179//179 184//184 185//185 
f 179//179 185//185 186//186 
f 72//72 71//71 74//74 
f 72//72 74//74 73//73 
f 71//71 70//70 75//75 
f 71//71 75//75 74//74 
f 70//70 69//69 76//76 
f 70//70 76//76 75//75 
f 69//69 68//68 77//77 
f 69//69 77//77 76//76 
f 68//68 67//67 78//78 
f 68//68 78//78 77//77 
f 67//67 66//66 79//79 
f 67//67 79//79 78//78 
f 66//66 65//65 80//80 
f 66//66 80//80 79//79 
f 65//65 72//72 73//73 
f 65//65 73//73 80//80 
f 187//187 188//188 189//189 
f 187//187 189//189 190//190 
f 187//187 190//190 191//191 
f 187//187 191//191 192//192 
f 187//187 192//192 193//193 
f 187//187 193//193 194//194 
f 88//88 87//87 89//89 
f 87//87 86//86 89//89 
f 86//86 85//85 89//89 
f 85//85 84//84 89//89 
f 84//84 83//83 89//89 
f 83//83 82//82 89//89 
f 82//82 81//81 89//89 
f 81//81 88//88 89//89 
f 195//195 196//196 197//197 
f 195//195 197//197 198//198 
f 195//195 198//198 199//199 
f 195//195 199//199 200//200 
f 195//195 200//200 201//201 
f 195//195 201//201 202//202 
f 97//97 96//96 98//98 
f 96//96 95//95 98//98 
f 95//95 94//94 98//98 
f 94//94 93//93 98//98 
f 93//93 92//92 98//98 
f 92//92 91//91 98//98 
f 91//91 90//90 98//98 
f 90//90 97//97 98//98 
f 203//203 205//205 207//207 
f 203//203 207//207 209//209 
f 99//99 210//210 211//211 
f 99//99 211//211 213//213 
f 102//102 101//101 215//215 
f 102//102 215//215 212//212 
f 208//208 100//100 217//217 
f 208//208 217//217 216//216 
f 206//206 204//204 214//214 
f 206//206 214//214 218//218 
f 104//104 103//103 105//105 
f 104//104 105//105 106//106 
f 219//219 220//220 221//221 
f 219//219 221//221 222//222 
f 219//219 222//222 223//223 
f 219//219 223//223 224//224 
f 219//219 224//224 225//225 
f 219//219 225//225 226//226 
f 227//227 228//228 229//229 
f 227//227 229//229 230//230 
f 227//227 230//230 231//231 
f 227//227 231//231 232//232 
f 227//227 232//232 233//233 
f 227//227 233//233 234//234 
f 114//114 113//113 116//116 
f 114//114 116//116 115//115 
f 113//113 112//112 117//117 
f 113//113 117//117 116//116 
f 112//112 111//111 118//118 
f 112//112 118//118 117//117 
f 111//111 110//110 119//119 
f 111//111 119//119 118//118 
f 110//110 109//109 120//120 
f 110//110 120//120 119//119 
f 109//109 108//108 121//121 
f 109//109 121//121 120//120 
f 108//108 107//107 122//122 
f 108//108 122//122 121//121 
f 107//107 114//114 115//115 
f 107//107 115//115 122//122 
f 235//235 236//236 237//237 
f 235//235 237//237 238//238 
f 235//235 238//238 239//239 
f 235//235 239//239 240//240 
f 235//235 240//240 241//241 
f 235//235 241//241 242//242 
f 243//243 244//244 245//245 
f 243//243 245//245 246//246 
f 243//243 246//246 247//247 
f 243//243 247//247 248//248 
f 243//243 248//248 249//249 
f 243//243 249//249 250//250 
f 130//130 129//129 132//132 
f 130//130 132//132 131//131 
f 129//129 128//128 133//133 
f 129//129 133//133 132//132 
f 128//128 127//127 134//134 
f 128//128 134//134 133//133 
f 127//127 126//126 135//135 
f 127//127 135//135 134//134 
f 126//126 125//125 136//136 
f 126//126 136//136 135//135 
f 125//125 124//124 137//137 
f 125//125 137//137 136//136 
f 124//124 123//123 138//138 
f 124//124 138//138 137//137 
f 123//123 130//130 131//131 
f 123//123 131//131 138//138 
