# file written by OpenSceneGraph

mtllib g74.mtl


o _Geometry_0

v 9286.9189453125 15380.900390625 27648.08203125
v 9281.5 15380.900390625 27635
v 9286.9189453125 15380.900390625 27621.91796875
v 9300 15380.900390625 27616.5
v 9313.0810546875 15380.900390625 27621.91796875
v 9318.5 15380.900390625 27635
v 9313.0810546875 15380.900390625 27648.08203125
v 9300 15380.900390625 27653.5
v 9313.0810546875 15390.845703125 27646.505859375
v 9300 15392.51953125 27651.66015625
v 9318.5 15386.8017578125 27634.064453125
v 9313.0810546875 15382.759765625 27621.623046875
v 9300 15381.0849609375 27616.470703125
v 9286.9189453125 15382.759765625 27621.623046875
v 9281.5 15386.8017578125 27634.064453125
v 9286.9189453125 15390.845703125 27646.505859375
v 9313.0810546875 15399.81640625 27641.935546875
v 9300 15403 27646.318359375
v 9318.5 15392.1259765625 27631.3515625
v 9313.0810546875 15384.4375 27620.76953125
v 9300 15381.251953125 27616.384765625
v 9286.9189453125 15384.4375 27620.76953125
v 9281.5 15392.1259765625 27631.3515625
v 9286.9189453125 15399.81640625 27641.935546875
v 9313.0810546875 15406.935546875 27634.81640625
v 9300 15411.318359375 27638
v 9318.5 15396.3515625 27627.126953125
v 9313.0810546875 15385.76953125 27619.4375
v 9300 15381.384765625 27616.251953125
v 9286.9189453125 15385.76953125 27619.4375
v 9281.5 15396.3515625 27627.126953125
v 9286.9189453125 15406.935546875 27634.81640625
v 9313.0810546875 15411.505859375 27625.84375
v 9300 15416.66015625 27627.51953125
v 9318.5 15399.064453125 27621.802734375
v 9313.0810546875 15386.6240234375 27617.759765625
v 9300 15381.470703125 27616.0859375
v 9286.9189453125 15386.6240234375 27617.759765625
v 9281.5 15399.064453125 27621.802734375
v 9286.9189453125 15411.505859375 27625.84375
v 9313.0810546875 15413.08203125 27615.900390625
v 9300 15418.5 27615.900390625
v 9318.5 15400 27615.900390625
v 9313.0810546875 15386.91796875 27615.900390625
v 9300 15381.5 27615.900390625
v 9286.9189453125 15386.91796875 27615.900390625
v 9281.5 15400 27615.900390625
v 9286.9189453125 15413.08203125 27615.900390625
v 9309.439453125 14817 27644.439453125
v 9300 14817 27648.349609375
v 9290.560546875 14817 27644.439453125
v 9286.650390625 14817 27635
v 9290.560546875 14817 27625.560546875
v 9300 14817 27621.650390625
v 9309.439453125 14817 27625.560546875
v 9313.349609375 14817 27635
v 9313.349609375 15380.900390625 27635
v 9309.439453125 15380.900390625 27625.560546875
v 9300 15380.900390625 27621.650390625
v 9290.560546875 15380.900390625 27625.560546875
v 9286.650390625 15380.900390625 27635
v 9290.560546875 15380.900390625 27644.439453125
v 9300 15380.900390625 27648.349609375
v 9309.439453125 15380.900390625 27644.439453125
v 9309.439453125 15409.439453125 27615.900390625
v 9300 15413.349609375 27615.900390625
v 9290.560546875 15409.439453125 27615.900390625
v 9286.650390625 15400 27615.900390625
v 9290.560546875 15390.560546875 27615.900390625
v 9300 15386.650390625 27615.900390625
v 9309.439453125 15390.560546875 27615.900390625
v 9313.349609375 15400 27615.900390625
v 9313.349609375 15400 26350
v 9309.439453125 15390.560546875 26350
v 9300 15386.650390625 26350
v 9290.560546875 15390.560546875 26350
v 9286.650390625 15400 26350
v 9290.560546875 15409.439453125 26350
v 9300 15413.349609375 26350
v 9309.439453125 15409.439453125 26350
v 9286.9189453125 15380.900390625 27648.08203125
v 9281.5 15380.900390625 27635
v 9286.9189453125 15380.900390625 27621.91796875
v 9300 15380.900390625 27616.5
v 9313.0810546875 15380.900390625 27621.91796875
v 9318.5 15380.900390625 27635
v 9313.0810546875 15380.900390625 27648.08203125
v 9300 15380.900390625 27653.5
v 9313.0810546875 15413.08203125 27615.900390625
v 9300 15418.5 27615.900390625
v 9318.5 15400 27615.900390625
v 9313.0810546875 15386.91796875 27615.900390625
v 9300 15381.5 27615.900390625
v 9286.9189453125 15386.91796875 27615.900390625
v 9281.5 15400 27615.900390625
v 9286.9189453125 15413.08203125 27615.900390625
v 9309.439453125 14817 27644.439453125
v 9300 14817 27648.349609375
v 9290.560546875 14817 27644.439453125
v 9286.650390625 14817 27635
v 9290.560546875 14817 27625.560546875
v 9300 14817 27621.650390625
v 9309.439453125 14817 27625.560546875
v 9313.349609375 14817 27635
v 9313.349609375 15380.900390625 27635
v 9309.439453125 15380.900390625 27625.560546875
v 9300 15380.900390625 27621.650390625
v 9290.560546875 15380.900390625 27625.560546875
v 9286.650390625 15380.900390625 27635
v 9290.560546875 15380.900390625 27644.439453125
v 9300 15380.900390625 27648.349609375
v 9309.439453125 15380.900390625 27644.439453125
v 9309.439453125 15409.439453125 27615.900390625
v 9300 15413.349609375 27615.900390625
v 9290.560546875 15409.439453125 27615.900390625
v 9286.650390625 15400 27615.900390625
v 9290.560546875 15390.560546875 27615.900390625
v 9300 15386.650390625 27615.900390625
v 9309.439453125 15390.560546875 27615.900390625
v 9313.349609375 15400 27615.900390625
v 9313.349609375 15400 26350
v 9309.439453125 15390.560546875 26350
v 9300 15386.650390625 26350
v 9290.560546875 15390.560546875 26350
v 9286.650390625 15400 26350
v 9290.560546875 15409.439453125 26350
v 9300 15413.349609375 26350
v 9309.439453125 15409.439453125 26350
# 128 elements written

vn -0.60026633739471436 0.1251489669084549 0.78994816541671753
vn -0.99036943912506104 0.021671608090400696 0.1367432177066803
vn -0.79450511932373047 -0.095098324120044708 -0.59976488351821899
vn -0.13509729504585266 -0.15501415729522705 -0.97863137722015381
vn 0.60023480653762817 -0.12518216669559479 -0.78996682167053223
vn 0.99036890268325806 -0.021683944389224052 -0.1367451399564743
vn 0.79450631141662598 0.095058418810367584 0.59976965188980103
vn 0.13513991236686707 0.15500655770301819 0.97862666845321655
vn 0.70831143856048584 0.20354139804840088 0.67591851949691772
vn -5.8139889915764797e-06 0.30904999375343323 0.95104581117630005
vn 0.99976217746734619 -0.020742872729897499 0.0067273485474288464
vn 0.70830464363098145 -0.23315182328224182 -0.66629177331924438
vn -0.00010196933726547286 -0.31018272042274475 -0.95067697763442993
vn -0.708260178565979 -0.20341505110263824 -0.67601031064987183
vn -0.99976134300231934 0.020775318145751953 -0.0067603667266666889
vn -0.70830494165420532 0.23267340660095215 0.66645872592926025
vn 0.70829516649246216 0.4024377167224884 0.57996708154678345
vn -2.1233716324786656e-05 0.58779376745223999 0.80901086330413818
vn 0.99976027011871338 -0.017729606479406357 0.012845190241932869
vn 0.70834136009216309 -0.42710751295089722 -0.5619889497756958
vn -9.6441595815122128e-05 -0.58882111310958862 -0.80826342105865479
vn -0.70830893516540527 -0.40291407704353333 -0.57961946725845337
vn -0.99975985288619995 0.017713548615574837 -0.012899377383291721
vn -0.7082788348197937 0.42719218134880066 0.56200355291366577
vn 0.70827555656433105 0.56199991703033447 0.42720231413841248
vn 2.6509824238019064e-05 0.80900198221206665 0.58780592679977417
vn 0.99976092576980591 -0.012864368967711926 0.017678748816251755
vn 0.70825284719467163 -0.57919013500213623 -0.40362933278083801
vn 0.00019150263688061386 -0.80733132362365723 -0.59009838104248047
vn -0.70831805467605591 -0.56199842691421509 -0.42713385820388794
vn -0.99976122379302979 0.012838385067880154 -0.017683442682027817
vn -0.70830190181732178 0.57994842529296875 0.40245267748832703
vn 0.70830178260803223 0.66647279262542725 0.23264284431934357
vn 7.6777641879743896e-06 0.95105308294296265 0.30902758240699768
vn 0.99976080656051636 -0.0067554614506661892 0.020802948623895645
vn 0.7083057165145874 -0.67608749866485596 -0.20299924910068512
vn 0.00012403989967424423 -0.95048022270202637 -0.3107852041721344
vn -0.70834726095199585 -0.66596662998199463 -0.23395021259784698
vn -0.99976104497909546 0.0067590624094009399 -0.020788289606571198
vn -0.70830881595611572 0.67592763900756836 0.20352005958557129
vn 0 0 -1
vn 0 0 -1
vn 0 0 -1
vn 0 0 -1
vn 0 0 -1
vn 0 0 -1
vn 0 0 -1
vn 0 0 -1
vn 0.79717081785202026 0 0.60375374555587769
vn 0.13678073883056641 0 0.99060136079788208
vn -0.60375374555587769 0 0.79717081785202026
vn -0.99060136079788208 0 0.13678073883056641
vn -0.79717081785202026 0 -0.60375374555587769
vn -0.13678073883056641 0 -0.99060136079788208
vn 0.60375374555587769 0 -0.79717081785202026
vn 0.99060136079788208 0 -0.13678073883056641
vn 0.99060136079788208 0 0.13678073883056641
vn 0.79717081785202026 0 -0.60375374555587769
vn 0.13678073883056641 0 -0.99060136079788208
vn -0.60375374555587769 0 -0.79717081785202026
vn -0.99060136079788208 0 -0.13678073883056641
vn -0.79717081785202026 0 0.60375374555587769
vn -0.13678073883056641 0 0.99060136079788208
vn 0.60375374555587769 0 0.79717081785202026
vn 0.79717850685119629 0.60374361276626587 0
vn 0.13678073883056641 0.99060136079788208 0
vn -0.60375827550888062 0.79716742038726807 0
vn -0.99060231447219849 0.13677377998828888 0
vn -0.79717850685119629 -0.60374361276626587 0
vn -0.13678073883056641 -0.99060136079788208 0
vn 0.60375827550888062 -0.79716742038726807 0
vn 0.99060231447219849 -0.13677377998828888 0
vn 0.99060231447219849 0.13677377998828888 0
vn 0.79717850685119629 -0.60374367237091064 0
vn 0.13678073883056641 -0.99060136079788208 0
vn -0.60375827550888062 -0.79716742038726807 0
vn -0.99060231447219849 -0.13677377998828888 0
vn -0.79717850685119629 0.60374367237091064 0
vn -0.13678073883056641 0.99060136079788208 0
vn 0.60375827550888062 0.79716742038726807 0
vn 0 -1 0
vn 0 -1 0
vn 0 -1 0
vn 0 -1 0
vn 0 -1 0
vn 0 -1 0
vn 0 -1 0
vn 0 -1 0
vn 0.60027188062667847 0.78994178771972656 0.12516240775585175
vn -0.13514618575572968 0.97862422466278076 0.15501633286476135
vn 0.99036777019500732 0.13675461709499359 0.021677663549780846
vn 0.79450356960296631 -0.59980350732803345 -0.094867371022701263
vn 0.1350066065788269 -0.97897326946258545 -0.15292003750801086
vn -0.60028558969497681 -0.79011696577072144 -0.12398482114076614
vn -0.99036926031112671 -0.13675281405448914 -0.021619012579321861
vn -0.79450249671936035 0.59977442026138306 0.095060490071773529
vn 0 -1 0
vn 0 -1 0
vn 0 -1 0
vn 0 -1 0
vn 0 -1 0
vn 0 -1 0
vn 0 -1 0
vn 0 -1 0
vn 0 1 0
vn 0 1 0
vn 0 1 0
vn 0 1 0
vn 0 1 0
vn 0 1 0
vn 0 1 0
vn 0 1 0
vn 0 0 1
vn 0 0 1
vn 0 0 1
vn 0 0 1
vn 0 0 1
vn 0 0 1
vn 0 0 1
vn 0 0 1
vn 0 0 -1
vn 0 0 -1
vn 0 0 -1
vn 0 0 -1
vn 0 0 -1
vn 0 0 -1
vn 0 0 -1
vn 0 0 -1
# 128 elements written
f 81//81 82//82 83//83 
f 81//81 83//83 84//84 
f 81//81 84//84 85//85 
f 81//81 85//85 86//86 
f 81//81 86//86 87//87 
f 81//81 87//87 88//88 
f 8//8 7//7 9//9 
f 8//8 9//9 10//10 
f 7//7 6//6 11//11 
f 7//7 11//11 9//9 
f 6//6 5//5 12//12 
f 6//6 12//12 11//11 
f 5//5 4//4 13//13 
f 5//5 13//13 12//12 
f 4//4 3//3 14//14 
f 4//4 14//14 13//13 
f 3//3 2//2 15//15 
f 3//3 15//15 14//14 
f 2//2 1//1 16//16 
f 2//2 16//16 15//15 
f 1//1 8//8 10//10 
f 1//1 10//10 16//16 
f 10//10 9//9 17//17 
f 10//10 17//17 18//18 
f 9//9 11//11 19//19 
f 9//9 19//19 17//17 
f 11//11 12//12 20//20 
f 11//11 20//20 19//19 
f 12//12 13//13 21//21 
f 12//12 21//21 20//20 
f 13//13 14//14 22//22 
f 13//13 22//22 21//21 
f 14//14 15//15 23//23 
f 14//14 23//23 22//22 
f 15//15 16//16 24//24 
f 15//15 24//24 23//23 
f 16//16 10//10 18//18 
f 16//16 18//18 24//24 
f 18//18 17//17 25//25 
f 18//18 25//25 26//26 
f 17//17 19//19 27//27 
f 17//17 27//27 25//25 
f 19//19 20//20 28//28 
f 19//19 28//28 27//27 
f 20//20 21//21 29//29 
f 20//20 29//29 28//28 
f 21//21 22//22 30//30 
f 21//21 30//30 29//29 
f 22//22 23//23 31//31 
f 22//22 31//31 30//30 
f 23//23 24//24 32//32 
f 23//23 32//32 31//31 
f 24//24 18//18 26//26 
f 24//24 26//26 32//32 
f 26//26 25//25 33//33 
f 26//26 33//33 34//34 
f 25//25 27//27 35//35 
f 25//25 35//35 33//33 
f 27//27 28//28 36//36 
f 27//27 36//36 35//35 
f 28//28 29//29 37//37 
f 28//28 37//37 36//36 
f 29//29 30//30 38//38 
f 29//29 38//38 37//37 
f 30//30 31//31 39//39 
f 30//30 39//39 38//38 
f 31//31 32//32 40//40 
f 31//31 40//40 39//39 
f 32//32 26//26 34//34 
f 32//32 34//34 40//40 
f 34//34 33//33 89//89 
f 34//34 89//89 90//90 
f 33//33 35//35 91//91 
f 33//33 91//91 89//89 
f 35//35 36//36 92//92 
f 35//35 92//92 91//91 
f 36//36 37//37 93//93 
f 36//36 93//93 92//92 
f 37//37 38//38 94//94 
f 37//37 94//94 93//93 
f 38//38 39//39 95//95 
f 38//38 95//95 94//94 
f 39//39 40//40 96//96 
f 39//39 96//96 95//95 
f 40//40 34//34 90//90 
f 40//40 90//90 96//96 
f 42//42 41//41 43//43 
f 42//42 43//43 44//44 
f 42//42 44//44 45//45 
f 42//42 45//45 46//46 
f 42//42 46//46 47//47 
f 42//42 47//47 48//48 
f 97//97 98//98 99//99 
f 97//97 99//99 100//100 
f 97//97 100//100 101//101 
f 97//97 101//101 102//102 
f 97//97 102//102 103//103 
f 97//97 103//103 104//104 
f 105//105 106//106 107//107 
f 105//105 107//107 108//108 
f 105//105 108//108 109//109 
f 105//105 109//109 110//110 
f 105//105 110//110 111//111 
f 105//105 111//111 112//112 
f 56//56 55//55 58//58 
f 56//56 58//58 57//57 
f 55//55 54//54 59//59 
f 55//55 59//59 58//58 
f 54//54 53//53 60//60 
f 54//54 60//60 59//59 
f 53//53 52//52 61//61 
f 53//53 61//61 60//60 
f 52//52 51//51 62//62 
f 52//52 62//62 61//61 
f 51//51 50//50 63//63 
f 51//51 63//63 62//62 
f 50//50 49//49 64//64 
f 50//50 64//64 63//63 
f 49//49 56//56 57//57 
f 49//49 57//57 64//64 
f 113//113 114//114 115//115 
f 113//113 115//115 116//116 
f 113//113 116//116 117//117 
f 113//113 117//117 118//118 
f 113//113 118//118 119//119 
f 113//113 119//119 120//120 
f 121//121 122//122 123//123 
f 121//121 123//123 124//124 
f 121//121 124//124 125//125 
f 121//121 125//125 126//126 
f 121//121 126//126 127//127 
f 121//121 127//127 128//128 
f 72//72 71//71 74//74 
f 72//72 74//74 73//73 
f 71//71 70//70 75//75 
f 71//71 75//75 74//74 
f 70//70 69//69 76//76 
f 70//70 76//76 75//75 
f 69//69 68//68 77//77 
f 69//69 77//77 76//76 
f 68//68 67//67 78//78 
f 68//68 78//78 77//77 
f 67//67 66//66 79//79 
f 67//67 79//79 78//78 
f 66//66 65//65 80//80 
f 66//66 80//80 79//79 
f 65//65 72//72 73//73 
f 65//65 73//73 80//80 
