# file written by OpenSceneGraph

mtllib g8.mtl


o _Geometry_0

v -21528.681640625 9396.6806640625 17650
v -21550 9387.849609375 17650
v -21571.318359375 9396.6806640625 17650
v -21580.150390625 9418 17650
v -21571.318359375 9439.3193359375 17650
v -21550 9448.150390625 17650
v -21528.681640625 9439.3193359375 17650
v -21519.849609375 9418 17650
v -21519.849609375 9418 17654.5
v -21528.681640625 9439.3193359375 17654.5
v -21550 9448.150390625 17654.5
v -21571.318359375 9439.3193359375 17654.5
v -21580.150390625 9418 17654.5
v -21571.318359375 9396.6806640625 17654.5
v -21550 9387.849609375 17654.5
v -21528.681640625 9396.6806640625 17654.5
v -21528.681640625 9396.6806640625 17819.5
v -21550 9387.849609375 17819.5
v -21571.318359375 9396.6806640625 17819.5
v -21580.150390625 9418 17819.5
v -21571.318359375 9439.3193359375 17819.5
v -21550 9448.150390625 17819.5
v -21528.681640625 9439.3193359375 17819.5
v -21519.849609375 9418 17819.5
v -21519.849609375 9418 18200.19921875
v -21528.681640625 9439.3193359375 18200.19921875
v -21550 9448.150390625 18200.19921875
v -21571.318359375 9439.3193359375 18200.19921875
v -21580.150390625 9418 18200.19921875
v -21571.318359375 9396.6806640625 18200.19921875
v -21550 9387.849609375 18200.19921875
v -21528.681640625 9396.6806640625 18200.19921875
v -21523.376953125 9391.376953125 17654.5
v -21550 9380.349609375 17654.5
v -21576.623046875 9391.376953125 17654.5
v -21587.650390625 9418 17654.5
v -21576.623046875 9444.623046875 17654.5
v -21550 9455.650390625 17654.5
v -21523.376953125 9444.623046875 17654.5
v -21512.349609375 9418 17654.5
v -21550 9418 17736.5
v -21523.376953125 9444.623046875 17819.5
v -21550 9455.650390625 17819.5
v -21576.623046875 9444.623046875 17819.5
v -21587.650390625 9418 17819.5
v -21576.623046875 9391.376953125 17819.5
v -21550 9380.349609375 17819.5
v -21523.376953125 9391.376953125 17819.5
v -21512.349609375 9418 17819.5
v -21550 9418 17737.5
v -21549.5 9418 17737.5
v -21550.5 9418 17737.5
v -21550.5 9418 17736.5
v -21549.5 9418 17736.5
v -21549.5 9693.2001953125 17736.5
v -21549.5 9693.2001953125 17737.5
v -21550.5 9693.2001953125 17736.5
v -21550.5 9693.2001953125 17737.5
v -21487.138671875 9693.2001953125 17674.138671875
v -21461.099609375 9693.2001953125 17737
v -21487.138671875 9693.2001953125 17799.861328125
v -21550 9693.2001953125 17825.900390625
v -21612.861328125 9693.2001953125 17799.861328125
v -21638.900390625 9693.2001953125 17737
v -21612.861328125 9693.2001953125 17674.138671875
v -21550 9693.2001953125 17648.099609375
v -21550 9694.2001953125 17648.099609375
v -21612.861328125 9694.2001953125 17674.138671875
v -21638.900390625 9694.2001953125 17737
v -21612.861328125 9694.2001953125 17799.861328125
v -21550 9694.2001953125 17825.900390625
v -21487.138671875 9694.2001953125 17799.861328125
v -21461.099609375 9694.2001953125 17737
v -21487.138671875 9694.2001953125 17674.138671875
v -21528.681640625 9396.6806640625 17650
v -21550 9387.849609375 17650
v -21571.318359375 9396.6806640625 17650
v -21580.150390625 9418 17650
v -21571.318359375 9439.3193359375 17650
v -21550 9448.150390625 17650
v -21528.681640625 9439.3193359375 17650
v -21519.849609375 9418 17650
v -21519.849609375 9418 17654.5
v -21528.681640625 9439.3193359375 17654.5
v -21550 9448.150390625 17654.5
v -21571.318359375 9439.3193359375 17654.5
v -21580.150390625 9418 17654.5
v -21571.318359375 9396.6806640625 17654.5
v -21550 9387.849609375 17654.5
v -21528.681640625 9396.6806640625 17654.5
v -21528.681640625 9396.6806640625 17819.5
v -21550 9387.849609375 17819.5
v -21571.318359375 9396.6806640625 17819.5
v -21580.150390625 9418 17819.5
v -21571.318359375 9439.3193359375 17819.5
v -21550 9448.150390625 17819.5
v -21528.681640625 9439.3193359375 17819.5
v -21519.849609375 9418 17819.5
v -21519.849609375 9418 18200.19921875
v -21528.681640625 9439.3193359375 18200.19921875
v -21550 9448.150390625 18200.19921875
v -21571.318359375 9439.3193359375 18200.19921875
v -21580.150390625 9418 18200.19921875
v -21571.318359375 9396.6806640625 18200.19921875
v -21550 9387.849609375 18200.19921875
v -21528.681640625 9396.6806640625 18200.19921875
v -21523.376953125 9391.376953125 17654.5
v -21550 9380.349609375 17654.5
v -21576.623046875 9391.376953125 17654.5
v -21587.650390625 9418 17654.5
v -21576.623046875 9444.623046875 17654.5
v -21550 9455.650390625 17654.5
v -21523.376953125 9444.623046875 17654.5
v -21512.349609375 9418 17654.5
v -21523.376953125 9444.623046875 17819.5
v -21550 9455.650390625 17819.5
v -21576.623046875 9444.623046875 17819.5
v -21587.650390625 9418 17819.5
v -21576.623046875 9391.376953125 17819.5
v -21550 9380.349609375 17819.5
v -21523.376953125 9391.376953125 17819.5
v -21512.349609375 9418 17819.5
v -21549.5 9418 17737.5
v -21549.5 9418 17737.5
v -21550.5 9418 17737.5
v -21550.5 9418 17737.5
v -21550.5 9418 17736.5
v -21550.5 9418 17736.5
v -21549.5 9418 17736.5
v -21549.5 9418 17736.5
v -21549.5 9693.2001953125 17736.5
v -21549.5 9693.2001953125 17736.5
v -21549.5 9693.2001953125 17737.5
v -21549.5 9693.2001953125 17737.5
v -21550.5 9693.2001953125 17736.5
v -21550.5 9693.2001953125 17736.5
v -21550.5 9693.2001953125 17737.5
v -21550.5 9693.2001953125 17737.5
v -21487.138671875 9693.2001953125 17674.138671875
v -21461.099609375 9693.2001953125 17737
v -21487.138671875 9693.2001953125 17799.861328125
v -21550 9693.2001953125 17825.900390625
v -21612.861328125 9693.2001953125 17799.861328125
v -21638.900390625 9693.2001953125 17737
v -21612.861328125 9693.2001953125 17674.138671875
v -21550 9693.2001953125 17648.099609375
v -21550 9694.2001953125 17648.099609375
v -21612.861328125 9694.2001953125 17674.138671875
v -21638.900390625 9694.2001953125 17737
v -21612.861328125 9694.2001953125 17799.861328125
v -21550 9694.2001953125 17825.900390625
v -21487.138671875 9694.2001953125 17799.861328125
v -21461.099609375 9694.2001953125 17737
v -21487.138671875 9694.2001953125 17674.138671875
# 154 elements written

vn 0.79715633392333984 -0.60377293825149536 0
vn 0.13678336143493652 -0.99060100317001343 0
vn -0.60374832153320312 -0.79717499017715454 0
vn -0.99059939384460449 -0.13679510354995728 0
vn -0.79715633392333984 0.60377293825149536 0
vn -0.13678336143493652 0.99060100317001343 0
vn 0.60374832153320312 0.79717499017715454 0
vn 0.99059939384460449 0.13679510354995728 0
vn 0.99059939384460449 -0.13679510354995728 0
vn 0.79715633392333984 0.60377293825149536 0
vn 0.13678336143493652 0.99060100317001343 0
vn -0.60374826192855835 0.79717504978179932 0
vn -0.99059939384460449 0.13679510354995728 0
vn -0.79715633392333984 -0.60377293825149536 0
vn -0.13678336143493652 -0.99060100317001343 0
vn 0.60374826192855835 -0.79717504978179932 0
vn 0.79715633392333984 -0.60377293825149536 0
vn 0.13678336143493652 -0.99060100317001343 0
vn -0.60374832153320312 -0.79717499017715454 0
vn -0.99059939384460449 -0.13679510354995728 0
vn -0.79715633392333984 0.60377293825149536 0
vn -0.13678336143493652 0.99060100317001343 0
vn 0.60374832153320312 0.79717499017715454 0
vn 0.99059939384460449 0.13679510354995728 0
vn 0.99059939384460449 -0.13679510354995728 0
vn 0.79715633392333984 0.60377293825149536 0
vn 0.13678336143493652 0.99060100317001343 0
vn -0.60374826192855835 0.79717504978179932 0
vn -0.99059939384460449 0.13679510354995728 0
vn -0.79715633392333984 -0.60377293825149536 0
vn -0.13678336143493652 -0.99060100317001343 0
vn 0.60374826192855835 -0.79717504978179932 0
vn 0.64260220527648926 -0.64260983467102051 0.4172709584236145
vn 0 -0.90878486633300781 0.4172651469707489
vn -0.64260220527648926 -0.64260983467102051 0.4172709584236145
vn -0.90878313779830933 0 0.41726875305175781
vn -0.64260220527648926 0.64260983467102051 0.4172709584236145
vn 0 0.90878486633300781 0.4172651469707489
vn 0.64260220527648926 0.64260983467102051 0.4172709584236145
vn 0.90878313779830933 0 0.41726875305175781
vn 0 3.8157505599656361e-08 1
vn 0.64260220527648926 0.64260983467102051 -0.4172709584236145
vn 0 0.90878486633300781 -0.4172651469707489
vn -0.64260220527648926 0.64260983467102051 -0.4172709584236145
vn -0.90878313779830933 0 -0.41726875305175781
vn -0.64260220527648926 -0.64260983467102051 -0.4172709584236145
vn 0 -0.90878486633300781 -0.4172651469707489
vn 0.64260220527648926 -0.64260983467102051 -0.4172709584236145
vn 0.90878313779830933 0 -0.41726875305175781
vn 0 -3.8157505599656361e-08 -1
vn 1 0 0
vn -1 0 0
vn 0 0 -1
vn 0 0 -1
vn 0 1 0
vn 0 1 0
vn 0 1 0
vn 0 1 0
vn 0.60375237464904785 0 -0.79717189073562622
vn 0.99060153961181641 0 -0.13677904009819031
vn 0.79717189073562622 0 0.60375237464904785
vn 0.13677904009819031 0 0.99060153961181641
vn -0.60375237464904785 0 0.79717189073562622
vn -0.99060153961181641 0 0.13677904009819031
vn -0.79717189073562622 0 -0.60375237464904785
vn -0.13677904009819031 0 -0.99060153961181641
vn 0.13677904009819031 0 -0.99060153961181641
vn -0.60375237464904785 0 -0.79717189073562622
vn -0.99060153961181641 0 -0.13677904009819031
vn -0.79717189073562622 0 0.60375237464904785
vn -0.13677904009819031 0 0.99060153961181641
vn 0.60375237464904785 0 0.79717189073562622
vn 0.99060153961181641 0 0.13677904009819031
vn 0.79717189073562622 0 -0.60375237464904785
vn 0 0 -1
vn 0 0 -1
vn 0 0 -1
vn 0 0 -1
vn 0 0 -1
vn 0 0 -1
vn 0 0 -1
vn 0 0 -1
vn 0 0 1
vn 0 0 1
vn 0 0 1
vn 0 0 1
vn 0 0 1
vn 0 0 1
vn 0 0 1
vn 0 0 1
vn 0 0 -1
vn 0 0 -1
vn 0 0 -1
vn 0 0 -1
vn 0 0 -1
vn 0 0 -1
vn 0 0 -1
vn 0 0 -1
vn 0 0 1
vn 0 0 1
vn 0 0 1
vn 0 0 1
vn 0 0 1
vn 0 0 1
vn 0 0 1
vn 0 0 1
vn 0 0 -1
vn 0 0 -1
vn 0 0 -1
vn 0 0 -1
vn 0 0 -1
vn 0 0 -1
vn 0 0 -1
vn 0 0 -1
vn 0 0 1
vn 0 0 1
vn 0 0 1
vn 0 0 1
vn 0 0 1
vn 0 0 1
vn 0 0 1
vn 0 0 1
vn 0 -1 0
vn 0 0 1
vn 0 -1 0
vn 0 0 1
vn 0 -1 0
vn -1 0 0
vn 0 -1 0
vn 1 0 0
vn 1 0 0
vn 0 0 -1
vn 1 0 0
vn 0 0 1
vn 0 0 -1
vn -1 0 0
vn -1 0 0
vn 0 0 1
vn 0 -1 0
vn 0 -1 0
vn 0 -1 0
vn 0 -1 0
vn 0 -1 0
vn 0 -1 0
vn 0 -1 0
vn 0 -1 0
vn 0 1 0
vn 0 1 0
vn 0 1 0
vn 0 1 0
vn 0 1 0
vn 0 1 0
vn 0 1 0
vn 0 1 0
# 154 elements written
f 75//75 76//76 77//77 
f 75//75 77//77 78//78 
f 75//75 78//78 79//79 
f 75//75 79//79 80//80 
f 75//75 80//80 81//81 
f 75//75 81//81 82//82 
f 83//83 84//84 85//85 
f 83//83 85//85 86//86 
f 83//83 86//86 87//87 
f 83//83 87//87 88//88 
f 83//83 88//88 89//89 
f 83//83 89//89 90//90 
f 8//8 7//7 10//10 
f 8//8 10//10 9//9 
f 7//7 6//6 11//11 
f 7//7 11//11 10//10 
f 6//6 5//5 12//12 
f 6//6 12//12 11//11 
f 5//5 4//4 13//13 
f 5//5 13//13 12//12 
f 4//4 3//3 14//14 
f 4//4 14//14 13//13 
f 3//3 2//2 15//15 
f 3//3 15//15 14//14 
f 2//2 1//1 16//16 
f 2//2 16//16 15//15 
f 1//1 8//8 9//9 
f 1//1 9//9 16//16 
f 91//91 92//92 93//93 
f 91//91 93//93 94//94 
f 91//91 94//94 95//95 
f 91//91 95//95 96//96 
f 91//91 96//96 97//97 
f 91//91 97//97 98//98 
f 99//99 100//100 101//101 
f 99//99 101//101 102//102 
f 99//99 102//102 103//103 
f 99//99 103//103 104//104 
f 99//99 104//104 105//105 
f 99//99 105//105 106//106 
f 24//24 23//23 26//26 
f 24//24 26//26 25//25 
f 23//23 22//22 27//27 
f 23//23 27//27 26//26 
f 22//22 21//21 28//28 
f 22//22 28//28 27//27 
f 21//21 20//20 29//29 
f 21//21 29//29 28//28 
f 20//20 19//19 30//30 
f 20//20 30//30 29//29 
f 19//19 18//18 31//31 
f 19//19 31//31 30//30 
f 18//18 17//17 32//32 
f 18//18 32//32 31//31 
f 17//17 24//24 25//25 
f 17//17 25//25 32//32 
f 107//107 108//108 109//109 
f 107//107 109//109 110//110 
f 107//107 110//110 111//111 
f 107//107 111//111 112//112 
f 107//107 112//112 113//113 
f 107//107 113//113 114//114 
f 40//40 39//39 41//41 
f 39//39 38//38 41//41 
f 38//38 37//37 41//41 
f 37//37 36//36 41//41 
f 36//36 35//35 41//41 
f 35//35 34//34 41//41 
f 34//34 33//33 41//41 
f 33//33 40//40 41//41 
f 115//115 116//116 117//117 
f 115//115 117//117 118//118 
f 115//115 118//118 119//119 
f 115//115 119//119 120//120 
f 115//115 120//120 121//121 
f 115//115 121//121 122//122 
f 49//49 48//48 50//50 
f 48//48 47//47 50//50 
f 47//47 46//46 50//50 
f 46//46 45//45 50//50 
f 45//45 44//44 50//50 
f 44//44 43//43 50//50 
f 43//43 42//42 50//50 
f 42//42 49//49 50//50 
f 123//123 125//125 127//127 
f 123//123 127//127 129//129 
f 51//51 130//130 131//131 
f 51//51 131//131 133//133 
f 54//54 53//53 135//135 
f 54//54 135//135 132//132 
f 128//128 52//52 137//137 
f 128//128 137//137 136//136 
f 126//126 124//124 134//134 
f 126//126 134//134 138//138 
f 56//56 55//55 57//57 
f 56//56 57//57 58//58 
f 139//139 140//140 141//141 
f 139//139 141//141 142//142 
f 139//139 142//142 143//143 
f 139//139 143//143 144//144 
f 139//139 144//144 145//145 
f 139//139 145//145 146//146 
f 147//147 148//148 149//149 
f 147//147 149//149 150//150 
f 147//147 150//150 151//151 
f 147//147 151//151 152//152 
f 147//147 152//152 153//153 
f 147//147 153//153 154//154 
f 66//66 65//65 68//68 
f 66//66 68//68 67//67 
f 65//65 64//64 69//69 
f 65//65 69//69 68//68 
f 64//64 63//63 70//70 
f 64//64 70//70 69//69 
f 63//63 62//62 71//71 
f 63//63 71//71 70//70 
f 62//62 61//61 72//72 
f 62//62 72//72 71//71 
f 61//61 60//60 73//73 
f 61//61 73//73 72//72 
f 60//60 59//59 74//74 
f 60//60 74//74 73//73 
f 59//59 66//66 67//67 
f 59//59 67//67 74//74 
