# file written by OpenSceneGraph

mtllib g86.mtl


o _Geometry_0

v 7586.91796875 15380.900390625 27648.08203125
v 7581.5 15380.900390625 27635
v 7586.91796875 15380.900390625 27621.91796875
v 7600 15380.900390625 27616.5
v 7613.08203125 15380.900390625 27621.91796875
v 7618.5 15380.900390625 27635
v 7613.08203125 15380.900390625 27648.08203125
v 7600 15380.900390625 27653.5
v 7613.08203125 15390.845703125 27646.505859375
v 7600 15392.51953125 27651.66015625
v 7618.5 15386.8017578125 27634.064453125
v 7613.08203125 15382.759765625 27621.623046875
v 7600 15381.0849609375 27616.470703125
v 7586.91796875 15382.759765625 27621.623046875
v 7581.5 15386.8017578125 27634.064453125
v 7586.91796875 15390.845703125 27646.505859375
v 7613.08203125 15399.81640625 27641.935546875
v 7600 15403 27646.318359375
v 7618.5 15392.1259765625 27631.3515625
v 7613.08203125 15384.4375 27620.76953125
v 7600 15381.251953125 27616.384765625
v 7586.91796875 15384.4375 27620.76953125
v 7581.5 15392.1259765625 27631.3515625
v 7586.91796875 15399.81640625 27641.935546875
v 7613.08203125 15406.935546875 27634.81640625
v 7600 15411.318359375 27638
v 7618.5 15396.3515625 27627.126953125
v 7613.08203125 15385.76953125 27619.4375
v 7600 15381.384765625 27616.251953125
v 7586.91796875 15385.76953125 27619.4375
v 7581.5 15396.3515625 27627.126953125
v 7586.91796875 15406.935546875 27634.81640625
v 7613.08203125 15411.505859375 27625.84375
v 7600 15416.66015625 27627.51953125
v 7618.5 15399.064453125 27621.802734375
v 7613.08203125 15386.6240234375 27617.759765625
v 7600 15381.470703125 27616.0859375
v 7586.91796875 15386.6240234375 27617.759765625
v 7581.5 15399.064453125 27621.802734375
v 7586.91796875 15411.505859375 27625.84375
v 7613.08203125 15413.08203125 27615.900390625
v 7600 15418.5 27615.900390625
v 7618.5 15400 27615.900390625
v 7613.08203125 15386.91796875 27615.900390625
v 7600 15381.5 27615.900390625
v 7586.91796875 15386.91796875 27615.900390625
v 7581.5 15400 27615.900390625
v 7586.91796875 15413.08203125 27615.900390625
v 7609.43994140625 14807 27644.439453125
v 7600 14807 27648.349609375
v 7590.56005859375 14807 27644.439453125
v 7586.64990234375 14807 27635
v 7590.56005859375 14807 27625.560546875
v 7600 14807 27621.650390625
v 7609.43994140625 14807 27625.560546875
v 7613.35009765625 14807 27635
v 7613.35009765625 15380.900390625 27635
v 7609.43994140625 15380.900390625 27625.560546875
v 7600 15380.900390625 27621.650390625
v 7590.56005859375 15380.900390625 27625.560546875
v 7586.64990234375 15380.900390625 27635
v 7590.56005859375 15380.900390625 27644.439453125
v 7600 15380.900390625 27648.349609375
v 7609.43994140625 15380.900390625 27644.439453125
v 7609.43994140625 15409.439453125 27615.900390625
v 7600 15413.349609375 27615.900390625
v 7590.56005859375 15409.439453125 27615.900390625
v 7586.64990234375 15400 27615.900390625
v 7590.56005859375 15390.560546875 27615.900390625
v 7600 15386.650390625 27615.900390625
v 7609.43994140625 15390.560546875 27615.900390625
v 7613.35009765625 15400 27615.900390625
v 7613.35009765625 15400 27154.099609375
v 7609.43994140625 15390.560546875 27154.099609375
v 7600 15386.650390625 27154.099609375
v 7590.56005859375 15390.560546875 27154.099609375
v 7586.64990234375 15400 27154.099609375
v 7590.56005859375 15409.439453125 27154.099609375
v 7600 15413.349609375 27154.099609375
v 7609.43994140625 15409.439453125 27154.099609375
v 7609.43994140625 15409.439453125 27115.900390625
v 7600 15413.349609375 27115.900390625
v 7590.56005859375 15409.439453125 27115.900390625
v 7586.64990234375 15400 27115.900390625
v 7590.56005859375 15390.560546875 27115.900390625
v 7600 15386.650390625 27115.900390625
v 7609.43994140625 15390.560546875 27115.900390625
v 7613.35009765625 15400 27115.900390625
v 7613.35009765625 15400 26985
v 7609.43994140625 15390.560546875 26985
v 7600 15386.650390625 26985
v 7590.56005859375 15390.560546875 26985
v 7586.64990234375 15400 26985
v 7590.56005859375 15409.439453125 26985
v 7600 15413.349609375 26985
v 7609.43994140625 15409.439453125 26985
v 7613.08203125 15400 27148.08203125
v 7600 15400 27153.5
v 7586.91796875 15400 27148.08203125
v 7581.5 15400 27135
v 7586.91796875 15400 27121.91796875
v 7600 15400 27116.5
v 7613.08203125 15400 27121.91796875
v 7618.5 15400 27135
v 7618.5 15419.099609375 27135
v 7613.08203125 15419.099609375 27121.91796875
v 7600 15419.099609375 27116.5
v 7586.91796875 15419.099609375 27121.91796875
v 7581.5 15419.099609375 27135
v 7586.91796875 15419.099609375 27148.08203125
v 7600 15419.099609375 27153.5
v 7613.08203125 15419.099609375 27148.08203125
v 7586.91796875 15380.900390625 27648.08203125
v 7581.5 15380.900390625 27635
v 7586.91796875 15380.900390625 27621.91796875
v 7600 15380.900390625 27616.5
v 7613.08203125 15380.900390625 27621.91796875
v 7618.5 15380.900390625 27635
v 7613.08203125 15380.900390625 27648.08203125
v 7600 15380.900390625 27653.5
v 7613.08203125 15413.08203125 27615.900390625
v 7600 15418.5 27615.900390625
v 7618.5 15400 27615.900390625
v 7613.08203125 15386.91796875 27615.900390625
v 7600 15381.5 27615.900390625
v 7586.91796875 15386.91796875 27615.900390625
v 7581.5 15400 27615.900390625
v 7586.91796875 15413.08203125 27615.900390625
v 7609.43994140625 14807 27644.439453125
v 7600 14807 27648.349609375
v 7590.56005859375 14807 27644.439453125
v 7586.64990234375 14807 27635
v 7590.56005859375 14807 27625.560546875
v 7600 14807 27621.650390625
v 7609.43994140625 14807 27625.560546875
v 7613.35009765625 14807 27635
v 7613.35009765625 15380.900390625 27635
v 7609.43994140625 15380.900390625 27625.560546875
v 7600 15380.900390625 27621.650390625
v 7590.56005859375 15380.900390625 27625.560546875
v 7586.64990234375 15380.900390625 27635
v 7590.56005859375 15380.900390625 27644.439453125
v 7600 15380.900390625 27648.349609375
v 7609.43994140625 15380.900390625 27644.439453125
v 7609.43994140625 15409.439453125 27615.900390625
v 7600 15413.349609375 27615.900390625
v 7590.56005859375 15409.439453125 27615.900390625
v 7586.64990234375 15400 27615.900390625
v 7590.56005859375 15390.560546875 27615.900390625
v 7600 15386.650390625 27615.900390625
v 7609.43994140625 15390.560546875 27615.900390625
v 7613.35009765625 15400 27615.900390625
v 7613.35009765625 15400 27154.099609375
v 7613.35009765625 15400 27154.099609375
v 7609.43994140625 15390.560546875 27154.099609375
v 7609.43994140625 15390.560546875 27154.099609375
v 7600 15386.650390625 27154.099609375
v 7600 15386.650390625 27154.099609375
v 7590.56005859375 15390.560546875 27154.099609375
v 7590.56005859375 15390.560546875 27154.099609375
v 7586.64990234375 15400 27154.099609375
v 7586.64990234375 15400 27154.099609375
v 7590.56005859375 15409.439453125 27154.099609375
v 7590.56005859375 15409.439453125 27154.099609375
v 7600 15413.349609375 27154.099609375
v 7600 15413.349609375 27154.099609375
v 7609.43994140625 15409.439453125 27154.099609375
v 7609.43994140625 15409.439453125 27154.099609375
v 7609.43994140625 15409.439453125 27115.900390625
v 7609.43994140625 15409.439453125 27115.900390625
v 7600 15413.349609375 27115.900390625
v 7600 15413.349609375 27115.900390625
v 7590.56005859375 15409.439453125 27115.900390625
v 7590.56005859375 15409.439453125 27115.900390625
v 7586.64990234375 15400 27115.900390625
v 7586.64990234375 15400 27115.900390625
v 7590.56005859375 15390.560546875 27115.900390625
v 7590.56005859375 15390.560546875 27115.900390625
v 7600 15386.650390625 27115.900390625
v 7600 15386.650390625 27115.900390625
v 7609.43994140625 15390.560546875 27115.900390625
v 7609.43994140625 15390.560546875 27115.900390625
v 7613.35009765625 15400 27115.900390625
v 7613.35009765625 15400 27115.900390625
v 7613.35009765625 15400 26985
v 7609.43994140625 15390.560546875 26985
v 7600 15386.650390625 26985
v 7590.56005859375 15390.560546875 26985
v 7586.64990234375 15400 26985
v 7590.56005859375 15409.439453125 26985
v 7600 15413.349609375 26985
v 7609.43994140625 15409.439453125 26985
v 7613.08203125 15400 27148.08203125
v 7600 15400 27153.5
v 7586.91796875 15400 27148.08203125
v 7581.5 15400 27135
v 7586.91796875 15400 27121.91796875
v 7600 15400 27116.5
v 7613.08203125 15400 27121.91796875
v 7618.5 15400 27135
v 7618.5 15419.099609375 27135
v 7613.08203125 15419.099609375 27121.91796875
v 7600 15419.099609375 27116.5
v 7586.91796875 15419.099609375 27121.91796875
v 7581.5 15419.099609375 27135
v 7586.91796875 15419.099609375 27148.08203125
v 7600 15419.099609375 27153.5
v 7613.08203125 15419.099609375 27148.08203125
# 208 elements written

vn -0.60026770830154419 0.12514881789684296 0.78994709253311157
vn -0.99037289619445801 0.021667769178748131 0.13671906292438507
vn -0.79452723264694214 -0.095093853771686554 -0.59973639249801636
vn -0.13508737087249756 -0.15501365065574646 -0.97863280773162842
vn 0.60023617744445801 -0.12518122792243958 -0.78996598720550537
vn 0.99037230014801025 -0.021680092439055443 -0.13672097027301788
vn 0.79452842473983765 0.095053881406784058 0.59974110126495361
vn 0.13513001799583435 0.1550067663192749 0.97862797975540161
vn 0.70832490921020508 0.20353506505489349 0.67590636014938354
vn -5.824794243380893e-06 0.30904999375343323 0.95104581117630005
vn 0.99976229667663574 -0.0207391157746315 0.0067261448130011559
vn 0.70831811428070068 -0.23314929008483887 -0.6662784218788147
vn -0.00010185955034103245 -0.3101818859577179 -0.95067721605300903
vn -0.70827358961105347 -0.20340874791145325 -0.67599809169769287
vn -0.99976140260696411 0.020771568641066551 -0.0067591406404972076
vn -0.70831841230392456 0.23267139494419098 0.66644513607025146
vn 0.70830857753753662 0.40242788195610046 0.57995748519897461
vn -2.1233488951111212e-05 0.58779376745223999 0.80901080369949341
vn 0.99976032972335815 -0.017726415768265724 0.0128428740426898
vn 0.70835483074188232 -0.42710134387016296 -0.56197673082351685
vn -9.6359079179819673e-05 -0.5888206958770752 -0.80826365947723389
vn -0.70832234621047974 -0.40290427207946777 -0.57960981130599976
vn -0.9997599720954895 0.017710337415337563 -0.012897064909338951
vn -0.70829230546951294 0.42718607187271118 0.56199127435684204
vn 0.70828896760940552 0.56198775768280029 0.42719614505767822
vn 2.6514973797020502e-05 0.80900192260742188 0.58780592679977417
vn 0.99976110458374023 -0.012862048111855984 0.017675552517175674
vn 0.70826619863510132 -0.57918041944503784 -0.40361985564231873
vn 0.00019147343118675053 -0.80733120441436768 -0.59009861946105957
vn -0.70833146572113037 -0.56198614835739136 -0.42712771892547607
vn -0.99976128339767456 0.012836063280701637 -0.017680259421467781
vn -0.70831537246704102 0.57993876934051514 0.40244293212890625
vn 0.70831525325775146 0.66645920276641846 0.23264077305793762
vn 7.6668156907544471e-06 0.95105302333831787 0.30902764201164246
vn 0.99976086616516113 -0.0067542516626417637 0.020799210295081139
vn 0.70831918716430664 -0.67607539892196655 -0.20299258828163147
vn 0.00012404401786625385 -0.95048022270202637 -0.31078511476516724
vn -0.70836067199707031 -0.66595304012298584 -0.23394820094108582
vn -0.99976116418838501 0.0067578465677797794 -0.020784541964530945
vn -0.70832222700119019 0.67591547966003418 0.2035137414932251
vn 0 0 -1
vn 0 0 -1
vn 0 0 -1
vn 0 0 -1
vn 0 0 -1
vn 0 0 -1
vn 0 0 -1
vn 0 0 -1
vn 0.79716753959655762 0 0.60375827550888062
vn 0.13677379488945007 0 0.99060231447219849
vn -0.60374367237091064 0 0.79717850685119629
vn -0.99060136079788208 0 0.13678073883056641
vn -0.79716753959655762 0 -0.60375827550888062
vn -0.13677379488945007 0 -0.99060231447219849
vn 0.60374367237091064 0 -0.79717850685119629
vn 0.99060136079788208 0 -0.13678073883056641
vn 0.99060136079788208 0 0.13678073883056641
vn 0.79716742038726807 0 -0.60375827550888062
vn 0.13677379488945007 0 -0.99060231447219849
vn -0.60374367237091064 0 -0.79717850685119629
vn -0.99060136079788208 0 -0.13678073883056641
vn -0.79716742038726807 0 0.60375827550888062
vn -0.13677379488945007 0 0.99060231447219849
vn 0.60374367237091064 0 0.79717850685119629
vn 0.79717510938644409 0.6037481427192688 0
vn 0.13677377998828888 0.99060231447219849 0
vn -0.6037481427192688 0.79717510938644409 0
vn -0.99060231447219849 0.13677377998828888 0
vn -0.79717510938644409 -0.6037481427192688 0
vn -0.13677377998828888 -0.99060231447219849 0
vn 0.6037481427192688 -0.79717510938644409 0
vn 0.99060231447219849 -0.13677377998828888 0
vn 1 0 0
vn 0.70710676908493042 -0.70710676908493042 0
vn 0 -1 0
vn -0.70710676908493042 -0.70710676908493042 0
vn -1 0 0
vn -0.70710676908493042 0.70710676908493042 0
vn 0 1 0
vn 0.70710676908493042 0.70710676908493042 0
vn 0.70710676908493042 0.70710676908493042 0
vn 0 1 0
vn -0.70710676908493042 0.70710676908493042 0
vn -1 0 0
vn -0.70710676908493042 -0.70710676908493042 0
vn 0 -1 0
vn 0.70710676908493042 -0.70710676908493042 0
vn 1 0 0
vn 0.99060231447219849 0.13677377998828888 0
vn 0.79717510938644409 -0.6037481427192688 0
vn 0.13677377998828888 -0.99060231447219849 0
vn -0.6037481427192688 -0.79717510938644409 0
vn -0.99060231447219849 -0.13677377998828888 0
vn -0.79717510938644409 0.6037481427192688 0
vn -0.13677377998828888 0.99060231447219849 0
vn 0.6037481427192688 0.79717510938644409 0
vn 0.79718703031539917 0 0.6037324070930481
vn 0.13675417006015778 0 0.99060499668121338
vn -0.6037324070930481 0 0.79718703031539917
vn -0.99060499668121338 0 0.13675417006015778
vn -0.79718703031539917 0 -0.6037324070930481
vn -0.13675417006015778 0 -0.99060499668121338
vn 0.6037324070930481 0 -0.79718703031539917
vn 0.99060499668121338 0 -0.13675417006015778
vn 0.99060499668121338 0 0.13675417006015778
vn 0.79718703031539917 0 -0.6037324070930481
vn 0.13675417006015778 0 -0.99060499668121338
vn -0.6037324070930481 0 -0.79718703031539917
vn -0.99060499668121338 0 -0.13675417006015778
vn -0.79718703031539917 0 0.6037324070930481
vn -0.13675417006015778 0 0.99060499668121338
vn 0.6037324070930481 0 0.79718703031539917
vn 0 -1 0
vn 0 -1 0
vn 0 -1 0
vn 0 -1 0
vn 0 -1 0
vn 0 -1 0
vn 0 -1 0
vn 0 -1 0
vn 0.6002732515335083 0.78994071483612061 0.12516224384307861
vn -0.13513630628585815 0.9786255955696106 0.15501655638217926
vn 0.99037116765975952 0.13673041760921478 0.021673819050192833
vn 0.79452568292617798 -0.59977489709854126 -0.094862811267375946
vn 0.13499678671360016 -0.97897475957870483 -0.15291956067085266
vn -0.60028702020645142 -0.79011595249176025 -0.12398467212915421
vn -0.99037271738052368 -0.13672862946987152 -0.021615214645862579
vn -0.79452455043792725 0.59974586963653564 0.095055967569351196
vn 0 -1 0
vn 0 -1 0
vn 0 -1 0
vn 0 -1 0
vn 0 -1 0
vn 0 -1 0
vn 0 -1 0
vn 0 -1 0
vn 0 1 0
vn 0 1 0
vn 0 1 0
vn 0 1 0
vn 0 1 0
vn 0 1 0
vn 0 1 0
vn 0 1 0
vn 0 0 1
vn 0 0 1
vn 0 0 1
vn 0 0 1
vn 0 0 1
vn 0 0 1
vn 0 0 1
vn 0 0 1
vn 0 0 -1
vn 0 0 1
vn 0 0 -1
vn 0 0 1
vn 0 0 -1
vn 0 0 1
vn 0 0 -1
vn 0 0 1
vn 0 0 -1
vn 0 0 1
vn 0 0 -1
vn 0 0 1
vn 0 0 -1
vn 0 0 1
vn 0 0 -1
vn 0 0 1
vn 0 0 1
vn 0 0 -1
vn 0 0 1
vn 0 0 -1
vn 0 0 1
vn 0 0 -1
vn 0 0 1
vn 0 0 -1
vn 0 0 1
vn 0 0 -1
vn 0 0 1
vn 0 0 -1
vn 0 0 1
vn 0 0 -1
vn 0 0 1
vn 0 0 -1
vn 0 0 -1
vn 0 0 -1
vn 0 0 -1
vn 0 0 -1
vn 0 0 -1
vn 0 0 -1
vn 0 0 -1
vn 0 0 -1
vn 0 -1 0
vn 0 -1 0
vn 0 -1 0
vn 0 -1 0
vn 0 -1 0
vn 0 -1 0
vn 0 -1 0
vn 0 -1 0
vn 0 1 0
vn 0 1 0
vn 0 1 0
vn 0 1 0
vn 0 1 0
vn 0 1 0
vn 0 1 0
vn 0 1 0
# 208 elements written
f 113//113 114//114 115//115 
f 113//113 115//115 116//116 
f 113//113 116//116 117//117 
f 113//113 117//117 118//118 
f 113//113 118//118 119//119 
f 113//113 119//119 120//120 
f 8//8 7//7 9//9 
f 8//8 9//9 10//10 
f 7//7 6//6 11//11 
f 7//7 11//11 9//9 
f 6//6 5//5 12//12 
f 6//6 12//12 11//11 
f 5//5 4//4 13//13 
f 5//5 13//13 12//12 
f 4//4 3//3 14//14 
f 4//4 14//14 13//13 
f 3//3 2//2 15//15 
f 3//3 15//15 14//14 
f 2//2 1//1 16//16 
f 2//2 16//16 15//15 
f 1//1 8//8 10//10 
f 1//1 10//10 16//16 
f 10//10 9//9 17//17 
f 10//10 17//17 18//18 
f 9//9 11//11 19//19 
f 9//9 19//19 17//17 
f 11//11 12//12 20//20 
f 11//11 20//20 19//19 
f 12//12 13//13 21//21 
f 12//12 21//21 20//20 
f 13//13 14//14 22//22 
f 13//13 22//22 21//21 
f 14//14 15//15 23//23 
f 14//14 23//23 22//22 
f 15//15 16//16 24//24 
f 15//15 24//24 23//23 
f 16//16 10//10 18//18 
f 16//16 18//18 24//24 
f 18//18 17//17 25//25 
f 18//18 25//25 26//26 
f 17//17 19//19 27//27 
f 17//17 27//27 25//25 
f 19//19 20//20 28//28 
f 19//19 28//28 27//27 
f 20//20 21//21 29//29 
f 20//20 29//29 28//28 
f 21//21 22//22 30//30 
f 21//21 30//30 29//29 
f 22//22 23//23 31//31 
f 22//22 31//31 30//30 
f 23//23 24//24 32//32 
f 23//23 32//32 31//31 
f 24//24 18//18 26//26 
f 24//24 26//26 32//32 
f 26//26 25//25 33//33 
f 26//26 33//33 34//34 
f 25//25 27//27 35//35 
f 25//25 35//35 33//33 
f 27//27 28//28 36//36 
f 27//27 36//36 35//35 
f 28//28 29//29 37//37 
f 28//28 37//37 36//36 
f 29//29 30//30 38//38 
f 29//29 38//38 37//37 
f 30//30 31//31 39//39 
f 30//30 39//39 38//38 
f 31//31 32//32 40//40 
f 31//31 40//40 39//39 
f 32//32 26//26 34//34 
f 32//32 34//34 40//40 
f 34//34 33//33 121//121 
f 34//34 121//121 122//122 
f 33//33 35//35 123//123 
f 33//33 123//123 121//121 
f 35//35 36//36 124//124 
f 35//35 124//124 123//123 
f 36//36 37//37 125//125 
f 36//36 125//125 124//124 
f 37//37 38//38 126//126 
f 37//37 126//126 125//125 
f 38//38 39//39 127//127 
f 38//38 127//127 126//126 
f 39//39 40//40 128//128 
f 39//39 128//128 127//127 
f 40//40 34//34 122//122 
f 40//40 122//122 128//128 
f 42//42 41//41 43//43 
f 42//42 43//43 44//44 
f 42//42 44//44 45//45 
f 42//42 45//45 46//46 
f 42//42 46//46 47//47 
f 42//42 47//47 48//48 
f 129//129 130//130 131//131 
f 129//129 131//131 132//132 
f 129//129 132//132 133//133 
f 129//129 133//133 134//134 
f 129//129 134//134 135//135 
f 129//129 135//135 136//136 
f 137//137 138//138 139//139 
f 137//137 139//139 140//140 
f 137//137 140//140 141//141 
f 137//137 141//141 142//142 
f 137//137 142//142 143//143 
f 137//137 143//143 144//144 
f 56//56 55//55 58//58 
f 56//56 58//58 57//57 
f 55//55 54//54 59//59 
f 55//55 59//59 58//58 
f 54//54 53//53 60//60 
f 54//54 60//60 59//59 
f 53//53 52//52 61//61 
f 53//53 61//61 60//60 
f 52//52 51//51 62//62 
f 52//52 62//62 61//61 
f 51//51 50//50 63//63 
f 51//51 63//63 62//62 
f 50//50 49//49 64//64 
f 50//50 64//64 63//63 
f 49//49 56//56 57//57 
f 49//49 57//57 64//64 
f 145//145 146//146 147//147 
f 145//145 147//147 148//148 
f 145//145 148//148 149//149 
f 145//145 149//149 150//150 
f 145//145 150//150 151//151 
f 145//145 151//151 152//152 
f 153//153 155//155 157//157 
f 153//153 157//157 159//159 
f 153//153 159//159 161//161 
f 153//153 161//161 163//163 
f 153//153 163//163 165//165 
f 153//153 165//165 167//167 
f 72//72 71//71 74//74 
f 72//72 74//74 73//73 
f 71//71 70//70 75//75 
f 71//71 75//75 74//74 
f 70//70 69//69 76//76 
f 70//70 76//76 75//75 
f 69//69 68//68 77//77 
f 69//69 77//77 76//76 
f 68//68 67//67 78//78 
f 68//68 78//78 77//77 
f 67//67 66//66 79//79 
f 67//67 79//79 78//78 
f 66//66 65//65 80//80 
f 66//66 80//80 79//79 
f 65//65 72//72 73//73 
f 65//65 73//73 80//80 
f 169//169 171//171 173//173 
f 169//169 173//173 175//175 
f 169//169 175//175 177//177 
f 169//169 177//177 179//179 
f 169//169 179//179 181//181 
f 169//169 181//181 183//183 
f 185//185 186//186 187//187 
f 185//185 187//187 188//188 
f 185//185 188//188 189//189 
f 185//185 189//189 190//190 
f 185//185 190//190 191//191 
f 185//185 191//191 192//192 
f 88//88 87//87 90//90 
f 88//88 90//90 89//89 
f 87//87 86//86 91//91 
f 87//87 91//91 90//90 
f 86//86 85//85 92//92 
f 86//86 92//92 91//91 
f 85//85 84//84 93//93 
f 85//85 93//93 92//92 
f 84//84 83//83 94//94 
f 84//84 94//94 93//93 
f 83//83 82//82 95//95 
f 83//83 95//95 94//94 
f 82//82 81//81 96//96 
f 82//82 96//96 95//95 
f 81//81 88//88 89//89 
f 81//81 89//89 96//96 
f 182//182 180//180 178//178 
f 182//182 178//178 176//176 
f 182//182 176//176 174//174 
f 182//182 174//174 172//172 
f 182//182 172//172 170//170 
f 182//182 170//170 184//184 
f 154//154 168//168 166//166 
f 154//154 166//166 164//164 
f 154//154 164//164 162//162 
f 154//154 162//162 160//160 
f 154//154 160//160 158//158 
f 154//154 158//158 156//156 
f 88//88 81//81 80//80 
f 88//88 80//80 73//73 
f 81//81 82//82 79//79 
f 81//81 79//79 80//80 
f 82//82 83//83 78//78 
f 82//82 78//78 79//79 
f 83//83 84//84 77//77 
f 83//83 77//77 78//78 
f 84//84 85//85 76//76 
f 84//84 76//76 77//77 
f 85//85 86//86 75//75 
f 85//85 75//75 76//76 
f 86//86 87//87 74//74 
f 86//86 74//74 75//75 
f 87//87 88//88 73//73 
f 87//87 73//73 74//74 
f 193//193 194//194 195//195 
f 193//193 195//195 196//196 
f 193//193 196//196 197//197 
f 193//193 197//197 198//198 
f 193//193 198//198 199//199 
f 193//193 199//199 200//200 
f 201//201 202//202 203//203 
f 201//201 203//203 204//204 
f 201//201 204//204 205//205 
f 201//201 205//205 206//206 
f 201//201 206//206 207//207 
f 201//201 207//207 208//208 
f 104//104 103//103 106//106 
f 104//104 106//106 105//105 
f 103//103 102//102 107//107 
f 103//103 107//107 106//106 
f 102//102 101//101 108//108 
f 102//102 108//108 107//107 
f 101//101 100//100 109//109 
f 101//101 109//109 108//108 
f 100//100 99//99 110//110 
f 100//100 110//110 109//109 
f 99//99 98//98 111//111 
f 99//99 111//111 110//110 
f 98//98 97//97 112//112 
f 98//98 112//112 111//111 
f 97//97 104//104 105//105 
f 97//97 105//105 112//112 
