# file written by OpenSceneGraph

mtllib g20.mtl


o _Geometry_0

v 8672.7763671875 15606.5 39859.77734375
v 8496 15606.5 39933
v 8319.2236328125 15606.5 39859.77734375
v 8246 15606.5 39683
v 8319.2236328125 15606.5 39506.22265625
v 8496 15606.5 39433
v 8672.7763671875 15606.5 39506.22265625
v 8746 15606.5 39683
v 8746 15686.5 39683
v 8672.7763671875 15686.5 39506.22265625
v 8496 15686.5 39433
v 8319.2236328125 15686.5 39506.22265625
v 8246 15686.5 39683
v 8319.2236328125 15686.5 39859.77734375
v 8496 15686.5 39933
v 8672.7763671875 15686.5 39859.77734375
v 8776 15606.5 39783
v 8776 15606.5 39583
v 8801 15606.5 39583
v 8801 15606.5 39783
v 8801 15686.5 39783
v 8776 15686.5 39783
v 8801 15686.5 39583
v 8776 15686.5 39583
v 8742.3974609375 15606.5 39723
v 8742.3974609375 15606.5 39643
v 8776.0029296875 15606.5 39643
v 8776.0029296875 15606.5 39723
v 8776.0029296875 15686.5 39723
v 8742.3974609375 15686.5 39723
v 8776.0029296875 15686.5 39643
v 8742.3974609375 15686.5 39643
v 8801 15558.818359375 39595.3203125
v 8801 15522.5 39683
v 8801 15558.818359375 39770.6796875
v 8801 15646.5 39807
v 8801 15734.181640625 39770.6796875
v 8801 15770.5 39683
v 8801 15734.181640625 39595.3203125
v 8801 15646.5 39559
v 9048 15646.5 39559
v 9048 15734.181640625 39595.3203125
v 9048 15770.5 39683
v 9048 15734.181640625 39770.6796875
v 9048 15646.5 39807
v 9048 15558.818359375 39770.6796875
v 9048 15522.5 39683
v 9048 15558.818359375 39595.3203125
v 8990.4267578125 15646.5 39661.42578125
v 8948 15646.5 39679
v 8905.5732421875 15646.5 39661.42578125
v 8888 15646.5 39619
v 8905.5732421875 15646.5 39576.57421875
v 8948 15646.5 39559
v 8990.4267578125 15646.5 39576.57421875
v 9008 15646.5 39619
v 9008 16522.5 39619
v 8990.4267578125 16522.5 39576.57421875
v 8948 16522.5 39559
v 8905.5732421875 16522.5 39576.57421875
v 8888 16522.5 39619
v 8905.5732421875 16522.5 39661.42578125
v 8948 16522.5 39679
v 8990.4267578125 16522.5 39661.42578125
v 8956.8388671875 16903.5 39610.16015625
v 8948 16903.5 39606.5
v 8939.1611328125 16903.5 39610.16015625
v 8935.5 16903.5 39619
v 8939.1611328125 16903.5 39627.83984375
v 8948 16903.5 39631.5
v 8956.8388671875 16903.5 39627.83984375
v 8960.5 16903.5 39619
v 8960.5 16522.5 39619
v 8956.8388671875 16522.5 39627.83984375
v 8948 16522.5 39631.5
v 8939.1611328125 16522.5 39627.83984375
v 8935.5 16522.5 39619
v 8939.1611328125 16522.5 39610.16015625
v 8948 16522.5 39606.5
v 8956.8388671875 16522.5 39610.16015625
v 9079.875 16322.5 39750.875
v 8948 16322.5 39805.5
v 8816.125 16322.5 39750.875
v 8761.5 16322.5 39619
v 8816.125 16322.5 39487.125
v 8948 16322.5 39432.5
v 9079.875 16322.5 39487.125
v 9134.5 16322.5 39619
v 9134.5 16522.5 39619
v 9079.875 16522.5 39487.125
v 8948 16522.5 39432.5
v 8816.125 16522.5 39487.125
v 8761.5 16522.5 39619
v 8816.125 16522.5 39750.875
v 8948 16522.5 39805.5
v 9079.875 16522.5 39750.875
v 9115.23046875 16410 39786.23046875
v 8948 16410 39855.5
v 8780.76953125 16410 39786.23046875
v 8711.5 16410 39619
v 8780.76953125 16410 39451.76953125
v 8948 16410 39382.5
v 9115.23046875 16410 39451.76953125
v 9184.5 16410 39619
v 9184.5 16435 39619
v 9115.23046875 16435 39451.76953125
v 8948 16435 39382.5
v 8780.76953125 16435 39451.76953125
v 8711.5 16435 39619
v 8780.76953125 16435 39786.23046875
v 8948 16435 39855.5
v 9115.23046875 16435 39786.23046875
v 9100.7353515625 16841 39771.734375
v 8948 16841 39835
v 8795.2646484375 16841 39771.734375
v 8732 16841 39619
v 8795.2646484375 16841 39466.265625
v 8948 16841 39403
v 9100.7353515625 16841 39466.265625
v 9164 16841 39619
v 9164 16866 39619
v 9100.7353515625 16866 39466.265625
v 8948 16866 39403
v 8795.2646484375 16866 39466.265625
v 8732 16866 39619
v 8795.2646484375 16866 39771.734375
v 8948 16866 39835
v 9100.7353515625 16866 39771.734375
v 8672.7763671875 15606.5 39859.77734375
v 8496 15606.5 39933
v 8319.2236328125 15606.5 39859.77734375
v 8246 15606.5 39683
v 8319.2236328125 15606.5 39506.22265625
v 8496 15606.5 39433
v 8672.7763671875 15606.5 39506.22265625
v 8746 15606.5 39683
v 8746 15686.5 39683
v 8672.7763671875 15686.5 39506.22265625
v 8496 15686.5 39433
v 8319.2236328125 15686.5 39506.22265625
v 8246 15686.5 39683
v 8319.2236328125 15686.5 39859.77734375
v 8496 15686.5 39933
v 8672.7763671875 15686.5 39859.77734375
v 8776 15606.5 39783
v 8776 15606.5 39783
v 8776 15606.5 39583
v 8776 15606.5 39583
v 8801 15606.5 39583
v 8801 15606.5 39583
v 8801 15606.5 39783
v 8801 15606.5 39783
v 8801 15686.5 39783
v 8801 15686.5 39783
v 8776 15686.5 39783
v 8776 15686.5 39783
v 8801 15686.5 39583
v 8801 15686.5 39583
v 8776 15686.5 39583
v 8776 15686.5 39583
v 8742.3974609375 15606.5 39723
v 8742.3974609375 15606.5 39723
v 8742.3974609375 15606.5 39643
v 8742.3974609375 15606.5 39643
v 8776.0029296875 15606.5 39643
v 8776.0029296875 15606.5 39643
v 8776.0029296875 15606.5 39723
v 8776.0029296875 15606.5 39723
v 8776.0029296875 15686.5 39723
v 8776.0029296875 15686.5 39723
v 8742.3974609375 15686.5 39723
v 8742.3974609375 15686.5 39723
v 8776.0029296875 15686.5 39643
v 8776.0029296875 15686.5 39643
v 8742.3974609375 15686.5 39643
v 8742.3974609375 15686.5 39643
v 8801 15558.818359375 39595.3203125
v 8801 15522.5 39683
v 8801 15558.818359375 39770.6796875
v 8801 15646.5 39807
v 8801 15734.181640625 39770.6796875
v 8801 15770.5 39683
v 8801 15734.181640625 39595.3203125
v 8801 15646.5 39559
v 9048 15646.5 39559
v 9048 15734.181640625 39595.3203125
v 9048 15770.5 39683
v 9048 15734.181640625 39770.6796875
v 9048 15646.5 39807
v 9048 15558.818359375 39770.6796875
v 9048 15522.5 39683
v 9048 15558.818359375 39595.3203125
v 8990.4267578125 15646.5 39661.42578125
v 8948 15646.5 39679
v 8905.5732421875 15646.5 39661.42578125
v 8888 15646.5 39619
v 8905.5732421875 15646.5 39576.57421875
v 8948 15646.5 39559
v 8990.4267578125 15646.5 39576.57421875
v 9008 15646.5 39619
v 9008 16522.5 39619
v 8990.4267578125 16522.5 39576.57421875
v 8948 16522.5 39559
v 8905.5732421875 16522.5 39576.57421875
v 8888 16522.5 39619
v 8905.5732421875 16522.5 39661.42578125
v 8948 16522.5 39679
v 8990.4267578125 16522.5 39661.42578125
v 8956.8388671875 16903.5 39610.16015625
v 8948 16903.5 39606.5
v 8939.1611328125 16903.5 39610.16015625
v 8935.5 16903.5 39619
v 8939.1611328125 16903.5 39627.83984375
v 8948 16903.5 39631.5
v 8956.8388671875 16903.5 39627.83984375
v 8960.5 16903.5 39619
v 8960.5 16522.5 39619
v 8956.8388671875 16522.5 39627.83984375
v 8948 16522.5 39631.5
v 8939.1611328125 16522.5 39627.83984375
v 8935.5 16522.5 39619
v 8939.1611328125 16522.5 39610.16015625
v 8948 16522.5 39606.5
v 8956.8388671875 16522.5 39610.16015625
v 9079.875 16322.5 39750.875
v 8948 16322.5 39805.5
v 8816.125 16322.5 39750.875
v 8761.5 16322.5 39619
v 8816.125 16322.5 39487.125
v 8948 16322.5 39432.5
v 9079.875 16322.5 39487.125
v 9134.5 16322.5 39619
v 9134.5 16522.5 39619
v 9079.875 16522.5 39487.125
v 8948 16522.5 39432.5
v 8816.125 16522.5 39487.125
v 8761.5 16522.5 39619
v 8816.125 16522.5 39750.875
v 8948 16522.5 39805.5
v 9079.875 16522.5 39750.875
v 9115.23046875 16410 39786.23046875
v 8948 16410 39855.5
v 8780.76953125 16410 39786.23046875
v 8711.5 16410 39619
v 8780.76953125 16410 39451.76953125
v 8948 16410 39382.5
v 9115.23046875 16410 39451.76953125
v 9184.5 16410 39619
v 9184.5 16435 39619
v 9115.23046875 16435 39451.76953125
v 8948 16435 39382.5
v 8780.76953125 16435 39451.76953125
v 8711.5 16435 39619
v 8780.76953125 16435 39786.23046875
v 8948 16435 39855.5
v 9115.23046875 16435 39786.23046875
v 9100.7353515625 16841 39771.734375
v 8948 16841 39835
v 8795.2646484375 16841 39771.734375
v 8732 16841 39619
v 8795.2646484375 16841 39466.265625
v 8948 16841 39403
v 9100.7353515625 16841 39466.265625
v 9164 16841 39619
v 9164 16866 39619
v 9100.7353515625 16866 39466.265625
v 8948 16866 39403
v 8795.2646484375 16866 39466.265625
v 8732 16866 39619
v 8795.2646484375 16866 39771.734375
v 8948 16866 39835
v 9100.7353515625 16866 39771.734375
# 272 elements written

vn 0.79717457294464111 0 0.60374879837036133
vn 0.13677270710468292 0 0.99060243368148804
vn -0.60374665260314941 0 0.79717624187469482
vn -0.99060231447219849 0 0.13677375018596649
vn -0.79717457294464111 0 -0.60374879837036133
vn -0.13677270710468292 0 -0.99060243368148804
vn 0.60374665260314941 0 -0.79717624187469482
vn 0.99060231447219849 0 -0.13677375018596649
vn 0.99060231447219849 0 0.13677375018596649
vn 0.79717457294464111 0 -0.60374879837036133
vn 0.13677270710468292 0 -0.99060243368148804
vn -0.60374659299850464 0 -0.7971763014793396
vn -0.99060231447219849 0 -0.13677375018596649
vn -0.79717457294464111 0 0.60374879837036133
vn -0.13677270710468292 0 0.99060243368148804
vn 0.60374659299850464 0 0.7971763014793396
vn 0 0 1
vn 0 0 -1
vn 1 0 0
vn 1 0 0
vn 0 1 0
vn 0 1 0
vn 0 1 0
vn 0 1 0
vn 0 0 1
vn 0 0 -1
vn 1 0 0
vn 1 0 0
vn 0 1 0
vn 0 1 0
vn 0 1 0
vn 0 1 0
vn 0 -0.60375481843948364 -0.79717004299163818
vn 0 -0.99060195684432983 -0.13677635788917542
vn 0 -0.79717504978179932 0.60374820232391357
vn 0 -0.13677951693534851 0.99060153961181641
vn 0 0.60375481843948364 0.79717004299163818
vn 0 0.99060195684432983 0.13677635788917542
vn 0 0.79717504978179932 -0.60374820232391357
vn 0 0.13677951693534851 -0.99060153961181641
vn 0 -0.13677951693534851 -0.99060153961181641
vn 0 0.60375487804412842 -0.79717004299163818
vn 0 0.99060195684432983 -0.13677635788917542
vn 0 0.79717516899108887 0.60374820232391357
vn 0 0.13677951693534851 0.99060153961181641
vn 0 -0.60375487804412842 0.79717004299163818
vn 0 -0.99060195684432983 0.13677635788917542
vn 0 -0.79717516899108887 -0.60374820232391357
vn 0.79717773199081421 0 0.60374462604522705
vn 0.13677731156349182 0 0.99060183763504028
vn -0.60375380516052246 0 0.79717081785202026
vn -0.99060243368148804 0 0.13677293062210083
vn -0.79717773199081421 0 -0.60374462604522705
vn -0.13677731156349182 0 -0.99060183763504028
vn 0.60375380516052246 0 -0.79717081785202026
vn 0.99060243368148804 0 -0.13677293062210083
vn 0.99060243368148804 0 0.13677293062210083
vn 0.79717773199081421 0 -0.60374462604522705
vn 0.13677731156349182 0 -0.99060183763504028
vn -0.60375380516052246 0 -0.79717081785202026
vn -0.99060243368148804 0 -0.13677293062210083
vn -0.79717773199081421 0 0.60374462604522705
vn -0.13677731156349182 0 0.99060183763504028
vn 0.60375380516052246 0 0.79717081785202026
vn 0.79717493057250977 0 -0.60374832153320312
vn 0.13673615455627441 0 -0.99060750007629395
vn -0.60370427370071411 0 -0.79720824956893921
vn -0.99060457944869995 0 -0.13675712049007416
vn -0.79717493057250977 0 0.60374832153320312
vn -0.13673615455627441 0 0.99060750007629395
vn 0.60370427370071411 0 0.79720824956893921
vn 0.99060457944869995 0 0.13675712049007416
vn 0.99060457944869995 0 -0.13675712049007416
vn 0.79717493057250977 0 0.60374832153320312
vn 0.13673615455627441 0 0.99060750007629395
vn -0.60370427370071411 0 0.79720824956893921
vn -0.99060457944869995 0 0.13675712049007416
vn -0.79717493057250977 0 -0.60374832153320312
vn -0.13673615455627441 0 -0.99060750007629395
vn 0.60370427370071411 0 -0.79720824956893921
vn 0.79717427492141724 0 0.60374921560287476
vn 0.13677509129047394 0 0.99060207605361938
vn -0.60374921560287476 0 0.79717427492141724
vn -0.99060207605361938 0 0.13677509129047394
vn -0.79717427492141724 0 -0.60374921560287476
vn -0.13677509129047394 0 -0.99060207605361938
vn 0.60374921560287476 0 -0.79717427492141724
vn 0.99060207605361938 0 -0.13677509129047394
vn 0.99060207605361938 0 0.13677509129047394
vn 0.79717427492141724 0 -0.60374921560287476
vn 0.13677509129047394 0 -0.99060207605361938
vn -0.60374921560287476 0 -0.79717427492141724
vn -0.99060207605361938 0 -0.13677509129047394
vn -0.79717427492141724 0 0.60374921560287476
vn -0.13677509129047394 0 0.99060207605361938
vn 0.60374921560287476 0 0.79717427492141724
vn 0.79717469215393066 0 0.60374867916107178
vn 0.13677442073822021 0 0.99060219526290894
vn -0.60374867916107178 0 0.79717469215393066
vn -0.99060219526290894 0 0.13677442073822021
vn -0.79717469215393066 0 -0.60374867916107178
vn -0.13677442073822021 0 -0.99060219526290894
vn 0.60374867916107178 0 -0.79717469215393066
vn 0.99060219526290894 0 -0.13677442073822021
vn 0.99060219526290894 0 0.13677442073822021
vn 0.79717469215393066 0 -0.60374867916107178
vn 0.13677442073822021 0 -0.99060219526290894
vn -0.60374867916107178 0 -0.79717469215393066
vn -0.99060219526290894 0 -0.13677442073822021
vn -0.79717469215393066 0 0.60374867916107178
vn -0.13677442073822021 0 0.99060219526290894
vn 0.60374867916107178 0 0.79717469215393066
vn 0.7971758246421814 0 0.60374724864959717
vn 0.13677483797073364 0 0.99060213565826416
vn -0.60374981164932251 0 0.79717391729354858
vn -0.99060231447219849 0 0.13677364587783813
vn -0.7971758246421814 0 -0.60374724864959717
vn -0.13677483797073364 0 -0.99060213565826416
vn 0.60374981164932251 0 -0.79717391729354858
vn 0.99060231447219849 0 -0.13677364587783813
vn 0.99060231447219849 0 0.13677364587783813
vn 0.7971758246421814 0 -0.60374730825424194
vn 0.13677483797073364 0 -0.99060213565826416
vn -0.60374981164932251 0 -0.79717391729354858
vn -0.99060231447219849 0 -0.13677364587783813
vn -0.7971758246421814 0 0.60374730825424194
vn -0.13677483797073364 0 0.99060213565826416
vn 0.60374981164932251 0 0.79717391729354858
vn 0 -1 0
vn 0 -1 0
vn 0 -1 0
vn 0 -1 0
vn 0 -1 0
vn 0 -1 0
vn 0 -1 0
vn 0 -1 0
vn 0 1 0
vn 0 1 0
vn 0 1 0
vn 0 1 0
vn 0 1 0
vn 0 1 0
vn 0 1 0
vn 0 1 0
vn 0 -1 0
vn -1 0 0
vn 0 -1 0
vn -1 0 0
vn 0 -1 0
vn 0 0 -1
vn 0 -1 0
vn 0 0 1
vn 0 0 1
vn 1 0 0
vn 0 0 1
vn -1 0 0
vn 1 0 0
vn 0 0 -1
vn 0 0 -1
vn -1 0 0
vn 0 -1 0
vn -1 0 0
vn 0 -1 0
vn -1 0 0
vn 0 -1 0
vn 0 0 -1
vn 0 -1 0
vn 0 0 1
vn 0 0 1
vn 1 0 0
vn 0 0 1
vn -1 0 0
vn 1 0 0
vn 0 0 -1
vn 0 0 -1
vn -1 0 0
vn -1 0 0
vn -1 0 0
vn -1 0 0
vn -1 0 0
vn -1 0 0
vn -1 0 0
vn -1 0 0
vn -1 0 0
vn 1 0 0
vn 1 0 0
vn 1 0 0
vn 1 0 0
vn 1 0 0
vn 1 0 0
vn 1 0 0
vn 1 0 0
vn 0 -1 0
vn 0 -1 0
vn 0 -1 0
vn 0 -1 0
vn 0 -1 0
vn 0 -1 0
vn 0 -1 0
vn 0 -1 0
vn 0 1 0
vn 0 1 0
vn 0 1 0
vn 0 1 0
vn 0 1 0
vn 0 1 0
vn 0 1 0
vn 0 1 0
vn 0 1 0
vn 0 1 0
vn 0 1 0
vn 0 1 0
vn 0 1 0
vn 0 1 0
vn 0 1 0
vn 0 1 0
vn 0 -1 0
vn 0 -1 0
vn 0 -1 0
vn 0 -1 0
vn 0 -1 0
vn 0 -1 0
vn 0 -1 0
vn 0 -1 0
vn 0 -1 0
vn 0 -1 0
vn 0 -1 0
vn 0 -1 0
vn 0 -1 0
vn 0 -1 0
vn 0 -1 0
vn 0 -1 0
vn 0 1 0
vn 0 1 0
vn 0 1 0
vn 0 1 0
vn 0 1 0
vn 0 1 0
vn 0 1 0
vn 0 1 0
vn 0 -1 0
vn 0 -1 0
vn 0 -1 0
vn 0 -1 0
vn 0 -1 0
vn 0 -1 0
vn 0 -1 0
vn 0 -1 0
vn 0 1 0
vn 0 1 0
vn 0 1 0
vn 0 1 0
vn 0 1 0
vn 0 1 0
vn 0 1 0
vn 0 1 0
vn 0 -1 0
vn 0 -1 0
vn 0 -1 0
vn 0 -1 0
vn 0 -1 0
vn 0 -1 0
vn 0 -1 0
vn 0 -1 0
vn 0 1 0
vn 0 1 0
vn 0 1 0
vn 0 1 0
vn 0 1 0
vn 0 1 0
vn 0 1 0
vn 0 1 0
# 272 elements written
f 129//129 130//130 131//131 
f 129//129 131//131 132//132 
f 129//129 132//132 133//133 
f 129//129 133//133 134//134 
f 129//129 134//134 135//135 
f 129//129 135//135 136//136 
f 137//137 138//138 139//139 
f 137//137 139//139 140//140 
f 137//137 140//140 141//141 
f 137//137 141//141 142//142 
f 137//137 142//142 143//143 
f 137//137 143//143 144//144 
f 8//8 7//7 10//10 
f 8//8 10//10 9//9 
f 7//7 6//6 11//11 
f 7//7 11//11 10//10 
f 6//6 5//5 12//12 
f 6//6 12//12 11//11 
f 5//5 4//4 13//13 
f 5//5 13//13 12//12 
f 4//4 3//3 14//14 
f 4//4 14//14 13//13 
f 3//3 2//2 15//15 
f 3//3 15//15 14//14 
f 2//2 1//1 16//16 
f 2//2 16//16 15//15 
f 1//1 8//8 9//9 
f 1//1 9//9 16//16 
f 145//145 147//147 149//149 
f 145//145 149//149 151//151 
f 17//17 152//152 153//153 
f 17//17 153//153 155//155 
f 20//20 19//19 157//157 
f 20//20 157//157 154//154 
f 150//150 18//18 159//159 
f 150//150 159//159 158//158 
f 148//148 146//146 156//156 
f 148//148 156//156 160//160 
f 22//22 21//21 23//23 
f 22//22 23//23 24//24 
f 161//161 163//163 165//165 
f 161//161 165//165 167//167 
f 25//25 168//168 169//169 
f 25//25 169//169 171//171 
f 28//28 27//27 173//173 
f 28//28 173//173 170//170 
f 166//166 26//26 175//175 
f 166//166 175//175 174//174 
f 164//164 162//162 172//172 
f 164//164 172//172 176//176 
f 30//30 29//29 31//31 
f 30//30 31//31 32//32 
f 177//177 178//178 179//179 
f 177//177 179//179 180//180 
f 177//177 180//180 181//181 
f 177//177 181//181 182//182 
f 177//177 182//182 183//183 
f 177//177 183//183 184//184 
f 185//185 186//186 187//187 
f 185//185 187//187 188//188 
f 185//185 188//188 189//189 
f 185//185 189//189 190//190 
f 185//185 190//190 191//191 
f 185//185 191//191 192//192 
f 40//40 39//39 42//42 
f 40//40 42//42 41//41 
f 39//39 38//38 43//43 
f 39//39 43//43 42//42 
f 38//38 37//37 44//44 
f 38//38 44//44 43//43 
f 37//37 36//36 45//45 
f 37//37 45//45 44//44 
f 36//36 35//35 46//46 
f 36//36 46//46 45//45 
f 35//35 34//34 47//47 
f 35//35 47//47 46//46 
f 34//34 33//33 48//48 
f 34//34 48//48 47//47 
f 33//33 40//40 41//41 
f 33//33 41//41 48//48 
f 193//193 194//194 195//195 
f 193//193 195//195 196//196 
f 193//193 196//196 197//197 
f 193//193 197//197 198//198 
f 193//193 198//198 199//199 
f 193//193 199//199 200//200 
f 201//201 202//202 203//203 
f 201//201 203//203 204//204 
f 201//201 204//204 205//205 
f 201//201 205//205 206//206 
f 201//201 206//206 207//207 
f 201//201 207//207 208//208 
f 56//56 55//55 58//58 
f 56//56 58//58 57//57 
f 55//55 54//54 59//59 
f 55//55 59//59 58//58 
f 54//54 53//53 60//60 
f 54//54 60//60 59//59 
f 53//53 52//52 61//61 
f 53//53 61//61 60//60 
f 52//52 51//51 62//62 
f 52//52 62//62 61//61 
f 51//51 50//50 63//63 
f 51//51 63//63 62//62 
f 50//50 49//49 64//64 
f 50//50 64//64 63//63 
f 49//49 56//56 57//57 
f 49//49 57//57 64//64 
f 209//209 210//210 211//211 
f 209//209 211//211 212//212 
f 209//209 212//212 213//213 
f 209//209 213//213 214//214 
f 209//209 214//214 215//215 
f 209//209 215//215 216//216 
f 217//217 218//218 219//219 
f 217//217 219//219 220//220 
f 217//217 220//220 221//221 
f 217//217 221//221 222//222 
f 217//217 222//222 223//223 
f 217//217 223//223 224//224 
f 72//72 71//71 74//74 
f 72//72 74//74 73//73 
f 71//71 70//70 75//75 
f 71//71 75//75 74//74 
f 70//70 69//69 76//76 
f 70//70 76//76 75//75 
f 69//69 68//68 77//77 
f 69//69 77//77 76//76 
f 68//68 67//67 78//78 
f 68//68 78//78 77//77 
f 67//67 66//66 79//79 
f 67//67 79//79 78//78 
f 66//66 65//65 80//80 
f 66//66 80//80 79//79 
f 65//65 72//72 73//73 
f 65//65 73//73 80//80 
f 225//225 226//226 227//227 
f 225//225 227//227 228//228 
f 225//225 228//228 229//229 
f 225//225 229//229 230//230 
f 225//225 230//230 231//231 
f 225//225 231//231 232//232 
f 233//233 234//234 235//235 
f 233//233 235//235 236//236 
f 233//233 236//236 237//237 
f 233//233 237//237 238//238 
f 233//233 238//238 239//239 
f 233//233 239//239 240//240 
f 88//88 87//87 90//90 
f 88//88 90//90 89//89 
f 87//87 86//86 91//91 
f 87//87 91//91 90//90 
f 86//86 85//85 92//92 
f 86//86 92//92 91//91 
f 85//85 84//84 93//93 
f 85//85 93//93 92//92 
f 84//84 83//83 94//94 
f 84//84 94//94 93//93 
f 83//83 82//82 95//95 
f 83//83 95//95 94//94 
f 82//82 81//81 96//96 
f 82//82 96//96 95//95 
f 81//81 88//88 89//89 
f 81//81 89//89 96//96 
f 241//241 242//242 243//243 
f 241//241 243//243 244//244 
f 241//241 244//244 245//245 
f 241//241 245//245 246//246 
f 241//241 246//246 247//247 
f 241//241 247//247 248//248 
f 249//249 250//250 251//251 
f 249//249 251//251 252//252 
f 249//249 252//252 253//253 
f 249//249 253//253 254//254 
f 249//249 254//254 255//255 
f 249//249 255//255 256//256 
f 104//104 103//103 106//106 
f 104//104 106//106 105//105 
f 103//103 102//102 107//107 
f 103//103 107//107 106//106 
f 102//102 101//101 108//108 
f 102//102 108//108 107//107 
f 101//101 100//100 109//109 
f 101//101 109//109 108//108 
f 100//100 99//99 110//110 
f 100//100 110//110 109//109 
f 99//99 98//98 111//111 
f 99//99 111//111 110//110 
f 98//98 97//97 112//112 
f 98//98 112//112 111//111 
f 97//97 104//104 105//105 
f 97//97 105//105 112//112 
f 257//257 258//258 259//259 
f 257//257 259//259 260//260 
f 257//257 260//260 261//261 
f 257//257 261//261 262//262 
f 257//257 262//262 263//263 
f 257//257 263//263 264//264 
f 265//265 266//266 267//267 
f 265//265 267//267 268//268 
f 265//265 268//268 269//269 
f 265//265 269//269 270//270 
f 265//265 270//270 271//271 
f 265//265 271//271 272//272 
f 120//120 119//119 122//122 
f 120//120 122//122 121//121 
f 119//119 118//118 123//123 
f 119//119 123//123 122//122 
f 118//118 117//117 124//124 
f 118//118 124//124 123//123 
f 117//117 116//116 125//125 
f 117//117 125//125 124//124 
f 116//116 115//115 126//126 
f 116//116 126//126 125//125 
f 115//115 114//114 127//127 
f 115//115 127//127 126//126 
f 114//114 113//113 128//128 
f 114//114 128//128 127//127 
f 113//113 120//120 121//121 
f 113//113 121//121 128//128 
