# file written by OpenSceneGraph

mtllib g2.mtl


o _Geometry_0

v -9957 27698 22084.5
v -9957 27698 5308
v -9952 27698 5308
v -9952 27698 22084.5
v -9952 73624 22084.5
v -9957 73624 22084.5
v -9952 73624 5308
v -9957 73624 5308
v -9957 18600 22184.5
v -9957 18600 5208
v -9952 18600 5208
v -9952 18600 22184.5
v -9952 27698 22184.5
v -9957 27698 22184.5
v -9952 27698 5208
v -9957 27698 5208
v -9957 73624 6861
v -9952 73624 6861
v -9952 75295 22084.5
v -9957 75295 22084.5
v -9952 75295 6861
v -9957 75295 6861
v -9957 27698 5313
v 9957 27698 5308
v 9957 27698 5313
v 9957 73624 5313
v -9957 73624 5313
v 9957 73624 5308
v -9957 18600 5213
v 9957 18600 5208
v 9957 18600 5213
v 9957 27698 5213
v -9957 27698 5213
v 9957 27698 5208
v -9957 27693 5313
v -9957 27693 5208
v 9957 27693 5208
v 9957 27693 5313
v 9952 27698 22084.5
v 9952 27698 5308
v 9957 27698 22084.5
v 9957 73624 22084.5
v 9952 73624 22084.5
v 9952 73624 5308
v 9952 18600 22184.5
v 9952 18600 5208
v 9957 18600 22184.5
v 9957 27698 22184.5
v 9952 27698 22184.5
v 9952 27698 5208
v 9952 73624 6866
v 9957 73624 6866
v 9957 75295 22084.5
v 9952 75295 22084.5
v 9957 75295 6866
v 9952 75295 6866
v -9957 27698 22079.5
v 9957 27698 22079.5
v 9957 53865 22084.5
v -9957 53865 22084.5
v 9957 53865 22079.5
v -9957 53865 22079.5
v -9957 18600 22179.5
v 9957 18600 22179.5
v 9957 27698 22179.5
v -9957 27698 22179.5
v -9957 27693 22184.5
v -9957 27693 22079.5
v 9957 27693 22079.5
v 9957 27693 22184.5
v -9957 49578 37801.5
v -9957 49578 37796.5
v 9957 49578 37796.5
v 9957 49578 37801.5
v 9957 74225 37801.5
v -9957 74225 37801.5
v 9957 74225 37796.5
v -9957 74225 37796.5
v -9957 49578 26269.5
v -9952 49578 26269.5
v -9952 49578 37801.5
v -9952 74230 37801.5
v -9957 74230 37801.5
v -9952 74230 26269.5
v -9957 74230 26269.5
v -9957 74230 36178.5
v -9952 74230 36178.5
v -9952 75295 36178.5
v -9957 75295 36178.5
v -9952 75295 26269.5
v -9957 75295 26269.5
v 9957 49578 26269.5
v 9952 49578 37801.5
v 9952 49578 26269.5
v 9952 74230 26269.5
v 9957 74230 26269.5
v 9952 74230 37801.5
v 9957 74230 37801.5
v 9957 74230 36178.5
v 9952 74230 36178.5
v 9952 75295 26269.5
v 9957 75295 26269.5
v 9952 75295 36178.5
v 9957 75295 36178.5
v 9957 49578 26264.5
v -9957 49578 26264.5
v -9957 53865 26264.5
v 9957 53865 26264.5
v -9957 53865 26269.5
v 9957 53865 26269.5
v -9957 53860 26269.5
v -9957 53860 22079.5
v -9952 53860 22079.5
v -9952 53860 26269.5
v -9952 75295 22079.5
v -9957 75295 22079.5
v 9957 53860 22079.5
v 9957 53860 26269.5
v 9952 53860 26269.5
v 9952 53860 22079.5
v 9952 75295 22079.5
v 9957 75295 22079.5
v -9957 27698 22084.5
v -9957 27698 22084.5
v -9957 27698 22084.5
v -9957 27698 22084.5
v -9957 27698 22084.5
v -9957 27698 5308
v -9957 27698 5308
v -9957 27698 5308
v -9952 27698 5308
v -9952 27698 5308
v -9952 27698 22084.5
v -9952 27698 22084.5
v -9952 73624 22084.5
v -9952 73624 22084.5
v -9952 73624 22084.5
v -9952 73624 22084.5
v -9957 73624 22084.5
v -9957 73624 22084.5
v -9957 73624 22084.5
v -9957 73624 22084.5
v -9952 73624 5308
v -9952 73624 5308
v -9957 73624 5308
v -9957 73624 5308
v -9957 73624 5308
v -9957 18600 22184.5
v -9957 18600 22184.5
v -9957 18600 22184.5
v -9957 18600 5208
v -9957 18600 5208
v -9957 18600 5208
v -9952 18600 5208
v -9952 18600 5208
v -9952 18600 22184.5
v -9952 18600 22184.5
v -9952 27698 22184.5
v -9952 27698 22184.5
v -9957 27698 22184.5
v -9957 27698 22184.5
v -9957 27698 22184.5
v -9957 27698 22184.5
v -9952 27698 5208
v -9952 27698 5208
v -9957 27698 5208
v -9957 27698 5208
v -9957 27698 5208
v -9957 27698 5208
v -9957 73624 6861
v -9957 73624 6861
v -9952 73624 6861
v -9952 73624 6861
v -9952 75295 22084.5
v -9952 75295 22084.5
v -9957 75295 22084.5
v -9957 75295 22084.5
v -9952 75295 6861
v -9952 75295 6861
v -9957 75295 6861
v -9957 75295 6861
v -9957 27698 5313
v -9957 27698 5313
v -9957 27698 5313
v -9957 27698 5313
v 9957 27698 5308
v 9957 27698 5308
v 9957 27698 5308
v 9957 27698 5313
v 9957 27698 5313
v 9957 27698 5313
v 9957 27698 5313
v 9957 73624 5313
v 9957 73624 5313
v -9957 73624 5313
v -9957 73624 5313
v 9957 73624 5308
v 9957 73624 5308
v 9957 73624 5308
v -9957 18600 5213
v -9957 18600 5213
v 9957 18600 5208
v 9957 18600 5208
v 9957 18600 5208
v 9957 18600 5213
v 9957 18600 5213
v 9957 27698 5213
v 9957 27698 5213
v -9957 27698 5213
v -9957 27698 5213
v 9957 27698 5208
v 9957 27698 5208
v 9957 27698 5208
v 9957 27698 5208
v -9957 27693 5313
v -9957 27693 5313
v -9957 27693 5208
v -9957 27693 5208
v 9957 27693 5208
v 9957 27693 5208
v 9957 27693 5313
v 9957 27693 5313
v 9952 27698 22084.5
v 9952 27698 22084.5
v 9952 27698 5308
v 9952 27698 5308
v 9957 27698 22084.5
v 9957 27698 22084.5
v 9957 27698 22084.5
v 9957 27698 22084.5
v 9957 27698 22084.5
v 9957 73624 22084.5
v 9957 73624 22084.5
v 9957 73624 22084.5
v 9957 73624 22084.5
v 9952 73624 22084.5
v 9952 73624 22084.5
v 9952 73624 22084.5
v 9952 73624 22084.5
v 9952 73624 5308
v 9952 73624 5308
v 9952 18600 22184.5
v 9952 18600 22184.5
v 9952 18600 5208
v 9952 18600 5208
v 9957 18600 22184.5
v 9957 18600 22184.5
v 9957 18600 22184.5
v 9957 27698 22184.5
v 9957 27698 22184.5
v 9957 27698 22184.5
v 9957 27698 22184.5
v 9952 27698 22184.5
v 9952 27698 22184.5
v 9952 27698 5208
v 9952 27698 5208
v 9952 73624 6866
v 9952 73624 6866
v 9957 73624 6866
v 9957 73624 6866
v 9957 75295 22084.5
v 9957 75295 22084.5
v 9952 75295 22084.5
v 9952 75295 22084.5
v 9957 75295 6866
v 9957 75295 6866
v 9952 75295 6866
v 9952 75295 6866
v -9957 27698 22079.5
v -9957 27698 22079.5
v -9957 27698 22079.5
v -9957 27698 22079.5
v 9957 27698 22079.5
v 9957 27698 22079.5
v 9957 27698 22079.5
v 9957 27698 22079.5
v 9957 53865 22084.5
v 9957 53865 22084.5
v -9957 53865 22084.5
v -9957 53865 22084.5
v 9957 53865 22079.5
v 9957 53865 22079.5
v 9957 53865 22079.5
v -9957 53865 22079.5
v -9957 53865 22079.5
v -9957 53865 22079.5
v -9957 18600 22179.5
v -9957 18600 22179.5
v 9957 18600 22179.5
v 9957 18600 22179.5
v 9957 27698 22179.5
v 9957 27698 22179.5
v -9957 27698 22179.5
v -9957 27698 22179.5
v -9957 27693 22184.5
v -9957 27693 22184.5
v -9957 27693 22079.5
v -9957 27693 22079.5
v 9957 27693 22079.5
v 9957 27693 22079.5
v 9957 27693 22184.5
v 9957 27693 22184.5
v -9957 49578 37801.5
v -9957 49578 37801.5
v -9957 49578 37801.5
v -9957 49578 37801.5
v -9957 49578 37801.5
v -9957 49578 37796.5
v -9957 49578 37796.5
v 9957 49578 37796.5
v 9957 49578 37796.5
v 9957 49578 37801.5
v 9957 49578 37801.5
v 9957 49578 37801.5
v 9957 49578 37801.5
v 9957 49578 37801.5
v 9957 74225 37801.5
v 9957 74225 37801.5
v -9957 74225 37801.5
v -9957 74225 37801.5
v 9957 74225 37796.5
v 9957 74225 37796.5
v -9957 74225 37796.5
v -9957 74225 37796.5
v -9957 49578 26269.5
v -9957 49578 26269.5
v -9957 49578 26269.5
v -9957 49578 26269.5
v -9957 49578 26269.5
v -9952 49578 26269.5
v -9952 49578 26269.5
v -9952 49578 37801.5
v -9952 49578 37801.5
v -9952 74230 37801.5
v -9952 74230 37801.5
v -9957 74230 37801.5
v -9957 74230 37801.5
v -9952 74230 26269.5
v -9952 74230 26269.5
v -9952 74230 26269.5
v -9952 74230 26269.5
v -9957 74230 26269.5
v -9957 74230 26269.5
v -9957 74230 26269.5
v -9957 74230 26269.5
v -9957 74230 36178.5
v -9957 74230 36178.5
v -9952 74230 36178.5
v -9952 74230 36178.5
v -9952 75295 36178.5
v -9952 75295 36178.5
v -9957 75295 36178.5
v -9957 75295 36178.5
v -9952 75295 26269.5
v -9952 75295 26269.5
v -9952 75295 26269.5
v -9952 75295 26269.5
v -9957 75295 26269.5
v -9957 75295 26269.5
v -9957 75295 26269.5
v -9957 75295 26269.5
v 9957 49578 26269.5
v 9957 49578 26269.5
v 9957 49578 26269.5
v 9957 49578 26269.5
v 9957 49578 26269.5
v 9952 49578 37801.5
v 9952 49578 37801.5
v 9952 49578 26269.5
v 9952 49578 26269.5
v 9952 74230 26269.5
v 9952 74230 26269.5
v 9952 74230 26269.5
v 9952 74230 26269.5
v 9957 74230 26269.5
v 9957 74230 26269.5
v 9957 74230 26269.5
v 9957 74230 26269.5
v 9952 74230 37801.5
v 9952 74230 37801.5
v 9957 74230 37801.5
v 9957 74230 37801.5
v 9957 74230 36178.5
v 9957 74230 36178.5
v 9952 74230 36178.5
v 9952 74230 36178.5
v 9952 75295 26269.5
v 9952 75295 26269.5
v 9952 75295 26269.5
v 9952 75295 26269.5
v 9957 75295 26269.5
v 9957 75295 26269.5
v 9957 75295 26269.5
v 9957 75295 26269.5
v 9952 75295 36178.5
v 9952 75295 36178.5
v 9957 75295 36178.5
v 9957 75295 36178.5
v 9957 49578 26264.5
v 9957 49578 26264.5
v -9957 49578 26264.5
v -9957 49578 26264.5
v -9957 53865 26264.5
v -9957 53865 26264.5
v 9957 53865 26264.5
v 9957 53865 26264.5
v -9957 53865 26269.5
v -9957 53865 26269.5
v -9957 53865 26269.5
v 9957 53865 26269.5
v 9957 53865 26269.5
v 9957 53865 26269.5
v -9957 53860 26269.5
v -9957 53860 26269.5
v -9957 53860 26269.5
v -9957 53860 22079.5
v -9957 53860 22079.5
v -9957 53860 22079.5
v -9952 53860 22079.5
v -9952 53860 22079.5
v -9952 53860 26269.5
v -9952 53860 26269.5
v -9952 75295 22079.5
v -9952 75295 22079.5
v -9957 75295 22079.5
v -9957 75295 22079.5
v 9957 53860 22079.5
v 9957 53860 22079.5
v 9957 53860 22079.5
v 9957 53860 26269.5
v 9957 53860 26269.5
v 9957 53860 26269.5
v 9952 53860 26269.5
v 9952 53860 26269.5
v 9952 53860 22079.5
v 9952 53860 22079.5
v 9952 75295 22079.5
v 9952 75295 22079.5
v 9957 75295 22079.5
v 9957 75295 22079.5
# 440 elements written

vn -1 0 0
vn 0 -1 0
vn 1 0 0
vn 1 0 0
vn 1 0 0
vn -1 0 0
vn 0 1 0
vn 0 1 0
vn 0 -1 0
vn 0 -1 0
vn 1 0 0
vn 1 0 0
vn 0 1 0
vn 0 1 0
vn 0 1 0
vn 0 1 0
vn 0 0 -1
vn 0 0 -1
vn 0 1 0
vn 0 1 0
vn 0 1 0
vn 0 1 0
vn 0 0 1
vn 0 -1 0
vn 1 0 0
vn 0 1 0
vn 0 0 1
vn 0 1 0
vn 0 0 1
vn 0 -1 0
vn 1 0 0
vn 0 1 0
vn 0 0 1
vn 0 1 0
vn 0 -1 0
vn 0 -1 0
vn 0 -1 0
vn 0 -1 0
vn 0 0 1
vn -1 0 0
vn 1 0 0
vn 1 0 0
vn -1 0 0
vn -1 0 0
vn 0 0 1
vn -1 0 0
vn 1 0 0
vn 0 1 0
vn 0 1 0
vn -1 0 0
vn 0 0 -1
vn 0 0 -1
vn 0 1 0
vn 0 1 0
vn 0 1 0
vn 0 1 0
vn 0 0 -1
vn 0 0 -1
vn 0 1 0
vn 0 1 0
vn 1 0 0
vn -1 0 0
vn 0 0 -1
vn 0 0 -1
vn 0 0 -1
vn 0 0 -1
vn 0 -1 0
vn 0 -1 0
vn 0 -1 0
vn 0 -1 0
vn 0 0 1
vn 0 0 -1
vn 1 0 0
vn 0 0 1
vn 0 1 0
vn 0 1 0
vn 0 1 0
vn 0 1 0
vn -1 0 0
vn 1 0 0
vn 1 0 0
vn 0 1 0
vn 0 1 0
vn 1 0 0
vn -1 0 0
vn 0 0 1
vn 0 0 1
vn 0 1 0
vn 0 1 0
vn 1 0 0
vn -1 0 0
vn 1 0 0
vn -1 0 0
vn -1 0 0
vn -1 0 0
vn 1 0 0
vn 0 1 0
vn 0 1 0
vn 0 0 1
vn 0 0 1
vn -1 0 0
vn 1 0 0
vn 0 1 0
vn 0 1 0
vn 0 0 -1
vn 0 0 -1
vn 0 1 0
vn 0 1 0
vn 0 0 1
vn 1 0 0
vn 0 -1 0
vn 0 0 -1
vn 1 0 0
vn 0 -1 0
vn 0 0 -1
vn 0 0 -1
vn 0 0 -1
vn 0 -1 0
vn 0 -1 0
vn -1 0 0
vn 0 0 -1
vn 0 0 -1
vn 0 -1 0
vn -1 0 0
vn 0 0 1
vn 0 -1 0
vn 0 0 1
vn 0 -1 0
vn -1 0 0
vn 0 0 -1
vn 0 -1 0
vn 0 0 -1
vn 0 -1 0
vn 0 0 1
vn 0 0 1
vn 1 0 0
vn 0 1 0
vn 0 -1 0
vn 0 0 1
vn -1 0 0
vn 0 1 0
vn 0 -1 0
vn 1 0 0
vn 0 0 -1
vn -1 0 0
vn 0 1 0
vn 0 0 -1
vn 0 -1 0
vn -1 0 0
vn 0 0 1
vn 0 -1 0
vn -1 0 0
vn 0 0 -1
vn 0 -1 0
vn 0 0 -1
vn 0 -1 0
vn 0 0 1
vn 0 0 1
vn 1 0 0
vn 0 0 1
vn 0 1 0
vn -1 0 0
vn -1 0 0
vn 1 0 0
vn 0 0 -1
vn -1 0 0
vn 0 1 0
vn 0 0 -1
vn -1 0 0
vn 0 -1 0
vn -1 0 0
vn 0 -1 0
vn 1 0 0
vn 0 0 1
vn 1 0 0
vn 0 0 1
vn -1 0 0
vn 1 0 0
vn 0 0 -1
vn 0 0 -1
vn -1 0 0
vn 0 -1 0
vn -1 0 0
vn -1 0 0
vn 0 1 0
vn 0 -1 0
vn 0 0 -1
vn 1 0 0
vn 0 -1 0
vn 0 1 0
vn 1 0 0
vn 0 0 1
vn 0 0 1
vn 1 0 0
vn -1 0 0
vn 0 1 0
vn 0 0 -1
vn 0 1 0
vn 1 0 0
vn 0 -1 0
vn -1 0 0
vn 0 -1 0
vn 0 0 -1
vn 1 0 0
vn 0 -1 0
vn 0 0 1
vn 0 0 1
vn 1 0 0
vn -1 0 0
vn 0 1 0
vn 1 0 0
vn 0 1 0
vn 1 0 0
vn 0 0 -1
vn 0 0 1
vn -1 0 0
vn 0 0 -1
vn -1 0 0
vn 1 0 0
vn 0 0 -1
vn 0 0 1
vn 1 0 0
vn 0 -1 0
vn -1 0 0
vn 0 -1 0
vn 0 0 -1
vn 0 -1 0
vn 0 0 1
vn 0 -1 0
vn 1 0 0
vn 0 0 1
vn 1 0 0
vn 0 1 0
vn 0 0 1
vn 0 -1 0
vn 0 0 1
vn -1 0 0
vn 0 1 0
vn 0 -1 0
vn 0 0 -1
vn 0 1 0
vn 0 -1 0
vn -1 0 0
vn 0 -1 0
vn 0 0 -1
vn 0 -1 0
vn 0 0 1
vn 0 -1 0
vn 1 0 0
vn 0 1 0
vn 0 0 1
vn 1 0 0
vn 0 0 1
vn -1 0 0
vn 0 0 -1
vn 0 1 0
vn 0 -1 0
vn -1 0 0
vn 0 -1 0
vn 1 0 0
vn 0 0 1
vn 1 0 0
vn 0 0 1
vn -1 0 0
vn 1 0 0
vn 0 0 -1
vn 0 0 -1
vn -1 0 0
vn 0 -1 0
vn -1 0 0
vn -1 0 0
vn 0 1 0
vn 0 -1 0
vn 1 0 0
vn 1 0 0
vn 0 1 0
vn 0 0 1
vn 1 0 0
vn 0 0 1
vn -1 0 0
vn 1 0 0
vn 0 0 -1
vn 0 1 0
vn 0 0 -1
vn -1 0 0
vn 0 1 0
vn 0 -1 0
vn -1 0 0
vn 0 -1 0
vn 1 0 0
vn 1 0 0
vn 0 1 0
vn -1 0 0
vn 0 1 0
vn 0 0 1
vn -1 0 0
vn 0 0 -1
vn -1 0 0
vn 1 0 0
vn 0 0 -1
vn 0 0 1
vn 1 0 0
vn 0 -1 0
vn -1 0 0
vn 0 0 1
vn 0 -1 0
vn -1 0 0
vn 0 -1 0
vn -1 0 0
vn 0 -1 0
vn 0 0 -1
vn 0 -1 0
vn 0 0 1
vn 1 0 0
vn 0 -1 0
vn 1 0 0
vn 0 0 1
vn 1 0 0
vn 0 0 1
vn -1 0 0
vn 1 0 0
vn 0 0 -1
vn 0 0 -1
vn -1 0 0
vn 0 -1 0
vn -1 0 0
vn 0 0 -1
vn 0 -1 0
vn 0 0 1
vn 0 -1 0
vn 0 0 -1
vn 0 -1 0
vn 0 0 1
vn 0 0 1
vn 1 0 0
vn 0 0 1
vn -1 0 0
vn 1 0 0
vn 0 0 -1
vn 0 1 0
vn 0 -1 0
vn 0 0 -1
vn -1 0 0
vn 0 1 0
vn 0 -1 0
vn 0 -1 0
vn -1 0 0
vn 0 -1 0
vn 1 0 0
vn 0 0 1
vn 1 0 0
vn 0 0 1
vn -1 0 0
vn 1 0 0
vn 0 0 -1
vn 0 1 0
vn 0 0 1
vn 0 0 -1
vn -1 0 0
vn 0 1 0
vn 0 0 1
vn 0 -1 0
vn 1 0 0
vn 0 -1 0
vn 0 0 1
vn 0 0 -1
vn 0 -1 0
vn 0 0 1
vn 0 -1 0
vn 0 0 -1
vn 0 0 -1
vn -1 0 0
vn 0 1 0
vn 0 -1 0
vn 0 0 -1
vn 1 0 0
vn 0 1 0
vn 0 -1 0
vn -1 0 0
vn 0 0 1
vn 0 0 1
vn 1 0 0
vn 0 -1 0
vn 1 0 0
vn 0 -1 0
vn -1 0 0
vn 0 0 -1
vn -1 0 0
vn 0 0 1
vn 0 1 0
vn 0 0 -1
vn 1 0 0
vn 0 0 1
vn 0 1 0
vn -1 0 0
vn 0 0 1
vn 0 0 1
vn 1 0 0
vn 0 -1 0
vn 1 0 0
vn 0 -1 0
vn -1 0 0
vn 0 0 -1
vn -1 0 0
vn 0 0 -1
vn 1 0 0
vn -1 0 0
vn 0 1 0
vn -1 0 0
vn 1 0 0
vn 0 1 0
vn 0 0 1
vn 0 0 1
vn -1 0 0
vn 0 0 1
vn 0 0 -1
vn -1 0 0
vn 0 -1 0
vn 0 -1 0
vn 0 0 -1
vn 0 0 1
vn 1 0 0
vn 1 0 0
vn 0 1 0
vn -1 0 0
vn 0 1 0
vn 0 0 -1
vn 1 0 0
vn 0 -1 0
vn 0 0 1
vn 1 0 0
vn 0 0 1
vn -1 0 0
vn 0 0 1
vn 0 -1 0
vn 0 0 -1
vn -1 0 0
vn 0 1 0
vn 1 0 0
vn 0 1 0
# 440 elements written
f 123//123 128//128 131//131 
f 123//123 131//131 133//133 
f 125//125 134//134 135//135 
f 125//125 135//135 139//139 
f 4//4 3//3 143//143 
f 4//4 143//143 136//136 
f 132//132 130//130 147//147 
f 132//132 147//147 144//144 
f 129//129 124//124 140//140 
f 129//129 140//140 145//145 
f 141//141 137//137 7//7 
f 141//141 7//7 146//146 
f 148//148 151//151 154//154 
f 148//148 154//154 156//156 
f 150//150 157//157 158//158 
f 150//150 158//158 160//160 
f 12//12 11//11 164//164 
f 12//12 164//164 159//159 
f 155//155 153//153 168//168 
f 155//155 168//168 165//165 
f 152//152 149//149 162//162 
f 152//152 162//162 166//166 
f 161//161 13//13 15//15 
f 161//161 15//15 167//167 
f 142//142 170//170 172//172 
f 142//142 172//172 138//138 
f 139//139 135//135 174//174 
f 139//139 174//174 176//176 
f 5//5 173//173 178//178 
f 5//5 178//178 175//175 
f 18//18 17//17 180//180 
f 18//18 180//180 179//179 
f 171//171 6//6 177//177 
f 171//171 177//177 181//181 
f 20//20 19//19 21//21 
f 20//20 21//21 22//22 
f 182//182 2//2 186//186 
f 182//182 186//186 189//189 
f 23//23 192//192 193//193 
f 23//23 193//193 27//27 
f 191//191 188//188 199//199 
f 191//191 199//199 194//194 
f 187//187 130//130 147//147 
f 187//187 147//147 197//197 
f 129//129 183//183 195//195 
f 129//129 195//195 145//145 
f 196//196 26//26 198//198 
f 196//196 198//198 8//8 
f 200//200 10//10 202//202 
f 200//200 202//202 205//205 
f 29//29 206//206 207//207 
f 29//29 207//207 33//33 
f 31//31 204//204 213//213 
f 31//31 213//213 208//208 
f 203//203 153//153 168//168 
f 203//203 168//168 214//214 
f 152//152 201//201 209//209 
f 152//152 209//209 166//166 
f 210//210 32//32 212//212 
f 210//210 212//212 16//16 
f 35//35 36//36 37//37 
f 35//35 37//37 38//38 
f 215//215 221//221 192//192 
f 215//215 192//192 23//23 
f 222//222 219//219 211//211 
f 222//222 211//211 25//25 
f 220//220 217//217 168//168 
f 220//220 168//168 214//214 
f 218//218 216//216 184//184 
f 218//218 184//184 169//169 
f 185//185 190//190 212//212 
f 185//185 212//212 16//16 
f 223//223 225//225 24//24 
f 223//223 24//24 229//229 
f 39//39 231//231 234//234 
f 39//39 234//234 236//236 
f 230//230 188//188 199//199 
f 230//230 199//199 232//232 
f 187//187 226//226 240//240 
f 187//187 240//240 197//197 
f 40//40 224//224 237//237 
f 40//40 237//237 44//44 
f 238//238 233//233 28//28 
f 238//238 28//28 241//241 
f 242//242 244//244 30//30 
f 242//242 30//30 248//248 
f 45//45 247//247 251//251 
f 45//45 251//251 253//253 
f 47//47 204//204 213//213 
f 47//47 213//213 249//249 
f 203//203 245//245 255//255 
f 203//203 255//255 214//214 
f 46//46 243//243 254//254 
f 46//46 254//254 50//50 
f 49//49 250//250 34//34 
f 49//49 34//34 256//256 
f 239//239 257//257 259//259 
f 239//239 259//259 235//235 
f 236//236 234//234 261//261 
f 236//236 261//261 263//263 
f 42//42 260//260 265//265 
f 42//42 265//265 262//262 
f 52//52 51//51 267//267 
f 52//52 267//267 266//266 
f 258//258 43//43 264//264 
f 258//258 264//264 268//268 
f 54//54 53//53 55//55 
f 54//54 55//55 56//56 
f 126//126 269//269 273//273 
f 126//126 273//273 227//227 
f 127//127 228//228 277//277 
f 127//127 277//277 279//279 
f 41//41 274//274 281//281 
f 41//41 281//281 278//278 
f 58//58 57//57 284//284 
f 58//58 284//284 282//282 
f 270//270 1//1 280//280 
f 270//270 280//280 285//285 
f 60//60 59//59 283//283 
f 60//60 283//283 286//286 
f 9//9 287//287 289//289 
f 9//9 289//289 246//246 
f 150//150 247//247 251//251 
f 150//150 251//251 160//160 
f 47//47 290//290 291//291 
f 47//47 291//291 249//249 
f 64//64 63//63 66//66 
f 64//64 66//66 65//65 
f 288//288 149//149 162//162 
f 288//288 162//162 293//293 
f 14//14 48//48 292//292 
f 14//14 292//292 294//294 
f 67//67 68//68 69//69 
f 67//67 69//69 70//70 
f 295//295 301//301 251//251 
f 295//295 251//251 160//160 
f 302//302 299//299 275//275 
f 302//302 275//275 252//252 
f 300//300 297//297 57//57 
f 300//300 57//57 58//58 
f 298//298 296//296 163//163 
f 298//298 163//163 271//271 
f 14//14 48//48 276//276 
f 14//14 276//276 272//272 
f 303//303 308//308 310//310 
f 303//303 310//310 312//312 
f 305//305 313//313 317//317 
f 305//305 317//317 319//319 
f 314//314 73//73 321//321 
f 314//314 321//321 318//318 
f 311//311 72//72 323//323 
f 311//311 323//323 322//322 
f 309//309 304//304 320//320 
f 309//309 320//320 324//324 
f 76//76 75//75 77//77 
f 76//76 77//77 78//78 
f 306//306 325//325 330//330 
f 306//306 330//330 332//332 
f 71//71 333//333 334//334 
f 71//71 334//334 336//336 
f 81//81 80//80 338//338 
f 81//81 338//338 335//335 
f 331//331 327//327 342//342 
f 331//331 342//342 339//339 
f 326//326 307//307 337//337 
f 326//326 337//337 343//343 
f 83//83 82//82 340//340 
f 83//83 340//340 344//344 
f 346//346 345//345 341//341 
f 346//346 341//341 348//348 
f 86//86 87//87 350//350 
f 86//86 350//350 352//352 
f 349//349 84//84 354//354 
f 349//349 354//354 351//351 
f 339//339 342//342 358//358 
f 339//339 358//358 355//355 
f 85//85 347//347 353//353 
f 85//85 353//353 359//359 
f 89//89 88//88 356//356 
f 89//89 356//356 360//360 
f 362//362 315//315 367//367 
f 362//362 367//367 369//369 
f 366//366 370//370 371//371 
f 366//366 371//371 375//375 
f 94//94 93//93 379//379 
f 94//94 379//379 372//372 
f 368//368 74//74 381//381 
f 368//368 381//381 380//380 
f 316//316 363//363 376//376 
f 316//316 376//376 382//382 
f 377//377 373//373 97//97 
f 377//377 97//97 98//98 
f 378//378 383//383 385//385 
f 378//378 385//385 374//374 
f 375//375 371//371 387//387 
f 375//375 387//387 391//391 
f 95//95 386//386 395//395 
f 95//95 395//395 388//388 
f 100//100 99//99 397//397 
f 100//100 397//397 396//396 
f 384//384 96//96 392//392 
f 384//384 392//392 398//398 
f 394//394 390//390 103//103 
f 394//394 103//103 104//104 
f 399//399 364//364 328//328 
f 399//399 328//328 401//401 
f 105//105 106//106 403//403 
f 105//105 403//403 405//405 
f 402//402 79//79 409//409 
f 402//402 409//409 404//404 
f 329//329 365//365 412//412 
f 329//329 412//412 109//109 
f 92//92 400//400 406//406 
f 92//92 406//406 110//110 
f 108//108 107//107 408//408 
f 108//108 408//408 411//411 
f 111//111 418//418 419//419 
f 111//111 419//419 114//114 
f 413//413 421//421 357//357 
f 413//413 357//357 361//361 
f 422//422 113//113 423//423 
f 422//422 423//423 90//90 
f 420//420 112//112 116//116 
f 420//420 116//116 115//115 
f 417//417 414//414 91//91 
f 417//417 91//91 425//425 
f 360//360 356//356 424//424 
f 360//360 424//424 426//426 
f 429//429 118//118 119//119 
f 429//429 119//119 435//435 
f 117//117 436//436 121//121 
f 117//117 121//121 122//122 
f 120//120 433//433 101//101 
f 120//120 101//101 437//437 
f 434//434 430//430 393//393 
f 434//434 393//393 389//389 
f 431//431 428//428 439//439 
f 431//431 439//439 102//102 
f 440//440 438//438 390//390 
f 440//440 390//390 394//394 
f 429//429 118//118 111//111 
f 429//429 111//111 418//418 
f 427//427 416//416 284//284 
f 427//427 284//284 282//282 
f 417//417 414//414 407//407 
f 417//417 407//407 62//62 
f 415//415 432//432 412//412 
f 415//415 412//412 109//109 
f 431//431 428//428 61//61 
f 431//431 61//61 410//410 
f 283//283 286//286 408//408 
f 283//283 408//408 411//411 
