# file written by OpenSceneGraph

mtllib g10.mtl


o _Geometry_0

v 515.697998046875 83157.796875 13855.6982421875
v 500 83157.796875 13862.2001953125
v 484.302001953125 83157.796875 13855.6982421875
v 477.79998779296875 83157.796875 13840
v 484.302001953125 83157.796875 13824.3017578125
v 500 83157.796875 13817.7998046875
v 515.697998046875 83157.796875 13824.3017578125
v 522.20001220703125 83157.796875 13840
v 513.843017578125 83169.5078125 13824.3017578125
v 520.0269775390625 83171.5234375 13840
v 498.91299438476562 83164.6640625 13817.7998046875
v 483.9840087890625 83159.8125 13824.3017578125
v 483.9840087890625 83159.8125 13855.6982421875
v 498.91299438476562 83164.6640625 13862.2001953125
v 513.843017578125 83169.5078125 13855.6982421875
v 508.45999145507812 83180.078125 13824.3017578125
v 513.719970703125 83183.8984375 13840
v 495.760009765625 83170.8515625 13817.7998046875
v 483.05999755859375 83161.625 13824.3017578125
v 483.05999755859375 83161.625 13855.6982421875
v 495.760009765625 83170.8515625 13862.2001953125
v 508.45999145507812 83180.078125 13855.6982421875
v 500.07598876953125 83188.4609375 13824.3017578125
v 503.89801025390625 83193.71875 13840
v 490.8489990234375 83175.7578125 13817.7998046875
v 481.62200927734375 83163.0625 13824.3017578125
v 481.62200927734375 83163.0625 13855.6982421875
v 490.8489990234375 83175.7578125 13862.2001953125
v 500.07598876953125 83188.4609375 13855.6982421875
v 489.510986328125 83193.84375 13824.3017578125
v 491.51998901367188 83200.0234375 13840
v 484.66000366210938 83178.9140625 13817.7998046875
v 479.80899047851562 83163.984375 13824.3017578125
v 479.80899047851562 83163.984375 13855.6982421875
v 484.66000366210938 83178.9140625 13862.2001953125
v 489.510986328125 83193.84375 13855.6982421875
v 477.79998779296875 83195.6953125 13824.3017578125
v 477.79998779296875 83202.203125 13840
v 477.79998779296875 83180 13817.7998046875
v 477.79998779296875 83164.3046875 13824.3017578125
v 477.79998779296875 83164.3046875 13855.6982421875
v 477.79998779296875 83180 13862.2001953125
v 477.79998779296875 83195.6953125 13855.6982421875
v 511.80899047851562 82980 13851.80859375
v 500 82980 13856.7001953125
v 488.19100952148438 82980 13851.80859375
v 483.29998779296875 82980 13840
v 488.19100952148438 82980 13828.19140625
v 500 82980 13823.2998046875
v 511.80899047851562 82980 13828.19140625
v 516.70001220703125 82980 13840
v 516.70001220703125 83157.796875 13840
v 511.80899047851562 83157.796875 13828.19140625
v 500 83157.796875 13823.2998046875
v 488.19100952148438 83157.796875 13828.19140625
v 483.29998779296875 83157.796875 13840
v 488.19100952148438 83157.796875 13851.80859375
v 500 83157.796875 13856.7001953125
v 511.80899047851562 83157.796875 13851.80859375
v 477.79998779296875 83191.8125 13828.19140625
v 477.79998779296875 83196.703125 13840
v 477.79998779296875 83191.8125 13851.80859375
v 477.79998779296875 83180 13856.7001953125
v 477.79998779296875 83168.1875 13851.80859375
v 477.79998779296875 83163.296875 13840
v 477.79998779296875 83168.1875 13828.19140625
v 477.79998779296875 83180 13823.2998046875
v -7358 83180 13823.2998046875
v -7358 83168.1875 13828.19140625
v -7358 83163.296875 13840
v -7358 83168.1875 13851.80859375
v -7358 83180 13856.7001953125
v -7358 83191.8125 13851.80859375
v -7358 83196.703125 13840
v -7358 83191.8125 13828.19140625
v 515.697998046875 83157.796875 13855.6982421875
v 500 83157.796875 13862.2001953125
v 484.302001953125 83157.796875 13855.6982421875
v 477.79998779296875 83157.796875 13840
v 477.79998779296875 83157.796875 13840
v 477.79998779296875 83157.796875 13840
v 484.302001953125 83157.796875 13824.3017578125
v 500 83157.796875 13817.7998046875
v 515.697998046875 83157.796875 13824.3017578125
v 522.20001220703125 83157.796875 13840
v 477.79998779296875 83195.6953125 13824.3017578125
v 477.79998779296875 83202.203125 13840
v 477.79998779296875 83180 13817.7998046875
v 477.79998779296875 83164.3046875 13824.3017578125
v 477.79998779296875 83164.3046875 13855.6982421875
v 477.79998779296875 83180 13862.2001953125
v 477.79998779296875 83195.6953125 13855.6982421875
v 511.80899047851562 82980 13851.80859375
v 500 82980 13856.7001953125
v 488.19100952148438 82980 13851.80859375
v 483.29998779296875 82980 13840
v 488.19100952148438 82980 13828.19140625
v 500 82980 13823.2998046875
v 511.80899047851562 82980 13828.19140625
v 516.70001220703125 82980 13840
v 516.70001220703125 83157.796875 13840
v 511.80899047851562 83157.796875 13828.19140625
v 500 83157.796875 13823.2998046875
v 488.19100952148438 83157.796875 13828.19140625
v 483.29998779296875 83157.796875 13840
v 488.19100952148438 83157.796875 13851.80859375
v 500 83157.796875 13856.7001953125
v 511.80899047851562 83157.796875 13851.80859375
v 477.79998779296875 83191.8125 13828.19140625
v 477.79998779296875 83196.703125 13840
v 477.79998779296875 83191.8125 13851.80859375
v 477.79998779296875 83180 13856.7001953125
v 477.79998779296875 83168.1875 13851.80859375
v 477.79998779296875 83163.296875 13840
v 477.79998779296875 83168.1875 13828.19140625
v 477.79998779296875 83180 13823.2998046875
v -7358 83180 13823.2998046875
v -7358 83168.1875 13828.19140625
v -7358 83163.296875 13840
v -7358 83168.1875 13851.80859375
v -7358 83180 13856.7001953125
v -7358 83191.8125 13851.80859375
v -7358 83196.703125 13840
v -7358 83191.8125 13828.19140625
# 124 elements written

vn 0.78995472192764282 0.12509773671627045 0.60026830434799194
vn 0.13674336671829224 0.021659759804606438 0.99036973714828491
vn -0.59980767965316772 -0.094699807465076447 0.79452049732208252
vn -1 0 0
vn -0.70149755477905273 -0.11067104339599609 -0.70402640104293823
vn -0.13674339652061462 -0.021573169156908989 -0.99037152528762817
vn 0.59976232051849365 0.094986043870449066 -0.79452043771743774
vn 0.97863596677780151 0.15495550632476807 -0.1351313441991806
vn 0.67593145370483398 0.20347896218299866 -0.70831692218780518
vn 0.95106416940689087 0.30899339914321899 5.8955433814844582e-06
vn 0.0067686145193874836 -0.020801186561584473 -0.99976074695587158
vn -0.6174127459526062 -0.18669277429580688 -0.76416438817977905
vn -0.60931134223937988 -0.21165631711483002 0.76416045427322388
vn -0.0067516337148845196 0.020823797211050987 0.99976038932800293
vn 0.66647589206695557 0.23259970545768738 0.70831286907196045
vn 0.57992595434188843 0.40245401859283447 -0.70831960439682007
vn 0.80899214744567871 0.58781957626342773 3.7621401133947074e-05
vn 0.012874339707195759 -0.017705591395497322 -0.99976038932800293
vn -0.52937090396881104 -0.36853295564651489 -0.76416611671447754
vn -0.5139278769493103 -0.38979235291481018 0.76415973901748657
vn -0.012858465313911438 0.017664706334471703 0.99976128339767456
vn 0.56199586391448975 0.42720389366149902 0.70827794075012207
vn 0.42720401287078857 0.5619848370552063 -0.70828652381896973
vn 0.58770948648452759 0.80907207727432251 1.9891198462573811e-05
vn 0.017708351835608482 -0.012917923741042614 -0.9997597336769104
vn -0.38940808176994324 -0.51420927047729492 -0.76416635513305664
vn -0.36822843551635742 -0.5295678973197937 0.76417648792266846
vn -0.017709892243146896 0.012803779914975166 0.99976116418838501
vn 0.40239942073822021 0.58002448081970215 0.70827001333236694
vn 0.23256255686283112 0.66656750440597534 -0.70823895931243896
vn 0.30907827615737915 0.95103657245635986 -6.2703591538593173e-05
vn 0.020711474120616913 -0.0067583187483251095 -0.99976271390914917
vn -0.21185563504695892 -0.60928076505661011 -0.76412969827651978
vn -0.18685877323150635 -0.61740148067474365 0.76413297653198242
vn -0.020757796242833138 0.0067422040738165379 0.99976181983947754
vn 0.20357109606266022 0.67592102289199829 0.70830047130584717
vn -1 0 0
vn -1 0 0
vn -1 0 0
vn -1 0 0
vn -1 0 0
vn -1 0 0
vn -1 0 0
vn 0.79718506336212158 0 0.60373497009277344
vn 0.13677796721458435 0 0.99060165882110596
vn -0.60375887155532837 0 0.79716688394546509
vn -0.99060326814651489 0 0.13676658272743225
vn -0.79718506336212158 0 -0.60373497009277344
vn -0.13677796721458435 0 -0.99060165882110596
vn 0.60375887155532837 0 -0.79716688394546509
vn 0.99060326814651489 0 -0.13676658272743225
vn 0.99060326814651489 0 0.13676658272743225
vn 0.79718512296676636 0 -0.60373497009277344
vn 0.13677796721458435 0 -0.99060165882110596
vn -0.60375893115997314 0 -0.79716694355010986
vn -0.99060326814651489 0 -0.13676658272743225
vn -0.79718512296676636 0 0.60373497009277344
vn -0.13677796721458435 0 0.99060165882110596
vn 0.60375893115997314 0 0.79716694355010986
vn 0 0.60370808839797974 -0.79720550775527954
vn 0 0.99060481786727905 -0.13675567507743835
vn 0 0.79717755317687988 0.6037449836730957
vn 0 0.13673807680606842 0.99060720205307007
vn 0 -0.60370808839797974 0.79720550775527954
vn 0 -0.99060481786727905 0.13675567507743835
vn 0 -0.79717755317687988 -0.6037449836730957
vn 0 -0.13673807680606842 -0.99060720205307007
vn 0 0.13673807680606842 -0.99060720205307007
vn 0 -0.60370808839797974 -0.79720550775527954
vn 0 -0.99060481786727905 -0.13675567507743835
vn 0 -0.79717755317687988 0.6037449836730957
vn 0 -0.13673807680606842 0.99060720205307007
vn 0 0.60370808839797974 0.79720550775527954
vn 0 0.99060481786727905 0.13675567507743835
vn 0 0.79717755317687988 -0.6037449836730957
vn 0 -1 0
vn 0 -1 0
vn 0 -1 0
vn 0 -1 0
vn -0.64419353008270264 -0.64413279294967651 0.41244089603424072
vn -0.64419358968734741 -0.64413285255432129 -0.41244092583656311
vn 0 -1 0
vn 0 -1 0
vn 0 -1 0
vn 0 -1 0
vn 0.12514607608318329 0.78995972871780396 -0.60025155544281006
vn 0.15522046387195587 0.97860246896743774 0.13506954908370972
vn 0.021619189530611038 0.13673980534076691 -0.99037104845046997
vn -0.09544730931520462 -0.59962165355682373 -0.7945713996887207
vn -0.11181300133466721 -0.70129215717315674 0.70405060052871704
vn -0.021801086142659187 -0.13673646748065948 0.99036753177642822
vn 0.094845063984394073 0.59971970319747925 0.79456955194473267
vn 0 -1 0
vn 0 -1 0
vn 0 -1 0
vn 0 -1 0
vn 0 -1 0
vn 0 -1 0
vn 0 -1 0
vn 0 -1 0
vn 0 1 0
vn 0 1 0
vn 0 1 0
vn 0 1 0
vn 0 1 0
vn 0 1 0
vn 0 1 0
vn 0 1 0
vn 1 0 0
vn 1 0 0
vn 1 0 0
vn 1 0 0
vn 1 0 0
vn 1 0 0
vn 1 0 0
vn 1 0 0
vn -1 0 0
vn -1 0 0
vn -1 0 0
vn -1 0 0
vn -1 0 0
vn -1 0 0
vn -1 0 0
vn -1 0 0
# 124 elements written
f 76//76 77//77 78//78 
f 76//76 78//78 79//79 
f 76//76 79//79 82//82 
f 76//76 82//82 83//83 
f 76//76 83//83 84//84 
f 76//76 84//84 85//85 
f 8//8 7//7 9//9 
f 8//8 9//9 10//10 
f 7//7 6//6 11//11 
f 7//7 11//11 9//9 
f 6//6 5//5 12//12 
f 6//6 12//12 11//11 
f 5//5 81//81 12//12 
f 80//80 3//3 13//13 
f 3//3 2//2 14//14 
f 3//3 14//14 13//13 
f 2//2 1//1 15//15 
f 2//2 15//15 14//14 
f 1//1 8//8 10//10 
f 1//1 10//10 15//15 
f 10//10 9//9 16//16 
f 10//10 16//16 17//17 
f 9//9 11//11 18//18 
f 9//9 18//18 16//16 
f 11//11 12//12 19//19 
f 11//11 19//19 18//18 
f 12//12 81//81 19//19 
f 80//80 13//13 20//20 
f 13//13 14//14 21//21 
f 13//13 21//21 20//20 
f 14//14 15//15 22//22 
f 14//14 22//22 21//21 
f 15//15 10//10 17//17 
f 15//15 17//17 22//22 
f 17//17 16//16 23//23 
f 17//17 23//23 24//24 
f 16//16 18//18 25//25 
f 16//16 25//25 23//23 
f 18//18 19//19 26//26 
f 18//18 26//26 25//25 
f 19//19 81//81 26//26 
f 80//80 20//20 27//27 
f 20//20 21//21 28//28 
f 20//20 28//28 27//27 
f 21//21 22//22 29//29 
f 21//21 29//29 28//28 
f 22//22 17//17 24//24 
f 22//22 24//24 29//29 
f 24//24 23//23 30//30 
f 24//24 30//30 31//31 
f 23//23 25//25 32//32 
f 23//23 32//32 30//30 
f 25//25 26//26 33//33 
f 25//25 33//33 32//32 
f 26//26 81//81 33//33 
f 80//80 27//27 34//34 
f 27//27 28//28 35//35 
f 27//27 35//35 34//34 
f 28//28 29//29 36//36 
f 28//28 36//36 35//35 
f 29//29 24//24 31//31 
f 29//29 31//31 36//36 
f 31//31 30//30 86//86 
f 31//31 86//86 87//87 
f 30//30 32//32 88//88 
f 30//30 88//88 86//86 
f 32//32 33//33 89//89 
f 32//32 89//89 88//88 
f 33//33 81//81 89//89 
f 80//80 34//34 90//90 
f 34//34 35//35 91//91 
f 34//34 91//91 90//90 
f 35//35 36//36 92//92 
f 35//35 92//92 91//91 
f 36//36 31//31 87//87 
f 36//36 87//87 92//92 
f 38//38 37//37 39//39 
f 38//38 39//39 40//40 
f 38//38 40//40 4//4 
f 38//38 4//4 41//41 
f 38//38 41//41 42//42 
f 38//38 42//42 43//43 
f 93//93 94//94 95//95 
f 93//93 95//95 96//96 
f 93//93 96//96 97//97 
f 93//93 97//97 98//98 
f 93//93 98//98 99//99 
f 93//93 99//99 100//100 
f 101//101 102//102 103//103 
f 101//101 103//103 104//104 
f 101//101 104//104 105//105 
f 101//101 105//105 106//106 
f 101//101 106//106 107//107 
f 101//101 107//107 108//108 
f 51//51 50//50 53//53 
f 51//51 53//53 52//52 
f 50//50 49//49 54//54 
f 50//50 54//54 53//53 
f 49//49 48//48 55//55 
f 49//49 55//55 54//54 
f 48//48 47//47 56//56 
f 48//48 56//56 55//55 
f 47//47 46//46 57//57 
f 47//47 57//57 56//56 
f 46//46 45//45 58//58 
f 46//46 58//58 57//57 
f 45//45 44//44 59//59 
f 45//45 59//59 58//58 
f 44//44 51//51 52//52 
f 44//44 52//52 59//59 
f 109//109 110//110 111//111 
f 109//109 111//111 112//112 
f 109//109 112//112 113//113 
f 109//109 113//113 114//114 
f 109//109 114//114 115//115 
f 109//109 115//115 116//116 
f 117//117 118//118 119//119 
f 117//117 119//119 120//120 
f 117//117 120//120 121//121 
f 117//117 121//121 122//122 
f 117//117 122//122 123//123 
f 117//117 123//123 124//124 
f 67//67 66//66 69//69 
f 67//67 69//69 68//68 
f 66//66 65//65 70//70 
f 66//66 70//70 69//69 
f 65//65 64//64 71//71 
f 65//65 71//71 70//70 
f 64//64 63//63 72//72 
f 64//64 72//72 71//71 
f 63//63 62//62 73//73 
f 63//63 73//73 72//72 
f 62//62 61//61 74//74 
f 62//62 74//74 73//73 
f 61//61 60//60 75//75 
f 61//61 75//75 74//74 
f 60//60 67//67 68//68 
f 60//60 68//68 75//75 
