# file written by OpenSceneGraph

mtllib g14.mtl


o _Geometry_0

v 515.697998046875 83157.796875 23666.697265625
v 500 83157.796875 23673.19921875
v 484.302001953125 83157.796875 23666.697265625
v 477.79998779296875 83157.796875 23651
v 484.302001953125 83157.796875 23635.302734375
v 500 83157.796875 23628.80078125
v 515.697998046875 83157.796875 23635.302734375
v 522.20001220703125 83157.796875 23651
v 513.843017578125 83169.5078125 23635.302734375
v 520.0269775390625 83171.5234375 23651
v 498.91299438476562 83164.6640625 23628.80078125
v 483.9840087890625 83159.8125 23635.302734375
v 483.9840087890625 83159.8125 23666.697265625
v 498.91299438476562 83164.6640625 23673.19921875
v 513.843017578125 83169.5078125 23666.697265625
v 508.45999145507812 83180.078125 23635.302734375
v 513.719970703125 83183.8984375 23651
v 495.760009765625 83170.8515625 23628.80078125
v 483.05999755859375 83161.625 23635.302734375
v 483.05999755859375 83161.625 23666.697265625
v 495.760009765625 83170.8515625 23673.19921875
v 508.45999145507812 83180.078125 23666.697265625
v 500.07598876953125 83188.4609375 23635.302734375
v 503.89801025390625 83193.71875 23651
v 490.8489990234375 83175.7578125 23628.80078125
v 481.62200927734375 83163.0625 23635.302734375
v 481.62200927734375 83163.0625 23666.697265625
v 490.8489990234375 83175.7578125 23673.19921875
v 500.07598876953125 83188.4609375 23666.697265625
v 489.510986328125 83193.84375 23635.302734375
v 491.51998901367188 83200.0234375 23651
v 484.66000366210938 83178.9140625 23628.80078125
v 479.80899047851562 83163.984375 23635.302734375
v 479.80899047851562 83163.984375 23666.697265625
v 484.66000366210938 83178.9140625 23673.19921875
v 489.510986328125 83193.84375 23666.697265625
v 477.79998779296875 83195.6953125 23635.302734375
v 477.79998779296875 83202.203125 23651
v 477.79998779296875 83180 23628.80078125
v 477.79998779296875 83164.3046875 23635.302734375
v 477.79998779296875 83164.3046875 23666.697265625
v 477.79998779296875 83180 23673.19921875
v 477.79998779296875 83195.6953125 23666.697265625
v 511.80899047851562 82980 23662.80859375
v 500 82980 23667.69921875
v 488.19100952148438 82980 23662.80859375
v 483.29998779296875 82980 23651
v 488.19100952148438 82980 23639.19140625
v 500 82980 23634.30078125
v 511.80899047851562 82980 23639.19140625
v 516.70001220703125 82980 23651
v 516.70001220703125 83157.796875 23651
v 511.80899047851562 83157.796875 23639.19140625
v 500 83157.796875 23634.30078125
v 488.19100952148438 83157.796875 23639.19140625
v 483.29998779296875 83157.796875 23651
v 488.19100952148438 83157.796875 23662.80859375
v 500 83157.796875 23667.69921875
v 511.80899047851562 83157.796875 23662.80859375
v 477.79998779296875 83191.8125 23639.19140625
v 477.79998779296875 83196.703125 23651
v 477.79998779296875 83191.8125 23662.80859375
v 477.79998779296875 83180 23667.69921875
v 477.79998779296875 83168.1875 23662.80859375
v 477.79998779296875 83163.296875 23651
v 477.79998779296875 83168.1875 23639.19140625
v 477.79998779296875 83180 23634.30078125
v -2260 83180 23634.30078125
v -2260 83168.1875 23639.19140625
v -2260 83163.296875 23651
v -2260 83168.1875 23662.80859375
v -2260 83180 23667.69921875
v -2260 83191.8125 23662.80859375
v -2260 83196.703125 23651
v -2260 83191.8125 23639.19140625
v 515.697998046875 83157.796875 23666.697265625
v 500 83157.796875 23673.19921875
v 484.302001953125 83157.796875 23666.697265625
v 477.79998779296875 83157.796875 23651
v 477.79998779296875 83157.796875 23651
v 477.79998779296875 83157.796875 23651
v 484.302001953125 83157.796875 23635.302734375
v 500 83157.796875 23628.80078125
v 515.697998046875 83157.796875 23635.302734375
v 522.20001220703125 83157.796875 23651
v 477.79998779296875 83195.6953125 23635.302734375
v 477.79998779296875 83202.203125 23651
v 477.79998779296875 83180 23628.80078125
v 477.79998779296875 83164.3046875 23635.302734375
v 477.79998779296875 83164.3046875 23666.697265625
v 477.79998779296875 83180 23673.19921875
v 477.79998779296875 83195.6953125 23666.697265625
v 511.80899047851562 82980 23662.80859375
v 500 82980 23667.69921875
v 488.19100952148438 82980 23662.80859375
v 483.29998779296875 82980 23651
v 488.19100952148438 82980 23639.19140625
v 500 82980 23634.30078125
v 511.80899047851562 82980 23639.19140625
v 516.70001220703125 82980 23651
v 516.70001220703125 83157.796875 23651
v 511.80899047851562 83157.796875 23639.19140625
v 500 83157.796875 23634.30078125
v 488.19100952148438 83157.796875 23639.19140625
v 483.29998779296875 83157.796875 23651
v 488.19100952148438 83157.796875 23662.80859375
v 500 83157.796875 23667.69921875
v 511.80899047851562 83157.796875 23662.80859375
v 477.79998779296875 83191.8125 23639.19140625
v 477.79998779296875 83196.703125 23651
v 477.79998779296875 83191.8125 23662.80859375
v 477.79998779296875 83180 23667.69921875
v 477.79998779296875 83168.1875 23662.80859375
v 477.79998779296875 83163.296875 23651
v 477.79998779296875 83168.1875 23639.19140625
v 477.79998779296875 83180 23634.30078125
v -2260 83180 23634.30078125
v -2260 83168.1875 23639.19140625
v -2260 83163.296875 23651
v -2260 83168.1875 23662.80859375
v -2260 83180 23667.69921875
v -2260 83191.8125 23662.80859375
v -2260 83196.703125 23651
v -2260 83191.8125 23639.19140625
# 124 elements written

vn 0.78994578123092651 0.12509633600711823 0.60028034448623657
vn 0.13674336671829224 0.021659759804606438 0.99036973714828491
vn -0.59980237483978271 -0.09469902515411377 0.79452455043792725
vn -1 0 0
vn -0.70148992538452148 -0.11066983640193939 -0.70403409004211426
vn -0.13674339652061462 -0.021573169156908989 -0.99037152528762817
vn 0.59975707530975342 0.094985201954841614 -0.79452449083328247
vn 0.97863483428955078 0.15495531260967255 -0.13513955473899841
vn 0.67592400312423706 0.20347689092159271 -0.70832467079162598
vn 0.95106416940689087 0.30899345874786377 5.9118983699590899e-06
vn 0.0067686145193874836 -0.020801186561584473 -0.99976074695587158
vn -0.61740666627883911 -0.18669085204601288 -0.76416981220245361
vn -0.60930538177490234 -0.21165429055690765 0.76416581869125366
vn -0.0067516337148845196 0.020823797211050987 0.99976038932800293
vn 0.66646867990493774 0.23259703814983368 0.70832061767578125
vn 0.57991951704025269 0.40244978666305542 -0.70832735300064087
vn 0.80899208784103394 0.58781951665878296 3.7621735827997327e-05
vn 0.012874339707195759 -0.017705591395497322 -0.99976038932800293
vn -0.52936571836471558 -0.36852926015853882 -0.76417148113250732
vn -0.51392281055450439 -0.38978856801986694 0.76416504383087158
vn -0.012858465313911438 0.017664706334471703 0.99976128339767456
vn 0.56198984384536743 0.42719912528991699 0.70828557014465332
vn 0.42719924449920654 0.56197875738143921 -0.70829421281814575
vn 0.58770948648452759 0.80907195806503296 1.9918541511287913e-05
vn 0.017708351835608482 -0.012917923741042614 -0.9997597336769104
vn -0.38940426707267761 -0.51420414447784424 -0.76417171955108643
vn -0.36822468042373657 -0.52956271171569824 0.76418185234069824
vn -0.017709892243146896 0.012803779914975166 0.99976116418838501
vn 0.40239512920379639 0.58001804351806641 0.70827770233154297
vn 0.23255988955497742 0.66656023263931274 -0.70824664831161499
vn 0.30907827615737915 0.95103663206100464 -6.2682418501935899e-05
vn 0.020711474120616913 -0.0067583187483251095 -0.99976271390914917
vn -0.21185360848903656 -0.60927468538284302 -0.76413500308990479
vn -0.18685686588287354 -0.61739540100097656 0.76413840055465698
vn -0.020757796242833138 0.0067422040738165379 0.99976181983947754
vn 0.20356900990009308 0.67591363191604614 0.70830810070037842
vn -1 0 0
vn -1 0 0
vn -1 0 0
vn -1 0 0
vn -1 0 0
vn -1 0 0
vn -1 0 0
vn 0.79717200994491577 0 0.60375237464904785
vn 0.13675117492675781 0 0.99060547351837158
vn -0.60372000932693481 0 0.79719644784927368
vn -0.99060326814651489 0 0.13676658272743225
vn -0.79717200994491577 0 -0.60375237464904785
vn -0.13675117492675781 0 -0.99060547351837158
vn 0.60372000932693481 0 -0.79719644784927368
vn 0.99060326814651489 0 -0.13676658272743225
vn 0.99060326814651489 0 0.13676658272743225
vn 0.79717200994491577 0 -0.60375237464904785
vn 0.13675117492675781 0 -0.99060547351837158
vn -0.60372000932693481 0 -0.79719644784927368
vn -0.99060326814651489 0 -0.13676658272743225
vn -0.79717200994491577 0 0.60375237464904785
vn -0.13675117492675781 0 0.99060547351837158
vn 0.60372000932693481 0 0.79719644784927368
vn 0 0.60366916656494141 -0.79723489284515381
vn 0 0.99060481786727905 -0.13675567507743835
vn 0 0.7971644401550293 0.60376226902008057
vn 0 0.13671129941940308 0.99061089754104614
vn 0 -0.60366916656494141 0.79723489284515381
vn 0 -0.99060481786727905 0.13675567507743835
vn 0 -0.7971644401550293 -0.60376226902008057
vn 0 -0.13671129941940308 -0.99061089754104614
vn 0 0.13671129941940308 -0.99061089754104614
vn 0 -0.60366916656494141 -0.79723489284515381
vn 0 -0.99060481786727905 -0.13675567507743835
vn 0 -0.79716438055038452 0.60376232862472534
vn 0 -0.13671129941940308 0.99061089754104614
vn 0 0.60366916656494141 0.79723489284515381
vn 0 0.99060481786727905 0.13675567507743835
vn 0 0.79716438055038452 -0.60376232862472534
vn 0 -1 0
vn 0 -1 0
vn 0 -1 0
vn 0 -1 0
vn -0.64418679475784302 -0.64412599802017212 0.41246223449707031
vn -0.64418679475784302 -0.64412599802017212 -0.41246220469474792
vn 0 -1 0
vn 0 -1 0
vn 0 -1 0
vn 0 -1 0
vn 0.12514466047286987 0.7899509072303772 -0.60026365518569946
vn 0.15522028505802155 0.97860139608383179 0.1350778192281723
vn 0.021619189530611038 0.13673980534076691 -0.99037104845046997
vn -0.095446459949016571 -0.59961634874343872 -0.79457545280456543
vn -0.1118118017911911 -0.70128452777862549 0.70405840873718262
vn -0.021801086142659187 -0.13673646748065948 0.99036753177642822
vn 0.094844214618206024 0.59971439838409424 0.79457360506057739
vn 0 -1 0
vn 0 -1 0
vn 0 -1 0
vn 0 -1 0
vn 0 -1 0
vn 0 -1 0
vn 0 -1 0
vn 0 -1 0
vn 0 1 0
vn 0 1 0
vn 0 1 0
vn 0 1 0
vn 0 1 0
vn 0 1 0
vn 0 1 0
vn 0 1 0
vn 1 0 0
vn 1 0 0
vn 1 0 0
vn 1 0 0
vn 1 0 0
vn 1 0 0
vn 1 0 0
vn 1 0 0
vn -1 0 0
vn -1 0 0
vn -1 0 0
vn -1 0 0
vn -1 0 0
vn -1 0 0
vn -1 0 0
vn -1 0 0
# 124 elements written
f 76//76 77//77 78//78 
f 76//76 78//78 79//79 
f 76//76 79//79 82//82 
f 76//76 82//82 83//83 
f 76//76 83//83 84//84 
f 76//76 84//84 85//85 
f 8//8 7//7 9//9 
f 8//8 9//9 10//10 
f 7//7 6//6 11//11 
f 7//7 11//11 9//9 
f 6//6 5//5 12//12 
f 6//6 12//12 11//11 
f 5//5 81//81 12//12 
f 80//80 3//3 13//13 
f 3//3 2//2 14//14 
f 3//3 14//14 13//13 
f 2//2 1//1 15//15 
f 2//2 15//15 14//14 
f 1//1 8//8 10//10 
f 1//1 10//10 15//15 
f 10//10 9//9 16//16 
f 10//10 16//16 17//17 
f 9//9 11//11 18//18 
f 9//9 18//18 16//16 
f 11//11 12//12 19//19 
f 11//11 19//19 18//18 
f 12//12 81//81 19//19 
f 80//80 13//13 20//20 
f 13//13 14//14 21//21 
f 13//13 21//21 20//20 
f 14//14 15//15 22//22 
f 14//14 22//22 21//21 
f 15//15 10//10 17//17 
f 15//15 17//17 22//22 
f 17//17 16//16 23//23 
f 17//17 23//23 24//24 
f 16//16 18//18 25//25 
f 16//16 25//25 23//23 
f 18//18 19//19 26//26 
f 18//18 26//26 25//25 
f 19//19 81//81 26//26 
f 80//80 20//20 27//27 
f 20//20 21//21 28//28 
f 20//20 28//28 27//27 
f 21//21 22//22 29//29 
f 21//21 29//29 28//28 
f 22//22 17//17 24//24 
f 22//22 24//24 29//29 
f 24//24 23//23 30//30 
f 24//24 30//30 31//31 
f 23//23 25//25 32//32 
f 23//23 32//32 30//30 
f 25//25 26//26 33//33 
f 25//25 33//33 32//32 
f 26//26 81//81 33//33 
f 80//80 27//27 34//34 
f 27//27 28//28 35//35 
f 27//27 35//35 34//34 
f 28//28 29//29 36//36 
f 28//28 36//36 35//35 
f 29//29 24//24 31//31 
f 29//29 31//31 36//36 
f 31//31 30//30 86//86 
f 31//31 86//86 87//87 
f 30//30 32//32 88//88 
f 30//30 88//88 86//86 
f 32//32 33//33 89//89 
f 32//32 89//89 88//88 
f 33//33 81//81 89//89 
f 80//80 34//34 90//90 
f 34//34 35//35 91//91 
f 34//34 91//91 90//90 
f 35//35 36//36 92//92 
f 35//35 92//92 91//91 
f 36//36 31//31 87//87 
f 36//36 87//87 92//92 
f 38//38 37//37 39//39 
f 38//38 39//39 40//40 
f 38//38 40//40 4//4 
f 38//38 4//4 41//41 
f 38//38 41//41 42//42 
f 38//38 42//42 43//43 
f 93//93 94//94 95//95 
f 93//93 95//95 96//96 
f 93//93 96//96 97//97 
f 93//93 97//97 98//98 
f 93//93 98//98 99//99 
f 93//93 99//99 100//100 
f 101//101 102//102 103//103 
f 101//101 103//103 104//104 
f 101//101 104//104 105//105 
f 101//101 105//105 106//106 
f 101//101 106//106 107//107 
f 101//101 107//107 108//108 
f 51//51 50//50 53//53 
f 51//51 53//53 52//52 
f 50//50 49//49 54//54 
f 50//50 54//54 53//53 
f 49//49 48//48 55//55 
f 49//49 55//55 54//54 
f 48//48 47//47 56//56 
f 48//48 56//56 55//55 
f 47//47 46//46 57//57 
f 47//47 57//57 56//56 
f 46//46 45//45 58//58 
f 46//46 58//58 57//57 
f 45//45 44//44 59//59 
f 45//45 59//59 58//58 
f 44//44 51//51 52//52 
f 44//44 52//52 59//59 
f 109//109 110//110 111//111 
f 109//109 111//111 112//112 
f 109//109 112//112 113//113 
f 109//109 113//113 114//114 
f 109//109 114//114 115//115 
f 109//109 115//115 116//116 
f 117//117 118//118 119//119 
f 117//117 119//119 120//120 
f 117//117 120//120 121//121 
f 117//117 121//121 122//122 
f 117//117 122//122 123//123 
f 117//117 123//123 124//124 
f 67//67 66//66 69//69 
f 67//67 69//69 68//68 
f 66//66 65//65 70//70 
f 66//66 70//70 69//69 
f 65//65 64//64 71//71 
f 65//65 71//71 70//70 
f 64//64 63//63 72//72 
f 64//64 72//72 71//71 
f 63//63 62//62 73//73 
f 63//63 73//73 72//72 
f 62//62 61//61 74//74 
f 62//62 74//74 73//73 
f 61//61 60//60 75//75 
f 61//61 75//75 74//74 
f 60//60 67//67 68//68 
f 60//60 68//68 75//75 
