# file written by OpenSceneGraph

mtllib g5.mtl


o _Geometry_0

v 13630.7998046875 83195.6953125 3014.302001953125
v 13630.7998046875 83180 3007.800048828125
v 13630.7998046875 83164.3046875 3014.302001953125
v 13630.7998046875 83157.796875 3030
v 13630.7998046875 83164.3046875 3045.697998046875
v 13630.7998046875 83180 3052.199951171875
v 13630.7998046875 83195.6953125 3045.697998046875
v 13630.7998046875 83202.203125 3030
v 13642.5107421875 83193.84375 3045.697998046875
v 13644.521484375 83200.0234375 3030
v 13637.66015625 83178.9140625 3052.199951171875
v 13632.8095703125 83163.984375 3045.697998046875
v 13632.8095703125 83163.984375 3014.302001953125
v 13637.66015625 83178.9140625 3007.800048828125
v 13642.5107421875 83193.84375 3014.302001953125
v 13653.076171875 83188.4609375 3045.697998046875
v 13656.8974609375 83193.71875 3030
v 13643.8486328125 83175.7578125 3052.199951171875
v 13634.6220703125 83163.0625 3045.697998046875
v 13634.6220703125 83163.0625 3014.302001953125
v 13643.8486328125 83175.7578125 3007.800048828125
v 13653.076171875 83188.4609375 3014.302001953125
v 13661.4599609375 83180.078125 3045.697998046875
v 13666.720703125 83183.8984375 3030
v 13648.759765625 83170.8515625 3052.199951171875
v 13636.060546875 83161.625 3045.697998046875
v 13636.060546875 83161.625 3014.302001953125
v 13648.759765625 83170.8515625 3007.800048828125
v 13661.4599609375 83180.078125 3014.302001953125
v 13666.8427734375 83169.5078125 3045.697998046875
v 13673.02734375 83171.5234375 3030
v 13651.9130859375 83164.6640625 3052.199951171875
v 13636.984375 83159.8125 3045.697998046875
v 13636.984375 83159.8125 3014.302001953125
v 13651.9130859375 83164.6640625 3007.800048828125
v 13666.8427734375 83169.5078125 3014.302001953125
v 13668.6982421875 83157.796875 3045.697998046875
v 13675.2001953125 83157.796875 3030
v 13653 83157.796875 3052.199951171875
v 13637.3017578125 83157.796875 3045.697998046875
v 13637.3017578125 83157.796875 3014.302001953125
v 13653 83157.796875 3007.800048828125
v 13668.6982421875 83157.796875 3014.302001953125
v 13668.6982421875 81902.203125 3045.697998046875
v 13675.2001953125 81902.203125 3030
v 13668.6982421875 81902.203125 3014.302001953125
v 13653 81902.203125 3007.800048828125
v 13637.3017578125 81902.203125 3014.302001953125
v 13630.7998046875 81902.203125 3030
v 13637.3017578125 81902.203125 3045.697998046875
v 13653 81902.203125 3052.199951171875
v 13637.3017578125 81890.4921875 3043.843017578125
v 13653 81888.4765625 3050.027099609375
v 13630.7998046875 81895.3359375 3028.9140625
v 13637.3017578125 81900.1875 3013.98388671875
v 13668.6982421875 81900.1875 3013.98388671875
v 13675.2001953125 81895.3359375 3028.9140625
v 13668.6982421875 81890.4921875 3043.843017578125
v 13637.3017578125 81879.921875 3038.4599609375
v 13653 81876.1015625 3043.719970703125
v 13630.7998046875 81889.1484375 3025.760009765625
v 13637.3017578125 81898.375 3013.06005859375
v 13668.6982421875 81898.375 3013.06005859375
v 13675.2001953125 81889.1484375 3025.760009765625
v 13668.6982421875 81879.921875 3038.4599609375
v 13637.3017578125 81871.5390625 3030.075927734375
v 13653 81866.28125 3033.89794921875
v 13630.7998046875 81884.2421875 3020.84912109375
v 13637.3017578125 81896.9375 3011.6220703125
v 13668.6982421875 81896.9375 3011.6220703125
v 13675.2001953125 81884.2421875 3020.84912109375
v 13668.6982421875 81871.5390625 3030.075927734375
v 13637.3017578125 81866.15625 3019.510986328125
v 13653 81859.9765625 3021.52001953125
v 13630.7998046875 81881.0859375 3014.659912109375
v 13637.3017578125 81896.015625 3009.80908203125
v 13668.6982421875 81896.015625 3009.80908203125
v 13675.2001953125 81881.0859375 3014.659912109375
v 13668.6982421875 81866.15625 3019.510986328125
v 13637.3017578125 81864.3046875 3007.800048828125
v 13653 81857.796875 3007.800048828125
v 13630.7998046875 81880 3007.800048828125
v 13637.3017578125 81895.6953125 3007.800048828125
v 13668.6982421875 81895.6953125 3007.800048828125
v 13675.2001953125 81880 3007.800048828125
v 13668.6982421875 81864.3046875 3007.800048828125
v 13053 83168.1875 3018.19091796875
v 13053 83163.296875 3030
v 13053 83168.1875 3041.80908203125
v 13053 83180 3046.699951171875
v 13053 83191.8125 3041.80908203125
v 13053 83196.703125 3030
v 13053 83191.8125 3018.19091796875
v 13053 83180 3013.300048828125
v 13630.7998046875 83180 3013.300048828125
v 13630.7998046875 83191.8125 3018.19091796875
v 13630.7998046875 83196.703125 3030
v 13630.7998046875 83191.8125 3041.80908203125
v 13630.7998046875 83180 3046.699951171875
v 13630.7998046875 83168.1875 3041.80908203125
v 13630.7998046875 83163.296875 3030
v 13630.7998046875 83168.1875 3018.19091796875
v 13664.80859375 83157.796875 3018.19091796875
v 13653 83157.796875 3013.300048828125
v 13641.19140625 83157.796875 3018.19091796875
v 13636.2998046875 83157.796875 3030
v 13641.19140625 83157.796875 3041.80908203125
v 13653 83157.796875 3046.699951171875
v 13664.80859375 83157.796875 3041.80908203125
v 13669.7001953125 83157.796875 3030
v 13669.7001953125 81902.203125 3030
v 13664.80859375 81902.203125 3041.80908203125
v 13653 81902.203125 3046.699951171875
v 13641.19140625 81902.203125 3041.80908203125
v 13636.2998046875 81902.203125 3030
v 13641.19140625 81902.203125 3018.19091796875
v 13653 81902.203125 3013.300048828125
v 13664.80859375 81902.203125 3018.19091796875
v 13664.80859375 81891.8125 3007.800048828125
v 13653 81896.703125 3007.800048828125
v 13641.19140625 81891.8125 3007.800048828125
v 13636.2998046875 81880 3007.800048828125
v 13641.19140625 81868.1875 3007.800048828125
v 13653 81863.296875 3007.800048828125
v 13664.80859375 81868.1875 3007.800048828125
v 13669.7001953125 81880 3007.800048828125
v 13669.7001953125 81880 2730
v 13664.80859375 81868.1875 2730
v 13653 81863.296875 2730
v 13641.19140625 81868.1875 2730
v 13636.2998046875 81880 2730
v 13641.19140625 81891.8125 2730
v 13653 81896.703125 2730
v 13664.80859375 81891.8125 2730
v 13630.7998046875 83195.6953125 3014.302001953125
v 13630.7998046875 83180 3007.800048828125
v 13630.7998046875 83164.3046875 3014.302001953125
v 13630.7998046875 83157.796875 3030
v 13630.7998046875 83157.796875 3030
v 13630.7998046875 83157.796875 3030
v 13630.7998046875 83164.3046875 3045.697998046875
v 13630.7998046875 83180 3052.199951171875
v 13630.7998046875 83195.6953125 3045.697998046875
v 13630.7998046875 83202.203125 3030
v 13668.6982421875 83157.796875 3045.697998046875
v 13675.2001953125 83157.796875 3030
v 13653 83157.796875 3052.199951171875
v 13637.3017578125 83157.796875 3045.697998046875
v 13637.3017578125 83157.796875 3014.302001953125
v 13653 83157.796875 3007.800048828125
v 13668.6982421875 83157.796875 3014.302001953125
v 13668.6982421875 81902.203125 3045.697998046875
v 13675.2001953125 81902.203125 3030
v 13668.6982421875 81902.203125 3014.302001953125
v 13653 81902.203125 3007.800048828125
v 13653 81902.203125 3007.800048828125
v 13653 81902.203125 3007.800048828125
v 13637.3017578125 81902.203125 3014.302001953125
v 13630.7998046875 81902.203125 3030
v 13637.3017578125 81902.203125 3045.697998046875
v 13653 81902.203125 3052.199951171875
v 13637.3017578125 81864.3046875 3007.800048828125
v 13653 81857.796875 3007.800048828125
v 13630.7998046875 81880 3007.800048828125
v 13637.3017578125 81895.6953125 3007.800048828125
v 13668.6982421875 81895.6953125 3007.800048828125
v 13675.2001953125 81880 3007.800048828125
v 13668.6982421875 81864.3046875 3007.800048828125
v 13053 83168.1875 3018.19091796875
v 13053 83163.296875 3030
v 13053 83168.1875 3041.80908203125
v 13053 83180 3046.699951171875
v 13053 83191.8125 3041.80908203125
v 13053 83196.703125 3030
v 13053 83191.8125 3018.19091796875
v 13053 83180 3013.300048828125
v 13630.7998046875 83180 3013.300048828125
v 13630.7998046875 83191.8125 3018.19091796875
v 13630.7998046875 83196.703125 3030
v 13630.7998046875 83191.8125 3041.80908203125
v 13630.7998046875 83180 3046.699951171875
v 13630.7998046875 83168.1875 3041.80908203125
v 13630.7998046875 83163.296875 3030
v 13630.7998046875 83168.1875 3018.19091796875
v 13664.80859375 83157.796875 3018.19091796875
v 13653 83157.796875 3013.300048828125
v 13641.19140625 83157.796875 3018.19091796875
v 13636.2998046875 83157.796875 3030
v 13641.19140625 83157.796875 3041.80908203125
v 13653 83157.796875 3046.699951171875
v 13664.80859375 83157.796875 3041.80908203125
v 13669.7001953125 83157.796875 3030
v 13669.7001953125 81902.203125 3030
v 13664.80859375 81902.203125 3041.80908203125
v 13653 81902.203125 3046.699951171875
v 13641.19140625 81902.203125 3041.80908203125
v 13636.2998046875 81902.203125 3030
v 13641.19140625 81902.203125 3018.19091796875
v 13653 81902.203125 3013.300048828125
v 13664.80859375 81902.203125 3018.19091796875
v 13664.80859375 81891.8125 3007.800048828125
v 13653 81896.703125 3007.800048828125
v 13641.19140625 81891.8125 3007.800048828125
v 13636.2998046875 81880 3007.800048828125
v 13641.19140625 81868.1875 3007.800048828125
v 13653 81863.296875 3007.800048828125
v 13664.80859375 81868.1875 3007.800048828125
v 13669.7001953125 81880 3007.800048828125
v 13669.7001953125 81880 2730
v 13664.80859375 81868.1875 2730
v 13653 81863.296875 2730
v 13641.19140625 81868.1875 2730
v 13636.2998046875 81880 2730
v 13641.19140625 81891.8125 2730
v 13653 81896.703125 2730
v 13664.80859375 81891.8125 2730
# 216 elements written

vn 0.12513937056064606 0.78995531797409058 -0.60025888681411743
vn 0.021619418635964394 0.13674056529998779 -0.99037092924118042
vn -0.095418818295001984 -0.59962528944015503 -0.79457205533981323
vn 0 -1 0
vn -0.11177093535661697 -0.7012944221496582 0.70405483245849609
vn -0.021792957559227943 -0.1367374062538147 0.990367591381073
vn 0.094844214618206024 0.59971874952316284 0.79457032680511475
vn 0.15520820021629333 0.9786035418510437 0.13507604598999023
vn 0.20356403291225433 0.67591434717178345 0.70830893516540527
vn 0.30909055471420288 0.95103257894515991 -6.4703825046308339e-05
vn -0.020765559747815132 0.0067445933818817139 0.99976164102554321
vn -0.18687143921852112 -0.61739015579223633 0.76413899660110474
vn -0.21187104284763336 -0.60926800966262817 -0.76413559913635254
vn 0.020713651552796364 -0.0067604812793433666 -0.99976259469985962
vn 0.23256708681583405 0.66655957698822021 -0.7082449197769165
vn 0.40240514278411865 0.58001565933227539 0.70827388763427734
vn 0.58770966529846191 0.80907189846038818 1.7658028809819371e-05
vn -0.017705071717500687 0.012793298810720444 0.99976140260696411
vn -0.36821988224983215 -0.52957791090011597 0.76417362689971924
vn -0.38939878344535828 -0.51422303915023804 -0.76416182518005371
vn 0.017698828130960464 -0.012918673455715179 -0.99975991249084473
vn 0.42719539999961853 0.56198954582214355 -0.70828795433044434
vn 0.56198573112487793 0.42720550298690796 0.70828485488891602
vn 0.80898630619049072 0.58782750368118286 4.6337449020938948e-05
vn -0.012868913821876049 0.017663124948740005 0.99976122379302979
vn -0.51390385627746582 -0.3898070752620697 0.76416832208633423
vn -0.5293465256690979 -0.36855128407478333 -0.76417416334152222
vn 0.012878368608653545 -0.017719341441988945 -0.99976009130477905
vn 0.57991892099380493 0.40243721008300781 -0.70833486318588257
vn 0.66646498441696167 0.23259662091732025 0.70832425355911255
vn 0.95106679201126099 0.30898550152778625 0
vn -0.0067570358514785767 0.020842315629124641 0.99975991249084473
vn -0.60933816432952881 -0.21155776083469391 0.76416641473770142
vn -0.61742955446243286 -0.18658645451068878 -0.76417684555053711
vn 0.0067635090090334415 -0.020794080570340157 -0.99976086616516113
vn 0.67592310905456543 0.20348337292671204 -0.70832377672195435
vn 0 -1 0
vn 0 -1 0
vn 0 -1 0
vn 0 -1 0
vn 0 -1 0
vn 0 -1 0
vn 0 -1 0
vn 0.60026943683624268 -0.12509337067604065 0.78995460271835327
vn 0.99036777019500732 -0.021661942824721336 0.13675707578659058
vn 0.79452735185623169 0.094705089926719666 -0.59979754686355591
vn 0 0 -1
vn -0.70402288436889648 0.11071302741765976 -0.70149439573287964
vn -0.99037188291549683 0.021580839529633522 -0.136739581823349
vn -0.79451650381088257 -0.094966128468513489 0.59977072477340698
vn -0.13513302803039551 -0.15494698286056519 0.97863709926605225
vn -0.70831263065338135 -0.20348802208900452 0.67593330144882202
vn 5.1946130952273961e-06 -0.30899211764335632 0.95106464624404907
vn -0.99976086616516113 0.020790413022041321 0.0067813568748533726
vn -0.76416665315628052 0.18667386472225189 -0.61741584539413452
vn 0.76416230201721191 0.21166133880615234 -0.60930734872817993
vn 0.99976044893264771 -0.020824119448661804 -0.0067345332354307175
vn 0.70830917358398438 -0.23259235918521881 0.66648250818252563
vn -0.70832008123397827 -0.40245503187179565 0.57992464303970337
vn 3.8452741137007251e-05 -0.58782309293746948 0.80898952484130859
vn -0.99976027011871338 0.017702816054224968 0.012879632413387299
vn -0.76417088508605957 0.36852133274078369 -0.52937209606170654
vn 0.7641603946685791 0.3897729218006134 -0.51394164562225342
vn 0.99976116418838501 -0.017670519649982452 -0.01286004576832056
vn 0.70827555656433105 -0.42721360921859741 0.56199133396148682
vn -0.7082861065864563 -0.56198602914810181 0.42720323801040649
vn 1.9956391042796895e-05 -0.80907195806503296 0.58770954608917236
vn -0.99975979328155518 0.012916900217533112 0.017708392813801765
vn -0.76416629552841187 0.51420754194259644 -0.38941049575805664
vn 0.76417624950408936 0.52956771850585938 -0.36822909116744995
vn 0.99976116418838501 -0.012804207392036915 -0.017709249630570412
vn 0.70826941728591919 -0.58002406358718872 0.40240108966827393
vn -0.70823925733566284 -0.66656672954559326 0.23256385326385498
vn -6.2627550505567342e-05 -0.95103609561920166 0.30907979607582092
vn -0.99976259469985962 0.0067585618235170841 0.020711805671453476
vn -0.764129638671875 0.60928070545196533 -0.21185570955276489
vn 0.76413291692733765 0.61740106344223022 -0.18686036765575409
vn 0.99976181983947754 -0.0067416983656585217 -0.020758502185344696
vn 0.70830047130584717 -0.67592108249664307 0.20357093214988708
vn 0 0 -1
vn 0 0 -1
vn 0 0 -1
vn 0 0 -1
vn 0 0 -1
vn 0 0 -1
vn 0 0 -1
vn 0 -0.60368245840072632 -0.79722487926483154
vn 0 -0.99060559272766113 -0.13675013184547424
vn 0 -0.79717373847961426 0.60374999046325684
vn 0 -0.13671799004077911 0.99061000347137451
vn 0 0.60368245840072632 0.79722487926483154
vn 0 0.99060559272766113 0.13675013184547424
vn 0 0.79717373847961426 -0.60374999046325684
vn 0 0.13671799004077911 -0.99061000347137451
vn 0 -0.13671799004077911 -0.99061000347137451
vn 0 0.60368245840072632 -0.79722493886947632
vn 0 0.99060559272766113 -0.13675013184547424
vn 0 0.79717373847961426 0.60374999046325684
vn 0 0.13671799004077911 0.99061000347137451
vn 0 -0.60368245840072632 0.79722493886947632
vn 0 -0.99060559272766113 0.13675013184547424
vn 0 -0.79717373847961426 -0.60374999046325684
vn 0.79716604948043823 0 -0.60376012325286865
vn 0.13676238059997559 0 -0.99060386419296265
vn -0.60372954607009888 0 -0.79718923568725586
vn -0.99060189723968506 0 -0.13677692413330078
vn -0.79716604948043823 0 0.60376012325286865
vn -0.13676238059997559 0 0.99060386419296265
vn 0.60372954607009888 0 0.79718923568725586
vn 0.99060189723968506 0 0.13677692413330078
vn 0.99060189723968506 0 -0.13677692413330078
vn 0.79716598987579346 0 0.60376012325286865
vn 0.13676238059997559 0 0.99060386419296265
vn -0.60372954607009888 0 0.79718923568725586
vn -0.99060189723968506 0 0.13677692413330078
vn -0.79716598987579346 0 -0.60376012325286865
vn -0.13676238059997559 0 -0.99060386419296265
vn 0.60372954607009888 0 -0.79718923568725586
vn 0.79720550775527954 0.60370808839797974 0
vn 0.13675567507743835 0.99060481786727905 0
vn -0.6037449836730957 0.79717755317687988 0
vn -0.99060720205307007 0.13673807680606842 0
vn -0.79720550775527954 -0.60370808839797974 0
vn -0.13675567507743835 -0.99060481786727905 0
vn 0.6037449836730957 -0.79717755317687988 0
vn 0.99060720205307007 -0.13673807680606842 0
vn 0.99060720205307007 0.13673807680606842 0
vn 0.79720550775527954 -0.60370808839797974 0
vn 0.13675567507743835 -0.99060481786727905 0
vn -0.6037449836730957 -0.79717755317687988 0
vn -0.99060720205307007 -0.13673807680606842 0
vn -0.79720550775527954 0.60370808839797974 0
vn -0.13675567507743835 0.99060481786727905 0
vn 0.6037449836730957 0.79717755317687988 0
vn -1 0 0
vn -1 0 0
vn -1 0 0
vn -1 0 0
vn -0.64421111345291138 -0.64409244060516357 -0.41247665882110596
vn -0.64421111345291138 -0.64409244060516357 0.41247665882110596
vn -1 0 0
vn -1 0 0
vn -1 0 0
vn -1 0 0
vn 0.78994297981262207 0.12511081993579865 0.60028111934661865
vn 0.97863364219665527 0.154960036277771 -0.13514328002929688
vn 0.1367461234331131 0.021665902808308601 0.99036914110183716
vn -0.59982949495315552 -0.094561249017715454 0.79452043771743774
vn -0.70151603221893311 -0.11046162247657776 -0.70404082536697388
vn -0.13674652576446533 -0.021532280370593071 -0.99037206172943115
vn 0.59975945949554443 0.095003068447113037 -0.79452067613601685
vn 0 1 0
vn 0 1 0
vn 0 1 0
vn 0 1 0
vn 0.41243806481361389 0.64412873983383179 -0.64419949054718018
vn -0.41243806481361389 0.64412873983383179 -0.64419949054718018
vn 0 1 0
vn 0 1 0
vn 0 1 0
vn 0 1 0
vn -0.60025155544281006 -0.78995966911315918 0.12514655292034149
vn 0.13506969809532166 -0.97860240936279297 0.15522094070911407
vn -0.99037110805511475 -0.13673959672451019 0.021619265899062157
vn -0.7945711612701416 0.59962201118469238 -0.095446713268756866
vn 0.70405071973800659 0.70129227638244629 -0.11181133985519409
vn 0.99036747217178345 0.13673655688762665 -0.021800771355628967
vn 0.79456955194473267 -0.5997195839881897 0.094845890998840332
vn -1 0 0
vn -1 0 0
vn -1 0 0
vn -1 0 0
vn -1 0 0
vn -1 0 0
vn -1 0 0
vn -1 0 0
vn 1 0 0
vn 1 0 0
vn 1 0 0
vn 1 0 0
vn 1 0 0
vn 1 0 0
vn 1 0 0
vn 1 0 0
vn 0 1 0
vn 0 1 0
vn 0 1 0
vn 0 1 0
vn 0 1 0
vn 0 1 0
vn 0 1 0
vn 0 1 0
vn 0 -1 0
vn 0 -1 0
vn 0 -1 0
vn 0 -1 0
vn 0 -1 0
vn 0 -1 0
vn 0 -1 0
vn 0 -1 0
vn 0 0 1
vn 0 0 1
vn 0 0 1
vn 0 0 1
vn 0 0 1
vn 0 0 1
vn 0 0 1
vn 0 0 1
vn 0 0 -1
vn 0 0 -1
vn 0 0 -1
vn 0 0 -1
vn 0 0 -1
vn 0 0 -1
vn 0 0 -1
vn 0 0 -1
# 216 elements written
f 135//135 136//136 137//137 
f 135//135 137//137 138//138 
f 135//135 138//138 141//141 
f 135//135 141//141 142//142 
f 135//135 142//142 143//143 
f 135//135 143//143 144//144 
f 8//8 7//7 9//9 
f 8//8 9//9 10//10 
f 7//7 6//6 11//11 
f 7//7 11//11 9//9 
f 6//6 5//5 12//12 
f 6//6 12//12 11//11 
f 5//5 140//140 12//12 
f 139//139 3//3 13//13 
f 3//3 2//2 14//14 
f 3//3 14//14 13//13 
f 2//2 1//1 15//15 
f 2//2 15//15 14//14 
f 1//1 8//8 10//10 
f 1//1 10//10 15//15 
f 10//10 9//9 16//16 
f 10//10 16//16 17//17 
f 9//9 11//11 18//18 
f 9//9 18//18 16//16 
f 11//11 12//12 19//19 
f 11//11 19//19 18//18 
f 12//12 140//140 19//19 
f 139//139 13//13 20//20 
f 13//13 14//14 21//21 
f 13//13 21//21 20//20 
f 14//14 15//15 22//22 
f 14//14 22//22 21//21 
f 15//15 10//10 17//17 
f 15//15 17//17 22//22 
f 17//17 16//16 23//23 
f 17//17 23//23 24//24 
f 16//16 18//18 25//25 
f 16//16 25//25 23//23 
f 18//18 19//19 26//26 
f 18//18 26//26 25//25 
f 19//19 140//140 26//26 
f 139//139 20//20 27//27 
f 20//20 21//21 28//28 
f 20//20 28//28 27//27 
f 21//21 22//22 29//29 
f 21//21 29//29 28//28 
f 22//22 17//17 24//24 
f 22//22 24//24 29//29 
f 24//24 23//23 30//30 
f 24//24 30//30 31//31 
f 23//23 25//25 32//32 
f 23//23 32//32 30//30 
f 25//25 26//26 33//33 
f 25//25 33//33 32//32 
f 26//26 140//140 33//33 
f 139//139 27//27 34//34 
f 27//27 28//28 35//35 
f 27//27 35//35 34//34 
f 28//28 29//29 36//36 
f 28//28 36//36 35//35 
f 29//29 24//24 31//31 
f 29//29 31//31 36//36 
f 31//31 30//30 145//145 
f 31//31 145//145 146//146 
f 30//30 32//32 147//147 
f 30//30 147//147 145//145 
f 32//32 33//33 148//148 
f 32//32 148//148 147//147 
f 33//33 140//140 148//148 
f 139//139 34//34 149//149 
f 34//34 35//35 150//150 
f 34//34 150//150 149//149 
f 35//35 36//36 151//151 
f 35//35 151//151 150//150 
f 36//36 31//31 146//146 
f 36//36 146//146 151//151 
f 38//38 37//37 39//39 
f 38//38 39//39 40//40 
f 38//38 40//40 4//4 
f 38//38 4//4 41//41 
f 38//38 41//41 42//42 
f 38//38 42//42 43//43 
f 152//152 153//153 154//154 
f 152//152 154//154 155//155 
f 152//152 155//155 158//158 
f 152//152 158//158 159//159 
f 152//152 159//159 160//160 
f 152//152 160//160 161//161 
f 51//51 50//50 52//52 
f 51//51 52//52 53//53 
f 50//50 49//49 54//54 
f 50//50 54//54 52//52 
f 49//49 48//48 55//55 
f 49//49 55//55 54//54 
f 48//48 157//157 55//55 
f 156//156 46//46 56//56 
f 46//46 45//45 57//57 
f 46//46 57//57 56//56 
f 45//45 44//44 58//58 
f 45//45 58//58 57//57 
f 44//44 51//51 53//53 
f 44//44 53//53 58//58 
f 53//53 52//52 59//59 
f 53//53 59//59 60//60 
f 52//52 54//54 61//61 
f 52//52 61//61 59//59 
f 54//54 55//55 62//62 
f 54//54 62//62 61//61 
f 55//55 157//157 62//62 
f 156//156 56//56 63//63 
f 56//56 57//57 64//64 
f 56//56 64//64 63//63 
f 57//57 58//58 65//65 
f 57//57 65//65 64//64 
f 58//58 53//53 60//60 
f 58//58 60//60 65//65 
f 60//60 59//59 66//66 
f 60//60 66//66 67//67 
f 59//59 61//61 68//68 
f 59//59 68//68 66//66 
f 61//61 62//62 69//69 
f 61//61 69//69 68//68 
f 62//62 157//157 69//69 
f 156//156 63//63 70//70 
f 63//63 64//64 71//71 
f 63//63 71//71 70//70 
f 64//64 65//65 72//72 
f 64//64 72//72 71//71 
f 65//65 60//60 67//67 
f 65//65 67//67 72//72 
f 67//67 66//66 73//73 
f 67//67 73//73 74//74 
f 66//66 68//68 75//75 
f 66//66 75//75 73//73 
f 68//68 69//69 76//76 
f 68//68 76//76 75//75 
f 69//69 157//157 76//76 
f 156//156 70//70 77//77 
f 70//70 71//71 78//78 
f 70//70 78//78 77//77 
f 71//71 72//72 79//79 
f 71//71 79//79 78//78 
f 72//72 67//67 74//74 
f 72//72 74//74 79//79 
f 74//74 73//73 162//162 
f 74//74 162//162 163//163 
f 73//73 75//75 164//164 
f 73//73 164//164 162//162 
f 75//75 76//76 165//165 
f 75//75 165//165 164//164 
f 76//76 157//157 165//165 
f 156//156 77//77 166//166 
f 77//77 78//78 167//167 
f 77//77 167//167 166//166 
f 78//78 79//79 168//168 
f 78//78 168//168 167//167 
f 79//79 74//74 163//163 
f 79//79 163//163 168//168 
f 81//81 80//80 82//82 
f 81//81 82//82 83//83 
f 81//81 83//83 47//47 
f 81//81 47//47 84//84 
f 81//81 84//84 85//85 
f 81//81 85//85 86//86 
f 169//169 170//170 171//171 
f 169//169 171//171 172//172 
f 169//169 172//172 173//173 
f 169//169 173//173 174//174 
f 169//169 174//174 175//175 
f 169//169 175//175 176//176 
f 177//177 178//178 179//179 
f 177//177 179//179 180//180 
f 177//177 180//180 181//181 
f 177//177 181//181 182//182 
f 177//177 182//182 183//183 
f 177//177 183//183 184//184 
f 94//94 93//93 96//96 
f 94//94 96//96 95//95 
f 93//93 92//92 97//97 
f 93//93 97//97 96//96 
f 92//92 91//91 98//98 
f 92//92 98//98 97//97 
f 91//91 90//90 99//99 
f 91//91 99//99 98//98 
f 90//90 89//89 100//100 
f 90//90 100//100 99//99 
f 89//89 88//88 101//101 
f 89//89 101//101 100//100 
f 88//88 87//87 102//102 
f 88//88 102//102 101//101 
f 87//87 94//94 95//95 
f 87//87 95//95 102//102 
f 185//185 186//186 187//187 
f 185//185 187//187 188//188 
f 185//185 188//188 189//189 
f 185//185 189//189 190//190 
f 185//185 190//190 191//191 
f 185//185 191//191 192//192 
f 193//193 194//194 195//195 
f 193//193 195//195 196//196 
f 193//193 196//196 197//197 
f 193//193 197//197 198//198 
f 193//193 198//198 199//199 
f 193//193 199//199 200//200 
f 110//110 109//109 112//112 
f 110//110 112//112 111//111 
f 109//109 108//108 113//113 
f 109//109 113//113 112//112 
f 108//108 107//107 114//114 
f 108//108 114//114 113//113 
f 107//107 106//106 115//115 
f 107//107 115//115 114//114 
f 106//106 105//105 116//116 
f 106//106 116//116 115//115 
f 105//105 104//104 117//117 
f 105//105 117//117 116//116 
f 104//104 103//103 118//118 
f 104//104 118//118 117//117 
f 103//103 110//110 111//111 
f 103//103 111//111 118//118 
f 201//201 202//202 203//203 
f 201//201 203//203 204//204 
f 201//201 204//204 205//205 
f 201//201 205//205 206//206 
f 201//201 206//206 207//207 
f 201//201 207//207 208//208 
f 209//209 210//210 211//211 
f 209//209 211//211 212//212 
f 209//209 212//212 213//213 
f 209//209 213//213 214//214 
f 209//209 214//214 215//215 
f 209//209 215//215 216//216 
f 126//126 125//125 128//128 
f 126//126 128//128 127//127 
f 125//125 124//124 129//129 
f 125//125 129//129 128//128 
f 124//124 123//123 130//130 
f 124//124 130//130 129//129 
f 123//123 122//122 131//131 
f 123//123 131//131 130//130 
f 122//122 121//121 132//132 
f 122//122 132//132 131//131 
f 121//121 120//120 133//133 
f 121//121 133//133 132//132 
f 120//120 119//119 134//134 
f 120//120 134//134 133//133 
f 119//119 126//126 127//127 
f 119//119 127//127 134//134 
