# file written by OpenSceneGraph

mtllib g6.mtl


o _Geometry_0

v 515.697998046875 83157.796875 3195.697998046875
v 500 83157.796875 3202.199951171875
v 484.302001953125 83157.796875 3195.697998046875
v 477.79998779296875 83157.796875 3180
v 484.302001953125 83157.796875 3164.302001953125
v 500 83157.796875 3157.800048828125
v 515.697998046875 83157.796875 3164.302001953125
v 522.20001220703125 83157.796875 3180
v 513.843017578125 83169.5078125 3164.302001953125
v 520.0269775390625 83171.5234375 3180
v 498.91299438476562 83164.6640625 3157.800048828125
v 483.9840087890625 83159.8125 3164.302001953125
v 483.9840087890625 83159.8125 3195.697998046875
v 498.91299438476562 83164.6640625 3202.199951171875
v 513.843017578125 83169.5078125 3195.697998046875
v 508.45999145507812 83180.078125 3164.302001953125
v 513.719970703125 83183.8984375 3180
v 495.760009765625 83170.8515625 3157.800048828125
v 483.05999755859375 83161.625 3164.302001953125
v 483.05999755859375 83161.625 3195.697998046875
v 495.760009765625 83170.8515625 3202.199951171875
v 508.45999145507812 83180.078125 3195.697998046875
v 500.07598876953125 83188.4609375 3164.302001953125
v 503.89801025390625 83193.71875 3180
v 490.8489990234375 83175.7578125 3157.800048828125
v 481.62200927734375 83163.0625 3164.302001953125
v 481.62200927734375 83163.0625 3195.697998046875
v 490.8489990234375 83175.7578125 3202.199951171875
v 500.07598876953125 83188.4609375 3195.697998046875
v 489.510986328125 83193.84375 3164.302001953125
v 491.51998901367188 83200.0234375 3180
v 484.66000366210938 83178.9140625 3157.800048828125
v 479.80899047851562 83163.984375 3164.302001953125
v 479.80899047851562 83163.984375 3195.697998046875
v 484.66000366210938 83178.9140625 3202.199951171875
v 489.510986328125 83193.84375 3195.697998046875
v 477.79998779296875 83195.6953125 3164.302001953125
v 477.79998779296875 83202.203125 3180
v 477.79998779296875 83180 3157.800048828125
v 477.79998779296875 83164.3046875 3164.302001953125
v 477.79998779296875 83164.3046875 3195.697998046875
v 477.79998779296875 83180 3202.199951171875
v 477.79998779296875 83195.6953125 3195.697998046875
v 511.80899047851562 82980 3191.80908203125
v 500 82980 3196.699951171875
v 488.19100952148438 82980 3191.80908203125
v 483.29998779296875 82980 3180
v 488.19100952148438 82980 3168.19091796875
v 500 82980 3163.300048828125
v 511.80899047851562 82980 3168.19091796875
v 516.70001220703125 82980 3180
v 516.70001220703125 83157.796875 3180
v 511.80899047851562 83157.796875 3168.19091796875
v 500 83157.796875 3163.300048828125
v 488.19100952148438 83157.796875 3168.19091796875
v 483.29998779296875 83157.796875 3180
v 488.19100952148438 83157.796875 3191.80908203125
v 500 83157.796875 3196.699951171875
v 511.80899047851562 83157.796875 3191.80908203125
v 477.79998779296875 83191.8125 3168.19091796875
v 477.79998779296875 83196.703125 3180
v 477.79998779296875 83191.8125 3191.80908203125
v 477.79998779296875 83180 3196.699951171875
v 477.79998779296875 83168.1875 3191.80908203125
v 477.79998779296875 83163.296875 3180
v 477.79998779296875 83168.1875 3168.19091796875
v 477.79998779296875 83180 3163.300048828125
v -13053 83180 3163.300048828125
v -13053 83168.1875 3168.19091796875
v -13053 83163.296875 3180
v -13053 83168.1875 3191.80908203125
v -13053 83180 3196.699951171875
v -13053 83191.8125 3191.80908203125
v -13053 83196.703125 3180
v -13053 83191.8125 3168.19091796875
v 515.697998046875 83157.796875 3195.697998046875
v 500 83157.796875 3202.199951171875
v 484.302001953125 83157.796875 3195.697998046875
v 477.79998779296875 83157.796875 3180
v 477.79998779296875 83157.796875 3180
v 477.79998779296875 83157.796875 3180
v 484.302001953125 83157.796875 3164.302001953125
v 500 83157.796875 3157.800048828125
v 515.697998046875 83157.796875 3164.302001953125
v 522.20001220703125 83157.796875 3180
v 477.79998779296875 83195.6953125 3164.302001953125
v 477.79998779296875 83202.203125 3180
v 477.79998779296875 83180 3157.800048828125
v 477.79998779296875 83164.3046875 3164.302001953125
v 477.79998779296875 83164.3046875 3195.697998046875
v 477.79998779296875 83180 3202.199951171875
v 477.79998779296875 83195.6953125 3195.697998046875
v 511.80899047851562 82980 3191.80908203125
v 500 82980 3196.699951171875
v 488.19100952148438 82980 3191.80908203125
v 483.29998779296875 82980 3180
v 488.19100952148438 82980 3168.19091796875
v 500 82980 3163.300048828125
v 511.80899047851562 82980 3168.19091796875
v 516.70001220703125 82980 3180
v 516.70001220703125 83157.796875 3180
v 511.80899047851562 83157.796875 3168.19091796875
v 500 83157.796875 3163.300048828125
v 488.19100952148438 83157.796875 3168.19091796875
v 483.29998779296875 83157.796875 3180
v 488.19100952148438 83157.796875 3191.80908203125
v 500 83157.796875 3196.699951171875
v 511.80899047851562 83157.796875 3191.80908203125
v 477.79998779296875 83191.8125 3168.19091796875
v 477.79998779296875 83196.703125 3180
v 477.79998779296875 83191.8125 3191.80908203125
v 477.79998779296875 83180 3196.699951171875
v 477.79998779296875 83168.1875 3191.80908203125
v 477.79998779296875 83163.296875 3180
v 477.79998779296875 83168.1875 3168.19091796875
v 477.79998779296875 83180 3163.300048828125
v -13053 83180 3163.300048828125
v -13053 83168.1875 3168.19091796875
v -13053 83163.296875 3180
v -13053 83168.1875 3191.80908203125
v -13053 83180 3196.699951171875
v -13053 83191.8125 3191.80908203125
v -13053 83196.703125 3180
v -13053 83191.8125 3168.19091796875
# 124 elements written

vn 0.78995257616043091 0.12509739398956299 0.60027134418487549
vn 0.13674336671829224 0.021659759804606438 0.99036973714828491
vn -0.59980630874633789 -0.09469960629940033 0.79452145099639893
vn -1 0 0
vn -0.7014957070350647 -0.11067074537277222 -0.70402830839157104
vn -0.13674339652061462 -0.021573169156908989 -0.99037152528762817
vn 0.59976100921630859 0.094985827803611755 -0.7945215106010437
vn 0.97863566875457764 0.1549554318189621 -0.13513337075710297
vn 0.67592960596084595 0.20347842574119568 -0.70831888914108276
vn 0.95106416940689087 0.30899342894554138 5.8955570239049848e-06
vn 0.0067686145193874836 -0.020801186561584473 -0.99976074695587158
vn -0.61741119623184204 -0.18669228255748749 -0.76416569948196411
vn -0.6093098521232605 -0.21165578067302704 0.76416176557540894
vn -0.0067516337148845196 0.020823797211050987 0.99976038932800293
vn 0.6664741039276123 0.23259904980659485 0.70831483602523804
vn 0.57992434501647949 0.40245294570922852 -0.70832157135009766
vn 0.80899208784103394 0.58781951665878296 3.7632347812177613e-05
vn 0.012874339707195759 -0.017705591395497322 -0.99976038932800293
vn -0.52936959266662598 -0.36853203177452087 -0.76416748762130737
vn -0.51392662525177002 -0.38979142904281616 0.76416105031967163
vn -0.012858465313911438 0.017664706334471703 0.99976128339767456
vn 0.56199425458908081 0.42720267176628113 0.70827978849411011
vn 0.42720285058021545 0.56198328733444214 -0.70828843116760254
vn 0.58770948648452759 0.80907207727432251 1.9918408725061454e-05
vn 0.017708351835608482 -0.012917923741042614 -0.9997597336769104
vn -0.38940709829330444 -0.51420801877975464 -0.76416772603988647
vn -0.3682275116443634 -0.52956658601760864 0.76417779922485352
vn -0.017709892243146896 0.012803779914975166 0.99976116418838501
vn 0.40239837765693665 0.58002287149429321 0.70827192068099976
vn 0.2325618714094162 0.66656571626663208 -0.70824086666107178
vn 0.30907824635505676 0.95103657245635986 -6.2698294641450047e-05
vn 0.020711474120616913 -0.0067583187483251095 -0.99976271390914917
vn -0.21185512840747833 -0.60927921533584595 -0.76413100957870483
vn -0.18685826659202576 -0.61739993095397949 0.76413428783416748
vn -0.020757796242833138 0.0067422040738165379 0.99976181983947754
vn 0.20357055962085724 0.67591917514801025 0.70830231904983521
vn -1 0 0
vn -1 0 0
vn -1 0 0
vn -1 0 0
vn -1 0 0
vn -1 0 0
vn -1 0 0
vn 0.79718136787414551 0 0.60373991727828979
vn 0.13675785064697266 0 0.99060451984405518
vn -0.60373330116271973 0 0.79718637466430664
vn -0.99060404300689697 0 0.13676100969314575
vn -0.79718136787414551 0 -0.60373991727828979
vn -0.13675785064697266 0 -0.99060451984405518
vn 0.60373330116271973 0 -0.79718637466430664
vn 0.99060404300689697 0 -0.13676100969314575
vn 0.99060404300689697 0 0.13676100969314575
vn 0.79718136787414551 0 -0.60373991727828979
vn 0.13675785064697266 0 -0.99060451984405518
vn -0.60373330116271973 0 -0.79718637466430664
vn -0.99060404300689697 0 -0.13676100969314575
vn -0.79718136787414551 0 0.60373991727828979
vn -0.13675785064697266 0 0.99060451984405518
vn 0.60373330116271973 0 0.79718637466430664
vn 0 0.60368245840072632 -0.79722493886947632
vn 0 0.99060559272766113 -0.13675013184547424
vn 0 0.79717373847961426 0.60374993085861206
vn 0 0.13671799004077911 0.99061000347137451
vn 0 -0.60368245840072632 0.79722493886947632
vn 0 -0.99060559272766113 0.13675013184547424
vn 0 -0.79717373847961426 -0.60374993085861206
vn 0 -0.13671799004077911 -0.99061000347137451
vn 0 0.13671799004077911 -0.99061000347137451
vn 0 -0.60368245840072632 -0.79722493886947632
vn 0 -0.99060559272766113 -0.13675013184547424
vn 0 -0.79717379808425903 0.60374999046325684
vn 0 -0.13671799004077911 0.99061000347137451
vn 0 0.60368245840072632 0.79722493886947632
vn 0 0.99060559272766113 0.13675013184547424
vn 0 0.79717379808425903 -0.60374999046325684
vn 0 -1 0
vn 0 -1 0
vn 0 -1 0
vn 0 -1 0
vn -0.6441919207572937 -0.6441311240196228 0.41244623064994812
vn -0.64419186115264893 -0.6441311240196228 -0.41244623064994812
vn 0 -1 0
vn 0 -1 0
vn 0 -1 0
vn 0 -1 0
vn 0.12514570355415344 0.78995758295059204 -0.6002545952796936
vn 0.15522041916847229 0.97860223054885864 0.13507163524627686
vn 0.021619189530611038 0.13673980534076691 -0.99037104845046997
vn -0.09544709324836731 -0.59962034225463867 -0.79457235336303711
vn -0.11181271821260452 -0.70129019021987915 0.70405250787734985
vn -0.021801086142659187 -0.13673646748065948 0.99036753177642822
vn 0.09484485536813736 0.59971839189529419 0.79457056522369385
vn 0 -1 0
vn 0 -1 0
vn 0 -1 0
vn 0 -1 0
vn 0 -1 0
vn 0 -1 0
vn 0 -1 0
vn 0 -1 0
vn 0 1 0
vn 0 1 0
vn 0 1 0
vn 0 1 0
vn 0 1 0
vn 0 1 0
vn 0 1 0
vn 0 1 0
vn 1 0 0
vn 1 0 0
vn 1 0 0
vn 1 0 0
vn 1 0 0
vn 1 0 0
vn 1 0 0
vn 1 0 0
vn -1 0 0
vn -1 0 0
vn -1 0 0
vn -1 0 0
vn -1 0 0
vn -1 0 0
vn -1 0 0
vn -1 0 0
# 124 elements written
f 76//76 77//77 78//78 
f 76//76 78//78 79//79 
f 76//76 79//79 82//82 
f 76//76 82//82 83//83 
f 76//76 83//83 84//84 
f 76//76 84//84 85//85 
f 8//8 7//7 9//9 
f 8//8 9//9 10//10 
f 7//7 6//6 11//11 
f 7//7 11//11 9//9 
f 6//6 5//5 12//12 
f 6//6 12//12 11//11 
f 5//5 81//81 12//12 
f 80//80 3//3 13//13 
f 3//3 2//2 14//14 
f 3//3 14//14 13//13 
f 2//2 1//1 15//15 
f 2//2 15//15 14//14 
f 1//1 8//8 10//10 
f 1//1 10//10 15//15 
f 10//10 9//9 16//16 
f 10//10 16//16 17//17 
f 9//9 11//11 18//18 
f 9//9 18//18 16//16 
f 11//11 12//12 19//19 
f 11//11 19//19 18//18 
f 12//12 81//81 19//19 
f 80//80 13//13 20//20 
f 13//13 14//14 21//21 
f 13//13 21//21 20//20 
f 14//14 15//15 22//22 
f 14//14 22//22 21//21 
f 15//15 10//10 17//17 
f 15//15 17//17 22//22 
f 17//17 16//16 23//23 
f 17//17 23//23 24//24 
f 16//16 18//18 25//25 
f 16//16 25//25 23//23 
f 18//18 19//19 26//26 
f 18//18 26//26 25//25 
f 19//19 81//81 26//26 
f 80//80 20//20 27//27 
f 20//20 21//21 28//28 
f 20//20 28//28 27//27 
f 21//21 22//22 29//29 
f 21//21 29//29 28//28 
f 22//22 17//17 24//24 
f 22//22 24//24 29//29 
f 24//24 23//23 30//30 
f 24//24 30//30 31//31 
f 23//23 25//25 32//32 
f 23//23 32//32 30//30 
f 25//25 26//26 33//33 
f 25//25 33//33 32//32 
f 26//26 81//81 33//33 
f 80//80 27//27 34//34 
f 27//27 28//28 35//35 
f 27//27 35//35 34//34 
f 28//28 29//29 36//36 
f 28//28 36//36 35//35 
f 29//29 24//24 31//31 
f 29//29 31//31 36//36 
f 31//31 30//30 86//86 
f 31//31 86//86 87//87 
f 30//30 32//32 88//88 
f 30//30 88//88 86//86 
f 32//32 33//33 89//89 
f 32//32 89//89 88//88 
f 33//33 81//81 89//89 
f 80//80 34//34 90//90 
f 34//34 35//35 91//91 
f 34//34 91//91 90//90 
f 35//35 36//36 92//92 
f 35//35 92//92 91//91 
f 36//36 31//31 87//87 
f 36//36 87//87 92//92 
f 38//38 37//37 39//39 
f 38//38 39//39 40//40 
f 38//38 40//40 4//4 
f 38//38 4//4 41//41 
f 38//38 41//41 42//42 
f 38//38 42//42 43//43 
f 93//93 94//94 95//95 
f 93//93 95//95 96//96 
f 93//93 96//96 97//97 
f 93//93 97//97 98//98 
f 93//93 98//98 99//99 
f 93//93 99//99 100//100 
f 101//101 102//102 103//103 
f 101//101 103//103 104//104 
f 101//101 104//104 105//105 
f 101//101 105//105 106//106 
f 101//101 106//106 107//107 
f 101//101 107//107 108//108 
f 51//51 50//50 53//53 
f 51//51 53//53 52//52 
f 50//50 49//49 54//54 
f 50//50 54//54 53//53 
f 49//49 48//48 55//55 
f 49//49 55//55 54//54 
f 48//48 47//47 56//56 
f 48//48 56//56 55//55 
f 47//47 46//46 57//57 
f 47//47 57//57 56//56 
f 46//46 45//45 58//58 
f 46//46 58//58 57//57 
f 45//45 44//44 59//59 
f 45//45 59//59 58//58 
f 44//44 51//51 52//52 
f 44//44 52//52 59//59 
f 109//109 110//110 111//111 
f 109//109 111//111 112//112 
f 109//109 112//112 113//113 
f 109//109 113//113 114//114 
f 109//109 114//114 115//115 
f 109//109 115//115 116//116 
f 117//117 118//118 119//119 
f 117//117 119//119 120//120 
f 117//117 120//120 121//121 
f 117//117 121//121 122//122 
f 117//117 122//122 123//123 
f 117//117 123//123 124//124 
f 67//67 66//66 69//69 
f 67//67 69//69 68//68 
f 66//66 65//65 70//70 
f 66//66 70//70 69//69 
f 65//65 64//64 71//71 
f 65//65 71//71 70//70 
f 64//64 63//63 72//72 
f 64//64 72//72 71//71 
f 63//63 62//62 73//73 
f 63//63 73//73 72//72 
f 62//62 61//61 74//74 
f 62//62 74//74 73//73 
f 61//61 60//60 75//75 
f 61//61 75//75 74//74 
f 60//60 67//67 68//68 
f 60//60 68//68 75//75 
