# file written by OpenSceneGraph

mtllib g8.mtl


o _Geometry_0

v 484.302001953125 83157.796875 13674.3017578125
v 500 83157.796875 13667.7998046875
v 515.697998046875 83157.796875 13674.3017578125
v 522.20001220703125 83157.796875 13690
v 515.697998046875 83157.796875 13705.6982421875
v 500 83157.796875 13712.2001953125
v 484.302001953125 83157.796875 13705.6982421875
v 477.79998779296875 83157.796875 13690
v 486.15701293945312 83169.5078125 13705.6982421875
v 479.97299194335938 83171.5234375 13690
v 501.08700561523438 83164.6640625 13712.2001953125
v 516.0159912109375 83159.8125 13705.6982421875
v 516.0159912109375 83159.8125 13674.3017578125
v 501.08700561523438 83164.6640625 13667.7998046875
v 486.15701293945312 83169.5078125 13674.3017578125
v 491.54000854492188 83180.078125 13705.6982421875
v 486.27999877929688 83183.8984375 13690
v 504.239990234375 83170.8515625 13712.2001953125
v 516.94000244140625 83161.625 13705.6982421875
v 516.94000244140625 83161.625 13674.3017578125
v 504.239990234375 83170.8515625 13667.7998046875
v 491.54000854492188 83180.078125 13674.3017578125
v 499.92401123046875 83188.4609375 13705.6982421875
v 496.10198974609375 83193.71875 13690
v 509.1510009765625 83175.7578125 13712.2001953125
v 518.37799072265625 83163.0625 13705.6982421875
v 518.37799072265625 83163.0625 13674.3017578125
v 509.1510009765625 83175.7578125 13667.7998046875
v 499.92401123046875 83188.4609375 13674.3017578125
v 510.489013671875 83193.84375 13705.6982421875
v 508.48001098632812 83200.0234375 13690
v 515.34002685546875 83178.9140625 13712.2001953125
v 520.19097900390625 83163.984375 13705.6982421875
v 520.19097900390625 83163.984375 13674.3017578125
v 515.34002685546875 83178.9140625 13667.7998046875
v 510.489013671875 83193.84375 13674.3017578125
v 522.20001220703125 83195.6953125 13705.6982421875
v 522.20001220703125 83202.203125 13690
v 522.20001220703125 83180 13712.2001953125
v 522.20001220703125 83164.3046875 13705.6982421875
v 522.20001220703125 83164.3046875 13674.3017578125
v 522.20001220703125 83180 13667.7998046875
v 522.20001220703125 83195.6953125 13674.3017578125
v 511.80899047851562 82980 13701.80859375
v 500 82980 13706.7001953125
v 488.19100952148438 82980 13701.80859375
v 483.29998779296875 82980 13690
v 488.19100952148438 82980 13678.19140625
v 500 82980 13673.2998046875
v 511.80899047851562 82980 13678.19140625
v 516.70001220703125 82980 13690
v 516.70001220703125 83157.796875 13690
v 511.80899047851562 83157.796875 13678.19140625
v 500 83157.796875 13673.2998046875
v 488.19100952148438 83157.796875 13678.19140625
v 483.29998779296875 83157.796875 13690
v 488.19100952148438 83157.796875 13701.80859375
v 500 83157.796875 13706.7001953125
v 511.80899047851562 83157.796875 13701.80859375
v 522.20001220703125 83168.1875 13678.19140625
v 522.20001220703125 83163.296875 13690
v 522.20001220703125 83168.1875 13701.80859375
v 522.20001220703125 83180 13706.7001953125
v 522.20001220703125 83191.8125 13701.80859375
v 522.20001220703125 83196.703125 13690
v 522.20001220703125 83191.8125 13678.19140625
v 522.20001220703125 83180 13673.2998046875
v 8356 83180 13673.2998046875
v 8356 83191.8125 13678.19140625
v 8356 83196.703125 13690
v 8356 83191.8125 13701.80859375
v 8356 83180 13706.7001953125
v 8356 83168.1875 13701.80859375
v 8356 83163.296875 13690
v 8356 83168.1875 13678.19140625
v 484.302001953125 83157.796875 13674.3017578125
v 500 83157.796875 13667.7998046875
v 515.697998046875 83157.796875 13674.3017578125
v 522.20001220703125 83157.796875 13690
v 522.20001220703125 83157.796875 13690
v 522.20001220703125 83157.796875 13690
v 515.697998046875 83157.796875 13705.6982421875
v 500 83157.796875 13712.2001953125
v 484.302001953125 83157.796875 13705.6982421875
v 477.79998779296875 83157.796875 13690
v 522.20001220703125 83195.6953125 13705.6982421875
v 522.20001220703125 83202.203125 13690
v 522.20001220703125 83180 13712.2001953125
v 522.20001220703125 83164.3046875 13705.6982421875
v 522.20001220703125 83164.3046875 13674.3017578125
v 522.20001220703125 83180 13667.7998046875
v 522.20001220703125 83195.6953125 13674.3017578125
v 511.80899047851562 82980 13701.80859375
v 500 82980 13706.7001953125
v 488.19100952148438 82980 13701.80859375
v 483.29998779296875 82980 13690
v 488.19100952148438 82980 13678.19140625
v 500 82980 13673.2998046875
v 511.80899047851562 82980 13678.19140625
v 516.70001220703125 82980 13690
v 516.70001220703125 83157.796875 13690
v 511.80899047851562 83157.796875 13678.19140625
v 500 83157.796875 13673.2998046875
v 488.19100952148438 83157.796875 13678.19140625
v 483.29998779296875 83157.796875 13690
v 488.19100952148438 83157.796875 13701.80859375
v 500 83157.796875 13706.7001953125
v 511.80899047851562 83157.796875 13701.80859375
v 522.20001220703125 83168.1875 13678.19140625
v 522.20001220703125 83163.296875 13690
v 522.20001220703125 83168.1875 13701.80859375
v 522.20001220703125 83180 13706.7001953125
v 522.20001220703125 83191.8125 13701.80859375
v 522.20001220703125 83196.703125 13690
v 522.20001220703125 83191.8125 13678.19140625
v 522.20001220703125 83180 13673.2998046875
v 8356 83180 13673.2998046875
v 8356 83191.8125 13678.19140625
v 8356 83196.703125 13690
v 8356 83191.8125 13701.80859375
v 8356 83180 13706.7001953125
v 8356 83168.1875 13701.80859375
v 8356 83163.296875 13690
v 8356 83168.1875 13678.19140625
# 124 elements written

vn -0.78995394706726074 0.1250980943441391 -0.60026919841766357
vn -0.13674359023571014 0.021660150960087776 -0.99036961793899536
vn 0.59980767965316772 -0.094699807465076447 -0.79452049732208252
vn 1 0 0
vn 0.70149755477905273 -0.11067104339599609 0.70402640104293823
vn 0.13674339652061462 -0.021573169156908989 0.99037152528762817
vn -0.59976238012313843 0.094987243413925171 0.79452031850814819
vn -0.97863596677780151 0.15495488047599792 0.1351323276758194
vn -0.67593103647232056 0.20347854495048523 0.70831745862960815
vn -0.95106440782546997 0.30899277329444885 -5.6890694395406172e-06
vn -0.0067687658593058586 -0.02080095186829567 0.99976074695587158
vn 0.6174127459526062 -0.18669277429580688 0.76416438817977905
vn 0.60931134223937988 -0.21165631711483002 -0.76416045427322388
vn 0.0067513543181121349 0.02082371897995472 -0.99976038932800293
vn -0.66647529602050781 0.23259955644607544 -0.70831358432769775
vn -0.57992565631866455 0.40245321393013 0.7083202600479126
vn -0.80899202823638916 0.58781963586807251 -3.805610685958527e-05
vn -0.012874534353613853 -0.017705678939819336 0.99976038932800293
vn 0.52937090396881104 -0.36853295564651489 0.76416611671447754
vn 0.5139278769493103 -0.38979235291481018 -0.76415973901748657
vn 0.012858465313911438 0.017664706334471703 -0.99976128339767456
vn -0.56199580430984497 0.4272034764289856 -0.7082781195640564
vn -0.42720359563827515 0.56198489665985107 0.70828670263290405
vn -0.58770900964736938 0.80907231569290161 -2.0059629605384544e-05
vn -0.017707936465740204 -0.012917709536850452 0.99975979328155518
vn 0.38940966129302979 -0.51420819759368896 0.76416623592376709
vn 0.36823001503944397 -0.52956712245941162 -0.76417630910873413
vn 0.017709942534565926 0.012803704477846622 -0.99976116418838501
vn -0.40239942073822021 0.58002448081970215 -0.70827001333236694
vn -0.2325625866651535 0.66656744480133057 0.70823901891708374
vn -0.30907827615737915 0.95103657245635986 6.2703591538593173e-05
vn -0.020711565390229225 -0.0067585608921945095 0.99976259469985962
vn 0.21185660362243652 -0.60928022861480713 0.7641298770904541
vn 0.18686001002788544 -0.61740094423294067 -0.76413309574127197
vn 0.020758349448442459 0.0067421668209135532 -0.99976181983947754
vn -0.20357091724872589 0.67592102289199829 -0.70830047130584717
vn 1 0 0
vn 1 0 0
vn 1 0 0
vn 1 0 0
vn 1 0 0
vn 1 0 0
vn 1 0 0
vn 0.79718506336212158 0 0.60373497009277344
vn 0.13677796721458435 0 0.99060165882110596
vn -0.60375887155532837 0 0.79716688394546509
vn -0.99060326814651489 0 0.13676658272743225
vn -0.79718506336212158 0 -0.60373497009277344
vn -0.13677796721458435 0 -0.99060165882110596
vn 0.60375887155532837 0 -0.79716688394546509
vn 0.99060326814651489 0 -0.13676658272743225
vn 0.99060326814651489 0 0.13676658272743225
vn 0.79718512296676636 0 -0.60373497009277344
vn 0.13677796721458435 0 -0.99060165882110596
vn -0.60375893115997314 0 -0.79716694355010986
vn -0.99060326814651489 0 -0.13676658272743225
vn -0.79718512296676636 0 0.60373497009277344
vn -0.13677796721458435 0 0.99060165882110596
vn 0.60375893115997314 0 0.79716694355010986
vn 0 -0.60370808839797974 -0.79720550775527954
vn 0 -0.99060481786727905 -0.13675567507743835
vn 0 -0.79717749357223511 0.6037449836730957
vn 0 -0.13673809170722961 0.99060720205307007
vn 0 0.60370808839797974 0.79720550775527954
vn 0 0.99060481786727905 0.13675567507743835
vn 0 0.79717749357223511 -0.6037449836730957
vn 0 0.13673809170722961 -0.99060720205307007
vn 0 -0.13673809170722961 -0.99060720205307007
vn 0 0.60370808839797974 -0.79720550775527954
vn 0 0.99060481786727905 -0.13675567507743835
vn 0 0.79717755317687988 0.6037449836730957
vn 0 0.13673809170722961 0.99060720205307007
vn 0 -0.60370808839797974 0.79720550775527954
vn 0 -0.99060481786727905 0.13675567507743835
vn 0 -0.79717755317687988 -0.6037449836730957
vn 0 -1 0
vn 0 -1 0
vn 0 -1 0
vn 0 -1 0
vn 0.64419418573379517 -0.64413219690322876 -0.4124409556388855
vn 0.64419424533843994 -0.64413219690322876 0.4124409556388855
vn 0 -1 0
vn 0 -1 0
vn 0 -1 0
vn 0 -1 0
vn -0.12514607608318329 0.78995972871780396 0.60025155544281006
vn -0.15522046387195587 0.97860246896743774 -0.13506954908370972
vn -0.021619176492094994 0.13673976063728333 0.99037104845046997
vn 0.095446318387985229 -0.59962189197540283 0.79457128047943115
vn 0.11181133985519409 -0.70129227638244629 -0.70405071973800659
vn 0.021800762042403221 -0.13673651218414307 -0.99036753177642822
vn -0.09484514594078064 0.59971970319747925 -0.79456955194473267
vn 0 -1 0
vn 0 -1 0
vn 0 -1 0
vn 0 -1 0
vn 0 -1 0
vn 0 -1 0
vn 0 -1 0
vn 0 -1 0
vn 0 1 0
vn 0 1 0
vn 0 1 0
vn 0 1 0
vn 0 1 0
vn 0 1 0
vn 0 1 0
vn 0 1 0
vn -1 0 0
vn -1 0 0
vn -1 0 0
vn -1 0 0
vn -1 0 0
vn -1 0 0
vn -1 0 0
vn -1 0 0
vn 1 0 0
vn 1 0 0
vn 1 0 0
vn 1 0 0
vn 1 0 0
vn 1 0 0
vn 1 0 0
vn 1 0 0
# 124 elements written
f 76//76 77//77 78//78 
f 76//76 78//78 79//79 
f 76//76 79//79 82//82 
f 76//76 82//82 83//83 
f 76//76 83//83 84//84 
f 76//76 84//84 85//85 
f 8//8 7//7 9//9 
f 8//8 9//9 10//10 
f 7//7 6//6 11//11 
f 7//7 11//11 9//9 
f 6//6 5//5 12//12 
f 6//6 12//12 11//11 
f 5//5 81//81 12//12 
f 80//80 3//3 13//13 
f 3//3 2//2 14//14 
f 3//3 14//14 13//13 
f 2//2 1//1 15//15 
f 2//2 15//15 14//14 
f 1//1 8//8 10//10 
f 1//1 10//10 15//15 
f 10//10 9//9 16//16 
f 10//10 16//16 17//17 
f 9//9 11//11 18//18 
f 9//9 18//18 16//16 
f 11//11 12//12 19//19 
f 11//11 19//19 18//18 
f 12//12 81//81 19//19 
f 80//80 13//13 20//20 
f 13//13 14//14 21//21 
f 13//13 21//21 20//20 
f 14//14 15//15 22//22 
f 14//14 22//22 21//21 
f 15//15 10//10 17//17 
f 15//15 17//17 22//22 
f 17//17 16//16 23//23 
f 17//17 23//23 24//24 
f 16//16 18//18 25//25 
f 16//16 25//25 23//23 
f 18//18 19//19 26//26 
f 18//18 26//26 25//25 
f 19//19 81//81 26//26 
f 80//80 20//20 27//27 
f 20//20 21//21 28//28 
f 20//20 28//28 27//27 
f 21//21 22//22 29//29 
f 21//21 29//29 28//28 
f 22//22 17//17 24//24 
f 22//22 24//24 29//29 
f 24//24 23//23 30//30 
f 24//24 30//30 31//31 
f 23//23 25//25 32//32 
f 23//23 32//32 30//30 
f 25//25 26//26 33//33 
f 25//25 33//33 32//32 
f 26//26 81//81 33//33 
f 80//80 27//27 34//34 
f 27//27 28//28 35//35 
f 27//27 35//35 34//34 
f 28//28 29//29 36//36 
f 28//28 36//36 35//35 
f 29//29 24//24 31//31 
f 29//29 31//31 36//36 
f 31//31 30//30 86//86 
f 31//31 86//86 87//87 
f 30//30 32//32 88//88 
f 30//30 88//88 86//86 
f 32//32 33//33 89//89 
f 32//32 89//89 88//88 
f 33//33 81//81 89//89 
f 80//80 34//34 90//90 
f 34//34 35//35 91//91 
f 34//34 91//91 90//90 
f 35//35 36//36 92//92 
f 35//35 92//92 91//91 
f 36//36 31//31 87//87 
f 36//36 87//87 92//92 
f 38//38 37//37 39//39 
f 38//38 39//39 40//40 
f 38//38 40//40 4//4 
f 38//38 4//4 41//41 
f 38//38 41//41 42//42 
f 38//38 42//42 43//43 
f 93//93 94//94 95//95 
f 93//93 95//95 96//96 
f 93//93 96//96 97//97 
f 93//93 97//97 98//98 
f 93//93 98//98 99//99 
f 93//93 99//99 100//100 
f 101//101 102//102 103//103 
f 101//101 103//103 104//104 
f 101//101 104//104 105//105 
f 101//101 105//105 106//106 
f 101//101 106//106 107//107 
f 101//101 107//107 108//108 
f 51//51 50//50 53//53 
f 51//51 53//53 52//52 
f 50//50 49//49 54//54 
f 50//50 54//54 53//53 
f 49//49 48//48 55//55 
f 49//49 55//55 54//54 
f 48//48 47//47 56//56 
f 48//48 56//56 55//55 
f 47//47 46//46 57//57 
f 47//47 57//57 56//56 
f 46//46 45//45 58//58 
f 46//46 58//58 57//57 
f 45//45 44//44 59//59 
f 45//45 59//59 58//58 
f 44//44 51//51 52//52 
f 44//44 52//52 59//59 
f 109//109 110//110 111//111 
f 109//109 111//111 112//112 
f 109//109 112//112 113//113 
f 109//109 113//113 114//114 
f 109//109 114//114 115//115 
f 109//109 115//115 116//116 
f 117//117 118//118 119//119 
f 117//117 119//119 120//120 
f 117//117 120//120 121//121 
f 117//117 121//121 122//122 
f 117//117 122//122 123//123 
f 117//117 123//123 124//124 
f 67//67 66//66 69//69 
f 67//67 69//69 68//68 
f 66//66 65//65 70//70 
f 66//66 70//70 69//69 
f 65//65 64//64 71//71 
f 65//65 71//71 70//70 
f 64//64 63//63 72//72 
f 64//64 72//72 71//71 
f 63//63 62//62 73//73 
f 63//63 73//73 72//72 
f 62//62 61//61 74//74 
f 62//62 74//74 73//73 
f 61//61 60//60 75//75 
f 61//61 75//75 74//74 
f 60//60 67//67 68//68 
f 60//60 68//68 75//75 
