# file written by OpenSceneGraph

mtllib g2.mtl


o _Geometry_0

v -5875 59965.07421875 -2034.926025390625
v -5875 59743.5 -1500
v -5875 59965.07421875 -965.073974609375
v -5875 60500 -743.5
v -5875 61034.92578125 -965.073974609375
v -5875 61256.5 -1500
v -5875 61034.92578125 -2034.926025390625
v -5875 60500 -2256.5
v -2125 60500 -2256.5
v -2125 61034.92578125 -2034.926025390625
v -2125 61256.5 -1500
v -2125 61034.92578125 -965.073974609375
v -2125 60500 -743.5
v -2125 59965.07421875 -965.073974609375
v -2125 59743.5 -1500
v -2125 59965.07421875 -2034.926025390625
v -2998.222900390625 61121.99609375 -1323.2230224609375
v -3175 61121.99609375 -1250
v -3351.777099609375 61121.99609375 -1323.2230224609375
v -3425 61121.99609375 -1500
v -3351.777099609375 61121.99609375 -1676.7769775390625
v -3175 61121.99609375 -1750
v -2998.222900390625 61121.99609375 -1676.7769775390625
v -2925 61121.99609375 -1500
v -2925 61506.50390625 -1500
v -2998.222900390625 61506.50390625 -1676.7769775390625
v -3175 61506.50390625 -1750
v -3351.777099609375 61506.50390625 -1676.7769775390625
v -3425 61506.50390625 -1500
v -3351.777099609375 61506.50390625 -1323.2230224609375
v -3175 61506.50390625 -1250
v -2998.222900390625 61506.50390625 -1323.2230224609375
v -2962.867919921875 61506.51171875 -1287.8680419921875
v -3175 61506.51171875 -1200
v -3387.132080078125 61506.51171875 -1287.8680419921875
v -3475 61506.51171875 -1500
v -3387.132080078125 61506.51171875 -1712.1319580078125
v -3175 61506.51171875 -1800
v -2962.867919921875 61506.51171875 -1712.1319580078125
v -2875 61506.51171875 -1500
v -2875 61556.51171875 -1500
v -2962.867919921875 61556.51171875 -1712.1319580078125
v -3175 61556.51171875 -1800
v -3387.132080078125 61556.51171875 -1712.1319580078125
v -3475 61556.51171875 -1500
v -3387.132080078125 61556.51171875 -1287.8680419921875
v -3175 61556.51171875 -1200
v -2962.867919921875 61556.51171875 -1287.8680419921875
v -1994.3719482421875 60952.09765625 -1952.0980224609375
v -1994.3719482421875 60500 -2139.363037109375
v -1994.3719482421875 61139.36328125 -1500
v -1994.3719482421875 60952.09765625 -1047.9019775390625
v -1994.3719482421875 60500 -860.63702392578125
v -1994.3719482421875 60047.90234375 -1047.9019775390625
v -1994.3719482421875 59860.63671875 -1500
v -1994.3719482421875 60047.90234375 -1952.0980224609375
v -1887.7459716796875 60853.5703125 -1853.5689697265625
v -1887.7459716796875 60500 -2000.02294921875
v -1887.7459716796875 61000.0234375 -1500
v -1887.7459716796875 60853.5703125 -1146.4310302734375
v -1887.7459716796875 60500 -999.97698974609375
v -1887.7459716796875 60146.4296875 -1146.4310302734375
v -1887.7459716796875 59999.9765625 -1500
v -1887.7459716796875 60146.4296875 -1853.5689697265625
v -1808.824951171875 60742.76171875 -1742.762939453125
v -1808.824951171875 60500 -1843.3189697265625
v -1808.824951171875 60843.3203125 -1500
v -1808.824951171875 60742.76171875 -1257.237060546875
v -1808.824951171875 60500 -1156.6810302734375
v -1808.824951171875 60257.23828125 -1257.237060546875
v -1808.824951171875 60156.6796875 -1500
v -1808.824951171875 60257.23828125 -1742.762939453125
v -1760.3480224609375 60623.52734375 -1623.5260009765625
v -1760.3480224609375 60500 -1674.6929931640625
v -1760.3480224609375 60674.69140625 -1500
v -1760.3480224609375 60623.52734375 -1376.4739990234375
v -1760.3480224609375 60500 -1325.3070068359375
v -1760.3480224609375 60376.47265625 -1376.4739990234375
v -1760.3480224609375 60325.30859375 -1500
v -1760.3480224609375 60376.47265625 -1623.5260009765625
v -1744 60500 -1500
v -6005.6279296875 60047.90234375 -1952.0980224609375
v -6005.6279296875 60500 -2139.363037109375
v -6005.6279296875 59860.63671875 -1500
v -6005.6279296875 60047.90234375 -1047.9019775390625
v -6005.6279296875 60500 -860.63702392578125
v -6005.6279296875 60952.09765625 -1047.9019775390625
v -6005.6279296875 61139.36328125 -1500
v -6005.6279296875 60952.09765625 -1952.0980224609375
v -6112.25390625 60146.4296875 -1853.5689697265625
v -6112.25390625 60500 -2000.02294921875
v -6112.25390625 59999.9765625 -1500
v -6112.25390625 60146.4296875 -1146.4310302734375
v -6112.25390625 60500 -999.97698974609375
v -6112.25390625 60853.5703125 -1146.4310302734375
v -6112.25390625 61000.0234375 -1500
v -6112.25390625 60853.5703125 -1853.5689697265625
v -6191.1748046875 60257.23828125 -1742.762939453125
v -6191.1748046875 60500 -1843.3189697265625
v -6191.1748046875 60156.6796875 -1500
v -6191.1748046875 60257.23828125 -1257.237060546875
v -6191.1748046875 60500 -1156.6810302734375
v -6191.1748046875 60742.76171875 -1257.237060546875
v -6191.1748046875 60843.3203125 -1500
v -6191.1748046875 60742.76171875 -1742.762939453125
v -6239.65185546875 60376.47265625 -1623.5260009765625
v -6239.65185546875 60500 -1674.6929931640625
v -6239.65185546875 60325.30859375 -1500
v -6239.65185546875 60376.47265625 -1376.4739990234375
v -6239.65185546875 60500 -1325.3070068359375
v -6239.65185546875 60623.52734375 -1376.4739990234375
v -6239.65185546875 60674.69140625 -1500
v -6239.65185546875 60623.52734375 -1623.5260009765625
v -6256 60500 -1500
v -5590 59545 -925
v -5590 59545 -2075
v -5410 59545 -2075
v -5410 59545 -925
v -5410 60295 -850
v -5590 60295 -850
v -5410 60295 -2150
v -5590 60295 -2150
v -2590 59545 -925
v -2590 59545 -2075
v -2410 59545 -2075
v -2410 59545 -925
v -2410 60295 -850
v -2590 60295 -850
v -2410 60295 -2150
v -2590 60295 -2150
v -5875 59965.07421875 -2034.926025390625
v -5875 59965.07421875 -2034.926025390625
v -5875 59743.5 -1500
v -5875 59743.5 -1500
v -5875 59965.07421875 -965.073974609375
v -5875 59965.07421875 -965.073974609375
v -5875 60500 -743.5
v -5875 60500 -743.5
v -5875 61034.92578125 -965.073974609375
v -5875 61034.92578125 -965.073974609375
v -5875 61256.5 -1500
v -5875 61256.5 -1500
v -5875 61034.92578125 -2034.926025390625
v -5875 61034.92578125 -2034.926025390625
v -5875 60500 -2256.5
v -5875 60500 -2256.5
v -2125 60500 -2256.5
v -2125 60500 -2256.5
v -2125 61034.92578125 -2034.926025390625
v -2125 61034.92578125 -2034.926025390625
v -2125 61256.5 -1500
v -2125 61256.5 -1500
v -2125 61034.92578125 -965.073974609375
v -2125 61034.92578125 -965.073974609375
v -2125 60500 -743.5
v -2125 60500 -743.5
v -2125 59965.07421875 -965.073974609375
v -2125 59965.07421875 -965.073974609375
v -2125 59743.5 -1500
v -2125 59743.5 -1500
v -2125 59965.07421875 -2034.926025390625
v -2125 59965.07421875 -2034.926025390625
v -2998.222900390625 61121.99609375 -1323.2230224609375
v -3175 61121.99609375 -1250
v -3351.777099609375 61121.99609375 -1323.2230224609375
v -3425 61121.99609375 -1500
v -3351.777099609375 61121.99609375 -1676.7769775390625
v -3175 61121.99609375 -1750
v -2998.222900390625 61121.99609375 -1676.7769775390625
v -2925 61121.99609375 -1500
v -2925 61506.50390625 -1500
v -2998.222900390625 61506.50390625 -1676.7769775390625
v -3175 61506.50390625 -1750
v -3351.777099609375 61506.50390625 -1676.7769775390625
v -3425 61506.50390625 -1500
v -3351.777099609375 61506.50390625 -1323.2230224609375
v -3175 61506.50390625 -1250
v -2998.222900390625 61506.50390625 -1323.2230224609375
v -2962.867919921875 61506.51171875 -1287.8680419921875
v -3175 61506.51171875 -1200
v -3387.132080078125 61506.51171875 -1287.8680419921875
v -3475 61506.51171875 -1500
v -3387.132080078125 61506.51171875 -1712.1319580078125
v -3175 61506.51171875 -1800
v -2962.867919921875 61506.51171875 -1712.1319580078125
v -2875 61506.51171875 -1500
v -2875 61556.51171875 -1500
v -2962.867919921875 61556.51171875 -1712.1319580078125
v -3175 61556.51171875 -1800
v -3387.132080078125 61556.51171875 -1712.1319580078125
v -3475 61556.51171875 -1500
v -3387.132080078125 61556.51171875 -1287.8680419921875
v -3175 61556.51171875 -1200
v -2962.867919921875 61556.51171875 -1287.8680419921875
v -5590 59545 -925
v -5590 59545 -925
v -5590 59545 -2075
v -5590 59545 -2075
v -5410 59545 -2075
v -5410 59545 -2075
v -5410 59545 -925
v -5410 59545 -925
v -5410 60295 -850
v -5410 60295 -850
v -5590 60295 -850
v -5590 60295 -850
v -5410 60295 -2150
v -5410 60295 -2150
v -5590 60295 -2150
v -5590 60295 -2150
v -2590 59545 -925
v -2590 59545 -925
v -2590 59545 -2075
v -2590 59545 -2075
v -2410 59545 -2075
v -2410 59545 -2075
v -2410 59545 -925
v -2410 59545 -925
v -2410 60295 -850
v -2410 60295 -850
v -2590 60295 -850
v -2590 60295 -850
v -2410 60295 -2150
v -2410 60295 -2150
v -2590 60295 -2150
v -2590 60295 -2150
# 226 elements written

vn -0.36338862776756287 -0.64684766530990601 -0.67047500610351562
vn -0.36338898539543152 -0.93148773908615112 -0.016707094386219978
vn -0.36338883638381958 -0.67047476768493652 0.64684772491455078
vn -0.36338931322097778 -0.016707178205251694 0.9314875602722168
vn -0.36338862776756287 0.64684766530990601 0.67047500610351562
vn -0.36338898539543152 0.93148773908615112 0.016707094386219978
vn -0.36338880658149719 0.6704748272895813 -0.64684784412384033
vn -0.36338922381401062 0.016707167029380798 -0.9314875602722168
vn 0.36338901519775391 -0.016707137227058411 -0.93148767948150635
vn 0.36338841915130615 0.64684772491455078 -0.67047512531280518
vn 0.36338868737220764 0.9314877986907959 -0.016707073897123337
vn 0.36338868737220764 0.6704748272895813 0.64684790372848511
vn 0.36338910460472107 0.016707155853509903 0.93148767948150635
vn 0.36338841915130615 -0.64684772491455078 0.67047512531280518
vn 0.36338868737220764 -0.9314877986907959 0.016707073897123337
vn 0.36338862776756287 -0.6704748272895813 -0.64684784412384033
vn 0.7971758246421814 0 0.60374718904495239
vn 0.13677281141281128 0 0.99060243368148804
vn -0.60374742746353149 0 0.79717558622360229
vn -0.99060243368148804 0 0.13677266240119934
vn -0.7971758246421814 0 -0.60374718904495239
vn -0.13677281141281128 0 -0.99060243368148804
vn 0.60374742746353149 0 -0.79717558622360229
vn 0.99060243368148804 0 -0.13677266240119934
vn 0.99060243368148804 0 0.13677266240119934
vn 0.7971758246421814 0 -0.60374718904495239
vn 0.13677281141281128 0 -0.99060243368148804
vn -0.60374742746353149 0 -0.79717558622360229
vn -0.99060243368148804 0 -0.13677266240119934
vn -0.7971758246421814 0 0.60374718904495239
vn -0.13677281141281128 0 0.99060243368148804
vn 0.60374742746353149 0 0.79717558622360229
vn 0.79717528820037842 0 0.60374796390533447
vn 0.1367737352848053 0 0.99060231447219849
vn -0.60374826192855835 0 0.79717504978179932
vn -0.99060231447219849 0 0.13677361607551575
vn -0.79717528820037842 0 -0.60374796390533447
vn -0.1367737352848053 0 -0.99060231447219849
vn 0.60374826192855835 0 -0.79717504978179932
vn 0.99060231447219849 0 -0.13677361607551575
vn 0.99060231447219849 0 0.13677361607551575
vn 0.79717528820037842 0 -0.60374796390533447
vn 0.1367737352848053 0 -0.99060231447219849
vn -0.60374826192855835 0 -0.79717504978179932
vn -0.99060231447219849 0 -0.13677361607551575
vn -0.79717528820037842 0 0.60374796390533447
vn -0.1367737352848053 0 0.99060231447219849
vn 0.60374826192855835 0 0.79717504978179932
vn 0.73451918363571167 0.47357448935508728 -0.48601308465003967
vn 0.7345198392868042 -0.008795667439699173 -0.67853027582168579
vn 0.73451912403106689 0.67853105068206787 -0.0087956013157963753
vn 0.73451912403106689 0.48601317405700684 0.47357445955276489
vn 0.73451977968215942 0.008795643225312233 0.67853027582168579
vn 0.73451930284500122 -0.47357439994812012 0.48601308465003967
vn 0.73451912403106689 -0.67853105068206787 0.0087956013157963753
vn 0.73451918363571167 -0.48601317405700684 -0.47357439994812012
vn 0.8476225733757019 0.36773002147674561 -0.38250565528869629
vn 0.84762263298034668 -0.010447022505104542 -0.53049671649932861
vn 0.8476220965385437 0.53049755096435547 -0.010446908883750439
vn 0.84762269258499146 0.38250526785850525 0.36773014068603516
vn 0.8476225733757019 0.010447019711136818 0.53049671649932861
vn 0.8476225733757019 -0.36773011088371277 0.38250571489334106
vn 0.8476220965385437 -0.53049755096435547 0.010446908883750439
vn 0.84762269258499146 -0.38250523805618286 -0.36773020029067993
vn 0.93126630783081055 0.2491733580827713 -0.2658115029335022
vn 0.93126612901687622 -0.011764316819608212 -0.3641495406627655
vn 0.93126678466796875 0.36414790153503418 -0.011764717288315296
vn 0.93126583099365234 0.26581153273582458 0.24917501211166382
vn 0.931266188621521 0.01176433265209198 0.3641495406627655
vn 0.93126630783081055 -0.2491733580827713 0.26581144332885742
vn 0.93126678466796875 -0.36414790153503418 0.011764717288315296
vn 0.93126583099365234 -0.26581153273582458 -0.24917501211166382
vn 0.97878783941268921 0.12775003910064697 -0.16016960144042969
vn 0.97878795862197876 -0.02292601577937603 -0.20358915627002716
vn 0.97878795862197876 0.20358887314796448 -0.022926943376660347
vn 0.97878807783126831 0.16016989946365356 0.12774750590324402
vn 0.97878795862197876 0.022926017642021179 0.20358917117118835
vn 0.97878783941268921 -0.12775003910064697 0.16016960144042969
vn 0.97878795862197876 -0.20358887314796448 0.022926943376660347
vn 0.97878807783126831 -0.16016989946365356 -0.12774750590324402
vn 0.99999994039535522 9.3608798490407708e-10 -9.3608798490407708e-10
vn -0.734519362449646 -0.47357439994812012 -0.48601299524307251
vn -0.73451995849609375 0.0087956460192799568 -0.67853009700775146
vn -0.73451924324035645 -0.67853075265884399 -0.0087955789640545845
vn -0.734519362449646 -0.48601308465003967 0.47357439994812012
vn -0.73451995849609375 -0.0087956218048930168 0.67853009700775146
vn -0.73451942205429077 0.47357431054115295 0.48601299524307251
vn -0.73451924324035645 0.67853075265884399 0.0087955789640545845
vn -0.734519362449646 0.48601308465003967 -0.47357431054115295
vn -0.84762275218963623 -0.36772984266281128 -0.38250547647476196
vn -0.84762281179428101 0.010447057895362377 -0.53049641847610474
vn -0.84762221574783325 -0.53049725294113159 -0.010446945205330849
vn -0.84762281179428101 -0.38250505924224854 0.36772993206977844
vn -0.84762275218963623 -0.010447052307426929 0.53049641847610474
vn -0.84762269258499146 0.36772984266281128 0.38250547647476196
vn -0.84762221574783325 0.53049725294113159 0.010446945205330849
vn -0.84762281179428101 0.38250505924224854 -0.36772993206977844
vn -0.93126630783081055 -0.24917346239089966 -0.26581144332885742
vn -0.931266188621521 0.011764233931899071 -0.36414957046508789
vn -0.93126684427261353 -0.36414793133735657 -0.011764624156057835
vn -0.93126583099365234 -0.2658115029335022 0.24917510151863098
vn -0.931266188621521 -0.011764248833060265 0.36414951086044312
vn -0.93126630783081055 0.24917346239089966 0.26581138372421265
vn -0.93126684427261353 0.36414793133735657 0.011764624156057835
vn -0.93126583099365234 0.2658115029335022 -0.24917510151863098
vn -0.97878772020339966 -0.12775048613548279 -0.16017010807991028
vn -0.97878783941268921 0.022926066070795059 -0.20358981192111969
vn -0.97878777980804443 -0.20358951389789581 -0.022926991805434227
vn -0.97878801822662354 -0.16017039120197296 0.12774793803691864
vn -0.97878783941268921 -0.02292606420814991 0.20358981192111969
vn -0.97878772020339966 0.12775048613548279 0.16017010807991028
vn -0.97878777980804443 0.20358951389789581 0.022926991805434227
vn -0.97878801822662354 0.16017039120197296 -0.12774793803691864
vn -0.99999994039535522 -9.3608798490407708e-10 -9.3608798490407708e-10
vn 0 -0.099503718316555023 0.99503719806671143
vn 0 -0.099503718316555023 -0.99503719806671143
vn 1 0 0
vn 1 0 0
vn 0 1 0
vn 0 1 0
vn 0 1 0
vn 0 1 0
vn 0 -0.099503718316555023 0.99503719806671143
vn 0 -0.099503718316555023 -0.99503719806671143
vn 1 0 0
vn 1 0 0
vn 0 1 0
vn 0 1 0
vn 0 1 0
vn 0 1 0
vn -1 0 0
vn 1 0 0
vn -1 0 0
vn 1 0 0
vn -1 0 0
vn 1 0 0
vn -1 0 0
vn 1 0 0
vn -1 0 0
vn 1 0 0
vn -1 0 0
vn 1 0 0
vn -1 0 0
vn 1 0 0
vn -1 0 0
vn 1 0 0
vn 1 0 0
vn -1 0 0
vn 1 0 0
vn -1 0 0
vn 1 0 0
vn -1 0 0
vn 1 0 0
vn -1 0 0
vn 1 0 0
vn -1 0 0
vn 1 0 0
vn -1 0 0
vn 1 0 0
vn -1 0 0
vn 1 0 0
vn -1 0 0
vn 0 -1 0
vn 0 -1 0
vn 0 -1 0
vn 0 -1 0
vn 0 -1 0
vn 0 -1 0
vn 0 -1 0
vn 0 -1 0
vn 0 1 0
vn 0 1 0
vn 0 1 0
vn 0 1 0
vn 0 1 0
vn 0 1 0
vn 0 1 0
vn 0 1 0
vn 0 -1 0
vn 0 -1 0
vn 0 -1 0
vn 0 -1 0
vn 0 -1 0
vn 0 -1 0
vn 0 -1 0
vn 0 -1 0
vn 0 1 0
vn 0 1 0
vn 0 1 0
vn 0 1 0
vn 0 1 0
vn 0 1 0
vn 0 1 0
vn 0 1 0
vn 0 -1 0
vn -1 0 0
vn 0 -1 0
vn -1 0 0
vn 0 -1 0
vn 0 -0.099503718316555023 -0.99503719806671143
vn 0 -1 0
vn 0 -0.099503718316555023 0.99503719806671143
vn 0 -0.099503718316555023 0.99503719806671143
vn 1 0 0
vn 0 -0.099503718316555023 0.99503719806671143
vn -1 0 0
vn 1 0 0
vn 0 -0.099503718316555023 -0.99503719806671143
vn 0 -0.099503718316555023 -0.99503719806671143
vn -1 0 0
vn 0 -1 0
vn -1 0 0
vn 0 -1 0
vn -1 0 0
vn 0 -1 0
vn 0 -0.099503718316555023 -0.99503719806671143
vn 0 -1 0
vn 0 -0.099503718316555023 0.99503719806671143
vn 0 -0.099503718316555023 0.99503719806671143
vn 1 0 0
vn 0 -0.099503718316555023 0.99503719806671143
vn -1 0 0
vn 1 0 0
vn 0 -0.099503718316555023 -0.99503719806671143
vn 0 -0.099503718316555023 -0.99503719806671143
vn -1 0 0
# 226 elements written
f 131//131 133//133 135//135 
f 131//131 135//135 137//137 
f 131//131 137//137 139//139 
f 131//131 139//139 141//141 
f 131//131 141//141 143//143 
f 131//131 143//143 145//145 
f 147//147 149//149 151//151 
f 147//147 151//151 153//153 
f 147//147 153//153 155//155 
f 147//147 155//155 157//157 
f 147//147 157//157 159//159 
f 147//147 159//159 161//161 
f 8//8 7//7 10//10 
f 8//8 10//10 9//9 
f 7//7 6//6 11//11 
f 7//7 11//11 10//10 
f 6//6 5//5 12//12 
f 6//6 12//12 11//11 
f 5//5 4//4 13//13 
f 5//5 13//13 12//12 
f 4//4 3//3 14//14 
f 4//4 14//14 13//13 
f 3//3 2//2 15//15 
f 3//3 15//15 14//14 
f 2//2 1//1 16//16 
f 2//2 16//16 15//15 
f 1//1 8//8 9//9 
f 1//1 9//9 16//16 
f 163//163 164//164 165//165 
f 163//163 165//165 166//166 
f 163//163 166//166 167//167 
f 163//163 167//167 168//168 
f 163//163 168//168 169//169 
f 163//163 169//169 170//170 
f 171//171 172//172 173//173 
f 171//171 173//173 174//174 
f 171//171 174//174 175//175 
f 171//171 175//175 176//176 
f 171//171 176//176 177//177 
f 171//171 177//177 178//178 
f 24//24 23//23 26//26 
f 24//24 26//26 25//25 
f 23//23 22//22 27//27 
f 23//23 27//27 26//26 
f 22//22 21//21 28//28 
f 22//22 28//28 27//27 
f 21//21 20//20 29//29 
f 21//21 29//29 28//28 
f 20//20 19//19 30//30 
f 20//20 30//30 29//29 
f 19//19 18//18 31//31 
f 19//19 31//31 30//30 
f 18//18 17//17 32//32 
f 18//18 32//32 31//31 
f 17//17 24//24 25//25 
f 17//17 25//25 32//32 
f 179//179 180//180 181//181 
f 179//179 181//181 182//182 
f 179//179 182//182 183//183 
f 179//179 183//183 184//184 
f 179//179 184//184 185//185 
f 179//179 185//185 186//186 
f 187//187 188//188 189//189 
f 187//187 189//189 190//190 
f 187//187 190//190 191//191 
f 187//187 191//191 192//192 
f 187//187 192//192 193//193 
f 187//187 193//193 194//194 
f 40//40 39//39 42//42 
f 40//40 42//42 41//41 
f 39//39 38//38 43//43 
f 39//39 43//43 42//42 
f 38//38 37//37 44//44 
f 38//38 44//44 43//43 
f 37//37 36//36 45//45 
f 37//37 45//45 44//44 
f 36//36 35//35 46//46 
f 36//36 46//46 45//45 
f 35//35 34//34 47//47 
f 35//35 47//47 46//46 
f 34//34 33//33 48//48 
f 34//34 48//48 47//47 
f 33//33 40//40 41//41 
f 33//33 41//41 48//48 
f 162//162 160//160 158//158 
f 162//162 158//158 156//156 
f 162//162 156//156 154//154 
f 162//162 154//154 152//152 
f 162//162 152//152 150//150 
f 162//162 150//150 148//148 
f 9//9 10//10 49//49 
f 9//9 49//49 50//50 
f 10//10 11//11 51//51 
f 10//10 51//51 49//49 
f 11//11 12//12 52//52 
f 11//11 52//52 51//51 
f 12//12 13//13 53//53 
f 12//12 53//53 52//52 
f 13//13 14//14 54//54 
f 13//13 54//54 53//53 
f 14//14 15//15 55//55 
f 14//14 55//55 54//54 
f 15//15 16//16 56//56 
f 15//15 56//56 55//55 
f 16//16 9//9 50//50 
f 16//16 50//50 56//56 
f 50//50 49//49 57//57 
f 50//50 57//57 58//58 
f 49//49 51//51 59//59 
f 49//49 59//59 57//57 
f 51//51 52//52 60//60 
f 51//51 60//60 59//59 
f 52//52 53//53 61//61 
f 52//52 61//61 60//60 
f 53//53 54//54 62//62 
f 53//53 62//62 61//61 
f 54//54 55//55 63//63 
f 54//54 63//63 62//62 
f 55//55 56//56 64//64 
f 55//55 64//64 63//63 
f 56//56 50//50 58//58 
f 56//56 58//58 64//64 
f 58//58 57//57 65//65 
f 58//58 65//65 66//66 
f 57//57 59//59 67//67 
f 57//57 67//67 65//65 
f 59//59 60//60 68//68 
f 59//59 68//68 67//67 
f 60//60 61//61 69//69 
f 60//60 69//69 68//68 
f 61//61 62//62 70//70 
f 61//61 70//70 69//69 
f 62//62 63//63 71//71 
f 62//62 71//71 70//70 
f 63//63 64//64 72//72 
f 63//63 72//72 71//71 
f 64//64 58//58 66//66 
f 64//64 66//66 72//72 
f 66//66 65//65 73//73 
f 66//66 73//73 74//74 
f 65//65 67//67 75//75 
f 65//65 75//75 73//73 
f 67//67 68//68 76//76 
f 67//67 76//76 75//75 
f 68//68 69//69 77//77 
f 68//68 77//77 76//76 
f 69//69 70//70 78//78 
f 69//69 78//78 77//77 
f 70//70 71//71 79//79 
f 70//70 79//79 78//78 
f 71//71 72//72 80//80 
f 71//71 80//80 79//79 
f 72//72 66//66 74//74 
f 72//72 74//74 80//80 
f 74//74 73//73 81//81 
f 73//73 75//75 81//81 
f 75//75 76//76 81//81 
f 76//76 77//77 81//81 
f 77//77 78//78 81//81 
f 78//78 79//79 81//81 
f 79//79 80//80 81//81 
f 80//80 74//74 81//81 
f 144//144 142//142 140//140 
f 144//144 140//140 138//138 
f 144//144 138//138 136//136 
f 144//144 136//136 134//134 
f 144//144 134//134 132//132 
f 144//144 132//132 146//146 
f 8//8 1//1 82//82 
f 8//8 82//82 83//83 
f 1//1 2//2 84//84 
f 1//1 84//84 82//82 
f 2//2 3//3 85//85 
f 2//2 85//85 84//84 
f 3//3 4//4 86//86 
f 3//3 86//86 85//85 
f 4//4 5//5 87//87 
f 4//4 87//87 86//86 
f 5//5 6//6 88//88 
f 5//5 88//88 87//87 
f 6//6 7//7 89//89 
f 6//6 89//89 88//88 
f 7//7 8//8 83//83 
f 7//7 83//83 89//89 
f 83//83 82//82 90//90 
f 83//83 90//90 91//91 
f 82//82 84//84 92//92 
f 82//82 92//92 90//90 
f 84//84 85//85 93//93 
f 84//84 93//93 92//92 
f 85//85 86//86 94//94 
f 85//85 94//94 93//93 
f 86//86 87//87 95//95 
f 86//86 95//95 94//94 
f 87//87 88//88 96//96 
f 87//87 96//96 95//95 
f 88//88 89//89 97//97 
f 88//88 97//97 96//96 
f 89//89 83//83 91//91 
f 89//89 91//91 97//97 
f 91//91 90//90 98//98 
f 91//91 98//98 99//99 
f 90//90 92//92 100//100 
f 90//90 100//100 98//98 
f 92//92 93//93 101//101 
f 92//92 101//101 100//100 
f 93//93 94//94 102//102 
f 93//93 102//102 101//101 
f 94//94 95//95 103//103 
f 94//94 103//103 102//102 
f 95//95 96//96 104//104 
f 95//95 104//104 103//103 
f 96//96 97//97 105//105 
f 96//96 105//105 104//104 
f 97//97 91//91 99//99 
f 97//97 99//99 105//105 
f 99//99 98//98 106//106 
f 99//99 106//106 107//107 
f 98//98 100//100 108//108 
f 98//98 108//108 106//106 
f 100//100 101//101 109//109 
f 100//100 109//109 108//108 
f 101//101 102//102 110//110 
f 101//101 110//110 109//109 
f 102//102 103//103 111//111 
f 102//102 111//111 110//110 
f 103//103 104//104 112//112 
f 103//103 112//112 111//111 
f 104//104 105//105 113//113 
f 104//104 113//113 112//112 
f 105//105 99//99 107//107 
f 105//105 107//107 113//113 
f 107//107 106//106 114//114 
f 106//106 108//108 114//114 
f 108//108 109//109 114//114 
f 109//109 110//110 114//114 
f 110//110 111//111 114//114 
f 111//111 112//112 114//114 
f 112//112 113//113 114//114 
f 113//113 107//107 114//114 
f 195//195 197//197 199//199 
f 195//195 199//199 201//201 
f 115//115 202//202 203//203 
f 115//115 203//203 205//205 
f 118//118 117//117 207//207 
f 118//118 207//207 204//204 
f 200//200 116//116 209//209 
f 200//200 209//209 208//208 
f 198//198 196//196 206//206 
f 198//198 206//206 210//210 
f 120//120 119//119 121//121 
f 120//120 121//121 122//122 
f 211//211 213//213 215//215 
f 211//211 215//215 217//217 
f 123//123 218//218 219//219 
f 123//123 219//219 221//221 
f 126//126 125//125 223//223 
f 126//126 223//223 220//220 
f 216//216 124//124 225//225 
f 216//216 225//225 224//224 
f 214//214 212//212 222//222 
f 214//214 222//222 226//226 
f 128//128 127//127 129//129 
f 128//128 129//129 130//130 
