# file written by OpenSceneGraph

mtllib g9.mtl


o _Geometry_0

v -8425.34765625 75119.84375 5023
v -8445.5 75111.5 5023
v -8465.65234375 75119.84375 5023
v -8474 75140 5023
v -8465.65234375 75160.15625 5023
v -8445.5 75168.5 5023
v -8425.34765625 75160.15625 5023
v -8417 75140 5023
v -8417 75140 19330.099609375
v -8425.34765625 75160.15625 19330.099609375
v -8445.5 75168.5 19330.099609375
v -8465.65234375 75160.15625 19330.099609375
v -8474 75140 19330.099609375
v -8465.65234375 75119.84375 19330.099609375
v -8445.5 75111.5 19330.099609375
v -8425.34765625 75119.84375 19330.099609375
v -8463.53125 75121.96875 25880.3984375
v -8471 75140 25880.3984375
v -8463.53125 75158.03125 25880.3984375
v -8445.5 75165.5 25880.3984375
v -8427.46875 75158.03125 25880.3984375
v -8420 75140 25880.3984375
v -8427.46875 75121.96875 25880.3984375
v -8445.5 75114.5 25880.3984375
v -8427.46875 75130.8046875 25930.240234375
v -8445.5 75123.7890625 25932.806640625
v -8420 75147.734375 25924.04296875
v -8427.46875 75164.671875 25917.84765625
v -8445.5 75171.6796875 25915.28125
v -8463.53125 75164.671875 25917.84765625
v -8471 75147.734375 25924.04296875
v -8463.53125 75130.8046875 25930.240234375
v -8427.46875 75156.2265625 25974.009765625
v -8445.5 75150.5234375 25978.83203125
v -8420 75170 25962.373046875
v -8427.46875 75183.7734375 25950.734375
v -8445.5 75189.4765625 25945.912109375
v -8463.53125 75183.7734375 25950.734375
v -8471 75170 25962.373046875
v -8463.53125 75156.2265625 25974.009765625
v -8427.46875 75195.140625 26006.376953125
v -8445.5 75191.4453125 26012.865234375
v -8420 75204.078125 25990.71484375
v -8427.46875 75213.0078125 25975.052734375
v -8445.5 75216.7109375 25968.564453125
v -8463.53125 75213.0078125 25975.052734375
v -8471 75204.078125 25990.71484375
v -8463.53125 75195.140625 26006.376953125
v -8427.46875 75242.8125 26023.3984375
v -8445.5 75241.5703125 26030.763671875
v -8420 75245.8203125 26005.62109375
v -8427.46875 75248.828125 25987.841796875
v -8445.5 75250.0703125 25980.478515625
v -8463.53125 75248.828125 25987.841796875
v -8471 75245.8203125 26005.62109375
v -8463.53125 75242.8125 26023.3984375
v -8427.46875 75293.4296875 26023.001953125
v -8445.5 75294.7890625 26030.345703125
v -8420 75290.140625 26005.2734375
v -8427.46875 75286.859375 25987.54296875
v -8445.5 75285.5 25980.19921875
v -8463.53125 75286.859375 25987.54296875
v -8471 75290.140625 26005.2734375
v -8463.53125 75293.4296875 26023.001953125
v -8427.46875 75121.96875 19330.099609375
v -8445.5 75114.5 19330.099609375
v -8463.53125 75121.96875 19330.099609375
v -8471 75140 19330.099609375
v -8463.53125 75158.03125 19330.099609375
v -8445.5 75165.5 19330.099609375
v -8427.46875 75158.03125 19330.099609375
v -8420 75140 19330.099609375
v -8420 75140 25880.400390625
v -8427.46875 75158.03125 25880.400390625
v -8445.5 75165.5 25880.400390625
v -8463.53125 75158.03125 25880.400390625
v -8471 75140 25880.400390625
v -8463.53125 75121.96875 25880.400390625
v -8445.5 75114.5 25880.400390625
v -8427.46875 75121.96875 25880.400390625
v -8463.53125 75286.8515625 25987.54296875
v -8445.5 75285.4921875 25980.19921875
v -8427.46875 75286.8515625 25987.54296875
v -8420 75855.3984375 25900.5078125
v -8427.46875 75852.1171875 25882.779296875
v -8445.5 75850.75 25875.435546875
v -8463.53125 75852.1171875 25882.779296875
v -8471 75855.3984375 25900.5078125
v -8463.53125 75858.6875 25918.23828125
v -8445.5 75860.046875 25925.58203125
v -8427.46875 75858.6875 25918.23828125
v -8425.34765625 75119.84375 5023
v -8445.5 75111.5 5023
v -8465.65234375 75119.84375 5023
v -8474 75140 5023
v -8465.65234375 75160.15625 5023
v -8445.5 75168.5 5023
v -8425.34765625 75160.15625 5023
v -8417 75140 5023
v -8417 75140 19330.099609375
v -8425.34765625 75160.15625 19330.099609375
v -8445.5 75168.5 19330.099609375
v -8465.65234375 75160.15625 19330.099609375
v -8474 75140 19330.099609375
v -8465.65234375 75119.84375 19330.099609375
v -8445.5 75111.5 19330.099609375
v -8425.34765625 75119.84375 19330.099609375
v -8463.53125 75121.96875 25880.3984375
v -8471 75140 25880.3984375
v -8463.53125 75158.03125 25880.3984375
v -8445.5 75165.5 25880.3984375
v -8427.46875 75158.03125 25880.3984375
v -8420 75140 25880.3984375
v -8427.46875 75121.96875 25880.3984375
v -8445.5 75114.5 25880.3984375
v -8427.46875 75293.4296875 26023.001953125
v -8427.46875 75293.4296875 26023.001953125
v -8445.5 75294.7890625 26030.345703125
v -8445.5 75294.7890625 26030.345703125
v -8420 75290.140625 26005.2734375
v -8420 75290.140625 26005.2734375
v -8427.46875 75286.859375 25987.54296875
v -8445.5 75285.5 25980.19921875
v -8463.53125 75286.859375 25987.54296875
v -8471 75290.140625 26005.2734375
v -8471 75290.140625 26005.2734375
v -8463.53125 75293.4296875 26023.001953125
v -8463.53125 75293.4296875 26023.001953125
v -8427.46875 75121.96875 19330.099609375
v -8445.5 75114.5 19330.099609375
v -8463.53125 75121.96875 19330.099609375
v -8471 75140 19330.099609375
v -8463.53125 75158.03125 19330.099609375
v -8445.5 75165.5 19330.099609375
v -8427.46875 75158.03125 19330.099609375
v -8420 75140 19330.099609375
v -8420 75140 25880.400390625
v -8427.46875 75158.03125 25880.400390625
v -8445.5 75165.5 25880.400390625
v -8463.53125 75158.03125 25880.400390625
v -8471 75140 25880.400390625
v -8463.53125 75121.96875 25880.400390625
v -8445.5 75114.5 25880.400390625
v -8427.46875 75121.96875 25880.400390625
v -8463.53125 75286.8515625 25987.54296875
v -8445.5 75285.4921875 25980.19921875
v -8427.46875 75286.8515625 25987.54296875
v -8420 75855.3984375 25900.5078125
v -8427.46875 75852.1171875 25882.779296875
v -8445.5 75850.75 25875.435546875
v -8463.53125 75852.1171875 25882.779296875
v -8471 75855.3984375 25900.5078125
v -8463.53125 75858.6875 25918.23828125
v -8445.5 75860.046875 25925.58203125
v -8427.46875 75858.6875 25918.23828125
# 155 elements written

vn 0.79717022180557251 -0.60375463962554932 0
vn 0.136715367436409 -0.99061036109924316 0
vn -0.60367727279663086 -0.79722875356674194 0
vn -0.99060523509979248 -0.13675215840339661 0
vn -0.79717022180557251 0.60375463962554932 0
vn -0.136715367436409 0.99061036109924316 0
vn 0.60367727279663086 0.79722875356674194 0
vn 0.99060523509979248 0.13675215840339661 0
vn 0.99060523509979248 -0.13675215840339661 0
vn 0.79717022180557251 0.60375463962554932 0
vn 0.136715367436409 0.99061036109924316 0
vn -0.60367733240127563 0.79722875356674194 0
vn -0.99060523509979248 0.13675215840339661 0
vn -0.79717022180557251 -0.60375463962554932 0
vn -0.136715367436409 -0.99061036109924316 0
vn 0.60367733240127563 -0.79722875356674194 0
vn -0.5994114875793457 -0.78815382719039917 0.13971215486526489
vn -0.99030816555023193 -0.13675488531589508 0.024243855848908424
vn -0.79387402534484863 0.59874439239501953 -0.10615634918212891
vn -0.13461011648178101 0.97569668292999268 -0.17290477454662323
vn 0.5993117094039917 0.78822875022888184 -0.13971677422523499
vn 0.99031513929367065 0.13670477271080017 -0.024240963160991669
vn 0.79384279251098633 -0.59878796339035034 0.10614383965730667
vn 0.13473968207836151 -0.97567194700241089 0.17294389009475708
vn 0.70860522985458374 -0.66829901933670044 0.22639560699462891
vn -3.8735097405151464e-06 -0.93908935785293579 0.3436732292175293
vn 0.99970084428787231 -0.0084501104429364204 -0.022951826453208923
vn 0.70855188369750977 0.65660452842712402 -0.25850480794906616
vn 3.9004280552035198e-06 0.9390835165977478 -0.34368902444839478
vn -0.70855778455734253 0.66834467649459839 -0.22640939056873322
vn -0.99970096349716187 0.0083639230579137802 0.022977890446782112
vn -0.70860177278518677 -0.65656954050064087 0.25845673680305481
vn 0.70861256122589111 -0.54980272054672241 0.44225031137466431
vn -3.1978892366169021e-05 -0.76379615068435669 0.64545750617980957
vn 0.99970078468322754 -0.01579461432993412 -0.018678219988942146
vn 0.70862495899200439 0.52776455879211426 -0.46831110119819641
vn -6.4180057961493731e-05 0.76379203796386719 -0.6454625129699707
vn -0.70856678485870361 0.5498320460319519 -0.44228696823120117
vn -0.99970090389251709 0.015777910128235817 0.018687652423977852
vn -0.70857894420623779 -0.52778834104537964 0.46835389733314514
vn 0.70858806371688843 -0.36433911323547363 0.60428464412689209
vn -2.1464149995154003e-06 -0.49546188116073608 0.86862969398498535
vn 0.99970066547393799 -0.02124151773750782 -0.012140532024204731
vn 0.70860671997070312 0.33468577265739441 -0.62117785215377808
vn 1.9035303921555169e-05 0.49549582600593567 -0.86861032247543335
vn -0.70861852169036865 0.36433812975883484 -0.60424953699111938
vn -0.99970054626464844 0.021265296265482903 0.01210897509008646
vn -0.70858770608901978 -0.33468183875083923 0.62120157480239868
vn 0.70859402418136597 -0.13447801768779755 0.69268333911895752
vn 9.0544135673553683e-06 -0.16677498817443848 0.98599499464035034
vn 0.99970078468322754 -0.024120120331645012 -0.0040669799782335758
vn 0.70858597755432129 0.1007997989654541 -0.69838762283325195
vn 1.3183783266867977e-05 0.16677607595920563 -0.98599481582641602
vn -0.70860147476196289 0.13447633385658264 -0.69267600774765015
vn -0.99970078468322754 0.024116205051541328 0.0040892693214118481
vn -0.70860433578491211 -0.10081037133932114 0.69836759567260742
vn 0.70651859045028687 0.058834526687860489 0.70524454116821289
vn 0.00089918903540819883 0.095309920608997345 0.99544721841812134
vn 0.99992525577545166 -0.012045192532241344 0.0020831255242228508
vn 0.00014225362974684685 0.98327934741973877 -0.18210360407829285
vn 0 0.98327261209487915 -0.18213999271392822
vn -0.00014225362974684685 0.98327934741973877 -0.18210360407829285
vn 3.4925433283206075e-06 -0.98322385549545288 0.18240287899971008
vn -0.70649898052215576 0.075845859944820404 0.70363819599151611
vn 0.79717564582824707 -0.60374748706817627 0
vn 0.13677296042442322 -0.99060243368148804 0
vn -0.60374748706817627 -0.79717564582824707 0
vn -0.99060243368148804 -0.13677296042442322 0
vn -0.79717564582824707 0.60374748706817627 0
vn -0.13677296042442322 0.99060243368148804 0
vn 0.60374748706817627 0.79717564582824707 0
vn 0.99060243368148804 0.13677296042442322 0
vn 0.99060243368148804 -0.13677296042442322 0
vn 0.79717564582824707 0.60374748706817627 0
vn 0.13677296042442322 0.99060243368148804 0
vn -0.60374748706817627 0.79717564582824707 0
vn -0.99060243368148804 0.13677296042442322 0
vn -0.79717564582824707 -0.60374748706817627 0
vn -0.13677296042442322 -0.99060243368148804 0
vn 0.60374748706817627 -0.79717564582824707 0
vn -0.79717367887496948 -0.11002333462238312 -0.59364038705825806
vn -0.1367916613817215 -0.18052057921886444 -0.97401249408721924
vn 0.60376793146133423 -0.14526887238025665 -0.78381204605102539
vn 0.99060511589050293 0.024921122938394547 0.13446323573589325
vn 0.79718631505966187 -0.11002028733491898 -0.5936240553855896
vn 0.1367710679769516 -0.18052108585834503 -0.97401535511016846
vn -0.6037517786026001 -0.14527110755443573 -0.78382402658462524
vn -0.9906010627746582 -0.024926180019974709 -0.13449236750602722
vn -0.79717952013015747 0.11002305150032043 0.59363257884979248
vn -0.13676854968070984 0.18052197992801666 0.97401553392410278
vn 0.60374939441680908 0.14527256786823273 0.7838255763053894
vn 0 0 -1
vn 0 0 -1
vn 0 0 -1
vn 0 0 -1
vn 0 0 -1
vn 0 0 -1
vn 0 0 -1
vn 0 0 -1
vn 0 0 1
vn 0 0 1
vn 0 0 1
vn 0 0 1
vn 0 0 1
vn 0 0 1
vn 0 0 1
vn 0 0 1
vn 0 0 -1
vn 0 0 -1
vn 0 0 -1
vn 0 0 -1
vn 0 0 -1
vn 0 0 -1
vn 0 0 -1
vn 0 0 -1
vn -0.00020179498824290931 0.98320704698562622 -0.18249337375164032
vn -1.0771220331662335e-05 -0.98323953151702881 0.18231853842735291
vn 0 0.98325526714324951 -0.1822335422039032
vn 0 -0.98329585790634155 0.1820143461227417
vn 1.4906712749507278e-05 0.9832465648651123 -0.18228030204772949
vn -2.3849564968259074e-05 -0.98322409391403198 0.18240147829055786
vn 0.79386341571807861 -0.0047760913148522377 -0.60807734727859497
vn 0.13469782471656799 -0.0078025618568062782 -0.99085605144500732
vn -0.59938502311706543 -0.0062978784553706646 -0.80043607950210571
vn -0.99992531538009644 0.012044014409184456 -0.0020620073191821575
vn -1.4906712749507278e-05 0.9832465648651123 -0.18228030204772949
vn 0.00020179498824290931 0.98320704698562622 -0.18249337375164032
vn 0 -0.98325908184051514 0.18221276998519897
vn 0 0 -1
vn 0 0 -1
vn 0 0 -1
vn 0 0 -1
vn 0 0 -1
vn 0 0 -1
vn 0 0 -1
vn 0 0 -1
vn 0 0 1
vn 0 0 1
vn 0 0 1
vn 0 0 1
vn 0 0 1
vn 0 0 1
vn 0 0 1
vn 0 0 1
vn 6.1151986301410943e-05 -0.98323535919189453 0.18234135210514069
vn -2.3881424567662179e-05 -0.98323464393615723 0.18234479427337646
vn -9.3465641839429736e-05 -0.98322415351867676 0.18240147829055786
vn -7.0048627094365656e-05 0.98325705528259277 -0.18222403526306152
vn -0.00052551954286172986 0.98333942890167236 -0.1817781925201416
vn -0.00015393969079013914 0.98327195644378662 -0.18214359879493713
vn 0.00010882011702051386 0.98325216770172119 -0.18225063383579254
vn 0 0.98326301574707031 -0.18219204246997833
vn 3.9750233554514125e-05 0.98324340581893921 -0.18229739367961884
vn -5.620619049295783e-05 0.98323619365692139 -0.18233649432659149
vn -0.0001919128408189863 0.98321139812469482 -0.18246990442276001
# 155 elements written
f 92//92 93//93 94//94 
f 92//92 94//94 95//95 
f 92//92 95//95 96//96 
f 92//92 96//96 97//97 
f 92//92 97//97 98//98 
f 92//92 98//98 99//99 
f 100//100 101//101 102//102 
f 100//100 102//102 103//103 
f 100//100 103//103 104//104 
f 100//100 104//104 105//105 
f 100//100 105//105 106//106 
f 100//100 106//106 107//107 
f 8//8 7//7 10//10 
f 8//8 10//10 9//9 
f 7//7 6//6 11//11 
f 7//7 11//11 10//10 
f 6//6 5//5 12//12 
f 6//6 12//12 11//11 
f 5//5 4//4 13//13 
f 5//5 13//13 12//12 
f 4//4 3//3 14//14 
f 4//4 14//14 13//13 
f 3//3 2//2 15//15 
f 3//3 15//15 14//14 
f 2//2 1//1 16//16 
f 2//2 16//16 15//15 
f 1//1 8//8 9//9 
f 1//1 9//9 16//16 
f 108//108 109//109 110//110 
f 108//108 110//110 111//111 
f 108//108 111//111 112//112 
f 108//108 112//112 113//113 
f 108//108 113//113 114//114 
f 108//108 114//114 115//115 
f 24//24 23//23 25//25 
f 24//24 25//25 26//26 
f 23//23 22//22 27//27 
f 23//23 27//27 25//25 
f 22//22 21//21 28//28 
f 22//22 28//28 27//27 
f 21//21 20//20 29//29 
f 21//21 29//29 28//28 
f 20//20 19//19 30//30 
f 20//20 30//30 29//29 
f 19//19 18//18 31//31 
f 19//19 31//31 30//30 
f 18//18 17//17 32//32 
f 18//18 32//32 31//31 
f 17//17 24//24 26//26 
f 17//17 26//26 32//32 
f 26//26 25//25 33//33 
f 26//26 33//33 34//34 
f 25//25 27//27 35//35 
f 25//25 35//35 33//33 
f 27//27 28//28 36//36 
f 27//27 36//36 35//35 
f 28//28 29//29 37//37 
f 28//28 37//37 36//36 
f 29//29 30//30 38//38 
f 29//29 38//38 37//37 
f 30//30 31//31 39//39 
f 30//30 39//39 38//38 
f 31//31 32//32 40//40 
f 31//31 40//40 39//39 
f 32//32 26//26 34//34 
f 32//32 34//34 40//40 
f 34//34 33//33 41//41 
f 34//34 41//41 42//42 
f 33//33 35//35 43//43 
f 33//33 43//43 41//41 
f 35//35 36//36 44//44 
f 35//35 44//44 43//43 
f 36//36 37//37 45//45 
f 36//36 45//45 44//44 
f 37//37 38//38 46//46 
f 37//37 46//46 45//45 
f 38//38 39//39 47//47 
f 38//38 47//47 46//46 
f 39//39 40//40 48//48 
f 39//39 48//48 47//47 
f 40//40 34//34 42//42 
f 40//40 42//42 48//48 
f 42//42 41//41 49//49 
f 42//42 49//49 50//50 
f 41//41 43//43 51//51 
f 41//41 51//51 49//49 
f 43//43 44//44 52//52 
f 43//43 52//52 51//51 
f 44//44 45//45 53//53 
f 44//44 53//53 52//52 
f 45//45 46//46 54//54 
f 45//45 54//54 53//53 
f 46//46 47//47 55//55 
f 46//46 55//55 54//54 
f 47//47 48//48 56//56 
f 47//47 56//56 55//55 
f 48//48 42//42 50//50 
f 48//48 50//50 56//56 
f 50//50 49//49 57//57 
f 50//50 57//57 58//58 
f 49//49 51//51 59//59 
f 49//49 59//59 57//57 
f 51//51 52//52 122//122 
f 51//51 122//122 59//59 
f 52//52 53//53 123//123 
f 52//52 123//123 122//122 
f 53//53 54//54 124//124 
f 53//53 124//124 123//123 
f 54//54 55//55 125//125 
f 54//54 125//125 124//124 
f 55//55 56//56 64//64 
f 55//55 64//64 125//125 
f 56//56 50//50 58//58 
f 56//56 58//58 64//64 
f 118//118 116//116 120//120 
f 118//118 120//120 60//60 
f 118//118 60//60 61//61 
f 118//118 61//61 62//62 
f 118//118 62//62 126//126 
f 118//118 126//126 127//127 
f 129//129 130//130 131//131 
f 129//129 131//131 132//132 
f 129//129 132//132 133//133 
f 129//129 133//133 134//134 
f 129//129 134//134 135//135 
f 129//129 135//135 136//136 
f 137//137 138//138 139//139 
f 137//137 139//139 140//140 
f 137//137 140//140 141//141 
f 137//137 141//141 142//142 
f 137//137 142//142 143//143 
f 137//137 143//143 144//144 
f 72//72 71//71 74//74 
f 72//72 74//74 73//73 
f 71//71 70//70 75//75 
f 71//71 75//75 74//74 
f 70//70 69//69 76//76 
f 70//70 76//76 75//75 
f 69//69 68//68 77//77 
f 69//69 77//77 76//76 
f 68//68 67//67 78//78 
f 68//68 78//78 77//77 
f 67//67 66//66 79//79 
f 67//67 79//79 78//78 
f 66//66 65//65 80//80 
f 66//66 80//80 79//79 
f 65//65 72//72 73//73 
f 65//65 73//73 80//80 
f 117//117 119//119 128//128 
f 117//117 128//128 63//63 
f 117//117 63//63 145//145 
f 117//117 145//145 146//146 
f 117//117 146//146 147//147 
f 117//117 147//147 121//121 
f 148//148 149//149 150//150 
f 148//148 150//150 151//151 
f 148//148 151//151 152//152 
f 148//148 152//152 153//153 
f 148//148 153//153 154//154 
f 148//148 154//154 155//155 
f 59//59 83//83 85//85 
f 59//59 85//85 84//84 
f 83//83 82//82 86//86 
f 83//83 86//86 85//85 
f 82//82 81//81 87//87 
f 82//82 87//87 86//86 
f 81//81 125//125 88//88 
f 81//81 88//88 87//87 
f 125//125 64//64 89//89 
f 125//125 89//89 88//88 
f 64//64 58//58 90//90 
f 64//64 90//90 89//89 
f 58//58 57//57 91//91 
f 58//58 91//91 90//90 
f 57//57 59//59 84//84 
f 57//57 84//84 91//91 
