# file written by OpenSceneGraph

mtllib g68.mtl


o _Geometry_0

v -663.5260009765625 75117.7265625 26752.5
v -685.79998779296875 75108.5 26752.5
v -708.073974609375 75117.7265625 26752.5
v -717.29998779296875 75140 26752.5
v -708.073974609375 75162.2734375 26752.5
v -685.79998779296875 75171.5 26752.5
v -663.5260009765625 75162.2734375 26752.5
v -654.29998779296875 75140 26752.5
v -654.29998779296875 75140 36937.5
v -663.5260009765625 75162.2734375 36937.5
v -685.79998779296875 75171.5 36937.5
v -708.073974609375 75162.2734375 36937.5
v -717.29998779296875 75140 36937.5
v -708.073974609375 75117.7265625 36937.5
v -685.79998779296875 75108.5 36937.5
v -663.5260009765625 75117.7265625 36937.5
v -663.5260009765625 75117.7265625 26752.5
v -685.79998779296875 75108.5 26752.5
v -708.073974609375 75117.7265625 26752.5
v -717.29998779296875 75140 26752.5
v -708.073974609375 75162.2734375 26752.5
v -685.79998779296875 75171.5 26752.5
v -663.5260009765625 75162.2734375 26752.5
v -654.29998779296875 75140 26752.5
v -654.29998779296875 75140 36937.5
v -663.5260009765625 75162.2734375 36937.5
v -685.79998779296875 75171.5 36937.5
v -708.073974609375 75162.2734375 36937.5
v -717.29998779296875 75140 36937.5
v -708.073974609375 75117.7265625 36937.5
v -685.79998779296875 75108.5 36937.5
v -663.5260009765625 75117.7265625 36937.5
# 32 elements written

vn 0.7971770167350769 -0.60374563932418823 0
vn 0.13677908480167389 -0.99060153961181641 0
vn -0.6037554144859314 -0.79716956615447998 0
vn -0.99060219526290894 -0.13677440583705902 0
vn -0.7971770167350769 0.60374563932418823 0
vn -0.13677908480167389 0.99060153961181641 0
vn 0.6037554144859314 0.79716956615447998 0
vn 0.99060219526290894 0.13677440583705902 0
vn 0.99060219526290894 -0.13677440583705902 0
vn 0.7971770167350769 0.60374563932418823 0
vn 0.13677908480167389 0.99060153961181641 0
vn -0.6037554144859314 0.79716956615447998 0
vn -0.99060219526290894 0.13677440583705902 0
vn -0.7971770167350769 -0.60374563932418823 0
vn -0.13677908480167389 -0.99060153961181641 0
vn 0.6037554144859314 -0.79716956615447998 0
vn 0 0 -1
vn 0 0 -1
vn 0 0 -1
vn 0 0 -1
vn 0 0 -1
vn 0 0 -1
vn 0 0 -1
vn 0 0 -1
vn 0 0 1
vn 0 0 1
vn 0 0 1
vn 0 0 1
vn 0 0 1
vn 0 0 1
vn 0 0 1
vn 0 0 1
# 32 elements written
f 17//17 18//18 19//19 
f 17//17 19//19 20//20 
f 17//17 20//20 21//21 
f 17//17 21//21 22//22 
f 17//17 22//22 23//23 
f 17//17 23//23 24//24 
f 25//25 26//26 27//27 
f 25//25 27//27 28//28 
f 25//25 28//28 29//29 
f 25//25 29//29 30//30 
f 25//25 30//30 31//31 
f 25//25 31//31 32//32 
f 8//8 7//7 10//10 
f 8//8 10//10 9//9 
f 7//7 6//6 11//11 
f 7//7 11//11 10//10 
f 6//6 5//5 12//12 
f 6//6 12//12 11//11 
f 5//5 4//4 13//13 
f 5//5 13//13 12//12 
f 4//4 3//3 14//14 
f 4//4 14//14 13//13 
f 3//3 2//2 15//15 
f 3//3 15//15 14//14 
f 2//2 1//1 16//16 
f 2//2 16//16 15//15 
f 1//1 8//8 9//9 
f 1//1 9//9 16//16 
