# file written by OpenSceneGraph

mtllib g0.mtl


o _Geometry_0

v 26809.50390625 25765.49609375 -10628.599609375
v 26750 25740.849609375 -10628.599609375
v 26690.49609375 25765.49609375 -10628.599609375
v 26665.849609375 25825 -10628.599609375
v 26690.49609375 25884.50390625 -10628.599609375
v 26750 25909.150390625 -10628.599609375
v 26809.50390625 25884.50390625 -10628.599609375
v 26834.150390625 25825 -10628.599609375
v 26795.40234375 25884.50390625 -10539.5712890625
v 26818.84375 25825 -10531.955078125
v 26738.810546875 25909.150390625 -10557.958984375
v 26682.220703125 25884.50390625 -10576.345703125
v 26658.779296875 25825 -10583.962890625
v 26682.220703125 25765.49609375 -10576.345703125
v 26738.810546875 25740.849609375 -10557.958984375
v 26795.40234375 25765.49609375 -10539.5712890625
v 26754.48046875 25884.50390625 -10459.2568359375
v 26774.419921875 25825 -10444.771484375
v 26706.341796875 25909.150390625 -10494.232421875
v 26658.203125 25884.50390625 -10529.20703125
v 26638.26171875 25825 -10543.6943359375
v 26658.203125 25765.49609375 -10529.20703125
v 26706.341796875 25740.849609375 -10494.232421875
v 26754.48046875 25765.49609375 -10459.2568359375
v 26690.7421875 25884.50390625 -10395.51953125
v 26705.23046875 25825 -10375.580078125
v 26655.767578125 25909.150390625 -10443.6591796875
v 26620.79296875 25884.50390625 -10491.7978515625
v 26606.3046875 25825 -10511.7373046875
v 26620.79296875 25765.49609375 -10491.7978515625
v 26655.767578125 25740.849609375 -10443.6591796875
v 26690.7421875 25765.49609375 -10395.51953125
v 26610.4296875 25884.50390625 -10354.59765625
v 26618.044921875 25825 -10331.1572265625
v 26592.041015625 25909.150390625 -10411.1884765625
v 26573.654296875 25884.50390625 -10467.779296875
v 26566.037109375 25825 -10491.2197265625
v 26573.654296875 25765.49609375 -10467.779296875
v 26592.041015625 25740.849609375 -10411.1884765625
v 26610.4296875 25765.49609375 -10354.59765625
v 26521.400390625 25884.50390625 -10340.4970703125
v 26521.400390625 25825 -10315.849609375
v 26521.400390625 25909.150390625 -10400
v 26521.400390625 25884.50390625 -10459.5029296875
v 26521.400390625 25825 -10484.150390625
v 26521.400390625 25765.49609375 -10459.5029296875
v 26521.400390625 25740.849609375 -10400
v 26521.400390625 25765.49609375 -10340.4970703125
v 24207.099609375 25884.50390625 -10459.5029296875
v 24207.099609375 25909.150390625 -10400
v 24207.099609375 25884.50390625 -10340.4970703125
v 24207.099609375 25825 -10315.849609375
v 24207.099609375 25765.49609375 -10340.4970703125
v 24207.099609375 25740.849609375 -10400
v 24207.099609375 25765.49609375 -10459.5029296875
v 24207.099609375 25825 -10484.150390625
v 24067.400390625 25825 -10457.150390625
v 24067.400390625 25784.587890625 -10440.4111328125
v 24067.400390625 25767.849609375 -10400
v 24067.400390625 25784.587890625 -10359.5888671875
v 24067.400390625 25825 -10342.849609375
v 24067.400390625 25865.412109375 -10359.5888671875
v 24067.400390625 25882.150390625 -10400
v 24067.400390625 25865.412109375 -10440.4111328125
v 26809.50390625 25765.49609375 -14200
v 26750 25740.849609375 -14200
v 26690.49609375 25765.49609375 -14200
v 26665.849609375 25825 -14200
v 26690.49609375 25884.50390625 -14200
v 26750 25909.150390625 -14200
v 26809.50390625 25884.50390625 -14200
v 26834.150390625 25825 -14200
v 24492.900390625 25825 -10484.150390625
v 24492.900390625 25765.49609375 -10459.5029296875
v 24492.900390625 25740.849609375 -10400
v 24492.900390625 25765.49609375 -10340.4970703125
v 24492.900390625 25825 -10315.849609375
v 24492.900390625 25884.50390625 -10340.4970703125
v 24492.900390625 25909.150390625 -10400
v 24492.900390625 25884.50390625 -10459.5029296875
v 24409.50390625 25765.49609375 -10400
v 24350 25740.849609375 -10400
v 24290.49609375 25765.49609375 -10400
v 24265.849609375 25825 -10400
v 24290.49609375 25884.50390625 -10400
v 24350 25909.150390625 -10400
v 24409.50390625 25884.50390625 -10400
v 24434.150390625 25825 -10400
v 24434.150390625 25825 -10257.099609375
v 24409.50390625 25884.50390625 -10257.099609375
v 24350 25909.150390625 -10257.099609375
v 24290.49609375 25884.50390625 -10257.099609375
v 24265.849609375 25825 -10257.099609375
v 24290.49609375 25765.49609375 -10257.099609375
v 24350 25740.849609375 -10257.099609375
v 24409.50390625 25765.49609375 -10257.099609375
v 26809.50390625 25765.49609375 -10628.599609375
v 26809.50390625 25765.49609375 -10628.599609375
v 26750 25740.849609375 -10628.599609375
v 26750 25740.849609375 -10628.599609375
v 26690.49609375 25765.49609375 -10628.599609375
v 26690.49609375 25765.49609375 -10628.599609375
v 26665.849609375 25825 -10628.599609375
v 26665.849609375 25825 -10628.599609375
v 26690.49609375 25884.50390625 -10628.599609375
v 26690.49609375 25884.50390625 -10628.599609375
v 26750 25909.150390625 -10628.599609375
v 26750 25909.150390625 -10628.599609375
v 26809.50390625 25884.50390625 -10628.599609375
v 26809.50390625 25884.50390625 -10628.599609375
v 26834.150390625 25825 -10628.599609375
v 26834.150390625 25825 -10628.599609375
v 26521.400390625 25884.50390625 -10340.4970703125
v 26521.400390625 25884.50390625 -10340.4970703125
v 26521.400390625 25825 -10315.849609375
v 26521.400390625 25825 -10315.849609375
v 26521.400390625 25909.150390625 -10400
v 26521.400390625 25909.150390625 -10400
v 26521.400390625 25884.50390625 -10459.5029296875
v 26521.400390625 25884.50390625 -10459.5029296875
v 26521.400390625 25825 -10484.150390625
v 26521.400390625 25825 -10484.150390625
v 26521.400390625 25765.49609375 -10459.5029296875
v 26521.400390625 25765.49609375 -10459.5029296875
v 26521.400390625 25740.849609375 -10400
v 26521.400390625 25740.849609375 -10400
v 26521.400390625 25765.49609375 -10340.4970703125
v 26521.400390625 25765.49609375 -10340.4970703125
v 24207.099609375 25884.50390625 -10459.5029296875
v 24207.099609375 25884.50390625 -10459.5029296875
v 24207.099609375 25909.150390625 -10400
v 24207.099609375 25909.150390625 -10400
v 24207.099609375 25884.50390625 -10340.4970703125
v 24207.099609375 25884.50390625 -10340.4970703125
v 24207.099609375 25825 -10315.849609375
v 24207.099609375 25825 -10315.849609375
v 24207.099609375 25765.49609375 -10340.4970703125
v 24207.099609375 25765.49609375 -10340.4970703125
v 24207.099609375 25740.849609375 -10400
v 24207.099609375 25740.849609375 -10400
v 24207.099609375 25765.49609375 -10459.5029296875
v 24207.099609375 25765.49609375 -10459.5029296875
v 24207.099609375 25825 -10484.150390625
v 24207.099609375 25825 -10484.150390625
v 24067.400390625 25825 -10457.150390625
v 24067.400390625 25784.587890625 -10440.4111328125
v 24067.400390625 25767.849609375 -10400
v 24067.400390625 25784.587890625 -10359.5888671875
v 24067.400390625 25825 -10342.849609375
v 24067.400390625 25865.412109375 -10359.5888671875
v 24067.400390625 25882.150390625 -10400
v 24067.400390625 25865.412109375 -10440.4111328125
v 26809.50390625 25765.49609375 -14200
v 26750 25740.849609375 -14200
v 26690.49609375 25765.49609375 -14200
v 26665.849609375 25825 -14200
v 26690.49609375 25884.50390625 -14200
v 26750 25909.150390625 -14200
v 26809.50390625 25884.50390625 -14200
v 26834.150390625 25825 -14200
v 24492.900390625 25825 -10484.150390625
v 24492.900390625 25825 -10484.150390625
v 24492.900390625 25765.49609375 -10459.5029296875
v 24492.900390625 25765.49609375 -10459.5029296875
v 24492.900390625 25740.849609375 -10400
v 24492.900390625 25740.849609375 -10400
v 24492.900390625 25765.49609375 -10340.4970703125
v 24492.900390625 25765.49609375 -10340.4970703125
v 24492.900390625 25825 -10315.849609375
v 24492.900390625 25825 -10315.849609375
v 24492.900390625 25884.50390625 -10340.4970703125
v 24492.900390625 25884.50390625 -10340.4970703125
v 24492.900390625 25909.150390625 -10400
v 24492.900390625 25909.150390625 -10400
v 24492.900390625 25884.50390625 -10459.5029296875
v 24492.900390625 25884.50390625 -10459.5029296875
v 24409.50390625 25765.49609375 -10400
v 24350 25740.849609375 -10400
v 24290.49609375 25765.49609375 -10400
v 24265.849609375 25825 -10400
v 24290.49609375 25884.50390625 -10400
v 24350 25909.150390625 -10400
v 24409.50390625 25884.50390625 -10400
v 24434.150390625 25825 -10400
v 24434.150390625 25825 -10257.099609375
v 24409.50390625 25884.50390625 -10257.099609375
v 24350 25909.150390625 -10257.099609375
v 24290.49609375 25884.50390625 -10257.099609375
v 24265.849609375 25825 -10257.099609375
v 24290.49609375 25765.49609375 -10257.099609375
v 24350 25740.849609375 -10257.099609375
v 24409.50390625 25765.49609375 -10257.099609375
# 192 elements written

vn 0.70474624633789062 -0.70663273334503174 0.063269235193729401
vn -0.00012705335393548012 -0.99994033575057983 0.010923701338469982
vn -0.70595717430114746 -0.70662587881088257 -0.048003330826759338
vn -0.99691146612167358 0.00072538439417257905 -0.078530862927436829
vn -0.70474642515182495 0.70663279294967651 -0.063265979290008545
vn 0.00012492798850871623 0.99994027614593506 -0.01092230249196291
vn 0.70595502853393555 0.70662760734558105 0.048008821904659271
vn 0.99691146612167358 -0.00072626763721928 0.078529782593250275
vn 0.67592316865921021 0.70830893516540527 0.2035345733165741
vn 0.95105510950088501 -1.4290242233983008e-06 0.3090214729309082
vn 0.0067500919103622437 0.99976104497909546 -0.020792923867702484
vn -0.66646826267242432 0.70831114053726196 -0.23262712359428406
vn -0.95105737447738647 -5.199920451559592e-06 -0.30901423096656799
vn -0.67592686414718628 -0.70830667018890381 -0.20353017747402191
vn -0.0067593040876090527 -0.99976098537445068 0.020792325958609581
vn 0.66646695137023926 -0.70830845832824707 0.23263907432556152
vn 0.57994753122329712 0.70830315351486206 0.40245187282562256
vn 0.80901652574539185 -1.4670486336854083e-07 0.58778589963912964
vn 0.012848888523876667 0.99976092576980591 -0.017689784988760948
vn -0.56196051836013794 0.70831078290939331 -0.42719581723213196
vn -0.80901795625686646 1.2986268984604976e-06 -0.58778387308120728
vn -0.57994246482849121 -0.70831215381622314 -0.40244337916374207
vn -0.012853262014687061 -0.99976092576980591 0.017687154933810234
vn 0.56196689605712891 -0.70830368995666504 0.42719918489456177
vn 0.42720228433609009 0.70830565690994263 0.56196212768554688
vn 0.58778786659240723 1.7550340771776973e-06 0.80901509523391724
vn 0.017685571685433388 0.99976104497909546 -0.012851700186729431
vn -0.40244492888450623 0.70830643177032471 -0.57994836568832397
vn -0.58778494596481323 2.7711130314855836e-06 -0.80901718139648438
vn -0.42719662189483643 -0.70830845832824707 -0.5619627833366394
vn -0.01768781989812851 -0.99976104497909546 0.01284752506762743
vn 0.40244504809379578 -0.70830655097961426 0.57994800806045532
vn 0.23263542354106903 0.70830541849136353 0.66647154092788696
vn 0.30901849269866943 6.7375810886005638e-07 0.95105606317520142
vn 0.02079210989177227 0.99976098537445068 -0.006757715716958046
vn -0.20353636145591736 0.70830672979354858 -0.67592501640319824
vn -0.30901643633842468 -8.3133335238017025e-07 -0.95105677843093872
vn -0.23263707756996155 -0.70830637216567993 -0.66646987199783325
vn -0.02079366147518158 -0.99976092576980591 0.0067547992803156376
vn 0.20353806018829346 -0.70830619335174561 0.67592495679855347
vn 0.063267998397350311 0.70663195848464966 0.70474702119827271
vn 0.078531175851821899 0.00073100125882774591 0.99691134691238403
vn 0.010923022404313087 0.99994033575057983 -0.00012693525059148669
vn -0.048006348311901093 0.70663034915924072 -0.70595246553421021
vn -0.078526958823204041 -0.00073061330476775765 -0.99691170454025269
vn -0.063266739249229431 -0.70663249492645264 -0.70474660396575928
vn -0.010923492722213268 -0.99994033575057983 0.00012665547546930611
vn 0.048004910349845886 -0.70663058757781982 0.70595240592956543
vn -0.09543994814157486 0.70464390516281128 -0.70311325788497925
vn -0.095439955592155457 0.99543458223342896 0.001079285517334938
vn -0.095440015196800232 0.70311957597732544 0.70463758707046509
vn -0.095440156757831573 -0.0010786746861413121 0.99543458223342896
vn -0.09543994814157486 -0.70464390516281128 0.70311325788497925
vn -0.095439955592155457 -0.99543458223342896 -0.001079285517334938
vn -0.095440015196800232 -0.70311957597732544 -0.70463758707046509
vn -0.095440156757831573 0.0010786638595163822 -0.99543458223342896
vn -0.18804046511650085 0.13433443009853363 -0.97293108701705933
vn -0.18804027140140533 -0.59298145771026611 -0.78295201063156128
vn -0.18803992867469788 -0.97293168306350708 -0.13433130085468292
vn -0.18804062902927399 -0.78295832872390747 0.59297299385070801
vn -0.18804046511650085 -0.13433443009853363 0.97293108701705933
vn -0.18804027140140533 0.59298145771026611 0.78295201063156128
vn -0.18803992867469788 0.97293168306350708 0.13433130085468292
vn -0.18804062902927399 0.78295832872390747 -0.59297299385070801
vn 0.79717797040939331 -0.60374438762664795 0
vn 0.13676904141902924 -0.99060297012329102 0
vn -0.60374438762664795 -0.79717797040939331 0
vn -0.99060297012329102 -0.13676904141902924 0
vn -0.79717797040939331 0.60374438762664795 0
vn -0.13676904141902924 0.99060297012329102 0
vn 0.60374438762664795 0.79717797040939331 0
vn 0.99060297012329102 0.13676904141902924 0
vn 0 0 -1
vn 0 -0.70710974931716919 -0.70710384845733643
vn 0 -1 -1.075257305416244e-08
vn 0 -0.70710974931716919 0.70710384845733643
vn 0 0 1
vn 0 0.70710974931716919 0.70710384845733643
vn 0 1 1.075257305416244e-08
vn 0 0.70710974931716919 -0.70710384845733643
vn 0.79717797040939331 -0.60374438762664795 0
vn 0.13676904141902924 -0.99060297012329102 0
vn -0.60374438762664795 -0.79717797040939331 0
vn -0.99060297012329102 -0.13676904141902924 0
vn -0.79717797040939331 0.60374438762664795 0
vn -0.13676904141902924 0.99060297012329102 0
vn 0.60374438762664795 0.79717797040939331 0
vn 0.99060297012329102 0.13676904141902924 0
vn 0.99060297012329102 -0.13676904141902924 0
vn 0.79717803001403809 0.60374438762664795 0
vn 0.13676904141902924 0.99060297012329102 0
vn -0.60374438762664795 0.79717803001403809 0
vn -0.99060297012329102 0.13676904141902924 0
vn -0.79717803001403809 -0.60374438762664795 0
vn -0.13676904141902924 -0.99060297012329102 0
vn 0.60374438762664795 -0.79717803001403809 0
vn 0 0 -1
vn 0 0 1
vn 0 0 -1
vn 0 0 1
vn 0 0 -1
vn 0 0 1
vn 0 0 -1
vn 0 0 1
vn 0 0 -1
vn 0 0 1
vn 0 0 -1
vn 0 0 1
vn 0 0 -1
vn 0 0 1
vn 0 0 -1
vn 0 0 1
vn -1 0 0
vn 1 0 0
vn -1 0 0
vn 1 0 0
vn -1 0 0
vn 1 0 0
vn -1 0 0
vn 1 0 0
vn -1 0 0
vn 1 0 0
vn -1 0 0
vn 1 0 0
vn -1 0 0
vn 1 0 0
vn -1 0 0
vn 1 0 0
vn 1 0 0
vn -1 0 0
vn 1 0 0
vn -1 0 0
vn 1 0 0
vn -1 0 0
vn 1 0 0
vn -1 0 0
vn 1 0 0
vn -1 0 0
vn 1 0 0
vn -1 0 0
vn 1 0 0
vn -1 0 0
vn 1 0 0
vn -1 0 0
vn -1 0 0
vn -1 0 0
vn -1 0 0
vn -1 0 0
vn -1 0 0
vn -1 0 0
vn -1 0 0
vn -1 0 0
vn 0 0 -1
vn 0 0 -1
vn 0 0 -1
vn 0 0 -1
vn 0 0 -1
vn 0 0 -1
vn 0 0 -1
vn 0 0 -1
vn -1 0 0
vn 1 0 0
vn -1 0 0
vn 1 0 0
vn -1 0 0
vn 1 0 0
vn -1 0 0
vn 1 0 0
vn -1 0 0
vn 1 0 0
vn -1 0 0
vn 1 0 0
vn -1 0 0
vn 1 0 0
vn -1 0 0
vn 1 0 0
vn 0 0 -1
vn 0 0 -1
vn 0 0 -1
vn 0 0 -1
vn 0 0 -1
vn 0 0 -1
vn 0 0 -1
vn 0 0 -1
vn 0 0 1
vn 0 0 1
vn 0 0 1
vn 0 0 1
vn 0 0 1
vn 0 0 1
vn 0 0 1
vn 0 0 1
# 192 elements written
f 97//97 99//99 101//101 
f 97//97 101//101 103//103 
f 97//97 103//103 105//105 
f 97//97 105//105 107//107 
f 97//97 107//107 109//109 
f 97//97 109//109 111//111 
f 8//8 7//7 9//9 
f 8//8 9//9 10//10 
f 7//7 6//6 11//11 
f 7//7 11//11 9//9 
f 6//6 5//5 12//12 
f 6//6 12//12 11//11 
f 5//5 4//4 13//13 
f 5//5 13//13 12//12 
f 4//4 3//3 14//14 
f 4//4 14//14 13//13 
f 3//3 2//2 15//15 
f 3//3 15//15 14//14 
f 2//2 1//1 16//16 
f 2//2 16//16 15//15 
f 1//1 8//8 10//10 
f 1//1 10//10 16//16 
f 10//10 9//9 17//17 
f 10//10 17//17 18//18 
f 9//9 11//11 19//19 
f 9//9 19//19 17//17 
f 11//11 12//12 20//20 
f 11//11 20//20 19//19 
f 12//12 13//13 21//21 
f 12//12 21//21 20//20 
f 13//13 14//14 22//22 
f 13//13 22//22 21//21 
f 14//14 15//15 23//23 
f 14//14 23//23 22//22 
f 15//15 16//16 24//24 
f 15//15 24//24 23//23 
f 16//16 10//10 18//18 
f 16//16 18//18 24//24 
f 18//18 17//17 25//25 
f 18//18 25//25 26//26 
f 17//17 19//19 27//27 
f 17//17 27//27 25//25 
f 19//19 20//20 28//28 
f 19//19 28//28 27//27 
f 20//20 21//21 29//29 
f 20//20 29//29 28//28 
f 21//21 22//22 30//30 
f 21//21 30//30 29//29 
f 22//22 23//23 31//31 
f 22//22 31//31 30//30 
f 23//23 24//24 32//32 
f 23//23 32//32 31//31 
f 24//24 18//18 26//26 
f 24//24 26//26 32//32 
f 26//26 25//25 33//33 
f 26//26 33//33 34//34 
f 25//25 27//27 35//35 
f 25//25 35//35 33//33 
f 27//27 28//28 36//36 
f 27//27 36//36 35//35 
f 28//28 29//29 37//37 
f 28//28 37//37 36//36 
f 29//29 30//30 38//38 
f 29//29 38//38 37//37 
f 30//30 31//31 39//39 
f 30//30 39//39 38//38 
f 31//31 32//32 40//40 
f 31//31 40//40 39//39 
f 32//32 26//26 34//34 
f 32//32 34//34 40//40 
f 34//34 33//33 41//41 
f 34//34 41//41 42//42 
f 33//33 35//35 43//43 
f 33//33 43//43 41//41 
f 35//35 36//36 44//44 
f 35//35 44//44 43//43 
f 36//36 37//37 45//45 
f 36//36 45//45 44//44 
f 37//37 38//38 46//46 
f 37//37 46//46 45//45 
f 38//38 39//39 47//47 
f 38//38 47//47 46//46 
f 39//39 40//40 48//48 
f 39//39 48//48 47//47 
f 40//40 34//34 42//42 
f 40//40 42//42 48//48 
f 115//115 113//113 117//117 
f 115//115 117//117 119//119 
f 115//115 119//119 121//121 
f 115//115 121//121 123//123 
f 115//115 123//123 125//125 
f 115//115 125//125 127//127 
f 129//129 131//131 133//133 
f 129//129 133//133 135//135 
f 129//129 135//135 137//137 
f 129//129 137//137 139//139 
f 129//129 139//139 141//141 
f 129//129 141//141 143//143 
f 145//145 146//146 147//147 
f 145//145 147//147 148//148 
f 145//145 148//148 149//149 
f 145//145 149//149 150//150 
f 145//145 150//150 151//151 
f 145//145 151//151 152//152 
f 56//56 55//55 58//58 
f 56//56 58//58 57//57 
f 55//55 54//54 59//59 
f 55//55 59//59 58//58 
f 54//54 53//53 60//60 
f 54//54 60//60 59//59 
f 53//53 52//52 61//61 
f 53//53 61//61 60//60 
f 52//52 51//51 62//62 
f 52//52 62//62 61//61 
f 51//51 50//50 63//63 
f 51//51 63//63 62//62 
f 50//50 49//49 64//64 
f 50//50 64//64 63//63 
f 49//49 56//56 57//57 
f 49//49 57//57 64//64 
f 153//153 154//154 155//155 
f 153//153 155//155 156//156 
f 153//153 156//156 157//157 
f 153//153 157//157 158//158 
f 153//153 158//158 159//159 
f 153//153 159//159 160//160 
f 112//112 110//110 108//108 
f 112//112 108//108 106//106 
f 112//112 106//106 104//104 
f 112//112 104//104 102//102 
f 112//112 102//102 100//100 
f 112//112 100//100 98//98 
f 72//72 71//71 7//7 
f 72//72 7//7 8//8 
f 71//71 70//70 6//6 
f 71//71 6//6 7//7 
f 70//70 69//69 5//5 
f 70//70 5//5 6//6 
f 69//69 68//68 4//4 
f 69//69 4//4 5//5 
f 68//68 67//67 3//3 
f 68//68 3//3 4//4 
f 67//67 66//66 2//2 
f 67//67 2//2 3//3 
f 66//66 65//65 1//1 
f 66//66 1//1 2//2 
f 65//65 72//72 8//8 
f 65//65 8//8 1//1 
f 120//120 118//118 114//114 
f 120//120 114//114 116//116 
f 120//120 116//116 128//128 
f 120//120 128//128 126//126 
f 120//120 126//126 124//124 
f 120//120 124//124 122//122 
f 161//161 163//163 165//165 
f 161//161 165//165 167//167 
f 161//161 167//167 169//169 
f 161//161 169//169 171//171 
f 161//161 171//171 173//173 
f 161//161 173//173 175//175 
f 45//45 46//46 74//74 
f 45//45 74//74 73//73 
f 46//46 47//47 75//75 
f 46//46 75//75 74//74 
f 47//47 48//48 76//76 
f 47//47 76//76 75//75 
f 48//48 42//42 77//77 
f 48//48 77//77 76//76 
f 42//42 41//41 78//78 
f 42//42 78//78 77//77 
f 41//41 43//43 79//79 
f 41//41 79//79 78//78 
f 43//43 44//44 80//80 
f 43//43 80//80 79//79 
f 44//44 45//45 73//73 
f 44//44 73//73 80//80 
f 142//142 140//140 138//138 
f 142//142 138//138 136//136 
f 142//142 136//136 134//134 
f 142//142 134//134 132//132 
f 142//142 132//132 130//130 
f 142//142 130//130 144//144 
f 162//162 176//176 174//174 
f 162//162 174//174 172//172 
f 162//162 172//172 170//170 
f 162//162 170//170 168//168 
f 162//162 168//168 166//166 
f 162//162 166//166 164//164 
f 56//56 49//49 80//80 
f 56//56 80//80 73//73 
f 49//49 50//50 79//79 
f 49//49 79//79 80//80 
f 50//50 51//51 78//78 
f 50//50 78//78 79//79 
f 51//51 52//52 77//77 
f 51//51 77//77 78//78 
f 52//52 53//53 76//76 
f 52//52 76//76 77//77 
f 53//53 54//54 75//75 
f 53//53 75//75 76//76 
f 54//54 55//55 74//74 
f 54//54 74//74 75//75 
f 55//55 56//56 73//73 
f 55//55 73//73 74//74 
f 177//177 178//178 179//179 
f 177//177 179//179 180//180 
f 177//177 180//180 181//181 
f 177//177 181//181 182//182 
f 177//177 182//182 183//183 
f 177//177 183//183 184//184 
f 185//185 186//186 187//187 
f 185//185 187//187 188//188 
f 185//185 188//188 189//189 
f 185//185 189//189 190//190 
f 185//185 190//190 191//191 
f 185//185 191//191 192//192 
f 88//88 87//87 90//90 
f 88//88 90//90 89//89 
f 87//87 86//86 91//91 
f 87//87 91//91 90//90 
f 86//86 85//85 92//92 
f 86//86 92//92 91//91 
f 85//85 84//84 93//93 
f 85//85 93//93 92//92 
f 84//84 83//83 94//94 
f 84//84 94//94 93//93 
f 83//83 82//82 95//95 
f 83//83 95//95 94//94 
f 82//82 81//81 96//96 
f 82//82 96//96 95//95 
f 81//81 88//88 89//89 
f 81//81 89//89 96//96 
