# file written by OpenSceneGraph

mtllib g20.mtl


o _Geometry_0

v -5827.462890625 20022.53515625 -1872.199951171875
v -5859.5498046875 20100 -1872.199951171875
v -5827.462890625 20177.46484375 -1872.199951171875
v -5750 20209.55078125 -1872.199951171875
v -5672.537109375 20177.46484375 -1872.199951171875
v -5640.4501953125 20100 -1872.199951171875
v -5672.537109375 20022.53515625 -1872.199951171875
v -5750 19990.44921875 -1872.199951171875
v -5750 19990.44921875 -1719.800048828125
v -5690.4970703125 20015.09765625 -1719.800048828125
v -5665.85009765625 20074.599609375 -1719.800048828125
v -5690.4970703125 20134.103515625 -1719.800048828125
v -5750 20158.75 -1719.800048828125
v -5809.5029296875 20134.103515625 -1719.800048828125
v -5834.14990234375 20074.599609375 -1719.800048828125
v -5809.5029296875 20015.09765625 -1719.800048828125
v -5672.537109375 20022.53515625 -14200
v -5750 19990.44921875 -14200
v -5827.462890625 20022.53515625 -14200
v -5859.5498046875 20100 -14200
v -5827.462890625 20177.46484375 -14200
v -5750 20209.55078125 -14200
v -5672.537109375 20177.46484375 -14200
v -5640.4501953125 20100 -14200
v -5640.4501953125 20100 -2977.800048828125
v -5672.537109375 20177.46484375 -2977.800048828125
v -5750 20209.55078125 -2977.800048828125
v -5827.462890625 20177.46484375 -2977.800048828125
v -5859.5498046875 20100 -2977.800048828125
v -5827.462890625 20022.53515625 -2977.800048828125
v -5750 19990.44921875 -2977.800048828125
v -5672.537109375 20022.53515625 -2977.800048828125
v -5672.537109375 20022.53515625 -2622.199951171875
v -5750 19990.44921875 -2622.199951171875
v -5827.462890625 20022.53515625 -2622.199951171875
v -5859.5498046875 20100 -2622.199951171875
v -5827.462890625 20177.46484375 -2622.199951171875
v -5750 20209.55078125 -2622.199951171875
v -5672.537109375 20177.46484375 -2622.199951171875
v -5640.4501953125 20100 -2622.199951171875
v -5640.4501953125 20100 -2227.800048828125
v -5672.537109375 20177.46484375 -2227.800048828125
v -5750 20209.55078125 -2227.800048828125
v -5827.462890625 20177.46484375 -2227.800048828125
v -5859.5498046875 20100 -2227.800048828125
v -5827.462890625 20022.53515625 -2227.800048828125
v -5750 19990.44921875 -2227.800048828125
v -5672.537109375 20022.53515625 -2227.800048828125
v -5672.537109375 20100 -2877.464111328125
v -5750 20100 -2909.550048828125
v -5827.462890625 20100 -2877.464111328125
v -5859.5498046875 20100 -2800
v -5827.462890625 20100 -2722.535888671875
v -5750 20100 -2690.449951171875
v -5672.537109375 20100 -2722.535888671875
v -5640.4501953125 20100 -2800
v -5640.4501953125 19922.19921875 -2800
v -5672.537109375 19922.19921875 -2722.535888671875
v -5750 19922.19921875 -2690.449951171875
v -5827.462890625 19922.19921875 -2722.535888671875
v -5859.5498046875 19922.19921875 -2800
v -5827.462890625 19922.19921875 -2877.464111328125
v -5750 19922.19921875 -2909.550048828125
v -5672.537109375 19922.19921875 -2877.464111328125
v -5695.22509765625 20045.224609375 -1972.5360107421875
v -5750 20100 -1940.449951171875
v -5804.77490234375 20154.775390625 -1972.5360107421875
v -5827.462890625 20177.46484375 -2050
v -5804.77490234375 20154.775390625 -2127.464111328125
v -5750 20100 -2159.550048828125
v -5695.22509765625 20045.224609375 -2127.464111328125
v -5672.537109375 20022.53515625 -2050
v -5546.81591796875 20148.2578125 -2050
v -5569.5048828125 20170.9453125 -2127.464111328125
v -5624.27978515625 20225.71875 -2159.550048828125
v -5679.05517578125 20280.49609375 -2127.464111328125
v -5701.744140625 20303.18359375 -2050
v -5679.05517578125 20280.49609375 -1972.5360107421875
v -5624.27978515625 20225.71875 -1940.449951171875
v -5569.5048828125 20170.9453125 -1972.5360107421875
v -5827.462890625 20022.53515625 -1872.199951171875
v -5827.462890625 20022.53515625 -1872.199951171875
v -5859.5498046875 20100 -1872.199951171875
v -5859.5498046875 20100 -1872.199951171875
v -5827.462890625 20177.46484375 -1872.199951171875
v -5827.462890625 20177.46484375 -1872.199951171875
v -5750 20209.55078125 -1872.199951171875
v -5750 20209.55078125 -1872.199951171875
v -5672.537109375 20177.46484375 -1872.199951171875
v -5672.537109375 20177.46484375 -1872.199951171875
v -5640.4501953125 20100 -1872.199951171875
v -5640.4501953125 20100 -1872.199951171875
v -5672.537109375 20022.53515625 -1872.199951171875
v -5672.537109375 20022.53515625 -1872.199951171875
v -5750 19990.44921875 -1872.199951171875
v -5750 19990.44921875 -1872.199951171875
v -5750 19990.44921875 -1719.800048828125
v -5690.4970703125 20015.09765625 -1719.800048828125
v -5665.85009765625 20074.599609375 -1719.800048828125
v -5690.4970703125 20134.103515625 -1719.800048828125
v -5750 20158.75 -1719.800048828125
v -5809.5029296875 20134.103515625 -1719.800048828125
v -5834.14990234375 20074.599609375 -1719.800048828125
v -5809.5029296875 20015.09765625 -1719.800048828125
v -5672.537109375 20022.53515625 -14200
v -5750 19990.44921875 -14200
v -5827.462890625 20022.53515625 -14200
v -5859.5498046875 20100 -14200
v -5827.462890625 20177.46484375 -14200
v -5750 20209.55078125 -14200
v -5672.537109375 20177.46484375 -14200
v -5640.4501953125 20100 -14200
v -5640.4501953125 20100 -2977.800048828125
v -5640.4501953125 20100 -2977.800048828125
v -5672.537109375 20177.46484375 -2977.800048828125
v -5672.537109375 20177.46484375 -2977.800048828125
v -5750 20209.55078125 -2977.800048828125
v -5750 20209.55078125 -2977.800048828125
v -5827.462890625 20177.46484375 -2977.800048828125
v -5827.462890625 20177.46484375 -2977.800048828125
v -5859.5498046875 20100 -2977.800048828125
v -5859.5498046875 20100 -2977.800048828125
v -5827.462890625 20022.53515625 -2977.800048828125
v -5827.462890625 20022.53515625 -2977.800048828125
v -5750 19990.44921875 -2977.800048828125
v -5750 19990.44921875 -2977.800048828125
v -5672.537109375 20022.53515625 -2977.800048828125
v -5672.537109375 20022.53515625 -2977.800048828125
v -5672.537109375 20022.53515625 -2622.199951171875
v -5672.537109375 20022.53515625 -2622.199951171875
v -5750 19990.44921875 -2622.199951171875
v -5750 19990.44921875 -2622.199951171875
v -5827.462890625 20022.53515625 -2622.199951171875
v -5827.462890625 20022.53515625 -2622.199951171875
v -5859.5498046875 20100 -2622.199951171875
v -5859.5498046875 20100 -2622.199951171875
v -5827.462890625 20177.46484375 -2622.199951171875
v -5827.462890625 20177.46484375 -2622.199951171875
v -5750 20209.55078125 -2622.199951171875
v -5750 20209.55078125 -2622.199951171875
v -5672.537109375 20177.46484375 -2622.199951171875
v -5672.537109375 20177.46484375 -2622.199951171875
v -5640.4501953125 20100 -2622.199951171875
v -5640.4501953125 20100 -2622.199951171875
v -5640.4501953125 20100 -2227.800048828125
v -5640.4501953125 20100 -2227.800048828125
v -5672.537109375 20177.46484375 -2227.800048828125
v -5672.537109375 20177.46484375 -2227.800048828125
v -5750 20209.55078125 -2227.800048828125
v -5750 20209.55078125 -2227.800048828125
v -5827.462890625 20177.46484375 -2227.800048828125
v -5827.462890625 20177.46484375 -2227.800048828125
v -5859.5498046875 20100 -2227.800048828125
v -5859.5498046875 20100 -2227.800048828125
v -5827.462890625 20022.53515625 -2227.800048828125
v -5827.462890625 20022.53515625 -2227.800048828125
v -5750 19990.44921875 -2227.800048828125
v -5750 19990.44921875 -2227.800048828125
v -5672.537109375 20022.53515625 -2227.800048828125
v -5672.537109375 20022.53515625 -2227.800048828125
v -5672.537109375 20100 -2877.464111328125
v -5750 20100 -2909.550048828125
v -5827.462890625 20100 -2877.464111328125
v -5859.5498046875 20100 -2800
v -5827.462890625 20100 -2722.535888671875
v -5750 20100 -2690.449951171875
v -5672.537109375 20100 -2722.535888671875
v -5640.4501953125 20100 -2800
v -5640.4501953125 19922.19921875 -2800
v -5672.537109375 19922.19921875 -2722.535888671875
v -5750 19922.19921875 -2690.449951171875
v -5827.462890625 19922.19921875 -2722.535888671875
v -5859.5498046875 19922.19921875 -2800
v -5827.462890625 19922.19921875 -2877.464111328125
v -5750 19922.19921875 -2909.550048828125
v -5672.537109375 19922.19921875 -2877.464111328125
v -5695.22509765625 20045.224609375 -1972.5360107421875
v -5750 20100 -1940.449951171875
v -5804.77490234375 20154.775390625 -1972.5360107421875
v -5827.462890625 20177.46484375 -2050
v -5804.77490234375 20154.775390625 -2127.464111328125
v -5750 20100 -2159.550048828125
v -5695.22509765625 20045.224609375 -2127.464111328125
v -5672.537109375 20022.53515625 -2050
v -5546.81591796875 20148.2578125 -2050
v -5569.5048828125 20170.9453125 -2127.464111328125
v -5624.27978515625 20225.71875 -2159.550048828125
v -5679.05517578125 20280.49609375 -2127.464111328125
v -5701.744140625 20303.18359375 -2050
v -5679.05517578125 20280.49609375 -1972.5360107421875
v -5624.27978515625 20225.71875 -1940.449951171875
v -5569.5048828125 20170.9453125 -1972.5360107421875
# 192 elements written

vn -0.70681363344192505 -0.7072138786315918 0.016213862225413322
vn -0.99747699499130249 -0.0010248463368043303 0.070983536541461945
vn -0.70096504688262939 0.70111531019210815 0.13071070611476898
vn 0.0030868684407323599 0.98698675632476807 0.16077153384685516
vn 0.70277965068817139 0.69632023572921753 0.1457357257604599
vn 0.99562990665435791 -0.0028953622095286846 0.09334266185760498
vn 0.706337571144104 -0.70713150501251221 0.032437492161989212
vn -5.9139222230442101e-07 -1 -2.740169406934001e-07
vn -0.13677248358726501 -0.99060243368148804 -7.0452222189487657e-07
vn 0.60285085439682007 -0.79720669984817505 0.032129310071468353
vn 0.98033851385116577 -0.13879801332950592 0.14025528728961945
vn 0.77287507057189941 0.58051711320877075 0.25625011324882507
vn 0.12987543642520905 0.94064873456954956 0.31354790925979614
vn -0.58172225952148438 0.7617192268371582 0.28527724742889404
vn -0.97411322593688965 0.13105787336826324 0.18419335782527924
vn -0.79508399963378906 -0.60308551788330078 0.06425948441028595
vn 0.79717320203781128 -0.60375064611434937 0
vn 0.13677261769771576 -0.99060243368148804 0
vn -0.60374575853347778 -0.7971770167350769 0
vn -0.99060207605361938 -0.13677501678466797 0
vn -0.79717320203781128 0.60375064611434937 0
vn -0.13677261769771576 0.99060243368148804 0
vn 0.60374575853347778 0.7971770167350769 0
vn 0.99060207605361938 0.13677501678466797 0
vn 1 0 0
vn 0.70710450410842896 0.70710903406143188 0
vn 0 1 0
vn -0.70710450410842896 0.70710903406143188 0
vn -1 0 0
vn -0.70710450410842896 -0.70710903406143188 0
vn 0 -1 0
vn 0.70710450410842896 -0.70710903406143188 0
vn 0.70710450410842896 -0.70710903406143188 0
vn -1.0752588153195575e-08 -1 0
vn -0.70710450410842896 -0.70710903406143188 0
vn -1 -1.0752617463083425e-08 0
vn -0.70710450410842896 0.70710903406143188 0
vn 1.0752588153195575e-08 1 0
vn 0.70710450410842896 0.70710903406143188 0
vn 1 5.3763087315417124e-09 0
vn 1 -1.0752617463083425e-08 0
vn 0.70710450410842896 0.70710903406143188 0
vn -5.3762940765977874e-09 1 0
vn -0.70710450410842896 0.70710903406143188 0
vn -1 5.3763087315417124e-09 0
vn -0.70710450410842896 -0.70710903406143188 0
vn 5.3762940765977874e-09 -1 0
vn 0.70710450410842896 -0.70710903406143188 0
vn 0.79717361927032471 0 -0.60375005006790161
vn 0.13677263259887695 0 -0.99060249328613281
vn -0.60374593734741211 0 -0.7971767783164978
vn -0.99060219526290894 0 -0.13677459955215454
vn -0.79717361927032471 0 0.60375005006790161
vn -0.13677263259887695 0 0.99060249328613281
vn 0.60374593734741211 0 0.7971767783164978
vn 0.99060219526290894 0 0.13677459955215454
vn 0.99060219526290894 0 -0.13677459955215454
vn 0.79717361927032471 0 0.60375010967254639
vn 0.13677263259887695 0 0.99060249328613281
vn -0.60374593734741211 0 0.7971767783164978
vn -0.99060219526290894 0 0.13677459955215454
vn -0.79717361927032471 0 -0.60375010967254639
vn -0.13677263259887695 0 -0.99060249328613281
vn 0.60374593734741211 0 -0.7971767783164978
vn 0.56368839740753174 -0.56368798017501831 0.60374754667282104
vn 0.096713095903396606 -0.09671272337436676 0.99060243368148804
vn -0.42691296339035034 0.42691335082054138 0.79717642068862915
vn -0.70046341419219971 0.70045983791351318 0.13677379488945007
vn -0.56368905305862427 0.56368726491928101 -0.60374760627746582
vn -0.096711397171020508 0.096711419522762299 -0.99060273170471191
vn 0.42691409587860107 -0.42691323161125183 -0.79717588424682617
vn 0.70046126842498779 -0.70046210289001465 -0.1367732435464859
vn 0.70046138763427734 -0.70046228170394897 0.13677144050598145
vn 0.56368875503540039 -0.56368845701217651 -0.60374683141708374
vn 0.096713103353977203 -0.09671272337436676 -0.99060249328613281
vn -0.42691123485565186 0.42691165208816528 -0.79717826843261719
vn -0.70046371221542358 0.70046007633209229 -0.13677088916301727
vn -0.56368887424468994 0.56368708610534668 0.60374802350997925
vn -0.096711091697216034 0.096711091697216034 0.99060279130935669
vn 0.42691320180892944 -0.42691230773925781 0.79717683792114258
vn 0 0 -1
vn 0 0 1
vn 0 0 -1
vn 0 0 1
vn 0 0 -1
vn 0 0 1
vn 0 0 -1
vn 0 0 1
vn 0 0 -1
vn 0 0 1
vn 0 0 -1
vn 0 0 1
vn 0 0 -1
vn 0 0 1
vn 0 0 -1
vn 0 0 1
vn 0 0 1
vn 0 0 1
vn 0 0 1
vn 0 0 1
vn 0 0 1
vn 0 0 1
vn 0 0 1
vn 0 0 1
vn 0 0 -1
vn 0 0 -1
vn 0 0 -1
vn 0 0 -1
vn 0 0 -1
vn 0 0 -1
vn 0 0 -1
vn 0 0 -1
vn 0 0 1
vn 0 0 -1
vn 0 0 1
vn 0 0 -1
vn 0 0 1
vn 0 0 -1
vn 0 0 1
vn 0 0 -1
vn 0 0 1
vn 0 0 -1
vn 0 0 1
vn 0 0 -1
vn 0 0 1
vn 0 0 -1
vn 0 0 1
vn 0 0 -1
vn 0 0 -1
vn 0 0 1
vn 0 0 -1
vn 0 0 1
vn 0 0 -1
vn 0 0 1
vn 0 0 -1
vn 0 0 1
vn 0 0 -1
vn 0 0 1
vn 0 0 -1
vn 0 0 1
vn 0 0 -1
vn 0 0 1
vn 0 0 -1
vn 0 0 1
vn 0 0 1
vn 0 0 -1
vn 0 0 1
vn 0 0 -1
vn 0 0 1
vn 0 0 -1
vn 0 0 1
vn 0 0 -1
vn 0 0 1
vn 0 0 -1
vn 0 0 1
vn 0 0 -1
vn 0 0 1
vn 0 0 -1
vn 0 0 1
vn 0 0 -1
vn 0 1 0
vn 0 1 0
vn 0 1 0
vn 0 1 0
vn 0 1 0
vn 0 1 0
vn 0 1 0
vn 0 1 0
vn 0 -1 0
vn 0 -1 0
vn 0 -1 0
vn 0 -1 0
vn 0 -1 0
vn 0 -1 0
vn 0 -1 0
vn 0 -1 0
vn -0.70711088180541992 -0.70710265636444092 -1.2710890473499603e-07
vn -0.70710992813110352 -0.70710361003875732 0
vn -0.70710992813110352 -0.70710361003875732 -1.3019420066484599e-06
vn -0.70711058378219604 -0.70710295438766479 -3.8132665736156923e-07
vn -0.70711058378219604 -0.70710295438766479 9.2061526402176241e-07
vn -0.70710992813110352 -0.70710361003875732 0
vn -0.70711213350296021 -0.70710140466690063 0
vn -0.70711439847946167 -0.70709919929504395 0
vn 0.70710444450378418 0.70710903406143188 -1.1368682416908887e-13
vn 0.70710456371307373 0.70710903406143188 -3.1677391234552488e-06
vn 0.70710498094558716 0.70710855722427368 -3.8216007851588074e-06
vn 0.70710444450378418 0.70710909366607666 -1.0294299954693997e-06
vn 0.707103431224823 0.70711010694503784 -1.9326762412674725e-12
vn 0.70710444450378418 0.70710909366607666 1.0294255616827286e-06
vn 0.70710498094558716 0.70710855722427368 3.8216021494008601e-06
vn 0.70710456371307373 0.70710903406143188 3.1677475362812402e-06
# 192 elements written
f 81//81 83//83 85//85 
f 81//81 85//85 87//87 
f 81//81 87//87 89//89 
f 81//81 89//89 91//91 
f 81//81 91//91 93//93 
f 81//81 93//93 95//95 
f 97//97 98//98 99//99 
f 97//97 99//99 100//100 
f 97//97 100//100 101//101 
f 97//97 101//101 102//102 
f 97//97 102//102 103//103 
f 97//97 103//103 104//104 
f 8//8 7//7 10//10 
f 8//8 10//10 9//9 
f 7//7 6//6 11//11 
f 7//7 11//11 10//10 
f 6//6 5//5 12//12 
f 6//6 12//12 11//11 
f 5//5 4//4 13//13 
f 5//5 13//13 12//12 
f 4//4 3//3 14//14 
f 4//4 14//14 13//13 
f 3//3 2//2 15//15 
f 3//3 15//15 14//14 
f 2//2 1//1 16//16 
f 2//2 16//16 15//15 
f 1//1 8//8 9//9 
f 1//1 9//9 16//16 
f 105//105 106//106 107//107 
f 105//105 107//107 108//108 
f 105//105 108//108 109//109 
f 105//105 109//109 110//110 
f 105//105 110//110 111//111 
f 105//105 111//111 112//112 
f 113//113 115//115 117//117 
f 113//113 117//117 119//119 
f 113//113 119//119 121//121 
f 113//113 121//121 123//123 
f 113//113 123//123 125//125 
f 113//113 125//125 127//127 
f 24//24 23//23 26//26 
f 24//24 26//26 25//25 
f 23//23 22//22 27//27 
f 23//23 27//27 26//26 
f 22//22 21//21 28//28 
f 22//22 28//28 27//27 
f 21//21 20//20 29//29 
f 21//21 29//29 28//28 
f 20//20 19//19 30//30 
f 20//20 30//30 29//29 
f 19//19 18//18 31//31 
f 19//19 31//31 30//30 
f 18//18 17//17 32//32 
f 18//18 32//32 31//31 
f 17//17 24//24 25//25 
f 17//17 25//25 32//32 
f 129//129 131//131 133//133 
f 129//129 133//133 135//135 
f 129//129 135//135 137//137 
f 129//129 137//137 139//139 
f 129//129 139//139 141//141 
f 129//129 141//141 143//143 
f 145//145 147//147 149//149 
f 145//145 149//149 151//151 
f 145//145 151//151 153//153 
f 145//145 153//153 155//155 
f 145//145 155//155 157//157 
f 145//145 157//157 159//159 
f 40//40 39//39 42//42 
f 40//40 42//42 41//41 
f 39//39 38//38 43//43 
f 39//39 43//43 42//42 
f 38//38 37//37 44//44 
f 38//38 44//44 43//43 
f 37//37 36//36 45//45 
f 37//37 45//45 44//44 
f 36//36 35//35 46//46 
f 36//36 46//46 45//45 
f 35//35 34//34 47//47 
f 35//35 47//47 46//46 
f 34//34 33//33 48//48 
f 34//34 48//48 47//47 
f 33//33 40//40 41//41 
f 33//33 41//41 48//48 
f 142//142 140//140 138//138 
f 142//142 138//138 136//136 
f 142//142 136//136 134//134 
f 142//142 134//134 132//132 
f 142//142 132//132 130//130 
f 142//142 130//130 144//144 
f 114//114 128//128 126//126 
f 114//114 126//126 124//124 
f 114//114 124//124 122//122 
f 114//114 122//122 120//120 
f 114//114 120//120 118//118 
f 114//114 118//118 116//116 
f 40//40 33//33 32//32 
f 40//40 32//32 25//25 
f 33//33 34//34 31//31 
f 33//33 31//31 32//32 
f 34//34 35//35 30//30 
f 34//34 30//30 31//31 
f 35//35 36//36 29//29 
f 35//35 29//29 30//30 
f 36//36 37//37 28//28 
f 36//36 28//28 29//29 
f 37//37 38//38 27//27 
f 37//37 27//27 28//28 
f 38//38 39//39 26//26 
f 38//38 26//26 27//27 
f 39//39 40//40 25//25 
f 39//39 25//25 26//26 
f 161//161 162//162 163//163 
f 161//161 163//163 164//164 
f 161//161 164//164 165//165 
f 161//161 165//165 166//166 
f 161//161 166//166 167//167 
f 161//161 167//167 168//168 
f 169//169 170//170 171//171 
f 169//169 171//171 172//172 
f 169//169 172//172 173//173 
f 169//169 173//173 174//174 
f 169//169 174//174 175//175 
f 169//169 175//175 176//176 
f 56//56 55//55 58//58 
f 56//56 58//58 57//57 
f 55//55 54//54 59//59 
f 55//55 59//59 58//58 
f 54//54 53//53 60//60 
f 54//54 60//60 59//59 
f 53//53 52//52 61//61 
f 53//53 61//61 60//60 
f 52//52 51//51 62//62 
f 52//52 62//62 61//61 
f 51//51 50//50 63//63 
f 51//51 63//63 62//62 
f 50//50 49//49 64//64 
f 50//50 64//64 63//63 
f 49//49 56//56 57//57 
f 49//49 57//57 64//64 
f 90//90 88//88 86//86 
f 90//90 86//86 84//84 
f 90//90 84//84 82//82 
f 90//90 82//82 96//96 
f 90//90 96//96 94//94 
f 90//90 94//94 92//92 
f 146//146 160//160 158//158 
f 146//146 158//158 156//156 
f 146//146 156//156 154//154 
f 146//146 154//154 152//152 
f 146//146 152//152 150//150 
f 146//146 150//150 148//148 
f 6//6 7//7 48//48 
f 6//6 48//48 41//41 
f 7//7 8//8 47//47 
f 7//7 47//47 48//48 
f 8//8 1//1 46//46 
f 8//8 46//46 47//47 
f 1//1 2//2 45//45 
f 1//1 45//45 46//46 
f 2//2 3//3 44//44 
f 2//2 44//44 45//45 
f 3//3 4//4 43//43 
f 3//3 43//43 44//44 
f 4//4 5//5 42//42 
f 4//4 42//42 43//43 
f 5//5 6//6 41//41 
f 5//5 41//41 42//42 
f 177//177 178//178 179//179 
f 177//177 179//179 180//180 
f 177//177 180//180 181//181 
f 177//177 181//181 182//182 
f 177//177 182//182 183//183 
f 177//177 183//183 184//184 
f 185//185 186//186 187//187 
f 185//185 187//187 188//188 
f 185//185 188//188 189//189 
f 185//185 189//189 190//190 
f 185//185 190//190 191//191 
f 185//185 191//191 192//192 
f 72//72 71//71 74//74 
f 72//72 74//74 73//73 
f 71//71 70//70 75//75 
f 71//71 75//75 74//74 
f 70//70 69//69 76//76 
f 70//70 76//76 75//75 
f 69//69 68//68 77//77 
f 69//69 77//77 76//76 
f 68//68 67//67 78//78 
f 68//68 78//78 77//77 
f 67//67 66//66 79//79 
f 67//67 79//79 78//78 
f 66//66 65//65 80//80 
f 66//66 80//80 79//79 
f 65//65 72//72 73//73 
f 65//65 73//73 80//80 
