# file written by OpenSceneGraph

mtllib g21.mtl


o _Geometry_0

v -5448.72021484375 20485.4296875 -1990.4969482421875
v -5466.14697265625 20502.859375 -2050
v -5448.72021484375 20485.4296875 -2109.5029296875
v -5406.64501953125 20443.35546875 -2134.14990234375
v -5364.56982421875 20401.28125 -2109.5029296875
v -5347.14208984375 20383.8515625 -2050
v -5364.56982421875 20401.28125 -1990.4969482421875
v -5406.64501953125 20443.35546875 -1965.8499755859375
v -5301.6171875 20464.234375 -2004.5980224609375
v -5338.30615234375 20511.693359375 -1981.156982421875
v -5297.18994140625 20433.8046875 -2061.18798828125
v -5327.62109375 20438.228515625 -2117.779052734375
v -5375.0810546875 20474.91796875 -2141.219970703125
v -5411.77099609375 20522.37890625 -2117.779052734375
v -5416.19677734375 20552.80859375 -2061.18798828125
v -5385.76708984375 20548.3828125 -2004.5980224609375
v -5244.826171875 20521.0234375 -2045.52001953125
v -5276.6572265625 20573.34375 -2025.5799560546875
v -5252.12890625 20478.86328125 -2093.658935546875
v -5294.2890625 20471.5625 -2141.798095703125
v -5346.60693359375 20503.392578125 -2161.738037109375
v -5378.43798828125 20555.7109375 -2141.798095703125
v -5371.134765625 20597.87109375 -2093.658935546875
v -5328.97607421875 20605.173828125 -2045.52001953125
v -5199.7568359375 20566.09375 -2109.257080078125
v -5227.73193359375 20622.267578125 -2094.77001953125
v -5216.3681640625 20514.625 -2144.23193359375
v -5267.8359375 20498.015625 -2179.20703125
v -5324.009765625 20525.98828125 -2193.694091796875
v -5351.98583984375 20582.1640625 -2179.20703125
v -5335.375 20633.6328125 -2144.23193359375
v -5283.9072265625 20650.2421875 -2109.257080078125
v -5170.82080078125 20595.029296875 -2189.571044921875
v -5196.32080078125 20653.6796875 -2181.955078125
v -5193.408203125 20537.5859375 -2207.958984375
v -5250.85205078125 20514.998046875 -2226.345947265625
v -5309.501953125 20540.498046875 -2233.9619140625
v -5335.001953125 20599.1484375 -2226.345947265625
v -5312.4150390625 20656.591796875 -2207.958984375
v -5254.97119140625 20679.1796875 -2189.571044921875
v -5160.85009765625 20605 -2278.60009765625
v -5185.4970703125 20664.50390625 -2278.60009765625
v -5185.4970703125 20545.49609375 -2278.60009765625
v -5245 20520.849609375 -2278.60009765625
v -5304.5029296875 20545.49609375 -2278.60009765625
v -5329.14990234375 20605 -2278.60009765625
v -5304.5029296875 20664.50390625 -2278.60009765625
v -5245 20689.150390625 -2278.60009765625
v -5582.205078125 20183.64453125 -1990.4969482421875
v -5624.27978515625 20225.71875 -1965.8499755859375
v -5666.35498046875 20267.794921875 -1990.4969482421875
v -5683.783203125 20285.22265625 -2050
v -5666.35498046875 20267.794921875 -2109.5029296875
v -5624.27978515625 20225.71875 -2134.14990234375
v -5582.205078125 20183.64453125 -2109.5029296875
v -5564.77685546875 20166.216796875 -2050
v -5347.13720703125 20383.857421875 -2050
v -5364.56494140625 20401.28515625 -2109.5029296875
v -5406.64013671875 20443.359375 -2134.14990234375
v -5448.71484375 20485.43359375 -2109.5029296875
v -5466.14306640625 20502.86328125 -2050
v -5448.71484375 20485.43359375 -1990.4969482421875
v -5406.64013671875 20443.359375 -1965.8499755859375
v -5364.56494140625 20401.28515625 -1990.4969482421875
v -5160.85009765625 20605 -2657.10009765625
v -5185.4970703125 20545.49609375 -2657.10009765625
v -5245 20520.849609375 -2657.10009765625
v -5304.5029296875 20545.49609375 -2657.10009765625
v -5329.14990234375 20605 -2657.10009765625
v -5304.5029296875 20664.50390625 -2657.10009765625
v -5245 20689.150390625 -2657.10009765625
v -5185.4970703125 20664.50390625 -2657.10009765625
v -5448.72021484375 20485.4296875 -1990.4969482421875
v -5466.14697265625 20502.859375 -2050
v -5448.72021484375 20485.4296875 -2109.5029296875
v -5406.64501953125 20443.35546875 -2134.14990234375
v -5364.56982421875 20401.28125 -2109.5029296875
v -5347.14208984375 20383.8515625 -2050
v -5364.56982421875 20401.28125 -1990.4969482421875
v -5406.64501953125 20443.35546875 -1965.8499755859375
v -5160.85009765625 20605 -2278.60009765625
v -5160.85009765625 20605 -2278.60009765625
v -5185.4970703125 20664.50390625 -2278.60009765625
v -5185.4970703125 20664.50390625 -2278.60009765625
v -5185.4970703125 20545.49609375 -2278.60009765625
v -5185.4970703125 20545.49609375 -2278.60009765625
v -5245 20520.849609375 -2278.60009765625
v -5245 20520.849609375 -2278.60009765625
v -5304.5029296875 20545.49609375 -2278.60009765625
v -5304.5029296875 20545.49609375 -2278.60009765625
v -5329.14990234375 20605 -2278.60009765625
v -5329.14990234375 20605 -2278.60009765625
v -5304.5029296875 20664.50390625 -2278.60009765625
v -5304.5029296875 20664.50390625 -2278.60009765625
v -5245 20689.150390625 -2278.60009765625
v -5245 20689.150390625 -2278.60009765625
v -5582.205078125 20183.64453125 -1990.4969482421875
v -5624.27978515625 20225.71875 -1965.8499755859375
v -5666.35498046875 20267.794921875 -1990.4969482421875
v -5683.783203125 20285.22265625 -2050
v -5666.35498046875 20267.794921875 -2109.5029296875
v -5624.27978515625 20225.71875 -2134.14990234375
v -5582.205078125 20183.64453125 -2109.5029296875
v -5564.77685546875 20166.216796875 -2050
v -5347.13720703125 20383.857421875 -2050
v -5364.56494140625 20401.28515625 -2109.5029296875
v -5406.64013671875 20443.359375 -2134.14990234375
v -5448.71484375 20485.43359375 -2109.5029296875
v -5466.14306640625 20502.86328125 -2050
v -5448.71484375 20485.43359375 -1990.4969482421875
v -5406.64013671875 20443.359375 -1965.8499755859375
v -5364.56494140625 20401.28515625 -1990.4969482421875
v -5160.85009765625 20605 -2657.10009765625
v -5185.4970703125 20545.49609375 -2657.10009765625
v -5245 20520.849609375 -2657.10009765625
v -5304.5029296875 20545.49609375 -2657.10009765625
v -5329.14990234375 20605 -2657.10009765625
v -5304.5029296875 20664.50390625 -2657.10009765625
v -5245 20689.150390625 -2657.10009765625
v -5185.4970703125 20664.50390625 -2657.10009765625
# 120 elements written

vn -0.33597341179847717 0.5129239559173584 0.78995627164840698
vn -0.68498456478118896 0.71560937166213989 0.13674540817737579
vn -0.62898343801498413 0.4946422278881073 -0.59975725412368774
vn -0.20514698326587677 -0.014057477936148643 -0.97863024473190308
vn 0.33597075939178467 -0.51292109489440918 -0.78995925188064575
vn 0.68497717380523682 -0.71561765670776367 -0.13673919439315796
vn 0.62897831201553345 -0.49463880062103271 0.5997655987739563
vn 0.20514912903308868 0.014055204577744007 0.97862976789474487
vn 0.6447683572769165 -0.35692355036735535 0.67592847347259521
vn 0.21850983798503876 0.21850652992725372 0.95105648040771484
vn 0.69223427772521973 -0.7216411828994751 0.0067604971118271351
vn 0.33634915947914124 -0.66534817218780518 -0.66646915674209595
vn -0.2185121476650238 -0.21850991249084473 -0.95105510950088501
vn -0.64476877450942993 0.35692888498306274 -0.67592525482177734
vn -0.69223469495773315 0.72164100408554077 -0.0067480294965207577
vn -0.33635064959526062 0.66534560918807983 0.66647094488143921
vn 0.78542017936706543 -0.21627666056156158 0.57994788885116577
vn 0.41562557220458984 0.41562539339065552 0.80901843309402466
vn 0.69443106651306152 -0.71944451332092285 0.012849654071033001
vn 0.19877368211746216 -0.80292010307312012 -0.56196826696395874
vn -0.41562646627426147 -0.41562575101852417 -0.8090178370475769
vn -0.78542155027389526 0.21627351641654968 -0.57994711399078369
vn -0.69442951679229736 0.71944594383239746 -0.012847351841628551
vn -0.1987716406583786 0.80292260646820068 0.56196540594100952
vn 0.8982161283493042 -0.103482685983181 0.42719921469688416
vn 0.57206171751022339 0.57206058502197266 0.58778578042984009
vn 0.69785130023956299 -0.71602427959442139 0.017685903236269951
vn 0.090765304863452911 -0.91092938184738159 -0.40245407819747925
vn -0.57205313444137573 -0.57206106185913086 -0.58779358863830566
vn -0.89821386337280273 0.10347349941730499 -0.42720621824264526
vn -0.69785410165786743 0.71602153778076172 -0.017685981467366219
vn -0.09076312929391861 0.91093093156814575 0.40245115756988525
vn 0.97211474180221558 -0.029581191018223763 0.23263250291347504
vn 0.67249882221221924 0.67249900102615356 0.30901530385017395
vn 0.70216149091720581 -0.71171402931213379 0.020794367417693138
vn 0.022892195731401443 -0.97880101203918457 -0.20353060960769653
vn -0.67249703407287598 -0.67250007390975952 -0.30901667475700378
vn -0.97211331129074097 0.029574057087302208 -0.23263941705226898
vn -0.70216572284698486 0.71170967817306519 -0.020800620317459106
vn -0.022895028814673424 0.97879970073699951 0.20353634655475616
vn 0.99799573421478271 -0.0013309777714312077 0.063266970217227936
vn 0.7054399847984314 0.70440590381622314 0.07852848619222641
vn 0.70697790384292603 -0.70715129375457764 0.010923611000180244
vn 0.00047362654004245996 -0.99884718656539917 -0.04800153523683548
vn -0.7054404616355896 -0.70440578460693359 -0.078525140881538391
vn -0.99799579381942749 0.0013300302671268582 -0.063265696167945862
vn -0.70697897672653198 0.7071501612663269 -0.010926315560936928
vn -0.00047426199307665229 0.99884706735610962 0.048004154115915298
vn 0.56369000673294067 -0.56368821859359741 0.60374593734741211
vn 0.096713781356811523 -0.096713565289974213 0.99060231447219849
vn -0.42691501975059509 0.42691534757614136 0.79717433452606201
vn -0.70046156644821167 0.70046108961105347 0.13677634298801422
vn -0.56368637084960938 0.56368660926818848 -0.60375082492828369
vn -0.096714109182357788 0.096714332699775696 -0.99060219526290894
vn 0.42691481113433838 -0.42691361904144287 -0.79717528820037842
vn 0.70046311616897583 -0.70046049356460571 -0.13677196204662323
vn 0.70046299695968628 -0.70046043395996094 0.13677282631397247
vn 0.56368958950042725 -0.56368780136108398 -0.60374677181243896
vn 0.096712425351142883 -0.096712209284305573 -0.99060255289077759
vn -0.42691317200660706 0.42691349983215332 -0.7971763014793396
vn -0.70046192407608032 0.70046132802963257 -0.13677400350570679
vn -0.56368738412857056 0.56368762254714966 0.60374891757965088
vn -0.09671454131603241 0.096714764833450317 0.99060213565826416
vn 0.42691576480865479 -0.42691460251808167 0.79717421531677246
vn 0.99060231447219849 0.13677391409873962 0
vn 0.79717636108398438 -0.60374659299850464 0
vn 0.13677658140659332 -0.99060189723968506 0
vn -0.60375219583511353 -0.79717206954956055 0
vn -0.99060231447219849 -0.13677391409873962 0
vn -0.79717636108398438 0.60374659299850464 0
vn -0.13677658140659332 0.99060189723968506 0
vn 0.60375219583511353 0.79717206954956055 0
vn -0.70711010694503784 -0.70710349082946777 0
vn -0.70712655782699585 -0.70708698034286499 0
vn -0.70711666345596313 -0.70709687471389771 0
vn -0.70710676908493042 -0.70710676908493042 0
vn -0.70710676908493042 -0.70710676908493042 0
vn -0.70710676908493042 -0.70710676908493042 0
vn -0.70710676908493042 -0.70710676908493042 0
vn -0.70710676908493042 -0.70710676908493042 0
vn 0 0 -1
vn 0 0 1
vn 0 0 -1
vn 0 0 1
vn 0 0 -1
vn 0 0 1
vn 0 0 -1
vn 0 0 1
vn 0 0 -1
vn 0 0 1
vn 0 0 -1
vn 0 0 1
vn 0 0 -1
vn 0 0 1
vn 0 0 -1
vn 0 0 1
vn -0.70710635185241699 -0.70710724592208862 1.1673193966998952e-06
vn -0.70710885524749756 -0.70710468292236328 6.9917496148264036e-06
vn -0.70710885524749756 -0.70710474252700806 7.0125411184562836e-06
vn -0.7071070671081543 -0.70710647106170654 1.0299997939000605e-06
vn -0.70710635185241699 -0.70710718631744385 -3.5105831557302736e-06
vn -0.70710909366607666 -0.70710444450378418 -1.02391675227409e-06
vn -0.70710384845733643 -0.70710968971252441 0
vn -0.70709687471389771 -0.70711672306060791 0
vn 0.70710581541061401 0.7071077823638916 -1.2884508997917932e-12
vn 0.70710676908493042 0.70710676908493042 0
vn 0.70710533857345581 0.7071082592010498 2.0686525203927886e-06
vn 0.70710533857345581 0.7071082592010498 -8.5684405348729342e-07
vn 0.70710676908493042 0.70710676908493042 -6.1390892369672656e-12
vn 0.70710533857345581 0.7071082592010498 8.5684018813481089e-07
vn 0.70710533857345581 0.70710819959640503 -2.0686500192823587e-06
vn 0.70710676908493042 0.70710676908493042 0
vn 0 0 -1
vn 0 0 -1
vn 0 0 -1
vn 0 0 -1
vn 0 0 -1
vn 0 0 -1
vn 0 0 -1
vn 0 0 -1
# 120 elements written
f 73//73 74//74 75//75 
f 73//73 75//75 76//76 
f 73//73 76//76 77//77 
f 73//73 77//77 78//78 
f 73//73 78//78 79//79 
f 73//73 79//79 80//80 
f 8//8 7//7 9//9 
f 8//8 9//9 10//10 
f 7//7 6//6 11//11 
f 7//7 11//11 9//9 
f 6//6 5//5 12//12 
f 6//6 12//12 11//11 
f 5//5 4//4 13//13 
f 5//5 13//13 12//12 
f 4//4 3//3 14//14 
f 4//4 14//14 13//13 
f 3//3 2//2 15//15 
f 3//3 15//15 14//14 
f 2//2 1//1 16//16 
f 2//2 16//16 15//15 
f 1//1 8//8 10//10 
f 1//1 10//10 16//16 
f 10//10 9//9 17//17 
f 10//10 17//17 18//18 
f 9//9 11//11 19//19 
f 9//9 19//19 17//17 
f 11//11 12//12 20//20 
f 11//11 20//20 19//19 
f 12//12 13//13 21//21 
f 12//12 21//21 20//20 
f 13//13 14//14 22//22 
f 13//13 22//22 21//21 
f 14//14 15//15 23//23 
f 14//14 23//23 22//22 
f 15//15 16//16 24//24 
f 15//15 24//24 23//23 
f 16//16 10//10 18//18 
f 16//16 18//18 24//24 
f 18//18 17//17 25//25 
f 18//18 25//25 26//26 
f 17//17 19//19 27//27 
f 17//17 27//27 25//25 
f 19//19 20//20 28//28 
f 19//19 28//28 27//27 
f 20//20 21//21 29//29 
f 20//20 29//29 28//28 
f 21//21 22//22 30//30 
f 21//21 30//30 29//29 
f 22//22 23//23 31//31 
f 22//22 31//31 30//30 
f 23//23 24//24 32//32 
f 23//23 32//32 31//31 
f 24//24 18//18 26//26 
f 24//24 26//26 32//32 
f 26//26 25//25 33//33 
f 26//26 33//33 34//34 
f 25//25 27//27 35//35 
f 25//25 35//35 33//33 
f 27//27 28//28 36//36 
f 27//27 36//36 35//35 
f 28//28 29//29 37//37 
f 28//28 37//37 36//36 
f 29//29 30//30 38//38 
f 29//29 38//38 37//37 
f 30//30 31//31 39//39 
f 30//30 39//39 38//38 
f 31//31 32//32 40//40 
f 31//31 40//40 39//39 
f 32//32 26//26 34//34 
f 32//32 34//34 40//40 
f 34//34 33//33 41//41 
f 34//34 41//41 42//42 
f 33//33 35//35 43//43 
f 33//33 43//43 41//41 
f 35//35 36//36 44//44 
f 35//35 44//44 43//43 
f 36//36 37//37 45//45 
f 36//36 45//45 44//44 
f 37//37 38//38 46//46 
f 37//37 46//46 45//45 
f 38//38 39//39 47//47 
f 38//38 47//47 46//46 
f 39//39 40//40 48//48 
f 39//39 48//48 47//47 
f 40//40 34//34 42//42 
f 40//40 42//42 48//48 
f 83//83 81//81 85//85 
f 83//83 85//85 87//87 
f 83//83 87//87 89//89 
f 83//83 89//89 91//91 
f 83//83 91//91 93//93 
f 83//83 93//93 95//95 
f 97//97 98//98 99//99 
f 97//97 99//99 100//100 
f 97//97 100//100 101//101 
f 97//97 101//101 102//102 
f 97//97 102//102 103//103 
f 97//97 103//103 104//104 
f 105//105 106//106 107//107 
f 105//105 107//107 108//108 
f 105//105 108//108 109//109 
f 105//105 109//109 110//110 
f 105//105 110//110 111//111 
f 105//105 111//111 112//112 
f 56//56 55//55 58//58 
f 56//56 58//58 57//57 
f 55//55 54//54 59//59 
f 55//55 59//59 58//58 
f 54//54 53//53 60//60 
f 54//54 60//60 59//59 
f 53//53 52//52 61//61 
f 53//53 61//61 60//60 
f 52//52 51//51 62//62 
f 52//52 62//62 61//61 
f 51//51 50//50 63//63 
f 51//51 63//63 62//62 
f 50//50 49//49 64//64 
f 50//50 64//64 63//63 
f 49//49 56//56 57//57 
f 49//49 57//57 64//64 
f 84//84 96//96 94//94 
f 84//84 94//94 92//92 
f 84//84 92//92 90//90 
f 84//84 90//90 88//88 
f 84//84 88//88 86//86 
f 84//84 86//86 82//82 
f 113//113 114//114 115//115 
f 113//113 115//115 116//116 
f 113//113 116//116 117//117 
f 113//113 117//117 118//118 
f 113//113 118//118 119//119 
f 113//113 119//119 120//120 
f 41//41 43//43 66//66 
f 41//41 66//66 65//65 
f 43//43 44//44 67//67 
f 43//43 67//67 66//66 
f 44//44 45//45 68//68 
f 44//44 68//68 67//67 
f 45//45 46//46 69//69 
f 45//45 69//69 68//68 
f 46//46 47//47 70//70 
f 46//46 70//70 69//69 
f 47//47 48//48 71//71 
f 47//47 71//71 70//70 
f 48//48 42//42 72//72 
f 48//48 72//72 71//71 
f 42//42 41//41 65//65 
f 42//42 65//65 72//72 
