# file written by OpenSceneGraph

mtllib g23.mtl


o _Geometry_0

v -5327.462890625 20022.53515625 -1872.199951171875
v -5359.5498046875 20100 -1872.199951171875
v -5327.462890625 20177.46484375 -1872.199951171875
v -5250 20209.55078125 -1872.199951171875
v -5172.537109375 20177.46484375 -1872.199951171875
v -5140.4501953125 20100 -1872.199951171875
v -5172.537109375 20022.53515625 -1872.199951171875
v -5250 19990.44921875 -1872.199951171875
v -5250 19990.44921875 -1719.800048828125
v -5190.4970703125 20015.09765625 -1719.800048828125
v -5165.85009765625 20074.599609375 -1719.800048828125
v -5190.4970703125 20134.103515625 -1719.800048828125
v -5250 20158.75 -1719.800048828125
v -5309.5029296875 20134.103515625 -1719.800048828125
v -5334.14990234375 20074.599609375 -1719.800048828125
v -5309.5029296875 20015.09765625 -1719.800048828125
v -5172.537109375 20022.53515625 -14200
v -5250 19990.44921875 -14200
v -5327.462890625 20022.53515625 -14200
v -5359.5498046875 20100 -14200
v -5327.462890625 20177.46484375 -14200
v -5250 20209.55078125 -14200
v -5172.537109375 20177.46484375 -14200
v -5140.4501953125 20100 -14200
v -5140.4501953125 20100 -2227.800048828125
v -5172.537109375 20177.46484375 -2227.800048828125
v -5250 20209.55078125 -2227.800048828125
v -5327.462890625 20177.46484375 -2227.800048828125
v -5359.5498046875 20100 -2227.800048828125
v -5327.462890625 20022.53515625 -2227.800048828125
v -5250 19990.44921875 -2227.800048828125
v -5172.537109375 20022.53515625 -2227.800048828125
v -5211.26806640625 20032.9140625 -1972.5360107421875
v -5250 20100 -1940.449951171875
v -5288.73095703125 20167.0859375 -1972.5360107421875
v -5304.77490234375 20194.873046875 -2050
v -5288.73095703125 20167.0859375 -2127.464111328125
v -5250 20100 -2159.550048828125
v -5211.26806640625 20032.9140625 -2127.464111328125
v -5195.22509765625 20005.126953125 -2050
v -5041.2451171875 20094.02734375 -2050
v -5057.2880859375 20121.814453125 -2127.464111328125
v -5096.02001953125 20188.900390625 -2159.550048828125
v -5134.751953125 20255.984375 -2127.464111328125
v -5150.794921875 20283.7734375 -2050
v -5134.751953125 20255.984375 -1972.5360107421875
v -5096.02001953125 20188.900390625 -1940.449951171875
v -5057.2880859375 20121.814453125 -1972.5360107421875
v -5327.462890625 20022.53515625 -1872.199951171875
v -5327.462890625 20022.53515625 -1872.199951171875
v -5359.5498046875 20100 -1872.199951171875
v -5359.5498046875 20100 -1872.199951171875
v -5327.462890625 20177.46484375 -1872.199951171875
v -5327.462890625 20177.46484375 -1872.199951171875
v -5250 20209.55078125 -1872.199951171875
v -5250 20209.55078125 -1872.199951171875
v -5172.537109375 20177.46484375 -1872.199951171875
v -5172.537109375 20177.46484375 -1872.199951171875
v -5140.4501953125 20100 -1872.199951171875
v -5140.4501953125 20100 -1872.199951171875
v -5172.537109375 20022.53515625 -1872.199951171875
v -5172.537109375 20022.53515625 -1872.199951171875
v -5250 19990.44921875 -1872.199951171875
v -5250 19990.44921875 -1872.199951171875
v -5250 19990.44921875 -1719.800048828125
v -5190.4970703125 20015.09765625 -1719.800048828125
v -5165.85009765625 20074.599609375 -1719.800048828125
v -5190.4970703125 20134.103515625 -1719.800048828125
v -5250 20158.75 -1719.800048828125
v -5309.5029296875 20134.103515625 -1719.800048828125
v -5334.14990234375 20074.599609375 -1719.800048828125
v -5309.5029296875 20015.09765625 -1719.800048828125
v -5172.537109375 20022.53515625 -14200
v -5250 19990.44921875 -14200
v -5327.462890625 20022.53515625 -14200
v -5359.5498046875 20100 -14200
v -5327.462890625 20177.46484375 -14200
v -5250 20209.55078125 -14200
v -5172.537109375 20177.46484375 -14200
v -5140.4501953125 20100 -14200
v -5140.4501953125 20100 -2227.800048828125
v -5140.4501953125 20100 -2227.800048828125
v -5172.537109375 20177.46484375 -2227.800048828125
v -5172.537109375 20177.46484375 -2227.800048828125
v -5250 20209.55078125 -2227.800048828125
v -5250 20209.55078125 -2227.800048828125
v -5327.462890625 20177.46484375 -2227.800048828125
v -5327.462890625 20177.46484375 -2227.800048828125
v -5359.5498046875 20100 -2227.800048828125
v -5359.5498046875 20100 -2227.800048828125
v -5327.462890625 20022.53515625 -2227.800048828125
v -5327.462890625 20022.53515625 -2227.800048828125
v -5250 19990.44921875 -2227.800048828125
v -5250 19990.44921875 -2227.800048828125
v -5172.537109375 20022.53515625 -2227.800048828125
v -5172.537109375 20022.53515625 -2227.800048828125
v -5211.26806640625 20032.9140625 -1972.5360107421875
v -5250 20100 -1940.449951171875
v -5288.73095703125 20167.0859375 -1972.5360107421875
v -5304.77490234375 20194.873046875 -2050
v -5288.73095703125 20167.0859375 -2127.464111328125
v -5250 20100 -2159.550048828125
v -5211.26806640625 20032.9140625 -2127.464111328125
v -5195.22509765625 20005.126953125 -2050
v -5041.2451171875 20094.02734375 -2050
v -5057.2880859375 20121.814453125 -2127.464111328125
v -5096.02001953125 20188.900390625 -2159.550048828125
v -5134.751953125 20255.984375 -2127.464111328125
v -5150.794921875 20283.7734375 -2050
v -5134.751953125 20255.984375 -1972.5360107421875
v -5096.02001953125 20188.900390625 -1940.449951171875
v -5057.2880859375 20121.814453125 -1972.5360107421875
# 112 elements written

vn -0.70681363344192505 -0.7072138786315918 0.016213862225413322
vn -0.99747699499130249 -0.0010248463368043303 0.070983536541461945
vn -0.70096504688262939 0.70111531019210815 0.13071070611476898
vn 0.0030868684407323599 0.98698675632476807 0.16077153384685516
vn 0.70277965068817139 0.69632023572921753 0.1457357257604599
vn 0.99562990665435791 -0.0028953622095286846 0.09334266185760498
vn 0.706337571144104 -0.70713150501251221 0.032437492161989212
vn -5.9139222230442101e-07 -1 -2.740169406934001e-07
vn -0.13677248358726501 -0.99060243368148804 -7.0452222189487657e-07
vn 0.60285085439682007 -0.79720669984817505 0.032129310071468353
vn 0.98033851385116577 -0.13879801332950592 0.14025528728961945
vn 0.77287507057189941 0.58051711320877075 0.25625011324882507
vn 0.12987543642520905 0.94064873456954956 0.31354790925979614
vn -0.58172225952148438 0.7617192268371582 0.28527724742889404
vn -0.97411322593688965 0.13105787336826324 0.18419335782527924
vn -0.79508399963378906 -0.60308551788330078 0.06425948441028595
vn 0.79717320203781128 -0.60375064611434937 0
vn 0.13677263259887695 -0.99060249328613281 0
vn -0.60374569892883301 -0.7971770167350769 0
vn -0.99060219526290894 -0.13677503168582916 0
vn -0.79717320203781128 0.60375064611434937 0
vn -0.13677263259887695 0.99060249328613281 0
vn 0.60374569892883301 0.7971770167350769 0
vn 0.99060219526290894 0.13677503168582916 0
vn 1 -1.0752617463083425e-08 0
vn 0.70710450410842896 0.70710897445678711 0
vn -5.3762940765977874e-09 1 0
vn -0.70710450410842896 0.70710897445678711 0
vn -1 5.3763087315417124e-09 0
vn -0.70710450410842896 -0.70710897445678711 0
vn 5.3762940765977874e-09 -1 0
vn 0.70710450410842896 -0.70710897445678711 0
vn 0.39858883619308472 -0.69037604331970215 0.60374480485916138
vn 0.068384610116481781 -0.11844559013843536 0.99060297012329102
vn -0.30187389254570007 0.5228583812713623 0.7971770167350769
vn -0.49530193209648132 0.85788619518280029 0.13677416741847992
vn -0.39858797192573547 0.6903720498085022 -0.60374999046325684
vn -0.068387292325496674 0.11844952404499054 -0.99060231447219849
vn 0.30187296867370605 -0.52285921573638916 -0.79717689752578735
vn 0.49530145525932312 -0.85788720846176147 -0.13676987588405609
vn 0.49530145525932312 -0.8578871488571167 0.13677042722702026
vn 0.39858889579772949 -0.69037604331970215 -0.60374486446380615
vn 0.068384692072868347 -0.11844572424888611 -0.99060291051864624
vn -0.30187427997589111 0.52285891771316528 -0.79717648029327393
vn -0.49530190229415894 0.85788613557815552 -0.13677527010440826
vn -0.39858779311180115 0.69037163257598877 0.60375052690505981
vn -0.068387545645236969 0.11844997853040695 0.99060225486755371
vn 0.30187326669692993 -0.52285975217819214 0.79717636108398438
vn 0 0 -1
vn 0 0 1
vn 0 0 -1
vn 0 0 1
vn 0 0 -1
vn 0 0 1
vn 0 0 -1
vn 0 0 1
vn 0 0 -1
vn 0 0 1
vn 0 0 -1
vn 0 0 1
vn 0 0 -1
vn 0 0 1
vn 0 0 -1
vn 0 0 1
vn 0 0 1
vn 0 0 1
vn 0 0 1
vn 0 0 1
vn 0 0 1
vn 0 0 1
vn 0 0 1
vn 0 0 1
vn 0 0 -1
vn 0 0 -1
vn 0 0 -1
vn 0 0 -1
vn 0 0 -1
vn 0 0 -1
vn 0 0 -1
vn 0 0 -1
vn 0 0 1
vn 0 0 -1
vn 0 0 1
vn 0 0 -1
vn 0 0 1
vn 0 0 -1
vn 0 0 1
vn 0 0 -1
vn 0 0 1
vn 0 0 -1
vn 0 0 1
vn 0 0 -1
vn 0 0 1
vn 0 0 -1
vn 0 0 1
vn 0 0 -1
vn -0.86602640151977539 -0.49999818205833435 -3.1424829671777843e-07
vn -0.86602741479873657 -0.49999654293060303 -5.5988884923863225e-06
vn -0.8660273551940918 -0.49999654293060303 7.4022545959451236e-07
vn -0.86602616310119629 -0.49999868869781494 1.0367659797339002e-06
vn -0.86602658033370972 -0.49999803304672241 -1.6829703781695571e-06
vn -0.86602723598480225 -0.4999968409538269 8.1993329104079749e-07
vn -0.86602532863616943 -0.50000011920928955 0
vn -0.8660244345664978 -0.50000172853469849 0
vn 0.86602538824081421 0.5 2.8611186770471919e-12
vn 0.86602663993835449 0.49999791383743286 -1.8171132296629366e-06
vn 0.86602520942687988 0.50000029802322388 9.2232795623203856e-07
vn 0.86602485179901123 0.50000113248825073 -7.5834145718545187e-07
vn 0.86602568626403809 0.49999949336051941 4.0927261579781771e-12
vn 0.86602479219436646 0.50000107288360596 7.5834748258785112e-07
vn 0.86602520942687988 0.50000029802322388 -9.2232340875852969e-07
vn 0.86602663993835449 0.49999791383743286 1.8171182318837964e-06
# 112 elements written
f 49//49 51//51 53//53 
f 49//49 53//53 55//55 
f 49//49 55//55 57//57 
f 49//49 57//57 59//59 
f 49//49 59//59 61//61 
f 49//49 61//61 63//63 
f 65//65 66//66 67//67 
f 65//65 67//67 68//68 
f 65//65 68//68 69//69 
f 65//65 69//69 70//70 
f 65//65 70//70 71//71 
f 65//65 71//71 72//72 
f 8//8 7//7 10//10 
f 8//8 10//10 9//9 
f 7//7 6//6 11//11 
f 7//7 11//11 10//10 
f 6//6 5//5 12//12 
f 6//6 12//12 11//11 
f 5//5 4//4 13//13 
f 5//5 13//13 12//12 
f 4//4 3//3 14//14 
f 4//4 14//14 13//13 
f 3//3 2//2 15//15 
f 3//3 15//15 14//14 
f 2//2 1//1 16//16 
f 2//2 16//16 15//15 
f 1//1 8//8 9//9 
f 1//1 9//9 16//16 
f 73//73 74//74 75//75 
f 73//73 75//75 76//76 
f 73//73 76//76 77//77 
f 73//73 77//77 78//78 
f 73//73 78//78 79//79 
f 73//73 79//79 80//80 
f 81//81 83//83 85//85 
f 81//81 85//85 87//87 
f 81//81 87//87 89//89 
f 81//81 89//89 91//91 
f 81//81 91//91 93//93 
f 81//81 93//93 95//95 
f 24//24 23//23 26//26 
f 24//24 26//26 25//25 
f 23//23 22//22 27//27 
f 23//23 27//27 26//26 
f 22//22 21//21 28//28 
f 22//22 28//28 27//27 
f 21//21 20//20 29//29 
f 21//21 29//29 28//28 
f 20//20 19//19 30//30 
f 20//20 30//30 29//29 
f 19//19 18//18 31//31 
f 19//19 31//31 30//30 
f 18//18 17//17 32//32 
f 18//18 32//32 31//31 
f 17//17 24//24 25//25 
f 17//17 25//25 32//32 
f 58//58 56//56 54//54 
f 58//58 54//54 52//52 
f 58//58 52//52 50//50 
f 58//58 50//50 64//64 
f 58//58 64//64 62//62 
f 58//58 62//62 60//60 
f 82//82 96//96 94//94 
f 82//82 94//94 92//92 
f 82//82 92//92 90//90 
f 82//82 90//90 88//88 
f 82//82 88//88 86//86 
f 82//82 86//86 84//84 
f 6//6 7//7 32//32 
f 6//6 32//32 25//25 
f 7//7 8//8 31//31 
f 7//7 31//31 32//32 
f 8//8 1//1 30//30 
f 8//8 30//30 31//31 
f 1//1 2//2 29//29 
f 1//1 29//29 30//30 
f 2//2 3//3 28//28 
f 2//2 28//28 29//29 
f 3//3 4//4 27//27 
f 3//3 27//27 28//28 
f 4//4 5//5 26//26 
f 4//4 26//26 27//27 
f 5//5 6//6 25//25 
f 5//5 25//25 26//26 
f 97//97 98//98 99//99 
f 97//97 99//99 100//100 
f 97//97 100//100 101//101 
f 97//97 101//101 102//102 
f 97//97 102//102 103//103 
f 97//97 103//103 104//104 
f 105//105 106//106 107//107 
f 105//105 107//107 108//108 
f 105//105 108//108 109//109 
f 105//105 109//109 110//110 
f 105//105 110//110 111//111 
f 105//105 111//111 112//112 
f 40//40 39//39 42//42 
f 40//40 42//42 41//41 
f 39//39 38//38 43//43 
f 39//39 43//43 42//42 
f 38//38 37//37 44//44 
f 38//38 44//44 43//43 
f 37//37 36//36 45//45 
f 37//37 45//45 44//44 
f 36//36 35//35 46//46 
f 36//36 46//46 45//45 
f 35//35 34//34 47//47 
f 35//35 47//47 46//46 
f 34//34 33//33 48//48 
f 34//34 48//48 47//47 
f 33//33 40//40 41//41 
f 33//33 41//41 48//48 
