# file written by OpenSceneGraph

mtllib g45.mtl


o _Geometry_0

v 7061.60009765625 15009.681640625 92890.6796875
v 7061.60009765625 15000.849609375 92912
v 7061.60009765625 15009.681640625 92933.3203125
v 7061.60009765625 15031 92942.1484375
v 7061.60009765625 15052.318359375 92933.3203125
v 7061.60009765625 15061.150390625 92912
v 7061.60009765625 15052.318359375 92890.6796875
v 7061.60009765625 15031 92881.8515625
v 8261.900390625 15031 92881.8515625
v 8261.900390625 15052.318359375 92890.6796875
v 8261.900390625 15061.150390625 92912
v 8261.900390625 15052.318359375 92933.3203125
v 8261.900390625 15031 92942.1484375
v 8261.900390625 15009.681640625 92933.3203125
v 8261.900390625 15000.849609375 92912
v 8261.900390625 15009.681640625 92890.6796875
v 8338.099609375 15009.681640625 92890.6796875
v 8338.099609375 15000.849609375 92912
v 8338.099609375 15009.681640625 92933.3203125
v 8338.099609375 15031 92942.1484375
v 8338.099609375 15052.318359375 92933.3203125
v 8338.099609375 15061.150390625 92912
v 8338.099609375 15052.318359375 92890.6796875
v 8338.099609375 15031 92881.8515625
v 17261.900390625 15031 92881.8515625
v 17261.900390625 15052.318359375 92890.6796875
v 17261.900390625 15061.150390625 92912
v 17261.900390625 15052.318359375 92933.3203125
v 17261.900390625 15031 92942.1484375
v 17261.900390625 15009.681640625 92933.3203125
v 17261.900390625 15000.849609375 92912
v 17261.900390625 15009.681640625 92890.6796875
v 17338.099609375 15009.681640625 92890.6796875
v 17338.099609375 15000.849609375 92912
v 17338.099609375 15009.681640625 92933.3203125
v 17338.099609375 15031 92942.1484375
v 17338.099609375 15052.318359375 92933.3203125
v 17338.099609375 15061.150390625 92912
v 17338.099609375 15052.318359375 92890.6796875
v 17338.099609375 15031 92881.8515625
v 17450 15031 92881.8515625
v 17450 15052.318359375 92890.6796875
v 17450 15061.150390625 92912
v 17450 15052.318359375 92933.3203125
v 17450 15031 92942.1484375
v 17450 15009.681640625 92933.3203125
v 17450 15000.849609375 92912
v 17450 15009.681640625 92890.6796875
v 8326.5517578125 15031 92885.4453125
v 8300 15031 92874.453125
v 8273.4482421875 15031 92885.4453125
v 8262.4501953125 15031 92912
v 8273.4482421875 15031 92938.5546875
v 8300 15031 92949.546875
v 8326.5517578125 15031 92938.5546875
v 8337.5498046875 15031 92912
v 8337.5498046875 14992.900390625 92912
v 8326.5517578125 14992.900390625 92938.5546875
v 8300 14992.900390625 92949.546875
v 8273.4482421875 14992.900390625 92938.5546875
v 8262.4501953125 14992.900390625 92912
v 8273.4482421875 14992.900390625 92885.4453125
v 8300 14992.900390625 92874.453125
v 8326.5517578125 14992.900390625 92885.4453125
v 17326.552734375 15031 92885.4453125
v 17300 15031 92874.453125
v 17273.447265625 15031 92885.4453125
v 17262.44921875 15031 92912
v 17273.447265625 15031 92938.5546875
v 17300 15031 92949.546875
v 17326.552734375 15031 92938.5546875
v 17337.55078125 15031 92912
v 17337.55078125 14992.900390625 92912
v 17326.552734375 14992.900390625 92938.5546875
v 17300 14992.900390625 92949.546875
v 17273.447265625 14992.900390625 92938.5546875
v 17262.44921875 14992.900390625 92912
v 17273.447265625 14992.900390625 92885.4453125
v 17300 14992.900390625 92874.453125
v 17326.552734375 14992.900390625 92885.4453125
v 7061.60009765625 15009.681640625 92890.6796875
v 7061.60009765625 15000.849609375 92912
v 7061.60009765625 15009.681640625 92933.3203125
v 7061.60009765625 15031 92942.1484375
v 7061.60009765625 15052.318359375 92933.3203125
v 7061.60009765625 15061.150390625 92912
v 7061.60009765625 15052.318359375 92890.6796875
v 7061.60009765625 15031 92881.8515625
v 8261.900390625 15031 92881.8515625
v 8261.900390625 15031 92881.8515625
v 8261.900390625 15052.318359375 92890.6796875
v 8261.900390625 15052.318359375 92890.6796875
v 8261.900390625 15061.150390625 92912
v 8261.900390625 15061.150390625 92912
v 8261.900390625 15052.318359375 92933.3203125
v 8261.900390625 15052.318359375 92933.3203125
v 8261.900390625 15031 92942.1484375
v 8261.900390625 15031 92942.1484375
v 8261.900390625 15009.681640625 92933.3203125
v 8261.900390625 15009.681640625 92933.3203125
v 8261.900390625 15000.849609375 92912
v 8261.900390625 15000.849609375 92912
v 8261.900390625 15009.681640625 92890.6796875
v 8261.900390625 15009.681640625 92890.6796875
v 8338.099609375 15009.681640625 92890.6796875
v 8338.099609375 15009.681640625 92890.6796875
v 8338.099609375 15000.849609375 92912
v 8338.099609375 15000.849609375 92912
v 8338.099609375 15009.681640625 92933.3203125
v 8338.099609375 15009.681640625 92933.3203125
v 8338.099609375 15031 92942.1484375
v 8338.099609375 15031 92942.1484375
v 8338.099609375 15052.318359375 92933.3203125
v 8338.099609375 15052.318359375 92933.3203125
v 8338.099609375 15061.150390625 92912
v 8338.099609375 15061.150390625 92912
v 8338.099609375 15052.318359375 92890.6796875
v 8338.099609375 15052.318359375 92890.6796875
v 8338.099609375 15031 92881.8515625
v 8338.099609375 15031 92881.8515625
v 17261.900390625 15031 92881.8515625
v 17261.900390625 15031 92881.8515625
v 17261.900390625 15052.318359375 92890.6796875
v 17261.900390625 15052.318359375 92890.6796875
v 17261.900390625 15061.150390625 92912
v 17261.900390625 15061.150390625 92912
v 17261.900390625 15052.318359375 92933.3203125
v 17261.900390625 15052.318359375 92933.3203125
v 17261.900390625 15031 92942.1484375
v 17261.900390625 15031 92942.1484375
v 17261.900390625 15009.681640625 92933.3203125
v 17261.900390625 15009.681640625 92933.3203125
v 17261.900390625 15000.849609375 92912
v 17261.900390625 15000.849609375 92912
v 17261.900390625 15009.681640625 92890.6796875
v 17261.900390625 15009.681640625 92890.6796875
v 17338.099609375 15009.681640625 92890.6796875
v 17338.099609375 15009.681640625 92890.6796875
v 17338.099609375 15000.849609375 92912
v 17338.099609375 15000.849609375 92912
v 17338.099609375 15009.681640625 92933.3203125
v 17338.099609375 15009.681640625 92933.3203125
v 17338.099609375 15031 92942.1484375
v 17338.099609375 15031 92942.1484375
v 17338.099609375 15052.318359375 92933.3203125
v 17338.099609375 15052.318359375 92933.3203125
v 17338.099609375 15061.150390625 92912
v 17338.099609375 15061.150390625 92912
v 17338.099609375 15052.318359375 92890.6796875
v 17338.099609375 15052.318359375 92890.6796875
v 17338.099609375 15031 92881.8515625
v 17338.099609375 15031 92881.8515625
v 17450 15031 92881.8515625
v 17450 15052.318359375 92890.6796875
v 17450 15061.150390625 92912
v 17450 15052.318359375 92933.3203125
v 17450 15031 92942.1484375
v 17450 15009.681640625 92933.3203125
v 17450 15000.849609375 92912
v 17450 15009.681640625 92890.6796875
v 8326.5517578125 15031 92885.4453125
v 8300 15031 92874.453125
v 8273.4482421875 15031 92885.4453125
v 8262.4501953125 15031 92912
v 8273.4482421875 15031 92938.5546875
v 8300 15031 92949.546875
v 8326.5517578125 15031 92938.5546875
v 8337.5498046875 15031 92912
v 8337.5498046875 14992.900390625 92912
v 8326.5517578125 14992.900390625 92938.5546875
v 8300 14992.900390625 92949.546875
v 8273.4482421875 14992.900390625 92938.5546875
v 8262.4501953125 14992.900390625 92912
v 8273.4482421875 14992.900390625 92885.4453125
v 8300 14992.900390625 92874.453125
v 8326.5517578125 14992.900390625 92885.4453125
v 17326.552734375 15031 92885.4453125
v 17300 15031 92874.453125
v 17273.447265625 15031 92885.4453125
v 17262.44921875 15031 92912
v 17273.447265625 15031 92938.5546875
v 17300 15031 92949.546875
v 17326.552734375 15031 92938.5546875
v 17337.55078125 15031 92912
v 17337.55078125 14992.900390625 92912
v 17326.552734375 14992.900390625 92938.5546875
v 17300 14992.900390625 92949.546875
v 17273.447265625 14992.900390625 92938.5546875
v 17262.44921875 14992.900390625 92912
v 17273.447265625 14992.900390625 92885.4453125
v 17300 14992.900390625 92874.453125
v 17326.552734375 14992.900390625 92885.4453125
# 192 elements written

vn 0 -0.60369545221328735 -0.7972150444984436
vn 0 -0.99060261249542236 -0.13677200675010681
vn 0 -0.79715889692306519 0.60376960039138794
vn 0 -0.13673669099807739 0.99060744047164917
vn 0 0.60369545221328735 0.7972150444984436
vn 0 0.99060261249542236 0.13677200675010681
vn 0 0.79715889692306519 -0.60376960039138794
vn 0 0.13673669099807739 -0.99060744047164917
vn 0 1.0752166268446217e-08 -1
vn 0 0.70707392692565918 -0.70713967084884644
vn 0 1 0
vn 0 0.70707392692565918 0.70713967084884644
vn 0 -5.3760831342231086e-09 1
vn 0 -0.70707392692565918 0.70713967084884644
vn 0 -1 0
vn 0 -0.70707392692565918 -0.70713967084884644
vn 0 -0.70707392692565918 -0.70713967084884644
vn 0 -1 0
vn 0 -0.7070738673210144 0.70713967084884644
vn 0 1.0752166268446217e-08 1
vn 0 0.70707392692565918 0.70713967084884644
vn 0 1 0
vn 0 0.7070738673210144 -0.70713967084884644
vn 0 -1.0752166268446217e-08 -1
vn 0 1.0752166268446217e-08 -1
vn 0 0.70707392692565918 -0.70713967084884644
vn 0 1 5.3762905238841086e-09
vn 0 0.7070738673210144 0.70713967084884644
vn 0 -1.0752166268446217e-08 1
vn 0 -0.70707392692565918 0.70713967084884644
vn 0 -1 -5.3762905238841086e-09
vn 0 -0.7070738673210144 -0.70713967084884644
vn 0 -0.7070738673210144 -0.70713967084884644
vn 0 -1 0
vn 0 -0.70707392692565918 0.70713967084884644
vn 0 1.0752166268446217e-08 1
vn 0 0.7070738673210144 0.70713967084884644
vn 0 1 0
vn 0 0.70707392692565918 -0.70713967084884644
vn 0 -1.0752166268446217e-08 -1
vn 0 -0.13673669099807739 -0.99060744047164917
vn 0 0.60369545221328735 -0.7972150444984436
vn 0 0.99060261249542236 -0.13677200675010681
vn 0 0.79715889692306519 0.60376960039138794
vn 0 0.13673669099807739 0.99060744047164917
vn 0 -0.60369545221328735 0.7972150444984436
vn 0 -0.99060261249542236 0.13677200675010681
vn 0 -0.79715889692306519 -0.60376960039138794
vn 0.79715675115585327 0 -0.60377234220504761
vn 0.13670150935649872 0 -0.99061232805252075
vn -0.60365325212478638 0 -0.79724699258804321
vn -0.9906044602394104 0 -0.13675820827484131
vn -0.79715675115585327 0 0.60377234220504761
vn -0.13670150935649872 0 0.99061232805252075
vn 0.60365325212478638 0 0.79724699258804321
vn 0.9906044602394104 0 0.13675820827484131
vn 0.9906044602394104 0 -0.13675820827484131
vn 0.79715675115585327 0 0.60377234220504761
vn 0.13670150935649872 0 0.99061232805252075
vn -0.60365325212478638 0 0.79724693298339844
vn -0.9906044602394104 0 0.13675820827484131
vn -0.79715675115585327 0 -0.60377234220504761
vn -0.13670150935649872 0 -0.99061232805252075
vn 0.60365325212478638 0 -0.79724693298339844
vn 0.79715436697006226 0 -0.6037755012512207
vn 0.13669657707214355 0 -0.99061298370361328
vn -0.60364609956741333 0 -0.797252357006073
vn -0.9906044602394104 0 -0.13675820827484131
vn -0.79715436697006226 0 0.6037755012512207
vn -0.13669657707214355 0 0.99061298370361328
vn 0.60364609956741333 0 0.797252357006073
vn 0.9906044602394104 0 0.13675820827484131
vn 0.9906044602394104 0 -0.13675820827484131
vn 0.79715436697006226 0 0.60377556085586548
vn 0.13669657707214355 0 0.99061298370361328
vn -0.60364609956741333 0 0.797252357006073
vn -0.9906044602394104 0 0.13675820827484131
vn -0.79715436697006226 0 -0.60377556085586548
vn -0.13669657707214355 0 -0.99061298370361328
vn 0.60364609956741333 0 -0.797252357006073
vn -1 0 0
vn -1 0 0
vn -1 0 0
vn -1 0 0
vn -1 0 0
vn -1 0 0
vn -1 0 0
vn -1 0 0
vn 1 0 0
vn -1 0 0
vn 1 0 0
vn -1 0 0
vn 1 0 0
vn -1 0 0
vn 1 0 0
vn -1 0 0
vn 1 0 0
vn -1 0 0
vn 1 0 0
vn -1 0 0
vn 1 0 0
vn -1 0 0
vn 1 0 0
vn -1 0 0
vn -1 0 0
vn 1 0 0
vn -1 0 0
vn 1 0 0
vn -1 0 0
vn 1 0 0
vn -1 0 0
vn 1 0 0
vn -1 0 0
vn 1 0 0
vn -1 0 0
vn 1 0 0
vn -1 0 0
vn 1 0 0
vn -1 0 0
vn 1 0 0
vn 1 0 0
vn -1 0 0
vn 1 0 0
vn -1 0 0
vn 1 0 0
vn -1 0 0
vn 1 0 0
vn -1 0 0
vn 1 0 0
vn -1 0 0
vn 1 0 0
vn -1 0 0
vn 1 0 0
vn -1 0 0
vn 1 0 0
vn -1 0 0
vn -1 0 0
vn 1 0 0
vn -1 0 0
vn 1 0 0
vn -1 0 0
vn 1 0 0
vn -1 0 0
vn 1 0 0
vn -1 0 0
vn 1 0 0
vn -1 0 0
vn 1 0 0
vn -1 0 0
vn 1 0 0
vn -1 0 0
vn 1 0 0
vn 1 0 0
vn 1 0 0
vn 1 0 0
vn 1 0 0
vn 1 0 0
vn 1 0 0
vn 1 0 0
vn 1 0 0
vn 0 1 0
vn 0 1 0
vn 0 1 0
vn 0 1 0
vn 0 1 0
vn 0 1 0
vn 0 1 0
vn 0 1 0
vn 0 -1 0
vn 0 -1 0
vn 0 -1 0
vn 0 -1 0
vn 0 -1 0
vn 0 -1 0
vn 0 -1 0
vn 0 -1 0
vn 0 1 0
vn 0 1 0
vn 0 1 0
vn 0 1 0
vn 0 1 0
vn 0 1 0
vn 0 1 0
vn 0 1 0
vn 0 -1 0
vn 0 -1 0
vn 0 -1 0
vn 0 -1 0
vn 0 -1 0
vn 0 -1 0
vn 0 -1 0
vn 0 -1 0
# 192 elements written
f 81//81 82//82 83//83 
f 81//81 83//83 84//84 
f 81//81 84//84 85//85 
f 81//81 85//85 86//86 
f 81//81 86//86 87//87 
f 81//81 87//87 88//88 
f 89//89 91//91 93//93 
f 89//89 93//93 95//95 
f 89//89 95//95 97//97 
f 89//89 97//97 99//99 
f 89//89 99//99 101//101 
f 89//89 101//101 103//103 
f 8//8 7//7 10//10 
f 8//8 10//10 9//9 
f 7//7 6//6 11//11 
f 7//7 11//11 10//10 
f 6//6 5//5 12//12 
f 6//6 12//12 11//11 
f 5//5 4//4 13//13 
f 5//5 13//13 12//12 
f 4//4 3//3 14//14 
f 4//4 14//14 13//13 
f 3//3 2//2 15//15 
f 3//3 15//15 14//14 
f 2//2 1//1 16//16 
f 2//2 16//16 15//15 
f 1//1 8//8 9//9 
f 1//1 9//9 16//16 
f 105//105 107//107 109//109 
f 105//105 109//109 111//111 
f 105//105 111//111 113//113 
f 105//105 113//113 115//115 
f 105//105 115//115 117//117 
f 105//105 117//117 119//119 
f 121//121 123//123 125//125 
f 121//121 125//125 127//127 
f 121//121 127//127 129//129 
f 121//121 129//129 131//131 
f 121//121 131//131 133//133 
f 121//121 133//133 135//135 
f 24//24 23//23 26//26 
f 24//24 26//26 25//25 
f 23//23 22//22 27//27 
f 23//23 27//27 26//26 
f 22//22 21//21 28//28 
f 22//22 28//28 27//27 
f 21//21 20//20 29//29 
f 21//21 29//29 28//28 
f 20//20 19//19 30//30 
f 20//20 30//30 29//29 
f 19//19 18//18 31//31 
f 19//19 31//31 30//30 
f 18//18 17//17 32//32 
f 18//18 32//32 31//31 
f 17//17 24//24 25//25 
f 17//17 25//25 32//32 
f 137//137 139//139 141//141 
f 137//137 141//141 143//143 
f 137//137 143//143 145//145 
f 137//137 145//145 147//147 
f 137//137 147//147 149//149 
f 137//137 149//149 151//151 
f 153//153 154//154 155//155 
f 153//153 155//155 156//156 
f 153//153 156//156 157//157 
f 153//153 157//157 158//158 
f 153//153 158//158 159//159 
f 153//153 159//159 160//160 
f 40//40 39//39 42//42 
f 40//40 42//42 41//41 
f 39//39 38//38 43//43 
f 39//39 43//43 42//42 
f 38//38 37//37 44//44 
f 38//38 44//44 43//43 
f 37//37 36//36 45//45 
f 37//37 45//45 44//44 
f 36//36 35//35 46//46 
f 36//36 46//46 45//45 
f 35//35 34//34 47//47 
f 35//35 47//47 46//46 
f 34//34 33//33 48//48 
f 34//34 48//48 47//47 
f 33//33 40//40 41//41 
f 33//33 41//41 48//48 
f 118//118 116//116 114//114 
f 118//118 114//114 112//112 
f 118//118 112//112 110//110 
f 118//118 110//110 108//108 
f 118//118 108//108 106//106 
f 118//118 106//106 120//120 
f 90//90 104//104 102//102 
f 90//90 102//102 100//100 
f 90//90 100//100 98//98 
f 90//90 98//98 96//96 
f 90//90 96//96 94//94 
f 90//90 94//94 92//92 
f 24//24 17//17 16//16 
f 24//24 16//16 9//9 
f 17//17 18//18 15//15 
f 17//17 15//15 16//16 
f 18//18 19//19 14//14 
f 18//18 14//14 15//15 
f 19//19 20//20 13//13 
f 19//19 13//13 14//14 
f 20//20 21//21 12//12 
f 20//20 12//12 13//13 
f 21//21 22//22 11//11 
f 21//21 11//11 12//12 
f 22//22 23//23 10//10 
f 22//22 10//10 11//11 
f 23//23 24//24 9//9 
f 23//23 9//9 10//10 
f 161//161 162//162 163//163 
f 161//161 163//163 164//164 
f 161//161 164//164 165//165 
f 161//161 165//165 166//166 
f 161//161 166//166 167//167 
f 161//161 167//167 168//168 
f 169//169 170//170 171//171 
f 169//169 171//171 172//172 
f 169//169 172//172 173//173 
f 169//169 173//173 174//174 
f 169//169 174//174 175//175 
f 169//169 175//175 176//176 
f 56//56 55//55 58//58 
f 56//56 58//58 57//57 
f 55//55 54//54 59//59 
f 55//55 59//59 58//58 
f 54//54 53//53 60//60 
f 54//54 60//60 59//59 
f 53//53 52//52 61//61 
f 53//53 61//61 60//60 
f 52//52 51//51 62//62 
f 52//52 62//62 61//61 
f 51//51 50//50 63//63 
f 51//51 63//63 62//62 
f 50//50 49//49 64//64 
f 50//50 64//64 63//63 
f 49//49 56//56 57//57 
f 49//49 57//57 64//64 
f 150//150 148//148 146//146 
f 150//150 146//146 144//144 
f 150//150 144//144 142//142 
f 150//150 142//142 140//140 
f 150//150 140//140 138//138 
f 150//150 138//138 152//152 
f 122//122 136//136 134//134 
f 122//122 134//134 132//132 
f 122//122 132//132 130//130 
f 122//122 130//130 128//128 
f 122//122 128//128 126//126 
f 122//122 126//126 124//124 
f 40//40 33//33 32//32 
f 40//40 32//32 25//25 
f 33//33 34//34 31//31 
f 33//33 31//31 32//32 
f 34//34 35//35 30//30 
f 34//34 30//30 31//31 
f 35//35 36//36 29//29 
f 35//35 29//29 30//30 
f 36//36 37//37 28//28 
f 36//36 28//28 29//29 
f 37//37 38//38 27//27 
f 37//37 27//27 28//28 
f 38//38 39//39 26//26 
f 38//38 26//26 27//27 
f 39//39 40//40 25//25 
f 39//39 25//25 26//26 
f 177//177 178//178 179//179 
f 177//177 179//179 180//180 
f 177//177 180//180 181//181 
f 177//177 181//181 182//182 
f 177//177 182//182 183//183 
f 177//177 183//183 184//184 
f 185//185 186//186 187//187 
f 185//185 187//187 188//188 
f 185//185 188//188 189//189 
f 185//185 189//189 190//190 
f 185//185 190//190 191//191 
f 185//185 191//191 192//192 
f 72//72 71//71 74//74 
f 72//72 74//74 73//73 
f 71//71 70//70 75//75 
f 71//71 75//75 74//74 
f 70//70 69//69 76//76 
f 70//70 76//76 75//75 
f 69//69 68//68 77//77 
f 69//69 77//77 76//76 
f 68//68 67//67 78//78 
f 68//68 78//78 77//77 
f 67//67 66//66 79//79 
f 67//67 79//79 78//78 
f 66//66 65//65 80//80 
f 66//66 80//80 79//79 
f 65//65 72//72 73//73 
f 65//65 73//73 80//80 
