# file written by OpenSceneGraph

mtllib g68.mtl


o _Geometry_0

v -5084.5888671875 61775.6015625 -1459.5889892578125
v -5125 61775.6015625 -1442.8499755859375
v -5165.4111328125 61775.6015625 -1459.5889892578125
v -5182.14990234375 61775.6015625 -1500
v -5165.4111328125 61775.6015625 -1540.4110107421875
v -5125 61775.6015625 -1557.1500244140625
v -5084.5888671875 61775.6015625 -1540.4110107421875
v -5067.85009765625 61775.6015625 -1500
v -5094.02587890625 61835.18359375 -1540.4110107421875
v -5078.10595703125 61840.35546875 -1500
v -5132.458984375 61822.6953125 -1557.1500244140625
v -5170.89208984375 61810.20703125 -1540.4110107421875
v -5186.81201171875 61805.03515625 -1500
v -5170.89208984375 61810.20703125 -1459.5889892578125
v -5132.458984375 61822.6953125 -1442.8499755859375
v -5094.02587890625 61835.18359375 -1459.5889892578125
v -5121.4130859375 61888.9296875 -1540.4110107421875
v -5107.87109375 61898.76953125 -1500
v -5154.10595703125 61865.1796875 -1557.1500244140625
v -5186.798828125 61841.42578125 -1540.4110107421875
v -5200.3408203125 61831.5859375 -1500
v -5186.798828125 61841.42578125 -1459.5889892578125
v -5154.10595703125 61865.1796875 -1442.8499755859375
v -5121.4130859375 61888.9296875 -1459.5889892578125
v -5164.06787109375 61931.5859375 -1540.4110107421875
v -5154.22900390625 61945.12890625 -1500
v -5187.82080078125 61898.89453125 -1557.1500244140625
v -5211.5751953125 61866.19921875 -1540.4110107421875
v -5221.4140625 61852.66015625 -1500
v -5211.5751953125 61866.19921875 -1459.5889892578125
v -5187.82080078125 61898.89453125 -1442.8499755859375
v -5164.06787109375 61931.5859375 -1459.5889892578125
v -5217.81787109375 61958.97265625 -1540.4110107421875
v -5212.64599609375 61974.89453125 -1500
v -5230.30615234375 61920.5390625 -1557.1500244140625
v -5242.79296875 61882.109375 -1540.4110107421875
v -5247.9658203125 61866.1875 -1500
v -5242.79296875 61882.109375 -1459.5889892578125
v -5230.30615234375 61920.5390625 -1442.8499755859375
v -5217.81787109375 61958.97265625 -1459.5889892578125
v -5277.39990234375 61968.41015625 -1540.4110107421875
v -5277.39990234375 61985.1484375 -1500
v -5277.39990234375 61928 -1557.1500244140625
v -5277.39990234375 61887.58984375 -1540.4110107421875
v -5277.39990234375 61870.8515625 -1500
v -5277.39990234375 61887.58984375 -1459.5889892578125
v -5277.39990234375 61928 -1442.8499755859375
v -5277.39990234375 61968.41015625 -1459.5889892578125
v -5276.60009765625 61968.41015625 -1459.5889892578125
v -5276.60009765625 61928 -1442.8499755859375
v -5276.60009765625 61887.58984375 -1459.5889892578125
v -5276.60009765625 61870.8515625 -1500
v -5276.60009765625 61887.58984375 -1540.4110107421875
v -5276.60009765625 61928 -1557.1500244140625
v -5276.60009765625 61968.41015625 -1540.4110107421875
v -5276.60009765625 61985.1484375 -1500
v -5336.18212890625 61958.97265625 -1540.4110107421875
v -5341.35400390625 61974.89453125 -1500
v -5323.69384765625 61920.5390625 -1557.1500244140625
v -5311.20703125 61882.109375 -1540.4110107421875
v -5306.0341796875 61866.1875 -1500
v -5311.20703125 61882.109375 -1459.5889892578125
v -5323.69384765625 61920.5390625 -1442.8499755859375
v -5336.18212890625 61958.97265625 -1459.5889892578125
v -5389.93212890625 61931.5859375 -1540.4110107421875
v -5399.77099609375 61945.12890625 -1500
v -5366.17919921875 61898.89453125 -1557.1500244140625
v -5342.4248046875 61866.19921875 -1540.4110107421875
v -5332.5859375 61852.66015625 -1500
v -5342.4248046875 61866.19921875 -1459.5889892578125
v -5366.17919921875 61898.89453125 -1442.8499755859375
v -5389.93212890625 61931.5859375 -1459.5889892578125
v -5432.5869140625 61888.9296875 -1540.4110107421875
v -5446.12890625 61898.76953125 -1500
v -5399.89404296875 61865.1796875 -1557.1500244140625
v -5367.201171875 61841.42578125 -1540.4110107421875
v -5353.6591796875 61831.5859375 -1500
v -5367.201171875 61841.42578125 -1459.5889892578125
v -5399.89404296875 61865.1796875 -1442.8499755859375
v -5432.5869140625 61888.9296875 -1459.5889892578125
v -5459.97412109375 61835.18359375 -1540.4110107421875
v -5475.89404296875 61840.35546875 -1500
v -5421.541015625 61822.6953125 -1557.1500244140625
v -5383.10791015625 61810.20703125 -1540.4110107421875
v -5367.18798828125 61805.03515625 -1500
v -5383.10791015625 61810.20703125 -1459.5889892578125
v -5421.541015625 61822.6953125 -1442.8499755859375
v -5459.97412109375 61835.18359375 -1459.5889892578125
v -5469.4111328125 61775.6015625 -1540.4110107421875
v -5486.14990234375 61775.6015625 -1500
v -5429 61775.6015625 -1557.1500244140625
v -5388.5888671875 61775.6015625 -1540.4110107421875
v -5371.85009765625 61775.6015625 -1500
v -5388.5888671875 61775.6015625 -1459.5889892578125
v -5429 61775.6015625 -1442.8499755859375
v -5469.4111328125 61775.6015625 -1459.5889892578125
v -5084.5888671875 61400 -1459.5889892578125
v -5125 61400 -1442.8499755859375
v -5165.4111328125 61400 -1459.5889892578125
v -5182.14990234375 61400 -1500
v -5165.4111328125 61400 -1540.4110107421875
v -5125 61400 -1557.1500244140625
v -5084.5888671875 61400 -1540.4110107421875
v -5067.85009765625 61400 -1500
v -5084.5888671875 61775.6015625 -1459.5889892578125
v -5084.5888671875 61775.6015625 -1459.5889892578125
v -5125 61775.6015625 -1442.8499755859375
v -5125 61775.6015625 -1442.8499755859375
v -5165.4111328125 61775.6015625 -1459.5889892578125
v -5165.4111328125 61775.6015625 -1459.5889892578125
v -5182.14990234375 61775.6015625 -1500
v -5182.14990234375 61775.6015625 -1500
v -5165.4111328125 61775.6015625 -1540.4110107421875
v -5165.4111328125 61775.6015625 -1540.4110107421875
v -5125 61775.6015625 -1557.1500244140625
v -5125 61775.6015625 -1557.1500244140625
v -5084.5888671875 61775.6015625 -1540.4110107421875
v -5084.5888671875 61775.6015625 -1540.4110107421875
v -5067.85009765625 61775.6015625 -1500
v -5067.85009765625 61775.6015625 -1500
v -5277.39990234375 61968.41015625 -1540.4110107421875
v -5277.39990234375 61985.1484375 -1500
v -5277.39990234375 61928 -1557.1500244140625
v -5277.39990234375 61887.58984375 -1540.4110107421875
v -5277.39990234375 61870.8515625 -1500
v -5277.39990234375 61887.58984375 -1459.5889892578125
v -5277.39990234375 61928 -1442.8499755859375
v -5277.39990234375 61968.41015625 -1459.5889892578125
v -5276.60009765625 61968.41015625 -1459.5889892578125
v -5276.60009765625 61928 -1442.8499755859375
v -5276.60009765625 61887.58984375 -1459.5889892578125
v -5276.60009765625 61870.8515625 -1500
v -5276.60009765625 61887.58984375 -1540.4110107421875
v -5276.60009765625 61928 -1557.1500244140625
v -5276.60009765625 61968.41015625 -1540.4110107421875
v -5276.60009765625 61985.1484375 -1500
v -5469.4111328125 61775.6015625 -1540.4110107421875
v -5486.14990234375 61775.6015625 -1500
v -5429 61775.6015625 -1557.1500244140625
v -5388.5888671875 61775.6015625 -1540.4110107421875
v -5371.85009765625 61775.6015625 -1500
v -5388.5888671875 61775.6015625 -1459.5889892578125
v -5429 61775.6015625 -1442.8499755859375
v -5469.4111328125 61775.6015625 -1459.5889892578125
v -5084.5888671875 61400 -1459.5889892578125
v -5125 61400 -1442.8499755859375
v -5165.4111328125 61400 -1459.5889892578125
v -5182.14990234375 61400 -1500
v -5165.4111328125 61400 -1540.4110107421875
v -5125 61400 -1557.1500244140625
v -5084.5888671875 61400 -1540.4110107421875
v -5067.85009765625 61400 -1500
# 152 elements written

vn 0.70474916696548462 0.063267745077610016 0.70662987232208252
vn -0.00012648920528590679 0.010923784226179123 0.99994039535522461
vn -0.70595705509185791 -0.048006065189838409 0.70662581920623779
vn -0.99691128730773926 -0.078532576560974121 -0.00072780641494318843
vn -0.70474910736083984 -0.063269078731536865 -0.70662987232208252
vn 0.00012649458949454129 -0.010923593305051327 -0.99994039535522461
vn 0.70595693588256836 0.048006694763898849 -0.70662587881088257
vn 0.99691152572631836 0.078529104590415955 0.00072804873343557119
vn 0.67592543363571167 0.2035452276468277 -0.70830374956130981
vn 0.95105254650115967 0.30902907252311707 -1.896317030514183e-06
vn 0.0067561655305325985 -0.020793065428733826 -0.99976098537445068
vn -0.6664699912071228 -0.23263682425022125 -0.70830625295639038
vn -0.95105397701263428 -0.30902472138404846 2.303831024619285e-06
vn -0.67592626810073853 -0.20353837311267853 0.70830494165420532
vn -0.0067546218633651733 0.020796647295355797 0.99976086616516113
vn 0.6664663553237915 0.23264580965042114 0.70830684900283813
vn 0.57994723320007324 0.40245708823204041 -0.70830035209655762
vn 0.80901426076889038 0.58778905868530273 -2.5646415906521725e-06
vn 0.012859802693128586 -0.017682706937193871 -0.99976092576980591
vn -0.56195920705795288 -0.42720949649810791 -0.70830351114273071
vn -0.80901253223419189 -0.58779138326644897 -8.0036252256832086e-06
vn -0.57993394136428833 -0.40245693922042847 0.70831137895584106
vn -0.012843379750847816 0.017692582681775093 0.99976092576980591
vn 0.56196480989456177 0.42720168828964233 0.70830380916595459
vn 0.42719992995262146 0.56196093559265137 -0.70830786228179932
vn 0.58779406547546387 0.80901062488555908 -3.3199323752342025e-06
vn 0.017690464854240417 -0.012839527800679207 -0.99976104497909546
vn -0.40245231986045837 -0.57994979619979858 -0.70830094814300537
vn -0.58778530359268188 -0.80901694297790527 5.998589131195331e-06
vn -0.42721393704414368 -0.56196916103363037 0.70829290151596069
vn -0.017678406089544296 0.012856769375503063 0.99976104497909546
vn 0.40245109796524048 0.57994300127029419 0.70830726623535156
vn 0.23263669013977051 0.66645956039428711 -0.7083161473274231
vn 0.30901074409484863 0.95105862617492676 4.5859837882744614e-06
vn 0.020792024210095406 -0.0067670163698494434 -0.99976092576980591
vn -0.20355977118015289 -0.67591309547424316 -0.70831131935119629
vn -0.30903896689414978 -0.95104938745498657 7.5635480243363418e-06
vn -0.23264959454536438 -0.66646981239318848 0.70830231904983521
vn -0.020801478996872902 0.0067512658424675465 0.99976086616516113
vn 0.20352783799171448 0.67592209577560425 0.70831191539764404
vn -1 0 0
vn -1 0 0
vn -1 0 0
vn -1 0 0
vn -1 0 0
vn -1 0 0
vn -1 0 0
vn -1 0 0
vn -0.12511101365089417 0.78995585441589355 0.60026413202285767
vn -0.021659018471837044 0.13674049079418182 0.99037003517150879
vn 0.094991996884346008 -0.59978067874908447 0.79450595378875732
vn 0.15503941476345062 -0.97862136363983154 0.13514035940170288
vn 0.12513051927089691 -0.78995329141616821 -0.60026329755783081
vn 0.021656660363078117 -0.13675296306610107 -0.99036842584609985
vn -0.095004759728908539 0.59976840019226074 -0.79451370239257812
vn -0.15498220920562744 0.97863119840621948 -0.13513492047786713
vn -0.20352785289287567 0.67592203617095947 -0.70831197500228882
vn -0.30901074409484863 0.95105850696563721 -4.6022837523196358e-06
vn 0.020801469683647156 0.0067512542009353638 -0.99976074695587158
vn 0.23264962434768677 -0.6664697527885437 -0.70830237865447998
vn 0.30903896689414978 -0.95104938745498657 -7.5581142482405994e-06
vn 0.20355977118015289 -0.67591303586959839 0.70831125974655151
vn -0.020792031660676003 -0.00676699448376894 0.99976092576980591
vn -0.23263669013977051 0.66645956039428711 0.7083161473274231
vn -0.40245115756988525 0.57994300127029419 -0.70830726623535156
vn -0.58779412508010864 0.80901062488555908 3.3199323752342025e-06
vn 0.017678406089544296 0.012856759130954742 -0.99976104497909546
vn 0.42721393704414368 -0.56196916103363037 -0.70829290151596069
vn 0.58778530359268188 -0.80901694297790527 -5.9931558098469395e-06
vn 0.40245231986045837 -0.57994985580444336 0.70830100774765015
vn -0.017690455541014671 -0.012839525938034058 0.99976104497909546
vn -0.42719992995262146 0.56196093559265137 0.70830786228179932
vn -0.56196486949920654 0.42720162868499756 -0.70830380916595459
vn -0.80901426076889038 0.58778893947601318 2.5537742658343632e-06
vn 0.012843379750847816 0.017692586407065392 -0.99976092576980591
vn 0.57993400096893311 -0.40245696902275085 -0.70831137895584106
vn 0.80901253223419189 -0.58779138326644897 7.9981919043348171e-06
vn 0.56195926666259766 -0.42720946669578552 0.70830351114273071
vn -0.012859808281064034 -0.01768270879983902 0.99976092576980591
vn -0.57994723320007324 0.40245714783668518 0.70830047130584717
vn -0.6664663553237915 0.23264585435390472 -0.70830684900283813
vn -0.95105254650115967 0.30902907252311707 1.896317030514183e-06
vn 0.0067546381615102291 0.020796645432710648 -0.99976086616516113
vn 0.6759263277053833 -0.20353837311267853 -0.70830488204956055
vn 0.95105397701263428 -0.30902472138404846 -2.3092645733413519e-06
vn 0.66647005081176758 -0.23263686895370483 0.70830631256103516
vn -0.0067561380565166473 -0.020793065428733826 0.99976098537445068
vn -0.67592537403106689 0.2035452127456665 0.70830368995666504
vn 0 -1 0
vn 0 -1 0
vn 0 -1 0
vn 0 -1 0
vn 0 -1 0
vn 0 -1 0
vn 0 -1 0
vn 0 -1 0
vn 0.7971760630607605 0 0.60374695062637329
vn 0.13677504658699036 0 0.99060219526290894
vn -0.60375016927719116 0 0.79717355966567993
vn -0.99060231447219849 0 0.13677346706390381
vn -0.7971760630607605 0 -0.60374695062637329
vn -0.13677504658699036 0 -0.99060219526290894
vn 0.60375016927719116 0 -0.79717355966567993
vn 0.99060231447219849 0 -0.13677346706390381
vn 0 -1 0
vn 0 1 0
vn 0 -1 0
vn 0 1 0
vn 0 -1 0
vn 0 1 0
vn 0 -1 0
vn 0 1 0
vn 0 -1 0
vn 0 1 0
vn 0 -1 0
vn 0 1 0
vn 0 -1 0
vn 0 1 0
vn 0 -1 0
vn 0 1 0
vn 0.12511101365089417 0.78995585441589355 -0.60026413202285767
vn 0.15498222410678864 0.97863119840621948 0.13513492047786713
vn 0.021659018471837044 0.13674049079418182 -0.99037003517150879
vn -0.094991996884346008 -0.59978067874908447 -0.79450595378875732
vn -0.15503941476345062 -0.97862142324447632 -0.13514034450054169
vn -0.12513053417205811 -0.78995329141616821 0.60026329755783081
vn -0.02165665291249752 -0.13675296306610107 0.99036842584609985
vn 0.095004759728908539 0.59976840019226074 0.79451370239257812
vn 1 0 0
vn 1 0 0
vn 1 0 0
vn 1 0 0
vn 1 0 0
vn 1 0 0
vn 1 0 0
vn 1 0 0
vn -0.78995990753173828 0.12511773407459259 -0.60025721788406372
vn -0.97863030433654785 0.15499909222126007 0.13512252271175385
vn -0.13674312829971313 0.021658314391970634 -0.99036979675292969
vn 0.5997658371925354 -0.094993621110916138 -0.79451698064804077
vn 0.97862911224365234 -0.15500585734844208 -0.13512296974658966
vn 0.78995972871780396 -0.12512034177780151 0.60025709867477417
vn 0.13674309849739075 -0.021657936275005341 0.99036973714828491
vn -0.59976553916931152 0.094994857907295227 0.79451698064804077
vn 0 -1 0
vn 0 -1 0
vn 0 -1 0
vn 0 -1 0
vn 0 -1 0
vn 0 -1 0
vn 0 -1 0
vn 0 -1 0
# 152 elements written
f 105//105 107//107 109//109 
f 105//105 109//109 111//111 
f 105//105 111//111 113//113 
f 105//105 113//113 115//115 
f 105//105 115//115 117//117 
f 105//105 117//117 119//119 
f 8//8 7//7 9//9 
f 8//8 9//9 10//10 
f 7//7 6//6 11//11 
f 7//7 11//11 9//9 
f 6//6 5//5 12//12 
f 6//6 12//12 11//11 
f 5//5 4//4 13//13 
f 5//5 13//13 12//12 
f 4//4 3//3 14//14 
f 4//4 14//14 13//13 
f 3//3 2//2 15//15 
f 3//3 15//15 14//14 
f 2//2 1//1 16//16 
f 2//2 16//16 15//15 
f 1//1 8//8 10//10 
f 1//1 10//10 16//16 
f 10//10 9//9 17//17 
f 10//10 17//17 18//18 
f 9//9 11//11 19//19 
f 9//9 19//19 17//17 
f 11//11 12//12 20//20 
f 11//11 20//20 19//19 
f 12//12 13//13 21//21 
f 12//12 21//21 20//20 
f 13//13 14//14 22//22 
f 13//13 22//22 21//21 
f 14//14 15//15 23//23 
f 14//14 23//23 22//22 
f 15//15 16//16 24//24 
f 15//15 24//24 23//23 
f 16//16 10//10 18//18 
f 16//16 18//18 24//24 
f 18//18 17//17 25//25 
f 18//18 25//25 26//26 
f 17//17 19//19 27//27 
f 17//17 27//27 25//25 
f 19//19 20//20 28//28 
f 19//19 28//28 27//27 
f 20//20 21//21 29//29 
f 20//20 29//29 28//28 
f 21//21 22//22 30//30 
f 21//21 30//30 29//29 
f 22//22 23//23 31//31 
f 22//22 31//31 30//30 
f 23//23 24//24 32//32 
f 23//23 32//32 31//31 
f 24//24 18//18 26//26 
f 24//24 26//26 32//32 
f 26//26 25//25 33//33 
f 26//26 33//33 34//34 
f 25//25 27//27 35//35 
f 25//25 35//35 33//33 
f 27//27 28//28 36//36 
f 27//27 36//36 35//35 
f 28//28 29//29 37//37 
f 28//28 37//37 36//36 
f 29//29 30//30 38//38 
f 29//29 38//38 37//37 
f 30//30 31//31 39//39 
f 30//30 39//39 38//38 
f 31//31 32//32 40//40 
f 31//31 40//40 39//39 
f 32//32 26//26 34//34 
f 32//32 34//34 40//40 
f 34//34 33//33 121//121 
f 34//34 121//121 122//122 
f 33//33 35//35 123//123 
f 33//33 123//123 121//121 
f 35//35 36//36 124//124 
f 35//35 124//124 123//123 
f 36//36 37//37 125//125 
f 36//36 125//125 124//124 
f 37//37 38//38 126//126 
f 37//37 126//126 125//125 
f 38//38 39//39 127//127 
f 38//38 127//127 126//126 
f 39//39 40//40 128//128 
f 39//39 128//128 127//127 
f 40//40 34//34 122//122 
f 40//40 122//122 128//128 
f 42//42 41//41 43//43 
f 42//42 43//43 44//44 
f 42//42 44//44 45//45 
f 42//42 45//45 46//46 
f 42//42 46//46 47//47 
f 42//42 47//47 48//48 
f 129//129 130//130 131//131 
f 129//129 131//131 132//132 
f 129//129 132//132 133//133 
f 129//129 133//133 134//134 
f 129//129 134//134 135//135 
f 129//129 135//135 136//136 
f 56//56 55//55 57//57 
f 56//56 57//57 58//58 
f 55//55 54//54 59//59 
f 55//55 59//59 57//57 
f 54//54 53//53 60//60 
f 54//54 60//60 59//59 
f 53//53 52//52 61//61 
f 53//53 61//61 60//60 
f 52//52 51//51 62//62 
f 52//52 62//62 61//61 
f 51//51 50//50 63//63 
f 51//51 63//63 62//62 
f 50//50 49//49 64//64 
f 50//50 64//64 63//63 
f 49//49 56//56 58//58 
f 49//49 58//58 64//64 
f 58//58 57//57 65//65 
f 58//58 65//65 66//66 
f 57//57 59//59 67//67 
f 57//57 67//67 65//65 
f 59//59 60//60 68//68 
f 59//59 68//68 67//67 
f 60//60 61//61 69//69 
f 60//60 69//69 68//68 
f 61//61 62//62 70//70 
f 61//61 70//70 69//69 
f 62//62 63//63 71//71 
f 62//62 71//71 70//70 
f 63//63 64//64 72//72 
f 63//63 72//72 71//71 
f 64//64 58//58 66//66 
f 64//64 66//66 72//72 
f 66//66 65//65 73//73 
f 66//66 73//73 74//74 
f 65//65 67//67 75//75 
f 65//65 75//75 73//73 
f 67//67 68//68 76//76 
f 67//67 76//76 75//75 
f 68//68 69//69 77//77 
f 68//68 77//77 76//76 
f 69//69 70//70 78//78 
f 69//69 78//78 77//77 
f 70//70 71//71 79//79 
f 70//70 79//79 78//78 
f 71//71 72//72 80//80 
f 71//71 80//80 79//79 
f 72//72 66//66 74//74 
f 72//72 74//74 80//80 
f 74//74 73//73 81//81 
f 74//74 81//81 82//82 
f 73//73 75//75 83//83 
f 73//73 83//83 81//81 
f 75//75 76//76 84//84 
f 75//75 84//84 83//83 
f 76//76 77//77 85//85 
f 76//76 85//85 84//84 
f 77//77 78//78 86//86 
f 77//77 86//86 85//85 
f 78//78 79//79 87//87 
f 78//78 87//87 86//86 
f 79//79 80//80 88//88 
f 79//79 88//88 87//87 
f 80//80 74//74 82//82 
f 80//80 82//82 88//88 
f 82//82 81//81 137//137 
f 82//82 137//137 138//138 
f 81//81 83//83 139//139 
f 81//81 139//139 137//137 
f 83//83 84//84 140//140 
f 83//83 140//140 139//139 
f 84//84 85//85 141//141 
f 84//84 141//141 140//140 
f 85//85 86//86 142//142 
f 85//85 142//142 141//141 
f 86//86 87//87 143//143 
f 86//86 143//143 142//142 
f 87//87 88//88 144//144 
f 87//87 144//144 143//143 
f 88//88 82//82 138//138 
f 88//88 138//138 144//144 
f 90//90 89//89 91//91 
f 90//90 91//91 92//92 
f 90//90 92//92 93//93 
f 90//90 93//93 94//94 
f 90//90 94//94 95//95 
f 90//90 95//95 96//96 
f 145//145 146//146 147//147 
f 145//145 147//147 148//148 
f 145//145 148//148 149//149 
f 145//145 149//149 150//150 
f 145//145 150//150 151//151 
f 145//145 151//151 152//152 
f 120//120 118//118 116//116 
f 120//120 116//116 114//114 
f 120//120 114//114 112//112 
f 120//120 112//112 110//110 
f 120//120 110//110 108//108 
f 120//120 108//108 106//106 
f 104//104 103//103 7//7 
f 104//104 7//7 8//8 
f 103//103 102//102 6//6 
f 103//103 6//6 7//7 
f 102//102 101//101 5//5 
f 102//102 5//5 6//6 
f 101//101 100//100 4//4 
f 101//101 4//4 5//5 
f 100//100 99//99 3//3 
f 100//100 3//3 4//4 
f 99//99 98//98 2//2 
f 99//99 2//2 3//3 
f 98//98 97//97 1//1 
f 98//98 1//1 2//2 
f 97//97 104//104 8//8 
f 97//97 8//8 1//1 
